<?xml version="1.0" encoding="UTF-8" standalone="no"?>
<svg
   width="177.17"
   height="177.17"
   shape-rendering="geometricPrecision"
   image-rendering="optimizeQuality"
   fill-rule="evenodd"
   clip-rule="evenodd"
   viewBox="0 0 50 50"
   version="1.1"
   id="svg961"
   sodipodi:docname="fairyqueen.svg"
   xml:space="preserve"
   inkscape:version="1.2.2 (732a01da63, 2022-12-09)"
   xmlns:inkscape="http://www.inkscape.org/namespaces/inkscape"
   xmlns:sodipodi="http://sodipodi.sourceforge.net/DTD/sodipodi-0.dtd"
   xmlns="http://www.w3.org/2000/svg"
   xmlns:svg="http://www.w3.org/2000/svg"><defs
     id="defs965"><linearGradient
       id="0"
       gradientUnits="userSpaceOnUse"
       x1="21.129999"
       y1="37.349998"
       x2="77.760002"
       y2="37.469002"
       gradientTransform="matrix(1,0,0,0.97324,0,1.243)"><stop
         stop-color="#fff"
         id="stop2" /><stop
         offset="1"
         stop-color="#fff"
         stop-opacity="0"
         id="stop4" /></linearGradient><linearGradient
       id="0-2"
       x1="21.253"
       y1="37.220001"
       x2="77.760002"
       y2="37.360001"
       gradientUnits="userSpaceOnUse"><stop
         stop-color="#fff"
         id="stop2-7"
         offset="0"
         style="stop-color:#96ff96;stop-opacity:1;" /><stop
         offset="1"
         stop-color="#fff"
         stop-opacity="0"
         id="stop4-7" /></linearGradient><linearGradient
       id="0-0"
       x1="21.253"
       y1="37.220001"
       x2="77.639999"
       y2="37.349998"
       gradientUnits="userSpaceOnUse"><stop
         stop-color="#fff"
         id="stop2-6" /><stop
         offset="1"
         stop-color="#fff"
         stop-opacity="0"
         id="stop4-3" /></linearGradient></defs><sodipodi:namedview
     id="namedview963"
     pagecolor="#ffffff"
     bordercolor="#000000"
     borderopacity="0.25"
     inkscape:showpageshadow="2"
     inkscape:pageopacity="0.0"
     inkscape:pagecheckerboard="0"
     inkscape:deskcolor="#d1d1d1"
     showgrid="false"
     inkscape:zoom="2.6471751"
     inkscape:cx="146.38246"
     inkscape:cy="84.996267"
     inkscape:window-width="1920"
     inkscape:window-height="974"
     inkscape:window-x="-11"
     inkscape:window-y="-11"
     inkscape:window-maximized="1"
     inkscape:current-layer="svg961" /><g
     id="g2352"
     transform="translate(0.56442965)"
     style="fill:#888888;fill-opacity:1"><path
       style="clip-rule:evenodd;fill:#888888;fill-rule:evenodd;stroke:none;stroke-width:2.11661;stroke-linecap:round;image-rendering:optimizeQuality;shape-rendering:geometricPrecision;stop-color:#000000;fill-opacity:1"
       d="m 21.364832,26.083043 c 0,0 -9.98278,-9.031412 -13.8263804,-8.895374 -4.9660218,0.175764 -7.05861745,4.986058 -6.2569148,8.819989 1.0616151,5.076892 10.8553702,9.799989 10.8553702,9.799989 0,0 -6.5472539,1.931112 -6.4830682,5.503068 0.1050829,5.847905 3.9242265,6.302986 6.7092212,6.407685 4.266853,0.160407 13.192291,-5.729224 13.192291,-5.729224 0,0 8.116251,6.540544 12.287678,5.879992 2.647378,-0.419217 5.829679,-3.727436 5.804607,-6.407683 -0.03334,-3.56353 -6.859991,-6.558455 -6.859991,-6.558455 0,0 10.459509,-4.960229 10.327678,-9.875371 -0.127014,-4.735558 -4.047256,-7.076668 -7.049406,-7.084236 -3.504446,-0.0088 -8.932113,8.215004 -8.932113,8.215004 z"
       id="path1089"
       sodipodi:nodetypes="csscsscsscsscc" /></g><g
     style="clip-rule:evenodd;fill-rule:evenodd;image-rendering:optimizeQuality;shape-rendering:geometricPrecision;fill:#888888;fill-opacity:1"
     id="g179"
     transform="translate(0.04974,-1.1663409)"><g
       fill="#1f1a17"
       id="g21"
       style="fill:#888888;fill-opacity:1"><path
         d="m 24.949,10.752 c -0.94,0 -1.744,-0.33 -2.396,-0.991 -0.652,-0.66 -0.974,-1.465 -0.974,-2.405 0,-0.931 0.322,-1.727 0.974,-2.388 0.652,-0.66 1.456,-0.991 2.396,-0.991 0.923,0 1.727,0.33 2.396,0.991 0.669,0.66 0.999,1.456 0.999,2.388 0,0.94 -0.33,1.744 -0.999,2.405 -0.669,0.66 -1.473,0.991 -2.396,0.991"
         id="path9"
         style="fill:#888888;fill-opacity:1" /><path
         d="M 34.021274,43.942 C 29.99125,45.938479 27.29358,46.385256 24.999,46.448 22.877059,46.506023 17.925735,45.726624 15.924726,43.84 l 1.566,-5.952 -0.694,-3.895 -2.184,-3.793 -2.108,-15.426 1.211,-0.474 6.799,11.455 L 24.102,10.778 h 1.719 l 3.561274,14.978 6.824,-11.481 1.16,0.542 -2.057,15.359 -2.21,3.793 -0.694,3.946 1.617,6.03"
         id="path11"
         sodipodi:nodetypes="cscccccccccccccccc"
         style="fill:#888888;fill-opacity:1" /><path
         d="m 11.608726,14.723 c -0.94,0 -1.7359999,-0.33 -2.3879999,-0.982 -0.652,-0.652 -0.982,-1.448 -0.982,-2.396 0,-0.923 0.33,-1.719 0.982,-2.388 0.652,-0.677 1.4479999,-1.01 2.3879999,-1.01 0.948,0 1.744,0.33 2.413,1.01 0.66,0.669 0.991,1.465 0.991,2.388 0,0.948 -0.33,1.744 -0.991,2.396 -0.669,0.652 -1.465,0.982 -2.413,0.982"
         id="path17"
         sodipodi:nodetypes="csscscscc"
         style="fill:#888888;fill-opacity:1" /><path
         d="m 38.332274,14.723 c -0.94,0 -1.744,-0.33 -2.405,-0.982 -0.66,-0.652 -0.991,-1.448 -0.991,-2.396 0,-0.923 0.33,-1.719 0.991,-2.388 0.66,-0.677 1.465,-1.01 2.405,-1.01 0.931,0 1.727,0.33 2.388,1.01 0.66,0.669 0.991,1.465 0.991,2.388 0,0.948 -0.33,1.744 -0.991,2.396 -0.66,0.652 -1.456,0.982 -2.388,0.982"
         id="path19"
         sodipodi:nodetypes="ccscscscc"
         style="fill:#888888;fill-opacity:1" /></g></g></svg>
