<?xml version="1.0" encoding="UTF-8" standalone="no"?>
<svg
   width="177.17"
   height="177.17"
   shape-rendering="geometricPrecision"
   image-rendering="optimizeQuality"
   fill-rule="evenodd"
   clip-rule="evenodd"
   viewBox="0 0 50 50"
   version="1.1"
   id="svg4109"
   sodipodi:docname="fairyguard.svg"
   xml:space="preserve"
   inkscape:version="1.2.2 (732a01da63, 2022-12-09)"
   xmlns:inkscape="http://www.inkscape.org/namespaces/inkscape"
   xmlns:sodipodi="http://sodipodi.sourceforge.net/DTD/sodipodi-0.dtd"
   xmlns:xlink="http://www.w3.org/1999/xlink"
   xmlns="http://www.w3.org/2000/svg"
   xmlns:svg="http://www.w3.org/2000/svg"><sodipodi:namedview
     id="namedview4111"
     pagecolor="#ffffff"
     bordercolor="#666666"
     borderopacity="1.0"
     inkscape:showpageshadow="2"
     inkscape:pageopacity="0.0"
     inkscape:pagecheckerboard="0"
     inkscape:deskcolor="#d1d1d1"
     showgrid="false"
     inkscape:zoom="2.1180223"
     inkscape:cx="52.171311"
     inkscape:cy="101.50979"
     inkscape:window-width="1920"
     inkscape:window-height="974"
     inkscape:window-x="-11"
     inkscape:window-y="-11"
     inkscape:window-maximized="1"
     inkscape:current-layer="svg4109" /><defs
     id="defs4103"><linearGradient
       id="0"
       gradientUnits="userSpaceOnUse"
       x1="21.129999"
       y1="37.349998"
       x2="77.760002"
       y2="37.469002"
       gradientTransform="matrix(1,0,0,0.97324,0,1.243)"><stop
         stop-color="#fff"
         id="stop2" /><stop
         offset="1"
         stop-color="#fff"
         stop-opacity="0"
         id="stop4" /></linearGradient><linearGradient
       id="linearGradient1075"
       gradientUnits="userSpaceOnUse"
       x1="21.129999"
       y1="37.349998"
       x2="77.760002"
       y2="37.469002"
       gradientTransform="matrix(1,0,0,0.97324,0.06443299,1.243)"
       spreadMethod="pad"><stop
         stop-color="#fff"
         id="stop1071" /><stop
         offset="1"
         stop-color="#fff"
         stop-opacity="0"
         id="stop1073"
         style="stop-color:#ffffff;stop-opacity:1;" /></linearGradient><linearGradient
       id="linearGradient1069"
       gradientUnits="userSpaceOnUse"
       x1="21.129999"
       y1="37.349998"
       x2="77.760002"
       y2="37.469002"
       gradientTransform="matrix(1,0,0,0.97324,0.06443299,1.243)"
       spreadMethod="pad"><stop
         stop-color="#fff"
         id="stop1065" /><stop
         offset="1"
         stop-color="#fff"
         stop-opacity="0"
         id="stop1067"
         style="stop-color:#ffffff;stop-opacity:0.89999998;" /></linearGradient><linearGradient
       id="linearGradient1063"
       gradientUnits="userSpaceOnUse"
       x1="21.129999"
       y1="37.349998"
       x2="77.760002"
       y2="37.469002"
       gradientTransform="matrix(1,0,0,0.97324,0.06443299,1.243)"
       spreadMethod="pad"><stop
         stop-color="#fff"
         id="stop1059" /><stop
         offset="1"
         stop-color="#fff"
         stop-opacity="0"
         id="stop1061"
         style="stop-color:#ffffff;stop-opacity:0.82083338;" /></linearGradient><linearGradient
       id="linearGradient1057"
       gradientUnits="userSpaceOnUse"
       x1="21.13"
       y1="37.35"
       x2="77.76"
       y2="37.469"
       gradientTransform="matrix(1,0,0,0.97324,0.06443299,1.243)"><stop
         stop-color="#fff"
         id="stop1053" /><stop
         offset="1"
         stop-color="#fff"
         stop-opacity="0"
         id="stop1055"
         style="stop-color:#ffffff;stop-opacity:0.80416662;" /></linearGradient><linearGradient
       id="0-7"
       gradientUnits="userSpaceOnUse"
       x1="21.129999"
       y1="37.349998"
       x2="77.760002"
       y2="37.469002"
       gradientTransform="matrix(1,0,0,0.97324,0.06443299,1.243)"
       xlink:href="#linearGradient1848"><stop
         stop-color="#fff"
         id="stop2-6" /><stop
         offset="1"
         stop-color="#fff"
         stop-opacity="0"
         id="stop4-4" /></linearGradient></defs><g
     id="g40776"
     transform="translate(0.92862314)"
     style="fill:#888888;fill-opacity:1"><path
       style="fill:#888888;fill-opacity:1;stroke-width:0.0401229"
       d="m 8.2830494,46.457922 c 0.333111,-1.50321 2.5680806,-11.13793 2.6978236,-11.621739 2.42598,-0.63261 2.222456,-0.236185 4.868328,-0.419523 0.971187,-0.03178 1.8956,0.168316 3.083541,-0.132729 0.311394,-0.447442 0.354741,-0.323583 0.354695,-0.64855 -1.32e-4,-0.930186 0.222802,-1.384913 -0.564869,-1.619505 -0.631165,-0.18798 -1.159679,-0.199713 -3.076975,-0.06832 -0.485484,0.03325 -1.180615,0.07871 -1.544725,0.100988 -1.905408,0.116537 -2.610563,0.162742 -2.828663,0.185353 l -0.240738,0.02497 -0.2608,0.363173 c -0.143436,0.199744 -0.315349,0.43724 -0.382019,0.527764 -0.4115516,0.558783 -1.8178396,2.509374 -2.5557486,3.54495 -0.129731,0.182055 -0.253039,0.331007 -0.274027,0.331007 -0.02322,0 -0.03803,-0.428535 -0.0379,-1.093345 6.46e-4,-2.649273 0.378164,-5.226825 1.150217,-7.85405 0.297077,-1.010946 3.0081816,-7.604486 3.0823666,-7.604486 l 1.543413,0.392993 c 1.703191,-3.006496 5.853517,-2.639302 8.627825,-2.664985 0.941469,5.69e-4 1.635384,0.05795 2.467561,0.204162 0.244204,0.04289 1.182704,0.272947 1.404297,0.344221 0.08827,0.0284 0.313965,0.09953 0.501537,0.158079 0.187572,0.05853 0.397943,0.132596 0.467478,0.164535 0.06953,0.03195 0.146515,0.05809 0.171067,0.05809 0.02458,0 0.07598,0.01675 0.114304,0.03719 0.03829,0.02043 0.304387,0.131917 0.591265,0.247651 1.431126,0.57736 3.121405,1.56803 4.333273,2.539722 1.965656,1.576094 3.149421,3.302481 3.556207,5.186325 0.11344,0.525325 0.12354,1.672062 0.019,2.160231 -0.266481,1.24475 -0.813868,2.194711 -1.903967,3.304226 l -0.447532,0.455507 6e-6,3.235803 c 1.4e-5,3.473216 -0.0078,3.31885 0.2153,4.258935 0.336305,1.417157 0.974713,2.738058 1.714615,3.547629 0.208805,0.228468 0.232491,0.312879 0.06613,0.235663 -0.111531,-0.05177 -0.14127,-0.06398 -1.153471,-0.473426 -0.452388,-0.182997 -1.111403,-0.44995 -1.464485,-0.593229 -0.353083,-0.143283 -1.120433,-0.453007 -1.705224,-0.688281 -0.58479,-0.235273 -1.117418,-0.452455 -1.18362,-0.482627 -0.0662,-0.03018 -0.246564,-0.102238 -0.400808,-0.160147 -0.40401,-0.151686 -0.580645,-0.266584 -0.839291,-0.545949 -0.424533,-0.458545 -0.640537,-0.789152 -0.83695,-1.280988 -0.156372,-0.391578 -0.219381,-0.742397 -0.288237,-1.604914 -0.03434,-0.430314 -0.08046,-0.944891 -0.102456,-1.143504 -0.101661,-0.917783 -0.160304,-1.611479 -0.16031,-1.896171 -2e-5,-0.691761 -0.24976,-1.447179 -0.566946,-1.714886 -0.166914,-0.140875 -0.269875,-0.180574 -0.465668,-0.179558 -0.363709,0.0019 -0.690228,0.355727 -0.910759,0.98695 -0.08544,0.244547 -0.171216,0.60834 -0.344119,1.459551 -0.02017,0.09931 -0.06496,0.306941 -0.09951,0.461411 -0.03454,0.154477 -0.07959,0.371141 -0.10005,0.481475 -0.03836,0.206716 -0.259507,1.27291 -0.403661,1.94596 -0.136049,0.635201 -0.195889,0.92435 -0.278185,1.344115 -0.107275,0.547194 -0.168389,0.735684 -0.33527,1.034094 -0.544529,0.97372 -1.531933,1.858157 -2.79679,2.50515 -4.378684,1.330013 -8.383613,1.774199 -12.4764996,2.663039 z M 35.852582,42.617031 c -0.24759,-0.347718 -0.68099,-1.446412 -0.81498,-2.066083 -0.12452,-0.575832 -0.14738,-0.737191 -0.19275,-1.360264 -0.07021,-0.964093 -0.167567,-1.685386 0.08829,-2.991651 0.0753,-0.384464 0.0895,-0.450028 0.21901,-1.013165 0.11457,-0.498038 0.34227,-1.391419 0.48063,-1.885778 0.12275,-0.438612 0.18474,-0.668224 0.42782,-1.584851 0.13478,-0.508224 0.39613,-1.560241 0.43681,-1.758337 0.17497,-0.851993 0.23266,-1.203899 0.29951,-1.826914 0.13929,-1.298128 -0.0814,-2.407614 -0.642698,-3.429445 -1.29741,-2.361874 -2.552169,-3.388 -4.731307,-4.845589 -2.756184,-1.843565 -3.432382,-2.051511 -6.770079,-2.589261 -1.162195,-0.187249 -2.725055,-0.157851 -4.095274,-0.105928 -1.325997,0.05026 -2.685163,0.271893 -3.935338,0.641766 -0.304375,0.09005 -0.5821,0.172075 -0.617163,0.182275 -0.05142,0.01494 -1.482942,-3.544532 -2.819695,-7.019133 -0.911175,-2.3683971 -1.658862,-4.3325126 -1.661527,-4.3647156 2.20762,-0.2776959 4.402164,-0.4311487 6.932866,-0.4323069 l 0.725038,3.7604565 c 0.943364,0.0251 1.937391,0.0044 2.836854,0.11586 l 0.801602,-3.7390374 c 2.316571,0.1884521 4.422351,0.4365974 6.592569,1.0329977 l -0.890311,3.6972397 c 0.824565,0.278915 2.298635,0.979875 2.990732,1.479571 L 33.51152,8.7171922 c 2.313966,0.9342933 4.70212,3.4003108 5.924531,4.8970218 l -2.946637,3.328106 1.565355,-0.426647 2.6034,-0.709572 c 0.823118,1.394255 1.04362,1.896814 1.336778,3.731821 0.316973,5.206977 0.146175,6.483079 -1.313745,10.190286 -0.60648,1.357289 -1.05685,2.16774 -2.38622,4.294068 -1.97285,3.155583 -2.345423,3.945117 -2.561433,5.84656 -0.0922,0.811635 0.009,2.081615 0.22145,2.778508 0.0379,0.124326 -2.9e-4,0.113002 -0.10239,-0.03034 z"
       id="path15204"
       sodipodi:nodetypes="ccccssccscsssscscccsscsssssscscsssssssssssscsssssscsssccccssssscscsssscsccccccccccccccccssccc" /></g><g
     style="clip-rule:evenodd;fill-rule:evenodd;image-rendering:optimizeQuality;shape-rendering:geometricPrecision;fill:#888888;fill-opacity:1"
     id="g1785"
     transform="rotate(30,25.541296,49.470528)"><rect
       style="fill:#888888;fill-opacity:1;stroke:#888888;stroke-width:1.69329;stroke-linecap:square;stroke-dasharray:none;stroke-opacity:1;stop-color:#000000"
       id="rect17651"
       width="2.9933403"
       height="28.237177"
       x="23.148497"
       y="16.962261" /><rect
       style="fill:#888888;fill-opacity:1;stroke:#888888;stroke-width:1.69329;stroke-linecap:square;stroke-dasharray:none;stroke-opacity:1;stop-color:#000000"
       id="rect19892"
       width="2.4285715"
       height="5.9456177"
       x="29.62995"
       y="0.25688663"
       transform="rotate(40)" /><path
       style="fill:#888888;fill-opacity:1;stroke:none;stroke-width:1.69329;stroke-linecap:square;stop-color:#000000"
       d="m 24.345834,4.1906763 -7.483351,14.2682547 7.982241,4.390233 7.782684,-4.390233 z"
       id="path385"
       sodipodi:nodetypes="ccccc" /></g></svg>
