<?xml version="1.0" encoding="UTF-8" standalone="no"?>
<svg
   width="177.17"
   height="177.17"
   shape-rendering="geometricPrecision"
   image-rendering="optimizeQuality"
   fill-rule="evenodd"
   clip-rule="evenodd"
   viewBox="0 0 50 50"
   version="1.1"
   id="svg961"
   sodipodi:docname="fairy.svg"
   xml:space="preserve"
   inkscape:version="1.2.2 (732a01da63, 2022-12-09)"
   xmlns:inkscape="http://www.inkscape.org/namespaces/inkscape"
   xmlns:sodipodi="http://sodipodi.sourceforge.net/DTD/sodipodi-0.dtd"
   xmlns="http://www.w3.org/2000/svg"
   xmlns:svg="http://www.w3.org/2000/svg"><defs
     id="defs965"><linearGradient
       id="0"
       gradientUnits="userSpaceOnUse"
       x1="21.129999"
       y1="37.349998"
       x2="77.760002"
       y2="37.469002"
       gradientTransform="matrix(1,0,0,0.97324,0,1.243)"><stop
         stop-color="#fff"
         id="stop2" /><stop
         offset="1"
         stop-color="#fff"
         stop-opacity="0"
         id="stop4" /></linearGradient></defs><sodipodi:namedview
     id="namedview963"
     pagecolor="#ffffff"
     bordercolor="#000000"
     borderopacity="0.25"
     inkscape:showpageshadow="2"
     inkscape:pageopacity="0.0"
     inkscape:pagecheckerboard="0"
     inkscape:deskcolor="#d1d1d1"
     showgrid="false"
     inkscape:zoom="3.7436709"
     inkscape:cx="112.85714"
     inkscape:cy="89.751479"
     inkscape:window-width="1920"
     inkscape:window-height="974"
     inkscape:window-x="-11"
     inkscape:window-y="-11"
     inkscape:window-maximized="1"
     inkscape:current-layer="svg961" /><g
     id="g1806"
     style="fill:#888888;fill-opacity:1"><path
       style="fill:#888888;stroke-width:2.11661;stroke-linecap:round;stop-color:#000000;fill-opacity:1"
       d="m 24.991551,42.434601 c 0,0 -18.8929412,-9.9824 -21.2967422,-17.636345 C 1.4767538,17.73574 2.0585248,11.442474 7.5807068,10.064023 13.042716,8.7005919 19.638568,17.6928 22.506081,22.53737 c 1.402683,2.369788 2.452025,7.889125 2.452025,7.889125 0,0 1.258714,-6.034488 2.65231,-8.229465 C 30.979298,16.890891 38.173112,7.4154034 44.12866,9.4243643 50.695733,11.639609 47.190147,24.661398 42.717784,29.955898 37.966701,35.580355 24.991551,42.434601 24.991551,42.434601 Z"
       id="path982"
       sodipodi:nodetypes="cssscsssc" /></g><path
     d="m 19.911,43.561066 c -1.168,-0.527496 -2.125,-1.326526 -2.862,-2.398063 -0.737,-1.071537 -1.101,-2.282248 -1.101,-3.634078 0,-1.689545 0.576,-3.156218 1.736,-4.392232 1.152,-1.243801 2.574,-1.965945 4.267,-2.150861 -1.346,-0.982972 -2.02,-2.282248 -2.02,-3.889067 0,-1.35183 0.491,-2.512906 1.482,-3.477387 0.982,-0.964482 2.176,-1.442343 3.581,-1.442343 1.389,0 2.582,0.477861 3.573,1.442343 0.991,0.964481 1.49,2.125557 1.49,3.477387 0,1.606819 -0.669,2.909014 -2.02,3.889067 1.693,0.189782 3.116,0.906087 4.267,2.150861 1.16,1.236014 1.736,2.702687 1.736,4.392232 0,1.35183 -0.373,2.562541 -1.126,3.634078 -0.753,1.071537 -1.71,1.870567 -2.862,2.398063"
     fill="#1f1a17"
     id="path959"
     sodipodi:nodetypes="cssccscsssccssc"
     style="stroke-width:0.986529;fill:#888888;fill-opacity:1" /></svg>
