<?xml version="1.0" encoding="UTF-8" standalone="no"?>
<svg
   width="50"
   height="50"
   viewBox="0 0 13.229166 13.229167"
   version="1.1"
   id="svg1579"
   inkscape:version="1.2.2 (732a01da63, 2022-12-09)"
   sodipodi:docname="fairyland.svg"
   xml:space="preserve"
   xmlns:inkscape="http://www.inkscape.org/namespaces/inkscape"
   xmlns:sodipodi="http://sodipodi.sourceforge.net/DTD/sodipodi-0.dtd"
   xmlns="http://www.w3.org/2000/svg"
   xmlns:svg="http://www.w3.org/2000/svg"
   xmlns:rdf="http://www.w3.org/1999/02/22-rdf-syntax-ns#"
   xmlns:cc="http://creativecommons.org/ns#"
   xmlns:dc="http://purl.org/dc/elements/1.1/"><defs
     id="defs1573"><inkscape:path-effect
       effect="mirror_symmetry"
       start_point="-15.691712,-45.362002"
       end_point="-15.691712,4.437998"
       center_point="-15.691712,-20.462002"
       id="path-effect7365"
       is_visible="true"
       mode="free"
       discard_orig_path="false"
       fuse_paths="true"
       oposite_fuse="false" /><inkscape:path-effect
       effect="mirror_symmetry"
       start_point="274.21267,350.55066"
       end_point="273.50284,477.30227"
       center_point="273.85776,413.92646"
       id="path-effect4557-0-4"
       is_visible="true"
       mode="free"
       discard_orig_path="false"
       fuse_paths="true"
       oposite_fuse="false" /><linearGradient
       id="0"
       gradientUnits="userSpaceOnUse"
       x1="21.129999"
       y1="37.349998"
       x2="77.760002"
       y2="37.469002"
       gradientTransform="matrix(1,0,0,0.97324,0,1.243)"><stop
         stop-color="#fff"
         id="stop2" /><stop
         offset="1"
         stop-color="#fff"
         stop-opacity="0"
         id="stop4" /></linearGradient></defs><sodipodi:namedview
     id="base"
     pagecolor="#ffffff"
     bordercolor="#666666"
     borderopacity="1.0"
     inkscape:pageopacity="0.0"
     inkscape:pageshadow="2"
     inkscape:zoom="7.9195959"
     inkscape:cx="-11.932427"
     inkscape:cy="9.091373"
     inkscape:document-units="px"
     inkscape:current-layer="layer1"
     showgrid="false"
     units="px"
     showguides="true"
     inkscape:window-width="1920"
     inkscape:window-height="974"
     inkscape:window-x="-11"
     inkscape:window-y="-11"
     inkscape:window-maximized="1"
     inkscape:document-rotation="0"
     inkscape:showpageshadow="2"
     inkscape:pagecheckerboard="0"
     inkscape:deskcolor="#d1d1d1" /><metadata
     id="metadata1576"><rdf:RDF><cc:Work
         rdf:about=""><dc:format>image/svg+xml</dc:format><dc:type
           rdf:resource="http://purl.org/dc/dcmitype/StillImage" /></cc:Work></rdf:RDF></metadata><g
     inkscape:label="Layer 1"
     inkscape:groupmode="layer"
     id="layer1"
     transform="translate(0,-283.77082)"><path
       id="path959-2"
       style="clip-rule:evenodd;fill-rule:evenodd;stroke-width:0.270532;image-rendering:optimizeQuality;shape-rendering:geometricPrecision;fill:#676cad;fill-opacity:1"
       d="M 2.2820312 286.12882 C 0.65136558 286.12856 0.64614901 287.48221 0.83870849 289.08626 C 1.0988736 290.95934 3.2586663 292.72987 4.1589192 293.37437 C 4.5309541 292.74687 4.9393224 292.54433 5.2937337 292.44781 C 4.8002649 291.87078 4.7434313 290.82394 5.8151489 290.15493 C 5.1998313 288.14859 3.1622358 286.2498 2.444812 286.13295 C 2.3887794 286.13009 2.3346333 286.12882 2.2820312 286.12882 z M 10.947652 286.14845 C 10.89505 286.14846 10.840904 286.14972 10.784871 286.15259 C 10.067447 286.26944 8.029852 288.16823 7.4145344 290.17456 C 8.4862519 290.84357 8.4299352 291.89042 7.9364664 292.46745 C 8.2908776 292.56397 8.6987291 292.76651 9.070764 293.39401 C 9.9710169 292.74951 12.131326 290.97897 12.391492 289.10589 C 12.584051 287.50185 12.578317 286.1482 10.947652 286.14845 z M 6.6151 290.19317 C 6.229813 290.19317 5.9020207 290.32452 5.632731 290.58901 C 5.3609734 290.8535 5.2265543 291.17174 5.2265543 291.54244 C 5.2265543 291.98307 5.4114179 292.33949 5.7805256 292.60904 C 5.3162615 292.65976 4.9264792 292.85759 4.6105712 293.19867 C 4.2924694 293.53762 4.1341145 293.93993 4.1341145 294.40325 C 4.1341145 294.77396 4.2343174 295.10573 4.4364217 295.39957 C 4.638526 295.69341 4.9005744 295.91275 5.2208699 296.05741 L 8.0020954 296.05741 C 8.3180033 295.91275 8.5800518 295.69341 8.7865437 295.39957 C 8.9930356 295.10573 9.0955687 294.77396 9.0955687 294.40325 C 9.0955687 293.93993 8.9377306 293.53762 8.6196288 293.19867 C 8.3039951 292.85732 7.9134216 292.66104 7.4491576 292.60904 C 7.8196365 292.34029 8.003129 291.98307 8.003129 291.54244 C 8.003129 291.17174 7.8666428 290.8535 7.5948852 290.58901 C 7.3231276 290.32452 6.9959994 290.19317 6.6151 290.19317 z " /></g></svg>
