<?xml version="1.0" encoding="UTF-8" standalone="no"?>
<!-- Created with Inkscape (http://www.inkscape.org/) -->

<svg
   width="50"
   height="50"
   viewBox="0 0 13.229166 13.229167"
   version="1.1"
   id="svg1579"
   sodipodi:docname="paradigm.svg"
   inkscape:version="1.2.2 (732a01da63, 2022-12-09)"
   inkscape:export-filename="D:\Pictures\Chess Variants\Favicons\Grand.png"
   inkscape:export-xdpi="365.56299"
   inkscape:export-ydpi="365.56299"
   xml:space="preserve"
   xmlns:inkscape="http://www.inkscape.org/namespaces/inkscape"
   xmlns:sodipodi="http://sodipodi.sourceforge.net/DTD/sodipodi-0.dtd"
   xmlns="http://www.w3.org/2000/svg"
   xmlns:svg="http://www.w3.org/2000/svg"
   xmlns:rdf="http://www.w3.org/1999/02/22-rdf-syntax-ns#"
   xmlns:cc="http://creativecommons.org/ns#"
   xmlns:dc="http://purl.org/dc/elements/1.1/"><defs
     id="defs1573"><inkscape:path-effect
       effect="mirror_symmetry"
       start_point="-15.691712,-45.362002"
       end_point="-15.691712,4.437998"
       center_point="-15.691712,-20.462002"
       id="path-effect7365"
       is_visible="true"
       mode="free"
       discard_orig_path="false"
       fuse_paths="true"
       oposite_fuse="false" /><inkscape:path-effect
       effect="mirror_symmetry"
       start_point="275.14301,98.12006"
       end_point="275.14301,350.07326"
       center_point="275.14301,224.09666"
       id="path-effect4547-0"
       is_visible="true"
       mode="free"
       discard_orig_path="false"
       fuse_paths="true"
       oposite_fuse="false" /><inkscape:path-effect
       effect="mirror_symmetry"
       start_point="274.67636,240.21573"
       end_point="274.67636,418.88419"
       center_point="274.67636,329.54996"
       id="path-effect4551-7"
       is_visible="true"
       mode="free"
       discard_orig_path="false"
       fuse_paths="false"
       oposite_fuse="false" /><inkscape:path-effect
       effect="mirror_symmetry"
       start_point="273.50283,331.92091"
       end_point="273.50283,477.30227"
       center_point="273.50283,404.61159"
       id="path-effect4557-0"
       is_visible="true"
       mode="free"
       discard_orig_path="false"
       fuse_paths="false"
       oposite_fuse="false" /><inkscape:path-effect
       effect="mirror_symmetry"
       start_point="315.71788,90.192596"
       end_point="315.71788,96.192596"
       center_point="315.71788,93.192596"
       id="path-effect4669"
       is_visible="true"
       mode="free"
       discard_orig_path="false"
       fuse_paths="false"
       oposite_fuse="false" /><inkscape:path-effect
       oposite_fuse="false"
       fuse_paths="false"
       discard_orig_path="false"
       mode="free"
       is_visible="true"
       id="path-effect4802"
       center_point="316.91112,93.060013"
       end_point="316.91112,96.060013"
       start_point="316.91112,90.060013"
       effect="mirror_symmetry" /><linearGradient
       gradientTransform="matrix(0.27867357,0,0,0.27867357,-0.3072497,283.2508)"
       id="0"
       x1="21.253"
       y1="37.591999"
       x2="77.639999"
       y2="37.469002"
       gradientUnits="userSpaceOnUse"><stop
         stop-color="#fff"
         id="stop15223" /><stop
         offset="1"
         stop-color="#fff"
         stop-opacity="0"
         id="stop15225" /></linearGradient><linearGradient
       id="0-4"
       x1="21.129999"
       y1="37.591999"
       x2="77.639999"
       y2="37.469002"
       gradientUnits="userSpaceOnUse"
       gradientTransform="matrix(0.28125737,0,0,0.28125737,14.559039,279.88908)"><stop
         stop-color="#fff"
         id="stop1" /><stop
         offset="1"
         stop-color="#fff"
         stop-opacity="0"
         id="stop2" /></linearGradient><linearGradient
       id="0-9"
       x1="21.09"
       y1="37.099998"
       x2="77.669998"
       y2="37.469002"
       gradientUnits="userSpaceOnUse"><stop
         stop-color="#fff"
         id="stop1-9" /><stop
         offset="1"
         stop-color="#fff"
         stop-opacity="0"
         id="stop2-8" /></linearGradient><linearGradient
       id="0-6"
       x1="21.129999"
       y1="37.591999"
       x2="77.639999"
       y2="37.469002"
       gradientUnits="userSpaceOnUse"><stop
         stop-color="#fff"
         id="stop1-3" /><stop
         offset="1"
         stop-color="#fff"
         stop-opacity="0"
         id="stop2-9" /></linearGradient></defs><sodipodi:namedview
     id="base"
     pagecolor="#ffffff"
     bordercolor="#666666"
     borderopacity="1.0"
     inkscape:pageopacity="0.0"
     inkscape:pageshadow="2"
     inkscape:zoom="7.919596"
     inkscape:cx="40.721774"
     inkscape:cy="24.117392"
     inkscape:document-units="px"
     inkscape:current-layer="layer1"
     showgrid="false"
     units="px"
     showguides="true"
     inkscape:window-width="1920"
     inkscape:window-height="974"
     inkscape:window-x="-11"
     inkscape:window-y="-11"
     inkscape:window-maximized="1"
     inkscape:lockguides="true"
     inkscape:showpageshadow="2"
     inkscape:pagecheckerboard="0"
     inkscape:deskcolor="#d1d1d1" /><metadata
     id="metadata1576"><rdf:RDF><cc:Work
         rdf:about=""><dc:format>image/svg+xml</dc:format><dc:type
           rdf:resource="http://purl.org/dc/dcmitype/StillImage" /><dc:title /></cc:Work></rdf:RDF></metadata><g
     inkscape:label="Layer 1"
     inkscape:groupmode="layer"
     id="layer1"
     transform="translate(0,-283.77082)"
     style="opacity:0.98999999"><path
       id="path1-8"
       style="color:#000000;clip-rule:evenodd;fill:#88aa00;fill-opacity:1;fill-rule:evenodd;stroke-width:0.281257;-inkscape-stroke:none;image-rendering:optimizeQuality;shape-rendering:geometricPrecision"
       d="m 4.156335,284.64519 c -2.053952,0.17547 -2.844484,2.44661 -3.032373,3.7145 -0.48286,3.25839 -0.467671,7.74061 -0.467671,7.74061 0,0 0.433861,-2.10358 1.708939,-1.28467 0.06594,-1.4062 0.556064,-1.60531 1.203544,-1.22422 -0.2694,-2.70092 2.011531,-2.95798 2.879928,-2.95899 v 0.0134 c 0,0 0.06067,-0.006 0.163814,-0.0103 0.102845,0.004 0.163298,0.0103 0.163298,0.0103 v -0.0134 c 0.868396,10e-4 3.148811,0.25807 2.87941,2.95899 0.647482,-0.38108 1.138121,-0.18198 1.204061,1.22422 1.275078,-0.8189 1.70894,1.28467 1.70894,1.28467 0,0 0.01519,-4.48221 -0.467672,-7.74061 -0.187889,-1.26789 -0.97842,-3.53904 -3.032373,-3.7145 0.824597,0.96911 -1.830329,2.83654 -2.456181,3.25613 -0.625942,-0.41966 -3.280239,-2.28705 -2.455664,-3.25613 z m -0.536401,0.72553 c -0.0228,0.16689 0.08869,0.35005 0.15658,0.42685 -0.001,5.7e-4 -0.0021,10e-4 -0.0031,0.002 l 0.254248,0.3514 c -0.133139,0.12598 -0.183569,0.29542 -0.201538,0.46767 -0.0025,0.0237 -0.0044,0.0481 -0.0057,0.0724 0.02092,-0.0821 0.04323,-0.15674 0.06615,-0.22221 0.0611,-0.17458 0.137916,-0.27669 0.159681,-0.29249 l -0.01757,-0.0243 0.326078,0.34468 c -0.01374,0.013 -0.04356,0.064 -0.05478,0.17157 -0.01123,0.1076 -0.0032,0.26028 0.02481,0.43512 0.05598,0.34968 0.187574,0.78921 0.33848,1.21284 0.301811,0.84724 0.677478,1.63194 0.677478,1.63194 l -0.757576,0.50953 c -0.284919,-1.08307 -0.582306,-2.16636 -0.728638,-3.27887 -0.02768,-0.17266 -0.04205,-0.33508 -0.03411,-0.48679 -0.03478,0.13663 -0.06678,0.29398 -0.09457,0.46561 -0.08912,0.55045 -0.140005,1.24861 -0.166915,1.93063 -0.05381,1.36403 0.05013,2.27169 0.05013,2.27169 0,0 -0.305226,0.35489 -0.399976,0.93741 -0.0087,-0.3168 -0.18074,-1.84233 -0.12609,-3.22771 0.02733,-0.6927 0.07798,-1.40355 0.172599,-1.98799 0.04731,-0.29222 0.105435,-0.55296 0.181384,-0.76998 0.05468,-0.15624 0.114258,-0.29386 0.206189,-0.40462 -0.2213,0.23325 -0.480536,0.74728 -0.679028,1.41903 -0.240088,0.81252 -0.426262,1.83648 -0.56534,2.83704 -0.278159,2.0011 -0.37052,3.99458 -0.37052,3.99458 0,0 -0.246384,-0.0995 -0.475423,0.0217 0.01904,-0.14124 0.09229,-2.0537 0.374137,-4.08141 0.140926,-1.01385 0.328488,-2.05503 0.580326,-2.90731 0.251839,-0.85229 0.667533,-1.76465 1.112594,-1.82005 z m 0.02325,0.53641 c 0.04523,-0.0477 0.08903,-0.0844 0.130225,-0.10749 l -0.0067,-0.009 c -0.04732,0.0344 -0.08775,0.0737 -0.123507,0.11679 z m 5.965011,-0.53641 c 0.44506,0.0554 0.860756,0.96776 1.112594,1.82005 0.251838,0.85228 0.4394,1.89347 0.580326,2.90731 0.281852,2.02772 0.355097,3.94017 0.374137,4.08141 -0.229039,-0.12124 -0.475423,-0.0217 -0.475423,-0.0217 0,0 -0.09236,-1.99347 -0.37052,-3.99458 -0.139078,-1.00055 -0.325252,-2.02452 -0.56534,-2.83704 -0.198026,-0.67017 -0.456519,-1.18346 -0.677478,-1.41748 0.0912,0.11049 0.150211,0.24755 0.204639,0.40307 0.07595,0.21702 0.134073,0.47776 0.181384,0.76998 0.09462,0.58444 0.145273,1.29529 0.172599,1.98799 0.05465,1.38538 -0.117359,2.91091 -0.12609,3.22771 -0.09475,-0.58252 -0.399976,-0.93741 -0.399976,-0.93741 0,0 0.103937,-0.90766 0.05013,-2.27169 -0.0269,-0.68202 -0.0778,-1.38018 -0.166915,-1.93063 -0.02779,-0.17163 -0.05979,-0.32898 -0.09457,-0.46561 0.0079,0.15172 -0.0064,0.31413 -0.03411,0.48679 -0.146332,1.11251 -0.443719,2.1958 -0.728638,3.27887 l -0.757576,-0.50953 c 0,0 0.376183,-0.7847 0.677995,-1.63194 0.150904,-0.42363 0.28198,-0.86316 0.337963,-1.21284 0.02799,-0.17484 0.03603,-0.32752 0.02481,-0.43512 -0.01123,-0.1076 -0.04104,-0.15804 -0.05478,-0.17105 l 0.324528,-0.34261 0.257349,-0.35502 c -0.0012,-6.6e-4 -0.0025,-10e-4 -0.0036,-0.002 0.06789,-0.0768 0.179379,-0.25996 0.15658,-0.42685 z m -0.152962,0.42892 c 0.04156,0.0234 0.08561,0.0607 0.131258,0.10904 -0.03607,-0.0437 -0.07717,-0.0831 -0.125057,-0.11783 z m -0.257349,0.35502 -0.01602,0.0217 c 0.02177,0.0158 0.0991,0.11791 0.160197,0.29249 0.02291,0.0655 0.04471,0.1401 0.06563,0.22221 -0.0013,-0.0242 -0.0027,-0.0481 -0.0052,-0.0718 -0.01797,-0.17225 -0.0684,-0.3422 -0.201538,-0.46819 z" /></g></svg>
