<?xml version="1.0" encoding="UTF-8" standalone="no"?>
<svg
   inkscape:export-ydpi="365.56299"
   inkscape:export-xdpi="365.56299"
   inkscape:export-filename="D:\Pictures\Chess Variants\Favicons\Grand.png"
   inkscape:version="1.2.2 (732a01da63, 2022-12-09)"
   sodipodi:docname="randomized.svg"
   id="svg1579"
   version="1.1"
   viewBox="0 0 13.229166 13.229167"
   height="50"
   width="50"
   xmlns:inkscape="http://www.inkscape.org/namespaces/inkscape"
   xmlns:sodipodi="http://sodipodi.sourceforge.net/DTD/sodipodi-0.dtd"
   xmlns="http://www.w3.org/2000/svg"
   xmlns:svg="http://www.w3.org/2000/svg"
   xmlns:rdf="http://www.w3.org/1999/02/22-rdf-syntax-ns#"
   xmlns:cc="http://creativecommons.org/ns#"
   xmlns:dc="http://purl.org/dc/elements/1.1/">
  <defs
     id="defs1573">
    <inkscape:path-effect
       oposite_fuse="false"
       fuse_paths="true"
       discard_orig_path="false"
       mode="free"
       is_visible="true"
       id="path-effect7365"
       center_point="-15.691712,-20.462002"
       end_point="-15.691712,4.437998"
       start_point="-15.691712,-45.362002"
       effect="mirror_symmetry" />
    <inkscape:path-effect
       oposite_fuse="false"
       fuse_paths="true"
       discard_orig_path="false"
       mode="free"
       is_visible="true"
       id="path-effect4547-0"
       center_point="275.14301,224.09666"
       end_point="275.14301,350.07326"
       start_point="275.14301,98.12006"
       effect="mirror_symmetry" />
    <inkscape:path-effect
       oposite_fuse="false"
       fuse_paths="false"
       discard_orig_path="false"
       mode="free"
       is_visible="true"
       id="path-effect4551-7"
       center_point="274.67636,329.54996"
       end_point="274.67636,418.88419"
       start_point="274.67636,240.21573"
       effect="mirror_symmetry" />
    <inkscape:path-effect
       oposite_fuse="false"
       fuse_paths="false"
       discard_orig_path="false"
       mode="free"
       is_visible="true"
       id="path-effect4557-0"
       center_point="273.50283,404.61159"
       end_point="273.50283,477.30227"
       start_point="273.50283,331.92091"
       effect="mirror_symmetry" />
    <inkscape:path-effect
       oposite_fuse="false"
       fuse_paths="false"
       discard_orig_path="false"
       mode="free"
       is_visible="true"
       id="path-effect4669"
       center_point="315.71788,93.192596"
       end_point="315.71788,96.192596"
       start_point="315.71788,90.192596"
       effect="mirror_symmetry" />
    <inkscape:path-effect
       effect="mirror_symmetry"
       start_point="316.91112,90.060013"
       end_point="316.91112,96.060013"
       center_point="316.91112,93.060013"
       id="path-effect4802"
       is_visible="true"
       mode="free"
       discard_orig_path="false"
       fuse_paths="false"
       oposite_fuse="false" />
    <linearGradient
       gradientUnits="userSpaceOnUse"
       y2="37.469002"
       x2="77.639999"
       y1="37.591999"
       x1="21.253"
       id="0"
       gradientTransform="matrix(0.27867357,0,0,0.27867357,-0.3072497,283.2508)">
      <stop
         id="stop15223"
         stop-color="#fff" />
      <stop
         id="stop15225"
         stop-opacity="0"
         stop-color="#fff"
         offset="1" />
    </linearGradient>
    <inkscape:path-effect
       effect="mirror_symmetry"
       start_point="-103.61098,-3.3341899"
       end_point="-103.61098,147.39645"
       center_point="-103.61098,72.03113"
       id="path-effect4256"
       is_visible="true"
       lpeversion="1"
       mode="free"
       discard_orig_path="false"
       fuse_paths="true"
       oposite_fuse="false"
       split_items="false" />
  </defs>
  <sodipodi:namedview
     inkscape:document-rotation="0"
     inkscape:lockguides="true"
     inkscape:window-maximized="1"
     inkscape:window-y="-11"
     inkscape:window-x="-11"
     inkscape:window-height="974"
     inkscape:window-width="1920"
     showguides="true"
     units="px"
     showgrid="false"
     inkscape:current-layer="layer1"
     inkscape:document-units="px"
     inkscape:cy="-6.5659915"
     inkscape:cx="-68.437834"
     inkscape:zoom="1.979899"
     inkscape:pageshadow="2"
     inkscape:pageopacity="0.0"
     borderopacity="1.0"
     bordercolor="#666666"
     pagecolor="#ffffff"
     id="base"
     inkscape:showpageshadow="2"
     inkscape:pagecheckerboard="0"
     inkscape:deskcolor="#d1d1d1" />
  <metadata
     id="metadata1576">
    <rdf:RDF>
      <cc:Work
         rdf:about="">
        <dc:format>image/svg+xml</dc:format>
        <dc:type
           rdf:resource="http://purl.org/dc/dcmitype/StillImage" />
      </cc:Work>
    </rdf:RDF>
  </metadata>
  <g
     style="opacity:0.98999999"
     transform="translate(0,-283.77082)"
     id="layer1"
     inkscape:groupmode="layer"
     inkscape:label="Layer 1">
    <path
       id="path1855-5-5"
       style="opacity:0.99;stroke-width:1.9653;stroke-linecap:square;stroke-linejoin:round;stop-color:#000000;fill:#9d67ae;fill-opacity:1"
       transform="rotate(100)"
       d="m 286.93064,-61.485291 a 0.80463243,0.61386359 0 0 1 -0.80305,0.613863 0.80463243,0.61386359 0 0 1 -0.80621,-0.611455 0.80463243,0.61386359 0 0 1 0.79989,-0.61626 0.80463243,0.61386359 0 0 1 0.80934,0.609037 z m -3.20029,0.575932 a 0.80463243,0.61386359 0 0 1 -0.80305,0.613862 0.80463243,0.61386359 0 0 1 -0.80621,-0.611454 0.80463243,0.61386359 0 0 1 0.7999,-0.616261 0.80463243,0.61386359 0 0 1 0.80934,0.609038 z m 1.71802,2.458473 a 0.80463243,0.61386359 0 0 1 -0.80305,0.613863 0.80463243,0.61386359 0 0 1 -0.80621,-0.611455 0.80463243,0.61386359 0 0 1 0.79989,-0.616261 0.80463243,0.61386359 0 0 1 0.80935,0.609038 z m 3.21079,-0.549183 a 0.80463243,0.61386359 0 0 1 -0.80306,0.613863 0.80463243,0.61386359 0 0 1 -0.8062,-0.611455 0.80463243,0.61386359 0 0 1 0.79989,-0.616261 0.80463243,0.61386359 0 0 1 0.80934,0.609038 z m 0.67682,2.395638 a 0.61386359,0.80463243 70 0 1 -0.54467,0.851502 0.61386359,0.80463243 70 0 1 -0.96672,-0.29884 0.61386359,0.80463243 70 0 1 0.54088,-0.852674 0.61386359,0.80463243 70 0 1 0.96884,0.295494 z m -3.93941,3.679943 a 0.61386359,0.80463243 70 0 1 -0.54467,0.851501 0.61386359,0.80463243 70 0 1 -0.96672,-0.298839 0.61386359,0.80463243 70 0 1 0.54089,-0.852678 0.61386359,0.80463243 70 0 1 0.96883,0.295498 z m -2.71562,-5.013398 a 0.86309761,0.44682014 80 0 1 0.58961,0.770729 0.86309761,0.44682014 80 0 1 -0.28813,0.928929 0.86309761,0.44682014 80 0 1 -0.59074,-0.767084 0.86309761,0.44682014 80 0 1 0.28582,-0.93194 z m -0.37953,1.695278 a 0.86309761,0.44682014 80 0 1 0.58961,0.770729 0.86309761,0.44682014 80 0 1 -0.28813,0.92893 0.86309761,0.44682014 80 0 1 -0.59075,-0.767085 0.86309761,0.44682014 80 0 1 0.28582,-0.93194 z m -0.30931,1.699553 a 0.86309761,0.44682014 80 0 1 0.58961,0.770729 0.86309761,0.44682014 80 0 1 -0.28814,0.928931 0.86309761,0.44682014 80 0 1 -0.59073,-0.767086 0.86309761,0.44682014 80 0 1 0.28582,-0.93194 z m -0.85392,-5.896245 a 0.86309761,0.44682014 80 0 1 0.58961,0.770729 0.86309761,0.44682014 80 0 1 -0.28813,0.92893 0.86309761,0.44682014 80 0 1 -0.59075,-0.767085 0.86309761,0.44682014 80 0 1 0.28582,-0.93194 z m -0.37954,1.695278 a 0.86309761,0.44682014 80 0 1 0.58962,0.770729 0.86309761,0.44682014 80 0 1 -0.28814,0.928931 0.86309761,0.44682014 80 0 1 -0.59074,-0.767086 0.86309761,0.44682014 80 0 1 0.28582,-0.93194 z m -0.3093,1.699554 a 0.86309761,0.44682014 80 0 1 0.58961,0.770729 0.86309761,0.44682014 80 0 1 -0.28814,0.928931 0.86309761,0.44682014 80 0 1 -0.59074,-0.767086 0.86309761,0.44682014 80 0 1 0.28583,-0.93194 z m -0.83433,1.024697 a 0.79382936,0.79382936 0 0 0 0.11093,0.286885 l 2.60449,4.108063 a 0.79382936,0.79382936 0 0 0 0.8086,0.356971 l 5.21076,-0.918798 a 0.79382936,0.79382936 0 0 0 0.63774,-0.611999 l 1.04239,-4.751105 a 0.79382936,0.79382936 0 0 0 -0.10481,-0.594411 l -2.60459,-4.10857 a 0.79382936,0.79382936 0 0 0 -0.80859,-0.356973 l -5.21077,0.918798 a 0.79382936,0.79382936 0 0 0 -0.63774,0.612002 l -1.04229,4.751611 a 0.79382936,0.79382936 0 0 0 -0.006,0.307526 z" />
  </g>
</svg>
