<?xml version="1.0" encoding="UTF-8" standalone="no"?>
<svg
   width="498.898"
   height="544.252"
   viewBox="0 0 1320 1440"
   version="1.1"
   id="svg84"
   sodipodi:docname="b+F.svg"
   xml:space="preserve"
   inkscape:version="1.2.2 (732a01da63, 2022-12-09)"
   xmlns:inkscape="http://www.inkscape.org/namespaces/inkscape"
   xmlns:sodipodi="http://sodipodi.sourceforge.net/DTD/sodipodi-0.dtd"
   xmlns="http://www.w3.org/2000/svg"
   xmlns:svg="http://www.w3.org/2000/svg"><sodipodi:namedview
     id="namedview86"
     pagecolor="#ffffff"
     bordercolor="#000000"
     borderopacity="0.25"
     inkscape:showpageshadow="2"
     inkscape:pageopacity="0.0"
     inkscape:pagecheckerboard="0"
     inkscape:deskcolor="#d1d1d1"
     showgrid="false"
     inkscape:zoom="2.0163999"
     inkscape:cx="341.94606"
     inkscape:cy="247.96668"
     inkscape:window-width="1920"
     inkscape:window-height="974"
     inkscape:window-x="-11"
     inkscape:window-y="-11"
     inkscape:window-maximized="1"
     inkscape:current-layer="svg84" /><style
     id="style2">.B{color-interpolation-filters:sRGB}</style><defs
     id="defs44"><filter
       id="B"
       x="-0.012166599"
       y="-0.010441906"
       width="1.0243332"
       height="1.0208838"
       class="B"><feGaussianBlur
         stdDeviation="2.441"
         id="feGaussianBlur4" /></filter><filter
       id="E"
       x="-0.047999492"
       y="-0.047999492"
       width="1.095999"
       height="1.095999"
       class="B"><feGaussianBlur
         stdDeviation="4.05"
         id="feGaussianBlur7" /></filter><filter
       id="G"
       x="-0.051934611"
       y="-0.044624301"
       width="1.1038692"
       height="1.0892486"
       class="B"><feGaussianBlur
         stdDeviation="6.853"
         id="feGaussianBlur10" /></filter><filter
       id="H"
       x="-0.079431973"
       y="-0.12656724"
       width="1.1588639"
       height="1.2531345"
       class="B"><feGaussianBlur
         stdDeviation=".752"
         id="feGaussianBlur13" /></filter><filter
       id="I"
       x="-0.097082863"
       y="-0.14128197"
       width="1.1941657"
       height="1.2825639"
       class="B"><feGaussianBlur
         stdDeviation=".752"
         id="feGaussianBlur16" /></filter><filter
       id="J"
       x="-0.21470664"
       y="-0.26091118"
       width="1.4294133"
       height="1.5218224"
       class="B"><feGaussianBlur
         stdDeviation=".752"
         id="feGaussianBlur19" /></filter><linearGradient
       id="A"
       x1="-1430.769"
       y1="-77.47"
       x2="-1409.955"
       y2="-77.47"
       spreadMethod="reflect"
       gradientUnits="userSpaceOnUse"><stop
         offset="0"
         stop-color="#ffd285"
         id="stop22" /><stop
         offset=".232"
         stop-color="#ffcd79"
         id="stop24" /><stop
         offset=".616"
         stop-color="#ffca73"
         id="stop26" /><stop
         offset=".808"
         stop-color="#ffd386"
         id="stop28" /><stop
         offset="1"
         stop-color="#ffc86e"
         id="stop30" /></linearGradient><linearGradient
       id="C"
       x1="-904.556"
       y1="-406.052"
       x2="-904.556"
       y2="184.159"
       gradientUnits="userSpaceOnUse"><stop
         offset="0"
         id="stop33" /><stop
         offset=".599"
         stop-color="#fff"
         id="stop35" /></linearGradient><clipPath
       id="D"><path
         d="M1720.699 1071.423c-1.85 0-3.7.708-5.118 2.125l-3.45 3.45a7.222 7.222 0 0 0 0 10.237l5.263 5.263 8.565 30.343c.771 2.729 3.59 5.545 6.319 6.315l10.886-10.889 54.405 54.405-54.405 54.405-10.886-10.889c-2.729.771-5.548 3.59-6.319 6.319l-8.562 30.337-5.266 5.266a7.222 7.222 0 0 0 0 10.237l3.45 3.45a7.222 7.222 0 0 0 10.237 0l5.259-5.259 30.347-8.569c2.729-.771 5.545-3.586 6.315-6.315l-10.889-10.889 54.405-54.405 54.405 54.405-10.889 10.889c.771 2.729 3.586 5.545 6.315 6.315l30.347 8.569 5.259 5.259a7.222 7.222 0 0 0 10.237 0l3.45-3.45a7.222 7.222 0 0 0 0-10.237l-5.263-5.263-8.565-30.34c-.771-2.729-3.59-5.548-6.319-6.319l-10.886 10.889-54.405-54.405 54.405-54.405 10.886 10.889c2.729-.771 5.548-3.586 6.319-6.315l8.569-30.347 5.259-5.26a7.222 7.222 0 0 0 0-10.237l-1.725-1.725-1.725-1.725a7.222 7.222 0 0 0-10.237 0l-5.266 5.266-30.34 8.565c-2.729.771-5.545 3.586-6.315 6.315l10.889 10.889-54.405 54.405-54.405-54.405 10.889-10.889c-.771-2.729-3.586-5.545-6.315-6.315l-30.34-8.565-5.266-5.266a7.213 7.213 0 0 0-5.118-2.125zm90.556 101.246h.01l-.01.01-.01-.01z"
         stroke-width="10.708"
         id="path38" /></clipPath><clipPath
       id="F"><path
         d="M836.367 483.837c-2.099-12.596-41.988-30.651-63.402-28.972-7.558.42-13.436 6.298-20.994 7.138-9.237 1.26-33.171 5.458-42.408 3.779 10.077-17.215 20.154-34.43 27.292-54.165 7.558-5.458 25.613-7.138 26.872-13.856 7.138 2.099 15.955-2.519 18.475-8.398-18.895-15.536-42.828-30.231-73.899-26.452-8.398 15.116-26.033 13.436-47.027 11.337-3.779-23.933-56.264-13.436-66.341-14.276-.42 13.016 15.536 16.795 19.734 20.994-32.751 34.85-65.082 69.7-104.13 98.672 3.779 3.359 6.298 7.978 10.497 10.917 23.513.84 28.552-9.237 42.408-20.574 26.033-21.414 53.745-39.049 76.418-64.242 8.817-5.039 39.049-5.878 54.165-5.458 1.679 22.674-16.795 48.286-20.574 69.7-19.315 3.359-64.662 2.939-89.015 12.177-3.359-6.298-8.398-2.939-13.436-6.718-5.039 1.68-4.619 8.398-10.497 9.657 4.199 13.016 14.276 20.994 22.254 30.651 14.696 73.479-8.398 153.676-39.889 204.482 7.138 1.68 15.955 2.939 25.613-1.26 22.674-18.055 33.171-54.585 41.148-83.976 20.994 9.657 62.142-8.398 81.877 0 14.696-7.978 52.485-7.558 66.341-10.917-9.657-14.696-36.53-22.254-54.585-16.795.84-8.398 1.26-25.613 1.68-41.568 15.955-7.978 36.95-2.939 49.966-11.337-5.039-11.337-31.071-22.674-48.286-15.116-2.099-10.497.84-34.43-5.878-49.126 19.314-1.26 42.408-5.039 61.722-2.939 4.619 11.337 2.519 23.513 2.939 39.469 1.68 47.866 17.215 114.208-1.68 159.555-35.69-3.779-68.441-4.619-97.412-12.177 1.26.42.42 1.26-.42 2.519 10.077 2.099 18.475 5.458 27.292 9.657 7.978 3.779 13.436 10.077 20.994 13.856 8.398 4.199 19.734 5.458 28.552 10.077 2.099 1.26 2.519 5.458 4.619 6.718 14.696 10.077 45.347 27.712 57.104 11.337 12.177-24.353 9.657-57.524 7.558-89.015-1.26-20.994-10.077-41.988-8.818-62.562 1.26-24.353 4.619-48.706 7.558-66.341 7.138-9.657 28.132-11.337 25.613-26.452zM675.132 543.88c-22.254.42-38.629 6.718-57.524 5.039 1.26-17.215-6.718-28.552 1.679-44.507 6.718-7.138 35.69-6.298 44.087-10.497 13.436 8.817 11.757 30.231 11.757 49.966zm-1.679 23.093c.42 18.055 0 29.392-1.68 42.828-20.574-.42-36.949 5.458-58.783 4.619 0-13.016 5.458-27.712 4.619-42.828 18.475.84 39.049-2.099 55.844-4.619z"
         stroke-width="20.833"
         id="path41" /></clipPath><filter
       id="C-0"
       x="-0.010530157"
       y="-0.011053209"
       width="1.0210603"
       height="1.0221064"
       class="B"><feGaussianBlur
         stdDeviation="2.441"
         id="feGaussianBlur4-1" /></filter><filter
       id="E-4"
       x="-0.052144061"
       y="-0.044929861"
       width="1.1042881"
       height="1.0898597"
       class="B"><feGaussianBlur
         stdDeviation="7.025"
         id="feGaussianBlur7-2" /></filter><filter
       id="G-1"
       x="-0.047999492"
       y="-0.047999492"
       width="1.095999"
       height="1.095999"
       class="B"><feGaussianBlur
         stdDeviation="4.05"
         id="feGaussianBlur10-1" /></filter><filter
       id="H-79"
       x="-0.15826121"
       y="-0.077427897"
       width="1.3165224"
       height="1.1548558"
       class="B"><feGaussianBlur
         stdDeviation="0.25"
         id="feGaussianBlur13-1" /></filter><linearGradient
       id="A-1"
       x1="228.547"
       y1="662.072"
       x2="270.281"
       y2="662.072"
       spreadMethod="reflect"
       gradientUnits="userSpaceOnUse"><stop
         offset="0"
         stop-color="#ffd285"
         id="stop16" /><stop
         offset=".232"
         stop-color="#ffcd79"
         id="stop18" /><stop
         offset=".616"
         stop-color="#ffca73"
         id="stop20" /><stop
         offset=".808"
         stop-color="#ffd386"
         id="stop22-8" /><stop
         offset="1"
         stop-color="#ffc86e"
         id="stop24-9" /></linearGradient><linearGradient
       id="B-5"
       x1="660.031"
       y1="178.153"
       x2="660.029"
       y2="1149.083"
       gradientUnits="userSpaceOnUse"><stop
         offset=".604"
         stop-color="#fff"
         id="stop27" /><stop
         offset="1"
         id="stop29" /></linearGradient><clipPath
       id="D-3"><path
         d="M-307.462 483.837c-2.099-12.596-41.988-30.651-63.402-28.972-7.558.42-13.436 6.298-20.994 7.138-9.237 1.26-33.171 5.458-42.408 3.779 10.077-17.215 20.154-34.43 27.292-54.165 7.558-5.458 25.613-7.138 26.872-13.856 7.138 2.099 15.955-2.519 18.475-8.398-18.895-15.536-42.828-30.231-73.899-26.452-8.398 15.116-26.033 13.436-47.027 11.337-3.779-23.933-56.264-13.436-66.341-14.276-.42 13.016 15.536 16.795 19.734 20.994-32.751 34.85-65.082 69.7-104.13 98.672 3.779 3.359 6.298 7.978 10.497 10.917 23.513.84 28.552-9.237 42.408-20.574 26.033-21.414 53.745-39.049 76.418-64.242 8.817-5.039 39.049-5.878 54.165-5.458 1.679 22.674-16.795 48.286-20.574 69.7-19.315 3.359-64.662 2.939-89.015 12.177-3.359-6.298-8.398-2.939-13.436-6.718-5.039 1.68-4.619 8.398-10.497 9.657 4.199 13.016 14.276 20.994 22.254 30.651 14.696 73.479-8.398 153.676-39.889 204.482 7.138 1.68 15.955 2.939 25.613-1.26 22.674-18.055 33.171-54.585 41.148-83.976 20.994 9.657 62.142-8.398 81.877 0 14.696-7.978 52.485-7.558 66.341-10.917-9.657-14.696-36.53-22.254-54.585-16.795.84-8.398 1.26-25.613 1.68-41.568 15.955-7.978 36.95-2.939 49.966-11.337-5.039-11.337-31.071-22.674-48.286-15.116-2.099-10.497.84-34.43-5.878-49.126 19.314-1.26 42.408-5.039 61.722-2.939 4.619 11.337 2.519 23.513 2.939 39.469 1.68 47.866 17.215 114.208-1.68 159.555-35.69-3.779-68.441-4.619-97.412-12.177 1.26.42.42 1.26-.42 2.519 10.077 2.099 18.475 5.458 27.292 9.657 7.978 3.779 13.436 10.077 20.994 13.856 8.398 4.199 19.734 5.458 28.552 10.077 2.099 1.26 2.519 5.458 4.619 6.718 14.696 10.077 45.347 27.712 57.104 11.337 12.177-24.353 9.657-57.524 7.558-89.015-1.26-20.994-10.077-41.988-8.817-62.562 1.26-24.353 4.619-48.706 7.558-66.341 7.138-9.657 28.132-11.337 25.613-26.452zm-161.234 60.043c-22.254.42-38.629 6.718-57.524 5.039 1.26-17.215-6.718-28.552 1.68-44.507 6.718-7.138 35.69-6.298 44.087-10.497 13.436 8.817 11.757 30.231 11.757 49.966zm-1.679 23.093c.42 18.055 0 29.392-1.68 42.828-20.574-.42-36.949 5.458-58.783 4.619 0-13.016 5.458-27.712 4.619-42.828 18.475.84 39.049-2.099 55.844-4.619z"
         stroke-width="20.833"
         id="path32" /></clipPath><clipPath
       id="F-7"><path
         d="M1720.699 1071.423c-1.85 0-3.7.708-5.118 2.125l-3.45 3.45a7.222 7.222 0 0 0 0 10.237l5.263 5.263 8.565 30.343c.771 2.729 3.59 5.545 6.319 6.315l10.886-10.889 54.405 54.405-54.405 54.405-10.886-10.889c-2.729.771-5.548 3.59-6.319 6.319l-8.562 30.337-5.266 5.266a7.222 7.222 0 0 0 0 10.237l3.45 3.45a7.222 7.222 0 0 0 10.237 0l5.259-5.259 30.347-8.569c2.729-.771 5.545-3.586 6.315-6.315l-10.889-10.889 54.405-54.405 54.405 54.405-10.889 10.889c.771 2.729 3.586 5.545 6.315 6.315l30.347 8.569 5.259 5.259a7.222 7.222 0 0 0 10.237 0l3.45-3.45a7.222 7.222 0 0 0 0-10.237l-5.263-5.263-8.565-30.34c-.771-2.729-3.59-5.548-6.319-6.319l-10.886 10.889-54.405-54.405 54.405-54.405 10.886 10.889c2.729-.771 5.548-3.586 6.319-6.315l8.569-30.347 5.259-5.26a7.222 7.222 0 0 0 0-10.237l-1.725-1.725-1.725-1.725a7.222 7.222 0 0 0-10.237 0l-5.266 5.266-30.34 8.565c-2.729.771-5.545 3.586-6.315 6.315l10.889 10.889-54.405 54.405-54.405-54.405 10.889-10.889c-.771-2.729-3.586-5.545-6.315-6.315l-30.34-8.565-5.266-5.266a7.213 7.213 0 0 0-5.118-2.125zm90.556 101.246h.01l-.01.01-.01-.01z"
         stroke-width="10.708"
         id="path35" /></clipPath><filter
       id="C-2"
       x="-0.011867782"
       y="-0.01125585"
       width="1.0237356"
       height="1.0225117"
       class="B"><feGaussianBlur
         stdDeviation="2.441"
         id="feGaussianBlur311" /></filter><filter
       id="F-5"
       x="-0.045194553"
       y="-0.051169841"
       width="1.0903891"
       height="1.1023397"
       class="B"><feGaussianBlur
         stdDeviation="7.061"
         id="feGaussianBlur314" /></filter><filter
       id="I-5"
       x="-0.05889734"
       y="-0.04050145"
       width="1.1177947"
       height="1.0810029"
       class="B"><feGaussianBlur
         stdDeviation="7.144"
         id="feGaussianBlur317" /></filter><filter
       id="J-6"
       x="-0.15936934"
       y="-0.25543206"
       width="1.3187387"
       height="1.5108641"
       class="B"><feGaussianBlur
         stdDeviation=".838"
         id="feGaussianBlur320" /></filter><filter
       id="K"
       x="-0.1198745"
       y="-0.20702689"
       width="1.239749"
       height="1.4140538"
       class="B"><feGaussianBlur
         stdDeviation=".838"
         id="feGaussianBlur323" /></filter><filter
       id="L"
       x="-0.13329635"
       y="-0.21058945"
       width="1.2665927"
       height="1.4211789"
       class="B"><feGaussianBlur
         stdDeviation=".838"
         id="feGaussianBlur326" /></filter><linearGradient
       id="B-6"
       x1="-1215.571"
       y1="-296.329"
       x2="-1215.572"
       y2="165.415"
       gradientUnits="userSpaceOnUse"><stop
         offset=".601"
         stop-color="#fff"
         id="stop340" /><stop
         offset="1"
         id="stop342" /></linearGradient><clipPath
       id="G-3"><path
         d="M-60.113 701.928c-14.394-20.618-36.957-28.787-61.076-33.066-7.002 14.394-38.902 11.281-54.073 8.558 3.501-15.95 2.334-33.066 3.89-46.682 20.618-4.668 41.625-1.945 62.632.389 7.002-5.057 19.84 1.556 21.785-10.503-11.281-11.67-28.009-16.728-44.737-22.174-10.503 8.947-25.675 10.114-39.291 6.224 3.112-13.616 4.279-21.785-1.945-32.677 27.231-3.89 63.799-1.945 91.03-6.224 4.668-.778 3.89-5.835 2.723-8.947-12.06-8.558-29.176-22.563-45.515-21.007-5.835.778-10.503 8.169-16.728 9.336-12.06 2.334-22.952 3.112-34.623 1.945.778-13.227-1.556-24.897 1.945-39.68 33.455-6.224 62.243.389 84.417-10.892-3.112-22.563-38.124-32.677-50.183-18.673-10.114 1.556-20.618 3.501-33.066 1.556 2.334-21.007 5.446-31.51 6.613-50.961-11.281-14.005-35.011-41.625-54.851-32.288 2.334 8.558 10.892 21.396 15.95 31.51 1.945 14.394 3.112 38.124 2.723 53.684-10.503 1.556-25.286 3.112-40.458.389-14.783-2.723-31.51-15.95-38.124-3.501 8.169 16.728 14.005 31.51 32.288 38.124 16.339-6.224 31.899-7.391 45.904-7.391-.389 10.504 0 27.62 1.167 40.069-26.064 1.167-56.018 7.391-76.636-1.556-3.501-.778-7.78 2.723-11.282 5.835-12.838-8.558-23.341-18.284-19.451-39.68 10.892-3.501 22.174-6.613 32.288-10.892-.778-16.728-23.73-13.227-34.233-23.341 1.945-19.84 5.835-52.906.778-68.078-12.449-12.06-28.398-31.121-48.627-24.508 14.394 24.119 23.73 64.577 21.785 101.533-24.897 13.616-48.627 3.89-73.135-4.279-2.723-.389-4.668 3.501-3.89 8.558 10.503 15.172 19.451 32.288 37.735 38.124 10.114-6.224 23.73-12.449 35.012-7.78-8.169 26.064-76.247 110.092-97.643 127.598.778 7.002 14.394.389 21.007 11.281 29.954-16.728 59.909-65.744 82.083-89.863-.389 32.677 3.89 76.636-1.945 112.037-21.785-1.556-42.014-12.06-63.41-15.95 9.336 10.892 17.117 17.117 23.341 28.398 11.281 8.558 31.51 15.172 43.57 24.897 8.558 6.613 12.838 15.561 23.73 6.613 7.78-58.353-5.057-109.314-1.167-162.998 12.06 9.725 22.563 21.785 38.124 19.84-1.556-12.838-16.728-17.895-14.783-29.954 11.671 9.336 15.561 24.119 31.899 26.453 18.284 2.334 40.847-19.062 53.684.389 1.167 7.391 2.723 15.561 1.945 25.675-28.009 6.613-51.739 0-75.858.389 2.723 21.007 21.007 23.73 32.288 35.012 14.005-6.224 32.288-6.613 43.959-9.336.778 16.728.389 29.565 1.167 45.904-31.121.778-73.524 9.725-104.257 3.89 3.89 24.897 25.286 36.179 45.126 37.735 46.293-29.176 142.38-17.506 192.174-10.114 5.057.778 7.391-3.89 6.224-8.947z"
         stroke-width="19.301"
         id="path345" /></clipPath><clipPath
       id="H-7"><path
         d="M476.332 785.063c24.573 19.377 49.147 38.75 79.757 109.306S623.35 1086.661 660 1208.396c-24.373-122.933-39.539-269.394-70.151-339.953s-76.668-65.204-113.518-83.38zM660 1208.396c36.649-121.735 73.296-243.471 103.906-314.027s55.184-89.929 79.757-109.306c-36.85 18.176-82.9 12.821-113.512 83.38s-45.778 217.02-70.151 339.953z"
         id="path348" /></clipPath><path
       id="E-0"
       d="m-1215.571-296.329-149.881 40.669-79.82 472.51 6.639 36.814 10.024 8.338h426.077l10.024-8.338 6.639-36.814-79.82-472.51z" /><filter
       inkscape:menu-tooltip="In and out glow with a possible offset and colorizable flood"
       inkscape:menu="Shadows and Glows"
       inkscape:label="Cutout Glow"
       style="color-interpolation-filters:sRGB;"
       id="filter2080"
       x="-0.016618571"
       y="-0.039699917"
       width="1.0563185"
       height="1.0563185"><feOffset
         dy="-10"
         dx="10"
         id="feOffset2070" /><feGaussianBlur
         stdDeviation="3"
         result="blur"
         id="feGaussianBlur2072" /><feFlood
         flood-color="rgb(0,0,0)"
         flood-opacity="0"
         result="flood"
         id="feFlood2074" /><feComposite
         in="flood"
         in2="SourceGraphic"
         operator="in"
         result="composite"
         id="feComposite2076" /><feBlend
         in="blur"
         in2="composite"
         mode="normal"
         id="feBlend2078" /></filter><filter
       inkscape:menu-tooltip="In and out glow with a possible offset and colorizable flood"
       inkscape:menu="Shadows and Glows"
       inkscape:label="Cutout Glow"
       style="color-interpolation-filters:sRGB"
       id="filter2080-1"
       x="-0.039699921"
       y="-0.016618569"
       width="1.0563185"
       height="1.0563185"><feOffset
         dy="10"
         dx="-10"
         id="feOffset2070-5" /><feGaussianBlur
         stdDeviation="3"
         result="blur"
         id="feGaussianBlur2072-3" /><feFlood
         flood-color="rgb(0,0,0)"
         flood-opacity="1"
         result="flood"
         id="feFlood2074-6" /><feComposite
         in="flood"
         in2="SourceGraphic"
         operator="in"
         result="composite"
         id="feComposite2076-0" /><feBlend
         in="blur"
         in2="composite"
         mode="normal"
         id="feBlend2078-4" /></filter><filter
       inkscape:menu-tooltip="In and out glow with a possible offset and colorizable flood"
       inkscape:menu="Shadows and Glows"
       inkscape:label="Cutout Glow"
       style="color-interpolation-filters:sRGB;"
       id="filter2149"
       x="-0.018687404"
       y="-0.043981976"
       width="1.0633295"
       height="1.062393"><feOffset
         dy="-10"
         dx="10"
         id="feOffset2139" /><feGaussianBlur
         stdDeviation="3"
         result="blur"
         id="feGaussianBlur2141" /><feFlood
         flood-color="rgb(0,0,0)"
         flood-opacity="0"
         result="flood"
         id="feFlood2143" /><feComposite
         in="flood"
         in2="SourceGraphic"
         operator="in"
         result="composite"
         id="feComposite2145" /><feBlend
         in="blur"
         in2="composite"
         mode="normal"
         id="feBlend2147" /></filter><filter
       inkscape:menu-tooltip="In and out glow with a possible offset and colorizable flood"
       inkscape:menu="Shadows and Glows"
       inkscape:label="Cutout Glow"
       style="color-interpolation-filters:sRGB"
       id="filter2149-9"
       x="-0.044642133"
       y="-0.01841106"
       width="1.0633295"
       height="1.062393"><feOffset
         dy="10"
         dx="-10"
         id="feOffset2139-6" /><feGaussianBlur
         stdDeviation="3"
         result="blur"
         id="feGaussianBlur2141-6" /><feFlood
         flood-color="rgb(0,0,0)"
         flood-opacity="1"
         result="flood"
         id="feFlood2143-7" /><feComposite
         in="flood"
         in2="SourceGraphic"
         operator="in"
         result="composite"
         id="feComposite2145-0" /><feBlend
         in="blur"
         in2="composite"
         mode="normal"
         id="feBlend2147-1" /></filter><filter
       id="B-9"
       x="-0.012166599"
       y="-0.010441906"
       width="1.0243332"
       height="1.0208838"
       class="B"><feGaussianBlur
         stdDeviation="2.441"
         id="feGaussianBlur4-4" /></filter><filter
       id="E-08"
       x="-0.048002438"
       y="-0.048002441"
       width="1.0960049"
       height="1.0960049"
       class="B"><feGaussianBlur
         stdDeviation="5.51"
         id="feGaussianBlur7-5" /></filter><filter
       id="G-31"
       x="-0.047883346"
       y="-0.048121577"
       width="1.0957667"
       height="1.0962432"
       class="B"><feGaussianBlur
         stdDeviation="8.767"
         id="feGaussianBlur10-5" /></filter><filter
       id="H-4"
       x="-0.37482898"
       y="-0.5426725"
       width="1.749658"
       height="2.085345"
       class="B"><feGaussianBlur
         stdDeviation="1.774"
         id="feGaussianBlur13-4" /></filter><filter
       id="I-6"
       x="-0.41586665"
       y="-0.41511985"
       width="1.8317333"
       height="1.8302397"
       class="B"><feGaussianBlur
         stdDeviation="1.774"
         id="feGaussianBlur16-3" /></filter><filter
       id="J-63"
       x="-0.54263262"
       y="-0.9353677"
       width="2.0852652"
       height="2.8707354"
       class="B"><feGaussianBlur
         stdDeviation="1.774"
         id="feGaussianBlur19-7" /></filter><filter
       id="K-8"
       x="-0.35383674"
       y="-0.35604041"
       width="1.7076735"
       height="1.7120808"
       class="B"><feGaussianBlur
         stdDeviation="1.774"
         id="feGaussianBlur22" /></filter><filter
       id="L-1"
       x="-0.26777483"
       y="-0.30544635"
       width="1.5355497"
       height="1.6108927"
       class="B"><feGaussianBlur
         stdDeviation="1.774"
         id="feGaussianBlur25" /></filter><filter
       id="M"
       x="-0.26860258"
       y="-0.33149091"
       width="1.5372052"
       height="1.6629818"
       class="B"><feGaussianBlur
         stdDeviation="1.774"
         id="feGaussianBlur28" /></filter><filter
       id="N"
       x="-0.34196854"
       y="-0.34847167"
       width="1.6839371"
       height="1.6969433"
       class="B"><feGaussianBlur
         stdDeviation="1.774"
         id="feGaussianBlur31" /></filter><filter
       id="O"
       x="-0.16365007"
       y="-0.21448844"
       width="1.3273001"
       height="1.4289769"
       class="B"><feGaussianBlur
         stdDeviation="1.774"
         id="feGaussianBlur34" /></filter><clipPath
       id="D-0"><path
         d="M1799.132 1043.254a7.22 7.22 0 0 0-7.237 7.237v107.141l-44.726-44.726 10.889-10.886c-.771-2.729-3.59-5.548-6.319-6.319l-30.343-8.569-5.259-5.26a7.222 7.222 0 0 0-10.237 0l-3.45 3.45a7.222 7.222 0 0 0 0 10.237l5.259 5.259 8.569 30.343c.771 2.729 3.59 5.548 6.319 6.319l10.886-10.889 44.726 44.726h-107.141a7.22 7.22 0 0 0-7.237 7.237v4.88c0 4.01 3.227 7.24 7.237 7.24h107.141l-44.726 44.726-10.886-10.889c-2.729.771-5.548 3.586-6.319 6.315l-8.569 30.347-5.259 5.259a7.222 7.222 0 0 0 0 10.237l3.45 3.45a7.222 7.222 0 0 0 10.237 0l5.266-5.266 30.337-8.565c2.729-.771 5.548-3.586 6.319-6.315l-10.889-10.886 44.726-44.726v107.138c0 4.01 3.227 7.24 7.237 7.24h4.88c4.01 0 7.24-3.23 7.24-7.24v-107.138l44.726 44.726-10.889 10.886c.771 2.729 3.586 5.545 6.315 6.315l30.34 8.565 5.266 5.266a7.222 7.222 0 0 0 10.237 0l3.45-3.45a7.222 7.222 0 0 0 0-10.237l-5.266-5.266-8.565-30.34c-.771-2.729-3.586-5.545-6.315-6.315l-10.886 10.889-44.726-44.726h107.138c4.01 0 7.24-3.23 7.24-7.24v-4.88c0-4.01-3.23-7.237-7.24-7.237H1824.94l44.726-44.726 10.886 10.889c2.729-.771 5.545-3.59 6.315-6.319l8.565-30.337 5.266-5.266a7.222 7.222 0 0 0 0-10.237l-1.725-1.725-1.725-1.725a7.222 7.222 0 0 0-10.237 0l-5.259 5.26-30.347 8.569c-2.729.771-5.545 3.59-6.315 6.319l10.889 10.886-44.726 44.726V1050.49c0-4.01-3.23-7.237-7.24-7.237zm2.438 137.74h.01v.01h-.01z"
         stroke-width="1.534"
         id="path53" /></clipPath><clipPath
       id="F-8"><path
         d="M437.138 772.814c15.197 17.223 39.006 34.953 63.828 43.058 18.743 6.079 37.993 6.585 55.216-2.533 32.42 5.066 55.216.507 80.038 1.52-1.013 10.131 3.039 26.342-4.053 30.901-23.809 0-48.124 5.066-71.933 7.599-8.105 1.013-16.717-5.066-21.783 3.546 14.691 20.263 53.696 29.888 95.742 19.25 1.013 11.145 2.026 17.73-2.026 30.901-35.46 2.026-67.374 1.52-95.742 13.171 7.092 14.69 26.848 23.809 51.164 26.848 7.599-7.599 24.822-6.079 40.526-6.079-5.572 21.276 7.092 31.407 12.158 44.072-31.914 6.585-81.051 1.013-119.044 4.053.507 24.315 45.591 32.42 67.374 29.381 27.355-4.053 60.788-2.533 88.65-4.559 43.058-3.039 83.584-12.664 123.096-15.197 3.546-1.013-.507-9.118 3.546-9.625 8.105-.507 10.131 5.572 19.756 3.546 5.572-10.131-4.559-15.704-6.079-24.822-15.197-4.559-20.769-17.223-21.276-35.966-1.013-39.006 0-107.899 9.625-141.839-11.651-10.638-18.236-26.848-31.407-35.966-2.533 3.039-19.25 6.585-19.25 13.171-73.453 8.105-143.359 19.756-210.733 15.197-8.612-30.394 6.079-60.788 7.599-86.117.507-5.572-5.066-11.651-4.053-17.223 2.533-16.21 14.691-27.861 27.355-33.94 0 3.546-22.796 19.25-21.783 26.848 15.704-10.638 30.394-35.966 51.164-38.499 29.381-3.546 61.801 22.289 88.143 13.171-20.263-8.105-33.94-24.315-45.085-42.045-21.276-11.145-35.966-32.42-66.361-30.394-16.21 1.013-41.539 14.184-52.683 24.822-33.94 31.407-29.888 100.301-43.058 148.931-21.276 3.039-40.526 14.691-48.631 24.822zm165.648-85.61c-3.039 11.651-2.533 21.276 0 29.381 6.585 22.289 30.901 33.94 56.736 43.058-1.52-7.092-2.533-15.197-2.026-24.822-15.197-18.237-23.302-51.67-54.709-47.618zm70.92 19.756c7.599 23.302 36.473 36.98 52.177 45.085 5.066-40.019-20.263-73.453-50.657-74.466-4.559 11.145-4.053 20.769-1.52 29.381zm71.426-9.118c7.092 23.302 33.434 40.526 55.216 48.631-6.585-34.953-14.184-79.025-52.683-80.545-5.066 11.651-5.572 22.289-2.533 31.914zm76.492-47.111c-12.664 54.71 23.809 75.479 58.762 93.715 9.625-10.131-12.664-37.486-2.026-53.696-11.651-9.118-19.25-26.848-31.407-35.966-6.585-5.066-14.691-7.599-25.328-4.053zM675.226 935.423c27.861.507 44.578-8.105 75.985-5.572-3.039 8.105-1.013 25.835 4.053 31.914-14.691 17.73-49.644 16.717-75.985 19.756-2.533-14.184-5.066-28.368-4.053-46.098zm2.026-64.841c29.381-.507 48.124-3.039 73.959-5.572 4.053 8.612 1.52 28.368 0 32.42-28.368 2.533-45.085 8.612-73.959 7.599.507-12.664-2.026-23.302 0-34.447zm-2.026-59.269c28.874-8.105 53.19-7.599 78.012-9.625 1.52 10.131-3.546 23.302-1.52 31.914-27.861-2.026-45.591 11.145-74.466 10.131.507-12.158-3.546-19.25-2.026-32.42z"
         stroke-width="25.134"
         id="path56-4" /></clipPath><filter
       id="C-4"
       x="-0.01052904"
       y="-0.011053209"
       width="1.0210581"
       height="1.0221064"
       class="B"><feGaussianBlur
         stdDeviation="2.441"
         id="feGaussianBlur4-2" /></filter><filter
       id="E-0-9"
       x="-0.047960027"
       y="-0.048037478"
       width="1.0959201"
       height="1.096075"
       class="B"><feGaussianBlur
         stdDeviation="7.58"
         id="feGaussianBlur7-6" /></filter><filter
       id="G-0"
       x="-0.048002438"
       y="-0.048002441"
       width="1.0960049"
       height="1.0960049"
       class="B"><feGaussianBlur
         stdDeviation="5.51"
         id="feGaussianBlur10-8" /></filter><filter
       id="H-7-8"
       x="-0.15500487"
       y="-0.17417449"
       width="1.3100097"
       height="1.348349"
       class="B"><feGaussianBlur
         stdDeviation="1.005"
         id="feGaussianBlur13-3" /></filter><filter
       id="I-3"
       x="-0.16749596"
       y="-0.21712731"
       width="1.3349919"
       height="1.4342546"
       class="B"><feGaussianBlur
         stdDeviation="1.005"
         id="feGaussianBlur16-6" /></filter><filter
       id="J-4"
       x="-0.13868595"
       y="-0.16783961"
       width="1.2773719"
       height="1.3356792"
       class="B"><feGaussianBlur
         stdDeviation="1.005"
         id="feGaussianBlur19-3" /></filter><filter
       id="K-3"
       x="-0.19308802"
       y="-0.25104453"
       width="1.386176"
       height="1.5020891"
       class="B"><feGaussianBlur
         stdDeviation="1.005"
         id="feGaussianBlur22-1" /></filter><filter
       id="L-9"
       x="-0.10037904"
       y="-0.12979434"
       width="1.2007581"
       height="1.2595887"
       class="B"><feGaussianBlur
         stdDeviation="1.005"
         id="feGaussianBlur25-8" /></filter><filter
       id="M-7"
       x="-0.11922398"
       y="-0.14197023"
       width="1.238448"
       height="1.2839405"
       class="B"><feGaussianBlur
         stdDeviation="1.005"
         id="feGaussianBlur28-9" /></filter><linearGradient
       id="A-3"
       x1="228.547"
       y1="660.587"
       x2="270.281"
       y2="660.587"
       spreadMethod="reflect"
       gradientUnits="userSpaceOnUse"><stop
         offset="0"
         stop-color="#ffd285"
         id="stop31" /><stop
         offset=".232"
         stop-color="#ffcd79"
         id="stop33-2" /><stop
         offset=".616"
         stop-color="#ffca73"
         id="stop35-0" /><stop
         offset=".808"
         stop-color="#ffd386"
         id="stop37-1" /><stop
         offset="1"
         stop-color="#ffc86e"
         id="stop39-4" /></linearGradient><linearGradient
       id="B-4"
       x1="660.031"
       y1="176.668"
       x2="660.029"
       y2="1147.598"
       gradientUnits="userSpaceOnUse"><stop
         offset=".597"
         stop-color="#fff"
         id="stop42" /><stop
         offset="1"
         id="stop44" /></linearGradient><clipPath
       id="D-9"><path
         d="M-309.997 569.351c-12.933-14.657-33.194-29.746-54.318-36.643-15.951-5.173-32.332-5.604-46.99 2.155-27.59-4.311-46.99-.431-68.113-1.293.862-8.622-2.587-22.417 3.449-26.297 20.261 0 40.954-4.311 61.216-6.466 6.898-.862 14.226 4.311 18.537-3.018-12.502-17.244-45.696-25.435-81.477-16.382-.862-9.484-1.724-15.088 1.724-26.297 30.177-1.724 57.336-1.293 81.477-11.209-6.035-12.502-22.848-20.262-43.541-22.848-6.466 6.466-21.124 5.173-34.488 5.173 4.742-18.106-6.035-26.728-10.346-37.505 27.159-5.604 68.975-.862 101.308-3.449-.431-20.693-38.799-27.59-57.336-25.004-23.279 3.449-51.732 2.155-75.442 3.88-36.643 2.587-71.131 10.777-104.756 12.933-3.018.862.431 7.76-3.018 8.191-6.898.431-8.622-4.742-16.813-3.018-4.742 8.622 3.88 13.364 5.173 21.124 12.933 3.88 17.675 14.657 18.106 30.608.862 33.194 0 91.824-8.191 120.707 9.915 9.053 15.519 22.848 26.728 30.608 2.155-2.587 16.382-5.604 16.382-11.209 62.509-6.898 122-16.813 179.336-12.933 7.329 25.866-5.173 51.732-6.466 73.286-.431 4.742 4.311 9.915 3.449 14.657-2.155 13.795-12.502 23.71-23.279 28.883 0-3.018 19.399-16.382 18.537-22.848-13.364 9.053-25.866 30.608-43.541 32.763-25.004 3.018-52.594-18.968-75.011-11.209 17.244 6.898 28.883 20.693 38.368 35.781 18.106 9.484 30.608 27.59 56.474 25.866 13.795-.862 35.35-12.071 44.834-21.124 28.883-26.728 25.435-85.357 36.643-126.742 18.106-2.587 34.488-12.502 41.385-21.124zm-140.968 72.855c2.587-9.915 2.156-18.106 0-25.004-5.604-18.968-26.297-28.883-48.283-36.643 1.293 6.035 2.156 12.933 1.724 21.124 12.933 15.519 19.83 43.972 46.558 40.523zm-60.353-16.813c-6.466-19.83-31.039-31.47-44.403-38.368-4.311 34.057 17.244 62.509 43.11 63.371 3.88-9.484 3.449-17.675 1.293-25.004zm-60.785 7.76c-6.035-19.83-28.452-34.488-46.99-41.385 5.604 29.746 12.071 67.251 44.834 68.544 4.311-9.915 4.742-18.968 2.155-27.159zm-65.096 40.092c10.777-46.558-20.262-64.233-50.007-79.753-8.191 8.622 10.777 31.901 1.724 45.696 9.915 7.76 16.382 22.848 26.728 30.608 5.604 4.311 12.502 6.466 21.555 3.449zm124.587-242.276c-23.71-.431-37.936 6.898-64.664 4.742 2.587-6.898.862-21.986-3.449-27.159 12.502-15.088 42.247-14.226 64.664-16.813 2.155 12.071 4.311 24.141 3.449 39.23zm-1.724 55.18c-25.004.431-40.954 2.587-62.94 4.742-3.449-7.329-1.293-24.141 0-27.59 24.141-2.155 38.368-7.329 62.94-6.466-.431 10.777 1.724 19.83 0 29.315zm1.724 50.438c-24.572 6.898-45.265 6.466-66.389 8.191-1.293-8.622 3.018-19.83 1.293-27.159 23.71 1.724 38.799-9.484 63.371-8.622-.431 10.346 3.018 16.382 1.724 27.59z"
         stroke-width="21.389"
         id="path47" /></clipPath><clipPath
       id="F-9"><path
         d="M1799.132 1043.254a7.22 7.22 0 0 0-7.237 7.237v107.141l-44.726-44.726 10.889-10.886c-.771-2.729-3.59-5.548-6.319-6.319l-30.343-8.569-5.259-5.26a7.222 7.222 0 0 0-10.237 0l-3.45 3.45a7.222 7.222 0 0 0 0 10.237l5.259 5.259 8.569 30.343c.771 2.729 3.59 5.548 6.319 6.319l10.886-10.889 44.726 44.726h-107.141a7.22 7.22 0 0 0-7.237 7.237v4.88c0 4.01 3.227 7.24 7.237 7.24h107.141l-44.726 44.726-10.886-10.889c-2.729.771-5.548 3.586-6.319 6.315l-8.569 30.347-5.259 5.259a7.222 7.222 0 0 0 0 10.237l3.45 3.45a7.222 7.222 0 0 0 10.237 0l5.266-5.266 30.337-8.565c2.729-.771 5.548-3.586 6.319-6.315l-10.889-10.886 44.726-44.726v107.138c0 4.01 3.227 7.24 7.237 7.24h4.88c4.01 0 7.24-3.23 7.24-7.24v-107.138l44.726 44.726-10.889 10.886c.771 2.729 3.586 5.545 6.315 6.315l30.34 8.565 5.266 5.266a7.222 7.222 0 0 0 10.237 0l3.45-3.45a7.222 7.222 0 0 0 0-10.237l-5.266-5.266-8.565-30.34c-.771-2.729-3.586-5.545-6.315-6.315l-10.886 10.889-44.726-44.726h107.138c4.01 0 7.24-3.23 7.24-7.24v-4.88c0-4.01-3.23-7.237-7.24-7.237H1824.94l44.726-44.726 10.886 10.889c2.729-.771 5.545-3.59 6.315-6.319l8.565-30.337 5.266-5.266a7.222 7.222 0 0 0 0-10.237l-1.725-1.725-1.725-1.725a7.222 7.222 0 0 0-10.237 0l-5.259 5.26-30.347 8.569c-2.729.771-5.545 3.59-6.315 6.319l10.889 10.886-44.726 44.726V1050.49c0-4.01-3.23-7.237-7.24-7.237zm2.438 137.74h.01v.01h-.01z"
         stroke-width="1.534"
         id="path50-5" /></clipPath><filter
       inkscape:menu-tooltip="In and out glow with a possible offset and colorizable flood"
       inkscape:menu="Shadows and Glows"
       inkscape:label="Cutout Glow"
       style="color-interpolation-filters:sRGB;"
       id="filter1889"
       x="-0.014778484"
       y="-0.042572575"
       width="1.0500826"
       height="1.0603937"><feOffset
         dy="-10"
         dx="10"
         id="feOffset1879" /><feGaussianBlur
         stdDeviation="3"
         result="blur"
         id="feGaussianBlur1881" /><feFlood
         flood-color="rgb(0,0,0)"
         flood-opacity="1"
         result="flood"
         id="feFlood1883" /><feComposite
         in="flood"
         in2="SourceGraphic"
         operator="in"
         result="composite"
         id="feComposite1885" /><feBlend
         in="blur"
         in2="composite"
         mode="normal"
         id="feBlend1887" /></filter><filter
       inkscape:menu-tooltip="In and out glow with a possible offset and colorizable flood"
       inkscape:menu="Shadows and Glows"
       inkscape:label="Cutout Glow"
       style="color-interpolation-filters:sRGB"
       id="filter1889-1"
       x="-0.035304156"
       y="-0.017821078"
       width="1.0500826"
       height="1.0603937"><feOffset
         dy="10"
         dx="-10"
         id="feOffset1879-4" /><feGaussianBlur
         stdDeviation="3"
         result="blur"
         id="feGaussianBlur1881-6" /><feFlood
         flood-color="rgb(0,0,0)"
         flood-opacity="1"
         result="flood"
         id="feFlood1883-8" /><feComposite
         in="flood"
         in2="SourceGraphic"
         operator="in"
         result="composite"
         id="feComposite1885-3" /><feBlend
         in="blur"
         in2="composite"
         mode="normal"
         id="feBlend1887-6" /></filter><clipPath
       clipPathUnits="userSpaceOnUse"
       id="clipPath1942"><text
         xml:space="preserve"
         style="font-size:489.479px;font-family:'Yuji Mai';-inkscape-font-specification:'Yuji Mai';fill:#29303d;stroke:none;stroke-width:27.7812;filter:url(#filter1889-1);stop-color:#000000"
         x="408.24722"
         y="743.65955"
         id="text1946"><tspan
           sodipodi:role="line"
           id="tspan1944"
           style="font-size:489.479px;stroke:none;stroke-width:27.7812"
           x="408.24722"
           y="743.65955">ç‹</tspan></text></clipPath><filter
       id="I-5-6"
       x="-0.16749596"
       y="-0.21712731"
       width="1.3349919"
       height="1.4342546"
       class="B"><feGaussianBlur
         stdDeviation="1.005"
         id="feGaussianBlur16-5" /></filter><clipPath
       clipPathUnits="userSpaceOnUse"
       id="clipPath1280"><path
         d="m 819.06069,415.79324 q -8.57252,4.7625 -18.57377,9.525 -10.00124,4.76249 -21.90749,7.61999 -2.8575,21.90749 -7.14375,49.53001 -3.80999,27.62249 -10.47749,54.76875 -6.6675,27.14624 -19.05002,47.62498 -7.62,13.33502 -18.57374,22.38377 -10.4775,8.5725 -24.28874,11.90624 -9.525,1.905 -20.47877,-2.38124 -10.4775,-4.7625 -20.47874,-12.85875 -12.3825,-10.47752 -22.38374,-23.81252 -9.525,-13.33499 -13.335,-23.33624 -0.47625,-1.905 1.905,-2.8575 1.905,-0.95249 1.42875,-2.38124 l -5.23877,-12.3825 q 10.47752,1.905 23.81251,11.43 13.335,9.04874 23.81249,17.14499 15.71625,0 27.14627,-11.43 11.90624,-11.42999 20.00249,-29.05126 7.62,-16.66874 11.90625,-36.19499 4.76249,-19.52624 6.66749,-38.57626 1.905,-19.04999 0.47625,-33.81373 -14.76374,-1.42875 -32.86123,0.47625 -17.62127,1.905 -34.29002,3.81 -2.85749,0.47625 -5.71499,0.9525 -2.38125,0 -5.23875,0.47625 3.33375,13.33499 -2.38125,25.24124 -5.23875,11.90624 -10.00125,19.04999 -1.42875,1.90502 -1.905,2.85752 11.90625,6.6675 23.33625,13.335 11.90624,6.19124 20.00251,16.19249 8.5725,10.00125 9.525,27.14624 -21.43127,-0.9525 -36.19501,-8.09625 -14.76375,-7.61999 -30.00374,-14.28749 -5.715,10.95374 -13.81127,26.19374 -8.09625,15.24002 -18.57374,30.48001 -10.4775,14.76375 -23.33624,24.76499 -12.85875,10.00127 -27.62252,10.95377 -8.09624,-0.9525 -13.81124,-4.28627 18.09749,-22.38374 34.76626,-48.57748 16.66874,-26.67002 26.66999,-53.34001 -9.04875,-6.66749 -22.85999,-13.33499 -13.81127,-7.14375 -26.19377,-13.81127 7.14375,-8.09625 17.14502,-9.04875 10.00125,-1.42875 20.00249,0.9525 10.4775,1.905 17.62125,3.81 4.28624,1.42875 5.71499,1.905 3.81,-5.715 7.62,-16.19249 3.81,-10.4775 5.715,-18.0975 -7.62,-1.905 -13.81125,-0.47625 -6.19124,1.42875 -11.90624,3.81 -3.81,1.42875 -7.62,2.8575 -3.33375,0.9525 -7.14374,0.9525 -9.04875,0.47625 -15.24,-2.8575 -5.71502,-3.33375 -10.95377,-7.61999 -4.28625,-2.8575 -8.5725,-5.23875 -4.28625,-2.8575 -9.52499,-3.81 -0.47625,-6.6675 -4.28625,-10.00127 -3.81,-3.33375 -4.28625,-10.95375 32.38499,3.81 70.96125,0.9525 38.57626,-2.8575 76.67624,-6.6675 18.57377,-1.905 36.19501,-3.33374 17.62125,-1.905 34.28999,-2.8575 l 1.42875,-5.23875 q 26.67001,1.905 44.76751,11.90624 18.57374,10.00125 30.48001,26.19377 z m 40.48123,310.99125 q 0,8.09625 -6.19124,12.85875 -5.715,4.76249 -13.335,9.04874 -7.14375,4.28625 -11.90624,10.95375 -31.90877,7.14375 -65.24625,8.5725 -33.33752,1.90499 -64.29375,-2.8575 -38.10001,-6.19125 -69.05625,-23.33624 -30.95626,-16.66875 -47.62501,-46.67251 -5.23874,-9.525 -9.52499,-20.95499 -3.81,-11.90625 -8.09625,-22.86002 -4.7625,-11.42999 -8.57252,-23.81249 -3.33375,-12.85874 -8.5725,-24.76499 17.14502,7.62 29.05127,20.00249 11.90624,12.3825 21.43124,27.62249 9.52499,14.76377 18.57374,30.00377 9.04877,15.23999 20.00252,29.05123 11.90624,4.7625 32.38498,9.04875 20.47877,3.81 42.38626,3.81 19.52624,0 36.19499,-4.28625 17.14502,-4.7625 25.71751,-15.23999 -3.33375,-12.3825 -9.04874,-22.38374 -5.23875,-10.4775 -11.90625,-19.52625 -6.19127,-6.66752 -11.90627,-13.33502 -5.715,-7.14374 -8.09625,-13.81124 10.4775,0.47625 15.71625,5.715 5.71502,4.76249 6.19127,11.42999 6.6675,6.6675 18.57374,10.95377 11.90625,3.81 23.81249,10.00125 6.19125,3.33375 12.3825,8.5725 6.19127,5.23874 11.90627,7.61999 0.9525,0 3.81,0 3.81,-0.47625 4.7625,0 5.71499,3.33375 12.85874,10.95375 7.14375,7.14374 12.3825,14.76374 5.23874,7.62 5.23874,12.85877 z m -319.56375,21.43124 q -6.19124,8.09625 -14.76374,6.19125 -8.5725,-1.42875 -17.14499,-8.09625 -10.4775,-8.09624 -19.05002,-20.00249 -8.09625,-11.90627 -10.4775,-18.09752 12.85875,-10.95374 14.2875,-29.05123 1.42877,-18.0975 0.47625,-37.62377 -0.47625,-7.61999 -0.9525,-14.76374 0,-7.62 0.47625,-14.76374 18.09752,4.7625 23.33626,21.43124 5.715,16.19249 7.14375,36.67126 0.9525,14.76374 1.42875,30.00374 0.9525,14.76374 3.81,27.62251 3.33375,12.3825 11.42999,20.47874 z m 323.85,-107.6325 q -11.42999,5.71499 -26.66999,3.33374 -14.76374,-2.38125 -28.57501,-9.04874 -13.335,-6.6675 -20.95499,-13.335 -0.9525,-0.9525 -0.9525,-3.33375 0,-2.85749 -0.9525,-3.33374 -10.00125,-8.5725 -21.43124,-14.2875 -11.43,-6.19127 -16.66877,-15.71627 19.52627,-5.23875 40.95751,-2.8575 21.90749,2.38125 39.52876,11.90625 13.81124,7.62002 23.33624,19.52627 10.00124,11.42999 12.38249,27.14624 z m -145.25624,30.48001 q -1.905,10.00124 -13.335,11.42999 -10.95374,1.42875 -21.90751,-2.38124 -11.43,-4.28625 -20.95499,-13.81125 -9.04875,-10.00127 -16.66875,-21.90752 -7.61999,-11.90624 -13.81124,-20.95499 9.04875,-1.42875 21.90749,0.47625 12.85874,1.42875 26.19374,6.19125 13.33502,4.28625 22.86002,11.42999 8.09624,5.715 12.38249,13.335 4.7625,7.14377 3.33375,16.19252 z"
         id="path1282"
         style="font-size:476.25px;font-family:'Yuji Mai';-inkscape-font-specification:'Yuji Mai';fill:#980000;stroke-width:27.7812" /></clipPath><clipPath
       clipPathUnits="userSpaceOnUse"
       id="clipPath1501"><path
         id="path1503"
         style="fill:#980000;fill-opacity:1;stroke-width:0.588303"
         d="m 543.00659,1228.991 c 15.7358,-9.2227 31.47226,-18.443 51.07309,-52.0247 19.60082,-33.5818 43.07145,-91.5224 66.54003,-149.463 -15.6075,58.5107 -25.31921,128.2197 -44.92139,161.8025 -19.6022,33.5827 -49.09487,31.0341 -72.69173,39.6852 z M 660.6204,1027.5033 c 23.46858,57.9401 46.93579,115.8812 66.53662,149.463 19.60083,33.5817 35.33803,42.802 51.07311,52.0247 -23.59688,-8.6511 -53.08614,-6.102 -72.68834,-39.6852 -19.60218,-33.5833 -29.31387,-103.2924 -44.92139,-161.8025 z M 542.56207,795.7407 c 15.73577,9.22279 31.47225,18.44307 51.07308,52.02479 19.60083,33.58172 43.07145,91.52238 66.54003,149.46301 -15.6075,-58.5107 -25.31921,-128.21976 -44.92139,-161.80251 -19.6022,-33.58273 -49.09487,-31.03411 -72.69172,-39.68529 z m 117.6138,201.4878 c 23.46859,-57.94013 46.9358,-115.88129 66.53662,-149.46301 19.60083,-33.58172 35.33798,-42.802 51.07311,-52.02479 -23.59688,8.65118 -53.08613,6.10203 -72.68834,39.68529 -19.60218,33.58326 -29.31386,103.29231 -44.92139,161.80251 z m 216.84532,132.5269 c -9.22271,-15.7358 -18.44301,-31.4723 -52.02471,-51.0731 -33.5818,-19.6008 -91.52238,-43.0714 -149.46298,-66.54 58.5107,15.6075 128.2197,25.3192 161.80248,44.9214 33.5827,19.6022 31.03411,49.0948 39.68521,72.6917 z M 675.5335,1012.1416 c 57.9401,-23.46864 115.88118,-46.93585 149.46298,-66.5367 33.5817,-19.6008 42.802,-35.338 52.02471,-51.07311 -8.6511,23.59691 -6.102,53.08616 -39.68521,72.68834 -33.58328,19.60218 -103.29239,29.31389 -161.80248,44.92147 z m -231.76255,118.0583 c 9.22279,-15.7357 18.44307,-31.4722 52.02479,-51.073 33.58172,-19.6009 91.52238,-43.0715 149.46301,-66.5401 -58.5107,15.6075 -128.21976,25.3192 -161.80251,44.9214 -33.58273,19.6022 -31.0341,49.0949 -39.68529,72.6917 z m 201.4878,-117.6138 c -57.94013,-23.46861 -115.88129,-46.93582 -149.46301,-66.53665 -33.58172,-19.60083 -42.802,-35.338 -52.02479,-51.07311 8.65119,23.59688 6.10203,53.08614 39.68529,72.68832 33.58326,19.6022 103.29231,29.31389 161.80251,44.92144 z M 514.82631,1143.269 a 10.39,10.39 0 0 0 3.062,7.373 l 4.97099,4.971 a 10.405,10.405 0 0 0 14.74699,0 l 7.582,-7.582 43.71302,-12.339 c 3.93199,-1.11 7.988,-5.171 9.09798,-9.103 l -15.68698,-15.682 78.375,-78.375 78.37498,78.375 -15.68701,15.682 c 1.11001,3.931 5.17101,7.993 9.10301,9.103 l 43.70301,12.334 7.58698,7.587 a 10.405,10.405 0 0 0 14.74702,0 l 4.97099,-4.971 a 10.405,10.405 0 0 0 0,-14.747 l -7.577,-7.577 -12.344,-43.717 c -1.11001,-3.931 -5.16699,-7.988 -9.09801,-9.098 l -15.68698,15.687 -78.375,-78.375 78.375,-78.37506 15.68698,15.68698 c 3.93102,-1.10998 7.988,-5.167 9.09801,-9.09799 l 12.344,-43.717 7.577,-7.57701 a 10.405,10.405 0 0 0 0,-14.74699 l -4.97099,-4.97099 a 10.405,10.405 0 0 0 -14.74702,0 l -7.58198,7.582 -43.70801,12.339 c -3.93099,1.10998 -7.993,5.17199 -9.10301,9.10298 l 15.68701,15.68201 -78.37498,78.375 -78.375,-78.375 15.68698,-15.68201 c -1.10998,-3.93099 -5.16699,-7.993 -9.09798,-9.10298 l -43.71701,-12.344 -7.577,-7.577 a 10.405,10.405 0 0 0 -14.747,0 l -2.48499,2.48499 -2.48502,2.48499 a 10.405,10.405 0 0 0 0,14.747 l 7.587,7.587 12.339,43.70801 c 1.11001,3.932 5.16702,7.98801 9.09801,9.09799 l 15.68701,-15.68698 78.375,78.37506 -78.375,78.375 -15.68701,-15.687 c -3.93099,1.11 -7.988,5.167 -9.09801,9.098 l -12.339,43.708 -7.587,7.586 a 10.396,10.396 0 0 0 -3.06199,7.374 z m 145.855,-130.455 v -0.013 l 0.0132,0.013 -0.0132,0.013 z" /></clipPath></defs><path
     d="m-2681.73 217.274 26.181 28.949 172.576 56.161 193.177-61.463 89.581-450.194-45.894-49.39z"
     transform="matrix(-2.0051 0 0 2.0051 -4364.078 706.823)"
     opacity=".5"
     filter="url(#B)"
     id="path46" /><path
     d="m-1220.686-363.581-176.123 60.03-8.809 28.459-84.914 494.898 10.349 7.986h518.995l10.348-7.986-84.914-495.039-8.809-28.459z"
     fill="url(#A)"
     transform="rotate(180 -893.82 266.77) scale(2.0051)"
     id="path48" /><path
     d="m-905.02-407.213-176.123 59.888-8.809 26.778-84.914 496.72 10.349 7.986h518.995l10.349-7.986-84.914-494.898-8.809-28.601z"
     opacity=".25"
     fill="url(#C)"
     transform="rotate(180 -577.344 223.027) scale(2.0051)"
     style="mix-blend-mode:overlay"
     id="path50" /><path
     d="m139.629 97.854.043-21.064-20.75 16.013 20.707 5.052zm891.185 987.285-17.664-13.248L660 1188.821v16.402z"
     opacity=".4"
     id="path52" /><path
     d="m289.186 1085.139 17.664-13.248L660 1188.821v16.402z"
     opacity=".6"
     id="path54" /><path
     d="m289.186 1085.139 17.664-13.248L139.629 97.854l-20.707-5.052z"
     opacity=".6"
     id="path56" /><g
     fill="#fff"
     id="g64"><path
       d="m1030.814 1085.139-17.664-13.248 167.221-974.037 20.707-5.052z"
       opacity=".3"
       id="path58" /><path
       d="m1180.371 97.854-.043-21.064 20.75 16.013-20.707 5.052z"
       opacity=".8"
       id="path60" /><path
       d="M1180.371 97.854H139.629l.043-21.064h1040.656l.043 21.064z"
       opacity=".3"
       id="path62" /></g><path
     d="m306.849 1142.487-17.663-57.348L660 1205.223l370.814-120.084-17.663 57.348L660 1262.571l-353.151-120.084z"
     opacity=".7"
     id="path66" /><style
     id="style2-9">.B{color-interpolation-filters:sRGB}</style><style
     id="style309">.B{color-interpolation-filters:sRGB}</style><path
     id="path2137-6"
     style="fill:#320000;fill-opacity:1;stroke-width:0.588304"
     d="m 777.66439,133.04662 c -15.73579,9.2227 -31.47227,18.443 -51.07309,52.0247 -19.60083,33.5818 -43.07145,91.5224 -66.54003,149.463 15.6075,-58.5107 25.31921,-128.2197 44.92139,-161.8025 19.60219,-33.5827 49.09486,-31.0341 72.69173,-39.6852 z m -117.6138,201.4877 c -23.4686,-57.9401 -46.93581,-115.8812 -66.53664,-149.463 -19.60081,-33.5817 -35.33801,-42.802 -51.07311,-52.0247 23.5969,8.6511 53.08615,6.102 72.68834,39.6852 19.60218,33.5833 29.31388,103.2924 44.92141,161.8025 z M 778.10892,566.29691 C 762.37313,557.07412 746.63665,547.85386 727.03583,514.27213 707.435,480.6904 683.96438,422.74975 660.4958,364.80912 c 15.6075,58.5107 25.31921,128.21976 44.92139,161.8025 19.60219,33.58275 49.09486,31.03411 72.69173,39.68529 z M 660.49512,364.80912 c -23.4686,57.94012 -46.93581,115.88128 -66.53664,149.46301 -19.60082,33.58173 -35.33798,42.80199 -51.07309,52.02478 23.59687,-8.65118 53.08613,-6.10203 72.68832,-39.68529 19.60218,-33.58325 29.31388,-103.29231 44.92141,-161.8025 z M 443.64979,232.28222 c 9.2227,15.7358 18.443,31.4723 52.0247,51.0731 33.5818,19.6008 91.5224,43.0714 149.463,66.54 -58.5107,-15.6075 -128.2197,-25.3192 -161.8025,-44.9214 -33.5827,-19.6022 -31.0341,-49.0948 -39.6852,-72.6917 z m 201.4877,117.6138 c -57.9401,23.46865 -115.8812,46.93586 -149.463,66.53669 -33.5817,19.60081 -42.802,35.33801 -52.0247,51.07311 8.6511,-23.5969 6.102,-53.08615 39.6852,-72.68834 33.5833,-19.60218 103.2924,-29.31388 161.8025,-44.92146 z m 231.76253,-118.0583 c -9.22279,15.7357 -18.44305,31.4722 -52.02478,51.073 -33.58173,19.6009 -91.52238,43.0715 -149.46301,66.5401 58.5107,-15.6075 128.21976,-25.3192 161.8025,-44.9214 33.58275,-19.6022 31.03411,-49.0949 39.68529,-72.6917 z m -201.48779,117.6138 c 57.94012,23.46862 115.88128,46.93583 149.46301,66.53666 33.58173,19.60082 42.80199,35.33798 52.02478,51.07309 -8.65118,-23.59687 -6.10203,-53.08613 -39.68529,-72.68832 -33.58325,-19.60218 -103.29231,-29.31388 -161.8025,-44.92143 z m 130.43245,-130.6829 a 10.39,10.39 0 0 0 -3.062,-7.373 l -4.971,-4.971 a 10.405,10.405 0 0 0 -14.747,0 l -7.582,7.582 -43.713,12.339 c -3.932,1.11 -7.988,5.171 -9.098,9.103 l 15.687,15.682 -78.375,78.375 -78.37499,-78.375 15.687,-15.682 c -1.11,-3.931 -5.171,-7.993 -9.103,-9.103 l -43.703,-12.334 -7.587,-7.587 a 10.405,10.405 0 0 0 -14.747,0 l -4.971,4.971 a 10.405,10.405 0 0 0 0,14.747 l 7.577,7.577 12.344,43.717 c 1.11,3.931 5.167,7.988 9.098,9.098 l 15.687,-15.687 78.375,78.375 -78.375,78.37507 -15.687,-15.687 c -3.931,1.11 -7.988,5.167 -9.098,9.098 l -12.344,43.717 -7.577,7.577 a 10.405,10.405 0 0 0 0,14.747 l 4.971,4.971 a 10.405,10.405 0 0 0 14.747,0 l 7.582,-7.582 43.708,-12.339 c 3.931,-1.11 7.993,-5.172 9.103,-9.103 l -15.687,-15.682 78.37499,-78.375 78.375,78.375 -15.687,15.682 c 1.11,3.931 5.167,7.993 9.098,9.103 l 43.717,12.344 7.577,7.577 a 10.405,10.405 0 0 0 14.747,0 l 2.485,-2.485 2.485,-2.485 a 10.405,10.405 0 0 0 0,-14.747 l -7.587,-7.587 -12.339,-43.708 c -1.11,-3.932 -5.167,-7.988 -9.098,-9.098 l -15.687,15.687 -78.375,-78.37507 78.375,-78.375 15.687,15.687 c 3.931,-1.11 7.988,-5.167 9.098,-9.098 l 12.339,-43.708 7.587,-7.586 a 10.396,10.396 0 0 0 3.062,-7.374 z m -145.855,130.455 v 0.014 l -0.014,-0.014 0.014,-0.014 z" /><path
     id="path384-3-9"
     style="fill:#980000;fill-opacity:1;stroke-width:0.588304;filter:url(#filter2080)"
     d="m 543.00659,1228.991 c 15.73579,-9.2227 31.47227,-18.443 51.07309,-52.0247 19.60083,-33.5818 43.07145,-91.5224 66.54003,-149.463 -15.6075,58.5107 -25.31921,128.2197 -44.92139,161.8025 -19.60219,33.5827 -49.09486,31.0341 -72.69173,39.6852 z m 117.6138,-201.4877 c 23.46861,57.9401 46.93582,115.8812 66.53665,149.463 19.60081,33.5817 35.33801,42.802 51.07311,52.0247 -23.5969,-8.6511 -53.08615,-6.102 -72.68834,-39.6852 -19.60218,-33.5833 -29.31388,-103.2924 -44.92142,-161.8025 z M 542.56206,795.74072 c 15.73579,9.22279 31.47227,18.44305 51.07309,52.02478 19.60083,33.58173 43.07145,91.52238 66.54003,149.46301 -15.6075,-58.5107 -25.31921,-128.21976 -44.92139,-161.8025 -19.60219,-33.58275 -49.09486,-31.03411 -72.69173,-39.68529 z m 117.6138,201.48779 c 23.46861,-57.94012 46.93582,-115.88128 66.53665,-149.46301 19.60082,-33.58173 35.33798,-42.80199 51.07309,-52.02478 -23.59687,8.65118 -53.08613,6.10203 -72.68832,39.68529 -19.60218,33.58325 -29.31388,103.29231 -44.92142,161.8025 z M 877.0212,1129.7554 c -9.2227,-15.7358 -18.443,-31.4723 -52.0247,-51.0731 -33.5818,-19.6008 -91.5224,-43.0714 -149.463,-66.54 58.5107,15.6075 128.2197,25.3192 161.8025,44.9214 33.5827,19.6022 31.0341,49.0948 39.6852,72.6917 z M 675.5335,1012.1416 c 57.9401,-23.46864 115.8812,-46.93585 149.463,-66.53668 33.5817,-19.60081 42.802,-35.33801 52.0247,-51.07311 -8.6511,23.5969 -6.102,53.08615 -39.6852,72.68834 -33.5833,19.60218 -103.2924,29.31388 -161.8025,44.92145 z m -231.76254,118.0583 c 9.22279,-15.7357 18.44305,-31.4722 52.02478,-51.073 33.58173,-19.6009 91.52238,-43.0715 149.46301,-66.5401 -58.5107,15.6075 -128.21976,25.3192 -161.8025,44.9214 -33.58275,19.6022 -31.03411,49.0949 -39.68529,72.6917 z m 201.48779,-117.6138 c -57.94012,-23.46861 -115.88128,-46.93582 -149.46301,-66.53665 -33.58173,-19.60082 -42.80199,-35.33798 -52.02478,-51.07309 8.65118,23.59687 6.10203,53.08613 39.68529,72.68832 33.58325,19.60218 103.29231,29.31388 161.8025,44.92142 z M 514.8263,1143.269 a 10.39,10.39 0 0 0 3.062,7.373 l 4.971,4.971 a 10.405,10.405 0 0 0 14.747,0 l 7.582,-7.582 43.713,-12.339 c 3.932,-1.11 7.988,-5.171 9.098,-9.103 l -15.687,-15.682 78.375,-78.375 78.375,78.375 -15.687,15.682 c 1.11,3.931 5.171,7.993 9.103,9.103 l 43.703,12.334 7.587,7.587 a 10.405,10.405 0 0 0 14.747,0 l 4.971,-4.971 a 10.405,10.405 0 0 0 0,-14.747 l -7.577,-7.577 -12.344,-43.717 c -1.11,-3.931 -5.167,-7.988 -9.098,-9.098 l -15.687,15.687 -78.375,-78.375 78.375,-78.37506 15.687,15.687 c 3.931,-1.11 7.988,-5.167 9.098,-9.098 l 12.344,-43.717 7.577,-7.577 a 10.405,10.405 0 0 0 0,-14.747 l -4.971,-4.971 a 10.405,10.405 0 0 0 -14.747,0 l -7.582,7.582 -43.708,12.339 c -3.931,1.11 -7.993,5.172 -9.103,9.103 l 15.687,15.682 -78.375,78.375 -78.375,-78.375 15.687,-15.682 c -1.11,-3.931 -5.167,-7.993 -9.098,-9.103 l -43.717,-12.344 -7.577,-7.577 a 10.405,10.405 0 0 0 -14.747,0 l -2.485,2.485 -2.485,2.485 a 10.405,10.405 0 0 0 0,14.747 l 7.587,7.587 12.339,43.708 c 1.11,3.932 5.167,7.988 9.098,9.098 l 15.687,-15.687 78.375,78.37506 -78.375,78.375 -15.687,-15.687 c -3.931,1.11 -7.988,5.167 -9.098,9.098 l -12.339,43.708 -7.587,7.586 a 10.396,10.396 0 0 0 -3.062,7.374 z m 145.855,-130.455 v -0.014 l 0.014,0.014 -0.014,0.014 z"
     clip-path="url(#clipPath1501)"
     transform="rotate(180,660.33549,681.01881)" /><path
     d="m 501.6103,946.24439 q 8.5725,-4.7625 18.57375,-9.525 10.00125,-4.7625 21.9075,-7.62 2.8575,-21.9075 7.14375,-49.53 3.81,-27.6225 10.4775,-54.76875 6.6675,-27.14625 19.05,-47.625 7.62,-13.335 18.57375,-22.38375 10.4775,-8.5725 24.28875,-11.90625 9.525,-1.905 20.47875,2.38125 10.4775,4.7625 20.47875,12.85875 12.3825,10.4775 22.38375,23.8125 9.525,13.335 13.335,23.33625 0.47625,1.905 -1.905,2.8575 -1.905,0.9525 -1.42875,2.38125 l 5.23875,12.3825 q -10.4775,-1.905 -23.8125,-11.43 -13.335,-9.04875 -23.8125,-17.145 -15.71625,0 -27.14625,11.43 -11.90625,11.43 -20.0025,29.05125 -7.62,16.66875 -11.90625,36.195 -4.7625,19.52625 -6.6675,38.57625 -1.905,19.05 -0.47625,33.81375 14.76375,1.42875 32.86125,-0.47625 17.62125,-1.905 34.29,-3.81 2.8575,-0.47625 5.715,-0.9525 2.38125,0 5.23875,-0.47625 -3.33375,-13.335 2.38125,-25.24125 5.23875,-11.90625 10.00125,-19.05 1.42875,-1.905 1.905,-2.8575 -11.90625,-6.6675 -23.33625,-13.335 -11.90625,-6.19125 -20.0025,-16.1925 -8.5725,-10.00125 -9.525,-27.14625 21.43125,0.9525 36.195,8.09625 14.76375,7.62 30.00375,14.2875 5.715,-10.95375 13.81125,-26.19375 8.09625,-15.24 18.57375,-30.48 10.4775,-14.76375 23.33625,-24.765 12.85875,-10.00125 27.6225,-10.95375 8.09625,0.9525 13.81125,4.28625 -18.0975,22.38375 -34.76625,48.5775 -16.66875,26.67 -26.67,53.34 9.04875,6.6675 22.86,13.335 13.81125,7.14375 26.19375,13.81125 -7.14375,8.09625 -17.145,9.04875 -10.00125,1.42875 -20.0025,-0.9525 -10.4775,-1.905 -17.62125,-3.81 -4.28625,-1.42875 -5.715,-1.905 -3.81,5.715 -7.62,16.1925 -3.81,10.4775 -5.715,18.0975 7.62,1.905 13.81125,0.47625 6.19125,-1.42875 11.90625,-3.81 3.81,-1.42875 7.62,-2.8575 3.33375,-0.9525 7.14375,-0.9525 9.04875,-0.47625 15.24,2.8575 5.715,3.33375 10.95375,7.62 4.28625,2.8575 8.5725,5.23875 4.28625,2.8575 9.525,3.81 0.47625,6.6675 4.28625,10.00125 3.81,3.33375 4.28625,10.95375 -32.385,-3.81 -70.96125,-0.9525 -38.57625,2.8575 -76.67625,6.6675 -18.57375,1.905 -36.195,3.33375 -17.62125,1.905 -34.29,2.8575 l -1.42875,5.23875 q -26.67,-1.905 -44.7675,-11.90625 -18.57375,-10.00125 -30.48,-26.19375 z M 461.12905,635.25314 q 0,-8.09625 6.19125,-12.85875 5.715,-4.7625 13.335,-9.04875 7.14375,-4.28625 11.90625,-10.95375 31.90875,-7.14375 65.24625,-8.5725 33.3375,-1.905 64.29375,2.8575 38.1,6.19125 69.05625,23.33625 30.95625,16.66875 47.625,46.6725 5.23875,9.525 9.525,20.955 3.81,11.90625 8.09625,22.86 4.7625,11.43 8.5725,23.8125 3.33375,12.85875 8.5725,24.765 -17.145,-7.62 -29.05125,-20.0025 -11.90625,-12.3825 -21.43125,-27.6225 -9.525,-14.76375 -18.57375,-30.00375 -9.04875,-15.24 -20.0025,-29.05125 -11.90625,-4.7625 -32.385,-9.04875 -20.47875,-3.81 -42.38625,-3.81 -19.52625,0 -36.195,4.28625 -17.145,4.7625 -25.7175,15.24 3.33375,12.3825 9.04875,22.38375 5.23875,10.4775 11.90625,19.52625 6.19125,6.6675 11.90625,13.335 5.715,7.14375 8.09625,13.81125 -10.4775,-0.47625 -15.71625,-5.715 -5.715,-4.7625 -6.19125,-11.43 -6.6675,-6.6675 -18.57375,-10.95375 -11.90625,-3.81 -23.8125,-10.00125 -6.19125,-3.33375 -12.3825,-8.5725 -6.19125,-5.23875 -11.90625,-7.62 -0.9525,0 -3.81,0 -3.81,0.47625 -4.7625,0 -5.715,-3.33375 -12.85875,-10.95375 -7.14375,-7.14375 -12.3825,-14.76375 -5.23875,-7.62 -5.23875,-12.85875 z M 780.6928,613.82189 q 6.19125,-8.09625 14.76375,-6.19125 8.5725,1.42875 17.145,8.09625 10.4775,8.09625 19.05,20.0025 8.09625,11.90625 10.4775,18.0975 -12.85875,10.95375 -14.2875,29.05125 -1.42875,18.0975 -0.47625,37.62375 0.47625,7.62 0.9525,14.76375 0,7.62 -0.47625,14.76375 -18.0975,-4.7625 -23.33625,-21.43125 -5.715,-16.1925 -7.14375,-36.67125 -0.9525,-14.76375 -1.42875,-30.00375 -0.9525,-14.76375 -3.81,-27.6225 -3.33375,-12.3825 -11.43,-20.47875 z m -323.85,107.6325 q 11.43,-5.715 26.67,-3.33375 14.76375,2.38125 28.575,9.04875 13.335,6.6675 20.955,13.335 0.9525,0.9525 0.9525,3.33375 0,2.8575 0.9525,3.33375 10.00125,8.5725 21.43125,14.2875 11.43,6.19125 16.66875,15.71625 -19.52625,5.23875 -40.9575,2.8575 -21.9075,-2.38125 -39.52875,-11.90625 -13.81125,-7.62 -23.33625,-19.52625 -10.00125,-11.43 -12.3825,-27.14625 z m 145.25625,-30.48 q 1.905,-10.00125 13.335,-11.43 10.95375,-1.42875 21.9075,2.38125 11.43,4.28625 20.955,13.81125 9.04875,10.00125 16.66875,21.9075 7.62,11.90625 13.81125,20.955 -9.04875,1.42875 -21.9075,-0.47625 -12.85875,-1.42875 -26.19375,-6.19125 -13.335,-4.28625 -22.86,-11.43 -8.09625,-5.715 -12.3825,-13.335 -4.7625,-7.14375 -3.33375,-16.1925 z"
     id="path699-7"
     style="font-size:476.25px;font-family:'Yuji Mai';-inkscape-font-specification:'Yuji Mai';fill:#320000;stroke-width:27.7812;fill-opacity:1" /><path
     d="m 819.06068,415.79323 q -8.5725,4.7625 -18.57375,9.525 -10.00125,4.7625 -21.9075,7.62 -2.8575,21.9075 -7.14375,49.53 -3.81,27.6225 -10.4775,54.76875 -6.6675,27.14625 -19.05,47.625 -7.62,13.335 -18.57375,22.38375 -10.4775,8.5725 -24.28875,11.90625 -9.525,1.905 -20.47875,-2.38125 -10.4775,-4.7625 -20.47875,-12.85875 -12.3825,-10.4775 -22.38375,-23.8125 -9.525,-13.335 -13.335,-23.33625 -0.47625,-1.905 1.905,-2.8575 1.905,-0.9525 1.42875,-2.38125 l -5.23875,-12.3825 q 10.4775,1.905 23.8125,11.43 13.335,9.04875 23.8125,17.145 15.71625,0 27.14625,-11.43 11.90625,-11.43 20.0025,-29.05125 7.62,-16.66875 11.90625,-36.195 4.7625,-19.52625 6.6675,-38.57625 1.905,-19.05 0.47625,-33.81375 -14.76375,-1.42875 -32.86125,0.47625 -17.62125,1.905 -34.29,3.81 -2.8575,0.47625 -5.715,0.9525 -2.38125,0 -5.23875,0.47625 3.33375,13.335 -2.38125,25.24125 -5.23875,11.90625 -10.00125,19.05 -1.42875,1.905 -1.905,2.8575 11.90625,6.6675 23.33625,13.335 11.90625,6.19125 20.0025,16.1925 8.5725,10.00125 9.525,27.14625 -21.43125,-0.9525 -36.195,-8.09625 -14.76375,-7.62 -30.00375,-14.2875 -5.715,10.95375 -13.81125,26.19375 -8.09625,15.24 -18.57375,30.48 -10.4775,14.76375 -23.33625,24.765 -12.85875,10.00125 -27.6225,10.95375 -8.09625,-0.9525 -13.81125,-4.28625 18.0975,-22.38375 34.76625,-48.5775 16.66875,-26.67 26.67,-53.34 -9.04875,-6.6675 -22.86,-13.335 -13.81125,-7.14375 -26.19375,-13.81125 7.14375,-8.09625 17.145,-9.04875 10.00125,-1.42875 20.0025,0.9525 10.4775,1.905 17.62125,3.81 4.28625,1.42875 5.715,1.905 3.81,-5.715 7.62,-16.1925 3.81,-10.4775 5.715,-18.0975 -7.62,-1.905 -13.81125,-0.47625 -6.19125,1.42875 -11.90625,3.81 -3.81,1.42875 -7.62,2.8575 -3.33375,0.9525 -7.14375,0.9525 -9.04875,0.47625 -15.24,-2.8575 -5.715,-3.33375 -10.95375,-7.62 -4.28625,-2.8575 -8.5725,-5.23875 -4.28625,-2.8575 -9.525,-3.81 -0.47625,-6.6675 -4.28625,-10.00125 -3.81,-3.33375 -4.28625,-10.95375 32.385,3.81 70.96125,0.9525 38.57625,-2.8575 76.67625,-6.6675 18.57375,-1.905 36.195,-3.33375 17.62125,-1.905 34.29,-2.8575 l 1.42875,-5.23875 q 26.67,1.905 44.7675,11.90625 18.57375,10.00125 30.48,26.19375 z m 40.48125,310.99125 q 0,8.09625 -6.19125,12.85875 -5.715,4.7625 -13.335,9.04875 -7.14375,4.28625 -11.90625,10.95375 -31.90875,7.14375 -65.24625,8.5725 -33.3375,1.905 -64.29375,-2.8575 -38.1,-6.19125 -69.05625,-23.33625 -30.95625,-16.66875 -47.625,-46.6725 -5.23875,-9.525 -9.525,-20.955 -3.81,-11.90625 -8.09625,-22.86 -4.7625,-11.43 -8.5725,-23.8125 -3.33375,-12.85875 -8.5725,-24.765 17.145,7.62 29.05125,20.0025 11.90625,12.3825 21.43125,27.6225 9.525,14.76375 18.57375,30.00375 9.04875,15.24 20.0025,29.05125 11.90625,4.7625 32.385,9.04875 20.47875,3.81 42.38625,3.81 19.52625,0 36.195,-4.28625 17.145,-4.7625 25.7175,-15.24 -3.33375,-12.3825 -9.04875,-22.38375 -5.23875,-10.4775 -11.90625,-19.52625 -6.19125,-6.6675 -11.90625,-13.335 -5.715,-7.14375 -8.09625,-13.81125 10.4775,0.47625 15.71625,5.715 5.715,4.7625 6.19125,11.43 6.6675,6.6675 18.57375,10.95375 11.90625,3.81 23.8125,10.00125 6.19125,3.33375 12.3825,8.5725 6.19125,5.23875 11.90625,7.62 0.9525,0 3.81,0 3.81,-0.47625 4.7625,0 5.715,3.33375 12.85875,10.95375 7.14375,7.14375 12.3825,14.76375 5.23875,7.62 5.23875,12.85875 z m -319.56375,21.43125 q -6.19125,8.09625 -14.76375,6.19125 -8.5725,-1.42875 -17.145,-8.09625 -10.4775,-8.09625 -19.05,-20.0025 -8.09625,-11.90625 -10.4775,-18.0975 12.85875,-10.95375 14.2875,-29.05125 1.42875,-18.0975 0.47625,-37.62375 -0.47625,-7.62 -0.9525,-14.76375 0,-7.62 0.47625,-14.76375 18.0975,4.7625 23.33625,21.43125 5.715,16.1925 7.14375,36.67125 0.9525,14.76375 1.42875,30.00375 0.9525,14.76375 3.81,27.6225 3.33375,12.3825 11.43,20.47875 z m 323.85,-107.6325 q -11.43,5.715 -26.67,3.33375 -14.76375,-2.38125 -28.575,-9.04875 -13.335,-6.6675 -20.955,-13.335 -0.9525,-0.9525 -0.9525,-3.33375 0,-2.8575 -0.9525,-3.33375 -10.00125,-8.5725 -21.43125,-14.2875 -11.43,-6.19125 -16.66875,-15.71625 19.52625,-5.23875 40.9575,-2.8575 21.9075,2.38125 39.52875,11.90625 13.81125,7.62 23.33625,19.52625 10.00125,11.43 12.3825,27.14625 z m -145.25625,30.48 q -1.905,10.00125 -13.335,11.43 -10.95375,1.42875 -21.9075,-2.38125 -11.43,-4.28625 -20.955,-13.81125 -9.04875,-10.00125 -16.66875,-21.9075 -7.62,-11.90625 -13.81125,-20.955 9.04875,-1.42875 21.9075,0.47625 12.85875,1.42875 26.19375,6.19125 13.335,4.28625 22.86,11.43 8.09625,5.715 12.3825,13.335 4.7625,7.14375 3.33375,16.1925 z"
     id="path1555"
     transform="rotate(180,660.33549,681.01881)"
     style="font-size:476.25px;font-family:'Yuji Mai';-inkscape-font-specification:'Yuji Mai';fill:#980000;stroke-width:27.7812;filter:url(#filter2149)"
     clip-path="url(#clipPath1280)" /><path
     d="m 807.132,477.393 c -1.202,3.414 1.81,7.071 7.385,8.187 5.575,1.116 13.711,-0.314 14.913,-3.73 1.202,-3.416 -4.532,-8.817 -10.106,-9.93 -5.574,-1.113 -10.99,2.059 -12.192,5.473 z"
     filter="url(#H)"
     transform="matrix(-1.1816,0,0,-1.1816,1461.6361,1227.9084)"
     id="path76"
     style="fill:#ffffff" /><path
     d="m 657.064,371.878 c -0.861,1.629 -5.931,0.888 -7.604,-1.111 -1.673,-1.999 0.048,-5.255 2.582,-4.886 2.534,0.369 5.883,4.367 5.022,5.996 z"
     filter="url(#J)"
     transform="matrix(-1.1816,0,0,-1.1816,1272.583,1199.6971)"
     id="path80"
     style="fill:#ffffff" /><style
     id="style2-5">.B{color-interpolation-filters:sRGB}</style><style
     id="style2-0">.B{color-interpolation-filters:sRGB}</style><path
     d="m 730.45106,992.01384 c 5.917,1.369 8.89,-2.704 5.918,-7.511 -2.972,-4.807 -11.891,-10.353 -17.811,-11.723 -5.92,-1.37 -8.836,1.434 -5.861,6.244 2.975,4.81 11.838,11.622 17.754,12.991 z"
     filter="url(#O)"
     id="path105"
     style="fill:#ffffff"
     transform="rotate(-10,507.39501,2072.8304)" /></svg>
