<?xml version="1.0" encoding="UTF-8" standalone="no"?>
<svg
   width="498.898"
   height="544.252"
   viewBox="0 0 1320 1440"
   version="1.1"
   id="svg84"
   sodipodi:docname="b+M.svg"
   xml:space="preserve"
   inkscape:version="1.2.2 (732a01da63, 2022-12-09)"
   xmlns:inkscape="http://www.inkscape.org/namespaces/inkscape"
   xmlns:sodipodi="http://sodipodi.sourceforge.net/DTD/sodipodi-0.dtd"
   xmlns="http://www.w3.org/2000/svg"
   xmlns:svg="http://www.w3.org/2000/svg"><sodipodi:namedview
     id="namedview86"
     pagecolor="#ffffff"
     bordercolor="#000000"
     borderopacity="0.25"
     inkscape:showpageshadow="2"
     inkscape:pageopacity="0.0"
     inkscape:pagecheckerboard="0"
     inkscape:deskcolor="#d1d1d1"
     showgrid="false"
     inkscape:zoom="2.8516202"
     inkscape:cx="216.89424"
     inkscape:cy="290.71192"
     inkscape:window-width="1920"
     inkscape:window-height="974"
     inkscape:window-x="-11"
     inkscape:window-y="-11"
     inkscape:window-maximized="1"
     inkscape:current-layer="svg84" /><style
     id="style2">.B{color-interpolation-filters:sRGB}</style><defs
     id="defs44"><filter
       id="B"
       x="-0.013769729"
       y="-0.011050687"
       width="1.0275395"
       height="1.0221014"
       class="B"><feGaussianBlur
         stdDeviation="2.441"
         id="feGaussianBlur4" /></filter><filter
       id="F"
       x="-0.048001912"
       y="-0.048002087"
       width="1.0960038"
       height="1.0960042"
       class="B"><feGaussianBlur
         stdDeviation="5.51"
         id="feGaussianBlur7" /></filter><filter
       id="H"
       x="-0.049260907"
       y="-0.046799666"
       width="1.0985218"
       height="1.0935993"
       class="B"><feGaussianBlur
         stdDeviation="7.818"
         id="feGaussianBlur10" /></filter><filter
       id="I"
       x="-0.10271054"
       y="-0.1862752"
       width="1.2054211"
       height="1.3725504"
       class="B"><feGaussianBlur
         stdDeviation="1.06"
         id="feGaussianBlur13" /></filter><filter
       id="J"
       x="-0.14238898"
       y="-0.14046583"
       width="1.284778"
       height="1.2809317"
       class="B"><feGaussianBlur
         stdDeviation="1.06"
         id="feGaussianBlur16" /></filter><filter
       id="K"
       x="-0.10842266"
       y="-0.099994685"
       width="1.2168453"
       height="1.1999894"
       class="B"><feGaussianBlur
         stdDeviation="1.06"
         id="feGaussianBlur19" /></filter><linearGradient
       id="A"
       x1="-1430.769"
       y1="-77.47"
       x2="-1409.955"
       y2="-77.47"
       spreadMethod="reflect"
       gradientUnits="userSpaceOnUse"><stop
         offset="0"
         stop-color="#ffd285"
         id="stop22" /><stop
         offset=".232"
         stop-color="#ffcd79"
         id="stop24" /><stop
         offset=".616"
         stop-color="#ffca73"
         id="stop26" /><stop
         offset=".808"
         stop-color="#ffd386"
         id="stop28" /><stop
         offset="1"
         stop-color="#ffc86e"
         id="stop30" /></linearGradient><linearGradient
       id="C"
       x1="-905.021"
       y1="-376.306"
       x2="-904.556"
       y2="184.159"
       gradientUnits="userSpaceOnUse"><stop
         offset="0"
         id="stop33" /><stop
         offset=".603"
         stop-color="#fff"
         id="stop35" /></linearGradient><clipPath
       id="E"><path
         d="M1808.815-1033.572a7.223 7.223 0 0 1-7.239-7.239v-120.827h-120.827a7.223 7.223 0 0 1-7.239-7.239v-4.879a7.223 7.223 0 0 1 7.239-7.239h107.142l-75.763-75.759a7.222 7.222 0 0 1 0-10.237l3.451-3.451a7.223 7.223 0 0 1 10.238 0l75.759 75.763v-107.143a7.223 7.223 0 0 1 7.239-7.239h4.878a7.223 7.223 0 0 1 7.239 7.239v107.143l75.759-75.763a7.223 7.223 0 0 1 10.238 0l3.451 3.451a7.222 7.222 0 0 1 0 10.237l-75.759 75.759h107.139a7.224 7.224 0 0 1 7.239 7.239v4.879a7.224 7.224 0 0 1-7.239 7.239h-120.827v120.827a7.223 7.223 0 0 1-7.239 7.239zm2.436-137.74h.01z"
         stroke-width="1.534"
         id="path38" /></clipPath><clipPath
       id="G"><path
         d="M586.231 322.641c23.104 5.434 40.666 33.065 26.558 41.784-7.629 4.715-4.836 10.003 7.715 14.601 28.309 10.371 46.031 39.234 38.041 61.955-5.068 14.41-36.563 26.808-71.509 28.151-26.545 1.02-31.384 4.068-31.492 19.839-.08 11.706 2.522 12.072 23.5 3.307 22.892-9.565 31.519-8.298 49.197 7.223 19.959 17.524 31.837 18.424 48.474 3.674 37.32-33.09 63.926-45.53 63.926-29.892 0 2.603-20.816 27.051-46.258 54.33-108.526 116.363-132.231 151.4-127.346 188.227 2.696 20.323 2.387 21.119-8.193 21.119-12.687 0-29.857-12.34-43.155-31.016-8.545-12-8.727-13.756-2.369-22.834 10.092-14.408 9.042-17.958-15.085-51.026-28.394-38.916-90.182-91.781-118-100.958-22.502-7.424-35.591-16.853-30.483-21.96 1.739-1.739 20.635-3.997 41.992-5.018l38.83-1.856 25.467 28.828c14.007 15.856 33.212 39.393 42.677 52.306 28.249 38.537 44.194 57.067 47.897 55.663 4.025-1.526 39.723-46.181 39.723-49.69 0-1.284-8.696-2.334-19.325-2.334-16.302 0-19.747-1.551-22.022-9.92-4.103-15.089 11.164-25.35 37.716-25.35 21.46 0 38.9-5.682 38.9-12.673 0-7.498-20.944-12.796-38.147-9.65-9.714 1.776-31.757 3.687-48.985 4.246-29.29.95-31.805.282-38.735-10.296-7.256-11.074-7.079-11.681 8.428-28.845 19.396-21.469 29.266-44.074 29.266-67.027 0-14.785 3.269-20.817 22.043-40.668 12.124-12.819 22.043-24.604 22.043-26.188 0-6.167-30.747-2.435-49.963 6.065-23.764 10.512-38.858 8.249-51.409-7.708-10.964-13.939-5.622-25.802 15.616-34.676 16.156-6.751 69.011-7.72 94.467-1.733zm-7.877 102.702c1.595 11.206 22.174 15.763 32.497 7.196 9.186-7.624 7.893-11.913-5.746-19.059-15.278-8.005-28.73-2.039-26.751 11.863z"
         stroke-width="4.409"
         id="path41" /></clipPath><filter
       id="C-2"
       x="-0.011867782"
       y="-0.01125585"
       width="1.0237356"
       height="1.0225117"
       class="B"><feGaussianBlur
         stdDeviation="2.441"
         id="feGaussianBlur4-0" /></filter><filter
       id="G-0"
       x="-0.026998005"
       y="-0.026998101"
       width="1.053996"
       height="1.0539962"
       class="B"><feGaussianBlur
         stdDeviation="3.099"
         id="feGaussianBlur7-2" /></filter><filter
       id="I-4"
       x="-0.049699338"
       y="-0.046415157"
       width="1.0993987"
       height="1.0928303"
       class="B"><feGaussianBlur
         stdDeviation="7.576"
         id="feGaussianBlur10-9" /></filter><filter
       id="J-4"
       x="-0.078836226"
       y="-0.10676253"
       width="1.1576725"
       height="1.2135251"
       class="B"><feGaussianBlur
         stdDeviation=".56"
         id="feGaussianBlur13-0" /></filter><filter
       id="K-2"
       x="-0.044639214"
       y="-0.074076117"
       width="1.0892784"
       height="1.1481522"
       class="B"><feGaussianBlur
         stdDeviation=".56"
         id="feGaussianBlur16-7" /></filter><filter
       id="L"
       x="-0.068525543"
       y="-0.056520636"
       width="1.1370511"
       height="1.1130413"
       class="B"><feGaussianBlur
         stdDeviation=".56"
         id="feGaussianBlur19-8" /></filter><linearGradient
       id="B-8"
       x1="-1215.571"
       y1="-296.329"
       x2="-1215.572"
       y2="165.415"
       gradientUnits="userSpaceOnUse"><stop
         offset=".6"
         stop-color="#fff"
         id="stop33-4" /><stop
         offset="1"
         id="stop35-3" /></linearGradient><clipPath
       id="F-4"><path
         d="M1799.132 1043.253a7.22 7.22 0 0 0-7.237 7.237v107.141l-75.759-75.759a7.222 7.222 0 0 0-10.237 0l-3.45 3.45a7.222 7.222 0 0 0 0 10.237l75.759 75.759h-107.141a7.223 7.223 0 0 0-7.237 7.24v4.876c0 4.01 3.227 7.24 7.237 7.24h120.828v120.828a7.22 7.22 0 0 0 7.237 7.237h4.88c4.01 0 7.24-3.227 7.24-7.237v-120.828h120.825c4.01 0 7.24-3.23 7.24-7.24v-4.876c0-4.01-3.23-7.24-7.24-7.24h-107.138l75.759-75.759a7.222 7.222 0 0 0 0-10.237l-3.45-3.45a7.222 7.222 0 0 0-10.237 0l-75.759 75.759V1050.49c0-4.01-3.23-7.237-7.24-7.237zm2.438 137.74h.01v.01h-.01z"
         stroke-width="1.534"
         id="path38-7" /></clipPath><clipPath
       id="H-7"><path
         d="M-341.016 786.672c-22.298-5.244-39.247-31.912-25.632-40.327 7.363-4.551 4.667-9.654-7.446-14.091-27.321-10.009-44.425-37.865-36.714-59.793 4.891-13.907 35.287-25.873 69.015-27.168 25.619-.984 30.29-3.926 30.393-19.147.077-11.297-2.434-11.651-22.68-3.191-22.093 9.231-30.42 8.009-47.481-6.971-19.263-16.913-30.726-17.782-46.783-3.545-36.018 31.935-61.696 43.942-61.696 28.849 0-2.512 20.09-26.108 44.644-52.435 104.74-112.303 127.618-146.119 122.903-181.66-2.602-19.614-2.304-20.382 7.908-20.382 12.245 0 28.815 11.909 41.65 29.934 8.247 11.582 8.423 13.276 2.286 22.037-9.74 13.905-8.727 17.331 14.558 49.246 27.404 37.559 87.036 88.579 113.883 97.436 21.717 7.165 34.349 16.265 29.42 21.194-1.678 1.678-19.915 3.857-40.527 4.843l-37.476 1.792-24.579-27.823c-13.518-15.302-32.053-38.019-41.188-50.481-27.264-37.193-42.652-55.076-46.226-53.721-3.884 1.473-38.337 44.57-38.337 47.957 0 1.239 8.393 2.253 18.651 2.253 15.734 0 19.058 1.497 21.254 9.573 3.959 14.562-10.775 24.466-36.401 24.466-20.711 0-37.543 5.484-37.543 12.231 0 7.236 20.213 12.349 36.816 9.313 9.375-1.714 30.649-3.558 47.276-4.097 28.268-.917 30.695-.272 37.384 9.937 7.003 10.688 6.832 11.273-8.134 27.838-18.72 20.72-28.245 42.536-28.245 64.688 0 14.27-3.155 20.091-21.274 39.249-11.701 12.372-21.274 23.745-21.274 25.274 0 5.952 29.675 2.35 48.22-5.854 22.935-10.145 37.502-7.961 49.616 7.439 10.582 13.453 5.426 24.902-15.072 33.466-15.593 6.515-66.604 7.451-91.171 1.672zm7.602-99.119c-1.54-10.816-21.4-15.213-31.363-6.945-8.866 7.358-7.618 11.497 5.546 18.394 14.745 7.725 27.728 1.968 25.818-11.45z"
         stroke-width="4.255"
         id="path41-7" /></clipPath><path
       id="E-3"
       d="m-1215.571-296.329-149.881 40.669-79.82 472.51 6.639 36.814 10.024 8.338h426.077l10.024-8.338 6.639-36.814-79.82-472.51z" /><filter
       inkscape:menu-tooltip="In and out glow with a possible offset and colorizable flood"
       inkscape:menu="Shadows and Glows"
       inkscape:label="Cutout Glow"
       style="color-interpolation-filters:sRGB;"
       id="filter1892"
       x="-0.026674963"
       y="-0.043754144"
       width="1.0903985"
       height="1.0620698"><feOffset
         dy="-10"
         dx="10"
         id="feOffset1882" /><feGaussianBlur
         stdDeviation="3"
         result="blur"
         id="feGaussianBlur1884" /><feFlood
         flood-color="rgb(0,0,0)"
         flood-opacity="0"
         result="flood"
         id="feFlood1886" /><feComposite
         in="flood"
         in2="SourceGraphic"
         operator="in"
         result="composite"
         id="feComposite1888" /><feBlend
         in="blur"
         in2="composite"
         mode="normal"
         id="feBlend1890" /></filter><filter
       inkscape:menu-tooltip="In and out glow with a possible offset and colorizable flood"
       inkscape:menu="Shadows and Glows"
       inkscape:label="Cutout Glow"
       style="color-interpolation-filters:sRGB"
       id="filter1892-9"
       x="-0.056313813"
       y="-0.018315689"
       width="1.0829888"
       height="1.0569821"><feOffset
         dy="8"
         dx="-8"
         id="feOffset1882-3" /><feGaussianBlur
         stdDeviation="3"
         result="blur"
         id="feGaussianBlur1884-6" /><feFlood
         flood-color="rgb(0,0,0)"
         flood-opacity="1"
         result="flood"
         id="feFlood1886-5" /><feComposite
         in="flood"
         in2="SourceGraphic"
         operator="in"
         result="composite"
         id="feComposite1888-0" /><feBlend
         in="blur"
         in2="composite"
         mode="normal"
         id="feBlend1890-2" /></filter><filter
       id="K-3"
       x="-0.044639214"
       y="-0.074076117"
       width="1.0892784"
       height="1.1481522"
       class="B"><feGaussianBlur
         stdDeviation=".56"
         id="feGaussianBlur16-3" /></filter><filter
       id="K-3-4"
       x="-0.044639214"
       y="-0.074076117"
       width="1.0892784"
       height="1.1481522"
       class="B"><feGaussianBlur
         stdDeviation=".56"
         id="feGaussianBlur16-3-9" /></filter><clipPath
       clipPathUnits="userSpaceOnUse"
       id="clipPath2087"><path
         d="m 619.86499,786.672 c -22.29799,-5.24402 -51.71247,-27.97555 -23.66377,-51.48033 6.63445,-5.55966 40.75132,-20.80733 28.63833,-25.24434 -27.32102,-10.00899 -39.17639,-30.64815 -31.4654,-52.57612 4.89101,-13.907 35.28702,-25.87301 69.015,-27.16802 25.61901,-0.98398 -13.01114,11.1638 -12.90814,-4.05719 0.077,-11.29699 -2.43401,-11.65101 -22.68002,-3.19101 -22.09299,9.23102 -30.41998,8.00901 -47.481,-6.971 -8.06317,-20.92928 2.04801,-27.17659 4.8564,-41.58687 -15.1871,-0.1233 -27.9021,1.64999 -37.1949,-5.35229 -23.21032,-24.16721 -0.318,-30.2027 12.5653,-29.70618 12.41938,-2.28695 71.42765,-0.82542 82.87194,0.2077 2.92491,-6.54881 4.55136,-23.68925 5.32296,-27.22628 -27.53213,-0.69453 -91.36696,15.38655 -90.70939,-11.715 4.36893,-11.79232 13.10957,-19.44774 28.11593,-19.36787 38.6727,1.78038 52.70302,-1.05799 63.83706,-3.16129 0.46389,-16.95336 4.10434,-39.32651 -8.74162,-53.80469 -2.60199,-19.61401 -4.15967,-26.87684 6.05234,-26.87684 12.24499,0 28.81499,11.90899 41.64997,29.93399 8.24701,11.582 8.42301,13.27602 2.286,22.03701 -7.42039,12.97717 -7.79917,17.50453 -3.53477,31.32676 20.90916,1.83737 12.77918,2.75428 38.23441,0.9412 27.74793,-21.13396 55.41826,8.20663 55.86331,15.16305 0.64156,10.02852 -18.97215,12.20753 -39.58416,13.19352 -31.15566,2.52066 -21.32057,-0.67199 -54.41345,1.50381 -2.14169,5.72815 -2.4793,22.34601 -4.03709,28.4154 30.45253,6.53332 59.9602,3.72133 71.49449,2.68697 30.091,-20.98288 84.2365,29.86335 28.58756,31.9089 -26.42213,2.97338 -90.07903,-7.59619 -160.04219,-4.34877 -14.89294,19.72587 -5.74296,27.6305 -2.11875,24.79144 9.375,-1.71402 32.50465,-11.4446 49.13165,-11.9836 28.26799,-0.917 30.69501,-0.272 37.38399,9.937 7.00302,10.688 6.83202,11.27299 -8.134,27.83799 -18.71998,20.71999 15.05616,27.4462 15.05616,49.59819 0,14.27001 -3.155,20.091 -21.274,39.24899 -11.70098,12.37202 -64.57513,38.83481 -64.57513,40.36482 0,5.95198 29.67499,2.35 48.21997,-5.85401 22.935,-10.145 37.502,-7.96099 49.61602,7.43899 10.58198,13.453 5.426,24.90202 -15.07201,33.46602 -15.593,6.515 -66.60398,7.45098 -91.17199,1.67198 z m 50.90317,-114.20881 c -1.54001,-10.816 -21.4,-15.213 -31.36301,-6.94499 -8.866,7.35798 -7.61799,11.49699 5.54601,18.39399 14.74501,7.72501 27.728,1.96799 25.818,-11.45 z"
         fill="#340000"
         id="path2089"
         style="fill:#980000;fill-opacity:1;stroke-width:1"
         sodipodi:nodetypes="cscccccccccccccccsscccsccccccccssssscccccccccc" /></clipPath></defs><path
     d="m-2655.488 204.013 26.181 28.949 146.334 38.515 166.935-43.817 86.005-436.932-45.894-49.39z"
     transform="matrix(-2.0051 0 0 2.0051 -4364.078 706.823)"
     opacity=".5"
     filter="url(#B)"
     id="path46" /><path
     d="m-1220.686-332.674-149.881 42.384-8.809 28.459-81.338 481.636 10.349 7.986h459.359l10.348-7.986-81.338-481.636-8.809-28.459z"
     fill="url(#A)"
     transform="rotate(180 -893.82 266.77) scale(2.0051)"
     id="path48" /><path
     d="m-905.021-376.306-149.881 44.065-8.809 26.778-81.358 481.64 10.349 7.986 459.383-.004 10.349-7.986-81.343-481.636-8.809-28.601z"
     opacity=".25"
     fill="url(#C)"
     transform="rotate(180 -577.344 223.027) scale(2.0051)"
     style="mix-blend-mode:overlay"
     id="path50" /><path
     d="m199.419 97.854.043-21.064-20.75 16.013 20.707 5.052zm778.776 960.694-17.664-13.248L660 1126.847v16.402z"
     opacity=".4"
     id="path52" /><path
     d="m341.805 1058.548 17.664-13.248L660 1126.847v16.402z"
     opacity=".6"
     id="path54" /><path
     d="m359.468 1115.896-17.663-57.348L660 1143.25l318.195-84.702-17.663 57.348L660 1200.598l-300.532-84.702z"
     opacity=".7"
     id="path56" /><g
     fill="#fff"
     id="g64"><path
       d="m978.195 1058.548-17.664-13.248 160.05-947.446 20.707-5.052z"
       opacity=".3"
       id="path58" /><path
       d="m1120.582 97.854-.043-21.064 20.75 16.013-20.707 5.052z"
       opacity=".8"
       id="path60" /><path
       d="M1120.582 97.854H199.419l.043-21.064h921.077l.043 21.064z"
       opacity=".3"
       id="path62" /></g><path
     d="m341.805 1058.548 17.664-13.248-160.05-947.446-20.707-5.052z"
     opacity=".6"
     id="path66" /><path
     d="M656.441 150.744a10.405 10.405 0 0 0-10.428 10.428v174.064H471.949a10.405 10.405 0 0 0-10.428 10.428v7.028a10.405 10.405 0 0 0 10.428 10.428h154.349L517.154 472.259a10.406 10.406 0 0 0 0 14.748l4.971 4.971a10.406 10.406 0 0 0 14.748 0l109.139-109.144v154.35a10.405 10.405 0 0 0 10.428 10.428h7.028a10.405 10.405 0 0 0 10.428-10.428v-154.35l109.139 109.144a10.406 10.406 0 0 0 14.748 0l4.971-4.971a10.406 10.406 0 0 0 0-14.748L693.616 363.12H847.96a10.405 10.405 0 0 0 10.428-10.428v-7.028a10.405 10.405 0 0 0-10.428-10.428H673.897V161.172a10.405 10.405 0 0 0-10.428-10.428zm3.509 198.429h.014z"
     fill="#350000"
     id="path68" /><path
     d="M1799.134-1043.253a7.223 7.223 0 0 1-7.239-7.239v-120.827h-120.827a7.223 7.223 0 0 1-7.239-7.239v-4.878a7.223 7.223 0 0 1 7.239-7.239h107.143l-75.763-75.759a7.223 7.223 0 0 1 0-10.238l3.451-3.451a7.222 7.222 0 0 1 10.237 0l75.759 75.763v-107.142a7.223 7.223 0 0 1 7.239-7.239h4.879a7.224 7.224 0 0 1 7.239 7.239v107.142l75.759-75.763a7.222 7.222 0 0 1 10.237 0l3.451 3.451a7.223 7.223 0 0 1 0 10.238l-75.759 75.759h107.139a7.224 7.224 0 0 1 7.239 7.239v4.878a7.223 7.223 0 0 1-7.239 7.239h-120.827v120.827a7.223 7.223 0 0 1-7.239 7.239zm2.436-137.74h.01v-.01z"
     transform="matrix(1.4406 0 0 -1.4406 -1949.339 -1338.22)"
     clip-path="url(#E)"
     fill="#9a0000"
     filter="url(#F)"
     id="path70" /><path
     d="m 701.70682,576.21459 c 22.298,5.244 51.71249,27.97553 23.66377,51.48033 -6.63444,5.55965 -40.75131,20.80733 -28.63831,25.24433 27.321,10.009 39.17638,30.64814 31.46538,52.57613 -4.891,13.907 -35.287,25.873 -69.015,27.168 -25.61899,0.984 13.01116,-11.1638 12.90816,4.0572 -0.077,11.297 2.434,11.651 22.68,3.191 22.093,-9.231 30.42,-8.009 47.481,6.971 8.06317,20.92928 -2.04801,27.1766 -4.85638,41.58689 15.18708,0.12319 27.90209,-1.65001 37.19488,5.35227 23.21032,24.16723 0.318,30.20272 -12.56529,29.70619 -12.41938,2.28696 -71.42765,0.82541 -82.87193,-0.20765 -2.92492,6.54881 -4.55136,23.68925 -5.32296,27.22628 27.53212,0.69453 91.36696,-15.38655 90.70938,11.71502 -4.36892,11.79231 -13.10957,19.44772 -28.11593,19.36785 -38.6727,-1.78037 -52.70303,1.05798 -63.83705,3.16129 -0.46391,16.95336 -4.10434,39.32651 8.74161,53.80469 2.602,19.614 4.15967,26.87684 -6.05233,26.87684 -12.245,0 -28.81499,-11.909 -41.64999,-29.934 -8.247,-11.582 -8.423,-13.276 -2.286,-22.037 7.42041,-12.97717 7.79917,-17.50453 3.53478,-31.32676 -20.90916,-1.83736 -12.77917,-2.75429 -38.23442,-0.94119 -27.74792,21.13396 -55.41824,-8.20664 -55.86329,-15.16307 -0.64158,-10.02851 18.97214,-12.20751 39.58414,-13.19351 31.15567,-2.52065 21.32057,0.672 54.41346,-1.50382 2.14169,-5.72813 2.4793,-22.34599 4.03708,-28.41539 -30.45251,-6.53332 -59.9602,-3.72134 -71.49449,-2.68696 -30.09099,20.98286 -84.23649,-29.86336 -28.58756,-31.9089 26.42214,-2.97338 90.07904,7.59618 160.04221,4.34876 14.89293,-19.72586 5.74294,-27.6305 2.11875,-24.79143 -9.375,1.714 -32.50467,11.4446 -49.13166,11.9836 -28.268,0.917 -30.695,0.272 -37.384,-9.937 -7.003,-10.688 -6.832,-11.273 8.134,-27.838 18.72,-20.72 -15.05616,-27.4462 -15.05616,-49.59819 0,-14.27 3.155,-20.091 21.274,-39.249 11.701,-12.372 64.57515,-38.8348 64.57515,-40.3648 0,-5.952 -29.675,-2.35 -48.21999,5.854 -22.935,10.145 -37.502,7.961 -49.616,-7.439 -10.582,-13.453 -5.426,-24.902 15.072,-33.466 15.593,-6.515 66.60399,-7.451 91.17199,-1.672 z m -50.90315,114.2088 c 1.54,10.81599 21.39999,15.21299 31.36299,6.945 8.866,-7.358 7.618,-11.497 -5.546,-18.394 -14.745,-7.725 -27.72799,-1.968 -25.81799,11.45 z"
     fill="#340000"
     id="path3394-8"
     style="fill:#320000;fill-opacity:1"
     sodipodi:nodetypes="cscccccccccccccccsscccsccccccccssssscccccccccc" /><path
     d="m 619.865,786.672 c -22.298,-5.244 -51.71249,-27.97553 -23.66377,-51.48033 6.63444,-5.55965 40.75131,-20.80733 28.63831,-25.24433 -27.321,-10.009 -39.17638,-30.64814 -31.46538,-52.57614 4.891,-13.907 35.287,-25.873 69.015,-27.168 25.619,-0.984 -13.01116,11.1638 -12.90816,-4.0572 0.077,-11.297 -2.434,-11.651 -22.68,-3.191 -22.093,9.231 -30.42,8.009 -47.481,-6.971 -8.06317,-20.92928 2.04801,-27.1766 4.85638,-41.58689 -15.18708,-0.12319 -27.90209,1.65001 -37.19488,-5.35227 -23.21032,-24.16723 -0.318,-30.20272 12.56529,-29.70619 12.41938,-2.28696 71.42765,-0.82541 82.87193,0.20765 2.92492,-6.54881 4.55136,-23.68925 5.32296,-27.22628 -27.53212,-0.69453 -91.36696,15.38655 -90.70938,-11.71502 4.36892,-11.79231 13.10957,-19.44772 28.11593,-19.36785 38.6727,1.78037 52.70303,-1.05798 63.83705,-3.16129 0.46391,-16.95336 4.10434,-39.32651 -8.74161,-53.80469 -2.602,-19.614 -4.15967,-26.87684 6.05233,-26.87684 12.245,0 28.815,11.909 41.65,29.934 8.247,11.582 8.423,13.276 2.286,22.037 -7.42041,12.97717 -7.79917,17.50453 -3.53478,31.32676 20.90916,1.83736 12.77917,2.75429 38.23442,0.94119 27.74792,-21.13396 55.41824,8.20664 55.86329,15.16307 0.64158,10.02851 -18.97214,12.20751 -39.58414,13.19351 -31.15567,2.52065 -21.32057,-0.672 -54.41346,1.50382 -2.14169,5.72813 -2.4793,22.34599 -4.03708,28.41539 30.45251,6.53332 59.9602,3.72134 71.49449,2.68696 30.09099,-20.98286 84.23649,29.86336 28.58756,31.9089 -26.42214,2.97338 -90.07904,-7.59618 -160.04222,-4.34876 -14.89293,19.72586 -5.74294,27.6305 -2.11875,24.79143 9.375,-1.714 32.50467,-11.4446 49.13167,-11.9836 28.268,-0.917 30.695,-0.272 37.384,9.937 7.003,10.688 6.832,11.273 -8.134,27.838 -18.72,20.72 15.05616,27.4462 15.05616,49.5982 0,14.27 -3.155,20.091 -21.274,39.249 -11.701,12.372 -64.57516,38.8348 -64.57516,40.3648 0,5.952 29.675,2.35 48.22,-5.854 22.935,-10.145 37.502,-7.961 49.616,7.439 10.582,13.453 5.426,24.902 -15.072,33.466 -15.593,6.515 -66.604,7.451 -91.172,1.672 z m 50.90316,-114.2088 c -1.54,-10.816 -21.4,-15.213 -31.363,-6.945 -8.866,7.358 -7.618,11.497 5.546,18.394 14.745,7.725 27.728,1.968 25.818,-11.45 z"
     fill="#340000"
     id="path77"
     style="fill:#980000;fill-opacity:1;filter:url(#filter1892)"
     sodipodi:nodetypes="cscccccccccccccccsscccsccccccccssssscccccccccc"
     clip-path="url(#clipPath2087)"
     transform="rotate(180,660.78591,681.44329)" /><path
     d="m 648.33699,946.75102 c 7.173,5.644 13.612,1.93 9.659,-5.572 -3.953,-7.502 -18.299,-18.793 -21.519,-16.935 -3.22,1.858 4.687,16.863 11.86,22.507 z"
     filter="url(#K)"
     id="path76"
     style="fill:#ffffff" /><path
     d="m 620.82749,771.74547 c 5.212,2.999 13.415,-2.081 12.306,-7.62 -1.109,-5.539 -11.534,-11.54 -15.637,-8.999 -4.103,2.541 -1.881,13.621 3.331,16.62 z"
     filter="url(#J)"
     id="path78"
     style="fill:#ffffff" /><path
     d="m 610.39033,619.20639 c 7.131,3.176 18.9,1.599 17.654,-2.366 -1.246,-3.965 -15.507,-10.32 -21.392,-9.531 -5.885,0.789 -3.392,8.721 3.739,11.897 z"
     filter="url(#I)"
     id="path80"
     style="fill:#ffffff" /><style
     id="style2-9">.B{color-interpolation-filters:sRGB}</style></svg>
