<?xml version="1.0" encoding="UTF-8" standalone="no"?>
<svg
   width="498.898"
   height="544.252"
   viewBox="0 0 1320 1440"
   version="1.1"
   id="svg86"
   sodipodi:docname="b+O.svg"
   xml:space="preserve"
   inkscape:version="1.2.2 (732a01da63, 2022-12-09)"
   xmlns:inkscape="http://www.inkscape.org/namespaces/inkscape"
   xmlns:sodipodi="http://sodipodi.sourceforge.net/DTD/sodipodi-0.dtd"
   xmlns="http://www.w3.org/2000/svg"
   xmlns:svg="http://www.w3.org/2000/svg"><sodipodi:namedview
     id="namedview88"
     pagecolor="#ffffff"
     bordercolor="#000000"
     borderopacity="0.25"
     inkscape:showpageshadow="2"
     inkscape:pageopacity="0.0"
     inkscape:pagecheckerboard="0"
     inkscape:deskcolor="#d1d1d1"
     showgrid="false"
     inkscape:zoom="2.0164"
     inkscape:cx="238.79191"
     inkscape:cy="254.90974"
     inkscape:window-width="1920"
     inkscape:window-height="974"
     inkscape:window-x="-11"
     inkscape:window-y="-11"
     inkscape:window-maximized="1"
     inkscape:current-layer="svg86" /><style
     id="style2">.B{color-interpolation-filters:sRGB}</style><defs
     id="defs44"><filter
       id="B"
       x="-0.015517748"
       y="-0.012341658"
       width="1.0310355"
       height="1.0246833"
       class="B"><feGaussianBlur
         stdDeviation="2.441"
         id="feGaussianBlur4" /></filter><filter
       id="E"
       x="-0.048001912"
       y="-0.048002087"
       width="1.0960038"
       height="1.0960042"
       class="B"><feGaussianBlur
         stdDeviation="5.51"
         id="feGaussianBlur7" /></filter><filter
       id="G"
       x="-0.058837609"
       y="-0.040531089"
       width="1.1176752"
       height="1.0810622"
       class="B"><feGaussianBlur
         stdDeviation="5.244"
         id="feGaussianBlur10" /></filter><filter
       id="H"
       x="-0.1013633"
       y="-0.13564311"
       width="1.2027266"
       height="1.2712862"
       class="B"><feGaussianBlur
         stdDeviation="1.02"
         id="feGaussianBlur13" /></filter><filter
       id="I"
       x="-0.21339126"
       y="-0.35217522"
       width="1.4267825"
       height="1.7043504"
       class="B"><feGaussianBlur
         stdDeviation="1.02"
         id="feGaussianBlur16" /></filter><filter
       id="J"
       x="-0.19549825"
       y="-0.26835652"
       width="1.3909965"
       height="1.536713"
       class="B"><feGaussianBlur
         stdDeviation="1.02"
         id="feGaussianBlur19" /></filter><linearGradient
       id="A"
       x1="1091.453"
       y1="563.806"
       x2="1049.718"
       y2="563.806"
       spreadMethod="reflect"
       gradientUnits="userSpaceOnUse"><stop
         offset="0"
         stop-color="#ffd285"
         id="stop22" /><stop
         offset=".232"
         stop-color="#ffcd79"
         id="stop24" /><stop
         offset=".616"
         stop-color="#ffca73"
         id="stop26" /><stop
         offset=".808"
         stop-color="#ffd386"
         id="stop28" /><stop
         offset="1"
         stop-color="#ffc86e"
         id="stop30" /></linearGradient><linearGradient
       id="C"
       x1="659.982"
       y1="1050.815"
       x2="659.982"
       y2="76.793"
       gradientUnits="userSpaceOnUse"><stop
         offset="0"
         id="stop33" /><stop
         offset=".6"
         stop-color="#fff"
         id="stop35" /></linearGradient><clipPath
       id="D"><path
         d="M1808.815-1033.572a7.223 7.223 0 0 1-7.239-7.239v-120.827h-120.827a7.223 7.223 0 0 1-7.239-7.239v-4.879a7.223 7.223 0 0 1 7.239-7.239h107.142l-75.763-75.759a7.222 7.222 0 0 1 0-10.237l3.451-3.451a7.223 7.223 0 0 1 10.238 0l75.759 75.763v-107.143a7.223 7.223 0 0 1 7.239-7.239h4.878a7.223 7.223 0 0 1 7.239 7.239v107.143l75.759-75.763a7.223 7.223 0 0 1 10.238 0l3.451 3.451a7.222 7.222 0 0 1 0 10.237l-75.759 75.759h107.139a7.224 7.224 0 0 1 7.239 7.239v4.879a7.224 7.224 0 0 1-7.239 7.239h-120.827v120.827a7.223 7.223 0 0 1-7.239 7.239zm2.436-137.74h.01z"
         stroke-width="1.534"
         id="path38" /></clipPath><clipPath
       id="F"><path
         d="M738.067 578.209c7.973 2.998 22.95 14.691 33.282 25.986 17.462 19.09 18.785 22.287 18.785 45.41 0 20.195-2.247 27.778-11.944 40.304-18.296 23.635-33.678 36.472-64.227 53.599l-27.969 15.681 3.89 22.661c2.14 12.463 7.166 35.78 11.169 51.814 6.915 27.698 8.135 23.348 18.703 27.267 17.846 6.617 18.377 7.95-.909 25.017-16.894 14.95-39.902 25.452-45.384 20.716-1.477-1.276-2.956-19.428-3.286-40.336s-1.879-50.807-3.443-66.441l-2.843-28.425-27.544 11.404c-32.44 13.432-39.02 14.203-39.02 4.575 0-4.207 10.992-13.851 26.694-23.42 37.695-22.971 99.633-74.246 106.176-87.896 8.639-18.022 9.077-37.902-5.847-47.479-16.612-10.661-50.154-15.821-98.518 3.322-52.495 20.778-74.412 8.137-74.412-17.576 0-17.719 21.453-26.314 89.863-36.002 50.743-7.186 78.011-7.237 96.782-.18z"
         stroke-width="4.267"
         id="path41" /></clipPath><filter
       id="C-9"
       x="-0.012394769"
       y="-0.012013239"
       width="1.0247895"
       height="1.0240265"><feGaussianBlur
         stdDeviation="2.441"
         id="feGaussianBlur4-3" /></filter><filter
       id="E-5"
       x="-0.026998005"
       y="-0.026998101"
       width="1.053996"
       height="1.0539962"
       class="B"><feGaussianBlur
         stdDeviation="3.099"
         id="feGaussianBlur7-1" /></filter><filter
       id="G-6"
       x="-0.058025685"
       y="-0.04092232"
       width="1.1160514"
       height="1.0818446"
       class="B"><feGaussianBlur
         stdDeviation="3.543"
         id="feGaussianBlur10-4" /></filter><filter
       id="H-1"
       x="-0.093793037"
       y="-0.15286111"
       width="1.1875861"
       height="1.3057222"
       class="B"><feGaussianBlur
         stdDeviation=".9"
         id="feGaussianBlur13-4" /></filter><filter
       id="I-79"
       x="-0.065162517"
       y="-0.067338683"
       width="1.130325"
       height="1.1346774"
       class="B"><feGaussianBlur
         stdDeviation=".9"
         id="feGaussianBlur16-0" /></filter><linearGradient
       id="A-2"
       x1="228.547"
       y1="805.748"
       x2="270.281"
       y2="805.748"
       spreadMethod="reflect"
       gradientUnits="userSpaceOnUse"><stop
         offset="0"
         stop-color="#ffd285"
         id="stop19" /><stop
         offset=".232"
         stop-color="#ffcd79"
         id="stop21" /><stop
         offset=".616"
         stop-color="#ffca73"
         id="stop23" /><stop
         offset=".808"
         stop-color="#ffd386"
         id="stop25" /><stop
         offset="1"
         stop-color="#ffc86e"
         id="stop27" /></linearGradient><linearGradient
       id="B-0"
       x1="660.031"
       y1="318.739"
       x2="660.029"
       y2="1292.759"
       gradientUnits="userSpaceOnUse"><stop
         offset=".604"
         stop-color="#fff"
         id="stop30-8" /><stop
         offset="1"
         id="stop32" /></linearGradient><clipPath
       id="D-7"><path
         d="M1799.132 1043.253a7.22 7.22 0 0 0-7.237 7.237v107.141l-75.759-75.759a7.222 7.222 0 0 0-10.237 0l-3.45 3.45a7.222 7.222 0 0 0 0 10.237l75.759 75.759h-107.141a7.223 7.223 0 0 0-7.237 7.24v4.876c0 4.01 3.227 7.24 7.237 7.24h120.828v120.828a7.22 7.22 0 0 0 7.237 7.237h4.88c4.01 0 7.24-3.227 7.24-7.237v-120.828h120.825c4.01 0 7.24-3.23 7.24-7.24v-4.876c0-4.01-3.23-7.24-7.24-7.24h-107.138l75.759-75.759a7.222 7.222 0 0 0 0-10.237l-3.45-3.45a7.222 7.222 0 0 0-10.237 0l-75.759 75.759V1050.49c0-4.01-3.23-7.237-7.24-7.237zm2.438 137.74h.01v.01h-.01z"
         stroke-width="1.534"
         id="path35" /></clipPath><clipPath
       id="F-1"><path
         d="M982.397 347.79c-5.318-1.999-15.307-9.799-22.198-17.332-11.647-12.733-12.529-14.865-12.529-30.288 0-13.47 1.499-18.527 7.967-26.882 12.203-15.764 22.463-24.326 42.838-35.749l18.655-10.459-2.595-15.114c-1.427-8.313-4.779-23.864-7.45-34.559-4.612-18.474-5.426-15.573-12.474-18.186-11.903-4.414-12.257-5.303.606-16.686 11.268-9.971 26.614-16.976 30.27-13.817.985.851 1.971 12.958 2.191 26.904s1.253 33.888 2.296 44.315l1.896 18.959 18.371-7.607c21.637-8.959 26.026-9.473 26.026-3.051 0 2.806-7.331 9.239-17.804 15.621-25.142 15.321-66.454 49.521-70.818 58.625-5.762 12.021-6.054 25.28 3.9 31.668 11.08 7.11 33.452 10.552 65.71-2.216 35.013-13.859 49.631-5.427 49.631 11.723 0 11.818-14.309 17.551-59.937 24.013-33.845 4.793-52.032 4.827-64.552.12z"
         stroke-width="2.846"
         id="path38-2" /></clipPath><filter
       inkscape:menu-tooltip="In and out glow with a possible offset and colorizable flood"
       inkscape:menu="Shadows and Glows"
       inkscape:label="Cutout Glow"
       style="color-interpolation-filters:sRGB;"
       id="filter1086"
       x="-0.018855751"
       y="-0.052022986"
       width="1.0639"
       height="1.0738001"><feOffset
         dy="-10"
         dx="10"
         id="feOffset1076" /><feGaussianBlur
         stdDeviation="3"
         result="blur"
         id="feGaussianBlur1078" /><feFlood
         flood-color="rgb(0,0,0)"
         flood-opacity="0"
         result="flood"
         id="feFlood1080" /><feComposite
         in="flood"
         in2="SourceGraphic"
         operator="in"
         result="composite"
         id="feComposite1082" /><feBlend
         in="blur"
         in2="composite"
         mode="normal"
         id="feBlend1084" /></filter><filter
       inkscape:menu-tooltip="In and out glow with a possible offset and colorizable flood"
       inkscape:menu="Shadows and Glows"
       inkscape:label="Cutout Glow"
       style="color-interpolation-filters:sRGB"
       id="filter1086-9"
       x="-0.045044293"
       y="-0.021777064"
       width="1.0639"
       height="1.0738001"><feOffset
         dy="10"
         dx="-10"
         id="feOffset1076-9" /><feGaussianBlur
         stdDeviation="3"
         result="blur"
         id="feGaussianBlur1078-4" /><feFlood
         flood-color="rgb(0,0,0)"
         flood-opacity="1"
         result="flood"
         id="feFlood1080-9" /><feComposite
         in="flood"
         in2="SourceGraphic"
         operator="in"
         result="composite"
         id="feComposite1082-2" /><feBlend
         in="blur"
         in2="composite"
         mode="normal"
         id="feBlend1084-9" /></filter><filter
       id="C-8"
       x="-0.012394769"
       y="-0.012013239"
       width="1.0247895"
       height="1.0240265"><feGaussianBlur
         stdDeviation="2.441"
         id="feGaussianBlur1147" /></filter><filter
       id="E-7"
       x="-0.026998005"
       y="-0.026998101"
       width="1.053996"
       height="1.0539962"
       class="B"><feGaussianBlur
         stdDeviation="3.099"
         id="feGaussianBlur1150" /></filter><filter
       id="G-9"
       x="-0.058025685"
       y="-0.04092232"
       width="1.1160514"
       height="1.0818446"
       class="B"><feGaussianBlur
         stdDeviation="3.543"
         id="feGaussianBlur1153" /></filter><filter
       id="H-7"
       x="-0.093793037"
       y="-0.15286111"
       width="1.1875861"
       height="1.3057222"
       class="B"><feGaussianBlur
         stdDeviation=".9"
         id="feGaussianBlur1156" /></filter><filter
       id="I-7"
       x="-0.065162517"
       y="-0.067338683"
       width="1.130325"
       height="1.1346774"
       class="B"><feGaussianBlur
         stdDeviation=".9"
         id="feGaussianBlur1159" /></filter><clipPath
       id="D-9"><path
         d="M1799.132 1043.253a7.22 7.22 0 0 0-7.237 7.237v107.141l-75.759-75.759a7.222 7.222 0 0 0-10.237 0l-3.45 3.45a7.222 7.222 0 0 0 0 10.237l75.759 75.759h-107.141a7.223 7.223 0 0 0-7.237 7.24v4.876c0 4.01 3.227 7.24 7.237 7.24h120.828v120.828a7.22 7.22 0 0 0 7.237 7.237h4.88c4.01 0 7.24-3.227 7.24-7.237v-120.828h120.825c4.01 0 7.24-3.23 7.24-7.24v-4.876c0-4.01-3.23-7.24-7.24-7.24h-107.138l75.759-75.759a7.222 7.222 0 0 0 0-10.237l-3.45-3.45a7.222 7.222 0 0 0-10.237 0l-75.759 75.759V1050.49c0-4.01-3.23-7.237-7.24-7.237zm2.438 137.74h.01v.01h-.01z"
         stroke-width="1.534"
         id="path1178" /></clipPath><clipPath
       id="F-5"><path
         d="M982.397 347.79c-5.318-1.999-15.307-9.799-22.198-17.332-11.647-12.733-12.529-14.865-12.529-30.288 0-13.47 1.499-18.527 7.967-26.882 12.203-15.764 22.463-24.326 42.838-35.749l18.655-10.459-2.595-15.114c-1.427-8.313-4.779-23.864-7.45-34.559-4.612-18.474-5.426-15.573-12.474-18.186-11.903-4.414-12.257-5.303.606-16.686 11.268-9.971 26.614-16.976 30.27-13.817.985.851 1.971 12.958 2.191 26.904s1.253 33.888 2.296 44.315l1.896 18.959 18.371-7.607c21.637-8.959 26.026-9.473 26.026-3.051 0 2.806-7.331 9.239-17.804 15.621-25.142 15.321-66.454 49.521-70.818 58.625-5.762 12.021-6.054 25.28 3.9 31.668 11.08 7.11 33.452 10.552 65.71-2.216 35.013-13.859 49.631-5.427 49.631 11.723 0 11.818-14.309 17.551-59.937 24.013-33.845 4.793-52.032 4.827-64.552.12z"
         stroke-width="2.846"
         id="path1181" /></clipPath><filter
       id="C-80"
       x="-0.011867782"
       y="-0.011476842"
       width="1.0237356"
       height="1.0229537"
       class="B"><feGaussianBlur
         stdDeviation="2.441"
         id="feGaussianBlur1299" /></filter><filter
       id="F-7"
       x="-0.026998005"
       y="-0.026998101"
       width="1.053996"
       height="1.0539962"
       class="B"><feGaussianBlur
         stdDeviation="3.099"
         id="feGaussianBlur1302" /></filter><filter
       id="H-6"
       x="-0.054099383"
       y="-0.043132638"
       width="1.1081988"
       height="1.0862653"
       class="B"><feGaussianBlur
         stdDeviation="6.865"
         id="feGaussianBlur1305" /></filter><filter
       id="I-0"
       x="-0.11756318"
       y="-0.13445413"
       width="1.2351264"
       height="1.2689083"
       class="B"><feGaussianBlur
         stdDeviation=".752"
         id="feGaussianBlur1308" /></filter><filter
       id="J-7"
       x="-0.11640657"
       y="-0.11240574"
       width="1.2328131"
       height="1.2248115"
       class="B"><feGaussianBlur
         stdDeviation=".752"
         id="feGaussianBlur1311" /></filter><filter
       id="K"
       x="-0.073890737"
       y="-0.072547729"
       width="1.1477815"
       height="1.1450955"
       class="B"><feGaussianBlur
         stdDeviation=".752"
         id="feGaussianBlur1314" /></filter><linearGradient
       id="A-5"
       x1="-1430.769"
       y1="-77.47"
       x2="-1409.955"
       y2="-77.47"
       spreadMethod="reflect"
       gradientUnits="userSpaceOnUse"
       gradientTransform="matrix(2.0051,0,0,2.0051,4291.9272,498.95294)"><stop
         offset="0"
         stop-color="#ffd285"
         id="stop1317" /><stop
         offset=".232"
         stop-color="#ffcd79"
         id="stop1319" /><stop
         offset=".616"
         stop-color="#ffca73"
         id="stop1321" /><stop
         offset=".808"
         stop-color="#ffd386"
         id="stop1323" /><stop
         offset="1"
         stop-color="#ffc86e"
         id="stop1325" /></linearGradient><linearGradient
       id="B-1"
       x1="-899.903"
       y1="-319.311"
       x2="-899.906"
       y2="125.211"
       gradientUnits="userSpaceOnUse"
       gradientTransform="matrix(2.0051,0,0,2.0051,3658.9752,579.56894)"><stop
         offset=".599"
         stop-color="#fff"
         id="stop1328" /><stop
         offset="1"
         id="stop1330" /></linearGradient><clipPath
       id="E-4"><path
         d="M1799.132 1043.253a7.22 7.22 0 0 0-7.237 7.237v107.141l-75.759-75.759a7.222 7.222 0 0 0-10.237 0l-3.45 3.45a7.222 7.222 0 0 0 0 10.237l75.759 75.759h-107.141a7.223 7.223 0 0 0-7.237 7.24v4.876c0 4.01 3.227 7.24 7.237 7.24h120.828v120.828a7.22 7.22 0 0 0 7.237 7.237h4.88c4.01 0 7.24-3.227 7.24-7.237v-120.828h120.825c4.01 0 7.24-3.23 7.24-7.24v-4.876c0-4.01-3.23-7.24-7.24-7.24h-107.138l75.759-75.759a7.222 7.222 0 0 0 0-10.237l-3.45-3.45a7.222 7.222 0 0 0-10.237 0l-75.759 75.759V1050.49c0-4.01-3.23-7.237-7.24-7.237zm2.438 137.74h.01v.01h-.01z"
         stroke-width="1.534"
         id="path1333" /></clipPath><clipPath
       id="G-2"><path
         d="M-411.433 790.134c-11.021-2.958-21.272-8.696-26.598-14.887-7.655-8.899-8.397-12.354-6.367-29.629 2.834-24.114 4.579-27.41 25.249-47.685 18.932-18.572 20.272-23.769 7.612-29.537-4.954-2.257-12.301-9.129-16.327-15.27s-12.972-19.272-19.882-29.18-12.562-22.451-12.562-27.873c0-12.193 6.929-10.448 15.39 3.876 6.943 11.753 36.883 40.206 42.308 40.206 2.223 0 3.692-12.109 3.692-30.435v-30.435l-20.764-2.333c-11.42-1.283-26.835-4.628-34.255-7.433-12.799-4.838-13.751-4.685-18.556 2.976-2.786 4.442-6.987 14.138-9.336 21.547-3.628 11.446-6.482 14.067-18.976 17.432-11.01 2.965-15.36 2.9-17.312-.259-2.627-4.25 7.777-29.62 16.268-39.673 2.517-2.979 5.769-9.479 7.227-14.445 4.14-14.093 19.516-32.5 27.148-32.5 7.41 0 16.092 12.377 12.622 17.992-3.158 5.109 24.989 18.12 39.201 18.12 11.102 0 12.225-.877 10.407-8.125-1.121-4.469-8.281-16.921-15.912-27.672-10.91-15.37-13.874-22.864-13.874-35.073 0-14.055 9.673-47.851 18.166-63.468 2.345-4.313 1.623-7.859-2.426-11.908-7.688-7.688-3.984-10.685 6.521-5.274 13.656 7.035 28.296 22.347 28.296 29.596 0 3.699-2.504 11.568-5.564 17.486s-4.707 12.148-3.659 13.843 11.271 4.177 22.717 5.514c31.983 3.735 43.755 8.581 49.95 20.562 11.164 21.588-4.342 37.36-33.283 33.855-24.458-2.962-29.87 1.415-19.594 15.847 4.389 6.164 9.46 11.207 11.269 11.207s15.847-4.216 31.195-9.368c23.024-7.729 33.043-9.15 57.265-8.125 25.102 1.063 31.468 2.705 43.905 11.327 8.97 6.218 16.656 15.454 20.048 24.09 5.198 13.234 5.076 14.608-2.221 24.926-5.85 8.272-14.479 13.158-35.583 20.147-15.323 5.075-31.221 9.227-35.329 9.227-12.238 0-43.07-17.513-61.993-35.214-10.324-9.657-18.965-15.171-20.744-13.238-1.678 1.822-3.909 19.969-4.958 40.327l-1.908 37.014h11.884c6.536 0 20.154-2.671 30.262-5.936 14.933-4.823 19.411-5.078 23.887-1.363 8.214 6.817 6.672 19.596-3.604 29.872-9.471 9.471-37.694 18.689-48.099 15.71-6.925-1.983-28.26 22.503-31.761 36.451-3.636 14.488 3.436 17.567 20.237 8.809 18.352-9.566 22.037-9.59 33.943-.225 17.672 13.901 10.998 36.647-14.623 49.843-10.368 5.34-38.211 4.771-60.601-1.238zm159.366-191.568c11.278-7.389 7.425-14.167-12.566-22.108-17.813-7.076-56.124-8.258-72.339-2.231-8.387 3.117-8.335 3.255 5.134 13.528 24.079 18.366 60.673 23.326 79.772 10.811zm-103.516-99.247c0-3.972-2.305-7.222-5.121-7.222s-7.332-.848-10.034-1.885c-6.652-2.553-19.087 6.979-15.878 12.171 1.414 2.287 8.975 4.159 16.802 4.159 11.824 0 14.232-1.222 14.232-7.222z"
         stroke-width="3.611"
         id="path1336" /></clipPath><filter
       id="I-0-8"
       x="-0.11756318"
       y="-0.13445413"
       width="1.2351264"
       height="1.2689083"
       class="B"><feGaussianBlur
         stdDeviation=".752"
         id="feGaussianBlur1308-9" /></filter><filter
       id="I-0-0"
       x="-0.11756318"
       y="-0.13445413"
       width="1.2351264"
       height="1.2689083"
       class="B"><feGaussianBlur
         stdDeviation=".752"
         id="feGaussianBlur1308-8" /></filter><clipPath
       clipPathUnits="userSpaceOnUse"
       id="clipPath1016"><path
         d="m 852.862,611.47726 q -2.11667,5.08 -8.04333,6.77333 -5.50333,1.69334 -12.27666,0.84667 -6.35,-1.27 -10.58333,-3.81 -11.00667,0 -22.43666,-0.42333 -11.00664,-0.84667 -22.0133,-1.69333 -24.12999,-1.69334 -49.10662,-2.54 -24.97666,-0.84667 -51.64664,2.54 -3.38667,23.28332 -4.23334,46.14331 -0.84666,22.43663 -1.69333,43.17995 -0.42333,20.74333 -4.65666,38.94663 5.50333,0 11.00666,0.84669 5.50333,0.42331 11.42999,0.84667 10.58333,0.84664 21.16666,1.69333 10.58333,0.42331 21.16663,-1.69333 3.38667,-0.84667 6.77333,-3.38667 3.38667,-2.54002 7.19667,-2.96333 6.77333,-0.84669 16.08666,1.69331 9.73666,2.54002 19.47332,7.62002 10.16,5.07997 17.77997,11.00664 7.62002,5.92666 10.58333,11.85332 -8.04333,6.77333 -19.4733,6.77333 -11.00666,-0.42333 -23.28332,-2.11666 -5.08,-0.84667 -10.58333,-1.27 -5.08,-0.84667 -10.16,-0.84667 -19.89663,-0.84666 -46.14329,-0.84666 -26.24665,-0.42334 -52.91664,1.27 -26.66996,1.69333 -49.10662,6.34999 -22.0133,4.23334 -34.28996,13.12333 -17.77999,-4.65666 -28.36332,-17.77999 -10.58333,-13.54666 -19.04999,-30.90332 4.65666,-1.27 8.46666,0.42336 4.23333,1.26997 8.04333,3.38664 2.54,1.69333 5.08,2.96333 2.54,1.27 5.50333,1.69333 11.85333,2.11667 24.97663,0.42336 13.12335,-1.69336 27.09332,-4.65669 11.85333,-2.11664 23.28332,-3.80997 11.85333,-1.69336 22.85997,-1.27 0,-3.81 -0.42331,-8.04333 -0.42333,-4.65667 -0.84667,-9.31333 -1.26999,-12.27666 -2.11666,-24.97666 -0.42333,-13.12333 2.54,-23.70663 -2.54,-1.27 -2.96333,-4.23333 0,-2.96333 0.84666,-7.19666 0,-1.69336 0,-3.38667 0.42334,-1.69333 0.42334,-3.38666 0,-9.73667 -1.27,-19.89666 -0.84667,-10.58333 -0.84667,-19.04999 -28.78666,2.11666 -62.65328,8.46666 -33.44332,5.92666 -62.22998,19.04999 -13.1233,-7.62 -24.97663,-16.93332 -11.42999,-9.31333 -15.23999,-27.51666 5.92667,-5.08 13.54666,-4.65664 8.04333,0 17.35666,1.27 5.07997,0.42331 10.15997,1.27 5.50333,0.42331 11.00666,0 27.93999,-1.69336 58.41995,-6.35 30.47999,-4.65666 54.18665,-6.34999 -0.84667,-7.62 -0.84667,-15.24 0,-8.04333 0.42333,-16.08666 0.42334,-10.15999 0,-20.31999 0,-10.15997 -2.11666,-19.04999 -0.42334,-2.53997 -2.54,-5.07997 -1.69333,-2.96333 -2.11667,-5.50333 0,-0.84667 0.84667,-3.81 0,-1.27 0.42333,-2.54 0.42334,-1.69333 0,-2.54 -0.84666,-2.96333 -2.54,-5.50333 -1.27,-2.96333 -2.96333,-5.92667 -3.38666,-5.92666 -5.50333,-11.85332 -2.11667,-6.35 3.81,-12.7 17.35666,9.31333 34.28996,19.47333 17.35666,9.73666 28.36332,26.24665 -8.89,13.96997 -10.16,33.4433 -0.84666,19.47332 -1.69333,43.17998 8.46666,1.27 17.35666,1.27 8.89,0 17.77999,-0.42336 3.38667,0 6.35,0 3.38664,0 6.77333,0 2.54,0 5.50333,0 2.96331,0 5.50333,0 14.3933,0.42336 27.0933,-0.42331 13.12333,-1.27 20.74332,-9.73666 23.70666,2.54 43.17996,9.73666 19.89666,7.19664 29.20999,27.93996 z"
         id="path1018"
         style="font-size:423.333px;font-family:'Yuji Mai';-inkscape-font-specification:'Yuji Mai';fill:#980000;stroke-width:27.7812" /></clipPath></defs><path
     d="m-2640.263 204.473 21.47 26.648 145.682 33.948 130.593-42.533 79.784-400.01-38.751-32.142z"
     transform="matrix(-2.0051 0 0 2.0051 -4364.078 622.476)"
     opacity=".5"
     filter="url(#B)"
     id="path46" /><path
     d="m659.957 1108.163 270.001-75.701 17.663-57.348 142.368-882.306-20.751-16.013H250.674l-20.751 16.013 142.368 882.306 17.663 57.348z"
     fill="url(#A)"
     id="path48" /><path
     d="m659.982 1050.815 287.664-75.701 142.368-882.306-20.749-16.013H250.701L229.95 92.808l142.37 882.306z"
     opacity=".25"
     fill="url(#C)"
     style="mix-blend-mode:overlay"
     id="path50" /><path
     d="m389.995 1032.473-17.663-57.348L660 1050.826l287.668-75.701-17.663 57.348L660 1108.174z"
     opacity=".7"
     id="path52" /><path
     d="m250.668 97.854.043-21.064-20.75 16.013 20.707 5.052z"
     opacity=".2"
     id="path54" /><path
     d="m947.669 975.124-17.664-13.248L660 1034.424v16.402z"
     opacity=".4"
     id="path56" /><path
     d="m372.331 975.124 17.664-13.248L660 1034.424v16.402z"
     opacity=".6"
     id="path58" /><path
     d="m372.331 975.124 17.664-13.248L250.668 97.854l-20.707-5.052z"
     opacity=".4"
     id="path60" /><g
     fill="#fff"
     id="g68"><path
       d="m947.669 975.124-17.664-13.248 139.327-864.022 20.707-5.052z"
       opacity=".3"
       id="path62" /><path
       d="m1069.332 97.854-.043-21.064 20.75 16.013-20.707 5.052z"
       opacity=".8"
       id="path64" /><path
       d="M1069.332 97.854H250.668l.043-21.064h818.579l.043 21.064z"
       opacity=".3"
       id="path66" /></g><path
     d="M656.441 150.746a10.405 10.405 0 0 0-10.428 10.428v174.064H471.949a10.405 10.405 0 0 0-10.428 10.428v7.028a10.405 10.405 0 0 0 10.428 10.428h154.349L517.154 472.26a10.406 10.406 0 0 0 0 14.748l4.971 4.971a10.406 10.406 0 0 0 14.748 0l109.139-109.144v154.35a10.405 10.405 0 0 0 10.428 10.428h7.028a10.405 10.405 0 0 0 10.428-10.428v-154.35L783.035 491.98a10.406 10.406 0 0 0 14.748 0l4.971-4.971a10.406 10.406 0 0 0 0-14.748L693.616 363.122H847.96a10.405 10.405 0 0 0 10.428-10.428v-7.028a10.405 10.405 0 0 0-10.428-10.428H673.897V161.174a10.405 10.405 0 0 0-10.428-10.428zm3.509 198.429h.014z"
     fill="#350000"
     id="path70" /><path
     d="M1799.134-1043.253a7.223 7.223 0 0 1-7.239-7.239v-120.827h-120.827a7.223 7.223 0 0 1-7.239-7.239v-4.878a7.223 7.223 0 0 1 7.239-7.239h107.143l-75.763-75.759a7.223 7.223 0 0 1 0-10.238l3.451-3.451a7.222 7.222 0 0 1 10.237 0l75.759 75.763v-107.142a7.223 7.223 0 0 1 7.239-7.239h4.879a7.224 7.224 0 0 1 7.239 7.239v107.142l75.759-75.763a7.222 7.222 0 0 1 10.237 0l3.451 3.451a7.223 7.223 0 0 1 0 10.238l-75.759 75.759h107.139a7.224 7.224 0 0 1 7.239 7.239v4.878a7.223 7.223 0 0 1-7.239 7.239h-120.827v120.827a7.223 7.223 0 0 1-7.239 7.239zm2.436-137.74h.01v-.01z"
     transform="matrix(1.4406 0 0 -1.4406 -1949.339 -1338.218)"
     clip-path="url(#D)"
     fill="#9a0000"
     filter="url(#E)"
     id="path72" /><path
     d="m 469.58591,756.70399 q 2.11666,-5.08 8.04333,-6.77333 5.50333,-1.69333 12.27665,-0.84666 6.35,1.26999 10.58333,3.80999 11.00666,0 22.43665,0.42334 11.00666,0.84666 22.01331,1.69333 24.12999,1.69333 49.10663,2.54 24.97665,0.84666 51.64663,-2.54 3.38666,-23.28332 4.23333,-46.1433 0.84667,-22.43665 1.69333,-43.17997 0.42334,-20.74331 4.65667,-38.94663 -5.50333,0 -11.00666,-0.84667 -5.50333,-0.42333 -11.42999,-0.84667 -10.58333,-0.84666 -21.16665,-1.69333 -10.58333,-0.42333 -21.16665,1.69333 -3.38667,0.84667 -6.77333,3.38667 -3.38667,2.54 -7.19666,2.96333 -6.77333,0.84667 -16.08666,-1.69333 -9.73666,-2.54 -19.47332,-7.62 -10.15999,-5.07999 -17.77998,-11.00665 -7.62,-5.92667 -10.58333,-11.85333 8.04333,-6.77333 19.47332,-6.77333 11.00666,0.42334 23.28332,2.11667 5.07999,0.84666 10.58332,1.27 5.08,0.84666 10.15999,0.84666 19.89665,0.84667 46.1433,0.84667 26.24665,0.42333 52.91663,-1.27 26.66998,-1.69333 49.10663,-6.35 22.01331,-4.23333 34.28997,-13.12332 17.77999,4.65666 28.36331,17.77999 10.58333,13.54665 19.04999,30.90331 -4.65667,1.27 -8.46666,-0.42334 -4.23333,-1.26999 -8.04333,-3.38666 -2.54,-1.69333 -5.08,-2.96333 -2.54,-1.27 -5.50333,-1.69333 -11.85332,-2.11667 -24.97664,-0.42334 -13.12333,1.69334 -27.09332,4.65667 -11.85332,2.11666 -23.28331,3.80999 -11.85333,1.69334 -22.85998,1.27 0,3.81 0.42333,8.04333 0.42333,4.65666 0.84666,9.31333 1.27,12.27665 2.11667,24.97664 0.42333,13.12333 -2.54,23.70665 2.54,1.27 2.96333,4.23333 0,2.96333 -0.84666,7.19666 0,1.69334 0,3.38667 -0.42334,1.69333 -0.42334,3.38666 0,9.73666 1.27,19.89665 0.84667,10.58333 0.84667,19.04999 28.78664,-2.11667 62.65328,-8.46666 33.44331,-5.92666 62.22996,-19.04999 13.12332,7.62 24.97664,16.93332 11.43,9.31333 15.23999,27.51665 -5.92666,5.08 -13.54665,4.65666 -8.04333,0 -17.35666,-1.27 -5.07999,-0.42333 -10.15999,-1.27 -5.50333,-0.42333 -11.00666,0 -27.93998,1.69334 -58.41995,6.35 -30.47998,4.65666 -54.18663,6.34999 0.84667,7.62 0.84667,15.23999 0,8.04333 -0.42333,16.08666 -0.42334,10.15999 0,20.31998 0,10.15999 2.11666,19.04999 0.42333,2.53999 2.54,5.07999 1.69333,2.96333 2.11666,5.50333 0,0.84667 -0.84666,3.81 0,1.27 -0.42334,2.54 -0.42333,1.69333 0,2.54 0.84667,2.96333 2.54,5.50332 1.27,2.96334 2.96333,5.92667 3.38667,5.92666 5.50333,11.85332 2.11667,6.35 -3.80999,12.69999 -17.35666,-9.31333 -34.28998,-19.47332 -17.35665,-9.73666 -28.36331,-26.24664 8.88999,-13.96999 10.15999,-33.44331 0.84667,-19.47332 1.69333,-43.17997 -8.46666,-1.27 -17.35665,-1.27 -8.88999,0 -17.77999,0.42334 -3.38666,0 -6.34999,0 -3.38666,0 -6.77333,0 -2.54,0 -5.50333,0 -2.96333,0 -5.50333,0 -14.39332,-0.42334 -27.09331,0.42333 -13.12332,1.27 -20.74332,9.73666 -23.70665,-2.54 -43.17996,-9.73666 -19.89665,-7.19666 -29.20998,-27.93998 z"
     id="path989-2"
     style="font-size:423.333px;font-family:'Yuji Mai';-inkscape-font-specification:'Yuji Mai';fill:#320000;stroke-width:27.7812;fill-opacity:1" /><style
     id="style2-6">.B{color-interpolation-filters:sRGB}</style><style
     id="style1145">.B{color-interpolation-filters:sRGB}</style><style
     id="style1297">.B{color-interpolation-filters:sRGB}</style><path
     d="m 852.86199,611.47727 q -2.11666,5.08 -8.04333,6.77333 -5.50333,1.69333 -12.27665,0.84666 -6.35,-1.26999 -10.58333,-3.80999 -11.00666,0 -22.43665,-0.42334 -11.00666,-0.84666 -22.01331,-1.69333 -24.12999,-1.69333 -49.10663,-2.54 -24.97665,-0.84666 -51.64663,2.54 -3.38666,23.28332 -4.23333,46.1433 -0.84667,22.43665 -1.69333,43.17997 -0.42334,20.74331 -4.65667,38.94663 5.50333,0 11.00666,0.84667 5.50333,0.42333 11.42999,0.84667 10.58333,0.84666 21.16665,1.69333 10.58333,0.42333 21.16665,-1.69333 3.38667,-0.84667 6.77333,-3.38667 3.38667,-2.54 7.19666,-2.96333 6.77333,-0.84667 16.08666,1.69333 9.73666,2.54 19.47332,7.62 10.15999,5.07999 17.77998,11.00665 7.62,5.92667 10.58333,11.85333 -8.04333,6.77333 -19.47332,6.77333 -11.00666,-0.42334 -23.28332,-2.11667 -5.07999,-0.84666 -10.58332,-1.27 -5.08,-0.84666 -10.15999,-0.84666 -19.89665,-0.84667 -46.1433,-0.84667 -26.24665,-0.42333 -52.91663,1.27 -26.66998,1.69333 -49.10663,6.35 -22.01331,4.23333 -34.28997,13.12332 -17.77999,-4.65666 -28.36331,-17.77999 -10.58333,-13.54665 -19.04999,-30.90331 4.65667,-1.27 8.46666,0.42334 4.23333,1.26999 8.04333,3.38666 2.54,1.69333 5.08,2.96333 2.54,1.27 5.50333,1.69333 11.85332,2.11667 24.97664,0.42334 13.12333,-1.69334 27.09332,-4.65667 11.85332,-2.11666 23.28331,-3.80999 11.85333,-1.69334 22.85998,-1.27 0,-3.81 -0.42333,-8.04333 -0.42333,-4.65666 -0.84666,-9.31333 -1.27,-12.27665 -2.11667,-24.97664 -0.42333,-13.12333 2.54,-23.70665 -2.54,-1.27 -2.96333,-4.23333 0,-2.96333 0.84666,-7.19666 0,-1.69334 0,-3.38667 0.42334,-1.69333 0.42334,-3.38666 0,-9.73666 -1.27,-19.89665 -0.84667,-10.58333 -0.84667,-19.04999 -28.78664,2.11667 -62.65328,8.46666 -33.44331,5.92666 -62.22996,19.04999 -13.12332,-7.62 -24.97664,-16.93332 -11.43,-9.31333 -15.23999,-27.51665 5.92666,-5.08 13.54665,-4.65666 8.04333,0 17.35666,1.27 5.07999,0.42333 10.15999,1.27 5.50333,0.42333 11.00666,0 27.93998,-1.69334 58.41995,-6.35 30.47998,-4.65666 54.18663,-6.34999 -0.84667,-7.62 -0.84667,-15.23999 0,-8.04333 0.42333,-16.08666 0.42334,-10.15999 0,-20.31998 0,-10.15999 -2.11666,-19.04999 -0.42333,-2.53999 -2.54,-5.07999 -1.69333,-2.96333 -2.11666,-5.50333 0,-0.84667 0.84666,-3.81 0,-1.27 0.42334,-2.54 0.42333,-1.69333 0,-2.54 -0.84667,-2.96333 -2.54,-5.50332 -1.27,-2.96334 -2.96333,-5.92667 -3.38667,-5.92666 -5.50333,-11.85332 -2.11667,-6.35 3.80999,-12.69999 17.35666,9.31333 34.28998,19.47332 17.35665,9.73666 28.36331,26.24664 -8.88999,13.96999 -10.15999,33.44331 -0.84667,19.47332 -1.69333,43.17997 8.46666,1.27 17.35665,1.27 8.88999,0 17.77999,-0.42334 3.38666,0 6.34999,0 3.38666,0 6.77333,0 2.54,0 5.50333,0 2.96333,0 5.50333,0 14.39332,0.42334 27.09331,-0.42333 13.12332,-1.27 20.74332,-9.73666 23.70665,2.54 43.17996,9.73666 19.89665,7.19666 29.20998,27.93998 z"
     id="path1852"
     transform="rotate(180,661.22395,684.09063)"
     style="font-size:423.333px;font-family:'Yuji Mai';-inkscape-font-specification:'Yuji Mai';fill:#980000;stroke-width:27.7812;filter:url(#filter1086)"
     clip-path="url(#clipPath1016)" /><path
     d="m 663.18762,866.89531 c 3.427,-3.919 5.604,-12.261 0.741,-14.488 -4.863,-2.227 -16.766,1.661 -20.194,5.583 -3.428,3.922 1.618,7.873 6.482,10.098 4.864,2.225 9.544,2.727 12.971,-1.193 z"
     filter="url(#H)"
     id="path78"
     style="fill:#ffffff"
     transform="rotate(-120,655.95917,862.23065)" /><path
     d="m 534.62639,789.76077 c -3.116,-0.344 -6.087,-2.007 -6.419,-4.265 -0.332,-2.258 1.98,-5.108 5.098,-4.762 3.118,0.346 7.039,3.887 7.369,6.142 0.33,2.255 -2.932,3.228 -6.048,2.884 z"
     filter="url(#J)"
     id="path82"
     style="fill:#ffffff" /></svg>
