<?xml version="1.0" encoding="UTF-8" standalone="no"?>
<svg
   width="498.898"
   height="544.252"
   viewBox="0 0 1320 1440"
   version="1.1"
   id="svg99"
   sodipodi:docname="bC.svg"
   xml:space="preserve"
   inkscape:version="1.2.2 (732a01da63, 2022-12-09)"
   xmlns:inkscape="http://www.inkscape.org/namespaces/inkscape"
   xmlns:sodipodi="http://sodipodi.sourceforge.net/DTD/sodipodi-0.dtd"
   xmlns="http://www.w3.org/2000/svg"
   xmlns:svg="http://www.w3.org/2000/svg"><sodipodi:namedview
     id="namedview101"
     pagecolor="#ffffff"
     bordercolor="#000000"
     borderopacity="0.25"
     inkscape:showpageshadow="2"
     inkscape:pageopacity="0.0"
     inkscape:pagecheckerboard="0"
     inkscape:deskcolor="#d1d1d1"
     showgrid="false"
     inkscape:zoom="1.4258101"
     inkscape:cx="264.76177"
     inkscape:cy="265.8138"
     inkscape:window-width="1920"
     inkscape:window-height="974"
     inkscape:window-x="-11"
     inkscape:window-y="-11"
     inkscape:window-maximized="1"
     inkscape:current-layer="svg99" /><style
     id="style2">.B{color-interpolation-filters:sRGB}</style><defs
     id="defs53"><filter
       id="B"
       x="-0.013119982"
       y="-0.01088309"
       width="1.02624"
       height="1.0217662"
       class="B"><feGaussianBlur
         stdDeviation="2.441"
         id="feGaussianBlur4" /></filter><filter
       id="E"
       x="-0.044751876"
       y="-0.051751566"
       width="1.0895038"
       height="1.1035031"
       class="B"><feGaussianBlur
         stdDeviation="8.893"
         id="feGaussianBlur7" /></filter><filter
       id="F"
       x="-0.40012373"
       y="-0.45173136"
       width="1.8002475"
       height="1.9034627"
       class="B"><feGaussianBlur
         stdDeviation="1.833"
         id="feGaussianBlur10" /></filter><filter
       id="G"
       x="-0.29787007"
       y="-0.33255812"
       width="1.5957401"
       height="1.6651162"
       class="B"><feGaussianBlur
         stdDeviation="1.833"
         id="feGaussianBlur13" /></filter><filter
       id="H"
       x="-0.18492689"
       y="-0.15215418"
       width="1.3698538"
       height="1.3043084"
       class="B"><feGaussianBlur
         stdDeviation="1.833"
         id="feGaussianBlur16" /></filter><filter
       id="I"
       x="-0.21242123"
       y="-0.23248869"
       width="1.4248425"
       height="1.4649774"
       class="B"><feGaussianBlur
         stdDeviation="1.833"
         id="feGaussianBlur19" /></filter><filter
       id="J"
       x="-0.21455541"
       y="-0.24771566"
       width="1.4291108"
       height="1.4954313"
       class="B"><feGaussianBlur
         stdDeviation="1.833"
         id="feGaussianBlur22" /></filter><filter
       id="K"
       x="-0.34860632"
       y="-0.41712814"
       width="1.6972126"
       height="1.8342563"
       class="B"><feGaussianBlur
         stdDeviation="1.833"
         id="feGaussianBlur25" /></filter><filter
       id="M"
       x="-0.052347271"
       y="-0.04432593"
       width="1.1046945"
       height="1.0886519"
       class="B"><feGaussianBlur
         stdDeviation="4.412"
         id="feGaussianBlur28" /></filter><linearGradient
       id="A"
       x1="-1430.769"
       y1="-77.47"
       x2="-1409.955"
       y2="-77.47"
       spreadMethod="reflect"
       gradientUnits="userSpaceOnUse"><stop
         offset="0"
         stop-color="#ffd285"
         id="stop31" /><stop
         offset=".232"
         stop-color="#ffcd79"
         id="stop33" /><stop
         offset=".616"
         stop-color="#ffca73"
         id="stop35" /><stop
         offset=".808"
         stop-color="#ffd386"
         id="stop37" /><stop
         offset="1"
         stop-color="#ffc86e"
         id="stop39" /></linearGradient><linearGradient
       id="C"
       x1="-905.02"
       y1="-384.47"
       x2="-904.556"
       y2="184.159"
       gradientUnits="userSpaceOnUse"><stop
         offset="0"
         id="stop42" /><stop
         offset=".599"
         stop-color="#fff"
         id="stop44" /></linearGradient><clipPath
       id="D"><path
         d="M416.432 609.694c3.905 57.109 83.956 66.383 116.659 111.778-28.311 11.227-66.383 15.132-85.908 35.632 6.834 24.406 28.799 26.846 44.418 28.311-3.905 4.393-6.834 9.274-7.81 16.108.488 16.596-6.345 96.158-23.918 107.873-4.881 3.417-11.715 1.952-17.572 9.274 17.084 26.358 50.276 62.479 90.301 36.609 29.775-.976 61.502-7.322 82.491-9.274 18.548-1.952 33.68 13.667 51.74 8.786 3.417-11.715-6.834-20.501-12.203-27.334-6.345-22.453-11.227-54.669-12.203-89.325 0-2.929-4.393-.976-3.417-4.881.488-57.109-.488-126.421 7.322-198.662 7.81 4.881 16.596 5.857 22.453-.976-9.274-13.667-20.501-44.906-54.181-43.442-2.441 2.929-3.905 6.346-6.345 10.738-26.358 17.572-50.764 40.513-80.051 62.479-13.179-15.62-32.216-40.025-45.395-65.407-27.334-8.298-51.74-9.762-66.383 11.715zm243.081 100.063c-.488 13.667 35.632 55.645 44.418 37.097-2.441-5.369-4.881-9.762-6.834-15.62-1.952-21.965 11.715-53.204 21.965-80.051-12.691 0-18.06 9.762-25.87.976-9.274 11.715-32.704 38.561-33.68 57.597zm2.441 189.388c0 34.168 32.215 54.669 53.204 64.431 11.715 29.775 41.978 39.049 72.729 22.453-7.81-8.298-18.548-13.667-22.941-25.87 6.345-18.06 88.349-158.637 105.921-168.399 0-10.25 24.406-30.263 32.704-39.537-6.834-10.25-20.989-11.715-31.727-9.274-10.25 2.441-63.455 74.681-67.36 80.539-8.298-2.929-19.525-12.203-34.168-7.322-6.345-10.25-10.25-22.941-10.739-41.978 20.501-9.762 65.407-2.929 79.563-21.477-18.548-25.382-53.693-10.25-80.539-10.25 0-31.239 0-84.932 2.929-116.171 12.691-2.929 41.49-10.25 59.55-8.298 10.25.976 17.572 10.738 28.799 4.393-1.464-17.084-35.144-54.669-54.181-47.347-8.786 3.417-15.62 14.155-25.382 19.036-31.239 15.62-71.753 4.393-103.48 23.918 11.715 17.572 35.144 22.941 65.895 13.667l-5.857 117.635c-21.477 5.857-42.954 6.834-57.597 19.525 5.857 12.691 21.477 26.358 58.086 12.203-1.464 12.691-3.417 29.287 4.393 45.883-21.965 1.952-34.168 6.834-50.764 15.132 11.227 13.179 27.334 20.013 47.347 22.941 10.739-14.643 46.371-19.036 64.431-20.013-12.203 20.013-39.537 59.55-51.252 86.396-3.417 3.417-8.298 8.298-15.62 9.274-14.643-24.894-34.656-37.097-63.943-41.49zm119.1-264.069c0 14.643 6.834 28.799 6.346 40.513 0 3.417-3.417 4.881-2.929 8.786 3.417 19.036 30.263 36.609 45.883 37.097 2.929-16.108-11.227-40.025-9.762-61.014-8.786-9.274-22.453-22.941-39.537-25.382zM517.471 870.347c23.429 15.62 52.228-.976 89.813-1.464-.976 17.084 2.441 36.609 4.393 47.347-22.453 6.345-59.062 11.227-91.765 13.667-3.905-12.691-2.441-41.49-2.441-59.55zm0-17.572c-.488-20.501.488-29.775 1.952-47.347 20.501-2.929 59.55-8.298 88.349-6.834-1.464 8.786-.976 31.239-1.464 41.002-25.87 3.905-58.574 6.834-88.837 13.179zm-14.643-73.217c-2.929-5.857-2.441-13.179 3.905-15.62 10.25-5.369 27.823-18.06 41.002-24.406 8.786 5.857 23.918 23.918 35.144 32.215-22.941 1.952-56.133 3.905-80.051 7.81zm46.859-87.372c6.834-13.667 42.466-38.561 66.383-51.252-1.464 17.572-6.834 89.813-7.81 126.421-25.382-18.548-41.002-47.835-58.574-75.169z"
         stroke-width="24.218"
         id="path47" /></clipPath><clipPath
       id="L"><path
         d="M1711.016 1079.856a7.484 7.484 0 0 0-5.309 2.208l-3.066 3.066a7.491 7.491 0 0 0 0 10.619l85.245 85.248-85.245 85.245a7.491 7.491 0 0 0 0 10.619l3.066 3.07a7.491 7.491 0 0 0 10.619 0l75.571-75.571v106.87a7.493 7.493 0 0 0 7.507 7.511h4.34a7.493 7.493 0 0 0 7.507-7.511v-106.87l75.568 75.571a7.491 7.491 0 0 0 10.619 0l3.07-3.07a7.492 7.492 0 0 0 0-10.619l-85.248-85.245 85.248-85.248a7.492 7.492 0 0 0 0-10.619l-3.07-3.066a7.493 7.493 0 0 0-10.619 0l-85.245 85.245-85.248-85.245a7.486 7.486 0 0 0-5.31-2.208zm90.558 101.135v.01h-.01z"
         stroke-width="1.534"
         id="path50" /></clipPath><filter
       id="C-5"
       x="-0.01110353"
       y="-0.011243256"
       width="1.0222071"
       height="1.0224865"
       class="B"><feGaussianBlur
         stdDeviation="2.441"
         id="feGaussianBlur4-6" /></filter><filter
       id="E-4"
       x="-0.044415611"
       y="-0.052217456"
       width="1.0888312"
       height="1.1044349"
       class="B"><feGaussianBlur
         stdDeviation="6.938"
         id="feGaussianBlur7-2" /></filter><filter
       id="G-94"
       x="-0.026998005"
       y="-0.026998101"
       width="1.053996"
       height="1.0539962"
       class="B"><feGaussianBlur
         stdDeviation="3.099"
         id="feGaussianBlur10-5" /></filter><filter
       id="H-4"
       x="-0.27874491"
       y="-0.41037086"
       width="1.5574898"
       height="1.8207417"
       class="B"><feGaussianBlur
         stdDeviation="1.678"
         id="feGaussianBlur13-7" /></filter><filter
       id="I-87"
       x="-0.19140111"
       y="-0.19189012"
       width="1.3828022"
       height="1.3837802"
       class="B"><feGaussianBlur
         stdDeviation="1.678"
         id="feGaussianBlur16-1" /></filter><filter
       id="J-3"
       x="-0.27028669"
       y="-0.22439689"
       width="1.5405734"
       height="1.4487938"
       class="B"><feGaussianBlur
         stdDeviation="1.678"
         id="feGaussianBlur19-2" /></filter><filter
       id="K-3"
       x="-0.18338993"
       y="-0.31096481"
       width="1.3667799"
       height="1.6219296"
       class="B"><feGaussianBlur
         stdDeviation="1.678"
         id="feGaussianBlur22-0" /></filter><linearGradient
       id="B-0"
       x1="-899.905"
       y1="-344.262"
       x2="-899.906"
       y2="125.211"
       gradientUnits="userSpaceOnUse"><stop
         offset=".597"
         stop-color="#fff"
         id="stop36" /><stop
         offset="1"
         id="stop38" /></linearGradient><clipPath
       id="D-9"><path
         d="M853.773 619.324c-1.942-11.261-6.602-23.688-13.591-33.007-19.028-24.853-61.355-38.832-81.159-62.131-28.347-33.396-57.083-65.626-87.761-96.304.777-7.766-4.66-14.368-15.533-19.028-18.251-2.718-23.299-2.33-45.822 2.718 1.553 12.426 14.368 13.203 18.251 23.299-6.213 17.863-16.31 33.007-32.231 55.142-30.289 42.715-60.19 81.548-98.245 120.38-9.32 9.708-22.523 20.581-31.454 28.736 8.931-1.165 16.309 6.601 25.629 4.66 5.825-1.165 53.588-45.822 62.52-56.307 11.65-13.591 24.464-27.182 34.172-41.939 12.815 8.155 27.571 23.688 43.104 15.921 5.436 6.213 8.543 15.533 7.766 29.124-25.241 1.165-57.86 6.99-76.888 7.766 10.873 12.426 22.134 24.464 42.715 26.406 8.543-8.155 19.416-6.99 34.949-9.32-.389 27.571 1.165 48.929-.389 83.489-41.939 1.553-72.616 15.145-105.235-.777-2.718 5.825 12.038 25.241 17.086 29.901 21.746 19.416 29.901 6.99 49.706 0 29.901-10.485 99.798-10.096 134.747-6.213 15.145 3.107 40.385 7.378 48.929-.777-7.378-22.134-46.21-30.289-66.015-31.454-13.203 13.203-33.395 6.601-56.306 7.378 4.271-31.454 5.824-64.461 6.99-83.877 23.299-3.495 57.472-3.883 76.888-6.601-6.213-18.251-31.066-17.863-49.317-27.571-1.553 8.155-18.639 9.32-28.347 10.485.389-8.155 5.048-24.853-2.33-33.396 17.475-2.718 36.502-5.825 53.977-5.825-10.484-15.921-27.571-24.076-49.317-27.571-6.602 2.718-8.155 9.708-21.358 10.485-13.203 4.66-37.667 6.99-57.472 6.213 12.426-13.203 46.987-63.296 63.296-88.537 2.718-2.33 5.436-5.825 9.32-6.99 41.551 52.812 77.276 110.283 111.448 168.92 28.347 13.98 45.434 21.746 77.276 6.601zm-104.847 24.853c-3.495-19.804-20.581-25.241-38.444-29.512l-5.437 3.107c3.495 4.66 6.602 10.873 9.708 14.756-10.484 12.426-28.347 35.337-38.832 55.53 7.378-2.33 19.028-10.096 24.853-11.261-3.883 5.825-4.66 10.873-4.66 10.873 20.193-11.65 34.949-29.124 52.812-43.492zm-130.864 45.822c-.389-10.485-5.825-15.533-6.213-26.406-14.368-10.096-30.677-26.018-49.317-26.406 6.99 22.523 27.571 62.131 55.53 52.812z"
         stroke-width="19.267"
         id="path41" /></clipPath><clipPath
       id="F-1"><path
         d="M1799.132 1043.253a7.22 7.22 0 0 0-7.237 7.237v107.141l-75.759-75.759a7.222 7.222 0 0 0-10.237 0l-3.45 3.45a7.222 7.222 0 0 0 0 10.237l75.759 75.759h-107.141a7.223 7.223 0 0 0-7.237 7.24v4.876c0 4.01 3.227 7.24 7.237 7.24h120.828v120.828a7.22 7.22 0 0 0 7.237 7.237h4.88c4.01 0 7.24-3.227 7.24-7.237v-120.828h120.825c4.01 0 7.24-3.23 7.24-7.24v-4.876c0-4.01-3.23-7.24-7.24-7.24h-107.138l75.759-75.759a7.222 7.222 0 0 0 0-10.237l-3.45-3.45a7.222 7.222 0 0 0-10.237 0l-75.759 75.759V1050.49c0-4.01-3.23-7.237-7.24-7.237zm2.438 137.74h.01v.01h-.01z"
         stroke-width="1.534"
         id="path44" /></clipPath><filter
       id="C-4"
       x="-0.010152573"
       y="-0.010558682"
       width="1.0203051"
       height="1.0211174"
       class="B"><feGaussianBlur
         stdDeviation="2.441"
         id="feGaussianBlur4-8" /></filter><filter
       id="E-1"
       x="-0.029858744"
       y="-0.033802855"
       width="1.0597175"
       height="1.0676057"
       class="B"><feGaussianBlur
         stdDeviation="6.825"
         id="feGaussianBlur7-0" /></filter><filter
       id="F-3"
       x="-0.012623186"
       y="-0.01143498"
       width="1.0252464"
       height="1.02287"
       class="B"><feGaussianBlur
         stdDeviation="2.152"
         id="feGaussianBlur10-0" /></filter><filter
       id="H-7"
       x="-0.048167785"
       y="-0.048167262"
       width="1.0963356"
       height="1.0963345"
       class="B"><feGaussianBlur
         stdDeviation="5.529"
         id="feGaussianBlur13-1" /></filter><linearGradient
       id="A-3"
       x1="236.943"
       y1="670.458"
       x2="278.677"
       y2="670.458"
       spreadMethod="reflect"
       gradientUnits="userSpaceOnUse"
       gradientTransform="translate(2102.0959,-526.21748)"><stop
         offset="0"
         stop-color="#ffd285"
         id="stop16" /><stop
         offset=".232"
         stop-color="#ffcd79"
         id="stop18" /><stop
         offset=".616"
         stop-color="#ffca73"
         id="stop20" /><stop
         offset=".808"
         stop-color="#ffd386"
         id="stop22" /><stop
         offset="1"
         stop-color="#ffc86e"
         id="stop24" /></linearGradient><linearGradient
       id="B-2"
       x1="660"
       y1="115.844"
       x2="670.254"
       y2="1157.469"
       gradientUnits="userSpaceOnUse"
       gradientTransform="translate(2102.0959,-526.21748)"><stop
         offset=".604"
         stop-color="#fff"
         id="stop27-9" /><stop
         offset="1"
         id="stop29-4" /></linearGradient><clipPath
       id="D-5"><path
         d="M-259.905 606.27c-34.215-15.43-56.354-45.62-98.62-41.595 16.772 26.835 49.645 87.215 92.582 107.342 19.456-16.101 16.101-40.253 6.038-65.747zm127.468 137.531c-23.481-39.582-77.152-48.975-118.076-59.709-20.127 15.43-42.266 19.456-67.089 19.456s-49.646-2.684-77.823-3.354c2.013-40.924 4.025-111.367 4.025-157.658 48.975-7.38 111.367-6.709 163.696-5.367 16.101 0 15.43-10.063 9.392-18.785-19.456-20.127-49.645-28.177-81.177-34.886-14.759 12.076-64.405 12.076-91.24 12.076 2.684-38.24 3.354-94.595 4.696-144.24 39.582-2.684 78.494-6.709 110.025-7.38 32.202-.671 61.051-2.013 90.569-8.051-8.721-38.24-44.949-47.633-85.202-51.658-3.354-.671-6.038 8.051-12.747 8.721-64.405 8.722-225.417 22.81-281.101 15.43-26.165-3.354-50.987-12.076-83.19-20.127-9.392-2.013-9.392 8.722-6.709 20.797 16.772 20.797 34.886 46.962 56.354 58.367 14.089 7.38 30.19-5.367 44.278-7.38 37.57-6.038 67.759-.671 98.62-5.367 6.038 24.823 8.722 46.962 10.063 69.772s1.342 45.62 1.342 76.481c-73.797 10.063-140.215-.671-193.215 6.709 10.063 12.747 39.582 47.633 69.772 58.367 11.405 4.025 20.127-6.709 30.861-9.392 29.519-7.38 61.721-7.38 91.911-10.734l1.342 158.329c-69.101 3.354-142.228 16.101-190.531 17.443-21.468.671-40.253-14.089-62.392-5.367 16.772 32.202 47.633 48.304 75.81 67.089 24.823 9.392 30.19-6.038 48.975-14.089 29.519-12.747 88.557-17.443 121.43-19.456 101.974-6.038 200.595-6.038 259.632 8.722 14.759 4.025 43.607 1.342 57.696-14.759z"
         opacity=".593"
         stroke-width="5.943"
         id="path32" /></clipPath><clipPath
       id="G-9"><path
         d="M1799.132 1043.252a7.223 7.223 0 0 0-7.237 7.24v107.141l-75.759-75.762a7.222 7.222 0 0 0-10.237 0l-3.45 3.45a7.222 7.222 0 0 0 0 10.237l75.756 75.759h-107.138a7.223 7.223 0 0 0-7.237 7.24v4.88a7.22 7.22 0 0 0 7.237 7.237h107.141l-75.759 75.759a7.226 7.226 0 0 0 0 10.24l3.45 3.45a7.222 7.222 0 0 0 10.237 0l75.759-75.762v107.141c0 4.01 3.227 7.24 7.237 7.24h4.88c4.01 0 7.24-3.23 7.24-7.24V1204.36l75.759 75.762a7.222 7.222 0 0 0 10.237 0l3.45-3.45a7.226 7.226 0 0 0 0-10.24l-75.759-75.759h107.138c4.01 0 7.24-3.227 7.24-7.237v-4.88c0-4.01-3.23-7.24-7.24-7.24h-107.135l75.756-75.759a7.222 7.222 0 0 0 0-10.237l-3.45-3.45a7.222 7.222 0 0 0-10.237 0l-75.759 75.762v-107.141c0-4.01-3.23-7.24-7.24-7.24zm2.438 137.74h-.01z"
         stroke-width="1.534"
         id="path35" /></clipPath><path
       id="I-8"
       d="M654.456 1200.517c2.346 2.346 6.396 2.1 3.974 4.522s-6.287 2.483-8.633.137-2.285-6.211.137-8.633 2.176 1.628 4.522 3.974z" /><filter
       inkscape:menu-tooltip="In and out glow with a possible offset and colorizable flood"
       inkscape:menu="Shadows and Glows"
       inkscape:label="Cutout Glow"
       style="color-interpolation-filters:sRGB;"
       id="filter1178"
       x="-0.017679696"
       y="-0.041325967"
       width="1.0599145"
       height="1.0586252"><feOffset
         dy="-10"
         dx="10"
         id="feOffset1168" /><feGaussianBlur
         stdDeviation="3"
         result="blur"
         id="feGaussianBlur1170" /><feFlood
         flood-color="rgb(0,0,0)"
         flood-opacity="0"
         result="flood"
         id="feFlood1172" /><feComposite
         in="flood"
         in2="SourceGraphic"
         operator="in"
         result="composite"
         id="feComposite1174" /><feBlend
         in="blur"
         in2="composite"
         mode="normal"
         id="feBlend1176" /></filter><filter
       inkscape:menu-tooltip="In and out glow with a possible offset and colorizable flood"
       inkscape:menu="Shadows and Glows"
       inkscape:label="Cutout Glow"
       style="color-interpolation-filters:sRGB"
       id="filter1178-2"
       x="-0.042234829"
       y="-0.017299242"
       width="1.0599145"
       height="1.0586252"><feOffset
         dy="10"
         dx="-10"
         id="feOffset1168-5" /><feGaussianBlur
         stdDeviation="3"
         result="blur"
         id="feGaussianBlur1170-8" /><feFlood
         flood-color="rgb(0,0,0)"
         flood-opacity="1"
         result="flood"
         id="feFlood1172-3" /><feComposite
         in="flood"
         in2="SourceGraphic"
         operator="in"
         result="composite"
         id="feComposite1174-8" /><feBlend
         in="blur"
         in2="composite"
         mode="normal"
         id="feBlend1176-2" /></filter><filter
       id="K-5"
       x="-0.18338993"
       y="-0.31096481"
       width="1.3667799"
       height="1.6219296"
       class="B"><feGaussianBlur
         stdDeviation="1.678"
         id="feGaussianBlur22-1" /></filter><filter
       id="H-5"
       x="-0.27874491"
       y="-0.41037086"
       width="1.5574898"
       height="1.8207417"
       class="B"><feGaussianBlur
         stdDeviation="1.678"
         id="feGaussianBlur13-0" /></filter><filter
       inkscape:menu-tooltip="In and out glow with a possible offset and colorizable flood"
       inkscape:menu="Shadows and Glows"
       inkscape:label="Cutout Glow"
       style="color-interpolation-filters:sRGB;"
       id="filter1159"
       x="-0.043336391"
       y="-0.018140586"
       width="1.0614772"
       height="1.0614764"><feOffset
         dy="10"
         dx="-10"
         id="feOffset1149" /><feGaussianBlur
         stdDeviation="3"
         result="blur"
         id="feGaussianBlur1151" /><feFlood
         flood-color="rgb(0,0,0)"
         flood-opacity="0"
         result="flood"
         id="feFlood1153" /><feComposite
         in="flood"
         in2="SourceGraphic"
         operator="in"
         result="composite"
         id="feComposite1155" /><feBlend
         in="blur"
         in2="composite"
         mode="normal"
         id="feBlend1157" /></filter><filter
       inkscape:menu-tooltip="In and out glow with a possible offset and colorizable flood"
       inkscape:menu="Shadows and Glows"
       inkscape:label="Cutout Glow"
       style="color-interpolation-filters:sRGB"
       id="filter1159-0"
       x="-0.043336392"
       y="-0.018140586"
       width="1.0614772"
       height="1.0614764"><feOffset
         dy="10"
         dx="-10"
         id="feOffset1149-8" /><feGaussianBlur
         stdDeviation="3"
         result="blur"
         id="feGaussianBlur1151-4" /><feFlood
         flood-color="rgb(0,0,0)"
         flood-opacity="1"
         result="flood"
         id="feFlood1153-8" /><feComposite
         in="flood"
         in2="SourceGraphic"
         operator="in"
         result="composite"
         id="feComposite1155-2" /><feBlend
         in="blur"
         in2="composite"
         mode="normal"
         id="feBlend1157-0" /></filter><clipPath
       clipPathUnits="userSpaceOnUse"
       id="clipPath993"><path
         d="m 660.0206,538.21612 a 10.406,10.406 0 0 0 10.42601,-10.43098 V 373.42609 l 109.14598,109.15103 a 10.406,10.406 0 0 0 14.748,0 l 4.97102,-4.97098 a 10.406,10.406 0 0 0 0,-14.74801 L 690.1706,353.7121 h 154.35299 a 10.405,10.405 0 0 0 10.42601,-10.431 v -7.03001 A 10.4,10.4 0 0 0 844.52359,325.82511 H 690.1646 L 799.3106,216.6791 a 10.41,10.41 0 0 0 0,-14.753 l -4.97099,-4.971 a 10.406,10.406 0 0 0 -14.748,0 l -109.146,109.15099 V 151.7471 a 10.406,10.406 0 0 0 -10.42601,-10.431 h -7.02998 a 10.41,10.41 0 0 0 -10.43101,10.431 V 306.10609 L 533.41261,196.9551 a 10.406,10.406 0 0 0 -14.748,0 l -4.97099,4.971 a 10.41,10.41 0 0 0 0,14.753 L 622.8396,325.82511 H 468.48561 a 10.406,10.406 0 0 0 -10.43101,10.42598 v 7.03001 a 10.41,10.41 0 0 0 10.43101,10.431 H 622.8356 l -109.141,109.14603 a 10.406,10.406 0 0 0 0,14.74801 l 4.97102,4.97098 a 10.406,10.406 0 0 0 14.748,0 l 109.146,-109.15002 v 154.35804 a 10.41,10.41 0 0 0 10.43098,10.43098 z M 656.50861,339.7741 h 0.0132 z"
         id="path995"
         style="fill:#29303d;fill-opacity:1;stroke-width:1" /></clipPath><clipPath
       clipPathUnits="userSpaceOnUse"
       id="clipPath1044"><path
         d="m 861.57948,480.27321 q -5.20962,2.84163 -10.41926,6.63046 -4.73604,3.78883 -9.47208,7.57766 -12.78731,9.94568 -26.52185,17.99695 -13.73449,7.57767 -33.15228,4.73604 -0.94721,-5.68325 -4.73604,-8.52487 -3.78883,-2.84162 -7.10406,-5.68325 -3.31522,-3.31522 -3.78883,-9.47208 0.94721,-0.9472 2.36802,-2.84162 5.20964,-5.68325 11.36652,-14.20812 6.15683,-8.52487 9.94566,-18.47055 4.26246,-9.94569 2.84162,-20.83858 -9.94568,-6.63045 -26.52182,-8.99847 -16.57614,-2.36802 -36.94111,-1.89442 -20.36497,0.47358 -41.67715,1.42081 -11.36649,0.47361 -22.73299,0.94721 -11.36649,0.47358 -21.78578,0.47358 5.20964,5.68327 12.78731,8.9985 7.57766,3.31523 13.73451,7.57766 6.63046,3.78883 8.05127,11.8401 0.4736,3.31523 -0.94721,5.68325 -0.94721,2.36802 -2.36802,5.20964 -1.89441,2.84163 -3.31523,6.63046 -1.42081,3.31523 0.94721,8.52487 0.94721,0 2.36802,-0.4736 14.68172,-1.89442 32.20507,-2.84163 17.52335,-1.42081 32.20507,2.84163 15.15533,4.26243 22.73299,18.47055 -20.36497,4.73604 -43.57156,5.68325 -22.73299,0.4736 -44.99238,4.26243 v 20.83858 q 8.99847,0.4736 25.10101,-0.94721 16.57614,-1.89441 27.94263,-6.63045 11.3665,1.89441 25.57462,5.68324 14.20812,3.78883 26.52182,8.99848 12.3137,4.73604 18.94416,10.41929 7.10406,5.20964 4.26246,10.89289 -1.89444,3.78883 -9.47208,6.63045 -7.10406,2.84163 -14.20812,4.26244 -10.41931,12.78731 -15.15535,35.5203 -4.26244,22.25938 -6.63046,43.09796 5.20965,13.26091 -5.68324,15.15532 -5.68325,0.94721 -13.73452,1.42082 -7.57766,0 -16.57614,-0.47361 -10.89289,0 -23.20659,0.47361 -12.31371,0 -23.6802,1.89441 0.4736,4.73604 0.4736,11.3665 0.47361,6.15685 0,9.94568 7.57767,-0.94721 16.57614,-0.94721 8.99848,0 17.99695,0 16.57614,0.47361 31.73147,0 15.15533,-0.9472 22.73299,-8.52487 15.15535,1.42081 32.67867,5.68325 17.99698,3.78883 31.25789,11.36649 13.26091,7.57767 14.6817,20.83858 -15.15533,0 -30.78426,-0.47358 -15.62893,-0.47363 -31.25786,-0.94723 -27.46903,-0.47361 -54.46446,-0.94721 -26.52182,-0.47358 -49.72841,0.4736 0,2.36802 0,5.20965 0.4736,2.84162 0.4736,5.68327 0.4736,13.26091 0.4736,30.78426 0,17.52332 -3.31522,34.09946 -3.31523,16.57614 -13.26092,26.52185 -8.05126,-1.42081 -12.3137,-11.3665 -3.78883,-9.47208 -5.20964,-23.20659 -1.42081,-13.26094 -1.42081,-26.99543 0,-14.20812 0.4736,-24.15383 0,-5.20964 0,-8.52487 0,-3.78883 0,-5.20964 -28.41624,-0.47361 -53.51725,3.31525 -25.10101,3.3152 -49.72842,15.62893 -23.68019,0.47358 -36.4675,-10.41931 -12.31373,-11.3665 -21.78581,-26.04822 12.31373,-1.89442 26.04822,-1.42081 13.73454,0 29.83707,-1.42079 24.62741,-1.89444 50.67563,-3.31525 26.52182,-1.89442 54.46446,-3.78883 0.4736,-2.36802 0.4736,-6.15685 0,-3.78884 -0.4736,-8.05127 0,-1.89442 0,-3.78883 0,-1.89442 0,-3.31523 -1.42082,0 -3.31523,0 -1.42081,0 -2.84163,0.4736 -8.05126,0 -16.10253,0.47361 -8.05127,0 -15.15533,-0.47361 -6.15685,9.47208 -14.68172,8.05127 -8.05127,-1.89442 -16.57614,-8.99848 -8.05127,-7.10406 -14.20812,-13.26091 -1.42081,-1.42081 -2.36802,-2.36802 0,-6.15685 0.94721,-12.3137 0.94721,-6.63046 1.89441,-13.26091 1.89442,-11.8401 2.36802,-22.73299 0.94721,-11.3665 -2.84162,-21.31218 -2.84162,-8.05127 -9.47208,-12.78731 -6.63045,-4.73604 -12.3137,-9.94568 -5.20965,-5.20964 -6.15685,-14.20812 13.26091,0 25.57461,-1.42081 12.3137,-1.89442 25.10101,-4.26244 13.73452,-2.36802 27.94264,-4.26243 14.68172,-1.89442 31.25786,-1.89442 0.4736,-2.36802 0,-7.10406 -0.47361,-5.20964 -0.47361,-9.94568 -0.4736,-2.84163 -0.4736,-3.78883 -1.42081,0 -3.31523,0 -1.89441,0 -3.78883,0 -9.47208,0.4736 -20.36497,1.42081 -10.41929,0.4736 -18.94416,4.73604 -14.68172,-5.20965 -26.52182,-12.31371 -11.8401,-7.57766 -13.26091,-26.04821 20.36497,4.73604 42.62435,7.10406 22.25939,1.89441 41.67715,-1.89442 0.47361,-15.62893 -3.31522,-24.62741 -3.78884,-8.99847 -10.41929,-14.68172 -6.63046,-5.68325 -15.15533,-10.89289 4.26244,-0.94721 7.10406,-1.89442 3.31523,-1.42081 6.63046,-4.73606 -15.62893,0.94723 -33.15228,2.36802 -17.04974,0.94723 -30.31066,4.73606 -13.26091,3.78883 -17.99695,12.78731 -6.15685,11.3665 -10.41928,26.99543 -3.78884,15.62893 -7.57767,31.73146 -3.78883,16.10254 -9.4721,29.83705 0.47363,1.89442 0.94723,3.78883 0.94721,1.89442 1.89442,3.78884 1.89441,4.73604 3.31523,9.94568 1.42081,4.73604 -0.47361,9.47208 -14.20812,0 -27.46903,-7.10406 -12.78733,-7.10406 -22.25941,-17.52335 -9.47208,-10.89289 -13.73452,-21.78578 13.26094,-3.78883 20.83858,-12.3137 7.57766,-8.99848 11.84012,-20.83858 4.73604,-12.3137 8.52485,-25.10101 -3.78881,-9.94568 -9.94566,-17.04974 -6.15685,-7.57766 -14.20812,-13.26091 0.47358,-6.63046 6.15683,-8.05127 6.15685,-1.89444 10.89289,-4.26246 8.05129,-0.47358 22.73302,-1.42079 14.68172,-1.42081 33.15227,-3.31525 26.04822,-1.89439 57.77969,-4.73604 32.20507,-2.8416 64.88374,-4.73604 33.15228,-1.89439 62.98933,-2.36802 30.31065,-0.94721 53.51725,0.47363 23.68022,1.42081 35.52032,6.15685 3.78881,3.31523 7.57764,7.10406 3.78883,3.31523 8.05127,6.15685 1.42081,2.84163 3.31525,5.68325 2.36802,2.36802 4.73604,5.68325 7.10406,9.47208 13.73449,20.83857 6.63048,10.89289 4.73604,25.10101 z m -143.502,163.39337 q 0.4736,-3.31523 0.4736,-6.63045 0.4736,-3.78884 0.94721,-7.57767 1.89441,-17.99695 1.89441,-36.4675 0.47361,-18.47056 -6.63045,-39.78274 -7.57766,1.89442 -19.41776,2.36802 -11.3665,0.47361 -21.78579,1.42082 -0.4736,6.15685 -0.4736,13.73451 0.4736,7.57766 0,12.78731 12.78731,3.31523 22.73299,8.99847 10.41929,5.20965 17.99695,14.20812 -10.89289,0.94721 -21.31218,2.36802 -9.94568,1.42081 -18.94416,4.73604 -0.4736,4.73604 -0.4736,8.52487 0,3.31523 0,7.10406 0,3.31523 0,7.10406 0.4736,3.31523 0,8.05127 4.26243,0 8.52487,-0.4736 4.26244,-0.47361 8.52487,-0.94721 7.57767,-0.47361 14.68173,-0.47361 7.10405,-0.4736 13.26091,0.94721 z m -76.72385,-27.46903 q -12.3137,0.94721 -23.20659,0.94721 -10.41929,0 -21.31218,-3.78883 -0.4736,8.99847 -0.94721,18.47055 0,9.47208 0,17.04975 4.73604,0.4736 12.78731,0.4736 8.52487,-0.4736 16.57614,-1.42081 4.26243,-0.47361 8.05127,-0.47361 4.26243,-0.4736 7.57766,-0.4736 0.4736,-5.20964 0.4736,-14.20812 0,-9.47208 0,-16.57614 z m -1.89441,-55.88527 q -10.41929,-1.42081 -23.6802,2.36802 -12.78731,3.31523 -21.31218,7.10406 1.42081,5.20965 1.89442,12.31371 0.4736,6.63045 0.4736,10.89289 9.47208,0.4736 20.36497,-0.47361 10.89289,-1.42081 22.73299,-5.20964 z"
         id="path1046"
         style="font-size:473.604px;font-family:'Yuji Mai';-inkscape-font-specification:'Yuji Mai';fill:#29303d;stroke-width:27.7812" /></clipPath></defs><path
     d="m-2659.569 204.596 26.181 28.949 150.416 46.096 171.017-51.398 98.911-437.515-45.894-49.39z"
     transform="matrix(-2.0051 0 0 2.0051 -4364.078 706.823)"
     opacity=".5"
     filter="url(#B)"
     id="path55" /><path
     d="m-1220.686-340.838-153.963 49.823-8.809 28.459-94.245 482.361 10.349 7.986h493.336l10.348-7.986-94.244-482.361-8.809-28.459z"
     fill="url(#A)"
     transform="rotate(180 -893.82 266.77) scale(2.0051)"
     id="path57" /><path
     d="m-905.02-384.47-153.963 49.823-8.809 26.778-94.245 484.042 10.349 7.986h493.336l10.349-7.986-94.244-482.219-8.809-28.601z"
     opacity=".25"
     fill="url(#C)"
     transform="rotate(180 -577.344 223.027) scale(2.0051)"
     style="mix-blend-mode:overlay"
     id="path59" /><path
     d="m165.355 97.854.043-21.064-20.75 16.013 20.707 5.052zm821.025 961.863-17.664-13.248L660 1143.218v16.402z"
     opacity=".4"
     id="path61" /><path
     d="m333.62 1059.717 17.664-13.248L660 1143.218v16.402z"
     opacity=".6"
     id="path63" /><path
     d="m333.62 1059.717 17.664-13.248L165.355 97.854l-20.707-5.052z"
     opacity=".6"
     id="path65" /><g
     fill="#fff"
     id="g73"><path
       d="m986.38 1059.717-17.664-13.248 185.93-948.615 20.707-5.052z"
       opacity=".3"
       id="path67" /><path
       d="m1154.646 97.854-.043-21.064 20.75 16.013-20.707 5.052z"
       opacity=".8"
       id="path69" /><path
       d="M1154.646 97.854H165.355l.043-21.064h989.205l.043 21.064z"
       opacity=".3"
       id="path71" /></g><path
     d="m351.283 1117.065-17.663-57.348L660 1159.62l326.38-99.903-17.663 57.348L660 1216.968l-308.717-99.903z"
     opacity=".7"
     id="path79" /><style
     id="style2-2">.B{color-interpolation-filters:sRGB}</style><style
     id="style2-1">.B{color-interpolation-filters:sRGB}</style><path
     d="m 660.02061,538.21613 a 10.406,10.406 0 0 0 10.42599,-10.431 V 373.4261 l 109.146,109.15103 a 10.406,10.406 0 0 0 14.748,0 l 4.971,-4.971 a 10.406,10.406 0 0 0 0,-14.748 L 690.1706,353.7121 h 154.353 a 10.405,10.405 0 0 0 10.426,-10.431 v -7.03 a 10.4,10.4 0 0 0 -10.426,-10.426 h -154.359 l 109.146,-109.146 a 10.41,10.41 0 0 0 0,-14.753 l -4.971,-4.971 a 10.406,10.406 0 0 0 -14.748,0 l -109.146,109.151 v -154.359 a 10.406,10.406 0 0 0 -10.42599,-10.431 h -7.03 a 10.41,10.41 0 0 0 -10.431,10.431 v 154.359 l -109.146,-109.151 a 10.406,10.406 0 0 0 -14.748,0 l -4.971,4.971 a 10.41,10.41 0 0 0 0,14.753 l 109.146,109.146 h -154.354 a 10.406,10.406 0 0 0 -10.43102,10.426 v 7.03 a 10.41,10.41 0 0 0 10.43102,10.431 h 154.35 l -109.141,109.14603 a 10.406,10.406 0 0 0 0,14.748 l 4.971,4.971 a 10.406,10.406 0 0 0 14.748,0 l 109.146,-109.15003 v 154.35803 a 10.41,10.41 0 0 0 10.431,10.431 z m -3.512,-198.44203 h 0.014 z"
     id="path2791-4"
     style="fill:#000000;fill-opacity:1" /><path
     d="m 660.02061,538.21613 a 10.406,10.406 0 0 0 10.426,-10.431 V 373.4261 l 109.146,109.15103 a 10.406,10.406 0 0 0 14.748,0 l 4.971,-4.971 a 10.406,10.406 0 0 0 0,-14.748 L 690.17061,353.7121 h 154.353 a 10.405,10.405 0 0 0 10.426,-10.431 v -7.03 a 10.4,10.4 0 0 0 -10.426,-10.426 h -154.359 l 109.146,-109.146 a 10.41,10.41 0 0 0 0,-14.753 l -4.971,-4.971 a 10.406,10.406 0 0 0 -14.748,0 l -109.146,109.151 v -154.359 a 10.406,10.406 0 0 0 -10.426,-10.431 h -7.03 a 10.41,10.41 0 0 0 -10.431,10.431 v 154.359 l -109.146,-109.151 a 10.406,10.406 0 0 0 -14.748,0 l -4.971,4.971 a 10.41,10.41 0 0 0 0,14.753 l 109.146,109.146 h -154.354 a 10.406,10.406 0 0 0 -10.43102,10.426 v 7.03 a 10.41,10.41 0 0 0 10.43102,10.431 h 154.35 l -109.141,109.14603 a 10.406,10.406 0 0 0 0,14.748 l 4.971,4.971 a 10.406,10.406 0 0 0 14.748,0 l 109.146,-109.15003 v 154.35803 a 10.41,10.41 0 0 0 10.431,10.431 z m -3.512,-198.44203 h 0.014 z"
     id="path79-1"
     style="fill:#29303d;fill-opacity:1;filter:url(#filter1159)"
     clip-path="url(#clipPath993)" /><path
     d="m 454.88548,875.7445 q 5.20964,-2.84162 10.41928,-6.63045 4.73604,-3.78883 9.47208,-7.57767 12.78731,-9.94568 26.52183,-17.99695 13.73451,-7.57766 33.15228,-4.73604 0.94721,5.68325 4.73604,8.52487 3.78883,2.84163 7.10406,5.68325 3.31523,3.31523 3.78883,9.47208 -0.94721,0.94721 -2.36802,2.84163 -5.20964,5.68324 -11.3665,14.20812 -6.15685,8.52487 -9.94568,18.47055 -4.26244,9.94569 -2.84162,20.83858 9.94568,6.63045 26.52182,8.99847 16.57614,2.36802 36.94111,1.89442 20.36498,-0.4736 41.67716,-1.42081 11.36649,-0.47361 22.73299,-0.94721 11.36649,-0.4736 21.78578,-0.4736 -5.20964,-5.68325 -12.78731,-8.99848 -7.57766,-3.31523 -13.73451,-7.57766 -6.63046,-3.78884 -8.05127,-11.8401 -0.4736,-3.31523 0.94721,-5.68325 0.94721,-2.36802 2.36802,-5.20965 1.89441,-2.84162 3.31523,-6.63045 1.42081,-3.31523 -0.94721,-8.52487 -0.94721,0 -2.36802,0.4736 -14.68173,1.89442 -32.20507,2.84162 -17.52335,1.42082 -32.20508,-2.84162 -15.15533,-4.26244 -22.73299,-18.47056 20.36497,-4.73604 43.57157,-5.68324 22.73299,-0.47361 44.99238,-4.26244 v -20.83858 q -8.99848,-0.4736 -25.10101,0.94721 -16.57614,1.89442 -27.94264,6.63046 -11.36649,-1.89442 -25.57461,-5.68325 -14.20813,-3.78883 -26.52183,-8.99848 -12.3137,-4.73604 -18.94416,-10.41928 -7.10406,-5.20965 -4.26244,-10.8929 1.89442,-3.78883 9.47208,-6.63045 7.10406,-2.84163 14.20812,-4.26244 10.41929,-12.78731 15.15533,-35.5203 4.26244,-22.25939 6.63046,-43.09796 -5.20965,-13.26092 5.68325,-15.15533 5.68325,-0.94721 13.73451,-1.42081 7.57767,0 16.57614,0.4736 10.8929,0 23.2066,-0.4736 12.3137,0 23.6802,-1.89442 -0.4736,-4.73604 -0.4736,-11.3665 -0.47361,-6.15685 0,-9.94568 -7.57767,0.94721 -16.57614,0.94721 -8.99848,0 -17.99696,0 -16.57614,-0.47361 -31.73146,0 -15.15533,0.94721 -22.733,8.52487 -15.15533,-1.42081 -32.67867,-5.68325 -17.99696,-3.78883 -31.25787,-11.36649 -13.26091,-7.57767 -14.68172,-20.83858 15.15533,0 30.78426,0.4736 15.62893,0.47361 31.25786,0.94721 27.46904,0.47361 54.46446,0.94721 26.52183,0.4736 49.72842,-0.4736 0,-2.36802 0,-5.20965 -0.4736,-2.84162 -0.4736,-5.68325 -0.4736,-13.26091 -0.4736,-30.78426 0,-17.52334 3.31522,-34.09948 3.31523,-16.57614 13.26092,-26.52183 8.05126,1.42081 12.3137,11.3665 3.78883,9.47208 5.20964,23.20659 1.42082,13.26092 1.42082,26.99543 0,14.20812 -0.47361,24.15381 0,5.20964 0,8.52487 0,3.78883 0,5.20964 28.41624,0.47361 53.51725,-3.31523 25.10102,-3.31522 49.72842,-15.62893 23.6802,-0.4736 36.46751,10.41929 12.31371,11.3665 21.78579,26.04822 -12.31371,1.89442 -26.04822,1.42081 -13.73452,0 -29.83706,1.42081 -24.6274,1.89442 -50.67562,3.31523 -26.52183,1.89442 -54.46446,3.78883 -0.47361,2.36802 -0.47361,6.15686 0,3.78883 0.47361,8.05126 0,1.89442 0,3.78884 0,1.89441 0,3.31522 1.42081,0 3.31522,0 1.42082,0 2.84163,-0.4736 8.05127,0 16.10253,-0.4736 8.05127,0 15.15533,0.4736 6.15685,-9.47208 14.68173,-8.05127 8.05126,1.89442 16.57614,8.99848 8.05126,7.10406 14.20812,13.26091 1.42081,1.42081 2.36802,2.36802 0,6.15685 -0.94721,12.31371 -0.94721,6.63045 -1.89442,13.26091 -1.89441,11.8401 -2.36802,22.73299 -0.94721,11.3665 2.84163,21.31218 2.84162,8.05127 9.47208,12.78731 6.63045,4.73604 12.3137,9.94568 5.20964,5.20965 6.15685,14.20812 -13.26091,0 -25.57461,1.42081 -12.31371,1.89442 -25.10102,4.26244 -13.73451,2.36802 -27.94263,4.26244 -14.68173,1.89441 -31.25787,1.89441 -0.4736,2.36802 0,7.10406 0.47361,5.20965 0.47361,9.94569 0.4736,2.84162 0.4736,3.78883 1.42081,0 3.31523,0 1.89442,0 3.78883,0 9.47208,-0.47361 20.36497,-1.42081 10.41929,-0.47361 18.94416,-4.73604 14.68173,5.20964 26.52183,12.3137 11.8401,7.57766 13.26091,26.04822 -20.36497,-4.73604 -42.62436,-7.10406 -22.25939,-1.89442 -41.67715,1.89442 -0.47361,15.62893 3.31523,24.6274 3.78883,8.99848 10.41928,14.68173 6.63046,5.68325 15.15533,10.89289 -4.26243,0.94721 -7.10406,1.89442 -3.31523,1.42081 -6.63045,4.73604 15.62893,-0.94721 33.15228,-2.36802 17.04974,-0.94721 30.31065,-4.73604 13.26091,-3.78884 17.99695,-12.78731 6.15686,-11.3665 10.41929,-26.99543 3.78883,-15.62893 7.57767,-31.73147 3.78883,-16.10253 9.47208,-29.83705 -0.47361,-1.89442 -0.94721,-3.78883 -0.94721,-1.89442 -1.89442,-3.78883 -1.89441,-4.73604 -3.31523,-9.94569 -1.42081,-4.73604 0.47361,-9.47208 14.20812,0 27.46903,7.10406 12.78731,7.10406 22.25939,17.52335 9.47208,10.89289 13.73452,21.78578 -13.26092,3.78884 -20.83858,12.31371 -7.57766,8.99847 -11.8401,20.83857 -4.73604,12.31371 -8.52487,25.10102 3.78883,9.94568 9.94568,17.04974 6.15685,7.57766 14.20812,13.26091 -0.4736,6.63046 -6.15685,8.05127 -6.15685,1.89442 -10.89289,4.26244 -8.05127,0.4736 -22.733,1.42081 -14.68172,1.42081 -33.15228,3.31523 -26.04822,1.89441 -57.77968,4.73604 -32.20508,2.84162 -64.88375,4.73604 -33.15228,1.89441 -62.98933,2.36802 -30.31066,0.94721 -53.51726,-0.47361 -23.6802,-1.42081 -35.5203,-6.15685 -3.78883,-3.31523 -7.57766,-7.10406 -3.78883,-3.31523 -8.05127,-6.15685 -1.42081,-2.84163 -3.31523,-5.68325 -2.36802,-2.36802 -4.73604,-5.68325 -7.10406,-9.47208 -13.73451,-20.83857 -6.63046,-10.8929 -4.73604,-25.10102 z M 598.38749,712.35112 q -0.4736,3.31523 -0.4736,6.63046 -0.47361,3.78883 -0.94721,7.57766 -1.89442,17.99696 -1.89442,36.46751 -0.4736,18.47056 6.63046,39.78274 7.57766,-1.89442 19.41776,-2.36802 11.3665,-0.47361 21.78579,-1.42081 0.4736,-6.15686 0.4736,-13.73452 -0.4736,-7.57766 0,-12.78731 -12.78731,-3.31523 -22.73299,-8.99847 -10.41929,-5.20965 -17.99695,-14.20812 10.89289,-0.94721 21.31218,-2.36802 9.94568,-1.42082 18.94416,-4.73604 0.4736,-4.73604 0.4736,-8.52488 0,-3.31522 0,-7.10406 0,-3.31522 0,-7.10406 -0.4736,-3.31522 0,-8.05126 -4.26244,0 -8.52487,0.4736 -4.26244,0.4736 -8.52487,0.94721 -7.57767,0.4736 -14.68173,0.4736 -7.10406,0.47361 -13.26091,-0.94721 z m 76.72385,27.46904 q 12.3137,-0.94721 23.20659,-0.94721 10.41929,0 21.31218,3.78883 0.47361,-8.99848 0.94721,-18.47056 0,-9.47208 0,-17.04974 -4.73604,-0.4736 -12.78731,-0.4736 -8.52487,0.4736 -16.57614,1.42081 -4.26243,0.4736 -8.05126,0.4736 -4.26244,0.47361 -7.57767,0.47361 -0.4736,5.20964 -0.4736,14.20812 0,9.47208 0,16.57614 z m 1.89441,55.88527 q 10.41929,1.42081 23.6802,-2.36802 12.78731,-3.31523 21.31218,-7.10406 -1.42081,-5.20965 -1.89441,-12.31371 -0.47361,-6.63045 -0.47361,-10.89289 -9.47208,-0.4736 -20.36497,0.47361 -10.89289,1.42081 -22.73299,5.20964 z"
     id="path1017-8"
     style="font-size:473.604px;font-family:'Yuji Mai';-inkscape-font-specification:'Yuji Mai';fill:#000000;stroke-width:27.7812;fill-opacity:1" /><path
     d="m 861.57949,480.27321 q -5.20964,2.84162 -10.41928,6.63045 -4.73604,3.78883 -9.47208,7.57767 -12.78731,9.94568 -26.52183,17.99695 -13.73451,7.57766 -33.15228,4.73604 -0.94721,-5.68325 -4.73604,-8.52487 -3.78883,-2.84163 -7.10406,-5.68325 -3.31523,-3.31523 -3.78883,-9.47208 0.94721,-0.94721 2.36802,-2.84163 5.20964,-5.68324 11.3665,-14.20812 6.15685,-8.52487 9.94568,-18.47055 4.26244,-9.94569 2.84162,-20.83858 -9.94568,-6.63045 -26.52182,-8.99847 -16.57614,-2.36802 -36.94111,-1.89442 -20.36498,0.4736 -41.67716,1.42081 -11.36649,0.47361 -22.73299,0.94721 -11.36649,0.4736 -21.78578,0.4736 5.20964,5.68325 12.78731,8.99848 7.57766,3.31523 13.73451,7.57766 6.63046,3.78884 8.05127,11.8401 0.4736,3.31523 -0.94721,5.68325 -0.94721,2.36802 -2.36802,5.20965 -1.89441,2.84162 -3.31523,6.63045 -1.42081,3.31523 0.94721,8.52487 0.94721,0 2.36802,-0.4736 14.68173,-1.89442 32.20507,-2.84162 17.52335,-1.42082 32.20508,2.84162 15.15533,4.26244 22.73299,18.47056 -20.36497,4.73604 -43.57157,5.68324 -22.73299,0.47361 -44.99238,4.26244 v 20.83858 q 8.99848,0.4736 25.10101,-0.94721 16.57614,-1.89442 27.94264,-6.63046 11.36649,1.89442 25.57461,5.68325 14.20813,3.78883 26.52183,8.99848 12.3137,4.73604 18.94416,10.41928 7.10406,5.20965 4.26244,10.8929 -1.89442,3.78883 -9.47208,6.63045 -7.10406,2.84163 -14.20812,4.26244 -10.41929,12.78731 -15.15533,35.5203 -4.26244,22.25939 -6.63046,43.09796 5.20965,13.26092 -5.68325,15.15533 -5.68325,0.94721 -13.73451,1.42081 -7.57767,0 -16.57614,-0.4736 -10.8929,0 -23.2066,0.4736 -12.3137,0 -23.6802,1.89442 0.4736,4.73604 0.4736,11.3665 0.47361,6.15685 0,9.94568 7.57767,-0.94721 16.57614,-0.94721 8.99848,0 17.99696,0 16.57614,0.47361 31.73146,0 15.15533,-0.94721 22.733,-8.52487 15.15533,1.42081 32.67867,5.68325 17.99696,3.78883 31.25787,11.36649 13.26091,7.57767 14.68172,20.83858 -15.15533,0 -30.78426,-0.4736 -15.62893,-0.47361 -31.25786,-0.94721 -27.46904,-0.47361 -54.46446,-0.94721 -26.52183,-0.4736 -49.72842,0.4736 0,2.36802 0,5.20965 0.4736,2.84162 0.4736,5.68325 0.4736,13.26091 0.4736,30.78426 0,17.52334 -3.31522,34.09948 -3.31523,16.57614 -13.26092,26.52183 -8.05126,-1.42081 -12.3137,-11.3665 -3.78883,-9.47208 -5.20964,-23.20659 -1.42082,-13.26092 -1.42082,-26.99543 0,-14.20812 0.47361,-24.15381 0,-5.20964 0,-8.52487 0,-3.78883 0,-5.20964 -28.41624,-0.47361 -53.51725,3.31523 -25.10102,3.31522 -49.72842,15.62893 -23.6802,0.4736 -36.46751,-10.41929 -12.31371,-11.3665 -21.78579,-26.04822 12.31371,-1.89442 26.04822,-1.42081 13.73452,0 29.83706,-1.42081 24.6274,-1.89442 50.67562,-3.31523 26.52183,-1.89442 54.46446,-3.78883 0.47361,-2.36802 0.47361,-6.15686 0,-3.78883 -0.47361,-8.05126 0,-1.89442 0,-3.78884 0,-1.89441 0,-3.31522 -1.42081,0 -3.31522,0 -1.42082,0 -2.84163,0.4736 -8.05127,0 -16.10253,0.4736 -8.05127,0 -15.15533,-0.4736 -6.15685,9.47208 -14.68173,8.05127 -8.05126,-1.89442 -16.57614,-8.99848 -8.05126,-7.10406 -14.20812,-13.26091 -1.42081,-1.42081 -2.36802,-2.36802 0,-6.15685 0.94721,-12.31371 0.94721,-6.63045 1.89442,-13.26091 1.89441,-11.8401 2.36802,-22.73299 0.94721,-11.3665 -2.84163,-21.31218 -2.84162,-8.05127 -9.47208,-12.78731 -6.63045,-4.73604 -12.3137,-9.94568 -5.20964,-5.20965 -6.15685,-14.20812 13.26091,0 25.57461,-1.42081 12.31371,-1.89442 25.10102,-4.26244 13.73451,-2.36802 27.94263,-4.26244 14.68173,-1.89441 31.25787,-1.89441 0.4736,-2.36802 0,-7.10406 -0.47361,-5.20965 -0.47361,-9.94569 -0.4736,-2.84162 -0.4736,-3.78883 -1.42081,0 -3.31523,0 -1.89442,0 -3.78883,0 -9.47208,0.47361 -20.36497,1.42081 -10.41929,0.47361 -18.94416,4.73604 -14.68173,-5.20964 -26.52183,-12.3137 -11.8401,-7.57766 -13.26091,-26.04822 20.36497,4.73604 42.62436,7.10406 22.25939,1.89442 41.67715,-1.89442 0.47361,-15.62893 -3.31523,-24.6274 -3.78883,-8.99848 -10.41928,-14.68173 -6.63046,-5.68325 -15.15533,-10.89289 4.26243,-0.94721 7.10406,-1.89442 3.31523,-1.42081 6.63045,-4.73604 -15.62893,0.94721 -33.15228,2.36802 -17.04974,0.94721 -30.31065,4.73604 -13.26091,3.78884 -17.99695,12.78731 -6.15686,11.3665 -10.41929,26.99543 -3.78883,15.62893 -7.57767,31.73147 -3.78883,16.10253 -9.47208,29.83705 0.47361,1.89442 0.94721,3.78883 0.94721,1.89442 1.89442,3.78883 1.89441,4.73604 3.31523,9.94569 1.42081,4.73604 -0.47361,9.47208 -14.20812,0 -27.46903,-7.10406 -12.78731,-7.10406 -22.25939,-17.52335 -9.47208,-10.89289 -13.73452,-21.78578 13.26092,-3.78884 20.83858,-12.31371 7.57766,-8.99847 11.8401,-20.83857 4.73604,-12.31371 8.52487,-25.10102 -3.78883,-9.94568 -9.94568,-17.04974 -6.15685,-7.57766 -14.20812,-13.26091 0.4736,-6.63046 6.15685,-8.05127 6.15685,-1.89442 10.89289,-4.26244 8.05127,-0.4736 22.733,-1.42081 14.68172,-1.42081 33.15228,-3.31523 26.04822,-1.89441 57.77968,-4.73604 32.20508,-2.84162 64.88375,-4.73604 33.15228,-1.89441 62.98933,-2.36802 30.31066,-0.94721 53.51726,0.47361 23.6802,1.42081 35.5203,6.15685 3.78883,3.31523 7.57766,7.10406 3.78883,3.31523 8.05127,6.15685 1.42081,2.84163 3.31523,5.68325 2.36802,2.36802 4.73604,5.68325 7.10406,9.47208 13.73451,20.83857 6.63046,10.8929 4.73604,25.10102 z M 718.07748,643.66659 q 0.4736,-3.31523 0.4736,-6.63046 0.47361,-3.78883 0.94721,-7.57766 1.89442,-17.99696 1.89442,-36.46751 0.4736,-18.47056 -6.63046,-39.78274 -7.57766,1.89442 -19.41776,2.36802 -11.3665,0.47361 -21.78579,1.42081 -0.4736,6.15686 -0.4736,13.73452 0.4736,7.57766 0,12.78731 12.78731,3.31523 22.73299,8.99847 10.41929,5.20965 17.99695,14.20812 -10.89289,0.94721 -21.31218,2.36802 -9.94568,1.42082 -18.94416,4.73604 -0.4736,4.73604 -0.4736,8.52488 0,3.31522 0,7.10406 0,3.31522 0,7.10406 0.4736,3.31522 0,8.05126 4.26244,0 8.52487,-0.4736 4.26244,-0.4736 8.52487,-0.94721 7.57767,-0.4736 14.68173,-0.4736 7.10406,-0.47361 13.26091,0.94721 z m -76.72385,-27.46904 q -12.3137,0.94721 -23.20659,0.94721 -10.41929,0 -21.31218,-3.78883 -0.47361,8.99848 -0.94721,18.47056 0,9.47208 0,17.04974 4.73604,0.4736 12.78731,0.4736 8.52487,-0.4736 16.57614,-1.42081 4.26243,-0.4736 8.05126,-0.4736 4.26244,-0.47361 7.57767,-0.47361 0.4736,-5.20964 0.4736,-14.20812 0,-9.47208 0,-16.57614 z m -1.89441,-55.88527 q -10.41929,-1.42081 -23.6802,2.36802 -12.78731,3.31523 -21.31218,7.10406 1.42081,5.20965 1.89441,12.31371 0.47361,6.63045 0.47361,10.89289 9.47208,0.4736 20.36497,-0.47361 10.89289,-1.42081 22.73299,-5.20964 z"
     id="path1986"
     transform="rotate(180,658.23249,678.00885)"
     style="font-size:473.604px;font-family:'Yuji Mai';-inkscape-font-specification:'Yuji Mai';fill:#29303d;stroke-width:27.7812;filter:url(#filter1178)"
     clip-path="url(#clipPath1044)" /><path
     d="m 588.21248,807.1129 c 5.018,1.184 7.738,-4.454 6.327,-9.036 -1.411,-4.582 -6.956,-8.106 -11.976,-9.292 -5.02,-1.186 -9.512,-0.032 -8.099,4.551 1.413,4.583 8.731,12.592 13.748,13.776 z"
     filter="url(#I)"
     id="path87"
     style="fill:#ffffff"
     transform="rotate(-20,588.07451,919.28135)" /><path
     d="m 478.08279,908.75808 c 4.886,1.167 7.757,-2.608 6.033,-6.921 -1.724,-4.313 -8.047,-9.167 -12.936,-10.337 -4.889,-1.17 -8.34,1.347 -6.613,5.663 1.727,4.316 8.63,10.428 13.516,11.596 z"
     filter="url(#J)"
     id="path89"
     style="fill:#ffffff"
     transform="rotate(10,492.45899,890.95391)" /><path
     d="m 659.62154,899.3949 c 2.294,-2.624 1.656,-6.908 -1.359,-9.052 -3.015,-2.144 -8.408,-2.144 -10.704,0.484 -2.296,2.628 -1.492,7.879 1.524,10.019 3.016,2.14 8.245,1.173 10.539,-1.451 z"
     filter="url(#G)"
     id="path91"
     style="fill:#ffffff" /><path
     d="m 815.42386,928.67547 c 3.357,0.929 6.259,-3.056 4.354,-5.98 -1.905,-2.924 -8.621,-4.785 -10.072,-2.791 -1.451,1.994 2.362,7.841 5.719,8.771 z"
     filter="url(#F)"
     id="path95"
     style="fill:#ffffff" /></svg>
