<?xml version="1.0" encoding="UTF-8" standalone="no"?>
<svg
   width="498.898"
   height="544.252"
   viewBox="0 0 1320 1440"
   version="1.1"
   id="svg109"
   sodipodi:docname="bF.svg"
   xml:space="preserve"
   inkscape:version="1.2.2 (732a01da63, 2022-12-09)"
   xmlns:inkscape="http://www.inkscape.org/namespaces/inkscape"
   xmlns:sodipodi="http://sodipodi.sourceforge.net/DTD/sodipodi-0.dtd"
   xmlns="http://www.w3.org/2000/svg"
   xmlns:svg="http://www.w3.org/2000/svg"><sodipodi:namedview
     id="namedview111"
     pagecolor="#ffffff"
     bordercolor="#000000"
     borderopacity="0.25"
     inkscape:showpageshadow="2"
     inkscape:pageopacity="0.0"
     inkscape:pagecheckerboard="0"
     inkscape:deskcolor="#d1d1d1"
     showgrid="false"
     inkscape:zoom="2.0163999"
     inkscape:cx="92.491574"
     inkscape:cy="75.877806"
     inkscape:window-width="1920"
     inkscape:window-height="974"
     inkscape:window-x="-11"
     inkscape:window-y="-11"
     inkscape:window-maximized="1"
     inkscape:current-layer="svg109" /><style
     id="style2">.B{color-interpolation-filters:sRGB}</style><defs
     id="defs59"><filter
       id="B"
       x="-0.012166599"
       y="-0.010441906"
       width="1.0243332"
       height="1.0208838"
       class="B"><feGaussianBlur
         stdDeviation="2.441"
         id="feGaussianBlur4" /></filter><filter
       id="E"
       x="-0.048002438"
       y="-0.048002441"
       width="1.0960049"
       height="1.0960049"
       class="B"><feGaussianBlur
         stdDeviation="5.51"
         id="feGaussianBlur7" /></filter><filter
       id="G"
       x="-0.047883346"
       y="-0.048121577"
       width="1.0957667"
       height="1.0962432"
       class="B"><feGaussianBlur
         stdDeviation="8.767"
         id="feGaussianBlur10" /></filter><filter
       id="H"
       x="-0.37482898"
       y="-0.5426725"
       width="1.749658"
       height="2.085345"
       class="B"><feGaussianBlur
         stdDeviation="1.774"
         id="feGaussianBlur13" /></filter><filter
       id="I"
       x="-0.41586665"
       y="-0.41511985"
       width="1.8317333"
       height="1.8302397"
       class="B"><feGaussianBlur
         stdDeviation="1.774"
         id="feGaussianBlur16" /></filter><filter
       id="J"
       x="-0.54263262"
       y="-0.9353677"
       width="2.0852652"
       height="2.8707354"
       class="B"><feGaussianBlur
         stdDeviation="1.774"
         id="feGaussianBlur19" /></filter><filter
       id="K"
       x="-0.35383674"
       y="-0.35604041"
       width="1.7076735"
       height="1.7120808"
       class="B"><feGaussianBlur
         stdDeviation="1.774"
         id="feGaussianBlur22" /></filter><filter
       id="L"
       x="-0.26777483"
       y="-0.30544635"
       width="1.5355497"
       height="1.6108927"
       class="B"><feGaussianBlur
         stdDeviation="1.774"
         id="feGaussianBlur25" /></filter><filter
       id="M"
       x="-0.26860258"
       y="-0.33149091"
       width="1.5372052"
       height="1.6629818"
       class="B"><feGaussianBlur
         stdDeviation="1.774"
         id="feGaussianBlur28" /></filter><filter
       id="N"
       x="-0.34196854"
       y="-0.34847167"
       width="1.6839371"
       height="1.6969433"
       class="B"><feGaussianBlur
         stdDeviation="1.774"
         id="feGaussianBlur31" /></filter><filter
       id="O"
       x="-0.16365007"
       y="-0.21448844"
       width="1.3273001"
       height="1.4289769"
       class="B"><feGaussianBlur
         stdDeviation="1.774"
         id="feGaussianBlur34" /></filter><linearGradient
       id="A"
       x1="-1430.769"
       y1="-77.47"
       x2="-1409.955"
       y2="-77.47"
       spreadMethod="reflect"
       gradientUnits="userSpaceOnUse"><stop
         offset="0"
         stop-color="#ffd285"
         id="stop37" /><stop
         offset=".232"
         stop-color="#ffcd79"
         id="stop39" /><stop
         offset=".616"
         stop-color="#ffca73"
         id="stop41" /><stop
         offset=".808"
         stop-color="#ffd386"
         id="stop43" /><stop
         offset="1"
         stop-color="#ffc86e"
         id="stop45" /></linearGradient><linearGradient
       id="C"
       x1="-904.556"
       y1="-406.052"
       x2="-904.556"
       y2="184.159"
       gradientUnits="userSpaceOnUse"><stop
         offset="0"
         id="stop48" /><stop
         offset=".599"
         stop-color="#fff"
         id="stop50" /></linearGradient><clipPath
       id="D"><path
         d="M1799.132 1043.254a7.22 7.22 0 0 0-7.237 7.237v107.141l-44.726-44.726 10.889-10.886c-.771-2.729-3.59-5.548-6.319-6.319l-30.343-8.569-5.259-5.26a7.222 7.222 0 0 0-10.237 0l-3.45 3.45a7.222 7.222 0 0 0 0 10.237l5.259 5.259 8.569 30.343c.771 2.729 3.59 5.548 6.319 6.319l10.886-10.889 44.726 44.726h-107.141a7.22 7.22 0 0 0-7.237 7.237v4.88c0 4.01 3.227 7.24 7.237 7.24h107.141l-44.726 44.726-10.886-10.889c-2.729.771-5.548 3.586-6.319 6.315l-8.569 30.347-5.259 5.259a7.222 7.222 0 0 0 0 10.237l3.45 3.45a7.222 7.222 0 0 0 10.237 0l5.266-5.266 30.337-8.565c2.729-.771 5.548-3.586 6.319-6.315l-10.889-10.886 44.726-44.726v107.138c0 4.01 3.227 7.24 7.237 7.24h4.88c4.01 0 7.24-3.23 7.24-7.24v-107.138l44.726 44.726-10.889 10.886c.771 2.729 3.586 5.545 6.315 6.315l30.34 8.565 5.266 5.266a7.222 7.222 0 0 0 10.237 0l3.45-3.45a7.222 7.222 0 0 0 0-10.237l-5.266-5.266-8.565-30.34c-.771-2.729-3.586-5.545-6.315-6.315l-10.886 10.889-44.726-44.726h107.138c4.01 0 7.24-3.23 7.24-7.24v-4.88c0-4.01-3.23-7.237-7.24-7.237H1824.94l44.726-44.726 10.886 10.889c2.729-.771 5.545-3.59 6.315-6.319l8.565-30.337 5.266-5.266a7.222 7.222 0 0 0 0-10.237l-1.725-1.725-1.725-1.725a7.222 7.222 0 0 0-10.237 0l-5.259 5.26-30.347 8.569c-2.729.771-5.545 3.59-6.315 6.319l10.889 10.886-44.726 44.726V1050.49c0-4.01-3.23-7.237-7.24-7.237zm2.438 137.74h.01v.01h-.01z"
         stroke-width="1.534"
         id="path53" /></clipPath><clipPath
       id="F"><path
         d="M437.138 772.814c15.197 17.223 39.006 34.953 63.828 43.058 18.743 6.079 37.993 6.585 55.216-2.533 32.42 5.066 55.216.507 80.038 1.52-1.013 10.131 3.039 26.342-4.053 30.901-23.809 0-48.124 5.066-71.933 7.599-8.105 1.013-16.717-5.066-21.783 3.546 14.691 20.263 53.696 29.888 95.742 19.25 1.013 11.145 2.026 17.73-2.026 30.901-35.46 2.026-67.374 1.52-95.742 13.171 7.092 14.69 26.848 23.809 51.164 26.848 7.599-7.599 24.822-6.079 40.526-6.079-5.572 21.276 7.092 31.407 12.158 44.072-31.914 6.585-81.051 1.013-119.044 4.053.507 24.315 45.591 32.42 67.374 29.381 27.355-4.053 60.788-2.533 88.65-4.559 43.058-3.039 83.584-12.664 123.096-15.197 3.546-1.013-.507-9.118 3.546-9.625 8.105-.507 10.131 5.572 19.756 3.546 5.572-10.131-4.559-15.704-6.079-24.822-15.197-4.559-20.769-17.223-21.276-35.966-1.013-39.006 0-107.899 9.625-141.839-11.651-10.638-18.236-26.848-31.407-35.966-2.533 3.039-19.25 6.585-19.25 13.171-73.453 8.105-143.359 19.756-210.733 15.197-8.612-30.394 6.079-60.788 7.599-86.117.507-5.572-5.066-11.651-4.053-17.223 2.533-16.21 14.691-27.861 27.355-33.94 0 3.546-22.796 19.25-21.783 26.848 15.704-10.638 30.394-35.966 51.164-38.499 29.381-3.546 61.801 22.289 88.143 13.171-20.263-8.105-33.94-24.315-45.085-42.045-21.276-11.145-35.966-32.42-66.361-30.394-16.21 1.013-41.539 14.184-52.683 24.822-33.94 31.407-29.888 100.301-43.058 148.931-21.276 3.039-40.526 14.691-48.631 24.822zm165.648-85.61c-3.039 11.651-2.533 21.276 0 29.381 6.585 22.289 30.901 33.94 56.736 43.058-1.52-7.092-2.533-15.197-2.026-24.822-15.197-18.237-23.302-51.67-54.709-47.618zm70.92 19.756c7.599 23.302 36.473 36.98 52.177 45.085 5.066-40.019-20.263-73.453-50.657-74.466-4.559 11.145-4.053 20.769-1.52 29.381zm71.426-9.118c7.092 23.302 33.434 40.526 55.216 48.631-6.585-34.953-14.184-79.025-52.683-80.545-5.066 11.651-5.572 22.289-2.533 31.914zm76.492-47.111c-12.664 54.71 23.809 75.479 58.762 93.715 9.625-10.131-12.664-37.486-2.026-53.696-11.651-9.118-19.25-26.848-31.407-35.966-6.585-5.066-14.691-7.599-25.328-4.053zM675.226 935.423c27.861.507 44.578-8.105 75.985-5.572-3.039 8.105-1.013 25.835 4.053 31.914-14.691 17.73-49.644 16.717-75.985 19.756-2.533-14.184-5.066-28.368-4.053-46.098zm2.026-64.841c29.381-.507 48.124-3.039 73.959-5.572 4.053 8.612 1.52 28.368 0 32.42-28.368 2.533-45.085 8.612-73.959 7.599.507-12.664-2.026-23.302 0-34.447zm-2.026-59.269c28.874-8.105 53.19-7.599 78.012-9.625 1.52 10.131-3.546 23.302-1.52 31.914-27.861-2.026-45.591 11.145-74.466 10.131.507-12.158-3.546-19.25-2.026-32.42z"
         stroke-width="25.134"
         id="path56" /></clipPath><filter
       id="C-4"
       x="-0.01052904"
       y="-0.011053209"
       width="1.0210581"
       height="1.0221064"
       class="B"><feGaussianBlur
         stdDeviation="2.441"
         id="feGaussianBlur4-2" /></filter><filter
       id="E-0"
       x="-0.047960027"
       y="-0.048037478"
       width="1.0959201"
       height="1.096075"
       class="B"><feGaussianBlur
         stdDeviation="7.58"
         id="feGaussianBlur7-6" /></filter><filter
       id="G-0"
       x="-0.048002438"
       y="-0.048002441"
       width="1.0960049"
       height="1.0960049"
       class="B"><feGaussianBlur
         stdDeviation="5.51"
         id="feGaussianBlur10-8" /></filter><filter
       id="H-7"
       x="-0.15500487"
       y="-0.17417449"
       width="1.3100097"
       height="1.348349"
       class="B"><feGaussianBlur
         stdDeviation="1.005"
         id="feGaussianBlur13-3" /></filter><filter
       id="I-3"
       x="-0.16749596"
       y="-0.21712731"
       width="1.3349919"
       height="1.4342546"
       class="B"><feGaussianBlur
         stdDeviation="1.005"
         id="feGaussianBlur16-6" /></filter><filter
       id="J-4"
       x="-0.13868595"
       y="-0.16783961"
       width="1.2773719"
       height="1.3356792"
       class="B"><feGaussianBlur
         stdDeviation="1.005"
         id="feGaussianBlur19-3" /></filter><filter
       id="K-3"
       x="-0.19308802"
       y="-0.25104453"
       width="1.386176"
       height="1.5020891"
       class="B"><feGaussianBlur
         stdDeviation="1.005"
         id="feGaussianBlur22-1" /></filter><filter
       id="L-9"
       x="-0.10037904"
       y="-0.12979434"
       width="1.2007581"
       height="1.2595887"
       class="B"><feGaussianBlur
         stdDeviation="1.005"
         id="feGaussianBlur25-8" /></filter><filter
       id="M-7"
       x="-0.11922398"
       y="-0.14197023"
       width="1.238448"
       height="1.2839405"
       class="B"><feGaussianBlur
         stdDeviation="1.005"
         id="feGaussianBlur28-9" /></filter><linearGradient
       id="A-3"
       x1="228.547"
       y1="660.587"
       x2="270.281"
       y2="660.587"
       spreadMethod="reflect"
       gradientUnits="userSpaceOnUse"><stop
         offset="0"
         stop-color="#ffd285"
         id="stop31" /><stop
         offset=".232"
         stop-color="#ffcd79"
         id="stop33" /><stop
         offset=".616"
         stop-color="#ffca73"
         id="stop35" /><stop
         offset=".808"
         stop-color="#ffd386"
         id="stop37-1" /><stop
         offset="1"
         stop-color="#ffc86e"
         id="stop39-4" /></linearGradient><linearGradient
       id="B-4"
       x1="660.031"
       y1="176.668"
       x2="660.029"
       y2="1147.598"
       gradientUnits="userSpaceOnUse"><stop
         offset=".597"
         stop-color="#fff"
         id="stop42" /><stop
         offset="1"
         id="stop44" /></linearGradient><clipPath
       id="D-9"><path
         d="M-309.997 569.351c-12.933-14.657-33.194-29.746-54.318-36.643-15.951-5.173-32.332-5.604-46.99 2.155-27.59-4.311-46.99-.431-68.113-1.293.862-8.622-2.587-22.417 3.449-26.297 20.261 0 40.954-4.311 61.216-6.466 6.898-.862 14.226 4.311 18.537-3.018-12.502-17.244-45.696-25.435-81.477-16.382-.862-9.484-1.724-15.088 1.724-26.297 30.177-1.724 57.336-1.293 81.477-11.209-6.035-12.502-22.848-20.262-43.541-22.848-6.466 6.466-21.124 5.173-34.488 5.173 4.742-18.106-6.035-26.728-10.346-37.505 27.159-5.604 68.975-.862 101.308-3.449-.431-20.693-38.799-27.59-57.336-25.004-23.279 3.449-51.732 2.155-75.442 3.88-36.643 2.587-71.131 10.777-104.756 12.933-3.018.862.431 7.76-3.018 8.191-6.898.431-8.622-4.742-16.813-3.018-4.742 8.622 3.88 13.364 5.173 21.124 12.933 3.88 17.675 14.657 18.106 30.608.862 33.194 0 91.824-8.191 120.707 9.915 9.053 15.519 22.848 26.728 30.608 2.155-2.587 16.382-5.604 16.382-11.209 62.509-6.898 122-16.813 179.336-12.933 7.329 25.866-5.173 51.732-6.466 73.286-.431 4.742 4.311 9.915 3.449 14.657-2.155 13.795-12.502 23.71-23.279 28.883 0-3.018 19.399-16.382 18.537-22.848-13.364 9.053-25.866 30.608-43.541 32.763-25.004 3.018-52.594-18.968-75.011-11.209 17.244 6.898 28.883 20.693 38.368 35.781 18.106 9.484 30.608 27.59 56.474 25.866 13.795-.862 35.35-12.071 44.834-21.124 28.883-26.728 25.435-85.357 36.643-126.742 18.106-2.587 34.488-12.502 41.385-21.124zm-140.968 72.855c2.587-9.915 2.156-18.106 0-25.004-5.604-18.968-26.297-28.883-48.283-36.643 1.293 6.035 2.156 12.933 1.724 21.124 12.933 15.519 19.83 43.972 46.558 40.523zm-60.353-16.813c-6.466-19.83-31.039-31.47-44.403-38.368-4.311 34.057 17.244 62.509 43.11 63.371 3.88-9.484 3.449-17.675 1.293-25.004zm-60.785 7.76c-6.035-19.83-28.452-34.488-46.99-41.385 5.604 29.746 12.071 67.251 44.834 68.544 4.311-9.915 4.742-18.968 2.155-27.159zm-65.096 40.092c10.777-46.558-20.262-64.233-50.007-79.753-8.191 8.622 10.777 31.901 1.724 45.696 9.915 7.76 16.382 22.848 26.728 30.608 5.604 4.311 12.502 6.466 21.555 3.449zm124.587-242.276c-23.71-.431-37.936 6.898-64.664 4.742 2.587-6.898.862-21.986-3.449-27.159 12.502-15.088 42.247-14.226 64.664-16.813 2.155 12.071 4.311 24.141 3.449 39.23zm-1.724 55.18c-25.004.431-40.954 2.587-62.94 4.742-3.449-7.329-1.293-24.141 0-27.59 24.141-2.155 38.368-7.329 62.94-6.466-.431 10.777 1.724 19.83 0 29.315zm1.724 50.438c-24.572 6.898-45.265 6.466-66.389 8.191-1.293-8.622 3.018-19.83 1.293-27.159 23.71 1.724 38.799-9.484 63.371-8.622-.431 10.346 3.018 16.382 1.724 27.59z"
         stroke-width="21.389"
         id="path47" /></clipPath><clipPath
       id="F-9"><path
         d="M1799.132 1043.254a7.22 7.22 0 0 0-7.237 7.237v107.141l-44.726-44.726 10.889-10.886c-.771-2.729-3.59-5.548-6.319-6.319l-30.343-8.569-5.259-5.26a7.222 7.222 0 0 0-10.237 0l-3.45 3.45a7.222 7.222 0 0 0 0 10.237l5.259 5.259 8.569 30.343c.771 2.729 3.59 5.548 6.319 6.319l10.886-10.889 44.726 44.726h-107.141a7.22 7.22 0 0 0-7.237 7.237v4.88c0 4.01 3.227 7.24 7.237 7.24h107.141l-44.726 44.726-10.886-10.889c-2.729.771-5.548 3.586-6.319 6.315l-8.569 30.347-5.259 5.259a7.222 7.222 0 0 0 0 10.237l3.45 3.45a7.222 7.222 0 0 0 10.237 0l5.266-5.266 30.337-8.565c2.729-.771 5.548-3.586 6.319-6.315l-10.889-10.886 44.726-44.726v107.138c0 4.01 3.227 7.24 7.237 7.24h4.88c4.01 0 7.24-3.23 7.24-7.24v-107.138l44.726 44.726-10.889 10.886c.771 2.729 3.586 5.545 6.315 6.315l30.34 8.565 5.266 5.266a7.222 7.222 0 0 0 10.237 0l3.45-3.45a7.222 7.222 0 0 0 0-10.237l-5.266-5.266-8.565-30.34c-.771-2.729-3.586-5.545-6.315-6.315l-10.886 10.889-44.726-44.726h107.138c4.01 0 7.24-3.23 7.24-7.24v-4.88c0-4.01-3.23-7.237-7.24-7.237H1824.94l44.726-44.726 10.886 10.889c2.729-.771 5.545-3.59 6.315-6.319l8.565-30.337 5.266-5.266a7.222 7.222 0 0 0 0-10.237l-1.725-1.725-1.725-1.725a7.222 7.222 0 0 0-10.237 0l-5.259 5.26-30.347 8.569c-2.729.771-5.545 3.59-6.315 6.319l10.889 10.886-44.726 44.726V1050.49c0-4.01-3.23-7.237-7.24-7.237zm2.438 137.74h.01v.01h-.01z"
         stroke-width="1.534"
         id="path50" /></clipPath><filter
       inkscape:menu-tooltip="In and out glow with a possible offset and colorizable flood"
       inkscape:menu="Shadows and Glows"
       inkscape:label="Cutout Glow"
       style="color-interpolation-filters:sRGB;"
       id="filter1889"
       x="-0.014778484"
       y="-0.042572575"
       width="1.0500826"
       height="1.0603937"><feOffset
         dy="-10"
         dx="10"
         id="feOffset1879" /><feGaussianBlur
         stdDeviation="3"
         result="blur"
         id="feGaussianBlur1881" /><feFlood
         flood-color="rgb(0,0,0)"
         flood-opacity="0"
         result="flood"
         id="feFlood1883" /><feComposite
         in="flood"
         in2="SourceGraphic"
         operator="in"
         result="composite"
         id="feComposite1885" /><feBlend
         in="blur"
         in2="composite"
         mode="normal"
         id="feBlend1887" /></filter><filter
       inkscape:menu-tooltip="In and out glow with a possible offset and colorizable flood"
       inkscape:menu="Shadows and Glows"
       inkscape:label="Cutout Glow"
       style="color-interpolation-filters:sRGB"
       id="filter1889-1"
       x="-0.035304156"
       y="-0.017821078"
       width="1.0500826"
       height="1.0603937"><feOffset
         dy="10"
         dx="-10"
         id="feOffset1879-4" /><feGaussianBlur
         stdDeviation="3"
         result="blur"
         id="feGaussianBlur1881-6" /><feFlood
         flood-color="rgb(0,0,0)"
         flood-opacity="1"
         result="flood"
         id="feFlood1883-8" /><feComposite
         in="flood"
         in2="SourceGraphic"
         operator="in"
         result="composite"
         id="feComposite1885-3" /><feBlend
         in="blur"
         in2="composite"
         mode="normal"
         id="feBlend1887-6" /></filter><filter
       id="I-5"
       x="-0.16749596"
       y="-0.21712731"
       width="1.3349919"
       height="1.4342546"
       class="B"><feGaussianBlur
         stdDeviation="1.005"
         id="feGaussianBlur16-5" /></filter><clipPath
       clipPathUnits="userSpaceOnUse"
       id="clipPath992"><path
         d="m 896.25779,739.25422 q -11.25802,7.34221 -24.47395,5.38427 -12.72645,-1.46841 -25.94239,-7.83164 Q 833.115,730.4436 822.34646,724.0804 l -0.97895,-0.48948 q -7.83167,-12.72648 -14.68437,-29.85822 -6.36323,-17.13179 -11.25802,-34.75303 -4.89479,-17.62124 -7.83166,-31.81613 -6.85271,-19.08968 -14.68437,-44.54259 -7.83167,-25.94238 -15.66333,-54.33216 -7.83166,-28.38978 -16.1528,-55.80061 -7.83167,-27.41082 -15.17385,-49.92685 -8.81065,4.89479 -16.64229,10.76854 -7.83166,5.38427 -14.68439,8.81062 -0.48948,4.40531 2.44742,7.34218 3.42635,2.93688 7.34218,5.87375 3.91581,2.4474 6.85271,5.38427 3.42635,2.44739 4.89479,6.36323 -3.42638,23.00551 -3.42638,46.01102 0.48948,22.51603 0.97896,45.03206 0.97898,23.49499 0.97898,46.5005 0,23.00552 -3.91583,45.03207 -0.97896,5.87377 3.42635,5.38427 0,0.4895 -0.97898,1.95791 -1.46841,5.38427 -2.93685,11.7475 -0.97896,5.87377 2.93685,10.27908 8.81062,-5.38429 14.19489,-14.68439 5.38429,-9.3001 11.74752,-17.62125 0,-10.27905 -3.42635,-16.1528 -2.93688,-5.87375 -6.85271,-10.76854 -3.91583,-5.38427 -6.36325,-12.72645 17.13179,4.40531 30.8372,17.62124 13.70541,12.72645 21.04759,31.81613 7.34219,18.60023 5.38427,40.62676 -6.36322,5.38427 -11.25801,3.42635 -4.40531,-2.44737 -8.81062,-6.3632 -1.95792,-1.46846 -3.42636,-2.9369 -1.46843,-1.46841 -3.42635,-2.44737 -13.21593,18.1107 -23.00551,30.83715 -9.3001,12.72648 -26.43189,23.9845 -15.66333,-9.78958 -30.83715,-20.55812 -14.6844,-11.25804 -21.04762,-32.79512 7.34218,1.46844 14.19489,3.42638 7.34218,1.95789 13.21593,4.89479 8.32117,-37.20043 7.34221,-79.7851 -0.97898,-43.07414 -3.42638,-89.57465 -0.97893,-19.08968 -1.95789,-38.17936 -0.97898,-19.57915 -1.46846,-39.15831 -15.17385,13.70541 -34.26353,15.17385 -19.08968,0.97895 -33.77405,-11.25802 21.53708,-11.25802 45.52155,-23.49499 23.98449,-12.237 43.07417,-34.75301 2.44737,2.93685 5.38427,1.95792 3.42633,-1.46844 7.34216,-3.91586 1.95794,-1.46841 2.9369,-1.95789 0,-0.97896 -0.97896,-3.91583 -0.48948,-1.95794 -0.48948,-2.9369 0,-0.97896 2.93685,-0.97896 -1.95789,-6.85268 -6.85268,-10.27906 -4.40531,-3.91583 -6.36325,-11.25799 0.4895,-0.4895 1.46846,-1.46846 1.95789,-1.46844 1.46844,-3.91583 7.34218,3.91583 15.6633,5.38429 8.32117,0.97896 16.15283,1.46841 12.23697,0.97896 22.51603,4.40534 10.76854,2.93685 16.15281,17.62122 -11.25802,9.7896 -22.02655,19.0897 -10.76854,9.3001 -24.96343,10.27906 13.21593,12.23698 22.02655,30.3477 8.81062,17.62124 15.66333,37.68988 7.34218,19.57916 15.17385,38.17936 8.32114,18.6002 20.06863,32.79509 20.06864,66.07966 64.12175,108.66435 0.48948,6.3632 4.40531,12.72643 4.40531,5.87375 8.81062,12.237 4.89479,6.3632 6.85271,14.68437 0.48947,2.93687 2.44739,3.42635 2.44739,0.48948 3.91583,1.95789 0,3.42638 0.48948,6.36323 0.48948,2.9369 0.97896,5.87377 0.97896,4.40531 1.46844,8.81062 0.48947,3.91581 -0.48948,8.32112 z M 600.12299,380.46611 q 0,1.46844 0,2.9369 0,1.46844 0,2.93685 0.48948,4.89479 0,9.3001 0,4.40534 -0.97896,7.34221 -14.68437,6.36323 -28.38978,14.19489 -13.21593,7.83164 -21.53707,22.02655 1.95791,7.83167 8.81062,13.21594 7.34218,4.89479 10.76853,12.23697 3.42636,7.34219 3.42636,16.64229 0,8.81062 -0.48948,18.11072 -0.48948,5.87374 -0.48948,11.25801 0,5.38427 0.48948,10.76854 0.48948,5.87375 1.46843,11.25802 0.97896,4.89479 2.4474,10.27905 1.95791,8.81063 2.93687,17.62125 1.46844,8.81062 0.97896,19.57916 -0.48948,10.76853 -0.48948,22.02655 0,11.25802 0.48948,22.51603 0.48948,20.06864 0,39.15832 -0.48948,19.08968 -4.89479,35.73199 -4.40531,16.64226 -15.17385,28.87926 0.48948,2.44739 0,3.91583 0,1.46844 -0.48948,2.44737 -0.97895,2.44742 -0.97895,4.40531 -4.89479,4.89479 -9.78958,9.30013 -4.89479,4.89479 -8.32115,11.74749 -7.83166,4.40531 -12.72645,1.46844 -4.40531,-2.93688 -8.81062,-8.32114 -1.95792,-2.4474 -4.40531,-4.89479 -1.95792,-1.95792 -4.40531,-3.91586 -6.36323,-4.89479 -14.68437,-11.25799 -7.83166,-6.36323 -14.19489,-13.21596 -5.87375,-7.34216 -6.85271,-13.21593 -1.46843,-2.93685 -4.40531,-3.42633 -2.44739,-0.48948 -3.91583,-5.38427 4.40531,0 8.32114,0.97896 4.40532,0.97893 8.81063,2.44737 6.8527,1.95794 13.70541,3.42635 6.8527,0.97896 15.17384,-0.97893 13.21594,-3.91586 20.06864,-17.62127 6.85271,-13.70541 9.78958,-33.28457 1.95792,-13.70541 2.93688,-30.34769 0.97895,-16.64229 0.97895,-33.28457 0,-17.13177 -0.48948,-29.85822 0,-4.40531 -0.48947,-9.78958 -0.48948,-5.38427 -0.48948,-5.38427 -15.17385,11.7475 -29.85822,32.79509 -14.68437,21.0476 -26.43186,41.11624 -7.83167,2.93687 -10.76854,9.3001 -2.93688,6.36322 -4.89479,13.21593 -3.42635,1.95791 -7.34219,5.87374 -3.42635,3.42636 -6.8527,7.34219 -5.87375,6.8527 -12.72645,13.21593 -6.85271,5.87375 -15.66333,8.32114 -8.32114,1.95792 -19.57916,-3.42635 18.11072,-25.45291 35.73196,-51.88477 17.62125,-26.92134 40.62676,-49.92685 2.44739,-15.66333 14.19489,-30.3477 12.23697,-15.17385 21.04759,-29.85822 6.85271,-10.76853 10.76854,-23.00551 4.40531,-12.72645 -4.40531,-24.96342 -11.25802,6.36322 -21.04759,15.66332 -9.30011,8.81062 -19.57916,14.68437 -8.81062,4.89479 -19.08968,5.87375 -9.78958,0.48948 -23.00551,-5.87375 0.97895,-2.93687 0,-4.89479 -0.97896,-1.95791 -4.89479,-0.48948 2.93687,-4.89479 6.8527,-5.87374 3.91583,-1.46844 6.85271,-2.4474 2.93687,-1.46844 3.42635,-4.89479 2.44739,-0.97896 3.42635,0 0.97896,0.48948 1.95792,1.46844 1.46844,2.44739 3.91583,1.95791 -3.91583,-5.87374 1.46844,-11.25801 1.46843,-0.48948 3.42635,2.44739 1.46844,1.95792 3.42635,2.93688 2.4474,0.48948 8.81062,-7.83167 5.87375,-7.83166 12.72646,-18.11072 6.8527,-10.27906 11.74749,-12.23697 -5.38427,-8.32117 -13.21593,-16.15281 -7.83166,-7.83166 -14.19489,-16.15283 -6.36323,-8.32112 -8.32114,-18.11072 15.66332,3.91583 27.9003,13.21593 12.23697,8.81065 23.49499,18.60023 7.83166,-3.42638 12.72645,-9.78958 5.38427,-6.85271 11.7475,-11.7475 -2.4474,-6.85273 -8.32115,-10.27908 -5.87374,-3.42633 -7.83166,-11.25802 17.62124,-9.78958 35.24249,-5.87375 18.11072,3.42638 32.79509,14.68437 z m 50.41633,118.45394 q 0,4.40531 0,9.3001 0.48948,4.40531 0.48948,9.3001 0.97896,32.79509 0.97896,66.56914 0,33.28457 -4.40529,61.18487 -4.40533,27.9003 -16.64231,44.05313 -0.48948,5.38427 -0.48948,6.3632 0,0.48948 0.97896,6.36323 -3.42635,0.48948 -4.40531,2.44742 -0.48948,1.95789 -0.48948,4.40531 0,1.95789 -0.97896,3.42635 -0.48948,1.46844 -3.42635,0.97896 2.93687,2.93685 1.95792,4.40531 -0.97896,1.46844 -2.93688,2.93685 -1.95791,1.46846 -3.91583,3.91583 -1.95791,2.44742 -0.97896,7.34221 -8.81062,0.97896 -13.70541,6.36323 -4.89479,5.38427 -9.3001,11.25799 -1.46844,0.97898 -1.46844,-2.93685 0.48948,-4.89479 -1.95791,-4.40531 1.95791,-1.95794 1.95791,-3.42635 0,-1.95792 -0.48947,-3.42638 -0.48948,-2.44737 0,-3.91581 0.97895,-1.46846 7.83166,-2.44739 0.97896,-2.9369 -1.46844,-3.91586 -2.93687,-0.48948 -1.95791,-3.42633 2.93687,-0.97898 4.89479,-7.34218 1.95791,-6.36323 3.91583,-13.70544 2.44739,-7.83166 5.87375,-12.72645 0,-1.95792 -0.97896,-0.97896 7.34218,-18.6002 11.25801,-45.52154 3.91584,-26.92135 4.40531,-58.248 0.48948,-31.81613 -2.93687,-65.1007 -4.89479,-8.32114 -9.78958,-13.70541 -4.89479,-5.87375 -9.3001,-12.72646 -3.91583,-6.8527 -6.8527,-18.6002 15.17384,4.89479 29.85821,9.78958 15.17385,4.89479 24.47395,16.15281 z"
         id="path994"
         style="font-size:489.479px;font-family:'Yuji Mai';-inkscape-font-specification:'Yuji Mai';fill:#29303d;stroke-width:27.7812" /></clipPath></defs><path
     d="m-2681.73 217.274 26.181 28.949 172.576 56.161 193.177-61.463 89.581-450.194-45.894-49.39z"
     transform="matrix(-2.0051 0 0 2.0051 -4364.078 706.823)"
     opacity=".5"
     filter="url(#B)"
     id="path61" /><path
     d="m-1220.686-363.581-176.123 60.03-8.809 28.459-84.914 494.898 10.349 7.986h518.995l10.348-7.986-84.914-495.039-8.809-28.459z"
     fill="url(#A)"
     transform="rotate(180 -893.82 266.77) scale(2.0051)"
     id="path63" /><path
     d="m-905.02-407.213-176.123 59.888-8.809 26.778-84.914 496.72 10.349 7.986h518.995l10.349-7.986-84.914-494.898-8.809-28.601z"
     opacity=".25"
     fill="url(#C)"
     transform="rotate(180 -577.344 223.027) scale(2.0051)"
     style="mix-blend-mode:overlay"
     id="path65" /><path
     d="m139.629 97.854.043-21.064-20.75 16.013 20.707 5.052zm891.185 987.285-17.664-13.248L660 1188.821v16.402z"
     opacity=".4"
     id="path67" /><path
     d="m289.186 1085.139 17.664-13.248L660 1188.821v16.402z"
     opacity=".6"
     id="path69" /><path
     d="m289.186 1085.139 17.664-13.248L139.629 97.854l-20.707-5.052z"
     opacity=".6"
     id="path71" /><g
     fill="#fff"
     id="g79"><path
       d="m1030.814 1085.139-17.664-13.248 167.221-974.037 20.707-5.052z"
       opacity=".3"
       id="path73" /><path
       d="m1180.371 97.854-.043-21.064 20.75 16.013-20.707 5.052z"
       opacity=".8"
       id="path75" /><path
       d="M1180.371 97.854H139.629l.043-21.064h1040.656l.043 21.064z"
       opacity=".3"
       id="path77" /></g><path
     d="m306.849 1142.487-17.663-57.348L660 1205.223l370.814-120.084-17.663 57.348L660 1262.571l-353.151-120.084z"
     opacity=".7"
     id="path81" /><path
     d="M656.427 150.742a10.4 10.4 0 0 0-10.425 10.425v154.348l-64.433-64.433 15.687-15.682c-1.11-3.931-5.172-7.993-9.103-9.103l-43.713-12.344-7.577-7.577a10.405 10.405 0 0 0-14.747 0l-4.971 4.971a10.405 10.405 0 0 0 0 14.747l7.577 7.577 12.344 43.713c1.11 3.932 5.171 7.993 9.103 9.103l15.682-15.687 64.433 64.433H471.936a10.4 10.4 0 0 0-10.425 10.425v7.029c0 5.777 4.648 10.43 10.425 10.43h154.348l-64.433 64.433-15.682-15.687c-3.931 1.11-7.993 5.167-9.103 9.098l-12.344 43.717-7.577 7.577a10.405 10.405 0 0 0 0 14.747l4.971 4.971a10.405 10.405 0 0 0 14.747 0l7.587-7.587 43.703-12.339c3.931-1.11 7.993-5.167 9.103-9.098l-15.687-15.682 64.433-64.433v154.343c0 5.777 4.648 10.43 10.425 10.43h7.03a10.41 10.41 0 0 0 10.43-10.43V382.835l64.433 64.433-15.687 15.682c1.11 3.931 5.167 7.988 9.098 9.098l43.708 12.339 7.586 7.587a10.405 10.405 0 0 0 14.747 0l4.971-4.971a10.405 10.405 0 0 0 0-14.747l-7.587-7.586-12.339-43.708c-1.11-3.931-5.167-7.988-9.098-9.098l-15.682 15.687-64.433-64.433h154.343a10.41 10.41 0 0 0 10.43-10.43v-7.029a10.404 10.404 0 0 0-10.43-10.425H693.604l64.433-64.433 15.682 15.687c3.931-1.11 7.988-5.172 9.098-9.103l12.339-43.703 7.587-7.586a10.405 10.405 0 0 0 0-14.747l-2.485-2.485-2.485-2.485a10.405 10.405 0 0 0-14.747 0l-7.577 7.577-43.717 12.344c-3.932 1.11-7.988 5.171-9.098 9.103l15.687 15.682-64.433 64.433V161.167a10.404 10.404 0 0 0-10.43-10.425zm3.512 198.429h.014v.014h-.014z"
     fill="#340000"
     id="path83"
     style="fill:#000000;fill-opacity:1" /><path
     d="M1789.451 1052.929a7.22 7.22 0 0 0-7.237 7.237v107.141l-44.726-44.726 10.889-10.886c-.771-2.729-3.59-5.548-6.319-6.319l-30.343-8.569-5.259-5.26a7.222 7.222 0 0 0-10.237 0l-3.45 3.45a7.222 7.222 0 0 0 0 10.237l5.259 5.259 8.569 30.343c.771 2.729 3.59 5.548 6.319 6.319l10.886-10.889 44.726 44.726h-107.141a7.22 7.22 0 0 0-7.237 7.237v4.88c0 4.01 3.227 7.24 7.237 7.24h107.141l-44.726 44.726-10.886-10.889c-2.729.771-5.548 3.586-6.319 6.315l-8.569 30.347-5.259 5.259a7.222 7.222 0 0 0 0 10.237l3.45 3.45a7.222 7.222 0 0 0 10.237 0l5.266-5.266 30.336-8.565c2.729-.771 5.548-3.586 6.319-6.315l-10.889-10.886 44.726-44.726v107.138c0 4.01 3.227 7.24 7.237 7.24h4.88c4.01 0 7.24-3.23 7.24-7.24v-107.138l44.726 44.726-10.889 10.886c.771 2.729 3.586 5.545 6.315 6.315l30.34 8.565 5.266 5.266a7.222 7.222 0 0 0 10.237 0l3.45-3.45a7.222 7.222 0 0 0 0-10.237l-5.266-5.266-8.565-30.34c-.771-2.729-3.586-5.545-6.315-6.315l-10.886 10.889-44.726-44.726h107.138c4.01 0 7.24-3.23 7.24-7.24v-4.88c0-4.01-3.23-7.237-7.24-7.237h-107.138l44.726-44.726 10.886 10.889c2.729-.771 5.545-3.59 6.315-6.319l8.565-30.337 5.266-5.266a7.222 7.222 0 0 0 0-10.237l-1.725-1.725-1.725-1.725a7.222 7.222 0 0 0-10.237 0l-5.259 5.26-30.347 8.569c-2.729.771-5.545 3.59-6.315 6.319l10.889 10.886-44.726 44.726v-107.141c0-4.01-3.23-7.237-7.24-7.237zm2.438 137.74h.01v.01h-.01z"
     clip-path="url(#D)"
     fill="#9b0000"
     filter="url(#E)"
     transform="translate(-1935.403 -1352.17) scale(1.4406)"
     id="path85"
     style="fill:#29303d;fill-opacity:1" /><path
     d="m 410.35159,625.87935 q 11.25802,-7.34219 24.47395,-5.38427 12.72645,1.46843 25.94239,7.83166 12.72645,6.36323 23.49499,12.72645 l 0.97896,0.48948 q 7.83166,12.72646 14.68437,29.85822 6.36322,17.13177 11.25802,34.75301 4.89479,17.62125 7.83166,31.81614 6.85271,19.08968 14.68437,44.54259 7.83166,25.94238 15.66333,54.33217 7.83166,28.38978 16.1528,55.8006 7.83167,27.41083 15.17385,49.92686 8.81063,-4.89479 16.64229,-10.76854 7.83166,-5.38427 14.68437,-8.81062 0.48948,-4.40531 -2.4474,-7.34218 -3.42635,-2.93688 -7.34218,-5.87375 -3.91583,-2.4474 -6.85271,-5.38427 -3.42635,-2.4474 -4.89479,-6.36323 3.42636,-23.00551 3.42636,-46.01103 -0.48948,-22.51603 -0.97896,-45.03206 -0.97896,-23.495 -0.97896,-46.50051 0,-23.00551 3.91583,-45.03207 0.97896,-5.87375 -3.42635,-5.38427 0,-0.48948 0.97896,-1.95791 1.46843,-5.38427 2.93687,-11.7475 0.97896,-5.87375 -2.93687,-10.27906 -8.81062,5.38427 -14.19489,14.68437 -5.38427,9.3001 -11.7475,17.62125 0,10.27906 3.42635,16.1528 2.93688,5.87375 6.85271,10.76854 3.91583,5.38427 6.36323,12.72646 -17.13177,-4.40531 -30.83718,-17.62125 -13.70541,-12.72645 -21.0476,-31.81613 -7.34218,-18.60021 -5.38427,-40.62676 6.36323,-5.38427 11.25802,-3.42635 4.40531,2.44739 8.81062,6.36322 1.95792,1.46844 3.42636,2.93688 1.46843,1.46843 3.42635,2.44739 13.21593,-18.11072 23.00551,-30.83717 9.3001,-12.72646 26.43187,-23.98448 15.66333,9.78958 30.83717,20.55812 14.68438,11.25802 21.0476,32.7951 -7.34218,-1.46844 -14.19489,-3.42636 -7.34218,-1.95791 -13.21593,-4.89479 -8.32115,37.20041 -7.34219,79.78508 0.97896,43.07415 3.42636,89.57466 0.97895,19.08968 1.95791,38.17936 0.97896,19.57916 1.46844,39.15832 15.17385,-13.70541 34.26353,-15.17385 19.08968,-0.97896 33.77405,11.25802 -21.53708,11.25802 -45.52155,23.49499 -23.98447,12.23698 -43.07415,34.75301 -2.44739,-2.93687 -5.38427,-1.95792 -3.42635,1.46844 -7.34218,3.91584 -1.95792,1.46843 -2.93688,1.95791 0,0.97896 0.97896,3.91583 0.48948,1.95792 0.48948,2.93688 0,0.97896 -2.93687,0.97896 1.95791,6.8527 6.8527,10.27906 4.40531,3.91583 6.36323,11.25805 -0.48948,0.4894 -1.46844,1.4684 -1.95791,1.4684 -1.46844,3.9158 -7.34218,-3.9158 -15.66332,-5.3842 -8.32115,-0.979 -16.15281,-1.46847 -12.23698,-0.97896 -22.51603,-4.40532 -10.76854,-2.93687 -16.15281,-17.62124 11.25802,-9.78958 22.02655,-19.08968 10.76854,-9.3001 24.96343,-10.27906 -13.21593,-12.23698 -22.02655,-30.3477 -8.81062,-17.62124 -15.66333,-37.68988 -7.34219,-19.57916 -15.17385,-38.17936 -8.32114,-18.60021 -20.06864,-32.7951 -20.06864,-66.07966 -64.12175,-108.66434 -0.48948,-6.36322 -4.40531,-12.72645 -4.40531,-5.87375 -8.81062,-12.23698 -4.89479,-6.36322 -6.85271,-14.68437 -0.48948,-2.93687 -2.44739,-3.42635 -2.4474,-0.48948 -3.91583,-1.95791 0,-3.42636 -0.48948,-6.36323 -0.48948,-2.93688 -0.97896,-5.87375 -0.97896,-4.40531 -1.46844,-8.81062 -0.48948,-3.91583 0.48948,-8.32114 z m 296.1348,358.78811 q 0,-1.46844 0,-2.93688 0,-1.46844 0,-2.93687 -0.48948,-4.89479 0,-9.3001 0,-4.40532 0.97896,-7.34219 14.68437,-6.36323 28.38978,-14.19489 13.21593,-7.83166 21.53707,-22.02656 -1.95791,-7.83166 -8.81062,-13.21593 -7.34218,-4.89479 -10.76854,-12.23697 -3.42635,-7.34219 -3.42635,-16.64229 0,-8.81062 0.48948,-18.11072 0.48948,-5.87375 0.48948,-11.25802 0,-5.38427 -0.48948,-10.76854 -0.48948,-5.87375 -1.46844,-11.25802 -0.97896,-4.89479 -2.44739,-10.27905 -1.95792,-8.81063 -2.93688,-17.62125 -1.46843,-8.81062 -0.97895,-19.57916 0.48947,-10.76854 0.48947,-22.02655 0,-11.25802 -0.48947,-22.51604 -0.48948,-20.06864 0,-39.15832 0.48947,-19.08968 4.89479,-35.73197 4.40531,-16.64228 15.17384,-28.87926 -0.48947,-2.44739 0,-3.91583 0,-1.46844 0.48948,-2.44739 0.97896,-2.4474 0.97896,-4.40531 4.89479,-4.89479 9.78958,-9.30011 4.89479,-4.89479 8.32115,-11.74749 7.83166,-4.40531 12.72645,-1.46844 4.40531,2.93687 8.81062,8.32114 1.95792,2.4474 4.40531,4.89479 1.95792,1.95792 4.40531,3.91584 6.36323,4.89479 14.68437,11.25801 7.83167,6.36323 14.19489,13.21594 5.87375,7.34218 6.85271,13.21593 1.46844,2.93687 4.40531,3.42635 2.4474,0.48948 3.91583,5.38427 -4.40531,0 -8.32114,-0.97896 -4.40531,-0.97895 -8.81062,-2.44739 -6.85271,-1.95792 -13.70541,-3.42635 -6.85271,-0.97896 -15.17385,0.97895 -13.21594,3.91584 -20.06864,17.62125 -6.85271,13.70541 -9.78958,33.28457 -1.95792,13.70541 -2.93688,30.3477 -0.97895,16.64228 -0.97895,33.28457 0,17.13177 0.48948,29.85822 0,4.40531 0.48947,9.78958 0.48948,5.38427 0.48948,5.38427 15.17385,-11.7475 29.85822,-32.79509 14.68437,-21.0476 26.43187,-41.11624 7.83166,-2.93687 10.76854,-9.3001 2.93687,-6.36323 4.89479,-13.21594 3.42635,-1.95791 7.34218,-5.87374 3.42635,-3.42636 6.85271,-7.34219 5.87375,-6.8527 12.72645,-13.21593 6.85271,-5.87375 15.66333,-8.32114 8.32114,-1.95792 19.57916,3.42635 -18.11072,25.45291 -35.73197,51.88477 -17.62124,26.92135 -40.62675,49.92686 -2.4474,15.66333 -14.1949,30.3477 -12.23697,15.17385 -21.04759,29.85822 -6.85271,10.76854 -10.76854,23.00551 -4.40531,12.72646 4.40531,24.96343 11.25802,-6.36323 21.0476,-15.66333 9.3001,-8.81062 19.57916,-14.68437 8.81062,-4.89479 19.08968,-5.87374 9.78958,-0.48948 23.00551,5.87374 -0.97896,2.93688 0,4.89479 0.97896,1.95792 4.89479,0.48948 -2.93687,4.89479 -6.8527,5.87375 -3.91584,1.46844 -6.85271,2.4474 -2.93687,1.46843 -3.42635,4.89479 -2.4474,0.97895 -3.42636,0 -0.97895,-0.48948 -1.95791,-1.46844 -1.46844,-2.4474 -3.91583,-1.95792 3.91583,5.87375 -1.46844,11.25802 -1.46844,0.48948 -3.42635,-2.4474 -1.46844,-1.95791 -3.42636,-2.93687 -2.44739,-0.48948 -8.81062,7.83166 -5.87375,7.83167 -12.72645,18.11073 -6.85271,10.27906 -11.7475,12.23697 5.38427,8.32115 13.21593,16.15281 7.83167,7.83166 14.19489,16.15281 6.36323,8.32114 8.32115,18.11072 -15.66333,-3.91583 -27.90031,-13.21593 -12.23697,-8.81063 -23.49499,-18.60021 -7.83166,3.42636 -12.72645,9.78958 -5.38427,6.85271 -11.7475,11.7475 2.4474,6.85271 8.32115,10.27906 5.87374,3.42635 7.83166,11.25802 -17.62125,9.78962 -35.24249,5.87375 -18.11072,-3.42636 -32.79509,-14.68437 z M 656.07005,866.21354 q 0,-4.40531 0,-9.30011 -0.48948,-4.40531 -0.48948,-9.3001 -0.97896,-32.79509 -0.97896,-66.56914 0,-33.28457 4.40531,-61.18488 4.40532,-27.9003 16.64229,-44.05311 0.48948,-5.38427 0.48948,-6.36322 0,-0.48948 -0.97896,-6.36323 3.42635,-0.48948 4.40531,-2.4474 0.48948,-1.95791 0.48948,-4.40531 0,-1.95791 0.97896,-3.42635 0.48948,-1.46844 3.42635,-0.97896 -2.93687,-2.93687 -1.95791,-4.40531 0.97895,-1.46844 2.93687,-2.93687 1.95792,-1.46844 3.91583,-3.91583 1.95792,-2.4474 0.97896,-7.34219 8.81062,-0.97896 13.70541,-6.36323 4.89479,-5.38427 9.3001,-11.25801 1.46844,-0.97896 1.46844,2.93687 -0.48948,4.89479 1.95792,4.40531 -1.95792,1.95792 -1.95792,3.42635 0,1.95792 0.48948,3.42636 0.48948,2.44739 0,3.91583 -0.97896,1.46844 -7.83166,2.44739 -0.97896,2.93688 1.46843,3.91584 2.93688,0.48948 1.95792,3.42635 -2.93688,0.97896 -4.89479,7.34218 -1.95792,6.36323 -3.91583,13.70542 -2.4474,7.83166 -5.87375,12.72645 0,1.95792 0.97896,0.97896 -7.34219,18.6002 -11.25802,45.52155 -3.91583,26.92134 -4.40531,58.248 -0.48948,31.81613 2.93687,65.1007 4.89479,8.32115 9.78958,13.70542 4.89479,5.87375 9.3001,12.72645 3.91584,6.85271 6.85271,18.6002 -15.17385,-4.89479 -29.85822,-9.78958 -15.17385,-4.89479 -24.47395,-16.1528 z"
     id="path411-8"
     style="font-size:489.479px;font-family:'Yuji Mai';-inkscape-font-specification:'Yuji Mai';fill:#000000;stroke-width:27.7812;fill-opacity:1" /><path
     d="m 896.25779,739.25423 q -11.25802,7.34219 -24.47395,5.38427 -12.72645,-1.46843 -25.94239,-7.83166 -12.72645,-6.36323 -23.49499,-12.72645 l -0.97896,-0.48948 q -7.83166,-12.72646 -14.68437,-29.85822 -6.36322,-17.13177 -11.25802,-34.75301 -4.89479,-17.62125 -7.83166,-31.81614 -6.85271,-19.08968 -14.68437,-44.54259 -7.83166,-25.94238 -15.66333,-54.33217 -7.83166,-28.38978 -16.1528,-55.8006 -7.83167,-27.41083 -15.17385,-49.92686 -8.81063,4.89479 -16.64229,10.76854 -7.83166,5.38427 -14.68437,8.81062 -0.48948,4.40531 2.4474,7.34218 3.42635,2.93688 7.34218,5.87375 3.91583,2.4474 6.85271,5.38427 3.42635,2.4474 4.89479,6.36323 -3.42636,23.00551 -3.42636,46.01103 0.48948,22.51603 0.97896,45.03206 0.97896,23.495 0.97896,46.50051 0,23.00551 -3.91583,45.03207 -0.97896,5.87375 3.42635,5.38427 0,0.48948 -0.97896,1.95791 -1.46843,5.38427 -2.93687,11.7475 -0.97896,5.87375 2.93687,10.27906 8.81062,-5.38427 14.19489,-14.68437 5.38427,-9.3001 11.7475,-17.62125 0,-10.27906 -3.42635,-16.1528 -2.93688,-5.87375 -6.85271,-10.76854 -3.91583,-5.38427 -6.36323,-12.72646 17.13177,4.40531 30.83718,17.62125 13.70541,12.72645 21.0476,31.81613 7.34218,18.60021 5.38427,40.62676 -6.36323,5.38427 -11.25802,3.42635 -4.40531,-2.44739 -8.81062,-6.36322 -1.95792,-1.46844 -3.42636,-2.93688 -1.46843,-1.46843 -3.42635,-2.44739 -13.21593,18.11072 -23.00551,30.83717 -9.3001,12.72646 -26.43187,23.98448 -15.66333,-9.78958 -30.83717,-20.55812 -14.68438,-11.25802 -21.0476,-32.7951 7.34218,1.46844 14.19489,3.42636 7.34218,1.95791 13.21593,4.89479 8.32115,-37.20041 7.34219,-79.78508 -0.97896,-43.07415 -3.42636,-89.57466 -0.97895,-19.08968 -1.95791,-38.17936 -0.97896,-19.57916 -1.46844,-39.15832 -15.17385,13.70541 -34.26353,15.17385 -19.08968,0.97896 -33.77405,-11.25802 21.53708,-11.25802 45.52155,-23.49499 23.98447,-12.23698 43.07415,-34.75301 2.44739,2.93687 5.38427,1.95792 3.42635,-1.46844 7.34218,-3.91584 1.95792,-1.46843 2.93688,-1.95791 0,-0.97896 -0.97896,-3.91583 -0.48948,-1.95792 -0.48948,-2.93688 0,-0.97896 2.93687,-0.97896 -1.95791,-6.8527 -6.8527,-10.27906 -4.40531,-3.91583 -6.36323,-11.25801 0.48948,-0.48948 1.46844,-1.46844 1.95791,-1.46844 1.46844,-3.91583 7.34218,3.91583 15.66332,5.38427 8.32115,0.97896 16.15281,1.46843 12.23698,0.97896 22.51603,4.40532 10.76854,2.93687 16.15281,17.62124 -11.25802,9.78958 -22.02655,19.08968 -10.76854,9.3001 -24.96343,10.27906 13.21593,12.23698 22.02655,30.3477 8.81062,17.62124 15.66333,37.68988 7.34219,19.57916 15.17385,38.17936 8.32114,18.60021 20.06864,32.7951 20.06864,66.07966 64.12175,108.66434 0.48948,6.36322 4.40531,12.72645 4.40531,5.87375 8.81062,12.23698 4.89479,6.36322 6.85271,14.68437 0.48948,2.93687 2.44739,3.42635 2.4474,0.48948 3.91583,1.95791 0,3.42636 0.48948,6.36323 0.48948,2.93688 0.97896,5.87375 0.97896,4.40531 1.46844,8.81062 0.48948,3.91583 -0.48948,8.32114 z M 600.12299,380.46612 q 0,1.46844 0,2.93688 0,1.46844 0,2.93687 0.48948,4.89479 0,9.3001 0,4.40532 -0.97896,7.34219 -14.68437,6.36323 -28.38978,14.19489 -13.21593,7.83166 -21.53707,22.02656 1.95791,7.83166 8.81062,13.21593 7.34218,4.89479 10.76854,12.23697 3.42635,7.34219 3.42635,16.64229 0,8.81062 -0.48948,18.11072 -0.48948,5.87375 -0.48948,11.25802 0,5.38427 0.48948,10.76854 0.48948,5.87375 1.46844,11.25802 0.97896,4.89479 2.44739,10.27905 1.95792,8.81063 2.93688,17.62125 1.46843,8.81062 0.97895,19.57916 -0.48947,10.76854 -0.48947,22.02655 0,11.25802 0.48947,22.51604 0.48948,20.06864 0,39.15832 -0.48947,19.08968 -4.89479,35.73197 -4.40531,16.64228 -15.17384,28.87926 0.48947,2.44739 0,3.91583 0,1.46844 -0.48948,2.44739 -0.97896,2.4474 -0.97896,4.40531 -4.89479,4.89479 -9.78958,9.30011 -4.89479,4.89479 -8.32115,11.74749 -7.83166,4.40531 -12.72645,1.46844 -4.40531,-2.93687 -8.81062,-8.32114 -1.95792,-2.4474 -4.40531,-4.89479 -1.95792,-1.95792 -4.40531,-3.91584 -6.36323,-4.89479 -14.68437,-11.25801 -7.83167,-6.36323 -14.19489,-13.21594 -5.87375,-7.34218 -6.85271,-13.21593 -1.46844,-2.93687 -4.40531,-3.42635 -2.4474,-0.48948 -3.91583,-5.38427 4.40531,0 8.32114,0.97896 4.40531,0.97895 8.81062,2.44739 6.85271,1.95792 13.70541,3.42635 6.85271,0.97896 15.17385,-0.97895 13.21594,-3.91584 20.06864,-17.62125 6.85271,-13.70541 9.78958,-33.28457 1.95792,-13.70541 2.93688,-30.3477 0.97895,-16.64228 0.97895,-33.28457 0,-17.13177 -0.48948,-29.85822 0,-4.40531 -0.48947,-9.78958 -0.48948,-5.38427 -0.48948,-5.38427 -15.17385,11.7475 -29.85822,32.79509 -14.68437,21.0476 -26.43187,41.11624 -7.83166,2.93687 -10.76854,9.3001 -2.93687,6.36323 -4.89479,13.21594 -3.42635,1.95791 -7.34218,5.87374 -3.42635,3.42636 -6.85271,7.34219 -5.87375,6.8527 -12.72645,13.21593 -6.85271,5.87375 -15.66333,8.32114 -8.32114,1.95792 -19.57916,-3.42635 18.11072,-25.45291 35.73197,-51.88477 17.62124,-26.92135 40.62675,-49.92686 2.4474,-15.66333 14.1949,-30.3477 12.23697,-15.17385 21.04759,-29.85822 6.85271,-10.76854 10.76854,-23.00551 4.40531,-12.72646 -4.40531,-24.96343 -11.25802,6.36323 -21.0476,15.66333 -9.3001,8.81062 -19.57916,14.68437 -8.81062,4.89479 -19.08968,5.87374 -9.78958,0.48948 -23.00551,-5.87374 0.97896,-2.93688 0,-4.89479 -0.97896,-1.95792 -4.89479,-0.48948 2.93687,-4.89479 6.8527,-5.87375 3.91584,-1.46844 6.85271,-2.4474 2.93687,-1.46843 3.42635,-4.89479 2.4474,-0.97895 3.42636,0 0.97895,0.48948 1.95791,1.46844 1.46844,2.4474 3.91583,1.95792 -3.91583,-5.87375 1.46844,-11.25802 1.46844,-0.48948 3.42635,2.4474 1.46844,1.95791 3.42636,2.93687 2.44739,0.48948 8.81062,-7.83166 5.87375,-7.83167 12.72645,-18.11073 6.85271,-10.27906 11.7475,-12.23697 -5.38427,-8.32115 -13.21593,-16.15281 -7.83167,-7.83166 -14.19489,-16.15281 -6.36323,-8.32114 -8.32115,-18.11072 15.66333,3.91583 27.90031,13.21593 12.23697,8.81063 23.49499,18.60021 7.83166,-3.42636 12.72645,-9.78958 5.38427,-6.85271 11.7475,-11.7475 -2.4474,-6.85271 -8.32115,-10.27906 -5.87374,-3.42635 -7.83166,-11.25802 17.62125,-9.78958 35.24249,-5.87375 18.11072,3.42636 32.79509,14.68437 z m 50.41634,118.45392 q 0,4.40531 0,9.30011 0.48948,4.40531 0.48948,9.3001 0.97896,32.79509 0.97896,66.56914 0,33.28457 -4.40531,61.18488 -4.40532,27.9003 -16.64229,44.05311 -0.48948,5.38427 -0.48948,6.36322 0,0.48948 0.97896,6.36323 -3.42635,0.48948 -4.40531,2.4474 -0.48948,1.95791 -0.48948,4.40531 0,1.95791 -0.97896,3.42635 -0.48948,1.46844 -3.42635,0.97896 2.93687,2.93687 1.95791,4.40531 -0.97895,1.46844 -2.93687,2.93687 -1.95792,1.46844 -3.91583,3.91583 -1.95792,2.4474 -0.97896,7.34219 -8.81062,0.97896 -13.70541,6.36323 -4.89479,5.38427 -9.3001,11.25801 -1.46844,0.97896 -1.46844,-2.93687 0.48948,-4.89479 -1.95792,-4.40531 1.95792,-1.95792 1.95792,-3.42635 0,-1.95792 -0.48948,-3.42636 -0.48948,-2.44739 0,-3.91583 0.97896,-1.46844 7.83166,-2.44739 0.97896,-2.93688 -1.46843,-3.91584 -2.93688,-0.48948 -1.95792,-3.42635 2.93688,-0.97896 4.89479,-7.34218 1.95792,-6.36323 3.91583,-13.70542 2.4474,-7.83166 5.87375,-12.72645 0,-1.95792 -0.97896,-0.97896 7.34219,-18.6002 11.25802,-45.52155 3.91583,-26.92134 4.40531,-58.248 0.48948,-31.81613 -2.93687,-65.1007 -4.89479,-8.32115 -9.78958,-13.70542 -4.89479,-5.87375 -9.3001,-12.72645 -3.91584,-6.85271 -6.85271,-18.6002 15.17385,4.89479 29.85822,9.78958 15.17385,4.89479 24.47395,16.1528 z"
     id="path1310"
     transform="rotate(180,653.30469,682.56678)"
     style="font-size:489.479px;font-family:'Yuji Mai';-inkscape-font-specification:'Yuji Mai';fill:#29303d;stroke-width:27.7812;filter:url(#filter1889)"
     clip-path="url(#clipPath992)" /><path
     d="m 607.68006,906.65194 c 2.727,-0.306 1.13,-6.965 -2.395,-9.989 -3.525,-3.024 -8.98,-2.412 -8.182,0.919 0.798,3.331 7.85,9.376 10.577,9.07 z"
     filter="url(#K)"
     id="path97"
     style="fill:#ffffff" /><path
     d="m 547.28852,992.70781 c 4.852,1.031 9.007,-5.133 6.232,-9.247 -2.775,-4.114 -12.482,-6.179 -14.56,-3.095 -2.078,3.084 3.475,11.312 8.328,12.343 z"
     filter="url(#L)"
     id="path99"
     style="fill:#ffffff" /><path
     d="m 669.99262,871.02912 c 4.792,0.838 8.196,-5.002 5.106,-8.761 -3.09,-3.759 -12.677,-5.438 -14.379,-2.517 -1.702,2.921 4.481,10.439 9.273,11.277 z"
     filter="url(#M)"
     id="path101"
     style="fill:#ffffff" /><path
     d="m 750.32779,907.8882 c 3.715,1.587 5.888,-2.694 3.26,-6.423 -2.628,-3.729 -10.061,-6.904 -11.148,-4.763 -1.087,2.141 4.173,9.599 7.889,11.186 z"
     filter="url(#N)"
     id="path103"
     style="fill:#ffffff" /><path
     d="m 730.45106,992.01384 c 5.917,1.369 8.89,-2.704 5.918,-7.511 -2.972,-4.807 -11.891,-10.353 -17.811,-11.723 -5.92,-1.37 -8.836,1.434 -5.861,6.244 2.975,4.81 11.838,11.622 17.754,12.991 z"
     filter="url(#O)"
     id="path105"
     style="fill:#ffffff"
     transform="rotate(-10,728.60463,978.93588)" /><style
     id="style2-0">.B{color-interpolation-filters:sRGB}</style></svg>
