<?xml version="1.0" encoding="UTF-8" standalone="no"?>
<svg
   width="498.898"
   height="544.252"
   viewBox="0 0 1320 1440"
   version="1.1"
   id="svg99"
   sodipodi:docname="bM.svg"
   xml:space="preserve"
   inkscape:version="1.2.2 (732a01da63, 2022-12-09)"
   xmlns:inkscape="http://www.inkscape.org/namespaces/inkscape"
   xmlns:sodipodi="http://sodipodi.sourceforge.net/DTD/sodipodi-0.dtd"
   xmlns="http://www.w3.org/2000/svg"
   xmlns:svg="http://www.w3.org/2000/svg"><sodipodi:namedview
     id="namedview101"
     pagecolor="#ffffff"
     bordercolor="#000000"
     borderopacity="0.25"
     inkscape:showpageshadow="2"
     inkscape:pageopacity="0.0"
     inkscape:pagecheckerboard="0"
     inkscape:deskcolor="#d1d1d1"
     showgrid="false"
     inkscape:zoom="2.0164"
     inkscape:cx="42.402302"
     inkscape:cy="161.67427"
     inkscape:window-width="1920"
     inkscape:window-height="974"
     inkscape:window-x="-11"
     inkscape:window-y="-11"
     inkscape:window-maximized="1"
     inkscape:current-layer="svg99" /><style
     id="style2">.B{color-interpolation-filters:sRGB}</style><defs
     id="defs53"><filter
       id="B"
       x="-0.013119982"
       y="-0.01088309"
       width="1.02624"
       height="1.0217662"
       class="B"><feGaussianBlur
         stdDeviation="2.441"
         id="feGaussianBlur4" /></filter><filter
       id="E"
       x="-0.044751876"
       y="-0.051751566"
       width="1.0895038"
       height="1.1035031"
       class="B"><feGaussianBlur
         stdDeviation="8.893"
         id="feGaussianBlur7" /></filter><filter
       id="F"
       x="-0.40012373"
       y="-0.45173136"
       width="1.8002475"
       height="1.9034627"
       class="B"><feGaussianBlur
         stdDeviation="1.833"
         id="feGaussianBlur10" /></filter><filter
       id="G"
       x="-0.29787007"
       y="-0.33255812"
       width="1.5957401"
       height="1.6651162"
       class="B"><feGaussianBlur
         stdDeviation="1.833"
         id="feGaussianBlur13" /></filter><filter
       id="H"
       x="-0.18492689"
       y="-0.15215418"
       width="1.3698538"
       height="1.3043084"
       class="B"><feGaussianBlur
         stdDeviation="1.833"
         id="feGaussianBlur16" /></filter><filter
       id="I"
       x="-0.21242123"
       y="-0.23248869"
       width="1.4248425"
       height="1.4649774"
       class="B"><feGaussianBlur
         stdDeviation="1.833"
         id="feGaussianBlur19" /></filter><filter
       id="J"
       x="-0.21455541"
       y="-0.24771566"
       width="1.4291108"
       height="1.4954313"
       class="B"><feGaussianBlur
         stdDeviation="1.833"
         id="feGaussianBlur22" /></filter><filter
       id="K"
       x="-0.34860632"
       y="-0.41712814"
       width="1.6972126"
       height="1.8342563"
       class="B"><feGaussianBlur
         stdDeviation="1.833"
         id="feGaussianBlur25" /></filter><filter
       id="M"
       x="-0.052347271"
       y="-0.04432593"
       width="1.1046945"
       height="1.0886519"
       class="B"><feGaussianBlur
         stdDeviation="4.412"
         id="feGaussianBlur28" /></filter><linearGradient
       id="A"
       x1="-1430.769"
       y1="-77.47"
       x2="-1409.955"
       y2="-77.47"
       spreadMethod="reflect"
       gradientUnits="userSpaceOnUse"><stop
         offset="0"
         stop-color="#ffd285"
         id="stop31" /><stop
         offset=".232"
         stop-color="#ffcd79"
         id="stop33" /><stop
         offset=".616"
         stop-color="#ffca73"
         id="stop35" /><stop
         offset=".808"
         stop-color="#ffd386"
         id="stop37" /><stop
         offset="1"
         stop-color="#ffc86e"
         id="stop39" /></linearGradient><linearGradient
       id="C"
       x1="-905.02"
       y1="-384.47"
       x2="-904.556"
       y2="184.159"
       gradientUnits="userSpaceOnUse"><stop
         offset="0"
         id="stop42" /><stop
         offset=".599"
         stop-color="#fff"
         id="stop44" /></linearGradient><clipPath
       id="D"><path
         d="M416.432 609.694c3.905 57.109 83.956 66.383 116.659 111.778-28.311 11.227-66.383 15.132-85.908 35.632 6.834 24.406 28.799 26.846 44.418 28.311-3.905 4.393-6.834 9.274-7.81 16.108.488 16.596-6.345 96.158-23.918 107.873-4.881 3.417-11.715 1.952-17.572 9.274 17.084 26.358 50.276 62.479 90.301 36.609 29.775-.976 61.502-7.322 82.491-9.274 18.548-1.952 33.68 13.667 51.74 8.786 3.417-11.715-6.834-20.501-12.203-27.334-6.345-22.453-11.227-54.669-12.203-89.325 0-2.929-4.393-.976-3.417-4.881.488-57.109-.488-126.421 7.322-198.662 7.81 4.881 16.596 5.857 22.453-.976-9.274-13.667-20.501-44.906-54.181-43.442-2.441 2.929-3.905 6.346-6.345 10.738-26.358 17.572-50.764 40.513-80.051 62.479-13.179-15.62-32.216-40.025-45.395-65.407-27.334-8.298-51.74-9.762-66.383 11.715zm243.081 100.063c-.488 13.667 35.632 55.645 44.418 37.097-2.441-5.369-4.881-9.762-6.834-15.62-1.952-21.965 11.715-53.204 21.965-80.051-12.691 0-18.06 9.762-25.87.976-9.274 11.715-32.704 38.561-33.68 57.597zm2.441 189.388c0 34.168 32.215 54.669 53.204 64.431 11.715 29.775 41.978 39.049 72.729 22.453-7.81-8.298-18.548-13.667-22.941-25.87 6.345-18.06 88.349-158.637 105.921-168.399 0-10.25 24.406-30.263 32.704-39.537-6.834-10.25-20.989-11.715-31.727-9.274-10.25 2.441-63.455 74.681-67.36 80.539-8.298-2.929-19.525-12.203-34.168-7.322-6.345-10.25-10.25-22.941-10.739-41.978 20.501-9.762 65.407-2.929 79.563-21.477-18.548-25.382-53.693-10.25-80.539-10.25 0-31.239 0-84.932 2.929-116.171 12.691-2.929 41.49-10.25 59.55-8.298 10.25.976 17.572 10.738 28.799 4.393-1.464-17.084-35.144-54.669-54.181-47.347-8.786 3.417-15.62 14.155-25.382 19.036-31.239 15.62-71.753 4.393-103.48 23.918 11.715 17.572 35.144 22.941 65.895 13.667l-5.857 117.635c-21.477 5.857-42.954 6.834-57.597 19.525 5.857 12.691 21.477 26.358 58.086 12.203-1.464 12.691-3.417 29.287 4.393 45.883-21.965 1.952-34.168 6.834-50.764 15.132 11.227 13.179 27.334 20.013 47.347 22.941 10.739-14.643 46.371-19.036 64.431-20.013-12.203 20.013-39.537 59.55-51.252 86.396-3.417 3.417-8.298 8.298-15.62 9.274-14.643-24.894-34.656-37.097-63.943-41.49zm119.1-264.069c0 14.643 6.834 28.799 6.346 40.513 0 3.417-3.417 4.881-2.929 8.786 3.417 19.036 30.263 36.609 45.883 37.097 2.929-16.108-11.227-40.025-9.762-61.014-8.786-9.274-22.453-22.941-39.537-25.382zM517.471 870.347c23.429 15.62 52.228-.976 89.813-1.464-.976 17.084 2.441 36.609 4.393 47.347-22.453 6.345-59.062 11.227-91.765 13.667-3.905-12.691-2.441-41.49-2.441-59.55zm0-17.572c-.488-20.501.488-29.775 1.952-47.347 20.501-2.929 59.55-8.298 88.349-6.834-1.464 8.786-.976 31.239-1.464 41.002-25.87 3.905-58.574 6.834-88.837 13.179zm-14.643-73.217c-2.929-5.857-2.441-13.179 3.905-15.62 10.25-5.369 27.823-18.06 41.002-24.406 8.786 5.857 23.918 23.918 35.144 32.215-22.941 1.952-56.133 3.905-80.051 7.81zm46.859-87.372c6.834-13.667 42.466-38.561 66.383-51.252-1.464 17.572-6.834 89.813-7.81 126.421-25.382-18.548-41.002-47.835-58.574-75.169z"
         stroke-width="24.218"
         id="path47" /></clipPath><clipPath
       id="L"><path
         d="M1711.016 1079.856a7.484 7.484 0 0 0-5.309 2.208l-3.066 3.066a7.491 7.491 0 0 0 0 10.619l85.245 85.248-85.245 85.245a7.491 7.491 0 0 0 0 10.619l3.066 3.07a7.491 7.491 0 0 0 10.619 0l75.571-75.571v106.87a7.493 7.493 0 0 0 7.507 7.511h4.34a7.493 7.493 0 0 0 7.507-7.511v-106.87l75.568 75.571a7.491 7.491 0 0 0 10.619 0l3.07-3.07a7.492 7.492 0 0 0 0-10.619l-85.248-85.245 85.248-85.248a7.492 7.492 0 0 0 0-10.619l-3.07-3.066a7.493 7.493 0 0 0-10.619 0l-85.245 85.245-85.248-85.245a7.486 7.486 0 0 0-5.31-2.208zm90.558 101.135v.01h-.01z"
         stroke-width="1.534"
         id="path50" /></clipPath><filter
       id="C-2"
       x="-0.01110353"
       y="-0.011243256"
       width="1.0222071"
       height="1.0224865"
       class="B"><feGaussianBlur
         stdDeviation="2.441"
         id="feGaussianBlur4-7" /></filter><filter
       id="D-5"
       x="-0.044582165"
       y="-0.051981172"
       width="1.0891643"
       height="1.1039623"
       class="B"><feGaussianBlur
         stdDeviation="8.635"
         id="feGaussianBlur7-1" /></filter><filter
       id="G-0"
       x="-0.052321729"
       y="-0.044333314"
       width="1.1046435"
       height="1.0886666"
       class="B"><feGaussianBlur
         stdDeviation="6.784"
         id="feGaussianBlur10-1" /></filter><filter
       id="H-2"
       x="-0.28694713"
       y="-0.30485973"
       width="1.5738943"
       height="1.6097195"
       class="B"><feGaussianBlur
         stdDeviation="1.688"
         id="feGaussianBlur13-5" /></filter><filter
       id="I-7"
       x="-0.34932089"
       y="-0.38465625"
       width="1.6986418"
       height="1.7693125"
       class="B"><feGaussianBlur
         stdDeviation="1.688"
         id="feGaussianBlur16-8" /></filter><filter
       id="J-1"
       x="-0.29422404"
       y="-0.54109355"
       width="1.5884481"
       height="2.0821871"
       class="B"><feGaussianBlur
         stdDeviation="1.688"
         id="feGaussianBlur19-2" /></filter><filter
       id="K-4"
       x="-0.21468687"
       y="-0.32268743"
       width="1.4293737"
       height="1.6453749"
       class="B"><feGaussianBlur
         stdDeviation="1.688"
         id="feGaussianBlur22-7" /></filter><filter
       id="L-1"
       x="-0.29418135"
       y="-0.45605182"
       width="1.5883627"
       height="1.9121036"
       class="B"><feGaussianBlur
         stdDeviation="1.688"
         id="feGaussianBlur25-1" /></filter><linearGradient
       id="B-7"
       x1="-899.905"
       y1="-344.262"
       x2="-899.906"
       y2="125.211"
       gradientUnits="userSpaceOnUse"><stop
         offset=".597"
         stop-color="#fff"
         id="stop39-3" /><stop
         offset="1"
         id="stop41" /></linearGradient><clipPath
       id="E-2"><path
         d="M895.511 704.042c-3.776-55.22-81.178-64.187-112.8-108.08 27.374-10.855 64.187-14.631 83.066-34.454-6.608-23.598-27.846-25.958-42.949-27.374 3.776-4.248 6.608-8.967 7.552-15.575-.472-16.047 6.136-92.977 23.126-104.305 4.72-3.304 11.327-1.888 16.991-8.967-16.519-25.486-48.613-60.412-87.314-35.397-28.79.944-59.468 7.079-79.762 8.967-17.935 1.888-32.566-13.215-50.028-8.495-3.304 11.327 6.608 19.823 11.799 26.43 6.136 21.71 10.855 52.86 11.799 86.37 0 2.832 4.248.944 3.304 4.72-.472 55.22.472 122.239-7.08 192.09-7.551-4.72-16.047-5.664-21.71.944 8.967 13.215 19.823 43.421 52.388 42.005 2.36-2.832 3.776-6.136 6.136-10.383 25.486-16.991 49.084-39.173 77.402-60.412 12.743 15.103 31.15 38.701 43.893 63.243 26.43 8.023 50.028 9.439 64.187-11.327zm-235.039-96.753c.472-13.215-34.454-53.804-42.949-35.869 2.36 5.192 4.72 9.439 6.608 15.103 1.888 21.238-11.327 51.444-21.239 77.402 12.271 0 17.463-9.439 25.014-.944 8.967-11.327 31.622-37.285 32.566-55.692zm-2.36-183.123c0-33.038-31.15-52.86-51.444-62.3-11.327-28.79-40.589-37.757-70.323-21.71 7.552 8.023 17.935 13.215 22.182 25.014-6.136 17.463-85.426 153.389-102.417 162.828 0 9.911-23.598 29.262-31.622 38.229 6.608 9.911 20.295 11.327 30.678 8.967 9.911-2.36 61.356-72.211 65.131-77.874 8.023 2.832 18.879 11.799 33.038 7.08 6.136 9.911 9.911 22.182 10.383 40.589-19.823 9.439-63.243 2.832-76.931 20.766 17.935 24.542 51.916 9.911 77.874 9.911 0 30.206 0 82.122-2.832 112.328-12.271 2.832-40.117 9.911-57.58 8.023-9.911-.944-16.991-10.383-27.846-4.248 1.416 16.519 33.982 52.86 52.388 45.781 8.495-3.304 15.103-13.687 24.542-18.407 30.206-15.103 69.379-4.248 100.057-23.126-11.327-16.991-33.982-22.182-63.715-13.215l5.664-113.744c20.767-5.664 41.533-6.607 55.692-18.879-5.664-12.271-20.767-25.486-56.164-11.799 1.416-12.271 3.304-28.318-4.248-44.365 21.238-1.888 33.038-6.608 49.085-14.631-10.855-12.743-26.43-19.351-45.781-22.182-10.383 14.159-44.837 18.407-62.3 19.351 11.799-19.351 38.229-57.58 49.556-83.538 3.304-3.304 8.023-8.023 15.103-8.967 14.159 24.07 33.51 35.869 61.828 40.117zM542.953 679.5c0-14.159-6.608-27.846-6.136-39.173 0-3.304 3.304-4.72 2.832-8.495-3.304-18.407-29.262-35.397-44.365-35.869-2.832 15.575 10.855 38.701 9.439 58.996 8.495 8.967 21.71 22.182 38.229 24.542zm254.862-227.488c-22.654-15.103-50.5.944-86.842 1.416.944-16.519-2.36-35.397-4.248-45.781 21.71-6.136 57.108-10.855 88.73-13.215 3.776 12.271 2.36 40.117 2.36 57.58zm0 16.991c.472 19.823-.472 28.79-1.888 45.781-19.823 2.832-57.58 8.023-85.426 6.608 1.416-8.495.944-30.206 1.416-39.645 25.014-3.776 56.636-6.608 85.898-12.743zm14.159 70.795c2.832 5.664 2.36 12.743-3.776 15.103-9.911 5.192-26.902 17.463-39.645 23.598-8.495-5.664-23.126-23.126-33.982-31.15 22.182-1.888 54.276-3.776 77.402-7.551zm-45.309 84.482c-6.608 13.215-41.061 37.285-64.187 49.557 1.416-16.991 6.608-86.842 7.551-122.239 24.542 17.935 39.645 46.253 56.636 72.683z"
         stroke-width="23.417"
         id="path44" /></clipPath><clipPath
       id="F-3"><path
         d="M656.251 790.644a11.095 11.095 0 0 0-11.121 11.121v164.641L528.709 849.984a11.1 11.1 0 0 0-15.73 0l-5.302 5.302a11.105 11.105 0 0 0 0 15.735l131.289 131.289-131.29 131.29a11.1 11.1 0 0 0 0 15.73l5.302 5.302a11.1 11.1 0 0 0 15.73 0l131.289-131.294 131.294 131.294a11.1 11.1 0 0 0 15.73 0l5.302-5.302a11.1 11.1 0 0 0 0-15.73l-131.289-131.289 131.289-131.289a11.105 11.105 0 0 0 0-15.735l-5.302-5.302a11.1 11.1 0 0 0-15.73 0L674.87 966.401V801.765a11.095 11.095 0 0 0-11.121-11.121zm3.747 211.661h.011l-.011.011-.005-.011z"
         stroke-width="1.534"
         id="path47-9" /></clipPath><filter
       inkscape:menu-tooltip="In and out glow with a possible offset and colorizable flood"
       inkscape:menu="Shadows and Glows"
       inkscape:label="Cutout Glow"
       style="color-interpolation-filters:sRGB;"
       id="filter2186"
       x="-0.024987044"
       y="-0.059692"
       width="1.0846783"
       height="1.0846793"><feOffset
         dy="-10"
         dx="10"
         id="feOffset2176" /><feGaussianBlur
         stdDeviation="3"
         result="blur"
         id="feGaussianBlur2178" /><feFlood
         flood-color="rgb(0,0,0)"
         flood-opacity="0"
         result="flood"
         id="feFlood2180" /><feComposite
         in="flood"
         in2="SourceGraphic"
         operator="in"
         result="composite"
         id="feComposite2182" /><feBlend
         in="blur"
         in2="composite"
         mode="normal"
         id="feBlend2184" /></filter><filter
       inkscape:menu-tooltip="In and out glow with a possible offset and colorizable flood"
       inkscape:menu="Shadows and Glows"
       inkscape:label="Cutout Glow"
       style="color-interpolation-filters:sRGB;"
       id="filter2926"
       x="-0.015985883"
       y="-0.041457522"
       width="1.0541744"
       height="1.0588118"><feOffset
         dy="-10"
         dx="10"
         id="feOffset2916" /><feGaussianBlur
         stdDeviation="3"
         result="blur"
         id="feGaussianBlur2918" /><feFlood
         flood-color="rgb(0,0,0)"
         flood-opacity="0"
         result="flood"
         id="feFlood2920" /><feComposite
         in="flood"
         in2="SourceGraphic"
         operator="in"
         result="composite"
         id="feComposite2922" /><feBlend
         in="blur"
         in2="composite"
         mode="normal"
         id="feBlend2924" /></filter><filter
       inkscape:menu-tooltip="In and out glow with a possible offset and colorizable flood"
       inkscape:menu="Shadows and Glows"
       inkscape:label="Cutout Glow"
       style="color-interpolation-filters:sRGB"
       id="filter2926-7"
       x="-0.038188497"
       y="-0.017354312"
       width="1.0541744"
       height="1.0588118"><feOffset
         dy="10"
         dx="-10"
         id="feOffset2916-0" /><feGaussianBlur
         stdDeviation="3"
         result="blur"
         id="feGaussianBlur2918-2" /><feFlood
         flood-color="rgb(0,0,0)"
         flood-opacity="1"
         result="flood"
         id="feFlood2920-5" /><feComposite
         in="flood"
         in2="SourceGraphic"
         operator="in"
         result="composite"
         id="feComposite2922-1" /><feBlend
         in="blur"
         in2="composite"
         mode="normal"
         id="feBlend2924-1" /></filter><filter
       inkscape:menu-tooltip="In and out glow with a possible offset and colorizable flood"
       inkscape:menu="Shadows and Glows"
       inkscape:label="Cutout Glow"
       style="color-interpolation-filters:sRGB"
       id="filter2186-7"
       x="-0.059691273"
       y="-0.024987348"
       width="1.0846783"
       height="1.0846793"><feOffset
         dy="10"
         dx="-10"
         id="feOffset2176-0" /><feGaussianBlur
         stdDeviation="3"
         result="blur"
         id="feGaussianBlur2178-4" /><feFlood
         flood-color="rgb(0,0,0)"
         flood-opacity="1"
         result="flood"
         id="feFlood2180-6" /><feComposite
         in="flood"
         in2="SourceGraphic"
         operator="in"
         result="composite"
         id="feComposite2182-2" /><feBlend
         in="blur"
         in2="composite"
         mode="normal"
         id="feBlend2184-2" /></filter><clipPath
       clipPathUnits="userSpaceOnUse"
       id="clipPath1016"><path
         d="M 646.231,980.58098 538.42699,872.77699 c -4.01775,-4.03322 -10.54822,-4.03322 -14.56599,0 l -4.91001,4.91001 c -4.03489,4.01902 -4.03489,10.55197 0,14.57099 L 640.521,1013.828 518.95099,1135.398 c -4.0332,4.0178 -4.0332,10.5482 0,14.566 l 4.91001,4.909 c 4.01777,4.0332 10.54824,4.0332 14.56599,0 L 659.997,1033.298 781.57199,1154.873 c 4.01777,4.0332 10.54824,4.0332 14.56599,0 l 4.91,-4.909 c 4.03323,-4.0178 4.03323,-10.5482 0,-14.566 L 679.478,1013.828 801.04798,892.25799 c 4.0349,-4.01902 4.0349,-10.55197 0,-14.57099 l -4.91,-4.91001 c -4.01775,-4.03322 -10.54822,-4.03322 -14.56599,0 l -107.80301,107.79899 -14.57562,13.90998 z m 13.76701,33.24202 h 0.0106 l -0.0106,0.011 -0.005,-0.011 z"
         id="path1018"
         sodipodi:nodetypes="cccccccccccccccccccccccccccc"
         style="fill:#29303d;fill-opacity:1;stroke-width:1" /></clipPath><clipPath
       clipPathUnits="userSpaceOnUse"
       id="clipPath1126"><path
         d="m 877.43827,495.72582 q -8.52485,3.31523 -17.52332,5.68325 -8.5249,2.36802 -17.52335,5.20964 -6.15685,10.41929 -8.9985,23.6802 -2.36802,13.26091 -3.31523,26.99542 -1.42081,15.62894 -2.8416,31.25787 -0.94723,15.62893 -5.68327,28.88984 -8.52487,2.36802 -16.10251,0 -7.57769,-2.84163 -11.36652,-8.99848 -37.41471,0.47361 -78.14466,3.78884 -40.72994,3.31522 -75.30303,9.94568 -4.26243,0.4736 -6.63045,3.78883 -2.36802,3.31523 -7.57767,3.31523 -8.05126,-6.15685 -15.62893,-13.26091 -7.10406,-7.57767 -12.7873,-16.10254 2.36802,-19.41776 2.84162,-38.83552 0.4736,-19.41777 -3.78883,-41.20355 -1.42081,-3.78883 -4.73604,-4.73604 -3.31523,-1.42081 -6.63046,-3.31523 -0.4736,-5.20964 -2.84162,-8.52487 -2.36802,-3.31523 -5.68325,-6.15685 0.94721,-2.36802 0.4736,-3.78883 0,-1.42081 -0.4736,-2.84163 -0.4736,-1.42081 -0.94721,-2.84162 0,-1.42081 0.47361,-3.78883 16.57614,-4.26246 31.73146,-8.52487 15.15533,-4.73604 34.09949,-7.57769 6.63045,-0.94718 12.78731,-1.42079 6.63045,-0.4736 6.63045,-0.4736 -18.47055,-9.47208 -28.88984,-23.6802 -9.94568,-14.20812 -18.47056,-33.15228 14.68173,-5.20967 29.36345,-0.47363 15.15533,4.73604 24.1538,15.62896 7.10406,8.05124 8.99848,18.94416 2.36802,10.41926 -2.36802,22.25936 16.57614,-1.42079 42.15075,-1.89439 25.57462,-0.47363 48.30763,-0.94721 -1.89444,-5.68325 -8.52489,-4.73604 -1.42082,0 -3.31523,0.47358 -1.42081,0.47363 -2.84163,0.94723 -2.84162,0.47361 -5.20964,0.94721 -2.36802,0.47358 -4.73604,0 9.94568,-10.41931 17.52335,-22.25941 8.05126,-12.31368 16.57616,-24.15378 -1.89444,-8.05129 -7.10406,-12.78733 -4.73604,-5.20962 -8.05129,-11.8401 12.78733,-7.57764 25.57461,-4.73604 12.78731,2.36802 22.25939,10.41931 9.94571,8.05127 14.20812,17.52335 -7.57764,12.78728 -18.94416,21.31218 -11.36647,8.52487 -18.47053,21.78578 -7.57769,-0.4736 -11.8401,3.31523 -4.26246,3.31523 -4.26246,3.31523 17.99695,-2.84163 39.30913,-3.78886 21.31218,-0.94718 38.83555,5.68327 10.89289,3.78881 18.94416,11.8401 8.05127,7.57767 12.31368,19.89137 z m -52.09644,141.60759 q -0.94718,8.99847 -7.10406,13.26091 -6.15685,4.26243 -11.36647,9.47208 0,8.52487 0,17.99695 0,8.99847 0.47358,18.94416 0.47363,27.94263 -0.47358,55.88526 -0.47363,27.46906 -8.52487,44.0452 -10.41931,4.26241 -19.89139,-2.84165 -9.47208,-7.10406 -13.26089,-17.52335 -11.84012,-4.26243 -27.94266,-4.73604 -15.62893,0 -31.73146,1.42084 -16.10254,1.89439 -29.36345,3.78883 -1.89442,0 -3.78883,0.47358 -1.89442,0.47363 -3.78883,0.47363 -1.42082,5.68322 -6.15685,9.94566 -8.99848,-2.8416 -17.99696,-10.41929 -8.99847,-7.10406 -14.20811,-17.99695 -4.73604,-11.3665 -1.89442,-25.10101 2.36802,0.4736 2.36802,3.31523 0,2.36802 2.84162,2.84162 2.36802,-10.89289 2.36802,-23.6802 0,-12.7873 -0.94721,-26.52182 0,-4.73604 -0.4736,-9.47208 0,-5.20964 0,-10.41929 -2.36802,-5.68324 -8.05127,-9.94568 -5.20964,-4.73604 -9.47208,-9.47208 -4.26243,-4.73604 -4.73604,-9.94568 6.63046,1.89441 12.31371,0 6.15685,-1.89442 12.3137,-4.73604 3.31523,-1.42081 6.15685,-2.36802 2.84163,-1.42081 6.15685,-2.36802 14.68173,-4.26244 33.15228,-4.26244 18.47056,-0.4736 36.94111,-1.42081 12.78731,-0.94721 24.62741,-2.84162 11.8401,-2.36802 21.3122,-7.10406 19.89134,2.36802 33.15228,5.20964 13.73449,2.36802 26.9954,16.10254 z M 604.16878,428.00045 q -10.89289,22.25939 -25.57462,48.30761 -14.68172,25.57461 -27.94263,50.20202 0.94721,3.31522 2.84162,5.68324 1.89442,1.89442 3.78883,4.26244 -1.89441,26.04822 -0.9472,52.57004 0.9472,26.04822 2.36802,52.57004 0.9472,15.62893 1.42081,31.73147 0.94721,15.62893 0.94721,31.25786 0,4.73604 0,10.41929 0.4736,5.68324 0.9472,11.8401 0.47361,9.94568 0.94721,20.83857 0.47361,10.89289 -0.4736,19.89137 -0.94721,10.41931 -3.78883,17.52337 -2.84163,7.10406 -9.47208,8.52487 -13.26091,-8.05129 -23.2066,-21.78581 -9.47208,-13.26091 -7.57766,-34.09948 1.42081,0 2.84162,-1.89442 1.42081,-1.89441 3.78883,-1.42081 2.84163,-22.25939 4.26244,-49.72842 1.42081,-27.94263 0.4736,-58.25329 -0.9472,-30.31065 -5.20964,-59.20049 -5.68325,-0.47361 -8.05127,3.31523 -1.89441,3.78883 -3.31523,8.05126 -0.9472,1.42082 -1.42081,3.31523 -0.4736,1.42081 -1.42081,2.84162 -6.15685,8.99848 -14.68172,16.10254 -8.05127,7.10406 -11.8401,17.99695 -1.89442,0 -3.31523,-0.4736 -1.42081,-0.94721 -1.42081,-0.94721 l -6.15685,9.94568 4.26243,-2.84162 q -2.36802,6.15685 -10.41931,11.8401 -7.57764,5.68325 -12.31368,12.7873 -5.20967,0.94721 -8.52487,-0.4736 -2.84165,-1.42081 -5.20967,-3.31523 -2.36802,-1.89441 -5.68325,-3.31522 -2.84162,-1.89442 -8.05124,-1.89442 9.47208,-8.05127 15.1553,-17.99695 6.15688,-9.94568 11.8401,-18.94416 6.15688,-8.99848 16.10254,-14.20812 0,-2.36802 -1.42079,-1.89442 -1.89444,0.47361 -1.89444,-0.9472 5.68327,-3.78884 10.89292,-13.26091 5.20964,-9.94569 10.89289,-20.83858 5.68325,-11.36649 12.78731,-18.47055 l -2.36802,6.15685 q 4.26243,-0.94721 5.20964,-3.78883 1.42081,-3.31523 -3.78883,-4.73604 0.4736,-0.47361 1.42081,-1.89442 4.26243,-4.73604 7.10406,-9.94568 2.84162,-5.68325 0.4736,-13.26091 17.52335,-13.26092 26.99543,-34.09949 9.47208,-20.8386 17.52335,-42.62436 -2.84163,-7.57766 -8.52488,-12.3137 -5.20964,-4.73604 -10.41928,-9.47208 -5.20965,-4.73604 -8.05127,-12.31373 2.36802,-3.31523 7.57766,-3.31523 5.20965,-0.4736 7.10406,2.84165 22.25939,-5.68327 38.36192,5.20962 16.57614,10.41929 24.15381,27.94266 z m 158.65735,320.15628 q 3.3152,-22.73299 1.89439,-49.72841 -0.94721,-26.99543 -3.31523,-48.78121 -17.99695,-4.73604 -34.57308,-2.84163 -16.10254,1.42082 -32.67868,4.26244 -5.20964,0.94721 -10.89289,1.89442 -5.20964,0.9472 -10.89289,1.42081 -2.84163,6.15685 -3.31523,11.8401 -0.4736,5.68325 -0.4736,11.8401 0,1.89441 0,3.78883 0,1.89441 0,4.26243 0.9472,0 2.36802,-0.4736 18.47055,-1.89442 33.15227,-2.36802 15.15533,-0.4736 26.52183,3.78883 11.8401,4.26244 21.31218,16.57614 -23.2066,3.78883 -42.62436,4.73604 -18.94416,0.4736 -41.20355,6.15685 0.94721,2.36802 0.94721,6.15685 0,3.31523 0,8.05127 -0.4736,4.26244 -0.4736,9.47208 0,4.73604 0.4736,9.47208 16.57614,1.42081 32.67867,1.42081 16.10254,-0.4736 30.78426,-0.4736 8.05127,-0.47361 15.62893,-0.47361 7.57767,0 14.68175,0 z m 28.41624,-222.59386 q -0.47363,-11.3665 -2.84165,-21.78578 -1.89439,-10.8929 -6.63043,-19.89137 -17.99698,0.4736 -31.25789,1.42081 -13.26091,0.94721 -29.83705,3.78883 2.36802,8.05127 1.89442,17.04975 -0.4736,8.52487 0.94721,21.31217 16.10253,-6.15685 30.31065,0.94721 14.68172,6.63046 25.10101,17.04975 -12.78731,2.84162 -26.99542,3.78883 -14.20812,0.9472 -27.46903,3.31522 0,4.73604 -0.47361,8.99848 0,3.78883 0,7.57766 -0.4736,4.26244 -0.94721,8.52488 0,3.78883 0.47361,8.05126 6.63045,0.47361 12.7873,0 6.15686,-0.4736 12.31371,-0.94721 9.94568,-0.9472 18.94418,-0.9472 8.99845,0 17.52332,3.31522 v -1.42081 q 2.84163,-15.62893 4.73604,-30.78426 1.89442,-15.15532 1.42084,-29.36344 z m -99.93046,6.15685 q 0,-11.3665 -1.42081,-23.20659 -0.94721,-11.8401 -3.31523,-16.57614 -8.05127,0 -18.94416,0.9472 -10.41929,0.47361 -20.36497,2.84163 -9.94569,1.89441 -16.57614,6.15685 0,1.89442 -0.4736,4.26244 0,1.89441 0,3.78883 -0.47361,6.15685 -0.94721,12.7873 0,6.15686 2.36802,12.78731 14.20812,0 30.78426,-0.94721 17.04974,-1.42081 28.88984,-2.84162 z m 0.94721,23.6802 q -8.05127,-0.94721 -17.04975,0 -8.52487,0.94721 -17.04974,1.89441 -5.68325,0.94721 -11.3665,1.89442 -5.68324,0.4736 -11.36649,0.94721 l 1.42081,33.62588 q 15.15533,-0.94721 29.83705,-1.89442 15.15533,-0.9472 26.52182,-5.20964 z"
         id="path1128"
         style="font-size:473.604px;font-family:'Yuji Mai';-inkscape-font-specification:'Yuji Mai';fill:#29303d;stroke-width:27.7812" /></clipPath></defs><path
     d="m-2659.569 204.596 26.181 28.949 150.416 46.096 171.017-51.398 98.911-437.515-45.894-49.39z"
     transform="matrix(-2.0051 0 0 2.0051 -4364.078 706.823)"
     opacity=".5"
     filter="url(#B)"
     id="path55" /><path
     d="m-1220.686-340.838-153.963 49.823-8.809 28.459-94.245 482.361 10.349 7.986h493.336l10.348-7.986-94.244-482.361-8.809-28.459z"
     fill="url(#A)"
     transform="rotate(180 -893.82 266.77) scale(2.0051)"
     id="path57" /><path
     d="m-905.02-384.47-153.963 49.823-8.809 26.778-94.245 484.042 10.349 7.986h493.336l10.349-7.986-94.244-482.219-8.809-28.601z"
     opacity=".25"
     fill="url(#C)"
     transform="rotate(180 -577.344 223.027) scale(2.0051)"
     style="mix-blend-mode:overlay"
     id="path59" /><path
     d="m165.355 97.854.043-21.064-20.75 16.013 20.707 5.052zm821.025 961.863-17.664-13.248L660 1143.218v16.402z"
     opacity=".4"
     id="path61" /><path
     d="m333.62 1059.717 17.664-13.248L660 1143.218v16.402z"
     opacity=".6"
     id="path63" /><path
     d="m333.62 1059.717 17.664-13.248L165.355 97.854l-20.707-5.052z"
     opacity=".6"
     id="path65" /><g
     fill="#fff"
     id="g73"><path
       d="m986.38 1059.717-17.664-13.248 185.93-948.615 20.707-5.052z"
       opacity=".3"
       id="path67" /><path
       d="m1154.646 97.854-.043-21.064 20.75 16.013-20.707 5.052z"
       opacity=".8"
       id="path69" /><path
       d="M1154.646 97.854H165.355l.043-21.064h989.205l.043 21.064z"
       opacity=".3"
       id="path71" /></g><path
     d="m351.283 1117.065-17.663-57.348L660 1159.62l326.38-99.903-17.663 57.348L660 1216.968l-308.717-99.903z"
     opacity=".7"
     id="path79" /><style
     id="style2-5">.B{color-interpolation-filters:sRGB}</style><path
     d="m 673.68064,376.29771 107.804,107.804 c 4.01776,4.03322 10.54824,4.03322 14.566,0 l 4.91,-4.91 c 4.03489,-4.01902 4.03489,-10.55198 0,-14.571 l -121.57,-121.57001 121.57,-121.57 c 4.03322,-4.0178 4.03322,-10.5482 0,-14.566 l -4.91,-4.909 c -4.01776,-4.0332 -10.54824,-4.0332 -14.566,0 l -121.57,121.575 -121.57499,-121.575 c -4.01776,-4.0332 -10.54824,-4.0332 -14.566,0 l -4.91,4.909 c -4.03322,4.0178 -4.03322,10.5482 0,14.566 l 121.57,121.57 -121.57,121.57001 c -4.03489,4.01902 -4.03489,10.55198 0,14.571 l 4.91,4.91 c 4.01776,4.03322 10.54824,4.03322 14.566,0 l 107.803,-107.799 14.57564,-13.90998 z m -13.767,-33.24201 h -0.01 l 0.01,-0.01 0.005,0.01 z"
     id="path3761-4"
     sodipodi:nodetypes="cccccccccccccccccccccccccccc"
     style="fill:#000000;fill-opacity:1" /><path
     d="M 646.231,980.581 538.427,872.777 c -4.01776,-4.03322 -10.54824,-4.03322 -14.566,0 l -4.91,4.91 c -4.03489,4.01902 -4.03489,10.55198 0,14.571 l 121.57,121.57 -121.57,121.57 c -4.03322,4.0178 -4.03322,10.5482 0,14.566 l 4.91,4.909 c 4.01776,4.0332 10.54824,4.0332 14.566,0 l 121.57,-121.575 121.575,121.575 c 4.01776,4.0332 10.54824,4.0332 14.566,0 l 4.91,-4.909 c 4.03322,-4.0178 4.03322,-10.5482 0,-14.566 l -121.57,-121.57 121.57,-121.57 c 4.03489,-4.01902 4.03489,-10.55198 0,-14.571 l -4.91,-4.91 c -4.01776,-4.03322 -10.54824,-4.03322 -14.566,0 l -107.803,107.799 -14.57565,13.90998 z m 13.767,33.242 h 0.01 l -0.01,0.01 -0.005,-0.01 z"
     id="path82"
     sodipodi:nodetypes="cccccccccccccccccccccccccccc"
     style="fill:#29303d;fill-opacity:1;filter:url(#filter2186)"
     clip-path="url(#clipPath1016)"
     transform="rotate(180,659.95582,678.43935)" /><path
     d="m 442.47337,861.15288 q 8.52487,-3.31523 17.52334,-5.68325 8.52488,-2.36802 17.52335,-5.20964 6.15685,-10.41929 8.99848,-23.6802 2.36802,-13.26091 3.31523,-26.99543 1.42081,-15.62893 2.84162,-31.25787 0.94721,-15.62893 5.68325,-28.88984 8.52487,-2.36802 16.10253,0 7.57767,2.84162 11.3665,8.99848 37.41472,-0.47361 78.14466,-3.78884 40.72995,-3.31522 75.30304,-9.94568 4.26243,-0.4736 6.63045,-3.78883 2.36802,-3.31523 7.57767,-3.31523 8.05127,6.15685 15.62893,13.26091 7.10406,7.57767 12.78731,16.10254 -2.36802,19.41776 -2.84163,38.83553 -0.4736,19.41776 3.78884,41.20355 1.42081,3.78883 4.73604,4.73604 3.31522,1.42081 6.63045,3.31522 0.47361,5.20965 2.84163,8.52488 2.36802,3.31522 5.68324,6.15685 -0.9472,2.36802 -0.4736,3.78883 0,1.42081 0.4736,2.84162 0.47361,1.42082 0.94721,2.84163 0,1.42081 -0.4736,3.78883 -16.57614,4.26244 -31.73147,8.52487 -15.15533,4.73604 -34.09949,7.57767 -6.63045,0.9472 -12.78731,1.42081 -6.63045,0.4736 -6.63045,0.4736 18.47055,9.47208 28.88984,23.6802 9.94569,14.20812 18.47056,33.15228 -14.68173,5.20965 -29.36345,0.47361 -15.15533,-4.73604 -24.1538,-15.62894 -7.10406,-8.05126 -8.99848,-18.94416 -2.36802,-10.41928 2.36802,-22.25938 -16.57614,1.42081 -42.15076,1.89441 -25.57461,0.47361 -48.30761,0.94721 1.89442,5.68325 8.52488,4.73604 1.42081,0 3.31522,-0.4736 1.42082,-0.47361 2.84163,-0.94721 2.84162,-0.47361 5.20964,-0.94721 2.36802,-0.4736 4.73604,0 -9.94568,10.41929 -17.52335,22.25939 -8.05126,12.3137 -16.57614,24.1538 1.89442,8.05127 7.10406,12.78731 4.73604,5.20964 8.05127,11.8401 -12.78731,7.57766 -25.57461,4.73604 -12.78731,-2.36802 -22.25939,-10.41929 -9.94569,-8.05127 -14.20812,-17.52335 7.57766,-12.7873 18.94416,-21.31218 11.36649,-8.52487 18.47055,-21.78578 7.57767,0.4736 11.8401,-3.31523 4.26244,-3.31523 4.26244,-3.31523 -17.99695,2.84163 -39.30913,3.78884 -21.31218,0.9472 -38.83553,-5.68325 -10.89289,-3.78883 -18.94416,-11.8401 -8.05127,-7.57767 -12.3137,-19.89137 z m 52.09644,-141.6076 q 0.9472,-8.99847 7.10406,-13.26091 6.15685,-4.26244 11.36649,-9.47208 0,-8.52487 0,-17.99695 0,-8.99848 -0.4736,-18.94416 -0.47361,-27.94264 0.4736,-55.88527 0.47361,-27.46904 8.52487,-44.04518 10.41929,-4.26243 19.89137,2.84163 9.47208,7.10406 13.26091,17.52335 11.8401,4.26243 27.94264,4.73604 15.62893,0 31.73147,-1.42082 16.10254,-1.89441 29.36345,-3.78883 1.89441,0 3.78883,-0.4736 1.89442,-0.47361 3.78883,-0.47361 1.42081,-5.68324 6.15685,-9.94568 8.99848,2.84162 17.99696,10.41929 8.99847,7.10406 14.20812,17.99695 4.73604,11.3665 1.89441,25.10101 -2.36802,-0.4736 -2.36802,-3.31523 0,-2.36802 -2.84162,-2.84162 -2.36802,10.89289 -2.36802,23.6802 0,12.78731 0.94721,26.52182 0,4.73604 0.4736,9.47208 0,5.20965 0,10.41929 2.36802,5.68325 8.05127,9.94569 5.20964,4.73604 9.47208,9.47208 4.26243,4.73604 4.73604,9.94568 -6.63046,-1.89442 -12.31371,0 -6.15685,1.89442 -12.3137,4.73604 -3.31523,1.42081 -6.15685,2.36802 -2.84163,1.42081 -6.15685,2.36802 -14.68173,4.26244 -33.15228,4.26244 -18.47056,0.4736 -36.94112,1.42081 -12.78731,0.94721 -24.62741,2.84162 -11.8401,2.36802 -21.31218,7.10406 -19.89136,-2.36802 -33.15228,-5.20964 -13.73451,-2.36802 -26.99542,-16.10254 z m 221.17307,209.33297 q 10.89289,-22.25939 25.57461,-48.30761 14.68173,-25.57461 27.94264,-50.20202 -0.94721,-3.31523 -2.84163,-5.68325 -1.89441,-1.89441 -3.78883,-4.26243 1.89442,-26.04823 0.94721,-52.57005 -0.94721,-26.04822 -2.36802,-52.57004 -0.94721,-15.62894 -1.42081,-31.73147 -0.94721,-15.62893 -0.94721,-31.25787 0,-4.73604 0,-10.41928 -0.4736,-5.68325 -0.94721,-11.8401 -0.4736,-9.94569 -0.94721,-20.83858 -0.4736,-10.89289 0.47361,-19.89137 0.94721,-10.41929 3.78883,-17.52335 2.84162,-7.10406 9.47208,-8.52487 13.26091,8.05127 23.2066,21.78579 9.47208,13.26091 7.57766,34.09948 -1.42081,0 -2.84162,1.89442 -1.42082,1.89442 -3.78884,1.42081 -2.84162,22.25939 -4.26243,49.72842 -1.42081,27.94264 -0.47361,58.25329 0.94721,30.31066 5.20965,59.2005 5.68325,0.47361 8.05127,-3.31522 1.89441,-3.78884 3.31522,-8.05127 0.94721,-1.42081 1.42082,-3.31523 0.4736,-1.42081 1.42081,-2.84162 6.15685,-8.99848 14.68172,-16.10254 8.05127,-7.10406 11.8401,-17.99695 1.89442,0 3.31523,0.4736 1.42081,0.94721 1.42081,0.94721 l 6.15685,-9.94568 -4.26243,2.84162 q 2.36802,-6.15685 10.41929,-11.8401 7.57766,-5.68325 12.3137,-12.78731 5.20965,-0.94721 8.52487,0.47361 2.84163,1.42081 5.20965,3.31522 2.36802,1.89442 5.68325,3.31523 2.84162,1.89442 8.05126,1.89442 -9.47208,8.05127 -15.15532,17.99695 -6.15686,9.94568 -11.8401,18.94416 -6.15686,8.99848 -16.10254,14.20812 0,2.36802 1.42081,1.89442 1.89442,-0.47361 1.89442,0.9472 -5.68325,3.78884 -10.8929,13.26092 -5.20964,9.94568 -10.89289,20.83857 -5.68325,11.3665 -12.78731,18.47056 l 2.36802,-6.15685 q -4.26243,0.94721 -5.20964,3.78883 -1.42081,3.31523 3.78883,4.73604 -0.4736,0.4736 -1.42081,1.89442 -4.26244,4.73604 -7.10406,9.94568 -2.84162,5.68325 -0.4736,13.26091 -17.52335,13.26091 -26.99543,34.09949 -9.47208,20.83858 -17.52335,42.62436 2.84162,7.57766 8.52487,12.3137 5.20965,4.73604 10.41929,9.47208 5.20964,4.73604 8.05127,12.31371 -2.36802,3.31523 -7.57767,3.31523 -5.20964,0.4736 -7.10406,-2.84163 -22.25938,5.68325 -38.36192,-5.20964 -16.57614,-10.41929 -24.1538,-27.94264 z M 557.08553,608.72195 q -3.31522,22.73299 -1.89441,49.72842 0.94721,26.99542 3.31523,48.78121 17.99695,4.73604 34.57309,2.84162 16.10253,-1.42081 32.67868,-4.26243 5.20964,-0.94721 10.89289,-1.89442 5.20964,-0.94721 10.89289,-1.42081 2.84162,-6.15685 3.31523,-11.8401 0.4736,-5.68325 0.4736,-11.8401 0,-1.89442 0,-3.78883 0,-1.89442 0,-4.26244 -0.94721,0 -2.36802,0.4736 -18.47055,1.89442 -33.15228,2.36802 -15.15533,0.47361 -26.52182,-3.78883 -11.8401,-4.26243 -21.31218,-16.57614 23.20659,-3.78883 42.62436,-4.73604 18.94416,-0.4736 41.20355,-6.15685 -0.94721,-2.36802 -0.94721,-6.15685 0,-3.31523 0,-8.05127 0.4736,-4.26244 0.4736,-9.47208 0,-4.73604 -0.4736,-9.47208 -16.57614,-1.42081 -32.67868,-1.42081 -16.10254,0.4736 -30.78426,0.4736 -8.05127,0.47361 -15.62893,0.47361 -7.57767,0 -14.68173,0 z m -28.41624,222.59388 q 0.47361,11.36649 2.84163,21.78578 1.89441,10.89289 6.63045,19.89137 17.99696,-0.4736 31.25787,-1.42081 13.26091,-0.94721 29.83705,-3.78883 -2.36802,-8.05127 -1.89442,-17.04975 0.47361,-8.52487 -0.9472,-21.31218 -16.10254,6.15685 -30.31066,-0.94721 -14.68172,-6.63045 -25.10101,-17.04974 12.78731,-2.84162 26.99543,-3.78883 14.20812,-0.94721 27.46903,-3.31523 0,-4.73604 0.4736,-8.99848 0,-3.78883 0,-7.57766 0.47361,-4.26244 0.94721,-8.52487 0,-3.78884 -0.4736,-8.05127 -6.63046,-0.47361 -12.78731,0 -6.15685,0.4736 -12.31371,0.94721 -9.94568,0.9472 -18.94416,0.9472 -8.99847,0 -17.52334,-3.31522 v 1.42081 q -2.84163,15.62893 -4.73604,30.78426 -1.89442,15.15533 -1.42082,29.36345 z m 99.93045,-6.15685 q 0,11.36649 1.42081,23.20659 0.94721,11.8401 3.31523,16.57614 8.05127,0 18.94416,-0.94721 10.41929,-0.4736 20.36497,-2.84162 9.94569,-1.89442 16.57614,-6.15685 0,-1.89442 0.47361,-4.26244 0,-1.89441 0,-3.78883 0.4736,-6.15685 0.9472,-12.78731 0,-6.15685 -2.36802,-12.78731 -14.20812,0 -30.78426,0.94721 -17.04974,1.42081 -28.88984,2.84163 z m -0.94721,-23.68021 q 8.05127,0.94721 17.04975,0 8.52487,-0.9472 17.04974,-1.89441 5.68325,-0.94721 11.3665,-1.89442 5.68324,-0.4736 11.36649,-0.94721 l -1.42081,-33.62588 q -15.15533,0.94721 -29.83705,1.89442 -15.15533,0.9472 -26.52183,5.20964 z"
     id="path410-4"
     style="font-size:473.604px;font-family:'Yuji Mai';-inkscape-font-specification:'Yuji Mai';fill:#000000;stroke-width:27.7812;fill-opacity:1" /><path
     d="m 877.43828,495.72581 q -8.52487,3.31523 -17.52334,5.68325 -8.52488,2.36802 -17.52335,5.20964 -6.15685,10.41929 -8.99848,23.6802 -2.36802,13.26091 -3.31523,26.99543 -1.42081,15.62893 -2.84162,31.25787 -0.94721,15.62893 -5.68325,28.88984 -8.52487,2.36802 -16.10253,0 -7.57767,-2.84162 -11.3665,-8.99848 -37.41472,0.47361 -78.14466,3.78884 -40.72995,3.31522 -75.30304,9.94568 -4.26243,0.4736 -6.63045,3.78883 -2.36802,3.31523 -7.57767,3.31523 -8.05127,-6.15685 -15.62893,-13.26091 -7.10406,-7.57767 -12.78731,-16.10254 2.36802,-19.41776 2.84163,-38.83553 0.4736,-19.41776 -3.78884,-41.20355 -1.42081,-3.78883 -4.73604,-4.73604 -3.31522,-1.42081 -6.63045,-3.31522 -0.47361,-5.20965 -2.84163,-8.52488 -2.36802,-3.31522 -5.68324,-6.15685 0.9472,-2.36802 0.4736,-3.78883 0,-1.42081 -0.4736,-2.84162 -0.47361,-1.42082 -0.94721,-2.84163 0,-1.42081 0.4736,-3.78883 16.57614,-4.26244 31.73147,-8.52487 15.15533,-4.73604 34.09949,-7.57767 6.63045,-0.9472 12.78731,-1.42081 6.63045,-0.4736 6.63045,-0.4736 -18.47055,-9.47208 -28.88984,-23.6802 -9.94569,-14.20812 -18.47056,-33.15228 14.68173,-5.20965 29.36345,-0.47361 15.15533,4.73604 24.1538,15.62894 7.10406,8.05126 8.99848,18.94416 2.36802,10.41928 -2.36802,22.25938 16.57614,-1.42081 42.15076,-1.89441 25.57461,-0.47361 48.30761,-0.94721 -1.89442,-5.68325 -8.52488,-4.73604 -1.42081,0 -3.31522,0.4736 -1.42082,0.47361 -2.84163,0.94721 -2.84162,0.47361 -5.20964,0.94721 -2.36802,0.4736 -4.73604,0 9.94568,-10.41929 17.52335,-22.25939 8.05126,-12.3137 16.57614,-24.1538 -1.89442,-8.05127 -7.10406,-12.78731 -4.73604,-5.20964 -8.05127,-11.8401 12.78731,-7.57766 25.57461,-4.73604 12.78731,2.36802 22.25939,10.41929 9.94569,8.05127 14.20812,17.52335 -7.57766,12.7873 -18.94416,21.31218 -11.36649,8.52487 -18.47055,21.78578 -7.57767,-0.4736 -11.8401,3.31523 -4.26244,3.31523 -4.26244,3.31523 17.99695,-2.84163 39.30913,-3.78884 21.31218,-0.9472 38.83553,5.68325 10.89289,3.78883 18.94416,11.8401 8.05127,7.57767 12.3137,19.89137 z m -52.09644,141.6076 q -0.9472,8.99847 -7.10406,13.26091 -6.15685,4.26244 -11.36649,9.47208 0,8.52487 0,17.99695 0,8.99848 0.4736,18.94416 0.47361,27.94264 -0.4736,55.88527 -0.47361,27.46904 -8.52487,44.04518 -10.41929,4.26243 -19.89137,-2.84163 -9.47208,-7.10406 -13.26091,-17.52335 -11.8401,-4.26243 -27.94264,-4.73604 -15.62893,0 -31.73147,1.42082 -16.10254,1.89441 -29.36345,3.78883 -1.89441,0 -3.78883,0.4736 -1.89442,0.47361 -3.78883,0.47361 -1.42081,5.68324 -6.15685,9.94568 -8.99848,-2.84162 -17.99696,-10.41929 -8.99847,-7.10406 -14.20812,-17.99695 -4.73604,-11.3665 -1.89441,-25.10101 2.36802,0.4736 2.36802,3.31523 0,2.36802 2.84162,2.84162 2.36802,-10.89289 2.36802,-23.6802 0,-12.78731 -0.94721,-26.52182 0,-4.73604 -0.4736,-9.47208 0,-5.20965 0,-10.41929 -2.36802,-5.68325 -8.05127,-9.94569 -5.20964,-4.73604 -9.47208,-9.47208 -4.26243,-4.73604 -4.73604,-9.94568 6.63046,1.89442 12.31371,0 6.15685,-1.89442 12.3137,-4.73604 3.31523,-1.42081 6.15685,-2.36802 2.84163,-1.42081 6.15685,-2.36802 14.68173,-4.26244 33.15228,-4.26244 18.47056,-0.4736 36.94112,-1.42081 12.78731,-0.94721 24.62741,-2.84162 11.8401,-2.36802 21.31218,-7.10406 19.89136,2.36802 33.15228,5.20964 13.73451,2.36802 26.99542,16.10254 z M 604.16877,428.00044 q -10.89289,22.25939 -25.57461,48.30761 -14.68173,25.57461 -27.94264,50.20202 0.94721,3.31523 2.84163,5.68325 1.89441,1.89441 3.78883,4.26243 -1.89442,26.04823 -0.94721,52.57005 0.94721,26.04822 2.36802,52.57004 0.94721,15.62894 1.42081,31.73147 0.94721,15.62893 0.94721,31.25787 0,4.73604 0,10.41928 0.4736,5.68325 0.94721,11.8401 0.4736,9.94569 0.94721,20.83858 0.4736,10.89289 -0.47361,19.89137 -0.94721,10.41929 -3.78883,17.52335 -2.84162,7.10406 -9.47208,8.52487 -13.26091,-8.05127 -23.2066,-21.78579 -9.47208,-13.26091 -7.57766,-34.09948 1.42081,0 2.84162,-1.89442 1.42082,-1.89442 3.78884,-1.42081 2.84162,-22.25939 4.26243,-49.72842 1.42081,-27.94264 0.47361,-58.25329 -0.94721,-30.31066 -5.20965,-59.2005 -5.68325,-0.47361 -8.05127,3.31522 -1.89441,3.78884 -3.31522,8.05127 -0.94721,1.42081 -1.42082,3.31523 -0.4736,1.42081 -1.42081,2.84162 -6.15685,8.99848 -14.68172,16.10254 -8.05127,7.10406 -11.8401,17.99695 -1.89442,0 -3.31523,-0.4736 -1.42081,-0.94721 -1.42081,-0.94721 l -6.15685,9.94568 4.26243,-2.84162 q -2.36802,6.15685 -10.41929,11.8401 -7.57766,5.68325 -12.3137,12.78731 -5.20965,0.94721 -8.52487,-0.47361 -2.84163,-1.42081 -5.20965,-3.31522 -2.36802,-1.89442 -5.68325,-3.31523 -2.84162,-1.89442 -8.05126,-1.89442 9.47208,-8.05127 15.15532,-17.99695 6.15686,-9.94568 11.8401,-18.94416 6.15686,-8.99848 16.10254,-14.20812 0,-2.36802 -1.42081,-1.89442 -1.89442,0.47361 -1.89442,-0.9472 5.68325,-3.78884 10.8929,-13.26092 5.20964,-9.94568 10.89289,-20.83857 5.68325,-11.3665 12.78731,-18.47056 l -2.36802,6.15685 q 4.26243,-0.94721 5.20964,-3.78883 1.42081,-3.31523 -3.78883,-4.73604 0.4736,-0.4736 1.42081,-1.89442 4.26244,-4.73604 7.10406,-9.94568 2.84162,-5.68325 0.4736,-13.26091 17.52335,-13.26091 26.99543,-34.09949 9.47208,-20.83858 17.52335,-42.62436 -2.84162,-7.57766 -8.52487,-12.3137 -5.20965,-4.73604 -10.41929,-9.47208 -5.20964,-4.73604 -8.05127,-12.31371 2.36802,-3.31523 7.57767,-3.31523 5.20964,-0.4736 7.10406,2.84163 22.25938,-5.68325 38.36192,5.20964 16.57614,10.41929 24.1538,27.94264 z m 158.65735,320.1563 q 3.31522,-22.73299 1.89441,-49.72842 -0.94721,-26.99542 -3.31523,-48.78121 -17.99695,-4.73604 -34.57309,-2.84162 -16.10253,1.42081 -32.67868,4.26243 -5.20964,0.94721 -10.89289,1.89442 -5.20964,0.94721 -10.89289,1.42081 -2.84162,6.15685 -3.31523,11.8401 -0.4736,5.68325 -0.4736,11.8401 0,1.89442 0,3.78883 0,1.89442 0,4.26244 0.94721,0 2.36802,-0.4736 18.47055,-1.89442 33.15228,-2.36802 15.15533,-0.47361 26.52182,3.78883 11.8401,4.26243 21.31218,16.57614 -23.20659,3.78883 -42.62436,4.73604 -18.94416,0.4736 -41.20355,6.15685 0.94721,2.36802 0.94721,6.15685 0,3.31523 0,8.05127 -0.4736,4.26244 -0.4736,9.47208 0,4.73604 0.4736,9.47208 16.57614,1.42081 32.67868,1.42081 16.10254,-0.4736 30.78426,-0.4736 8.05127,-0.47361 15.62893,-0.47361 7.57767,0 14.68173,0 z m 28.41624,-222.59388 q -0.47361,-11.36649 -2.84163,-21.78578 -1.89441,-10.89289 -6.63045,-19.89137 -17.99696,0.4736 -31.25787,1.42081 -13.26091,0.94721 -29.83705,3.78883 2.36802,8.05127 1.89442,17.04975 -0.47361,8.52487 0.9472,21.31218 16.10254,-6.15685 30.31066,0.94721 14.68172,6.63045 25.10101,17.04974 -12.78731,2.84162 -26.99543,3.78883 -14.20812,0.94721 -27.46903,3.31523 0,4.73604 -0.4736,8.99848 0,3.78883 0,7.57766 -0.47361,4.26244 -0.94721,8.52487 0,3.78884 0.4736,8.05127 6.63046,0.47361 12.78731,0 6.15685,-0.4736 12.31371,-0.94721 9.94568,-0.9472 18.94416,-0.9472 8.99847,0 17.52334,3.31522 v -1.42081 q 2.84163,-15.62893 4.73604,-30.78426 1.89442,-15.15533 1.42082,-29.36345 z m -99.93045,6.15685 q 0,-11.36649 -1.42081,-23.20659 -0.94721,-11.8401 -3.31523,-16.57614 -8.05127,0 -18.94416,0.94721 -10.41929,0.4736 -20.36497,2.84162 -9.94569,1.89442 -16.57614,6.15685 0,1.89442 -0.47361,4.26244 0,1.89441 0,3.78883 -0.4736,6.15685 -0.9472,12.78731 0,6.15685 2.36802,12.78731 14.20812,0 30.78426,-0.94721 17.04974,-1.42081 28.88984,-2.84163 z m 0.94721,23.68021 q -8.05127,-0.94721 -17.04975,0 -8.52487,0.9472 -17.04974,1.89441 -5.68325,0.94721 -11.3665,1.89442 -5.68324,0.4736 -11.36649,0.94721 l 1.42081,33.62588 q 15.15533,-0.94721 29.83705,-1.89442 15.15533,-0.9472 26.52183,-5.20964 z"
     id="path592"
     transform="rotate(180,659.95582,678.43935)"
     style="font-size:473.604px;font-family:'Yuji Mai';-inkscape-font-specification:'Yuji Mai';fill:#29303d;stroke-width:27.7812;filter:url(#filter2926)"
     clip-path="url(#clipPath1126)"
     inkscape:label="path592" /><path
     d="m 518.32676,733.54025 c 5.841,2.671 9.977,-5.341 8.721,-12.019 -1.256,-6.678 -7.908,-12.022 -13.75,-14.696 -5.842,-2.674 -10.876,-2.673 -9.619,4.007 1.257,6.68 8.807,20.037 14.648,22.708 z"
     filter="url(#H)"
     id="path85"
     style="fill:#ffffff"
     transform="rotate(90,519.97151,718.29893)" /><path
     d="m 476.67917,883.21799 c 5.018,1.184 7.738,-4.454 6.327,-9.036 -1.411,-4.582 -6.956,-8.106 -11.976,-9.292 -5.02,-1.186 -9.512,-0.032 -8.099,4.551 1.413,4.583 8.731,12.592 13.748,13.776 z"
     filter="url(#I)"
     id="path87"
     style="fill:#ffffff"
     transform="rotate(180,470.72616,874.9007)" /><path
     d="m 739.858,952.05925 c 4.886,1.167 7.757,-2.608 6.033,-6.921 -1.724,-4.313 -8.047,-9.167 -12.936,-10.337 -4.889,-1.17 -8.34,1.347 -6.613,5.663 1.727,4.316 8.63,10.428 13.516,11.596 z"
     filter="url(#J)"
     id="path89"
     style="fill:#ffffff" /><path
     d="m 659.02986,934.28591 c 3.861,0.839 7.462,-3.738 5.403,-6.866 -2.059,-3.128 -9.782,-4.808 -11.584,-2.518 -1.802,2.29 2.32,8.546 6.18,9.384 z"
     filter="url(#K)"
     id="path93"
     style="fill:#ffffff" /><path
     d="m 509.74934,954.06859 c 3.357,0.929 6.259,-3.056 4.354,-5.98 -1.905,-2.924 -8.621,-4.785 -10.072,-2.791 -1.451,1.994 2.362,7.841 5.719,8.771 z"
     filter="url(#F)"
     id="path95"
     style="fill:#ffffff" /></svg>
