<?xml version="1.0" encoding="UTF-8" standalone="no"?>
<svg
   width="498.898"
   height="544.252"
   viewBox="0 0 1320 1440"
   version="1.1"
   id="svg91"
   sodipodi:docname="bO.svg"
   xml:space="preserve"
   inkscape:version="1.2.2 (732a01da63, 2022-12-09)"
   xmlns:inkscape="http://www.inkscape.org/namespaces/inkscape"
   xmlns:sodipodi="http://sodipodi.sourceforge.net/DTD/sodipodi-0.dtd"
   xmlns="http://www.w3.org/2000/svg"
   xmlns:svg="http://www.w3.org/2000/svg"><sodipodi:namedview
     id="namedview93"
     pagecolor="#ffffff"
     bordercolor="#000000"
     borderopacity="0.25"
     inkscape:showpageshadow="2"
     inkscape:pageopacity="0.0"
     inkscape:pagecheckerboard="0"
     inkscape:deskcolor="#d1d1d1"
     showgrid="false"
     inkscape:zoom="2.0164"
     inkscape:cx="142.58084"
     inkscape:cy="193.90994"
     inkscape:window-width="1920"
     inkscape:window-height="974"
     inkscape:window-x="-11"
     inkscape:window-y="-11"
     inkscape:window-maximized="1"
     inkscape:current-layer="svg91" /><style
     id="style2">.B{color-interpolation-filters:sRGB}</style><defs
     id="defs47"><filter
       id="B"
       x="-0.015517748"
       y="-0.012341658"
       width="1.0310355"
       height="1.0246833"
       class="B"><feGaussianBlur
         stdDeviation="2.441"
         id="feGaussianBlur4" /></filter><filter
       id="E"
       x="-0.19478189"
       y="-0.027373106"
       width="1.3895638"
       height="1.0547462"
       class="B"><feGaussianBlur
         stdDeviation="1.571"
         id="feGaussianBlur7" /></filter><filter
       id="G"
       x="-0.051393"
       y="-0.045020068"
       width="1.102786"
       height="1.0900401"
       class="B"><feGaussianBlur
         stdDeviation="6.192"
         id="feGaussianBlur10" /></filter><filter
       id="H"
       x="-0.24626887"
       y="-0.39979545"
       width="1.4925377"
       height="1.7995909"
       class="B"><feGaussianBlur
         stdDeviation="1.005"
         id="feGaussianBlur13" /></filter><filter
       id="I"
       x="-0.38715993"
       y="-0.35050835"
       width="1.7743199"
       height="1.7010167"
       class="B"><feGaussianBlur
         stdDeviation="1.005"
         id="feGaussianBlur16" /></filter><filter
       id="J"
       x="-0.26871274"
       y="-0.19076718"
       width="1.5374255"
       height="1.3815344"
       class="B"><feGaussianBlur
         stdDeviation="1.005"
         id="feGaussianBlur19" /></filter><filter
       id="K"
       x="-0.16686611"
       y="-0.19780769"
       width="1.3337322"
       height="1.3956154"
       class="B"><feGaussianBlur
         stdDeviation="1.005"
         id="feGaussianBlur22" /></filter><linearGradient
       id="A"
       x1="1091.453"
       y1="563.801"
       x2="1049.718"
       y2="563.801"
       spreadMethod="reflect"
       gradientUnits="userSpaceOnUse"><stop
         offset="0"
         stop-color="#ffd285"
         id="stop25" /><stop
         offset=".232"
         stop-color="#ffcd79"
         id="stop27" /><stop
         offset=".616"
         stop-color="#ffca73"
         id="stop29" /><stop
         offset=".808"
         stop-color="#ffd386"
         id="stop31" /><stop
         offset="1"
         stop-color="#ffc86e"
         id="stop33" /></linearGradient><linearGradient
       id="C"
       x1="659.982"
       y1="1050.809"
       x2="659.982"
       y2="76.788"
       gradientUnits="userSpaceOnUse"><stop
         offset="0"
         id="stop36" /><stop
         offset=".6"
         stop-color="#fff"
         id="stop38" /></linearGradient><clipPath
       id="D"><path
         d="M1799.134-1180.993h4.879a7.223 7.223 0 0 1 7.239 7.239v123.263a7.223 7.223 0 0 1-7.239 7.239h-4.879a7.223 7.223 0 0 1-7.239-7.239v-123.263a7.223 7.223 0 0 1 7.239-7.239z"
         stroke-width="1.534"
         id="path41" /></clipPath><clipPath
       id="F"><path
         d="M527.951 714.097c14.659 25.654 46.178 41.047 80.627 42.146v-4.031c-25.654-21.623-41.78-53.507-75.863-62.303-4.031 4.398-8.796 13.927-4.764 24.188zm-12.094 80.261c14.293 10.628 35.916 14.293 58.272 16.858 19.79-10.995 57.172-6.597 75.863-7.33-3.298 6.963-3.298 17.591-4.764 26.754-30.785 6.963-64.135 2.565-79.894 19.057 22.722 14.293 53.874 12.461 80.261 6.23-2.932 16.492-6.963 27.487 1.832 38.115 10.995 1.466 22.722 14.293 37.015 14.66 5.497 0 8.796-2.199 14.66-1.466-2.565-13.927-13.194-24.555-23.089-34.083.733-8.429-3.298-12.094-2.932-20.157 5.131-.367 9.529-1.099 17.225-1.466-4.031-5.864-12.094-10.628-17.225-12.461 1.099-13.194-2.199-27.12 3.298-38.115 19.424-.367 34.816-5.864 52.408-2.199 3.665 13.56-.367 32.251 8.429 42.879 8.429 9.895 37.748 16.125 46.178 13.56-6.23-12.461-13.56-23.822-25.288-30.419l-5.864-31.518c10.995.733 18.691-1.466 23.455-6.597 4.398.367 4.398 5.131 8.063 6.23 7.33-5.131 12.094 2.932 21.256.733-4.031-16.492-26.021-25.288-39.947-36.282-21.989 17.225-53.874 17.225-89.057 19.424-6.963-24.555-9.895-54.607-1.466-75.13 13.927-.367 25.288 2.199 37.015 6.963-6.597-20.89-21.989-46.544-50.575-45.078.367-1.466.366-1.099 4.031-1.099 16.125-15.393 37.015-26.387 53.141-41.78-3.298-2.932 3.665-5.497 6.23-6.23.367 4.398 10.628-3.665 15.759-6.597 1.832-1.466 10.628-8.429 9.162-5.131 15.026-1.466 25.654-14.66 39.214-16.125.367-5.864-5.497-2.932-5.497-7.33-4.764.367-7.33-1.466-11.728-3.665 0 0 4.764.367 5.131-1.466-33.351-2.932-58.272 20.523-84.659 34.45-18.324 7.33-32.984 18.691-42.879 31.151-30.785 16.859-49.476 44.712-72.565 68.533 3.298 15.759 23.455 27.12 43.612 26.021 4.398-7.33-3.298-9.162-4.031-15.026 7.696-13.194 18.324-28.586 27.12-33.717.733-4.764 1.1-12.461 7.696-15.393-9.529 19.424-5.497 41.413-5.497 64.135 0 12.461-1.099 25.288-6.23 37.748 4.398 2.199 8.429 4.398 10.628 8.796-37.382-1.099-79.162 5.497-106.282-.733-8.429 2.565-17.225 4.764-26.387 6.597-3.665 1.099-1.099 4.764-1.099 7.696zm199.736-71.832c5.131 8.796 3.298 24.188 10.995 30.419 18.324-6.23 25.288-29.686 50.942-24.921 2.565-2.932 5.497-5.131 7.696-5.131-1.099-8.063 1.099-19.79 1.099-29.319s-2.199-17.225-12.094-16.492c-2.565 0-9.529 3.665-13.194 6.597-13.56 10.262-30.052 32.617-45.445 38.848z"
         stroke-width="18.184"
         id="path44" /></clipPath><inkscape:path-effect
       effect="fillet_chamfer"
       id="path-effect14339"
       is_visible="true"
       lpeversion="1"
       nodesatellites_param="F,0,0,1,0,10,0,1 @ F,0,0,1,0,10,0,1 @ F,0,0,1,0,10,0,1 @ F,0,0,1,0,10,0,1"
       unit="px"
       method="auto"
       mode="F"
       radius="10"
       chamfer_steps="1"
       flexible="false"
       use_knot_distance="true"
       apply_no_radius="true"
       apply_with_radius="true"
       only_selected="false"
       hide_knots="false" /><filter
       id="C-4"
       x="-0.012394769"
       y="-0.012013239"
       width="1.0247895"
       height="1.0240265"
       class="B"><feGaussianBlur
         stdDeviation="2.441"
         id="feGaussianBlur4-7" /></filter><filter
       id="E-1"
       x="-0.050834621"
       y="-0.04546217"
       width="1.1016692"
       height="1.0909243"
       class="B"><feGaussianBlur
         stdDeviation="5.112"
         id="feGaussianBlur7-1" /></filter><filter
       id="G-34"
       x="-0.19478189"
       y="-0.027373106"
       width="1.3895638"
       height="1.0547462"
       class="B"><feGaussianBlur
         stdDeviation="1.571"
         id="feGaussianBlur10-6" /></filter><filter
       id="H-4"
       x="-0.14207156"
       y="-0.21663456"
       width="1.2841431"
       height="1.4332691"
       class="B"><feGaussianBlur
         stdDeviation=".815"
         id="feGaussianBlur13-4" /></filter><filter
       id="I-9"
       x="-0.11398413"
       y="-0.16712594"
       width="1.2279683"
       height="1.3342519"
       class="B"><feGaussianBlur
         stdDeviation=".815"
         id="feGaussianBlur16-1" /></filter><filter
       id="J-63"
       x="-0.32522829"
       y="-0.19027061"
       width="1.6504566"
       height="1.3805412"
       class="B"><feGaussianBlur
         stdDeviation=".815"
         id="feGaussianBlur19-1" /></filter><linearGradient
       id="A-40"
       x1="228.547"
       y1="805.755"
       x2="270.281"
       y2="805.755"
       spreadMethod="reflect"
       gradientUnits="userSpaceOnUse"
       gradientTransform="translate(-1159.2282,-1309.2906)"><stop
         offset="0"
         stop-color="#ffd285"
         id="stop22" /><stop
         offset=".232"
         stop-color="#ffcd79"
         id="stop24" /><stop
         offset=".616"
         stop-color="#ffca73"
         id="stop26" /><stop
         offset=".808"
         stop-color="#ffd386"
         id="stop28" /><stop
         offset="1"
         stop-color="#ffc86e"
         id="stop30" /></linearGradient><linearGradient
       id="B-8"
       x1="660.031"
       y1="318.746"
       x2="660.029"
       y2="1292.766"
       gradientUnits="userSpaceOnUse"
       gradientTransform="translate(-1159.2282,-1309.2906)"><stop
         offset=".596"
         stop-color="#fff"
         id="stop33-7" /><stop
         offset="1"
         id="stop35" /></linearGradient><clipPath
       id="D-0"><path
         d="M-124.639 624.558c-12.351-21.614-38.905-34.582-67.929-35.509v3.396c21.614 18.217 35.2 45.081 63.915 52.491 3.397-3.705 7.41-11.733 4.014-20.379zm10.189-67.621c-12.042-8.954-30.259-12.042-49.095-14.203-16.674 9.263-48.168 5.558-63.915 6.175 2.779-5.867 2.779-14.821 4.014-22.54 25.937-5.867 54.035-2.161 67.312-16.056-19.144-12.042-45.389-10.498-67.621-5.249 2.47-13.895 5.867-23.158-1.544-32.112-9.263-1.235-19.144-12.042-31.186-12.351-4.632 0-7.41 1.853-12.351 1.235 2.161 11.733 11.116 20.688 19.453 28.716-.618 7.102 2.779 10.189 2.47 16.982-4.323.309-8.028.926-14.512 1.235 3.397 4.94 10.189 8.954 14.512 10.498-.926 11.116 1.853 22.849-2.779 32.112-16.365.309-29.333 4.94-44.154 1.853-3.088-11.424.309-27.172-7.102-36.126-7.102-8.337-31.803-13.586-38.905-11.425 5.249 10.498 11.424 20.07 21.305 25.628l4.94 26.554c-9.263-.618-15.747 1.235-19.761 5.558-3.705-.309-3.705-4.323-6.793-5.249-6.175 4.323-10.189-2.47-17.909-.618 3.396 13.895 21.923 21.305 33.656 30.568 18.526-14.512 45.389-14.512 75.031-16.365 5.867 20.688 8.337 46.007 1.235 63.298-11.733.309-21.305-1.853-31.186-5.867 5.558 17.6 18.526 39.214 42.61 37.979-.309 1.235-.309.926-3.396.926-13.586 12.968-31.186 22.231-44.772 35.2 2.779 2.47-3.088 4.632-5.249 5.249-.309-3.705-8.954 3.088-13.277 5.558-1.544 1.235-8.954 7.102-7.719 4.323-12.66 1.235-21.614 12.351-33.038 13.586-.309 4.94 4.632 2.47 4.632 6.175 4.014-.309 6.175 1.235 9.881 3.088 0 0-4.014-.309-4.323 1.235 28.098 2.47 49.095-17.291 71.326-29.024 15.439-6.175 27.789-15.747 36.126-26.245 25.937-14.203 41.684-37.67 61.137-57.74-2.779-13.277-19.761-22.849-36.744-21.923-3.705 6.175 2.779 7.719 3.396 12.66-6.484 11.116-15.439 24.084-22.849 28.407-.618 4.014-.926 10.498-6.484 12.968 8.028-16.365 4.632-34.891 4.632-54.035 0-10.498.926-21.305 5.249-31.803-3.705-1.853-7.102-3.705-8.954-7.41 31.495.926 66.694-4.632 89.543.618 7.102-2.161 14.512-4.014 22.231-5.558 3.088-.926.926-4.014.926-6.484zm-168.28 60.519c-4.323-7.41-2.779-20.379-9.263-25.628-15.439 5.249-21.305 25.01-42.919 20.996-2.161 2.47-4.632 4.323-6.484 4.323.926 6.793-.926 16.674-.926 24.702s1.853 14.512 10.189 13.895c2.161 0 8.028-3.088 11.116-5.558 11.425-8.646 25.319-27.481 38.288-32.73z"
         stroke-width="15.32"
         id="path38" /></clipPath><clipPath
       id="F-8"><path
         d="M1799.134-1180.993h4.879a7.223 7.223 0 0 1 7.239 7.239v123.263a7.223 7.223 0 0 1-7.239 7.239h-4.879a7.223 7.223 0 0 1-7.239-7.239v-123.263a7.223 7.223 0 0 1 7.239-7.239z"
         stroke-width="1.534"
         id="path41-9" /></clipPath><filter
       inkscape:menu-tooltip="In and out glow with a possible offset and colorizable flood"
       inkscape:menu="Shadows and Glows"
       inkscape:label="Cutout Glow"
       style="color-interpolation-filters:sRGB;"
       id="filter4085"
       x="-0.014692907"
       y="-0.010978637"
       width="1.0355079"
       height="1.0265317"><feOffset
         dy="3"
         dx="3"
         id="feOffset4075" /><feGaussianBlur
         stdDeviation="3"
         result="blur"
         id="feGaussianBlur4077" /><feFlood
         flood-color="rgb(0,0,0)"
         flood-opacity="1"
         result="flood"
         id="feFlood4079" /><feComposite
         in="flood"
         in2="SourceGraphic"
         operator="in"
         result="composite"
         id="feComposite4081" /><feBlend
         in="blur"
         in2="composite"
         mode="normal"
         id="feBlend4083" /></filter><filter
       inkscape:menu-tooltip="In and out glow with a possible offset and colorizable flood"
       inkscape:menu="Shadows and Glows"
       inkscape:label="Cutout Glow"
       style="color-interpolation-filters:sRGB;"
       id="filter5627"
       x="-0.035099721"
       y="-0.010978637"
       width="1.0497926"
       height="1.0372054"><feOffset
         dy="10"
         dx="-10"
         id="feOffset5617" /><feGaussianBlur
         stdDeviation="3"
         result="blur"
         id="feGaussianBlur5619" /><feFlood
         flood-color="rgb(0,0,0)"
         flood-opacity="1"
         result="flood"
         id="feFlood5621" /><feComposite
         in="flood"
         in2="SourceGraphic"
         operator="in"
         result="composite"
         id="feComposite5623" /><feBlend
         in="blur"
         in2="composite"
         mode="normal"
         id="feBlend5625" /></filter><filter
       inkscape:menu-tooltip="In and out glow with a possible offset and colorizable flood"
       inkscape:menu="Shadows and Glows"
       inkscape:label="Cutout Glow"
       style="color-interpolation-filters:sRGB;"
       id="filter10903"
       x="-0.044109061"
       y="-0.019459825"
       width="1.0625733"
       height="1.0659472"><feOffset
         dy="10"
         dx="-10"
         id="feOffset10893" /><feGaussianBlur
         stdDeviation="3"
         result="blur"
         id="feGaussianBlur10895" /><feFlood
         flood-color="rgb(0,0,0)"
         flood-opacity="1"
         result="flood"
         id="feFlood10897" /><feComposite
         in="flood"
         in2="SourceGraphic"
         operator="in"
         result="composite"
         id="feComposite10899" /><feBlend
         in="blur"
         in2="composite"
         mode="normal"
         id="feBlend10901" /></filter><clipPath
       id="D-2"><path
         d="m -124.639,624.558 c -12.351,-21.614 -38.905,-34.582 -67.929,-35.509 v 3.396 c 21.614,18.217 35.2,45.081 63.915,52.491 3.397,-3.705 7.41,-11.733 4.014,-20.379 z m 10.189,-67.621 c -12.042,-8.954 -30.259,-12.042 -49.095,-14.203 -16.674,9.263 -48.168,5.558 -63.915,6.175 2.779,-5.867 2.779,-14.821 4.014,-22.54 25.937,-5.867 54.035,-2.161 67.312,-16.056 -19.144,-12.042 -45.389,-10.498 -67.621,-5.249 2.47,-13.895 5.867,-23.158 -1.544,-32.112 -9.263,-1.235 -19.144,-12.042 -31.186,-12.351 -4.632,0 -7.41,1.853 -12.351,1.235 2.161,11.733 11.116,20.688 19.453,28.716 -0.618,7.102 2.779,10.189 2.47,16.982 -4.323,0.309 -8.028,0.926 -14.512,1.235 3.397,4.94 10.189,8.954 14.512,10.498 -0.926,11.116 1.853,22.849 -2.779,32.112 -16.365,0.309 -29.333,4.94 -44.154,1.853 -3.088,-11.424 0.309,-27.172 -7.102,-36.126 -7.102,-8.337 -31.803,-13.586 -38.905,-11.425 5.249,10.498 11.424,20.07 21.305,25.628 l 4.94,26.554 c -9.263,-0.618 -15.747,1.235 -19.761,5.558 -3.705,-0.309 -3.705,-4.323 -6.793,-5.249 -6.175,4.323 -10.189,-2.47 -17.909,-0.618 3.396,13.895 21.923,21.305 33.656,30.568 18.526,-14.512 45.389,-14.512 75.031,-16.365 5.867,20.688 8.337,46.007 1.235,63.298 -11.733,0.309 -21.305,-1.853 -31.186,-5.867 5.558,17.6 18.526,39.214 42.61,37.979 -0.309,1.235 -0.309,0.926 -3.396,0.926 -13.586,12.968 -31.186,22.231 -44.772,35.2 2.779,2.47 -3.088,4.632 -5.249,5.249 -0.309,-3.705 -8.954,3.088 -13.277,5.558 -1.544,1.235 -8.954,7.102 -7.719,4.323 -12.66,1.235 -21.614,12.351 -33.038,13.586 -0.309,4.94 4.632,2.47 4.632,6.175 4.014,-0.309 6.175,1.235 9.881,3.088 0,0 -4.014,-0.309 -4.323,1.235 28.098,2.47 49.095,-17.291 71.326,-29.024 15.439,-6.175 27.789,-15.747 36.126,-26.245 25.937,-14.203 41.684,-37.67 61.137,-57.74 -2.779,-13.277 -19.761,-22.849 -36.744,-21.923 -3.705,6.175 2.779,7.719 3.396,12.66 -6.484,11.116 -15.439,24.084 -22.849,28.407 -0.618,4.014 -0.926,10.498 -6.484,12.968 8.028,-16.365 4.632,-34.891 4.632,-54.035 0,-10.498 0.926,-21.305 5.249,-31.803 -3.705,-1.853 -7.102,-3.705 -8.954,-7.41 31.495,0.926 66.694,-4.632 89.543,0.618 7.102,-2.161 14.512,-4.014 22.231,-5.558 3.088,-0.926 0.926,-4.014 0.926,-6.484 z m -168.28,60.519 c -4.323,-7.41 -2.779,-20.379 -9.263,-25.628 -15.439,5.249 -21.305,25.01 -42.919,20.996 -2.161,2.47 -4.632,4.323 -6.484,4.323 0.926,6.793 -0.926,16.674 -0.926,24.702 0,8.028 1.853,14.512 10.189,13.895 2.161,0 8.028,-3.088 11.116,-5.558 11.425,-8.646 25.319,-27.481 38.288,-32.73 z"
         stroke-width="15.32"
         id="path38-7" /></clipPath><filter
       id="E-9"
       x="-0.050834621"
       y="-0.04546217"
       width="1.1016692"
       height="1.0909243"
       class="B"><feGaussianBlur
         stdDeviation="5.112"
         id="feGaussianBlur7-2" /></filter><filter
       inkscape:menu-tooltip="In and out glow with a possible offset and colorizable flood"
       inkscape:menu="Shadows and Glows"
       inkscape:label="Cutout Glow"
       style="color-interpolation-filters:sRGB"
       id="filter10903-9"
       x="-0.044109054"
       y="-0.019459825"
       width="1.0625733"
       height="1.0659472"><feOffset
         dy="10"
         dx="-10"
         id="feOffset10893-2" /><feGaussianBlur
         stdDeviation="3"
         result="blur"
         id="feGaussianBlur10895-5" /><feFlood
         flood-color="rgb(0,0,0)"
         flood-opacity="1"
         result="flood"
         id="feFlood10897-9" /><feComposite
         in="flood"
         in2="SourceGraphic"
         operator="in"
         result="composite"
         id="feComposite10899-7" /><feBlend
         in="blur"
         in2="composite"
         mode="normal"
         id="feBlend10901-5" /></filter><clipPath
       clipPathUnits="userSpaceOnUse"
       id="clipPath11743"><g
         id="g11749"><text
           xml:space="preserve"
           style="font-size:423.333px;font-family:'Yuji Mai';-inkscape-font-specification:'Yuji Mai';fill:#29303d;fill-opacity:1;stroke-width:1.37054;stroke-linecap:round;stop-color:#000000"
           x="1319.446"
           y="878.38995"
           id="text11747"><tspan
             sodipodi:role="line"
             id="tspan11745"
             style="font-size:423.333px;stroke-width:1.37054"
             x="1319.446"
             y="878.38995">兵</tspan></text></g></clipPath><filter
       id="C-7"
       x="-0.01052904"
       y="-0.011053209"
       width="1.0210581"
       height="1.0221064"
       class="B"><feGaussianBlur
         stdDeviation="2.441"
         id="feGaussianBlur11757" /></filter><filter
       id="E-2"
       x="-0.047960027"
       y="-0.048037478"
       width="1.0959201"
       height="1.096075"
       class="B"><feGaussianBlur
         stdDeviation="7.58"
         id="feGaussianBlur11760" /></filter><filter
       id="G-2"
       x="-0.048002438"
       y="-0.048002441"
       width="1.0960049"
       height="1.0960049"
       class="B"><feGaussianBlur
         stdDeviation="5.51"
         id="feGaussianBlur11763" /></filter><filter
       id="H-6"
       x="-0.15500487"
       y="-0.17417449"
       width="1.3100097"
       height="1.348349"
       class="B"><feGaussianBlur
         stdDeviation="1.005"
         id="feGaussianBlur11766" /></filter><filter
       id="I-1"
       x="-0.16749596"
       y="-0.21712731"
       width="1.3349919"
       height="1.4342546"
       class="B"><feGaussianBlur
         stdDeviation="1.005"
         id="feGaussianBlur11769" /></filter><filter
       id="J-6"
       x="-0.13868595"
       y="-0.16783961"
       width="1.2773719"
       height="1.3356792"
       class="B"><feGaussianBlur
         stdDeviation="1.005"
         id="feGaussianBlur11772" /></filter><filter
       id="K-1"
       x="-0.19308802"
       y="-0.25104453"
       width="1.386176"
       height="1.5020891"
       class="B"><feGaussianBlur
         stdDeviation="1.005"
         id="feGaussianBlur11775" /></filter><filter
       id="L"
       x="-0.10037904"
       y="-0.12979434"
       width="1.2007581"
       height="1.2595887"
       class="B"><feGaussianBlur
         stdDeviation="1.005"
         id="feGaussianBlur11778" /></filter><filter
       id="M"
       x="-0.11922398"
       y="-0.14197023"
       width="1.238448"
       height="1.2839405"
       class="B"><feGaussianBlur
         stdDeviation="1.005"
         id="feGaussianBlur11781" /></filter><linearGradient
       id="A-2"
       x1="228.547"
       y1="660.587"
       x2="270.281"
       y2="660.587"
       spreadMethod="reflect"
       gradientUnits="userSpaceOnUse"><stop
         offset="0"
         stop-color="#ffd285"
         id="stop11784" /><stop
         offset=".232"
         stop-color="#ffcd79"
         id="stop11786" /><stop
         offset=".616"
         stop-color="#ffca73"
         id="stop11788" /><stop
         offset=".808"
         stop-color="#ffd386"
         id="stop11790" /><stop
         offset="1"
         stop-color="#ffc86e"
         id="stop11792" /></linearGradient><linearGradient
       id="B-4"
       x1="660.031"
       y1="176.668"
       x2="660.029"
       y2="1147.598"
       gradientUnits="userSpaceOnUse"><stop
         offset=".597"
         stop-color="#fff"
         id="stop11795" /><stop
         offset="1"
         id="stop11797" /></linearGradient><clipPath
       id="D-7"><path
         d="M-309.997 569.351c-12.933-14.657-33.194-29.746-54.318-36.643-15.951-5.173-32.332-5.604-46.99 2.155-27.59-4.311-46.99-.431-68.113-1.293.862-8.622-2.587-22.417 3.449-26.297 20.261 0 40.954-4.311 61.216-6.466 6.898-.862 14.226 4.311 18.537-3.018-12.502-17.244-45.696-25.435-81.477-16.382-.862-9.484-1.724-15.088 1.724-26.297 30.177-1.724 57.336-1.293 81.477-11.209-6.035-12.502-22.848-20.262-43.541-22.848-6.466 6.466-21.124 5.173-34.488 5.173 4.742-18.106-6.035-26.728-10.346-37.505 27.159-5.604 68.975-.862 101.308-3.449-.431-20.693-38.799-27.59-57.336-25.004-23.279 3.449-51.732 2.155-75.442 3.88-36.643 2.587-71.131 10.777-104.756 12.933-3.018.862.431 7.76-3.018 8.191-6.898.431-8.622-4.742-16.813-3.018-4.742 8.622 3.88 13.364 5.173 21.124 12.933 3.88 17.675 14.657 18.106 30.608.862 33.194 0 91.824-8.191 120.707 9.915 9.053 15.519 22.848 26.728 30.608 2.155-2.587 16.382-5.604 16.382-11.209 62.509-6.898 122-16.813 179.336-12.933 7.329 25.866-5.173 51.732-6.466 73.286-.431 4.742 4.311 9.915 3.449 14.657-2.155 13.795-12.502 23.71-23.279 28.883 0-3.018 19.399-16.382 18.537-22.848-13.364 9.053-25.866 30.608-43.541 32.763-25.004 3.018-52.594-18.968-75.011-11.209 17.244 6.898 28.883 20.693 38.368 35.781 18.106 9.484 30.608 27.59 56.474 25.866 13.795-.862 35.35-12.071 44.834-21.124 28.883-26.728 25.435-85.357 36.643-126.742 18.106-2.587 34.488-12.502 41.385-21.124zm-140.968 72.855c2.587-9.915 2.156-18.106 0-25.004-5.604-18.968-26.297-28.883-48.283-36.643 1.293 6.035 2.156 12.933 1.724 21.124 12.933 15.519 19.83 43.972 46.558 40.523zm-60.353-16.813c-6.466-19.83-31.039-31.47-44.403-38.368-4.311 34.057 17.244 62.509 43.11 63.371 3.88-9.484 3.449-17.675 1.293-25.004zm-60.785 7.76c-6.035-19.83-28.452-34.488-46.99-41.385 5.604 29.746 12.071 67.251 44.834 68.544 4.311-9.915 4.742-18.968 2.155-27.159zm-65.096 40.092c10.777-46.558-20.262-64.233-50.007-79.753-8.191 8.622 10.777 31.901 1.724 45.696 9.915 7.76 16.382 22.848 26.728 30.608 5.604 4.311 12.502 6.466 21.555 3.449zm124.587-242.276c-23.71-.431-37.936 6.898-64.664 4.742 2.587-6.898.862-21.986-3.449-27.159 12.502-15.088 42.247-14.226 64.664-16.813 2.155 12.071 4.311 24.141 3.449 39.23zm-1.724 55.18c-25.004.431-40.954 2.587-62.94 4.742-3.449-7.329-1.293-24.141 0-27.59 24.141-2.155 38.368-7.329 62.94-6.466-.431 10.777 1.724 19.83 0 29.315zm1.724 50.438c-24.572 6.898-45.265 6.466-66.389 8.191-1.293-8.622 3.018-19.83 1.293-27.159 23.71 1.724 38.799-9.484 63.371-8.622-.431 10.346 3.018 16.382 1.724 27.59z"
         stroke-width="21.389"
         id="path11800" /></clipPath><clipPath
       id="F-7"><path
         d="M1799.132 1043.254a7.22 7.22 0 0 0-7.237 7.237v107.141l-44.726-44.726 10.889-10.886c-.771-2.729-3.59-5.548-6.319-6.319l-30.343-8.569-5.259-5.26a7.222 7.222 0 0 0-10.237 0l-3.45 3.45a7.222 7.222 0 0 0 0 10.237l5.259 5.259 8.569 30.343c.771 2.729 3.59 5.548 6.319 6.319l10.886-10.889 44.726 44.726h-107.141a7.22 7.22 0 0 0-7.237 7.237v4.88c0 4.01 3.227 7.24 7.237 7.24h107.141l-44.726 44.726-10.886-10.889c-2.729.771-5.548 3.586-6.319 6.315l-8.569 30.347-5.259 5.259a7.222 7.222 0 0 0 0 10.237l3.45 3.45a7.222 7.222 0 0 0 10.237 0l5.266-5.266 30.337-8.565c2.729-.771 5.548-3.586 6.319-6.315l-10.889-10.886 44.726-44.726v107.138c0 4.01 3.227 7.24 7.237 7.24h4.88c4.01 0 7.24-3.23 7.24-7.24v-107.138l44.726 44.726-10.889 10.886c.771 2.729 3.586 5.545 6.315 6.315l30.34 8.565 5.266 5.266a7.222 7.222 0 0 0 10.237 0l3.45-3.45a7.222 7.222 0 0 0 0-10.237l-5.266-5.266-8.565-30.34c-.771-2.729-3.586-5.545-6.315-6.315l-10.886 10.889-44.726-44.726h107.138c4.01 0 7.24-3.23 7.24-7.24v-4.88c0-4.01-3.23-7.237-7.24-7.237H1824.94l44.726-44.726 10.886 10.889c2.729-.771 5.545-3.59 6.315-6.319l8.565-30.337 5.266-5.266a7.222 7.222 0 0 0 0-10.237l-1.725-1.725-1.725-1.725a7.222 7.222 0 0 0-10.237 0l-5.259 5.26-30.347 8.569c-2.729.771-5.545 3.59-6.315 6.319l10.889 10.886-44.726 44.726V1050.49c0-4.01-3.23-7.237-7.24-7.237zm2.438 137.74h.01v.01h-.01z"
         stroke-width="1.534"
         id="path11803" /></clipPath><filter
       id="C-2"
       x="-0.012394769"
       y="-0.012013239"
       width="1.0247895"
       height="1.0240265"><feGaussianBlur
         stdDeviation="2.441"
         id="feGaussianBlur11920" /></filter><filter
       id="E-6"
       x="-0.026998005"
       y="-0.026998101"
       width="1.053996"
       height="1.0539962"
       class="B"><feGaussianBlur
         stdDeviation="3.099"
         id="feGaussianBlur11923" /></filter><filter
       id="G-3"
       x="-0.058025685"
       y="-0.04092232"
       width="1.1160514"
       height="1.0818446"
       class="B"><feGaussianBlur
         stdDeviation="3.543"
         id="feGaussianBlur11926" /></filter><filter
       id="H-0"
       x="-0.093793037"
       y="-0.15286111"
       width="1.1875861"
       height="1.3057222"
       class="B"><feGaussianBlur
         stdDeviation=".9"
         id="feGaussianBlur11929" /></filter><filter
       id="I-7"
       x="-0.065162517"
       y="-0.067338683"
       width="1.130325"
       height="1.1346774"
       class="B"><feGaussianBlur
         stdDeviation=".9"
         id="feGaussianBlur11932" /></filter><linearGradient
       id="A-4"
       x1="228.547"
       y1="805.748"
       x2="270.281"
       y2="805.748"
       spreadMethod="reflect"
       gradientUnits="userSpaceOnUse"
       gradientTransform="translate(1292.803,-136.62942)"><stop
         offset="0"
         stop-color="#ffd285"
         id="stop11935" /><stop
         offset=".232"
         stop-color="#ffcd79"
         id="stop11937" /><stop
         offset=".616"
         stop-color="#ffca73"
         id="stop11939" /><stop
         offset=".808"
         stop-color="#ffd386"
         id="stop11941" /><stop
         offset="1"
         stop-color="#ffc86e"
         id="stop11943" /></linearGradient><linearGradient
       id="B-5"
       x1="660.031"
       y1="318.739"
       x2="660.029"
       y2="1292.759"
       gradientUnits="userSpaceOnUse"
       gradientTransform="translate(1292.803,-136.62942)"><stop
         offset=".604"
         stop-color="#fff"
         id="stop11946" /><stop
         offset="1"
         id="stop11948" /></linearGradient><clipPath
       id="D-1"><path
         d="M1799.132 1043.253a7.22 7.22 0 0 0-7.237 7.237v107.141l-75.759-75.759a7.222 7.222 0 0 0-10.237 0l-3.45 3.45a7.222 7.222 0 0 0 0 10.237l75.759 75.759h-107.141a7.223 7.223 0 0 0-7.237 7.24v4.876c0 4.01 3.227 7.24 7.237 7.24h120.828v120.828a7.22 7.22 0 0 0 7.237 7.237h4.88c4.01 0 7.24-3.227 7.24-7.237v-120.828h120.825c4.01 0 7.24-3.23 7.24-7.24v-4.876c0-4.01-3.23-7.24-7.24-7.24h-107.138l75.759-75.759a7.222 7.222 0 0 0 0-10.237l-3.45-3.45a7.222 7.222 0 0 0-10.237 0l-75.759 75.759V1050.49c0-4.01-3.23-7.237-7.24-7.237zm2.438 137.74h.01v.01h-.01z"
         stroke-width="1.534"
         id="path11951" /></clipPath><clipPath
       id="F-1"><path
         d="M982.397 347.79c-5.318-1.999-15.307-9.799-22.198-17.332-11.647-12.733-12.529-14.865-12.529-30.288 0-13.47 1.499-18.527 7.967-26.882 12.203-15.764 22.463-24.326 42.838-35.749l18.655-10.459-2.595-15.114c-1.427-8.313-4.779-23.864-7.45-34.559-4.612-18.474-5.426-15.573-12.474-18.186-11.903-4.414-12.257-5.303.606-16.686 11.268-9.971 26.614-16.976 30.27-13.817.985.851 1.971 12.958 2.191 26.904s1.253 33.888 2.296 44.315l1.896 18.959 18.371-7.607c21.637-8.959 26.026-9.473 26.026-3.051 0 2.806-7.331 9.239-17.804 15.621-25.142 15.321-66.454 49.521-70.818 58.625-5.762 12.021-6.054 25.28 3.9 31.668 11.08 7.11 33.452 10.552 65.71-2.216 35.013-13.859 49.631-5.427 49.631 11.723 0 11.818-14.309 17.551-59.937 24.013-33.845 4.793-52.032 4.827-64.552.12z"
         stroke-width="2.846"
         id="path11954" /></clipPath><inkscape:path-effect
       effect="fillet_chamfer"
       id="path-effect14339-8"
       is_visible="true"
       lpeversion="1"
       nodesatellites_param="F,0,0,1,0,10,0,1 @ F,0,0,1,0,10,0,1 @ F,0,0,1,0,10,0,1 @ F,0,0,1,0,10,0,1"
       unit="px"
       method="auto"
       mode="F"
       radius="10"
       chamfer_steps="1"
       flexible="false"
       use_knot_distance="true"
       apply_no_radius="true"
       apply_with_radius="true"
       only_selected="false"
       hide_knots="false" /><inkscape:path-effect
       effect="fillet_chamfer"
       id="path-effect14339-8-6"
       is_visible="true"
       lpeversion="1"
       nodesatellites_param="F,0,0,1,0,10,0,1 @ F,0,0,1,0,10,0,1 @ F,0,0,1,0,10,0,1 @ F,0,0,1,0,10,0,1"
       unit="px"
       method="auto"
       mode="F"
       radius="10"
       chamfer_steps="1"
       flexible="false"
       use_knot_distance="true"
       apply_no_radius="true"
       apply_with_radius="true"
       only_selected="false"
       hide_knots="false" /><inkscape:path-effect
       effect="fillet_chamfer"
       id="path-effect14339-3"
       is_visible="true"
       lpeversion="1"
       nodesatellites_param="F,0,0,1,0,10,0,1 @ F,0,0,1,0,10,0,1 @ F,0,0,1,0,10,0,1 @ F,0,0,1,0,10,0,1"
       unit="px"
       method="auto"
       mode="F"
       radius="10"
       chamfer_steps="1"
       flexible="false"
       use_knot_distance="true"
       apply_no_radius="true"
       apply_with_radius="true"
       only_selected="false"
       hide_knots="false" /><inkscape:path-effect
       effect="fillet_chamfer"
       id="path-effect14339-8-0"
       is_visible="true"
       lpeversion="1"
       nodesatellites_param="F,0,0,1,0,10,0,1 @ F,0,0,1,0,10,0,1 @ F,0,0,1,0,10,0,1 @ F,0,0,1,0,10,0,1"
       unit="px"
       method="auto"
       mode="F"
       radius="10"
       chamfer_steps="1"
       flexible="false"
       use_knot_distance="true"
       apply_no_radius="true"
       apply_with_radius="true"
       only_selected="false"
       hide_knots="false" /><inkscape:path-effect
       effect="fillet_chamfer"
       id="path-effect14339-2"
       is_visible="true"
       lpeversion="1"
       nodesatellites_param="F,0,0,1,0,10,0,1 @ F,0,0,1,0,10,0,1 @ F,0,0,1,0,10,0,1 @ F,0,0,1,0,10,0,1"
       unit="px"
       method="auto"
       mode="F"
       radius="10"
       chamfer_steps="1"
       flexible="false"
       use_knot_distance="true"
       apply_no_radius="true"
       apply_with_radius="true"
       only_selected="false"
       hide_knots="false" /><inkscape:path-effect
       effect="fillet_chamfer"
       id="path-effect14339-9"
       is_visible="true"
       lpeversion="1"
       nodesatellites_param="F,0,0,1,0,10,0,1 @ F,0,0,1,0,10,0,1 @ F,0,0,1,0,10,0,1 @ F,0,0,1,0,10,0,1"
       unit="px"
       method="auto"
       mode="F"
       radius="10"
       chamfer_steps="1"
       flexible="false"
       use_knot_distance="true"
       apply_no_radius="true"
       apply_with_radius="true"
       only_selected="false"
       hide_knots="false" /><inkscape:path-effect
       effect="fillet_chamfer"
       id="path-effect14339-8-7"
       is_visible="true"
       lpeversion="1"
       nodesatellites_param="F,0,0,1,0,10,0,1 @ F,0,0,1,0,10,0,1 @ F,0,0,1,0,10,0,1 @ F,0,0,1,0,10,0,1"
       unit="px"
       method="auto"
       mode="F"
       radius="10"
       chamfer_steps="1"
       flexible="false"
       use_knot_distance="true"
       apply_no_radius="true"
       apply_with_radius="true"
       only_selected="false"
       hide_knots="false" /><inkscape:path-effect
       effect="fillet_chamfer"
       id="path-effect14339-8-0-5"
       is_visible="true"
       lpeversion="1"
       nodesatellites_param="F,0,0,1,0,10,0,1 @ F,0,0,1,0,10,0,1 @ F,0,0,1,0,10,0,1 @ F,0,0,1,0,10,0,1"
       unit="px"
       method="auto"
       mode="F"
       radius="10"
       chamfer_steps="1"
       flexible="false"
       use_knot_distance="true"
       apply_no_radius="true"
       apply_with_radius="true"
       only_selected="false"
       hide_knots="false" /><inkscape:path-effect
       effect="fillet_chamfer"
       id="path-effect14339-2-9"
       is_visible="true"
       lpeversion="1"
       nodesatellites_param="F,0,0,1,0,10,0,1 @ F,0,0,1,0,10,0,1 @ F,0,0,1,0,10,0,1 @ F,0,0,1,0,10,0,1"
       unit="px"
       method="auto"
       mode="F"
       radius="10"
       chamfer_steps="1"
       flexible="false"
       use_knot_distance="true"
       apply_no_radius="true"
       apply_with_radius="true"
       only_selected="false"
       hide_knots="false" /><filter
       id="H-2"
       x="-0.14207156"
       y="-0.21663456"
       width="1.2841431"
       height="1.4332691"
       class="B"><feGaussianBlur
         stdDeviation=".815"
         id="feGaussianBlur13-1" /></filter><filter
       id="J-4"
       x="-0.32522829"
       y="-0.19027061"
       width="1.6504566"
       height="1.3805412"
       class="B"><feGaussianBlur
         stdDeviation=".815"
         id="feGaussianBlur19-0" /></filter><filter
       inkscape:menu-tooltip="In and out glow with a possible offset and colorizable flood"
       inkscape:menu="Shadows and Glows"
       inkscape:label="Cutout Glow"
       style="color-interpolation-filters:sRGB;"
       id="filter14575"
       x="-0.044109054"
       y="-0.019459825"
       width="1.0625733"
       height="1.0659472"><feOffset
         dy="10"
         dx="-10"
         id="feOffset14565" /><feGaussianBlur
         stdDeviation="3"
         result="blur"
         id="feGaussianBlur14567" /><feFlood
         flood-color="rgb(0,0,0)"
         flood-opacity="1"
         result="flood"
         id="feFlood14569" /><feComposite
         in="flood"
         in2="SourceGraphic"
         operator="in"
         result="composite"
         id="feComposite14571" /><feBlend
         in="blur"
         in2="composite"
         mode="normal"
         id="feBlend14573" /></filter><filter
       inkscape:menu-tooltip="In and out glow with a possible offset and colorizable flood"
       inkscape:menu="Shadows and Glows"
       inkscape:label="Cutout Glow"
       style="color-interpolation-filters:sRGB"
       id="filter14575-7"
       x="-0.044109054"
       y="-0.019459825"
       width="1.0625733"
       height="1.0659472"><feOffset
         dy="10"
         dx="-10"
         id="feOffset14565-6" /><feGaussianBlur
         stdDeviation="3"
         result="blur"
         id="feGaussianBlur14567-4" /><feFlood
         flood-color="rgb(0,0,0)"
         flood-opacity="1"
         result="flood"
         id="feFlood14569-8" /><feComposite
         in="flood"
         in2="SourceGraphic"
         operator="in"
         result="composite"
         id="feComposite14571-6" /><feBlend
         in="blur"
         in2="composite"
         mode="normal"
         id="feBlend14573-6" /></filter><clipPath
       clipPathUnits="userSpaceOnUse"
       id="clipPath14628"><text
         xml:space="preserve"
         style="font-size:423.333px;font-family:'Yuji Mai';-inkscape-font-specification:'Yuji Mai';fill:#29303d;fill-opacity:1;stroke-width:1.37054;stroke-linecap:round;stop-color:#000000"
         x="437.93799"
         y="801.64911"
         id="text14632"><tspan
           sodipodi:role="line"
           id="tspan14630"
           style="font-size:423.333px;stroke-width:1.37054"
           x="437.93799"
           y="801.64911">兵</tspan></text></clipPath><filter
       inkscape:menu-tooltip="In and out glow with a possible offset and colorizable flood"
       inkscape:menu="Shadows and Glows"
       inkscape:label="Cutout Glow"
       style="color-interpolation-filters:sRGB;"
       id="filter14644"
       x="-0.052052722"
       y="-0.052103723"
       width="1.1257941"
       height="1.1259173"><feOffset
         dy="3"
         dx="3"
         id="feOffset14634" /><feGaussianBlur
         stdDeviation="3"
         result="blur"
         id="feGaussianBlur14636" /><feFlood
         flood-color="rgb(0,0,0)"
         flood-opacity="1"
         result="flood"
         id="feFlood14638" /><feComposite
         in="flood"
         in2="SourceGraphic"
         operator="in"
         result="composite"
         id="feComposite14640" /><feBlend
         in="blur"
         in2="composite"
         mode="normal"
         id="feBlend14642" /></filter><filter
       inkscape:menu-tooltip="In and out glow with a possible offset and colorizable flood"
       inkscape:menu="Shadows and Glows"
       inkscape:label="Cutout Glow"
       style="color-interpolation-filters:sRGB;"
       id="filter14656"
       x="-0.052052739"
       y="-0.052103744"
       width="1.1257941"
       height="1.1259174"><feOffset
         dy="3"
         dx="3"
         id="feOffset14646" /><feGaussianBlur
         stdDeviation="3"
         result="blur"
         id="feGaussianBlur14648" /><feFlood
         flood-color="rgb(0,0,0)"
         flood-opacity="1"
         result="flood"
         id="feFlood14650" /><feComposite
         in="flood"
         in2="SourceGraphic"
         operator="in"
         result="composite"
         id="feComposite14652" /><feBlend
         in="blur"
         in2="composite"
         mode="normal"
         id="feBlend14654" /></filter><filter
       inkscape:menu-tooltip="In and out glow with a possible offset and colorizable flood"
       inkscape:menu="Shadows and Glows"
       inkscape:label="Cutout Glow"
       style="color-interpolation-filters:sRGB;"
       id="filter14668"
       x="-0.6167516"
       y="-0.03628245"
       width="1.8749267"
       height="1.1229572"><feOffset
         dy="10"
         dx="-10"
         id="feOffset14658" /><feGaussianBlur
         stdDeviation="3"
         result="blur"
         id="feGaussianBlur14660" /><feFlood
         flood-color="rgb(0,0,0)"
         flood-opacity="1"
         result="flood"
         id="feFlood14662" /><feComposite
         in="flood"
         in2="SourceGraphic"
         operator="in"
         result="composite"
         id="feComposite14664" /><feBlend
         in="blur"
         in2="composite"
         mode="normal"
         id="feBlend14666" /></filter><filter
       inkscape:menu-tooltip="In and out glow with a possible offset and colorizable flood"
       inkscape:menu="Shadows and Glows"
       inkscape:label="Cutout Glow"
       style="color-interpolation-filters:sRGB;"
       id="filter14684"
       x="-0.053747154"
       y="-0.052080623"
       width="1.076246"
       height="1.1764954"><feOffset
         dy="10"
         dx="-10"
         id="feOffset14674" /><feGaussianBlur
         stdDeviation="3"
         result="blur"
         id="feGaussianBlur14676" /><feFlood
         flood-color="rgb(0,0,0)"
         flood-opacity="1"
         result="flood"
         id="feFlood14678" /><feComposite
         in="flood"
         in2="SourceGraphic"
         operator="in"
         result="composite"
         id="feComposite14680" /><feBlend
         in="blur"
         in2="composite"
         mode="normal"
         id="feBlend14682" /></filter><filter
       inkscape:menu-tooltip="In and out glow with a possible offset and colorizable flood"
       inkscape:menu="Shadows and Glows"
       inkscape:label="Cutout Glow"
       style="color-interpolation-filters:sRGB"
       id="filter14684-2"
       x="-0.053747154"
       y="-0.052080623"
       width="1.076246"
       height="1.1764954"><feOffset
         dy="10"
         dx="-10"
         id="feOffset14674-3" /><feGaussianBlur
         stdDeviation="3"
         result="blur"
         id="feGaussianBlur14676-8" /><feFlood
         flood-color="rgb(0,0,0)"
         flood-opacity="1"
         result="flood"
         id="feFlood14678-1" /><feComposite
         in="flood"
         in2="SourceGraphic"
         operator="in"
         result="composite"
         id="feComposite14680-8" /><feBlend
         in="blur"
         in2="composite"
         mode="normal"
         id="feBlend14682-0" /></filter><filter
       inkscape:menu-tooltip="In and out glow with a possible offset and colorizable flood"
       inkscape:menu="Shadows and Glows"
       inkscape:label="Cutout Glow"
       style="color-interpolation-filters:sRGB"
       id="filter14668-8"
       x="-0.61675182"
       y="-0.036282448"
       width="1.874927"
       height="1.1229572"><feOffset
         dy="10"
         dx="-10"
         id="feOffset14658-0" /><feGaussianBlur
         stdDeviation="3"
         result="blur"
         id="feGaussianBlur14660-3" /><feFlood
         flood-color="rgb(0,0,0)"
         flood-opacity="1"
         result="flood"
         id="feFlood14662-0" /><feComposite
         in="flood"
         in2="SourceGraphic"
         operator="in"
         result="composite"
         id="feComposite14664-3" /><feBlend
         in="blur"
         in2="composite"
         mode="normal"
         id="feBlend14666-8" /></filter><clipPath
       clipPathUnits="userSpaceOnUse"
       id="clipPath14796"><path
         d="m 656.55401,1106.744 h 7.03 A 10.406,10.406 0 0 0 674.013,1096.315 V 918.72999 a 10.406,10.406 0 0 0 -10.42899,-10.429 h -7.03 a 10.406,10.406 0 0 0 -10.429,10.429 V 1096.315 a 10.406,10.406 0 0 0 10.429,10.429 z"
         id="path14798"
         style="fill:#29303d;fill-opacity:1;filter:url(#filter14668-8)" /></clipPath><filter
       id="H-23"
       x="-0.14207156"
       y="-0.21663456"
       width="1.2841431"
       height="1.4332691"
       class="B"><feGaussianBlur
         stdDeviation=".815"
         id="feGaussianBlur13-0" /></filter><filter
       inkscape:menu-tooltip="In and out glow with a possible offset and colorizable flood"
       inkscape:menu="Shadows and Glows"
       inkscape:label="Cutout Glow"
       style="color-interpolation-filters:sRGB;"
       id="filter1890"
       x="-0.018464256"
       y="-0.04648736"
       width="1.0625733"
       height="1.0659472"><feOffset
         dy="-10"
         dx="10"
         id="feOffset1880" /><feGaussianBlur
         stdDeviation="3"
         result="blur"
         id="feGaussianBlur1882" /><feFlood
         flood-color="rgb(0,0,0)"
         flood-opacity="0"
         result="flood"
         id="feFlood1884" /><feComposite
         in="flood"
         in2="SourceGraphic"
         operator="in"
         result="composite"
         id="feComposite1886" /><feBlend
         in="blur"
         in2="composite"
         mode="normal"
         id="feBlend1888" /></filter><filter
       inkscape:menu-tooltip="In and out glow with a possible offset and colorizable flood"
       inkscape:menu="Shadows and Glows"
       inkscape:label="Cutout Glow"
       style="color-interpolation-filters:sRGB"
       id="filter1890-3"
       x="-0.018464256"
       y="-0.04648736"
       width="1.0625733"
       height="1.0659472"><feOffset
         dy="-10"
         dx="10"
         id="feOffset1880-5" /><feGaussianBlur
         stdDeviation="3"
         result="blur"
         id="feGaussianBlur1882-7" /><feFlood
         flood-color="rgb(0,0,0)"
         flood-opacity="1"
         result="flood"
         id="feFlood1884-9" /><feComposite
         in="flood"
         in2="SourceGraphic"
         operator="in"
         result="composite"
         id="feComposite1886-0" /><feBlend
         in="blur"
         in2="composite"
         mode="normal"
         id="feBlend1888-6" /></filter><filter
       inkscape:menu-tooltip="In and out glow with a possible offset and colorizable flood"
       inkscape:menu="Shadows and Glows"
       inkscape:label="Cutout Glow"
       style="color-interpolation-filters:sRGB;"
       id="filter1972"
       x="-0.12434817"
       y="-0.12447001"
       width="1.1764009"
       height="1.1765737"><feOffset
         dy="-10"
         dx="-10"
         id="feOffset1962" /><feGaussianBlur
         stdDeviation="3"
         result="blur"
         id="feGaussianBlur1964" /><feFlood
         flood-color="rgb(0,0,0)"
         flood-opacity="0"
         result="flood"
         id="feFlood1966" /><feComposite
         in="flood"
         in2="SourceGraphic"
         operator="in"
         result="composite"
         id="feComposite1968" /><feBlend
         in="blur"
         in2="composite"
         mode="normal"
         id="feBlend1970" /></filter><filter
       inkscape:menu-tooltip="In and out glow with a possible offset and colorizable flood"
       inkscape:menu="Shadows and Glows"
       inkscape:label="Cutout Glow"
       style="color-interpolation-filters:sRGB"
       id="filter1972-0"
       x="-0.12434821"
       y="-0.12447005"
       width="1.1764009"
       height="1.1765738"><feOffset
         dy="-10"
         dx="-10"
         id="feOffset1962-7" /><feGaussianBlur
         stdDeviation="3"
         result="blur"
         id="feGaussianBlur1964-0" /><feFlood
         flood-color="rgb(0,0,0)"
         flood-opacity="0"
         result="flood"
         id="feFlood1966-0" /><feComposite
         in="flood"
         in2="SourceGraphic"
         operator="in"
         result="composite"
         id="feComposite1968-2" /><feBlend
         in="blur"
         in2="composite"
         mode="normal"
         id="feBlend1970-6" /></filter><clipPath
       clipPathUnits="userSpaceOnUse"
       id="clipPath1247"><path
         style="color:#000000;fill:#9b0000;fill-opacity:1;stroke-width:1;-inkscape-stroke:none"
         d="m 810.67311,970.65308 5.49786,5.50497 a 10.000174,10.000174 0 0 1 -0.008,14.14226 l -112.8246,112.68119 a 9.9998459,9.9998459 0 0 1 -14.14203,-0.011 l -5.4978,-5.505 a 10.000157,10.000157 0 0 1 0.008,-14.1422 L 796.53006,970.64345 a 9.9998224,9.9998224 0 0 1 14.14199,0.008 z"
         id="path1249"
         clip-path="none" /></clipPath><clipPath
       clipPathUnits="userSpaceOnUse"
       id="clipPath1251"><path
         style="color:#000000;fill:#9b0000;fill-opacity:1;stroke-width:1;-inkscape-stroke:none"
         d="m 507.50069,970.59172 -5.49783,5.50495 a 10.000163,10.000163 0 0 0 0.008,14.14226 l 112.82358,112.68127 a 9.9998166,9.9998166 0 0 0 14.142,-0.011 l 5.49785,-5.5049 a 10.00018,10.00018 0 0 0 -0.008,-14.1423 L 521.64269,970.58212 a 9.9998401,9.9998401 0 0 0 -14.142,0.008 z"
         id="path1253" /></clipPath><clipPath
       clipPathUnits="userSpaceOnUse"
       id="clipPath1557"><path
         d="m -476.99477,-659.36722 q 1.27,5.08 -0.84666,6.77333 -2.11667,1.27 -5.50333,2.11666 -1.69334,0.84667 -3.38667,1.69334 -1.69333,0.42333 -2.54,1.69333 -28.36332,-4.65667 -58.41995,-5.92667 -29.63332,-1.69333 -58.41995,-1.69333 -32.17332,0 -65.61664,0.84667 -33.01996,0.84666 -64.76995,5.08 9.31333,5.50333 18.62666,10.15999 9.73667,4.23333 12.7,15.66333 -18.62666,20.31999 -37.25332,43.17996 -18.2033,22.43665 -40.63996,39.36998 -4.23333,2.96333 -11.42999,4.23333 -7.19667,1.27 -12.27666,1.69331 0,-3.38664 -2.54,-5.08 -2.11667,-1.26997 -5.08,-2.53997 -2.54,-0.84667 -4.65667,-2.54 -2.11666,-1.69334 -0.42333,-5.92667 19.47333,-12.69999 36.82999,-31.74998 17.35666,-19.04997 31.74998,-36.40663 -0.84669,-5.92666 -6.35002,-10.58333 -5.50333,-4.65666 -5.50333,-8.88999 0,-3.81 4.23333,-4.65667 4.65669,-1.27 9.31333,-1.69333 4.65666,-0.84667 4.65666,-2.96333 -11.8533,-0.84667 -27.93996,0.84666 -16.08666,1.69333 -30.05665,6.35 -4.65667,1.69333 -9.73667,4.23333 -5.07997,2.11667 -10.15999,2.11667 -6.77333,0 -14.81666,-6.77333 -8.04331,-6.77333 -15.6633,-14.81666 -7.62,-8.04333 -13.54666,-11.85333 0.42333,-3.81 2.96333,-4.65667 2.96333,-1.27 3.38666,-4.23333 5.92667,2.11669 12.7,2.54 6.77333,0.42333 13.12333,0.42333 18.62663,0 37.25329,-1.26997 18.62666,-1.69336 37.25329,-1.69336 -1.69333,-18.62663 -2.11664,-43.60329 -0.42333,-24.97663 -5.08,-49.52995 -3.38666,-20.74333 -11.42999,-38.09999 -7.62,-17.77999 -22.43666,-27.93996 2.54,-1.27 5.92666,-1.27 4.65667,0 9.31333,2.11667 4.65667,1.69333 9.31333,2.54 8.04333,-4.65667 17.77997,-6.77333 10.16002,-2.54 19.04999,-5.92667 l -1.69333,2.96333 q 13.12333,-2.11666 25.39999,-7.19666 12.69999,-5.08 24.97666,-9.31333 0.84666,-4.23333 5.5033,-5.08 5.08,-1.27 7.19669,-2.11666 0,0 0,1.27 0,0.84666 1.26997,0.84666 1.69336,-0.84666 7.19669,-2.96333 5.50331,-2.54 11.00664,-4.65666 5.50333,-2.54 6.35,-2.96334 l -2.96334,-1.69333 q 5.50334,-2.54 11.43,-4.65666 5.92666,-2.11667 11.42999,-3.81 -2.11666,-4.65667 -7.19666,-7.19664 -4.65666,-2.96336 -8.04333,-7.19669 7.19666,-0.42333 14.81666,-1.69333 7.62,-1.27 14.39333,-4.23331 10.15997,4.23331 19.89663,9.31333 9.73666,4.65664 20.31999,8.04333 -0.84666,1.69331 -0.42333,3.38664 0.42333,1.69333 0.84667,2.96333 0.42333,2.54 0.42333,5.08 0.42333,2.54 -2.54,5.92667 -27.51663,5.92666 -53.33995,17.35665 -25.82332,11.00667 -52.06998,20.74333 -25.8233,9.73666 -55.03328,11.8533 3.38666,7.19667 5.50333,15.24 2.54,7.61999 0.42333,15.66332 13.12333,0 25.82332,0.42334 13.12333,0 26.24666,0 27.93996,0 55.45662,-2.11667 27.93996,-2.11667 55.45661,-8.04333 16.08666,4.23333 30.47999,9.31333 14.3933,5.08 24.97663,15.66333 -12.69997,4.23333 -26.24663,4.65666 -13.54666,0.42333 -27.51665,0.42333 -6.35,0 -13.12333,0 -6.35,0 -12.7,0.42334 1.69334,4.23333 2.11667,8.46666 0.42333,4.23333 0.42333,8.46664 0,16.50999 -4.23333,33.86665 -3.81,16.93333 -8.46666,33.01999 1.27,0 3.81002,0.42333 8.88997,0.84667 17.77997,1.27 8.89,0.42333 15.23999,-0.84669 6.77333,-1.27 8.04333,-5.50331 13.54664,0.84667 29.20999,4.23331 16.08663,2.96333 30.47996,9.31333 14.81666,5.92666 24.12999,16.08666 z m -154.51655,-86.35994 q 0,-5.08 -0.84667,-9.73664 -0.42333,-5.08002 -2.53999,-9.31333 -3.81,0 -7.62,0 -3.38667,0 -6.77333,0 -21.16666,0.42334 -42.33329,1.27 -21.16666,0.84667 -41.06332,6.35 0.42334,9.73666 0.42334,19.4733 0,9.73666 0,19.47332 0,9.73667 0,19.47333 0,9.73666 0.42333,19.4733 11.00666,-1.27 22.01332,-1.69331 11.00667,-0.42333 22.01333,-0.42333 12.27663,0 24.55329,-0.42336 12.27667,-0.42331 24.97666,-2.53997 0,-15.66333 3.38667,-30.47999 3.38666,-15.23999 3.38666,-30.90332 z m 104.56324,201.50653 q -2.54,2.54 -6.35,3.38667 -3.80997,0.84666 -8.0433,0.84666 -6.35,0 -11.85333,-3.38666 -5.50333,-2.96334 -11.43,-3.81 -10.15999,-11.00666 -17.35666,-24.12999 -6.77333,-13.12333 -13.54666,-26.24666 -6.34997,-13.54663 -16.08663,-24.97663 -5.50333,-6.35 -12.69999,-12.27666 -6.77334,-5.92666 -6.77334,-15.23999 13.97,2.11666 26.24666,8.46666 12.27664,6.35 24.12996,13.96999 11.85333,7.19667 24.12999,12.7 8.04333,7.19666 12.27667,17.35663 4.65666,9.73667 8.46666,19.47333 5.50333,3.81 6.7733,14.81666 1.69336,11.00666 2.11667,19.04999 z"
         id="path1559"
         style="font-size:423.333px;font-family:'Yuji Mai';-inkscape-font-specification:'Yuji Mai';fill:#29303d;stroke-width:27.7812" /></clipPath></defs><path
     d="m-2640.263 204.473 21.47 26.648 145.682 33.948 130.593-42.533 79.784-400.01-38.751-32.142z"
     transform="matrix(-2.0051 0 0 2.0051 -4364.078 622.47)"
     opacity=".5"
     filter="url(#B)"
     id="path49" /><path
     d="m659.957 1108.158 270.001-75.701 17.663-57.348 142.368-882.306-20.751-16.013H250.674l-20.751 16.013 142.368 882.306 17.663 57.348z"
     fill="url(#A)"
     id="path51" /><path
     d="m659.982 1050.81 287.664-75.701 142.368-882.306-20.749-16.013H250.701L229.95 92.803l142.37 882.306z"
     opacity=".25"
     fill="url(#C)"
     style="mix-blend-mode:overlay"
     id="path53" /><path
     d="m389.995 1032.468-17.663-57.348L660 1050.821l287.668-75.701-17.663 57.348L660 1108.169z"
     opacity=".7"
     id="path55" /><path
     d="m250.668 97.849.043-21.064-20.75 16.013 20.707 5.052z"
     opacity=".2"
     id="path57" /><path
     d="m947.669 975.119-17.664-13.248L660 1034.419v16.402z"
     opacity=".4"
     id="path59" /><path
     d="m372.331 975.119 17.664-13.248L660 1034.419v16.402z"
     opacity=".6"
     id="path61" /><path
     d="m372.331 975.119 17.664-13.248L250.668 97.849l-20.707-5.052z"
     opacity=".4"
     id="path63" /><g
     fill="#fff"
     id="g71"><path
       d="m947.669 975.119-17.664-13.248 139.327-864.022 20.707-5.052z"
       opacity=".3"
       id="path65" /><path
       d="m1069.332 97.849-.043-21.064 20.75 16.013-20.707 5.052z"
       opacity=".8"
       id="path67" /><path
       d="M1069.332 97.849H250.668l.043-21.064h818.579l.043 21.064z"
       opacity=".3"
       id="path69" /></g><path
     d="M656.554 461.696h7.03a10.406 10.406 0 0 0 10.429-10.429V273.682a10.406 10.406 0 0 0-10.429-10.429h-7.03a10.406 10.406 0 0 0-10.429 10.429v177.585a10.406 10.406 0 0 0 10.429 10.429z"
     id="path73" /><path
     transform="matrix(1.4407 0 0 -1.4407 -1935.458 -1239.761)"
     d="M1789.477-1189.927h4.879a7.223 7.223 0 0 1 7.239 7.239v123.263a7.223 7.223 0 0 1-7.239 7.239h-4.879a7.223 7.223 0 0 1-7.239-7.239v-123.263a7.223 7.223 0 0 1 7.239-7.239z"
     clip-path="url(#D)"
     fill="#29303d"
     filter="url(#E)"
     id="path75" /><path
     d="m 476.99477,659.36721 q -1.27,-5.08 0.84666,-6.77333 2.11667,-1.27 5.50333,-2.11667 1.69333,-0.84666 3.38667,-1.69333 1.69333,-0.42333 2.53999,-1.69333 28.36331,4.65666 58.41996,5.92666 29.63331,1.69333 58.41995,1.69333 32.17331,0 65.61662,-0.84666 33.01997,-0.84667 64.76995,-5.08 -9.31333,-5.50333 -18.62665,-10.15999 -9.73666,-4.23333 -12.69999,-15.66332 18.62665,-20.31999 37.2533,-43.17997 18.20332,-22.43665 40.63997,-39.36997 4.23333,-2.96333 11.42999,-4.23333 7.19666,-1.27 12.27666,-1.69333 0,3.38666 2.54,5.08 2.11666,1.26999 5.07999,2.53999 2.54,0.84667 4.65667,2.54 2.11666,1.69333 0.42333,5.92666 -19.47332,12.69999 -36.82997,31.74998 -17.35666,19.04998 -31.74998,36.40664 0.84667,5.92666 6.35,10.58332 5.50333,4.65667 5.50333,8.89 0,3.80999 -4.23333,4.65666 -4.65667,1.27 -9.31333,1.69333 -4.65666,0.84667 -4.65666,2.96333 11.85332,0.84667 27.93998,-0.84666 16.08665,-1.69334 30.05664,-6.35 4.65666,-1.69333 9.73666,-4.23333 5.07999,-2.11666 10.15999,-2.11666 6.77333,0 14.81666,6.77332 8.04332,6.77333 15.66332,14.81666 7.61999,8.04333 13.54665,11.85332 -0.42333,3.81 -2.96333,4.65667 -2.96333,1.27 -3.38666,4.23333 -5.92666,-2.11667 -12.69999,-2.54 -6.77333,-0.42333 -13.12333,-0.42333 -18.62665,0 -37.2533,1.26999 -18.62665,1.69334 -37.2533,1.69334 1.69333,18.62665 2.11666,43.6033 0.42333,24.97664 5.08,49.52996 3.38666,20.74332 11.42999,38.09997 7.61999,17.77999 22.43665,27.93998 -2.54,1.27 -5.92667,1.27 -4.65666,0 -9.31332,-2.11667 -4.65666,-1.69333 -9.31333,-2.54 -8.04332,4.65667 -17.77998,6.77333 -10.16,2.54 -19.04999,5.92666 l 1.69333,-2.96333 q -13.12332,2.11667 -25.39998,7.19666 -12.69999,5.08 -24.97665,9.31333 -0.84666,4.23333 -5.50332,5.08 -5.08,1.27 -7.19667,2.11666 0,0 0,-1.27 0,-0.84666 -1.26999,-0.84666 -1.69334,0.84666 -7.19667,2.96333 -5.50332,2.54 -11.00665,4.65666 -5.50333,2.54 -6.35,2.96333 l 2.96333,1.69333 q -5.50333,2.54 -11.42999,4.65667 -5.92666,2.11666 -11.42999,3.80999 2.11666,4.65667 7.19666,7.19666 4.65666,2.96334 8.04333,7.19667 -7.19666,0.42333 -14.81666,1.69333 -7.61999,1.27 -14.39332,4.23333 -10.15999,-4.23333 -19.89665,-9.31333 -9.73666,-4.65666 -20.31999,-8.04333 0.84667,-1.69333 0.42334,-3.38666 -0.42334,-1.69333 -0.84667,-2.96333 -0.42333,-2.54 -0.42333,-5.08 -0.42333,-2.53999 2.54,-5.92666 27.51664,-5.92666 53.33996,-17.35665 25.82331,-11.00666 52.06996,-20.74332 25.82331,-9.73666 55.03329,-11.85332 -3.38667,-7.19666 -5.50333,-15.23999 -2.54,-7.62 -0.42334,-15.66332 -13.12332,0 -25.82331,-0.42334 -13.12332,0 -26.24665,0 -27.93997,0 -55.45662,2.11667 -27.93998,2.11666 -55.45662,8.04333 -16.08666,-4.23333 -30.47998,-9.31333 -14.39332,-5.08 -24.97665,-15.66332 12.69999,-4.23333 26.24665,-4.65666 13.54666,-0.42334 27.51664,-0.42334 6.35,0 13.12333,0 6.34999,0 12.69999,-0.42333 -1.69333,-4.23333 -2.11667,-8.46666 -0.42333,-4.23333 -0.42333,-8.46666 0,-16.50999 4.23333,-33.86664 3.81,-16.93332 8.46666,-33.01998 -1.27,0 -3.81,-0.42333 -8.88999,-0.84667 -17.77998,-1.27 -8.89,-0.42333 -15.23999,0.84667 -6.77333,1.27 -8.04333,5.50333 -13.54665,-0.84667 -29.20998,-4.23333 -16.08665,-2.96333 -30.47997,-9.31333 -14.81666,-5.92666 -24.12998,-16.08665 z m 154.51654,86.35993 q 0,5.08 0.84667,9.73666 0.42333,5.08 2.54,9.31333 3.80999,0 7.61999,0 3.38667,0 6.77333,0 21.16665,-0.42334 42.3333,-1.27 21.16665,-0.84667 41.0633,-6.35 -0.42333,-9.73666 -0.42333,-19.47332 0,-9.73666 0,-19.47332 0,-9.73665 0,-19.47331 0,-9.73666 -0.42333,-19.47332 -11.00666,1.27 -22.01332,1.69333 -11.00666,0.42333 -22.01332,0.42333 -12.27665,0 -24.55331,0.42334 -12.27666,0.42333 -24.97665,2.53999 0,15.66333 -3.38666,30.47998 -3.38667,15.23999 -3.38667,30.90331 z M 526.94806,544.22063 q 2.54,-2.54 6.35,-3.38667 3.80999,-0.84666 8.04332,-0.84666 6.35,0 11.85333,3.38666 5.50333,2.96333 11.42999,3.81 10.15999,11.00666 17.35665,24.12998 6.77333,13.12332 13.54666,26.24665 6.34999,13.54665 16.08665,24.97664 5.50333,6.35 12.69999,12.27666 6.77333,5.92666 6.77333,15.23999 -13.96999,-2.11666 -26.24665,-8.46666 -12.27665,-6.35 -24.12998,-13.96999 -11.85332,-7.19666 -24.12998,-12.69999 -8.04333,-7.19666 -12.27666,-17.35665 -4.65666,-9.73666 -8.46666,-19.47332 -5.50333,-3.81 -6.77332,-14.81666 -1.69334,-11.00665 -2.11667,-19.04998 z"
     id="path1258-5"
     style="font-size:423.333px;font-family:'Yuji Mai';-inkscape-font-specification:'Yuji Mai';fill:#000000;stroke-width:27.7812;fill-opacity:1"
     clip-path="none" /><path
     d="m -476.99478,-659.36722 q 1.27,5.08 -0.84666,6.77333 -2.11667,1.27 -5.50333,2.11667 -1.69333,0.84666 -3.38667,1.69333 -1.69333,0.42333 -2.53999,1.69333 -28.36331,-4.65666 -58.41996,-5.92666 -29.63331,-1.69333 -58.41995,-1.69333 -32.17331,0 -65.61662,0.84666 -33.01997,0.84667 -64.76995,5.08 9.31333,5.50333 18.62665,10.15999 9.73666,4.23333 12.69999,15.66332 -18.62665,20.31999 -37.2533,43.17997 -18.20332,22.43665 -40.63997,39.36997 -4.23333,2.96333 -11.42999,4.23333 -7.19666,1.27 -12.27666,1.69333 0,-3.38666 -2.54,-5.08 -2.11666,-1.26999 -5.07999,-2.53999 -2.54,-0.84667 -4.65667,-2.54 -2.11666,-1.69333 -0.42333,-5.92666 19.47332,-12.69999 36.82997,-31.74998 17.35666,-19.04998 31.74998,-36.40664 -0.84667,-5.92666 -6.35,-10.58332 -5.50333,-4.65667 -5.50333,-8.89 0,-3.80999 4.23333,-4.65666 4.65667,-1.27 9.31333,-1.69333 4.65666,-0.84667 4.65666,-2.96333 -11.85332,-0.84667 -27.93998,0.84666 -16.08665,1.69334 -30.05664,6.35 -4.65666,1.69333 -9.73666,4.23333 -5.07999,2.11666 -10.15999,2.11666 -6.77333,0 -14.81666,-6.77332 -8.04332,-6.77333 -15.66332,-14.81666 -7.61999,-8.04333 -13.54665,-11.85332 0.42333,-3.81 2.96333,-4.65667 2.96333,-1.27 3.38666,-4.23333 5.92666,2.11667 12.69999,2.54 6.77333,0.42333 13.12333,0.42333 18.62665,0 37.2533,-1.26999 18.62665,-1.69334 37.2533,-1.69334 -1.69333,-18.62665 -2.11666,-43.6033 -0.42333,-24.97664 -5.08,-49.52996 -3.38666,-20.74332 -11.42999,-38.09997 -7.61999,-17.77999 -22.43665,-27.93998 2.54,-1.27 5.92667,-1.27 4.65666,0 9.31332,2.11667 4.65666,1.69333 9.31333,2.54 8.04332,-4.65667 17.77998,-6.77333 10.16,-2.54 19.04999,-5.92666 l -1.69333,2.96333 q 13.12332,-2.11667 25.39998,-7.19666 12.69999,-5.08 24.97665,-9.31333 0.84666,-4.23333 5.50332,-5.08 5.08,-1.27 7.19667,-2.11666 0,0 0,1.27 0,0.84666 1.26999,0.84666 1.69334,-0.84666 7.19667,-2.96333 5.50332,-2.54 11.00665,-4.65666 5.50333,-2.54 6.35,-2.96333 l -2.96333,-1.69333 q 5.50333,-2.54 11.42999,-4.65667 5.92666,-2.11666 11.42999,-3.80999 -2.11666,-4.65667 -7.19666,-7.19666 -4.65666,-2.96334 -8.04333,-7.19667 7.19666,-0.42333 14.81666,-1.69333 7.61999,-1.27 14.39332,-4.23333 10.15999,4.23333 19.89665,9.31333 9.73666,4.65666 20.31999,8.04333 -0.84667,1.69333 -0.42334,3.38666 0.42334,1.69333 0.84667,2.96333 0.42333,2.54 0.42333,5.08 0.42333,2.53999 -2.54,5.92666 -27.51664,5.92666 -53.33996,17.35665 -25.82331,11.00666 -52.06996,20.74332 -25.82331,9.73666 -55.03329,11.85332 3.38667,7.19666 5.50333,15.23999 2.54,7.62 0.42334,15.66332 13.12332,0 25.82331,0.42334 13.12332,0 26.24665,0 27.93997,0 55.45662,-2.11667 27.93998,-2.11666 55.45662,-8.04333 16.08666,4.23333 30.47998,9.31333 14.39332,5.08 24.97665,15.66332 -12.69999,4.23333 -26.24665,4.65666 -13.54666,0.42334 -27.51664,0.42334 -6.35,0 -13.12333,0 -6.34999,0 -12.69999,0.42333 1.69333,4.23333 2.11667,8.46666 0.42333,4.23333 0.42333,8.46666 0,16.50999 -4.23333,33.86664 -3.81,16.93332 -8.46666,33.01998 1.27,0 3.81,0.42333 8.88999,0.84667 17.77998,1.27 8.89,0.42333 15.23999,-0.84667 6.77333,-1.27 8.04333,-5.50333 13.54665,0.84667 29.20998,4.23333 16.08665,2.96333 30.47997,9.31333 14.81666,5.92666 24.12998,16.08665 z m -154.51654,-86.35993 q 0,-5.08 -0.84667,-9.73666 -0.42333,-5.08 -2.54,-9.31333 -3.80999,0 -7.61999,0 -3.38667,0 -6.77333,0 -21.16665,0.42334 -42.3333,1.27 -21.16665,0.84667 -41.0633,6.35 0.42333,9.73666 0.42333,19.47332 0,9.73666 0,19.47332 0,9.73665 0,19.47331 0,9.73666 0.42333,19.47332 11.00666,-1.27 22.01332,-1.69333 11.00666,-0.42333 22.01332,-0.42333 12.27665,0 24.55331,-0.42334 12.27666,-0.42333 24.97665,-2.53999 0,-15.66333 3.38666,-30.47998 3.38667,-15.23999 3.38667,-30.90331 z m 104.56325,201.50651 q -2.54,2.54 -6.35,3.38667 -3.80999,0.84666 -8.04332,0.84666 -6.35,0 -11.85333,-3.38666 -5.50333,-2.96333 -11.42999,-3.81 -10.15999,-11.00666 -17.35665,-24.12998 -6.77333,-13.12332 -13.54666,-26.24665 -6.34999,-13.54665 -16.08665,-24.97664 -5.50333,-6.35 -12.69999,-12.27666 -6.77333,-5.92666 -6.77333,-15.23999 13.96999,2.11666 26.24665,8.46666 12.27665,6.35 24.12998,13.96999 11.85332,7.19666 24.12998,12.69999 8.04333,7.19666 12.27666,17.35665 4.65666,9.73666 8.46666,19.47332 5.50333,3.81 6.77332,14.81666 1.69334,11.00665 2.11667,19.04998 z"
     id="path1287"
     transform="scale(-0.99999999)"
     style="font-size:423.333px;font-family:'Yuji Mai';-inkscape-font-specification:'Yuji Mai';fill:#29303d;stroke-width:27.7812;filter:url(#filter1890)"
     clip-path="url(#clipPath1557)" /><path
     d="m 539.593,715.556 c 2.436,2.918 7.134,1.393 7.047,-2.288 -0.087,-3.681 -4.958,-9.52 -7.307,-8.757 -2.349,0.763 -2.176,8.127 0.261,11.045 z"
     filter="url(#J)"
     transform="matrix(1.1538,0,0,1.1538,-23.186578,-61.598877)"
     id="path81"
     style="fill:#ffffff" /><path
     d="m 591.738,713.927 c 1.906,1.052 3.686,-1.055 2.67,-3.162 -1.016,-2.107 -4.829,-4.214 -5.719,-3.159 -0.89,1.055 1.143,5.269 3.049,6.321 z"
     filter="url(#I)"
     transform="matrix(0.99922016,-0.57690002,0.57690002,0.99922016,-447.55287,312.54833)"
     id="path83"
     style="fill:#ffffff" /><path
     d="m 651.539,885.735 c 2.096,-1.488 7.926,-1.048 8.744,0.658 0.818,1.706 -3.373,4.678 -6.288,4.46 -2.915,-0.218 -4.552,-3.63 -2.456,-5.118 z"
     filter="url(#H)"
     transform="matrix(1.1538,0,0,1.1538,-138.23809,-127.93906)"
     id="path87"
     style="fill:#ffffff" /><path
     style="color:#000000;fill:#340000;fill-opacity:1;-inkscape-stroke:none"
     d="m 507.24102,399.64607 -5.49782,-5.50494 a 10.000163,10.000163 0 0 1 0.009,-14.14225 L 614.57578,267.3176 a 9.9998165,9.9998165 0 0 1 14.14201,0.01 l 5.49784,5.5049 a 10.00018,10.00018 0 0 1 -0.009,14.1423 L 521.38304,399.65511 a 9.99984,9.99984 0 0 1 -14.14202,-0.009 z"
     id="path1173-2" /><style
     id="style2-5">.B{color-interpolation-filters:sRGB}</style><style
     id="style11755">.B{color-interpolation-filters:sRGB}</style><style
     id="style11918">.B{color-interpolation-filters:sRGB}</style><path
     style="color:#000000;fill:#9b0000;fill-opacity:1;-inkscape-stroke:none;filter:url(#filter1972)"
     d="m 507.50068,970.59173 -5.49782,5.50494 a 10.000163,10.000163 0 0 0 0.009,14.14225 l 112.82358,112.68128 a 9.9998165,9.9998165 0 0 0 14.14201,-0.01 l 5.49784,-5.5049 a 10.00018,10.00018 0 0 0 -0.009,-14.1423 L 521.6427,970.58269 a 9.99984,9.99984 0 0 0 -14.14202,0.009 z"
     id="path12123-5"
     transform="matrix(1,0,0,-1,-0.25964734,1370.2378)"
     clip-path="url(#clipPath1251)" /><path
     style="color:#000000;fill:#340000;fill-opacity:1;-inkscape-stroke:none"
     d="m 810.41347,399.58472 5.49784,-5.50498 a 10.000174,10.000174 0 0 0 -0.009,-14.14225 L 703.07872,267.2563 a 9.9998459,9.9998459 0 0 0 -14.14202,0.01 l -5.49782,5.505 a 10.000157,10.000157 0 0 0 0.009,14.1422 l 112.82358,112.68026 a 9.9998224,9.9998224 0 0 0 14.14201,-0.009 z"
     id="path12123-7-1-7"
     clip-path="none" /><path
     style="color:#000000;fill:#9b0000;fill-opacity:1;-inkscape-stroke:none;filter:url(#filter1972-0)"
     d="m 810.67312,970.65308 5.49784,5.50498 a 10.000174,10.000174 0 0 1 -0.009,14.14225 L 703.33837,1102.9815 a 9.9998459,9.9998459 0 0 1 -14.14202,-0.01 l -5.49782,-5.505 a 10.000157,10.000157 0 0 1 0.009,-14.1422 L 796.53111,970.64404 a 9.9998224,9.9998224 0 0 1 14.14201,0.009 z"
     id="path1175"
     transform="matrix(1,0,0,-1,-0.25964734,1370.2378)"
     clip-path="url(#clipPath1247)" /></svg>
