<?xml version="1.0" encoding="UTF-8" standalone="no"?>
<svg
   width="498.898"
   height="544.252"
   viewBox="0 0 1320 1440"
   version="1.1"
   id="svg78"
   sodipodi:docname="w+F.svg"
   xml:space="preserve"
   inkscape:version="1.2.2 (732a01da63, 2022-12-09)"
   xmlns:inkscape="http://www.inkscape.org/namespaces/inkscape"
   xmlns:sodipodi="http://sodipodi.sourceforge.net/DTD/sodipodi-0.dtd"
   xmlns="http://www.w3.org/2000/svg"
   xmlns:svg="http://www.w3.org/2000/svg"><sodipodi:namedview
     id="namedview80"
     pagecolor="#ffffff"
     bordercolor="#000000"
     borderopacity="0.25"
     inkscape:showpageshadow="2"
     inkscape:pageopacity="0.0"
     inkscape:pagecheckerboard="0"
     inkscape:deskcolor="#d1d1d1"
     showgrid="false"
     inkscape:zoom="1.4258101"
     inkscape:cx="203.04247"
     inkscape:cy="295.9721"
     inkscape:window-width="1920"
     inkscape:window-height="974"
     inkscape:window-x="-11"
     inkscape:window-y="-11"
     inkscape:window-maximized="1"
     inkscape:current-layer="svg78" /><style
     id="style2">.B{color-interpolation-filters:sRGB}</style><defs
     id="defs38"><filter
       id="C"
       x="-0.010530157"
       y="-0.011053209"
       width="1.0210603"
       height="1.0221064"
       class="B"><feGaussianBlur
         stdDeviation="2.441"
         id="feGaussianBlur4" /></filter><filter
       id="E"
       x="-0.052144061"
       y="-0.044929861"
       width="1.1042881"
       height="1.0898597"
       class="B"><feGaussianBlur
         stdDeviation="7.025"
         id="feGaussianBlur7" /></filter><filter
       id="G"
       x="-0.047999492"
       y="-0.047999492"
       width="1.095999"
       height="1.095999"
       class="B"><feGaussianBlur
         stdDeviation="4.05"
         id="feGaussianBlur10" /></filter><filter
       id="H"
       x="-0.15826121"
       y="-0.077427897"
       width="1.3165224"
       height="1.1548558"
       class="B"><feGaussianBlur
         stdDeviation="0.25"
         id="feGaussianBlur13" /></filter><linearGradient
       id="A"
       x1="228.547"
       y1="662.072"
       x2="270.281"
       y2="662.072"
       spreadMethod="reflect"
       gradientUnits="userSpaceOnUse"><stop
         offset="0"
         stop-color="#ffd285"
         id="stop16" /><stop
         offset=".232"
         stop-color="#ffcd79"
         id="stop18" /><stop
         offset=".616"
         stop-color="#ffca73"
         id="stop20" /><stop
         offset=".808"
         stop-color="#ffd386"
         id="stop22" /><stop
         offset="1"
         stop-color="#ffc86e"
         id="stop24" /></linearGradient><linearGradient
       id="B"
       x1="660.031"
       y1="178.153"
       x2="660.029"
       y2="1149.083"
       gradientUnits="userSpaceOnUse"><stop
         offset=".604"
         stop-color="#fff"
         id="stop27" /><stop
         offset="1"
         id="stop29" /></linearGradient><clipPath
       id="D"><path
         d="M-307.462 483.837c-2.099-12.596-41.988-30.651-63.402-28.972-7.558.42-13.436 6.298-20.994 7.138-9.237 1.26-33.171 5.458-42.408 3.779 10.077-17.215 20.154-34.43 27.292-54.165 7.558-5.458 25.613-7.138 26.872-13.856 7.138 2.099 15.955-2.519 18.475-8.398-18.895-15.536-42.828-30.231-73.899-26.452-8.398 15.116-26.033 13.436-47.027 11.337-3.779-23.933-56.264-13.436-66.341-14.276-.42 13.016 15.536 16.795 19.734 20.994-32.751 34.85-65.082 69.7-104.13 98.672 3.779 3.359 6.298 7.978 10.497 10.917 23.513.84 28.552-9.237 42.408-20.574 26.033-21.414 53.745-39.049 76.418-64.242 8.817-5.039 39.049-5.878 54.165-5.458 1.679 22.674-16.795 48.286-20.574 69.7-19.315 3.359-64.662 2.939-89.015 12.177-3.359-6.298-8.398-2.939-13.436-6.718-5.039 1.68-4.619 8.398-10.497 9.657 4.199 13.016 14.276 20.994 22.254 30.651 14.696 73.479-8.398 153.676-39.889 204.482 7.138 1.68 15.955 2.939 25.613-1.26 22.674-18.055 33.171-54.585 41.148-83.976 20.994 9.657 62.142-8.398 81.877 0 14.696-7.978 52.485-7.558 66.341-10.917-9.657-14.696-36.53-22.254-54.585-16.795.84-8.398 1.26-25.613 1.68-41.568 15.955-7.978 36.95-2.939 49.966-11.337-5.039-11.337-31.071-22.674-48.286-15.116-2.099-10.497.84-34.43-5.878-49.126 19.314-1.26 42.408-5.039 61.722-2.939 4.619 11.337 2.519 23.513 2.939 39.469 1.68 47.866 17.215 114.208-1.68 159.555-35.69-3.779-68.441-4.619-97.412-12.177 1.26.42.42 1.26-.42 2.519 10.077 2.099 18.475 5.458 27.292 9.657 7.978 3.779 13.436 10.077 20.994 13.856 8.398 4.199 19.734 5.458 28.552 10.077 2.099 1.26 2.519 5.458 4.619 6.718 14.696 10.077 45.347 27.712 57.104 11.337 12.177-24.353 9.657-57.524 7.558-89.015-1.26-20.994-10.077-41.988-8.817-62.562 1.26-24.353 4.619-48.706 7.558-66.341 7.138-9.657 28.132-11.337 25.613-26.452zm-161.234 60.043c-22.254.42-38.629 6.718-57.524 5.039 1.26-17.215-6.718-28.552 1.68-44.507 6.718-7.138 35.69-6.298 44.087-10.497 13.436 8.817 11.757 30.231 11.757 49.966zm-1.679 23.093c.42 18.055 0 29.392-1.68 42.828-20.574-.42-36.949 5.458-58.783 4.619 0-13.016 5.458-27.712 4.619-42.828 18.475.84 39.049-2.099 55.844-4.619z"
         stroke-width="20.833"
         id="path32" /></clipPath><clipPath
       id="F"><path
         d="M1720.699 1071.423c-1.85 0-3.7.708-5.118 2.125l-3.45 3.45a7.222 7.222 0 0 0 0 10.237l5.263 5.263 8.565 30.343c.771 2.729 3.59 5.545 6.319 6.315l10.886-10.889 54.405 54.405-54.405 54.405-10.886-10.889c-2.729.771-5.548 3.59-6.319 6.319l-8.562 30.337-5.266 5.266a7.222 7.222 0 0 0 0 10.237l3.45 3.45a7.222 7.222 0 0 0 10.237 0l5.259-5.259 30.347-8.569c2.729-.771 5.545-3.586 6.315-6.315l-10.889-10.889 54.405-54.405 54.405 54.405-10.889 10.889c.771 2.729 3.586 5.545 6.315 6.315l30.347 8.569 5.259 5.259a7.222 7.222 0 0 0 10.237 0l3.45-3.45a7.222 7.222 0 0 0 0-10.237l-5.263-5.263-8.565-30.34c-.771-2.729-3.59-5.548-6.319-6.319l-10.886 10.889-54.405-54.405 54.405-54.405 10.886 10.889c2.729-.771 5.548-3.586 6.319-6.315l8.569-30.347 5.259-5.26a7.222 7.222 0 0 0 0-10.237l-1.725-1.725-1.725-1.725a7.222 7.222 0 0 0-10.237 0l-5.266 5.266-30.34 8.565c-2.729.771-5.545 3.586-6.315 6.315l10.889 10.889-54.405 54.405-54.405-54.405 10.889-10.889c-.771-2.729-3.586-5.545-6.315-6.315l-30.34-8.565-5.266-5.266a7.213 7.213 0 0 0-5.118-2.125zm90.556 101.246h.01l-.01.01-.01-.01z"
         stroke-width="10.708"
         id="path35" /></clipPath><filter
       id="C-2"
       x="-0.011867782"
       y="-0.01125585"
       width="1.0237356"
       height="1.0225117"
       class="B"><feGaussianBlur
         stdDeviation="2.441"
         id="feGaussianBlur311" /></filter><filter
       id="F-5"
       x="-0.045194553"
       y="-0.051169841"
       width="1.0903891"
       height="1.1023397"
       class="B"><feGaussianBlur
         stdDeviation="7.061"
         id="feGaussianBlur314" /></filter><filter
       id="I"
       x="-0.05889734"
       y="-0.04050145"
       width="1.1177947"
       height="1.0810029"
       class="B"><feGaussianBlur
         stdDeviation="7.144"
         id="feGaussianBlur317" /></filter><filter
       id="J"
       x="-0.15936934"
       y="-0.25543206"
       width="1.3187387"
       height="1.5108641"
       class="B"><feGaussianBlur
         stdDeviation=".838"
         id="feGaussianBlur320" /></filter><filter
       id="K"
       x="-0.1198745"
       y="-0.20702689"
       width="1.239749"
       height="1.4140538"
       class="B"><feGaussianBlur
         stdDeviation=".838"
         id="feGaussianBlur323" /></filter><filter
       id="L"
       x="-0.13329635"
       y="-0.21058945"
       width="1.2665927"
       height="1.4211789"
       class="B"><feGaussianBlur
         stdDeviation=".838"
         id="feGaussianBlur326" /></filter><linearGradient
       id="A-4"
       x1="-1430.769"
       y1="-77.47"
       x2="-1409.955"
       y2="-77.47"
       spreadMethod="reflect"
       gradientUnits="userSpaceOnUse"><stop
         offset="0"
         stop-color="#ffd285"
         id="stop329" /><stop
         offset=".232"
         stop-color="#ffcd79"
         id="stop331" /><stop
         offset=".616"
         stop-color="#ffca73"
         id="stop333" /><stop
         offset=".808"
         stop-color="#ffd386"
         id="stop335" /><stop
         offset="1"
         stop-color="#ffc86e"
         id="stop337" /></linearGradient><linearGradient
       id="B-6"
       x1="-1215.571"
       y1="-296.329"
       x2="-1215.572"
       y2="165.415"
       gradientUnits="userSpaceOnUse"><stop
         offset=".601"
         stop-color="#fff"
         id="stop340" /><stop
         offset="1"
         id="stop342" /></linearGradient><clipPath
       id="G-3"><path
         d="M-60.113 701.928c-14.394-20.618-36.957-28.787-61.076-33.066-7.002 14.394-38.902 11.281-54.073 8.558 3.501-15.95 2.334-33.066 3.89-46.682 20.618-4.668 41.625-1.945 62.632.389 7.002-5.057 19.84 1.556 21.785-10.503-11.281-11.67-28.009-16.728-44.737-22.174-10.503 8.947-25.675 10.114-39.291 6.224 3.112-13.616 4.279-21.785-1.945-32.677 27.231-3.89 63.799-1.945 91.03-6.224 4.668-.778 3.89-5.835 2.723-8.947-12.06-8.558-29.176-22.563-45.515-21.007-5.835.778-10.503 8.169-16.728 9.336-12.06 2.334-22.952 3.112-34.623 1.945.778-13.227-1.556-24.897 1.945-39.68 33.455-6.224 62.243.389 84.417-10.892-3.112-22.563-38.124-32.677-50.183-18.673-10.114 1.556-20.618 3.501-33.066 1.556 2.334-21.007 5.446-31.51 6.613-50.961-11.281-14.005-35.011-41.625-54.851-32.288 2.334 8.558 10.892 21.396 15.95 31.51 1.945 14.394 3.112 38.124 2.723 53.684-10.503 1.556-25.286 3.112-40.458.389-14.783-2.723-31.51-15.95-38.124-3.501 8.169 16.728 14.005 31.51 32.288 38.124 16.339-6.224 31.899-7.391 45.904-7.391-.389 10.504 0 27.62 1.167 40.069-26.064 1.167-56.018 7.391-76.636-1.556-3.501-.778-7.78 2.723-11.282 5.835-12.838-8.558-23.341-18.284-19.451-39.68 10.892-3.501 22.174-6.613 32.288-10.892-.778-16.728-23.73-13.227-34.233-23.341 1.945-19.84 5.835-52.906.778-68.078-12.449-12.06-28.398-31.121-48.627-24.508 14.394 24.119 23.73 64.577 21.785 101.533-24.897 13.616-48.627 3.89-73.135-4.279-2.723-.389-4.668 3.501-3.89 8.558 10.503 15.172 19.451 32.288 37.735 38.124 10.114-6.224 23.73-12.449 35.012-7.78-8.169 26.064-76.247 110.092-97.643 127.598.778 7.002 14.394.389 21.007 11.281 29.954-16.728 59.909-65.744 82.083-89.863-.389 32.677 3.89 76.636-1.945 112.037-21.785-1.556-42.014-12.06-63.41-15.95 9.336 10.892 17.117 17.117 23.341 28.398 11.281 8.558 31.51 15.172 43.57 24.897 8.558 6.613 12.838 15.561 23.73 6.613 7.78-58.353-5.057-109.314-1.167-162.998 12.06 9.725 22.563 21.785 38.124 19.84-1.556-12.838-16.728-17.895-14.783-29.954 11.671 9.336 15.561 24.119 31.899 26.453 18.284 2.334 40.847-19.062 53.684.389 1.167 7.391 2.723 15.561 1.945 25.675-28.009 6.613-51.739 0-75.858.389 2.723 21.007 21.007 23.73 32.288 35.012 14.005-6.224 32.288-6.613 43.959-9.336.778 16.728.389 29.565 1.167 45.904-31.121.778-73.524 9.725-104.257 3.89 3.89 24.897 25.286 36.179 45.126 37.735 46.293-29.176 142.38-17.506 192.174-10.114 5.057.778 7.391-3.89 6.224-8.947z"
         stroke-width="19.301"
         id="path345" /></clipPath><clipPath
       id="H-7"><path
         d="M476.332 785.063c24.573 19.377 49.147 38.75 79.757 109.306S623.35 1086.661 660 1208.396c-24.373-122.933-39.539-269.394-70.151-339.953s-76.668-65.204-113.518-83.38zM660 1208.396c36.649-121.735 73.296-243.471 103.906-314.027s55.184-89.929 79.757-109.306c-36.85 18.176-82.9 12.821-113.512 83.38s-45.778 217.02-70.151 339.953z"
         id="path348" /></clipPath><path
       id="E-0"
       d="m-1215.571-296.329-149.881 40.669-79.82 472.51 6.639 36.814 10.024 8.338h426.077l10.024-8.338 6.639-36.814-79.82-472.51z" /><filter
       inkscape:menu-tooltip="In and out glow with a possible offset and colorizable flood"
       inkscape:menu="Shadows and Glows"
       inkscape:label="Cutout Glow"
       style="color-interpolation-filters:sRGB;"
       id="filter2080"
       x="-0.03969992"
       y="-0.01661857"
       width="1.0563185"
       height="1.0563185"><feOffset
         dy="10"
         dx="-10"
         id="feOffset2070" /><feGaussianBlur
         stdDeviation="3"
         result="blur"
         id="feGaussianBlur2072" /><feFlood
         flood-color="rgb(0,0,0)"
         flood-opacity="0"
         result="flood"
         id="feFlood2074" /><feComposite
         in="flood"
         in2="SourceGraphic"
         operator="in"
         result="composite"
         id="feComposite2076" /><feBlend
         in="blur"
         in2="composite"
         mode="normal"
         id="feBlend2078" /></filter><filter
       inkscape:menu-tooltip="In and out glow with a possible offset and colorizable flood"
       inkscape:menu="Shadows and Glows"
       inkscape:label="Cutout Glow"
       style="color-interpolation-filters:sRGB"
       id="filter2080-1"
       x="-0.039699921"
       y="-0.016618569"
       width="1.0563185"
       height="1.0563185"><feOffset
         dy="10"
         dx="-10"
         id="feOffset2070-5" /><feGaussianBlur
         stdDeviation="3"
         result="blur"
         id="feGaussianBlur2072-3" /><feFlood
         flood-color="rgb(0,0,0)"
         flood-opacity="1"
         result="flood"
         id="feFlood2074-6" /><feComposite
         in="flood"
         in2="SourceGraphic"
         operator="in"
         result="composite"
         id="feComposite2076-0" /><feBlend
         in="blur"
         in2="composite"
         mode="normal"
         id="feBlend2078-4" /></filter><filter
       inkscape:menu-tooltip="In and out glow with a possible offset and colorizable flood"
       inkscape:menu="Shadows and Glows"
       inkscape:label="Cutout Glow"
       style="color-interpolation-filters:sRGB;"
       id="filter2149"
       x="-0.044642133"
       y="-0.01841106"
       width="1.0633295"
       height="1.062393"><feOffset
         dy="10"
         dx="-10"
         id="feOffset2139" /><feGaussianBlur
         stdDeviation="3"
         result="blur"
         id="feGaussianBlur2141" /><feFlood
         flood-color="rgb(0,0,0)"
         flood-opacity="0"
         result="flood"
         id="feFlood2143" /><feComposite
         in="flood"
         in2="SourceGraphic"
         operator="in"
         result="composite"
         id="feComposite2145" /><feBlend
         in="blur"
         in2="composite"
         mode="normal"
         id="feBlend2147" /></filter><filter
       inkscape:menu-tooltip="In and out glow with a possible offset and colorizable flood"
       inkscape:menu="Shadows and Glows"
       inkscape:label="Cutout Glow"
       style="color-interpolation-filters:sRGB"
       id="filter2149-9"
       x="-0.044642133"
       y="-0.01841106"
       width="1.0633295"
       height="1.062393"><feOffset
         dy="10"
         dx="-10"
         id="feOffset2139-6" /><feGaussianBlur
         stdDeviation="3"
         result="blur"
         id="feGaussianBlur2141-6" /><feFlood
         flood-color="rgb(0,0,0)"
         flood-opacity="1"
         result="flood"
         id="feFlood2143-7" /><feComposite
         in="flood"
         in2="SourceGraphic"
         operator="in"
         result="composite"
         id="feComposite2145-0" /><feBlend
         in="blur"
         in2="composite"
         mode="normal"
         id="feBlend2147-1" /></filter><clipPath
       clipPathUnits="userSpaceOnUse"
       id="clipPath964"><path
         id="path966"
         style="fill:#340000;fill-opacity:1;stroke-width:0.588303"
         d="m 543.00658,1228.991 c 15.7358,-9.2227 31.47228,-18.443 51.07311,-52.0247 19.60083,-33.5818 43.07145,-91.5224 66.54001,-149.463 -15.6075,58.5107 -25.31921,128.2197 -44.92139,161.8025 -19.60218,33.5827 -49.09485,31.0341 -72.69173,39.6852 z m 117.61381,-201.4877 c 23.46861,57.9401 46.93582,115.8812 66.53665,149.463 19.6008,33.5817 35.338,42.802 51.0731,52.0247 -23.5969,-8.6511 -53.08616,-6.102 -72.68834,-39.6852 -19.60217,-33.5833 -29.31389,-103.2924 -44.92141,-161.8025 z M 542.56206,795.74071 c 15.73579,9.22279 31.47228,18.44304 51.07308,52.02479 19.60083,33.58172 43.07145,91.52238 66.54003,149.46301 -15.6075,-58.5107 -25.31921,-128.21978 -44.92139,-161.80251 -19.60217,-33.58276 -49.09484,-31.0341 -72.69172,-39.68529 z m 117.6138,201.4878 c 23.46861,-57.94013 46.93582,-115.88129 66.53665,-149.46301 19.6008,-33.58175 35.33797,-42.802 51.07308,-52.02479 -23.59688,8.65119 -53.08613,6.10203 -72.68831,39.68529 -19.60218,33.58326 -29.31389,103.29231 -44.92142,161.80251 z m 216.84532,132.52689 c -9.22268,-15.7358 -18.44298,-31.4723 -52.02468,-51.0731 -33.5818,-19.6008 -91.52241,-43.0714 -149.46301,-66.54 58.5107,15.6075 128.2197,25.3192 161.80251,44.9214 33.5827,19.6022 31.03408,49.0948 39.68518,72.6917 z M 675.53349,1012.1416 c 57.9401,-23.46865 115.88121,-46.93586 149.46301,-66.53669 33.5817,-19.6008 42.802,-35.338 52.02468,-51.07311 -8.6511,23.59691 -6.102,53.08614 -39.68518,72.68834 -33.58331,19.60218 -103.29242,29.31389 -161.80251,44.92146 z m -231.76252,118.0583 c 9.22279,-15.7357 18.44304,-31.4722 52.02476,-51.073 33.58175,-19.6009 91.52238,-43.0715 149.46301,-66.5401 -58.5107,15.6075 -128.21976,25.3192 -161.80248,44.9214 -33.58276,19.6022 -31.03411,49.0949 -39.68529,72.6917 z m 201.48777,-117.6138 c -57.9401,-23.46863 -115.88126,-46.93584 -149.46301,-66.53666 -33.58172,-19.60083 -42.80197,-35.33798 -52.02476,-51.07309 8.65118,23.59686 6.10203,53.08614 39.68529,72.68832 33.58325,19.60218 103.29231,29.31389 161.80248,44.92143 z M 514.8263,1143.269 a 10.39,10.39 0 0 0 3.062,7.373 l 4.97101,4.971 a 10.405,10.405 0 0 0 14.747,0 l 7.582,-7.582 43.71299,-12.339 c 3.93199,-1.11 7.988,-5.171 9.09801,-9.103 l -15.68701,-15.682 78.375,-78.375 78.375,78.375 -15.687,15.682 c 1.11,3.931 5.17098,7.993 9.10298,9.103 l 43.70301,12.334 7.587,7.587 a 10.405,10.405 0 0 0 14.747,0 l 4.97099,-4.971 a 10.405,10.405 0 0 0 0,-14.747 l -7.577,-7.577 -12.344,-43.717 c -1.10998,-3.931 -5.16699,-7.988 -9.09799,-9.098 l -15.687,15.687 -78.375,-78.375 78.375,-78.37508 15.687,15.68701 c 3.931,-1.11001 7.98801,-5.16699 9.09799,-9.09799 l 12.344,-43.717 7.577,-7.57701 a 10.405,10.405 0 0 0 0,-14.74699 l -4.97099,-4.97102 a 10.405,10.405 0 0 0 -14.747,0 l -7.582,7.582 -43.70801,12.339 c -3.93099,1.11001 -7.99298,5.17202 -9.10298,9.10301 l 15.687,15.68201 -78.375,78.375 -78.375,-78.375 15.68701,-15.68201 c -1.11001,-3.93099 -5.16702,-7.993 -9.09801,-9.10301 l -43.71701,-12.344 -7.577,-7.577 a 10.405,10.405 0 0 0 -14.747,0 l -2.48499,2.48502 -2.48499,2.48499 a 10.405,10.405 0 0 0 0,14.747 l 7.587,7.587 12.339,43.70801 c 1.10998,3.932 5.16699,7.98798 9.09798,9.09799 l 15.68701,-15.68701 78.375,78.37508 -78.375,78.375 -15.68701,-15.687 c -3.93099,1.11 -7.988,5.167 -9.09798,9.098 l -12.339,43.708 -7.587,7.586 a 10.396,10.396 0 0 0 -3.062,7.374 z m 145.855,-130.455 v -0.013 l 0.0132,0.013 -0.0132,0.013 z" /></clipPath><clipPath
       clipPathUnits="userSpaceOnUse"
       id="clipPath992"><path
         d="m 819.06068,415.79322 q -8.5725,4.7625 -18.57374,9.525 -10.00125,4.7625 -21.90752,7.62002 -2.8575,21.90749 -7.14375,49.52998 -3.80999,27.62252 -10.47749,54.76876 -6.6675,27.14626 -19.04999,47.625 -7.62,13.335 -18.57377,22.38374 -10.4775,8.5725 -24.28874,11.90625 -9.525,1.905 -20.47874,-2.38125 -10.4775,-4.7625 -20.47877,-12.85875 -12.3825,-10.47749 -22.38374,-23.81249 -9.525,-13.33499 -13.335,-23.33626 -0.47625,-1.905 1.905,-2.8575 1.905,-0.9525 1.42875,-2.38125 l -5.23875,-12.38249 q 10.4775,1.90499 23.81249,11.42999 13.335,9.04875 23.81252,17.14502 15.71624,0 27.14624,-11.43002 11.90624,-11.43 20.00249,-29.05124 7.62,-16.66874 11.90627,-36.19501 4.7625,-19.52624 6.6675,-38.57624 1.905,-19.04999 0.47625,-33.81376 -14.76377,-1.42875 -32.86126,0.47625 -17.62125,1.905 -34.28999,3.81 -2.8575,0.47625 -5.715,0.9525 -2.38127,0 -5.23877,0.47625 3.33375,13.33502 -2.38125,25.24127 -5.23875,11.90624 -10.00125,19.04999 -1.42875,1.905 -1.905,2.8575 11.90625,6.66749 23.33627,13.33499 11.90625,6.19125 20.00249,16.19252 8.5725,10.00125 9.525,27.14624 -21.43124,-0.9525 -36.19501,-8.09625 -14.76375,-7.61999 -30.00374,-14.28749 -5.715,10.95374 -13.81124,26.19374 -8.09625,15.23999 -18.57377,30.48001 -10.4775,14.76375 -23.33624,24.76499 -12.85875,10.00125 -27.62249,10.95375 -8.09625,-0.9525 -13.81127,-4.28625 18.09752,-22.38374 34.76626,-48.57751 16.66874,-26.66999 26.66999,-53.34 -9.04875,-6.6675 -22.85999,-13.335 -13.81125,-7.14374 -26.19374,-13.81124 7.14375,-8.09625 17.14499,-9.04875 10.00125,-1.42875 20.00249,0.9525 10.4775,1.905 17.62127,3.81 4.28625,1.42875 5.715,1.905 3.81,-5.715 7.62,-16.19249 3.81,-10.4775 5.71499,-18.09752 -7.61999,-1.905 -13.81124,-0.47625 -6.19125,1.42875 -11.90627,3.81 -3.81,1.42877 -7.62,2.85752 -3.33375,0.9525 -7.14374,0.9525 -9.04875,0.47625 -15.24,-2.8575 -5.715,-3.33377 -10.95374,-7.62002 -4.28625,-2.8575 -8.5725,-5.23875 -4.28625,-2.8575 -9.52502,-3.81 -0.47625,-6.66749 -4.28625,-10.00124 -3.81,-3.33375 -4.28625,-10.95375 32.38501,3.81 70.96125,0.9525 38.57626,-2.8575 76.67627,-6.6675 18.57374,-1.90499 36.19498,-3.33374 17.62127,-1.905 34.29002,-2.8575 l 1.42875,-5.23875 q 26.66998,1.905 44.7675,11.90624 18.57375,10.00125 30.47999,26.19374 z m 40.48126,310.99126 q 0,8.09624 -6.19125,12.85874 -5.71502,4.7625 -13.33502,9.04875 -7.14375,4.28627 -11.90624,10.95377 -31.90874,7.14375 -65.24625,8.5725 -33.33749,1.905 -64.29375,-2.8575 -38.10001,-6.19125 -69.05625,-23.33627 -30.95624,-16.66874 -47.62501,-46.67248 -5.23874,-9.52502 -9.52499,-20.95502 -3.81,-11.90624 -8.09625,-22.85999 -4.7625,-11.42999 -8.5725,-23.81249 -3.33374,-12.85877 -8.57249,-24.76501 17.14499,7.61999 29.05124,20.00249 11.90624,12.38252 21.43126,27.62251 9.525,14.76375 18.57375,30.00374 9.04874,15.24002 20.00249,29.05126 11.90624,4.7625 32.38501,9.04875 20.47874,3.81 42.38623,3.81 19.52627,0 36.19501,-4.28625 17.145,-4.7625 25.71749,-15.23999 -3.33375,-12.3825 -9.04874,-22.38377 -5.23875,-10.4775 -11.90625,-19.52624 -6.19125,-6.6675 -11.90624,-13.335 -5.715,-7.14374 -8.09625,-13.81124 10.4775,0.47625 15.71624,5.715 5.715,4.76249 6.19125,11.42999 6.6675,6.6675 18.57374,10.95375 11.90625,3.81 23.81252,10.00124 6.19125,3.33375 12.38249,8.5725 6.19125,5.23875 11.90625,7.62002 0.9525,0 3.81,0 3.81,-0.47625 4.7625,0 5.71499,3.33375 12.85874,10.95375 7.14375,7.14375 12.38252,14.76374 5.23875,7.62 5.23875,12.85875 z m -319.56375,21.43124 q -6.19125,8.09627 -14.76377,6.19127 -8.5725,-1.42875 -17.14499,-8.09627 -10.4775,-8.09625 -19.04999,-20.00249 -8.09625,-11.90625 -10.4775,-18.0975 12.85874,-10.95374 14.28749,-29.05126 1.42875,-18.09749 0.47625,-37.62373 -0.47625,-7.62 -0.9525,-14.76375 0,-7.62002 0.47625,-14.76377 18.0975,4.7625 23.33624,21.43127 5.715,16.19249 7.14375,36.67123 0.9525,14.76375 1.42875,30.00377 0.9525,14.76374 3.81,27.62249 3.33375,12.38249 11.43002,20.47874 z m 323.85,-107.63248 q -11.43,5.71499 -26.67002,3.33374 -14.76374,-2.38124 -28.57499,-9.04874 -13.33499,-6.6675 -20.95501,-13.33502 -0.9525,-0.9525 -0.9525,-3.33375 0,-2.8575 -0.9525,-3.33375 -10.00125,-8.5725 -21.43124,-14.28749 -11.43,-6.19125 -16.66875,-15.71625 19.52625,-5.23875 40.95751,-2.8575 21.90749,2.38125 39.52874,11.90625 13.81124,7.62 23.33624,19.52624 10.00127,11.43002 12.38252,27.14627 z m -145.25627,30.47998 q -1.905,10.00125 -13.335,11.43 -10.95374,1.42875 -21.90749,-2.38125 -11.42999,-4.28625 -20.95499,-13.81124 -9.04877,-10.00125 -16.66877,-21.9075 -7.61999,-11.90624 -13.81124,-20.95499 9.04875,-1.42877 21.90749,0.47625 12.85877,1.42875 26.19377,6.19125 13.33499,4.28625 22.85999,11.43 8.09624,5.71499 12.38249,13.33499 4.7625,7.14375 3.33375,16.19249 z"
         id="path994"
         style="font-size:476.25px;font-family:'Yuji Mai';-inkscape-font-specification:'Yuji Mai';fill:#980000;stroke-width:27.7812" /></clipPath></defs><path
     d="m-2758.487 273.13 24.394 31.47h517.576l14.375-11.25-104.69-501.167-31.462-17.601z"
     transform="matrix(-2.0051 0 0 2.0051 -4364.078 802.135)"
     opacity=".5"
     filter="url(#C)"
     id="path40" /><path
     d="M660.043 178.151 306.898 295.079l-167.217 974.019 13.312 80.689 20.099 16.719h973.903l20.099-16.719 13.312-80.689-167.217-974.019z"
     fill="url(#A)"
     id="path42" /><path
     d="M660.031 178.153 306.887 295.081 139.67 1269.1l13.312 73.816 20.099 16.718h973.903l20.099-16.718 13.312-73.816-167.217-974.019z"
     opacity=".25"
     fill="url(#B)"
     style="mix-blend-mode:overlay"
     id="path44" /><path
     d="m1159.664 1264.056-.043 21.064 20.75-16.013-20.707-5.052z"
     opacity=".8"
     fill="#fff"
     id="path46" /><path
     d="m1180.371 1269.107-20.75 16.013-12.661 81.397 20.099-16.719 13.312-80.69z"
     opacity=".6"
     id="path48" /><g
     fill="#fff"
     id="g54"><path
       d="m306.85 295.071 17.664 13.248L660 194.543v-16.402zM1013.15 295.071l-17.664 13.248L660 194.543v-16.402z"
       opacity=".3"
       id="path50" /><path
       d="m1013.15 295.071-17.664 13.248 164.177 955.737 20.707 5.052z"
       opacity=".3"
       id="path52" /></g><path
     d="m306.85 295.071 17.664 13.248-164.177 955.737-20.707 5.052z"
     opacity=".4"
     id="path56" /><path
     d="m139.629 1269.107 20.75 16.013 12.661 81.397-20.099-16.719-13.312-80.69z"
     opacity=".9"
     id="path58" /><path
     d="m160.337 1264.056.043 21.064-20.75-16.013 20.707-5.052z"
     opacity=".6"
     id="path60" /><path
     d="M160.337 1264.056h999.327l-.043 21.064H160.379l-.043-21.064z"
     opacity=".2"
     id="path62" /><path
     d="m1159.621 1285.12-12.661 81.397H173.04l-12.661-81.397h999.241z"
     opacity=".7"
     id="path64" /><style
     id="style309">.B{color-interpolation-filters:sRGB}</style><g
     id="g1154" /><path
     id="path2137-4"
     style="fill:#320000;fill-opacity:1;stroke-width:0.588304"
     d="m 543.00659,1228.991 c 15.73579,-9.2227 31.47227,-18.443 51.07309,-52.0247 19.60083,-33.5818 43.07145,-91.5224 66.54003,-149.463 -15.6075,58.5107 -25.31921,128.2197 -44.92139,161.8025 -19.60219,33.5827 -49.09486,31.0341 -72.69173,39.6852 z m 117.6138,-201.4877 c 23.4686,57.9401 46.93581,115.8812 66.53664,149.463 19.60081,33.5817 35.33801,42.802 51.07311,52.0247 -23.5969,-8.6511 -53.08615,-6.102 -72.68834,-39.6852 -19.60218,-33.5833 -29.31388,-103.2924 -44.92141,-161.8025 z M 542.56206,795.74071 c 15.73579,9.22279 31.47227,18.44305 51.07309,52.02478 19.60083,33.58173 43.07145,91.52238 66.54003,149.46301 C 644.56768,938.7178 634.85597,869.00874 615.25379,835.426 595.6516,801.84325 566.15893,804.39189 542.56206,795.74071 Z m 117.6138,201.48779 c 23.4686,-57.94012 46.93581,-115.88128 66.53664,-149.46301 19.60082,-33.58173 35.33798,-42.80199 51.07309,-52.02478 -23.59687,8.65118 -53.08613,6.10203 -72.68832,39.68529 -19.60218,33.58325 -29.31388,103.29231 -44.92141,161.8025 z m 216.84533,132.5269 c -9.2227,-15.7358 -18.443,-31.4723 -52.0247,-51.0731 -33.5818,-19.6008 -91.5224,-43.0714 -149.463,-66.54 58.5107,15.6075 128.2197,25.3192 161.8025,44.9214 33.5827,19.6022 31.0341,49.0948 39.6852,72.6917 z m -201.4877,-117.6138 c 57.9401,-23.46865 115.8812,-46.93586 149.463,-66.53669 33.5817,-19.60081 42.802,-35.33801 52.0247,-51.07311 -8.6511,23.5969 -6.102,53.08615 -39.6852,72.68834 -33.5833,19.60218 -103.2924,29.31388 -161.8025,44.92146 z m -231.76253,118.0583 c 9.22279,-15.7357 18.44305,-31.4722 52.02478,-51.073 33.58173,-19.6009 91.52238,-43.0715 149.46301,-66.5401 -58.5107,15.6075 -128.21976,25.3192 -161.8025,44.9214 -33.58275,19.6022 -31.03411,49.0949 -39.68529,72.6917 z m 201.48779,-117.6138 c -57.94012,-23.46862 -115.88128,-46.93583 -149.46301,-66.53666 -33.58173,-19.60082 -42.80199,-35.33798 -52.02478,-51.07309 8.65118,23.59687 6.10203,53.08613 39.68529,72.68832 33.58325,19.60218 103.29231,29.31388 161.8025,44.92143 z M 514.8263,1143.269 a 10.39,10.39 0 0 0 3.062,7.373 l 4.971,4.971 a 10.405,10.405 0 0 0 14.747,0 l 7.582,-7.582 43.713,-12.339 c 3.932,-1.11 7.988,-5.171 9.098,-9.103 l -15.687,-15.682 78.375,-78.375 78.37499,78.375 -15.687,15.682 c 1.11,3.931 5.171,7.993 9.103,9.103 l 43.703,12.334 7.587,7.587 a 10.405,10.405 0 0 0 14.747,0 l 4.971,-4.971 a 10.405,10.405 0 0 0 0,-14.747 l -7.577,-7.577 -12.344,-43.717 c -1.11,-3.931 -5.167,-7.988 -9.098,-9.098 l -15.687,15.687 -78.375,-78.375 78.375,-78.37507 15.687,15.687 c 3.931,-1.11 7.988,-5.167 9.098,-9.098 l 12.344,-43.717 7.577,-7.577 a 10.405,10.405 0 0 0 0,-14.747 l -4.971,-4.971 a 10.405,10.405 0 0 0 -14.747,0 l -7.582,7.582 -43.708,12.339 c -3.931,1.11 -7.993,5.172 -9.103,9.103 l 15.687,15.682 -78.37499,78.375 -78.375,-78.375 15.687,-15.682 c -1.11,-3.931 -5.167,-7.993 -9.098,-9.103 l -43.717,-12.344 -7.577,-7.577 a 10.405,10.405 0 0 0 -14.747,0 l -2.485,2.485 -2.485,2.485 a 10.405,10.405 0 0 0 0,14.747 l 7.587,7.587 12.339,43.708 c 1.11,3.932 5.167,7.988 9.098,9.098 l 15.687,-15.687 78.375,78.37507 -78.375,78.375 -15.687,-15.687 c -3.931,1.11 -7.988,5.167 -9.098,9.098 l -12.339,43.708 -7.587,7.586 a 10.396,10.396 0 0 0 -3.062,7.374 z m 145.855,-130.455 v -0.014 l 0.014,0.014 -0.014,0.014 z" /><path
     id="path384-3-9"
     style="fill:#980000;fill-opacity:1;stroke-width:0.588304;filter:url(#filter2080)"
     d="m 543.00659,1228.991 c 15.73579,-9.2227 31.47227,-18.443 51.07309,-52.0247 19.60083,-33.5818 43.07145,-91.5224 66.54003,-149.463 -15.6075,58.5107 -25.31921,128.2197 -44.92139,161.8025 -19.60219,33.5827 -49.09486,31.0341 -72.69173,39.6852 z m 117.6138,-201.4877 c 23.46861,57.9401 46.93582,115.8812 66.53665,149.463 19.60081,33.5817 35.33801,42.802 51.07311,52.0247 -23.5969,-8.6511 -53.08615,-6.102 -72.68834,-39.6852 -19.60218,-33.5833 -29.31388,-103.2924 -44.92142,-161.8025 z M 542.56206,795.74072 c 15.73579,9.22279 31.47227,18.44305 51.07309,52.02478 19.60083,33.58173 43.07145,91.52238 66.54003,149.46301 -15.6075,-58.5107 -25.31921,-128.21976 -44.92139,-161.8025 -19.60219,-33.58275 -49.09486,-31.03411 -72.69173,-39.68529 z m 117.6138,201.48779 c 23.46861,-57.94012 46.93582,-115.88128 66.53665,-149.46301 19.60082,-33.58173 35.33798,-42.80199 51.07309,-52.02478 -23.59687,8.65118 -53.08613,6.10203 -72.68832,39.68529 -19.60218,33.58325 -29.31388,103.29231 -44.92142,161.8025 z M 877.0212,1129.7554 c -9.2227,-15.7358 -18.443,-31.4723 -52.0247,-51.0731 -33.5818,-19.6008 -91.5224,-43.0714 -149.463,-66.54 58.5107,15.6075 128.2197,25.3192 161.8025,44.9214 33.5827,19.6022 31.0341,49.0948 39.6852,72.6917 z M 675.5335,1012.1416 c 57.9401,-23.46864 115.8812,-46.93585 149.463,-66.53668 33.5817,-19.60081 42.802,-35.33801 52.0247,-51.07311 -8.6511,23.5969 -6.102,53.08615 -39.6852,72.68834 -33.5833,19.60218 -103.2924,29.31388 -161.8025,44.92145 z m -231.76254,118.0583 c 9.22279,-15.7357 18.44305,-31.4722 52.02478,-51.073 33.58173,-19.6009 91.52238,-43.0715 149.46301,-66.5401 -58.5107,15.6075 -128.21976,25.3192 -161.8025,44.9214 -33.58275,19.6022 -31.03411,49.0949 -39.68529,72.6917 z m 201.48779,-117.6138 c -57.94012,-23.46861 -115.88128,-46.93582 -149.46301,-66.53665 -33.58173,-19.60082 -42.80199,-35.33798 -52.02478,-51.07309 8.65118,23.59687 6.10203,53.08613 39.68529,72.68832 33.58325,19.60218 103.29231,29.31388 161.8025,44.92142 z M 514.8263,1143.269 a 10.39,10.39 0 0 0 3.062,7.373 l 4.971,4.971 a 10.405,10.405 0 0 0 14.747,0 l 7.582,-7.582 43.713,-12.339 c 3.932,-1.11 7.988,-5.171 9.098,-9.103 l -15.687,-15.682 78.375,-78.375 78.375,78.375 -15.687,15.682 c 1.11,3.931 5.171,7.993 9.103,9.103 l 43.703,12.334 7.587,7.587 a 10.405,10.405 0 0 0 14.747,0 l 4.971,-4.971 a 10.405,10.405 0 0 0 0,-14.747 l -7.577,-7.577 -12.344,-43.717 c -1.11,-3.931 -5.167,-7.988 -9.098,-9.098 l -15.687,15.687 -78.375,-78.375 78.375,-78.37506 15.687,15.687 c 3.931,-1.11 7.988,-5.167 9.098,-9.098 l 12.344,-43.717 7.577,-7.577 a 10.405,10.405 0 0 0 0,-14.747 l -4.971,-4.971 a 10.405,10.405 0 0 0 -14.747,0 l -7.582,7.582 -43.708,12.339 c -3.931,1.11 -7.993,5.172 -9.103,9.103 l 15.687,15.682 -78.375,78.375 -78.375,-78.375 15.687,-15.682 c -1.11,-3.931 -5.167,-7.993 -9.098,-9.103 l -43.717,-12.344 -7.577,-7.577 a 10.405,10.405 0 0 0 -14.747,0 l -2.485,2.485 -2.485,2.485 a 10.405,10.405 0 0 0 0,14.747 l 7.587,7.587 12.339,43.708 c 1.11,3.932 5.167,7.988 9.098,9.098 l 15.687,-15.687 78.375,78.37506 -78.375,78.375 -15.687,-15.687 c -3.931,1.11 -7.988,5.167 -9.098,9.098 l -12.339,43.708 -7.587,7.586 a 10.396,10.396 0 0 0 -3.062,7.374 z m 145.855,-130.455 v -0.014 l 0.014,0.014 -0.014,0.014 z"
     clip-path="url(#clipPath964)" /><path
     d="m 819.06068,415.79323 q -8.5725,4.7625 -18.57374,9.525 -10.00125,4.7625 -21.90752,7.62002 -2.8575,21.90749 -7.14375,49.52998 -3.80999,27.62252 -10.47749,54.76876 -6.6675,27.14626 -19.04999,47.625 -7.62,13.335 -18.57377,22.38374 -10.4775,8.5725 -24.28874,11.90625 -9.525,1.905 -20.47874,-2.38125 -10.4775,-4.7625 -20.47877,-12.85875 -12.3825,-10.47749 -22.38374,-23.81249 -9.525,-13.33499 -13.335,-23.33626 -0.47625,-1.905 1.905,-2.8575 1.905,-0.9525 1.42875,-2.38125 l -5.23875,-12.38249 q 10.4775,1.90499 23.81249,11.42999 13.335,9.04875 23.81252,17.14502 15.71624,0 27.14624,-11.43002 11.90624,-11.43 20.00249,-29.05124 7.62,-16.66874 11.90627,-36.19501 4.7625,-19.52624 6.6675,-38.57624 1.905,-19.04999 0.47625,-33.81376 -14.76377,-1.42875 -32.86126,0.47625 -17.62125,1.905 -34.28999,3.81 -2.8575,0.47625 -5.715,0.9525 -2.38127,0 -5.23877,0.47625 3.33375,13.33502 -2.38125,25.24127 -5.23875,11.90624 -10.00125,19.04999 -1.42875,1.905 -1.905,2.8575 11.90625,6.66749 23.33627,13.33499 11.90625,6.19125 20.00249,16.19252 8.5725,10.00125 9.525,27.14624 -21.43124,-0.9525 -36.19501,-8.09625 -14.76375,-7.61999 -30.00374,-14.28749 -5.715,10.95374 -13.81124,26.19374 -8.09625,15.23999 -18.57377,30.48001 -10.4775,14.76375 -23.33624,24.76499 -12.85875,10.00125 -27.62249,10.95375 -8.09625,-0.9525 -13.81127,-4.28625 18.09752,-22.38374 34.76626,-48.57751 16.66874,-26.66999 26.66999,-53.34 -9.04875,-6.6675 -22.85999,-13.335 -13.81125,-7.14374 -26.19374,-13.81124 7.14375,-8.09625 17.14499,-9.04875 10.00125,-1.42875 20.00249,0.9525 10.4775,1.905 17.62127,3.81 4.28625,1.42875 5.715,1.905 3.81,-5.715 7.62,-16.19249 3.81,-10.4775 5.71499,-18.09752 -7.61999,-1.905 -13.81124,-0.47625 -6.19125,1.42875 -11.90627,3.81 -3.81,1.42877 -7.62,2.85752 -3.33375,0.9525 -7.14374,0.9525 -9.04875,0.47625 -15.24,-2.8575 -5.715,-3.33377 -10.95374,-7.62002 -4.28625,-2.8575 -8.5725,-5.23875 -4.28625,-2.8575 -9.52502,-3.81 -0.47625,-6.66749 -4.28625,-10.00124 -3.81,-3.33375 -4.28625,-10.95375 32.38501,3.81 70.96125,0.9525 38.57626,-2.8575 76.67627,-6.6675 18.57374,-1.90499 36.19498,-3.33374 17.62127,-1.905 34.29002,-2.8575 l 1.42875,-5.23875 q 26.66998,1.905 44.7675,11.90624 18.57375,10.00125 30.47999,26.19374 z m 40.48126,310.99126 q 0,8.09624 -6.19125,12.85874 -5.71502,4.7625 -13.33502,9.04875 -7.14375,4.28627 -11.90624,10.95377 -31.90874,7.14375 -65.24625,8.5725 -33.33749,1.905 -64.29375,-2.8575 -38.10001,-6.19125 -69.05625,-23.33627 -30.95624,-16.66874 -47.62501,-46.67248 -5.23874,-9.52502 -9.52499,-20.95502 -3.81,-11.90624 -8.09625,-22.85999 -4.7625,-11.42999 -8.5725,-23.81249 -3.33374,-12.85877 -8.57249,-24.76501 17.14499,7.61999 29.05124,20.00249 11.90624,12.38252 21.43126,27.62251 9.525,14.76375 18.57375,30.00374 9.04874,15.24002 20.00249,29.05126 11.90624,4.7625 32.38501,9.04875 20.47874,3.81 42.38623,3.81 19.52627,0 36.19501,-4.28625 17.145,-4.7625 25.71749,-15.23999 -3.33375,-12.3825 -9.04874,-22.38377 -5.23875,-10.4775 -11.90625,-19.52624 -6.19125,-6.6675 -11.90624,-13.335 -5.715,-7.14374 -8.09625,-13.81124 10.4775,0.47625 15.71624,5.715 5.715,4.76249 6.19125,11.42999 6.6675,6.6675 18.57374,10.95375 11.90625,3.81 23.81252,10.00124 6.19125,3.33375 12.38249,8.5725 6.19125,5.23875 11.90625,7.62002 0.9525,0 3.81,0 3.81,-0.47625 4.7625,0 5.71499,3.33375 12.85874,10.95375 7.14375,7.14375 12.38252,14.76374 5.23875,7.62 5.23875,12.85875 z m -319.56375,21.43124 q -6.19125,8.09627 -14.76377,6.19127 -8.5725,-1.42875 -17.14499,-8.09627 -10.4775,-8.09625 -19.04999,-20.00249 -8.09625,-11.90625 -10.4775,-18.0975 12.85874,-10.95374 14.28749,-29.05126 1.42875,-18.09749 0.47625,-37.62373 -0.47625,-7.62 -0.9525,-14.76375 0,-7.62002 0.47625,-14.76377 18.0975,4.7625 23.33624,21.43127 5.715,16.19249 7.14375,36.67123 0.9525,14.76375 1.42875,30.00377 0.9525,14.76374 3.81,27.62249 3.33375,12.38249 11.43002,20.47874 z m 323.85,-107.63248 q -11.43,5.71499 -26.67002,3.33374 -14.76374,-2.38124 -28.57499,-9.04874 -13.33499,-6.6675 -20.95501,-13.33502 -0.9525,-0.9525 -0.9525,-3.33375 0,-2.8575 -0.9525,-3.33375 -10.00125,-8.5725 -21.43124,-14.28749 -11.43,-6.19125 -16.66875,-15.71625 19.52625,-5.23875 40.95751,-2.8575 21.90749,2.38125 39.52874,11.90625 13.81124,7.62 23.33624,19.52624 10.00127,11.43002 12.38252,27.14627 z m -145.25627,30.47998 q -1.905,10.00125 -13.335,11.43 -10.95374,1.42875 -21.90749,-2.38125 -11.42999,-4.28625 -20.95499,-13.81124 -9.04877,-10.00125 -16.66877,-21.9075 -7.61999,-11.90624 -13.81124,-20.95499 9.04875,-1.42877 21.90749,0.47625 12.85877,1.42875 26.19377,6.19125 13.33499,4.28625 22.85999,11.43 8.09624,5.71499 12.38249,13.33499 4.7625,7.14375 3.33375,16.19249 z"
     id="path490-5"
     style="font-size:476.25px;font-family:'Yuji Mai';-inkscape-font-specification:'Yuji Mai';fill:#320000;stroke-width:27.7812;fill-opacity:1" /><path
     d="m 819.06068,415.79323 q -8.5725,4.7625 -18.57375,9.525 -10.00125,4.7625 -21.9075,7.62 -2.8575,21.9075 -7.14375,49.53 -3.81,27.6225 -10.4775,54.76875 -6.6675,27.14625 -19.05,47.625 -7.62,13.335 -18.57375,22.38375 -10.4775,8.5725 -24.28875,11.90625 -9.525,1.905 -20.47875,-2.38125 -10.4775,-4.7625 -20.47875,-12.85875 -12.3825,-10.4775 -22.38375,-23.8125 -9.525,-13.335 -13.335,-23.33625 -0.47625,-1.905 1.905,-2.8575 1.905,-0.9525 1.42875,-2.38125 l -5.23875,-12.3825 q 10.4775,1.905 23.8125,11.43 13.335,9.04875 23.8125,17.145 15.71625,0 27.14625,-11.43 11.90625,-11.43 20.0025,-29.05125 7.62,-16.66875 11.90625,-36.195 4.7625,-19.52625 6.6675,-38.57625 1.905,-19.05 0.47625,-33.81375 -14.76375,-1.42875 -32.86125,0.47625 -17.62125,1.905 -34.29,3.81 -2.8575,0.47625 -5.715,0.9525 -2.38125,0 -5.23875,0.47625 3.33375,13.335 -2.38125,25.24125 -5.23875,11.90625 -10.00125,19.05 -1.42875,1.905 -1.905,2.8575 11.90625,6.6675 23.33625,13.335 11.90625,6.19125 20.0025,16.1925 8.5725,10.00125 9.525,27.14625 -21.43125,-0.9525 -36.195,-8.09625 -14.76375,-7.62 -30.00375,-14.2875 -5.715,10.95375 -13.81125,26.19375 -8.09625,15.24 -18.57375,30.48 -10.4775,14.76375 -23.33625,24.765 -12.85875,10.00125 -27.6225,10.95375 -8.09625,-0.9525 -13.81125,-4.28625 18.0975,-22.38375 34.76625,-48.5775 16.66875,-26.67 26.67,-53.34 -9.04875,-6.6675 -22.86,-13.335 -13.81125,-7.14375 -26.19375,-13.81125 7.14375,-8.09625 17.145,-9.04875 10.00125,-1.42875 20.0025,0.9525 10.4775,1.905 17.62125,3.81 4.28625,1.42875 5.715,1.905 3.81,-5.715 7.62,-16.1925 3.81,-10.4775 5.715,-18.0975 -7.62,-1.905 -13.81125,-0.47625 -6.19125,1.42875 -11.90625,3.81 -3.81,1.42875 -7.62,2.8575 -3.33375,0.9525 -7.14375,0.9525 -9.04875,0.47625 -15.24,-2.8575 -5.715,-3.33375 -10.95375,-7.62 -4.28625,-2.8575 -8.5725,-5.23875 -4.28625,-2.8575 -9.525,-3.81 -0.47625,-6.6675 -4.28625,-10.00125 -3.81,-3.33375 -4.28625,-10.95375 32.385,3.81 70.96125,0.9525 38.57625,-2.8575 76.67625,-6.6675 18.57375,-1.905 36.195,-3.33375 17.62125,-1.905 34.29,-2.8575 l 1.42875,-5.23875 q 26.67,1.905 44.7675,11.90625 18.57375,10.00125 30.48,26.19375 z m 40.48125,310.99125 q 0,8.09625 -6.19125,12.85875 -5.715,4.7625 -13.335,9.04875 -7.14375,4.28625 -11.90625,10.95375 -31.90875,7.14375 -65.24625,8.5725 -33.3375,1.905 -64.29375,-2.8575 -38.1,-6.19125 -69.05625,-23.33625 -30.95625,-16.66875 -47.625,-46.6725 -5.23875,-9.525 -9.525,-20.955 -3.81,-11.90625 -8.09625,-22.86 -4.7625,-11.43 -8.5725,-23.8125 -3.33375,-12.85875 -8.5725,-24.765 17.145,7.62 29.05125,20.0025 11.90625,12.3825 21.43125,27.6225 9.525,14.76375 18.57375,30.00375 9.04875,15.24 20.0025,29.05125 11.90625,4.7625 32.385,9.04875 20.47875,3.81 42.38625,3.81 19.52625,0 36.195,-4.28625 17.145,-4.7625 25.7175,-15.24 -3.33375,-12.3825 -9.04875,-22.38375 -5.23875,-10.4775 -11.90625,-19.52625 -6.19125,-6.6675 -11.90625,-13.335 -5.715,-7.14375 -8.09625,-13.81125 10.4775,0.47625 15.71625,5.715 5.715,4.7625 6.19125,11.43 6.6675,6.6675 18.57375,10.95375 11.90625,3.81 23.8125,10.00125 6.19125,3.33375 12.3825,8.5725 6.19125,5.23875 11.90625,7.62 0.9525,0 3.81,0 3.81,-0.47625 4.7625,0 5.715,3.33375 12.85875,10.95375 7.14375,7.14375 12.3825,14.76375 5.23875,7.62 5.23875,12.85875 z m -319.56375,21.43125 q -6.19125,8.09625 -14.76375,6.19125 -8.5725,-1.42875 -17.145,-8.09625 -10.4775,-8.09625 -19.05,-20.0025 -8.09625,-11.90625 -10.4775,-18.0975 12.85875,-10.95375 14.2875,-29.05125 1.42875,-18.0975 0.47625,-37.62375 -0.47625,-7.62 -0.9525,-14.76375 0,-7.62 0.47625,-14.76375 18.0975,4.7625 23.33625,21.43125 5.715,16.1925 7.14375,36.67125 0.9525,14.76375 1.42875,30.00375 0.9525,14.76375 3.81,27.6225 3.33375,12.3825 11.43,20.47875 z m 323.85,-107.6325 q -11.43,5.715 -26.67,3.33375 -14.76375,-2.38125 -28.575,-9.04875 -13.335,-6.6675 -20.955,-13.335 -0.9525,-0.9525 -0.9525,-3.33375 0,-2.8575 -0.9525,-3.33375 -10.00125,-8.5725 -21.43125,-14.2875 -11.43,-6.19125 -16.66875,-15.71625 19.52625,-5.23875 40.9575,-2.8575 21.9075,2.38125 39.52875,11.90625 13.81125,7.62 23.33625,19.52625 10.00125,11.43 12.3825,27.14625 z m -145.25625,30.48 q -1.905,10.00125 -13.335,11.43 -10.95375,1.42875 -21.9075,-2.38125 -11.43,-4.28625 -20.955,-13.81125 -9.04875,-10.00125 -16.66875,-21.9075 -7.62,-11.90625 -13.81125,-20.955 9.04875,-1.42875 21.9075,0.47625 12.85875,1.42875 26.19375,6.19125 13.335,4.28625 22.86,11.43 8.09625,5.715 12.3825,13.335 4.7625,7.14375 3.33375,16.1925 z"
     id="path3829"
     style="font-size:476.25px;font-family:'Yuji Mai';-inkscape-font-specification:'Yuji Mai';fill:#980000;stroke-width:27.7812;filter:url(#filter2149);fill-opacity:1"
     clip-path="url(#clipPath992)" /><path
     style="fill:#ffffff;filter:url(#H)"
     d="m -389.109,718.056 c 2.905,-0.421 4.18,-5.424 1.912,-7.506 -2.268,-2.082 -8.082,-1.24 -8.719,1.263 -0.637,2.503 3.902,6.664 6.808,6.243 z"
     transform="matrix(1.133,0,0,1.133,1159.4029,-209.56594)"
     id="path2312" /><path
     style="fill:#ffffff;filter:url(#H)"
     d="m -538.025,368.773 c -1.318,1.833 3.775,7.015 7.638,7.772 3.863,0.757 6.499,-2.907 3.954,-5.498 -2.545,-2.591 -10.274,-4.107 -11.592,-2.274 z"
     transform="matrix(1.133,0,0,1.133,1286.4763,249.73545)"
     id="path2308" /><path
     style="fill:#ffffff;filter:url(#H)"
     d="m -376.854,488.571 c -0.597,2.238 0.531,5.894 1.691,5.484 1.16,-0.41 2.355,-4.883 1.791,-6.712 -0.564,-1.829 -2.885,-1.01 -3.482,1.227 z"
     transform="matrix(-0.29511502,1.6736808,-1.6736808,-0.29511502,1522.9341,1400.163)"
     id="path2304" /><path
     style="fill:#ffffff;filter:url(#H)"
     d="m -473.569,493.528 c -1.138,2.238 1.01,5.894 3.221,5.484 2.211,-0.41 4.486,-4.883 3.413,-6.712 -1.073,-1.829 -5.497,-1.01 -6.635,1.228 z"
     transform="matrix(1.133,0,0,1.133,1037.8226,174.28645)"
     id="path70" /></svg>
