<?xml version="1.0" encoding="UTF-8" standalone="no"?>
<svg
   width="498.898"
   height="544.252"
   viewBox="0 0 1320 1440"
   version="1.1"
   id="svg89"
   sodipodi:docname="w+M.svg"
   inkscape:version="1.2.2 (732a01da63, 2022-12-09)"
   xml:space="preserve"
   xmlns:inkscape="http://www.inkscape.org/namespaces/inkscape"
   xmlns:sodipodi="http://sodipodi.sourceforge.net/DTD/sodipodi-0.dtd"
   xmlns:xlink="http://www.w3.org/1999/xlink"
   xmlns="http://www.w3.org/2000/svg"
   xmlns:svg="http://www.w3.org/2000/svg"><sodipodi:namedview
     id="namedview91"
     pagecolor="#ffffff"
     bordercolor="#000000"
     borderopacity="0.25"
     inkscape:showpageshadow="2"
     inkscape:pageopacity="0.0"
     inkscape:pagecheckerboard="0"
     inkscape:deskcolor="#d1d1d1"
     showgrid="false"
     inkscape:zoom="1.42581"
     inkscape:cx="285.80245"
     inkscape:cy="268.61923"
     inkscape:window-width="1920"
     inkscape:window-height="974"
     inkscape:window-x="-11"
     inkscape:window-y="-11"
     inkscape:window-maximized="1"
     inkscape:current-layer="svg89" /><style
     id="style2">.B{color-interpolation-filters:sRGB}</style><defs
     id="defs45"><filter
       id="C"
       x="-0.011867782"
       y="-0.01125585"
       width="1.0237356"
       height="1.0225117"
       class="B"><feGaussianBlur
         stdDeviation="2.441"
         id="feGaussianBlur4" /></filter><filter
       id="G"
       x="-0.026998005"
       y="-0.026998101"
       width="1.053996"
       height="1.0539962"
       class="B"><feGaussianBlur
         stdDeviation="3.099"
         id="feGaussianBlur7" /></filter><filter
       id="I"
       x="-0.049699338"
       y="-0.046415157"
       width="1.0993987"
       height="1.0928303"
       class="B"><feGaussianBlur
         stdDeviation="7.576"
         id="feGaussianBlur10" /></filter><filter
       id="J"
       x="-0.078836226"
       y="-0.10676253"
       width="1.1576725"
       height="1.2135251"
       class="B"><feGaussianBlur
         stdDeviation=".56"
         id="feGaussianBlur13" /></filter><filter
       id="K"
       x="-0.044639214"
       y="-0.074076117"
       width="1.0892784"
       height="1.1481522"
       class="B"><feGaussianBlur
         stdDeviation=".56"
         id="feGaussianBlur16" /></filter><filter
       id="L"
       x="-0.068525543"
       y="-0.056520636"
       width="1.1370511"
       height="1.1130413"
       class="B"><feGaussianBlur
         stdDeviation=".56"
         id="feGaussianBlur19" /></filter><linearGradient
       id="A"
       x1="-1430.769"
       y1="-77.47"
       x2="-1409.955"
       y2="-77.47"
       spreadMethod="reflect"
       gradientUnits="userSpaceOnUse"><stop
         offset="0"
         stop-color="#ffd285"
         id="stop22" /><stop
         offset=".232"
         stop-color="#ffcd79"
         id="stop24" /><stop
         offset=".616"
         stop-color="#ffca73"
         id="stop26" /><stop
         offset=".808"
         stop-color="#ffd386"
         id="stop28" /><stop
         offset="1"
         stop-color="#ffc86e"
         id="stop30" /></linearGradient><linearGradient
       id="B"
       x1="-1215.571"
       y1="-296.329"
       x2="-1215.572"
       y2="165.415"
       gradientUnits="userSpaceOnUse"><stop
         offset=".6"
         stop-color="#fff"
         id="stop33" /><stop
         offset="1"
         id="stop35" /></linearGradient><clipPath
       id="F"><path
         d="M1799.132 1043.253a7.22 7.22 0 0 0-7.237 7.237v107.141l-75.759-75.759a7.222 7.222 0 0 0-10.237 0l-3.45 3.45a7.222 7.222 0 0 0 0 10.237l75.759 75.759h-107.141a7.223 7.223 0 0 0-7.237 7.24v4.876c0 4.01 3.227 7.24 7.237 7.24h120.828v120.828a7.22 7.22 0 0 0 7.237 7.237h4.88c4.01 0 7.24-3.227 7.24-7.237v-120.828h120.825c4.01 0 7.24-3.23 7.24-7.24v-4.876c0-4.01-3.23-7.24-7.24-7.24h-107.138l75.759-75.759a7.222 7.222 0 0 0 0-10.237l-3.45-3.45a7.222 7.222 0 0 0-10.237 0l-75.759 75.759V1050.49c0-4.01-3.23-7.237-7.24-7.237zm2.438 137.74h.01v.01h-.01z"
         stroke-width="1.534"
         id="path38" /></clipPath><clipPath
       id="H"><path
         d="M-341.016 786.672c-22.298-5.244-39.247-31.912-25.632-40.327 7.363-4.551 4.667-9.654-7.446-14.091-27.321-10.009-44.425-37.865-36.714-59.793 4.891-13.907 35.287-25.873 69.015-27.168 25.619-.984 30.29-3.926 30.393-19.147.077-11.297-2.434-11.651-22.68-3.191-22.093 9.231-30.42 8.009-47.481-6.971-19.263-16.913-30.726-17.782-46.783-3.545-36.018 31.935-61.696 43.942-61.696 28.849 0-2.512 20.09-26.108 44.644-52.435 104.74-112.303 127.618-146.119 122.903-181.66-2.602-19.614-2.304-20.382 7.908-20.382 12.245 0 28.815 11.909 41.65 29.934 8.247 11.582 8.423 13.276 2.286 22.037-9.74 13.905-8.727 17.331 14.558 49.246 27.404 37.559 87.036 88.579 113.883 97.436 21.717 7.165 34.349 16.265 29.42 21.194-1.678 1.678-19.915 3.857-40.527 4.843l-37.476 1.792-24.579-27.823c-13.518-15.302-32.053-38.019-41.188-50.481-27.264-37.193-42.652-55.076-46.226-53.721-3.884 1.473-38.337 44.57-38.337 47.957 0 1.239 8.393 2.253 18.651 2.253 15.734 0 19.058 1.497 21.254 9.573 3.959 14.562-10.775 24.466-36.401 24.466-20.711 0-37.543 5.484-37.543 12.231 0 7.236 20.213 12.349 36.816 9.313 9.375-1.714 30.649-3.558 47.276-4.097 28.268-.917 30.695-.272 37.384 9.937 7.003 10.688 6.832 11.273-8.134 27.838-18.72 20.72-28.245 42.536-28.245 64.688 0 14.27-3.155 20.091-21.274 39.249-11.701 12.372-21.274 23.745-21.274 25.274 0 5.952 29.675 2.35 48.22-5.854 22.935-10.145 37.502-7.961 49.616 7.439 10.582 13.453 5.426 24.902-15.072 33.466-15.593 6.515-66.604 7.451-91.171 1.672zm7.602-99.119c-1.54-10.816-21.4-15.213-31.363-6.945-8.866 7.358-7.618 11.497 5.546 18.394 14.745 7.725 27.728 1.968 25.818-11.45z"
         stroke-width="4.255"
         id="path41" /></clipPath><path
       id="E"
       d="m-1215.571-296.329-149.881 40.669-79.82 472.51 6.639 36.814 10.024 8.338h426.077l10.024-8.338 6.639-36.814-79.82-472.51z" /><filter
       inkscape:menu-tooltip="In and out glow with a possible offset and colorizable flood"
       inkscape:menu="Shadows and Glows"
       inkscape:label="Cutout Glow"
       style="color-interpolation-filters:sRGB;"
       id="filter1892"
       x="-0.063723523"
       y="-0.018315688"
       width="1.0903985"
       height="1.0620698"><feOffset
         dy="10"
         dx="-10"
         id="feOffset1882" /><feGaussianBlur
         stdDeviation="3"
         result="blur"
         id="feGaussianBlur1884" /><feFlood
         flood-color="rgb(0,0,0)"
         flood-opacity="0"
         result="flood"
         id="feFlood1886" /><feComposite
         in="flood"
         in2="SourceGraphic"
         operator="in"
         result="composite"
         id="feComposite1888" /><feBlend
         in="blur"
         in2="composite"
         mode="normal"
         id="feBlend1890" /></filter><filter
       inkscape:menu-tooltip="In and out glow with a possible offset and colorizable flood"
       inkscape:menu="Shadows and Glows"
       inkscape:label="Cutout Glow"
       style="color-interpolation-filters:sRGB"
       id="filter1892-9"
       x="-0.056313813"
       y="-0.018315689"
       width="1.0829888"
       height="1.0569821"><feOffset
         dy="8"
         dx="-8"
         id="feOffset1882-3" /><feGaussianBlur
         stdDeviation="3"
         result="blur"
         id="feGaussianBlur1884-6" /><feFlood
         flood-color="rgb(0,0,0)"
         flood-opacity="1"
         result="flood"
         id="feFlood1886-5" /><feComposite
         in="flood"
         in2="SourceGraphic"
         operator="in"
         result="composite"
         id="feComposite1888-0" /><feBlend
         in="blur"
         in2="composite"
         mode="normal"
         id="feBlend1890-2" /></filter><filter
       id="K-3"
       x="-0.044639214"
       y="-0.074076117"
       width="1.0892784"
       height="1.1481522"
       class="B"><feGaussianBlur
         stdDeviation=".56"
         id="feGaussianBlur16-3" /></filter><filter
       id="K-3-4"
       x="-0.044639214"
       y="-0.074076117"
       width="1.0892784"
       height="1.1481522"
       class="B"><feGaussianBlur
         stdDeviation=".56"
         id="feGaussianBlur16-3-9" /></filter><clipPath
       clipPathUnits="userSpaceOnUse"
       id="clipPath929"><path
         d="m 619.86499,786.67199 c -22.29799,-5.24401 -51.71247,-27.97552 -23.66376,-51.48033 6.63445,-5.55966 40.75132,-20.80733 28.6383,-25.24433 -27.321,-10.009 -39.17636,-30.64813 -31.46538,-52.57613 4.89101,-13.907 35.28702,-25.87301 69.015,-27.16799 25.61899,-0.98401 -13.01114,11.1638 -12.90814,-4.05722 0.077,-11.29699 -2.43401,-11.65098 -22.68002,-3.19098 -22.09299,9.23099 -30.41998,8.00899 -47.48099,-6.971 -8.06318,-20.9293 2.048,-27.17662 4.85637,-41.5869 -15.18708,-0.1233 -27.90208,1.65002 -37.19487,-5.35228 -23.21033,-24.16722 -0.31801,-30.20271 12.56529,-29.70619 12.41938,-2.28695 71.42766,-0.82539 82.87194,0.2077 2.92491,-6.54883 4.55136,-23.68928 5.32294,-27.2263 -27.53211,-0.69453 -91.36694,15.38657 -90.70937,-11.71501 4.36893,-11.79231 13.10957,-19.44771 28.11594,-19.36786 38.6727,1.78038 52.70302,-1.05796 63.83705,-3.16129 0.46389,-16.95336 4.10432,-39.32652 -8.74162,-53.8047 -2.60199,-19.61397 -4.15967,-26.87684 6.05234,-26.87684 12.24499,0 28.81499,11.90903 41.64998,29.93402 8.247,11.582 8.423,13.276 2.286,22.03701 -7.4204,12.97714 -7.79918,17.50451 -3.53478,31.32676 20.90916,1.83734 12.77918,2.75428 38.23442,0.94117 27.74792,-21.13395 55.41825,8.20663 55.86328,15.16308 0.64159,10.0285 -18.97213,12.2075 -39.58414,13.1935 -31.15565,2.52066 -21.32056,-0.67199 -54.41344,1.50384 -2.1417,5.72812 -2.47931,22.34598 -4.03709,28.41539 30.45252,6.5333 59.96019,3.72133 71.49448,2.68695 30.091,-20.98286 84.2365,29.86335 28.58756,31.90889 -26.42213,2.97339 -90.07903,-7.59618 -160.04221,-4.34874 -14.89291,19.72584 -5.74294,27.63048 -2.11873,24.79142 9.375,-1.714 32.50466,-11.4446 49.13165,-11.98361 28.26799,-0.91699 30.69501,-0.27199 37.38399,9.93701 7.00302,10.68799 6.83202,11.27299 -8.134,27.83799 -18.72,20.72001 15.05616,27.44619 15.05616,49.59819 0,14.27 -3.15499,20.09102 -21.274,39.24901 -11.70098,12.37199 -64.57513,38.83479 -64.57513,40.36479 0,5.95201 29.67499,2.35001 48.21997,-5.85401 22.935,-10.14499 37.502,-7.96099 49.616,7.43903 10.58201,13.45299 5.42602,24.90199 -15.07198,33.46599 -15.593,6.51499 -66.60399,7.45101 -91.172,1.67201 z m 50.90317,-114.2088 c -1.54001,-10.81598 -21.39999,-15.21298 -31.36301,-6.945 -8.866,7.35801 -7.61798,11.49699 5.54601,18.39399 14.74501,7.72501 27.72798,1.96802 25.81798,-11.45 z"
         fill="#340000"
         id="path931"
         style="fill:#980000;fill-opacity:1;stroke-width:1"
         sodipodi:nodetypes="cscccccccccccccccsscccsccccccccssssscccccccccc" /></clipPath><filter
       id="C-3"
       x="-0.01110353"
       y="-0.011243256"
       width="1.0222071"
       height="1.0224865"
       class="B"><feGaussianBlur
         stdDeviation="2.441"
         id="feGaussianBlur299" /></filter><filter
       id="E-5"
       x="-0.026998005"
       y="-0.026998101"
       width="1.053996"
       height="1.0539962"
       class="B"><feGaussianBlur
         stdDeviation="3.099"
         id="feGaussianBlur302" /></filter><filter
       id="G-7"
       x="-0.045670161"
       y="-0.050583377"
       width="1.0913403"
       height="1.1011668"
       class="B"><feGaussianBlur
         stdDeviation="8.17"
         id="feGaussianBlur305" /></filter><filter
       id="H-0"
       x="-0.058916157"
       y="-0.081817239"
       width="1.1178323"
       height="1.1636345"
       class="B"><feGaussianBlur
         stdDeviation=".383"
         id="feGaussianBlur308" /></filter><filter
       id="I-3"
       x="-0.068492297"
       y="-0.08170532"
       width="1.1369846"
       height="1.1634106"
       class="B"><feGaussianBlur
         stdDeviation=".383"
         id="feGaussianBlur311" /></filter><linearGradient
       id="B-8"
       x1="-899.905"
       y1="-344.262"
       x2="-899.906"
       y2="125.211"
       gradientUnits="userSpaceOnUse"
       gradientTransform="matrix(2.0051,0,0,2.0051,1483.9022,999.37877)"><stop
         offset=".6"
         stop-color="#fff"
         id="stop325" /><stop
         offset="1"
         id="stop327" /></linearGradient><clipPath
       id="D"><path
         d="M1799.132 1043.253a7.22 7.22 0 0 0-7.237 7.237v107.141l-75.759-75.759a7.222 7.222 0 0 0-10.237 0l-3.45 3.45a7.222 7.222 0 0 0 0 10.237l75.759 75.759h-107.141a7.223 7.223 0 0 0-7.237 7.24v4.876c0 4.01 3.227 7.24 7.237 7.24h120.828v120.828a7.22 7.22 0 0 0 7.237 7.237h4.88c4.01 0 7.24-3.227 7.24-7.237v-120.828h120.825c4.01 0 7.24-3.23 7.24-7.24v-4.876c0-4.01-3.23-7.24-7.24-7.24h-107.138l75.759-75.759a7.222 7.222 0 0 0 0-10.237l-3.45-3.45a7.222 7.222 0 0 0-10.237 0l-75.759 75.759V1050.49c0-4.01-3.23-7.237-7.24-7.237zm2.438 137.74h.01v.01h-.01z"
         stroke-width="1.534"
         id="path330" /></clipPath><clipPath
       id="F-9"><path
         d="M737.858 781.757c-10.629-2.175-63.042 1.075-116.048 2.116-64.616 1.269-98.448.172-102.665-3.329-6.793-5.638-8.356-27.294-2.593-35.925 8.164-12.227 22.574-8.885 55.997-4.712 18.6 2.322 37.233-3.065 40.554-4.312 11.416-4.285 6.001-11.797-15.294-21.217-22.914-10.136-39.445-29.886-34.909-41.707 4.225-11.009 19.365-8.747 32.086 4.794 12.148 12.931 24.115 15.914 24.222 6.039.036-3.322 1.34-10.792 2.898-16.6 2.461-9.176.393-11.004-15.768-13.939-28.885-5.246-54.835-20.063-54.835-31.309 0-13.187 10.803-16.362 27.344-8.037 23.035 11.594 43.823 13.819 47.188 5.05 3.746-9.763-5.399-20.92-17.147-20.92-4.989 0-13.449-4.378-18.8-9.729l-9.729-9.729-30.97 26.273c-17.034 14.45-64.661 60.778-75.051 67.978-17.92 12.418-29.121 13.027-29.121 1.583 0-2.852 22.811-29.645 50.692-59.538 118.93-127.517 144.907-165.914 139.554-206.271-2.954-22.271-2.616-23.144 8.979-23.144 13.904 0 32.719 13.523 47.292 33.989 9.364 13.151 9.564 15.075 2.596 25.023-11.059 15.789-9.909 19.679 16.531 55.917 31.116 42.647 98.827 100.579 129.312 110.636 24.66 8.136 39.003 18.469 33.406 24.066-1.905 1.905-22.613 4.38-46.017 5.499l-42.553 2.034-27.908-31.592c-15.35-17.375-36.395-43.17-46.768-57.32-31.023-42.322-48.432-62.536-52.534-60.999-7.311 2.74-57.583 70.291-54.56 73.314 1.662 1.662 8.064 3.022 14.226 3.022s20.801 2.567 32.53 5.704c18.256 4.883 23.11 4.535 33.718-2.416 14.945-9.792 24.24-10.291 31.384-1.684 7.223 8.703-2.566 21.692-23.96 31.794-26.631 12.574-21.611 22.472 10.425 20.556 20.06-1.2 28.464.329 33.203 6.039 10.22 12.314-1.471 20.839-33.707 24.58l-28.769 3.339v16.316c0 15.517.606 16.085 12.393 11.604 30.459-11.58 56.343.389 44.933 20.777-6.908 12.344-29.935 22.998-38.286 17.714-12.072-7.638-23.871-5.221-23.871 4.891 0 10.597 17.376 17.437 51.236 13.459 61.177-7.187 72.911 32.804 47.759 42.456-4.203 1.613-8.008 2.683-8.455 2.377s-9.509-2.335-20.138-4.51z"
         stroke-width="4.831"
         id="path333" /></clipPath></defs><path
     d="m-2728.669 264.709 28.198 35.189h455.354l10.087-9.413-98.043-493.462-31.462-17.601z"
     transform="matrix(-2.0051 0 0 2.0051 -4364.078 816.662)"
     opacity=".5"
     filter="url(#C)"
     id="path47" /><use
     xlink:href="#E"
     fill="url(#A)"
     transform="translate(3097.382 831.934) scale(2.0051)"
     id="use49" /><use
     xlink:href="#E"
     x="315.666"
     y="-40.204"
     opacity=".25"
     fill="url(#B)"
     transform="translate(2464.43 912.55) scale(2.0051)"
     style="mix-blend-mode:overlay"
     id="use51" /><path
     d="m1099.874 1261.697-.043 21.064 20.75-16.013-20.707-5.052z"
     opacity=".8"
     fill="#fff"
     id="path53" /><path
     d="m1120.582 1266.748-20.75 16.013-12.661 74.524 20.099-16.719 13.312-73.818z"
     opacity=".6"
     id="path55" /><g
     fill="#fff"
     id="g61"><path
       d="m359.469 319.303 17.664 13.248L660 254.157v-16.402zM960.531 319.303l-17.664 13.248L660 254.157v-16.402z"
       opacity=".3"
       id="path57" /><path
       d="m960.531 319.303-17.664 13.248 157.007 929.146 20.707 5.052z"
       opacity=".3"
       id="path59" /></g><path
     d="m359.469 319.303 17.664 13.248-157.007 929.146-20.707 5.052z"
     opacity=".4"
     id="path63" /><path
     d="m199.419 1266.748 20.75 16.013 12.661 74.524-20.099-16.719-13.312-73.818z"
     opacity=".9"
     id="path65" /><path
     d="m220.126 1261.697.043 21.064-20.75-16.013 20.707-5.052z"
     opacity=".6"
     id="path67" /><path
     d="M220.126 1261.697h879.749l-.043 21.064H220.169l-.043-21.064z"
     opacity=".2"
     id="path69" /><path
     d="m1099.831 1282.761-12.661 74.524H232.829l-12.661-74.524h879.663z"
     opacity=".7"
     id="path71" /><path
     d="M656.509 812.898a10.53 10.53 0 0 0-10.554 10.554v156.244l-110.479-110.48a10.533 10.533 0 0 0-14.928 0l-5.032 5.032a10.533 10.533 0 0 0 0 14.928l110.479 110.479H469.751a10.533 10.533 0 0 0-10.554 10.559v7.111a10.533 10.533 0 0 0 10.554 10.559h176.204v176.204a10.53 10.53 0 0 0 10.554 10.554h7.116a10.532 10.532 0 0 0 10.558-10.554v-176.204h176.199a10.54 10.54 0 0 0 10.559-10.559v-7.111a10.54 10.54 0 0 0-10.559-10.559H694.143l110.479-110.479a10.533 10.533 0 0 0 0-14.928l-5.032-5.032a10.533 10.533 0 0 0-14.928 0l-110.479 110.48V823.452c0-5.848-4.71-10.554-10.558-10.554zm3.555 200.867h.015v.015h-.015z"
     fill="#300"
     id="path73" /><path
     d="M1789.451 1052.935a7.22 7.22 0 0 0-7.237 7.237v107.141l-75.759-75.759a7.222 7.222 0 0 0-10.237 0l-3.45 3.45a7.222 7.222 0 0 0 0 10.237l75.759 75.759h-107.141a7.223 7.223 0 0 0-7.237 7.24v4.876c0 4.01 3.227 7.24 7.237 7.24h120.828v120.828a7.22 7.22 0 0 0 7.237 7.237h4.88c4.01 0 7.24-3.227 7.24-7.237v-120.828h120.825c4.01 0 7.24-3.23 7.24-7.24v-4.876c0-4.01-3.23-7.24-7.24-7.24h-107.138l75.759-75.759a7.222 7.222 0 0 0 0-10.237l-3.45-3.45a7.222 7.222 0 0 0-10.237 0l-75.759 75.759v-107.141c0-4.01-3.23-7.237-7.24-7.237zm2.438 137.74h.01v.01h-.01z"
     clip-path="url(#F)"
     fill="#9b0000"
     filter="url(#G)"
     transform="translate(-1967.166 -708.478) scale(1.4583)"
     id="path75" /><path
     d="m 619.86499,786.67199 c -22.29799,-5.24401 -51.71247,-27.97552 -23.66376,-51.48033 6.63445,-5.55966 40.75132,-20.80733 28.6383,-25.24433 -27.321,-10.009 -39.17636,-30.64813 -31.46538,-52.57613 4.89101,-13.907 35.28702,-25.87301 69.015,-27.16799 25.61899,-0.98401 -13.01114,11.1638 -12.90814,-4.05722 0.077,-11.29699 -2.43401,-11.65098 -22.68002,-3.19098 -22.09299,9.23099 -30.41998,8.00899 -47.48099,-6.971 -8.06318,-20.9293 2.048,-27.17662 4.85637,-41.5869 -15.18708,-0.1233 -27.90208,1.65002 -37.19487,-5.35228 -23.21033,-24.16722 -0.31801,-30.20271 12.56529,-29.70619 12.41938,-2.28695 71.42766,-0.82539 82.87194,0.2077 2.92491,-6.54883 4.55136,-23.68928 5.32294,-27.2263 -27.53211,-0.69453 -91.36694,15.38657 -90.70937,-11.71501 4.36893,-11.79231 13.10957,-19.44771 28.11594,-19.36786 38.6727,1.78038 52.70302,-1.05796 63.83705,-3.16129 0.46389,-16.95336 4.10432,-39.32652 -8.74162,-53.8047 -2.60199,-19.61397 -4.15967,-26.87684 6.05234,-26.87684 12.24499,0 28.81499,11.90903 41.64998,29.93402 8.247,11.582 8.423,13.276 2.286,22.03701 -7.4204,12.97714 -7.79918,17.50451 -3.53478,31.32676 20.90916,1.83734 12.77918,2.75428 38.23442,0.94117 27.74792,-21.13395 55.41825,8.20663 55.86328,15.16308 0.64159,10.0285 -18.97213,12.2075 -39.58414,13.1935 -31.15565,2.52066 -21.32056,-0.67199 -54.41344,1.50384 -2.1417,5.72812 -2.47931,22.34598 -4.03709,28.41539 30.45252,6.5333 59.96019,3.72133 71.49448,2.68695 30.091,-20.98286 84.2365,29.86335 28.58756,31.90889 -26.42213,2.97339 -90.07903,-7.59618 -160.04221,-4.34874 -14.89291,19.72584 -5.74294,27.63048 -2.11873,24.79142 9.375,-1.714 32.50466,-11.4446 49.13165,-11.98361 28.26799,-0.91699 30.69501,-0.27199 37.38399,9.93701 7.00302,10.68799 6.83202,11.27299 -8.134,27.83799 -18.72,20.72001 15.05616,27.44619 15.05616,49.59819 0,14.27 -3.15499,20.09102 -21.274,39.24901 -11.70098,12.37199 -64.57513,38.83479 -64.57513,40.36479 0,5.95201 29.67499,2.35001 48.21997,-5.85401 22.935,-10.14499 37.502,-7.96099 49.616,7.43903 10.58201,13.45299 5.42602,24.90199 -15.07198,33.46599 -15.593,6.51499 -66.60399,7.45101 -91.172,1.67201 z m 50.90317,-114.2088 c -1.54001,-10.81598 -21.39999,-15.21298 -31.36301,-6.945 -8.866,7.35801 -7.61798,11.49699 5.54601,18.39399 14.74501,7.72501 27.72798,1.96802 25.81798,-11.45 z"
     fill="#340000"
     id="path975-0"
     style="fill:#320000;fill-opacity:1;stroke-width:1"
     sodipodi:nodetypes="cscccccccccccccccsscccsccccccccssssscccccccccc" /><path
     d="m 619.865,786.672 c -22.298,-5.244 -51.71249,-27.97553 -23.66377,-51.48033 6.63444,-5.55965 40.75131,-20.80733 28.63831,-25.24433 -27.321,-10.009 -39.17638,-30.64814 -31.46538,-52.57614 4.891,-13.907 35.287,-25.873 69.015,-27.168 25.619,-0.984 -13.01116,11.1638 -12.90816,-4.0572 0.077,-11.297 -2.434,-11.651 -22.68,-3.191 -22.093,9.231 -30.42,8.009 -47.481,-6.971 -8.06317,-20.92928 2.04801,-27.1766 4.85638,-41.58689 -15.18708,-0.12319 -27.90209,1.65001 -37.19488,-5.35227 -23.21032,-24.16723 -0.318,-30.20272 12.56529,-29.70619 12.41938,-2.28696 71.42765,-0.82541 82.87193,0.20765 2.92492,-6.54881 4.55136,-23.68925 5.32296,-27.22628 -27.53212,-0.69453 -91.36696,15.38655 -90.70938,-11.71502 4.36892,-11.79231 13.10957,-19.44772 28.11593,-19.36785 38.6727,1.78037 52.70303,-1.05798 63.83705,-3.16129 0.46391,-16.95336 4.10434,-39.32651 -8.74161,-53.80469 -2.602,-19.614 -4.15967,-26.87684 6.05233,-26.87684 12.245,0 28.815,11.909 41.65,29.934 8.247,11.582 8.423,13.276 2.286,22.037 -7.42041,12.97717 -7.79917,17.50453 -3.53478,31.32676 20.90916,1.83736 12.77917,2.75429 38.23442,0.94119 27.74792,-21.13396 55.41824,8.20664 55.86329,15.16307 0.64158,10.02851 -18.97214,12.20751 -39.58414,13.19351 -31.15567,2.52065 -21.32057,-0.672 -54.41346,1.50382 -2.14169,5.72813 -2.4793,22.34599 -4.03708,28.41539 30.45251,6.53332 59.9602,3.72134 71.49449,2.68696 30.09099,-20.98286 84.23649,29.86336 28.58756,31.9089 -26.42214,2.97338 -90.07904,-7.59618 -160.04222,-4.34876 -14.89293,19.72586 -5.74294,27.6305 -2.11875,24.79143 9.375,-1.714 32.50467,-11.4446 49.13167,-11.9836 28.268,-0.917 30.695,-0.272 37.384,9.937 7.003,10.688 6.832,11.273 -8.134,27.838 -18.72,20.72 15.05616,27.4462 15.05616,49.5982 0,14.27 -3.155,20.091 -21.274,39.249 -11.701,12.372 -64.57516,38.8348 -64.57516,40.3648 0,5.952 29.675,2.35 48.22,-5.854 22.935,-10.145 37.502,-7.961 49.616,7.439 10.582,13.453 5.426,24.902 -15.072,33.466 -15.593,6.515 -66.604,7.451 -91.172,1.672 z m 50.90316,-114.2088 c -1.54,-10.816 -21.4,-15.213 -31.363,-6.945 -8.866,7.358 -7.618,11.497 5.546,18.394 14.745,7.725 27.728,1.968 25.818,-11.45 z"
     fill="#340000"
     id="path77"
     style="fill:#980000;fill-opacity:1;filter:url(#filter1892)"
     sodipodi:nodetypes="cscccccccccccccccsscccsccccccccssssscccccccccc"
     clip-path="url(#clipPath929)" /><path
     d="m 571.989,713.923 c 7.392,1.747 15.094,-2.582 16.676,-6.786 1.582,-4.204 -2.961,-8.285 -10.354,-10.035 -7.393,-1.75 -17.636,-1.166 -19.217,3.041 -1.581,4.207 5.503,12.033 12.895,13.78 z"
     transform="matrix(-0.59971183,-0.21827726,0.21827726,-0.59971183,797.61737,1319.2708)"
     filter="url(#K)"
     id="path81"
     style="fill:#ffffff" /><path
     d="m 613.228,773.25 c 0.949,-2.829 2.848,-8.489 -0.157,-13.444 -3.005,-4.955 -10.92,-9.207 -14.881,-7.612 -3.961,1.595 -3.967,9.035 -0.958,13.99 3.009,4.955 9.029,7.426 12.037,8.661 3.008,1.235 3.009,1.235 3.959,-1.594 z"
     transform="matrix(0.8313,0,0,0.8313,102.08629,47.100355)"
     filter="url(#L)"
     id="path83"
     style="fill:#ffffff" /><path
     d="m 649.7228,426.60592 c 4.261,-0.105 9.565,-2.442 9.566,-5.586 10e-4,-3.144 -5.303,-7.1 -9.567,-6.997 -4.264,0.103 -7.482,4.264 -7.481,7.411 10e-4,3.147 3.221,5.277 7.482,5.172 z"
     filter="url(#J)"
     id="path85"
     style="fill:#ffffff" /><style
     id="style297">.B{color-interpolation-filters:sRGB}</style></svg>
