<?xml version="1.0" encoding="UTF-8" standalone="no"?>
<svg
   width="498.898"
   height="544.252"
   viewBox="0 0 1320 1440"
   version="1.1"
   id="svg83"
   sodipodi:docname="w+O.svg"
   xml:space="preserve"
   inkscape:version="1.2.2 (732a01da63, 2022-12-09)"
   xmlns:inkscape="http://www.inkscape.org/namespaces/inkscape"
   xmlns:sodipodi="http://sodipodi.sourceforge.net/DTD/sodipodi-0.dtd"
   xmlns="http://www.w3.org/2000/svg"
   xmlns:svg="http://www.w3.org/2000/svg"><sodipodi:namedview
     id="namedview85"
     pagecolor="#ffffff"
     bordercolor="#000000"
     borderopacity="0.25"
     inkscape:showpageshadow="2"
     inkscape:pageopacity="0.0"
     inkscape:pagecheckerboard="0"
     inkscape:deskcolor="#d1d1d1"
     showgrid="false"
     inkscape:zoom="2.0164"
     inkscape:cx="130.1825"
     inkscape:cy="312.93394"
     inkscape:window-width="1920"
     inkscape:window-height="974"
     inkscape:window-x="-11"
     inkscape:window-y="-11"
     inkscape:window-maximized="1"
     inkscape:current-layer="svg83" /><style
     id="style2">.B{color-interpolation-filters:sRGB}</style><defs
     id="defs41"><filter
       id="C"
       x="-0.012394769"
       y="-0.012013239"
       width="1.0247895"
       height="1.0240265"><feGaussianBlur
         stdDeviation="2.441"
         id="feGaussianBlur4" /></filter><filter
       id="E"
       x="-0.026998005"
       y="-0.026998101"
       width="1.053996"
       height="1.0539962"
       class="B"><feGaussianBlur
         stdDeviation="3.099"
         id="feGaussianBlur7" /></filter><filter
       id="G"
       x="-0.058025685"
       y="-0.04092232"
       width="1.1160514"
       height="1.0818446"
       class="B"><feGaussianBlur
         stdDeviation="3.543"
         id="feGaussianBlur10" /></filter><filter
       id="H"
       x="-0.093793037"
       y="-0.15286111"
       width="1.1875861"
       height="1.3057222"
       class="B"><feGaussianBlur
         stdDeviation=".9"
         id="feGaussianBlur13" /></filter><filter
       id="I"
       x="-0.065162517"
       y="-0.067338683"
       width="1.130325"
       height="1.1346774"
       class="B"><feGaussianBlur
         stdDeviation=".9"
         id="feGaussianBlur16" /></filter><linearGradient
       id="A"
       x1="228.547"
       y1="805.748"
       x2="270.281"
       y2="805.748"
       spreadMethod="reflect"
       gradientUnits="userSpaceOnUse"><stop
         offset="0"
         stop-color="#ffd285"
         id="stop19" /><stop
         offset=".232"
         stop-color="#ffcd79"
         id="stop21" /><stop
         offset=".616"
         stop-color="#ffca73"
         id="stop23" /><stop
         offset=".808"
         stop-color="#ffd386"
         id="stop25" /><stop
         offset="1"
         stop-color="#ffc86e"
         id="stop27" /></linearGradient><linearGradient
       id="B"
       x1="660.031"
       y1="318.739"
       x2="660.029"
       y2="1292.759"
       gradientUnits="userSpaceOnUse"><stop
         offset=".604"
         stop-color="#fff"
         id="stop30" /><stop
         offset="1"
         id="stop32" /></linearGradient><clipPath
       id="D"><path
         d="M1799.132 1043.253a7.22 7.22 0 0 0-7.237 7.237v107.141l-75.759-75.759a7.222 7.222 0 0 0-10.237 0l-3.45 3.45a7.222 7.222 0 0 0 0 10.237l75.759 75.759h-107.141a7.223 7.223 0 0 0-7.237 7.24v4.876c0 4.01 3.227 7.24 7.237 7.24h120.828v120.828a7.22 7.22 0 0 0 7.237 7.237h4.88c4.01 0 7.24-3.227 7.24-7.237v-120.828h120.825c4.01 0 7.24-3.23 7.24-7.24v-4.876c0-4.01-3.23-7.24-7.24-7.24h-107.138l75.759-75.759a7.222 7.222 0 0 0 0-10.237l-3.45-3.45a7.222 7.222 0 0 0-10.237 0l-75.759 75.759V1050.49c0-4.01-3.23-7.237-7.24-7.237zm2.438 137.74h.01v.01h-.01z"
         stroke-width="1.534"
         id="path35" /></clipPath><clipPath
       id="F"><path
         d="M982.397 347.79c-5.318-1.999-15.307-9.799-22.198-17.332-11.647-12.733-12.529-14.865-12.529-30.288 0-13.47 1.499-18.527 7.967-26.882 12.203-15.764 22.463-24.326 42.838-35.749l18.655-10.459-2.595-15.114c-1.427-8.313-4.779-23.864-7.45-34.559-4.612-18.474-5.426-15.573-12.474-18.186-11.903-4.414-12.257-5.303.606-16.686 11.268-9.971 26.614-16.976 30.27-13.817.985.851 1.971 12.958 2.191 26.904s1.253 33.888 2.296 44.315l1.896 18.959 18.371-7.607c21.637-8.959 26.026-9.473 26.026-3.051 0 2.806-7.331 9.239-17.804 15.621-25.142 15.321-66.454 49.521-70.818 58.625-5.762 12.021-6.054 25.28 3.9 31.668 11.08 7.11 33.452 10.552 65.71-2.216 35.013-13.859 49.631-5.427 49.631 11.723 0 11.818-14.309 17.551-59.937 24.013-33.845 4.793-52.032 4.827-64.552.12z"
         stroke-width="2.846"
         id="path38" /></clipPath><filter
       inkscape:menu-tooltip="In and out glow with a possible offset and colorizable flood"
       inkscape:menu="Shadows and Glows"
       inkscape:label="Cutout Glow"
       style="color-interpolation-filters:sRGB;"
       id="filter1086"
       x="-0.045044294"
       y="-0.021777064"
       width="1.0639"
       height="1.0738001"><feOffset
         dy="10"
         dx="-10"
         id="feOffset1076" /><feGaussianBlur
         stdDeviation="3"
         result="blur"
         id="feGaussianBlur1078" /><feFlood
         flood-color="rgb(0,0,0)"
         flood-opacity="0"
         result="flood"
         id="feFlood1080" /><feComposite
         in="flood"
         in2="SourceGraphic"
         operator="in"
         result="composite"
         id="feComposite1082" /><feBlend
         in="blur"
         in2="composite"
         mode="normal"
         id="feBlend1084" /></filter><filter
       inkscape:menu-tooltip="In and out glow with a possible offset and colorizable flood"
       inkscape:menu="Shadows and Glows"
       inkscape:label="Cutout Glow"
       style="color-interpolation-filters:sRGB"
       id="filter1086-9"
       x="-0.045044294"
       y="-0.021777064"
       width="1.0639"
       height="1.0738001"><feOffset
         dy="10"
         dx="-10"
         id="feOffset1076-9" /><feGaussianBlur
         stdDeviation="3"
         result="blur"
         id="feGaussianBlur1078-4" /><feFlood
         flood-color="rgb(0,0,0)"
         flood-opacity="1"
         result="flood"
         id="feFlood1080-9" /><feComposite
         in="flood"
         in2="SourceGraphic"
         operator="in"
         result="composite"
         id="feComposite1082-2" /><feBlend
         in="blur"
         in2="composite"
         mode="normal"
         id="feBlend1084-9" /></filter><filter
       id="C-8"
       x="-0.012394769"
       y="-0.012013239"
       width="1.0247895"
       height="1.0240265"><feGaussianBlur
         stdDeviation="2.441"
         id="feGaussianBlur1147" /></filter><filter
       id="E-7"
       x="-0.026998005"
       y="-0.026998101"
       width="1.053996"
       height="1.0539962"
       class="B"><feGaussianBlur
         stdDeviation="3.099"
         id="feGaussianBlur1150" /></filter><filter
       id="G-9"
       x="-0.058025685"
       y="-0.04092232"
       width="1.1160514"
       height="1.0818446"
       class="B"><feGaussianBlur
         stdDeviation="3.543"
         id="feGaussianBlur1153" /></filter><filter
       id="H-7"
       x="-0.093793037"
       y="-0.15286111"
       width="1.1875861"
       height="1.3057222"
       class="B"><feGaussianBlur
         stdDeviation=".9"
         id="feGaussianBlur1156" /></filter><filter
       id="I-7"
       x="-0.065162517"
       y="-0.067338683"
       width="1.130325"
       height="1.1346774"
       class="B"><feGaussianBlur
         stdDeviation=".9"
         id="feGaussianBlur1159" /></filter><clipPath
       id="D-9"><path
         d="M1799.132 1043.253a7.22 7.22 0 0 0-7.237 7.237v107.141l-75.759-75.759a7.222 7.222 0 0 0-10.237 0l-3.45 3.45a7.222 7.222 0 0 0 0 10.237l75.759 75.759h-107.141a7.223 7.223 0 0 0-7.237 7.24v4.876c0 4.01 3.227 7.24 7.237 7.24h120.828v120.828a7.22 7.22 0 0 0 7.237 7.237h4.88c4.01 0 7.24-3.227 7.24-7.237v-120.828h120.825c4.01 0 7.24-3.23 7.24-7.24v-4.876c0-4.01-3.23-7.24-7.24-7.24h-107.138l75.759-75.759a7.222 7.222 0 0 0 0-10.237l-3.45-3.45a7.222 7.222 0 0 0-10.237 0l-75.759 75.759V1050.49c0-4.01-3.23-7.237-7.24-7.237zm2.438 137.74h.01v.01h-.01z"
         stroke-width="1.534"
         id="path1178" /></clipPath><clipPath
       id="F-5"><path
         d="M982.397 347.79c-5.318-1.999-15.307-9.799-22.198-17.332-11.647-12.733-12.529-14.865-12.529-30.288 0-13.47 1.499-18.527 7.967-26.882 12.203-15.764 22.463-24.326 42.838-35.749l18.655-10.459-2.595-15.114c-1.427-8.313-4.779-23.864-7.45-34.559-4.612-18.474-5.426-15.573-12.474-18.186-11.903-4.414-12.257-5.303.606-16.686 11.268-9.971 26.614-16.976 30.27-13.817.985.851 1.971 12.958 2.191 26.904s1.253 33.888 2.296 44.315l1.896 18.959 18.371-7.607c21.637-8.959 26.026-9.473 26.026-3.051 0 2.806-7.331 9.239-17.804 15.621-25.142 15.321-66.454 49.521-70.818 58.625-5.762 12.021-6.054 25.28 3.9 31.668 11.08 7.11 33.452 10.552 65.71-2.216 35.013-13.859 49.631-5.427 49.631 11.723 0 11.818-14.309 17.551-59.937 24.013-33.845 4.793-52.032 4.827-64.552.12z"
         stroke-width="2.846"
         id="path1181" /></clipPath><filter
       id="C-80"
       x="-0.011867782"
       y="-0.011476842"
       width="1.0237356"
       height="1.0229537"
       class="B"><feGaussianBlur
         stdDeviation="2.441"
         id="feGaussianBlur1299" /></filter><filter
       id="F-7"
       x="-0.026998005"
       y="-0.026998101"
       width="1.053996"
       height="1.0539962"
       class="B"><feGaussianBlur
         stdDeviation="3.099"
         id="feGaussianBlur1302" /></filter><filter
       id="H-6"
       x="-0.054099383"
       y="-0.043132638"
       width="1.1081988"
       height="1.0862653"
       class="B"><feGaussianBlur
         stdDeviation="6.865"
         id="feGaussianBlur1305" /></filter><filter
       id="I-0"
       x="-0.11756318"
       y="-0.13445413"
       width="1.2351264"
       height="1.2689083"
       class="B"><feGaussianBlur
         stdDeviation=".752"
         id="feGaussianBlur1308" /></filter><filter
       id="J"
       x="-0.11640657"
       y="-0.11240574"
       width="1.2328131"
       height="1.2248115"
       class="B"><feGaussianBlur
         stdDeviation=".752"
         id="feGaussianBlur1311" /></filter><filter
       id="K"
       x="-0.073890737"
       y="-0.072547729"
       width="1.1477815"
       height="1.1450955"
       class="B"><feGaussianBlur
         stdDeviation=".752"
         id="feGaussianBlur1314" /></filter><linearGradient
       id="A-5"
       x1="-1430.769"
       y1="-77.47"
       x2="-1409.955"
       y2="-77.47"
       spreadMethod="reflect"
       gradientUnits="userSpaceOnUse"
       gradientTransform="matrix(2.0051,0,0,2.0051,4291.9272,498.95294)"><stop
         offset="0"
         stop-color="#ffd285"
         id="stop1317" /><stop
         offset=".232"
         stop-color="#ffcd79"
         id="stop1319" /><stop
         offset=".616"
         stop-color="#ffca73"
         id="stop1321" /><stop
         offset=".808"
         stop-color="#ffd386"
         id="stop1323" /><stop
         offset="1"
         stop-color="#ffc86e"
         id="stop1325" /></linearGradient><linearGradient
       id="B-1"
       x1="-899.903"
       y1="-319.311"
       x2="-899.906"
       y2="125.211"
       gradientUnits="userSpaceOnUse"
       gradientTransform="matrix(2.0051,0,0,2.0051,3658.9752,579.56894)"><stop
         offset=".599"
         stop-color="#fff"
         id="stop1328" /><stop
         offset="1"
         id="stop1330" /></linearGradient><clipPath
       id="E-4"><path
         d="M1799.132 1043.253a7.22 7.22 0 0 0-7.237 7.237v107.141l-75.759-75.759a7.222 7.222 0 0 0-10.237 0l-3.45 3.45a7.222 7.222 0 0 0 0 10.237l75.759 75.759h-107.141a7.223 7.223 0 0 0-7.237 7.24v4.876c0 4.01 3.227 7.24 7.237 7.24h120.828v120.828a7.22 7.22 0 0 0 7.237 7.237h4.88c4.01 0 7.24-3.227 7.24-7.237v-120.828h120.825c4.01 0 7.24-3.23 7.24-7.24v-4.876c0-4.01-3.23-7.24-7.24-7.24h-107.138l75.759-75.759a7.222 7.222 0 0 0 0-10.237l-3.45-3.45a7.222 7.222 0 0 0-10.237 0l-75.759 75.759V1050.49c0-4.01-3.23-7.237-7.24-7.237zm2.438 137.74h.01v.01h-.01z"
         stroke-width="1.534"
         id="path1333" /></clipPath><clipPath
       id="G-2"><path
         d="M-411.433 790.134c-11.021-2.958-21.272-8.696-26.598-14.887-7.655-8.899-8.397-12.354-6.367-29.629 2.834-24.114 4.579-27.41 25.249-47.685 18.932-18.572 20.272-23.769 7.612-29.537-4.954-2.257-12.301-9.129-16.327-15.27s-12.972-19.272-19.882-29.18-12.562-22.451-12.562-27.873c0-12.193 6.929-10.448 15.39 3.876 6.943 11.753 36.883 40.206 42.308 40.206 2.223 0 3.692-12.109 3.692-30.435v-30.435l-20.764-2.333c-11.42-1.283-26.835-4.628-34.255-7.433-12.799-4.838-13.751-4.685-18.556 2.976-2.786 4.442-6.987 14.138-9.336 21.547-3.628 11.446-6.482 14.067-18.976 17.432-11.01 2.965-15.36 2.9-17.312-.259-2.627-4.25 7.777-29.62 16.268-39.673 2.517-2.979 5.769-9.479 7.227-14.445 4.14-14.093 19.516-32.5 27.148-32.5 7.41 0 16.092 12.377 12.622 17.992-3.158 5.109 24.989 18.12 39.201 18.12 11.102 0 12.225-.877 10.407-8.125-1.121-4.469-8.281-16.921-15.912-27.672-10.91-15.37-13.874-22.864-13.874-35.073 0-14.055 9.673-47.851 18.166-63.468 2.345-4.313 1.623-7.859-2.426-11.908-7.688-7.688-3.984-10.685 6.521-5.274 13.656 7.035 28.296 22.347 28.296 29.596 0 3.699-2.504 11.568-5.564 17.486s-4.707 12.148-3.659 13.843 11.271 4.177 22.717 5.514c31.983 3.735 43.755 8.581 49.95 20.562 11.164 21.588-4.342 37.36-33.283 33.855-24.458-2.962-29.87 1.415-19.594 15.847 4.389 6.164 9.46 11.207 11.269 11.207s15.847-4.216 31.195-9.368c23.024-7.729 33.043-9.15 57.265-8.125 25.102 1.063 31.468 2.705 43.905 11.327 8.97 6.218 16.656 15.454 20.048 24.09 5.198 13.234 5.076 14.608-2.221 24.926-5.85 8.272-14.479 13.158-35.583 20.147-15.323 5.075-31.221 9.227-35.329 9.227-12.238 0-43.07-17.513-61.993-35.214-10.324-9.657-18.965-15.171-20.744-13.238-1.678 1.822-3.909 19.969-4.958 40.327l-1.908 37.014h11.884c6.536 0 20.154-2.671 30.262-5.936 14.933-4.823 19.411-5.078 23.887-1.363 8.214 6.817 6.672 19.596-3.604 29.872-9.471 9.471-37.694 18.689-48.099 15.71-6.925-1.983-28.26 22.503-31.761 36.451-3.636 14.488 3.436 17.567 20.237 8.809 18.352-9.566 22.037-9.59 33.943-.225 17.672 13.901 10.998 36.647-14.623 49.843-10.368 5.34-38.211 4.771-60.601-1.238zm159.366-191.568c11.278-7.389 7.425-14.167-12.566-22.108-17.813-7.076-56.124-8.258-72.339-2.231-8.387 3.117-8.335 3.255 5.134 13.528 24.079 18.366 60.673 23.326 79.772 10.811zm-103.516-99.247c0-3.972-2.305-7.222-5.121-7.222s-7.332-.848-10.034-1.885c-6.652-2.553-19.087 6.979-15.878 12.171 1.414 2.287 8.975 4.159 16.802 4.159 11.824 0 14.232-1.222 14.232-7.222z"
         stroke-width="3.611"
         id="path1336" /></clipPath><filter
       id="I-0-8"
       x="-0.11756318"
       y="-0.13445413"
       width="1.2351264"
       height="1.2689083"
       class="B"><feGaussianBlur
         stdDeviation=".752"
         id="feGaussianBlur1308-9" /></filter><filter
       id="I-0-0"
       x="-0.11756318"
       y="-0.13445413"
       width="1.2351264"
       height="1.2689083"
       class="B"><feGaussianBlur
         stdDeviation=".752"
         id="feGaussianBlur1308-8" /></filter><clipPath
       clipPathUnits="userSpaceOnUse"
       id="clipPath967"><path
         d="m 852.86198,611.47728 q -2.11664,5.08 -8.04333,6.77333 -5.50333,1.69331 -12.27663,0.84664 -6.35,-1.26997 -10.58333,-3.80997 -11.00667,0 -22.43666,-0.42336 -11.00666,-0.84664 -22.0133,-1.69333 -24.12999,-1.69331 -49.10664,-2.54 -24.97666,-0.84664 -51.64662,2.54 -3.38667,23.28332 -4.23333,46.14331 -0.84667,22.43666 -1.69334,43.17996 -0.42333,20.74332 -4.65666,38.94665 5.50333,0 11.00666,0.84667 5.50333,0.42333 11.42997,0.84666 10.58333,0.84667 21.16666,1.69333 10.58333,0.42334 21.16665,-1.69333 3.38667,-0.84666 6.77334,-3.38666 3.38666,-2.54 7.19666,-2.96334 6.77333,-0.84666 16.08666,1.69334 9.73666,2.54 19.4733,7.61999 10.15999,5.08 17.77999,11.00664 7.62,5.92669 10.58333,11.85333 -8.04333,6.77333 -19.47333,6.77333 -11.00666,-0.42334 -23.28332,-2.11667 -5.07997,-0.84664 -10.5833,-1.27 -5.08,-0.84664 -10.16,-0.84664 -19.89666,-0.84669 -46.14331,-0.84669 -26.24663,-0.42333 -52.91662,1.27 -26.66999,1.69333 -49.10662,6.35 -22.01332,4.23333 -34.28999,13.12332 -17.77999,-4.65666 -28.36329,-17.77999 -10.58333,-13.54663 -19.04999,-30.90329 4.65666,-1.27 8.46666,0.42333 4.23333,1.27 8.04333,3.38667 2.54,1.69333 5.08,2.96333 2.54,1.27 5.50333,1.69333 11.8533,2.11667 24.97663,0.42333 13.12333,-1.69333 27.09332,-4.65666 11.85333,-2.11667 23.2833,-3.81 11.85335,-1.69333 22.85999,-1.27 0,-3.81 -0.42333,-8.04333 -0.42334,-4.65666 -0.84667,-9.31333 -1.27,-12.27666 -2.11667,-24.97663 -0.42333,-13.12335 2.54,-23.70665 -2.54,-1.27 -2.96333,-4.23334 0,-2.96333 0.84667,-7.19666 0,-1.69333 0,-3.38666 0.42333,-1.69334 0.42333,-3.38667 0,-9.73666 -1.27,-19.89666 -0.84667,-10.58333 -0.84667,-19.04999 -28.78662,2.11669 -62.65328,8.46666 -33.44329,5.92667 -62.22994,19.04999 -13.12333,-7.61999 -24.97666,-16.93332 -11.43,-9.31333 -15.23997,-27.51663 5.92664,-5.08 13.54664,-4.65667 8.04333,0 17.35666,1.27 5.07999,0.42334 10.15999,1.27 5.50333,0.42334 11.00666,0 27.93999,-1.69333 58.41995,-6.34999 30.47999,-4.65667 54.18662,-6.35 -0.84667,-7.62 -0.84667,-15.23999 0,-8.04333 0.42334,-16.08666 0.42333,-10.16 0,-20.31997 0,-10.16 -2.11667,-19.04999 -0.42333,-2.54 -2.54,-5.08 -1.69333,-2.96333 -2.11666,-5.50333 0,-0.84667 0.84666,-3.81 0,-1.27 0.42336,-2.54 0.42331,-1.69333 0,-2.54 -0.84669,-2.96333 -2.54002,-5.50333 -1.27,-2.96333 -2.96331,-5.92666 -3.38669,-5.92667 -5.50333,-11.85333 -2.11669,-6.35 3.80997,-12.69997 17.35666,9.31333 34.28999,19.4733 17.35666,9.73666 28.36332,26.24666 -8.89,13.96999 -10.16,33.44329 -0.84666,19.47332 -1.69333,43.17998 8.46666,1.27 17.35666,1.27 8.88997,0 17.77997,-0.42333 3.38666,0 6.34999,0 3.38667,0 6.77334,0 2.53999,0 5.50333,0 2.96333,0 5.50333,0 14.39332,0.42333 27.09332,-0.42334 13.1233,-1.27 20.7433,-9.73666 23.70665,2.54 43.17998,9.73666 19.89663,7.19667 29.20996,27.93999 z"
         id="path969"
         style="font-size:423.333px;font-family:'Yuji Mai';-inkscape-font-specification:'Yuji Mai';fill:#980000;stroke-width:27.7812" /></clipPath></defs><path
     d="m-2713.437 205.288 23.119 34.853h436.247l13.285-11.264-98.703-458.797-31.462-17.601z"
     transform="matrix(-2.0051 0 0 2.0051 -4363.948 945.813)"
     opacity=".5"
     filter="url(#C)"
     id="path43" /><path
     d="m660.043 318.74-287.664 75.7-142.368 882.306 13.312 80.689 20.099 16.719h793.244l20.099-16.719 13.312-80.689L947.708 394.44z"
     fill="url(#A)"
     id="path45" /><path
     d="M660.031 318.739 372.368 394.44 230 1283.62l13.312 73.816 20.099 16.718h793.244l20.099-16.718 13.312-73.816-142.37-889.18z"
     fill="url(#B)"
     opacity=".25"
     style="mix-blend-mode:overlay"
     id="path47" /><path
     d="m1069.332 1271.7-.043 21.064 20.75-16.013-20.707-5.052z"
     opacity=".8"
     fill="#fff"
     id="path49" /><path
     d="m1090.039 1276.752-20.75 16.013-12.661 81.397 20.099-16.719 13.312-80.69z"
     opacity=".6"
     id="path51" /><g
     fill="#fff"
     id="g57"><path
       d="m372.331 394.43 17.664 13.248L660 335.13v-16.402zM947.669 394.43l-17.664 13.248L660 335.13v-16.402z"
       opacity=".3"
       id="path53" /><path
       d="m947.669 394.43-17.664 13.248 139.327 864.022 20.707 5.052z"
       opacity=".3"
       id="path55" /></g><path
     d="m372.331 394.43 17.664 13.248L250.668 1271.7l-20.707 5.052z"
     opacity=".4"
     id="path59" /><path
     d="m229.96 1276.752 20.75 16.013 12.661 81.397-20.099-16.719-13.312-80.69z"
     opacity=".9"
     id="path61" /><path
     d="m250.668 1271.7.043 21.064-20.75-16.013 20.707-5.052z"
     opacity=".6"
     id="path63" /><path
     d="M250.668 1271.7h818.665l-.043 21.064H250.71l-.043-21.064z"
     opacity=".2"
     id="path65" /><path
     d="m1069.289 1292.764-12.661 81.397H263.371l-12.661-81.397z"
     opacity=".7"
     id="path67" /><path
     d="M656.567 821.94a10.32 10.32 0 0 0-10.342 10.342v153.116L537.958 877.131a10.32 10.32 0 0 0-14.629 0l-4.931 4.931a10.32 10.32 0 0 0 0 14.629l108.267 108.267H473.549a10.322 10.322 0 0 0-10.342 10.347v6.968a10.322 10.322 0 0 0 10.342 10.347h172.676v172.676a10.32 10.32 0 0 0 10.342 10.342h6.973a10.322 10.322 0 0 0 10.347-10.342V1032.62h172.671a10.326 10.326 0 0 0 10.347-10.347v-6.968a10.326 10.326 0 0 0-10.347-10.347h-153.11l108.267-108.267a10.32 10.32 0 0 0 0-14.629l-4.931-4.931a10.322 10.322 0 0 0-14.629 0L673.888 985.398V832.282a10.322 10.322 0 0 0-10.347-10.342zm3.484 196.845h.014v.014h-.014z"
     fill="#300"
     id="path69" /><path
     d="M1789.451 1052.935a7.22 7.22 0 0 0-7.237 7.237v107.141l-75.759-75.759a7.222 7.222 0 0 0-10.237 0l-3.45 3.45a7.222 7.222 0 0 0 0 10.237l75.759 75.759h-107.141a7.223 7.223 0 0 0-7.237 7.24v4.876c0 4.01 3.227 7.24 7.237 7.24h120.828v120.828a7.22 7.22 0 0 0 7.237 7.237h4.88c4.01 0 7.24-3.227 7.24-7.237v-120.828h120.825c4.01 0 7.24-3.23 7.24-7.24v-4.876c0-4.01-3.23-7.24-7.24-7.24h-107.138l75.759-75.759a7.222 7.222 0 0 0 0-10.237l-3.45-3.45a7.222 7.222 0 0 0-10.237 0l-75.759 75.759v-107.141c0-4.01-3.23-7.237-7.24-7.237zm2.438 137.74h.01v.01h-.01z"
     clip-path="url(#D)"
     fill="#9b0000"
     filter="url(#E)"
     transform="translate(-1914.573 -668.973) scale(1.4291)"
     id="path71" /><path
     d="m 852.86198,611.47728 q -2.11664,5.08 -8.04333,6.77333 -5.50333,1.69331 -12.27663,0.84664 -6.35,-1.26997 -10.58333,-3.80997 -11.00667,0 -22.43666,-0.42336 -11.00666,-0.84664 -22.0133,-1.69333 -24.12999,-1.69331 -49.10664,-2.54 -24.97666,-0.84664 -51.64662,2.54 -3.38667,23.28332 -4.23333,46.14331 -0.84667,22.43666 -1.69334,43.17996 -0.42333,20.74332 -4.65666,38.94665 5.50333,0 11.00666,0.84667 5.50333,0.42333 11.42997,0.84666 10.58333,0.84667 21.16666,1.69333 10.58333,0.42334 21.16665,-1.69333 3.38667,-0.84666 6.77334,-3.38666 3.38666,-2.54 7.19666,-2.96334 6.77333,-0.84666 16.08666,1.69334 9.73666,2.54 19.4733,7.61999 10.15999,5.08 17.77999,11.00664 7.62,5.92669 10.58333,11.85333 -8.04333,6.77333 -19.47333,6.77333 -11.00666,-0.42334 -23.28332,-2.11667 -5.07997,-0.84664 -10.5833,-1.27 -5.08,-0.84664 -10.16,-0.84664 -19.89666,-0.84669 -46.14331,-0.84669 -26.24663,-0.42333 -52.91662,1.27 -26.66999,1.69333 -49.10662,6.35 -22.01332,4.23333 -34.28999,13.12332 -17.77999,-4.65666 -28.36329,-17.77999 -10.58333,-13.54663 -19.04999,-30.90329 4.65666,-1.27 8.46666,0.42333 4.23333,1.27 8.04333,3.38667 2.54,1.69333 5.08,2.96333 2.54,1.27 5.50333,1.69333 11.8533,2.11667 24.97663,0.42333 13.12333,-1.69333 27.09332,-4.65666 11.85333,-2.11667 23.2833,-3.81 11.85335,-1.69333 22.85999,-1.27 0,-3.81 -0.42333,-8.04333 -0.42334,-4.65666 -0.84667,-9.31333 -1.27,-12.27666 -2.11667,-24.97663 -0.42333,-13.12335 2.54,-23.70665 -2.54,-1.27 -2.96333,-4.23334 0,-2.96333 0.84667,-7.19666 0,-1.69333 0,-3.38666 0.42333,-1.69334 0.42333,-3.38667 0,-9.73666 -1.27,-19.89666 -0.84667,-10.58333 -0.84667,-19.04999 -28.78662,2.11669 -62.65328,8.46666 -33.44329,5.92667 -62.22994,19.04999 -13.12333,-7.61999 -24.97666,-16.93332 -11.43,-9.31333 -15.23997,-27.51663 5.92664,-5.08 13.54664,-4.65667 8.04333,0 17.35666,1.27 5.07999,0.42334 10.15999,1.27 5.50333,0.42334 11.00666,0 27.93999,-1.69333 58.41995,-6.34999 30.47999,-4.65667 54.18662,-6.35 -0.84667,-7.62 -0.84667,-15.23999 0,-8.04333 0.42334,-16.08666 0.42333,-10.16 0,-20.31997 0,-10.16 -2.11667,-19.04999 -0.42333,-2.54 -2.54,-5.08 -1.69333,-2.96333 -2.11666,-5.50333 0,-0.84667 0.84666,-3.81 0,-1.27 0.42336,-2.54 0.42331,-1.69333 0,-2.54 -0.84669,-2.96333 -2.54002,-5.50333 -1.27,-2.96333 -2.96331,-5.92666 -3.38669,-5.92667 -5.50333,-11.85333 -2.11669,-6.35 3.80997,-12.69997 17.35666,9.31333 34.28999,19.4733 17.35666,9.73666 28.36332,26.24666 -8.89,13.96999 -10.16,33.44329 -0.84666,19.47332 -1.69333,43.17998 8.46666,1.27 17.35666,1.27 8.88997,0 17.77997,-0.42333 3.38666,0 6.34999,0 3.38667,0 6.77334,0 2.53999,0 5.50333,0 2.96333,0 5.50333,0 14.39332,0.42333 27.09332,-0.42334 13.1233,-1.27 20.7433,-9.73666 23.70665,2.54 43.17998,9.73666 19.89663,7.19667 29.20996,27.93999 z"
     id="path1574-5"
     style="font-size:423.333px;font-family:'Yuji Mai';-inkscape-font-specification:'Yuji Mai';fill:#320000;stroke-width:27.7812;fill-opacity:1" /><path
     d="m 852.86199,611.47727 q -2.11666,5.08 -8.04333,6.77333 -5.50333,1.69333 -12.27665,0.84666 -6.35,-1.26999 -10.58333,-3.80999 -11.00666,0 -22.43665,-0.42334 -11.00666,-0.84666 -22.01331,-1.69333 -24.12999,-1.69333 -49.10663,-2.54 -24.97665,-0.84666 -51.64663,2.54 -3.38666,23.28332 -4.23333,46.1433 -0.84667,22.43665 -1.69333,43.17997 -0.42334,20.74331 -4.65667,38.94663 5.50333,0 11.00666,0.84667 5.50333,0.42333 11.42999,0.84667 10.58333,0.84666 21.16665,1.69333 10.58333,0.42333 21.16665,-1.69333 3.38667,-0.84667 6.77333,-3.38667 3.38667,-2.54 7.19666,-2.96333 6.77333,-0.84667 16.08666,1.69333 9.73666,2.54 19.47332,7.62 10.15999,5.07999 17.77998,11.00665 7.62,5.92667 10.58333,11.85333 -8.04333,6.77333 -19.47332,6.77333 -11.00666,-0.42334 -23.28332,-2.11667 -5.07999,-0.84666 -10.58332,-1.27 -5.08,-0.84666 -10.15999,-0.84666 -19.89665,-0.84667 -46.1433,-0.84667 -26.24665,-0.42333 -52.91663,1.27 -26.66998,1.69333 -49.10663,6.35 -22.01331,4.23333 -34.28997,13.12332 -17.77999,-4.65666 -28.36331,-17.77999 -10.58333,-13.54665 -19.04999,-30.90331 4.65667,-1.27 8.46666,0.42334 4.23333,1.26999 8.04333,3.38666 2.54,1.69333 5.08,2.96333 2.54,1.27 5.50333,1.69333 11.85332,2.11667 24.97664,0.42334 13.12333,-1.69334 27.09332,-4.65667 11.85332,-2.11666 23.28331,-3.80999 11.85333,-1.69334 22.85998,-1.27 0,-3.81 -0.42333,-8.04333 -0.42333,-4.65666 -0.84666,-9.31333 -1.27,-12.27665 -2.11667,-24.97664 -0.42333,-13.12333 2.54,-23.70665 -2.54,-1.27 -2.96333,-4.23333 0,-2.96333 0.84666,-7.19666 0,-1.69334 0,-3.38667 0.42334,-1.69333 0.42334,-3.38666 0,-9.73666 -1.27,-19.89665 -0.84667,-10.58333 -0.84667,-19.04999 -28.78664,2.11667 -62.65328,8.46666 -33.44331,5.92666 -62.22996,19.04999 -13.12332,-7.62 -24.97664,-16.93332 -11.43,-9.31333 -15.23999,-27.51665 5.92666,-5.08 13.54665,-4.65666 8.04333,0 17.35666,1.27 5.07999,0.42333 10.15999,1.27 5.50333,0.42333 11.00666,0 27.93998,-1.69334 58.41995,-6.35 30.47998,-4.65666 54.18663,-6.34999 -0.84667,-7.62 -0.84667,-15.23999 0,-8.04333 0.42333,-16.08666 0.42334,-10.15999 0,-20.31998 0,-10.15999 -2.11666,-19.04999 -0.42333,-2.53999 -2.54,-5.07999 -1.69333,-2.96333 -2.11666,-5.50333 0,-0.84667 0.84666,-3.81 0,-1.27 0.42334,-2.54 0.42333,-1.69333 0,-2.54 -0.84667,-2.96333 -2.54,-5.50332 -1.27,-2.96334 -2.96333,-5.92667 -3.38667,-5.92666 -5.50333,-11.85332 -2.11667,-6.35 3.80999,-12.69999 17.35666,9.31333 34.28998,19.47332 17.35665,9.73666 28.36331,26.24664 -8.88999,13.96999 -10.15999,33.44331 -0.84667,19.47332 -1.69333,43.17997 8.46666,1.27 17.35665,1.27 8.88999,0 17.77999,-0.42334 3.38666,0 6.34999,0 3.38666,0 6.77333,0 2.54,0 5.50333,0 2.96333,0 5.50333,0 14.39332,0.42334 27.09331,-0.42333 13.12332,-1.27 20.74332,-9.73666 23.70665,2.54 43.17996,9.73666 19.89665,7.19666 29.20998,27.93998 z"
     id="path2344"
     style="font-size:423.333px;font-family:'Yuji Mai';-inkscape-font-specification:'Yuji Mai';fill:#980000;stroke-width:27.7812;filter:url(#filter1086);fill-opacity:1"
     clip-path="url(#clipPath967)" /><style
     id="style1145">.B{color-interpolation-filters:sRGB}</style><style
     id="style1297">.B{color-interpolation-filters:sRGB}</style><path
     d="m 503.36375,633.96216 c 4.47,0.527 6.324,-6.04 2.782,-9.851 -3.542,-3.811 -12.485,-4.866 -13.412,-1.582 -0.927,3.284 6.161,10.906 10.631,11.433 z"
     filter="url(#I)"
     id="path1377"
     style="fill:#ffffff;filter:url(#I-0)" /><path
     d="m 803.45218,632.58033 c 4.47,0.527 6.324,-6.04 2.782,-9.851 -3.542,-3.811 -12.485,-4.866 -13.412,-1.582 -0.927,3.284 6.161,10.906 10.631,11.433 z"
     filter="url(#I)"
     id="path1377-9"
     style="fill:#ffffff;filter:url(#I-0-0)"
     transform="rotate(-30,771.86512,605.12704)" /><path
     d="m 556.95406,783.27938 c 4.47,0.527 6.324,-6.04 2.782,-9.851 -3.542,-3.811 -12.485,-4.866 -13.412,-1.582 -0.927,3.284 6.161,10.906 10.631,11.433 z"
     filter="url(#I)"
     id="path1377-5"
     style="fill:#ffffff;filter:url(#I-0-8)"
     transform="rotate(180,555.77301,777.06161)" /></svg>
