<?xml version="1.0" encoding="UTF-8" standalone="no"?>
<svg
   width="498.898"
   height="544.252"
   viewBox="0 0 1320 1440"
   version="1.1"
   id="svg93"
   sodipodi:docname="wC.svg"
   xml:space="preserve"
   inkscape:version="1.2.2 (732a01da63, 2022-12-09)"
   xmlns:inkscape="http://www.inkscape.org/namespaces/inkscape"
   xmlns:sodipodi="http://sodipodi.sourceforge.net/DTD/sodipodi-0.dtd"
   xmlns="http://www.w3.org/2000/svg"
   xmlns:svg="http://www.w3.org/2000/svg"><sodipodi:namedview
     id="namedview95"
     pagecolor="#ffffff"
     bordercolor="#000000"
     borderopacity="0.25"
     inkscape:showpageshadow="2"
     inkscape:pageopacity="0.0"
     inkscape:pagecheckerboard="0"
     inkscape:deskcolor="#d1d1d1"
     showgrid="false"
     inkscape:zoom="1.4258101"
     inkscape:cx="231.09669"
     inkscape:cy="300.88158"
     inkscape:window-width="1920"
     inkscape:window-height="974"
     inkscape:window-x="-11"
     inkscape:window-y="-11"
     inkscape:window-maximized="1"
     inkscape:current-layer="svg93" /><style
     id="style2">.B{color-interpolation-filters:sRGB}</style><defs
     id="defs47"><filter
       id="C"
       x="-0.01110353"
       y="-0.011243256"
       width="1.0222071"
       height="1.0224865"
       class="B"><feGaussianBlur
         stdDeviation="2.441"
         id="feGaussianBlur4" /></filter><filter
       id="E"
       x="-0.044415611"
       y="-0.052217456"
       width="1.0888312"
       height="1.1044349"
       class="B"><feGaussianBlur
         stdDeviation="6.938"
         id="feGaussianBlur7" /></filter><filter
       id="G"
       x="-0.026998005"
       y="-0.026998101"
       width="1.053996"
       height="1.0539962"
       class="B"><feGaussianBlur
         stdDeviation="3.099"
         id="feGaussianBlur10" /></filter><filter
       id="H"
       x="-0.27874491"
       y="-0.41037086"
       width="1.5574898"
       height="1.8207417"
       class="B"><feGaussianBlur
         stdDeviation="1.678"
         id="feGaussianBlur13" /></filter><filter
       id="I"
       x="-0.19140111"
       y="-0.19189012"
       width="1.3828022"
       height="1.3837802"
       class="B"><feGaussianBlur
         stdDeviation="1.678"
         id="feGaussianBlur16" /></filter><filter
       id="J"
       x="-0.27028669"
       y="-0.22439689"
       width="1.5405734"
       height="1.4487938"
       class="B"><feGaussianBlur
         stdDeviation="1.678"
         id="feGaussianBlur19" /></filter><filter
       id="K"
       x="-0.18338993"
       y="-0.31096481"
       width="1.3667799"
       height="1.6219296"
       class="B"><feGaussianBlur
         stdDeviation="1.678"
         id="feGaussianBlur22" /></filter><linearGradient
       id="A"
       x1="-1430.769"
       y1="-77.47"
       x2="-1409.955"
       y2="-77.47"
       spreadMethod="reflect"
       gradientUnits="userSpaceOnUse"><stop
         offset="0"
         stop-color="#ffd285"
         id="stop25" /><stop
         offset=".232"
         stop-color="#ffcd79"
         id="stop27" /><stop
         offset=".616"
         stop-color="#ffca73"
         id="stop29" /><stop
         offset=".808"
         stop-color="#ffd386"
         id="stop31" /><stop
         offset="1"
         stop-color="#ffc86e"
         id="stop33" /></linearGradient><linearGradient
       id="B"
       x1="-899.905"
       y1="-344.262"
       x2="-899.906"
       y2="125.211"
       gradientUnits="userSpaceOnUse"><stop
         offset=".597"
         stop-color="#fff"
         id="stop36" /><stop
         offset="1"
         id="stop38" /></linearGradient><clipPath
       id="D"><path
         d="M853.773 619.324c-1.942-11.261-6.602-23.688-13.591-33.007-19.028-24.853-61.355-38.832-81.159-62.131-28.347-33.396-57.083-65.626-87.761-96.304.777-7.766-4.66-14.368-15.533-19.028-18.251-2.718-23.299-2.33-45.822 2.718 1.553 12.426 14.368 13.203 18.251 23.299-6.213 17.863-16.31 33.007-32.231 55.142-30.289 42.715-60.19 81.548-98.245 120.38-9.32 9.708-22.523 20.581-31.454 28.736 8.931-1.165 16.309 6.601 25.629 4.66 5.825-1.165 53.588-45.822 62.52-56.307 11.65-13.591 24.464-27.182 34.172-41.939 12.815 8.155 27.571 23.688 43.104 15.921 5.436 6.213 8.543 15.533 7.766 29.124-25.241 1.165-57.86 6.99-76.888 7.766 10.873 12.426 22.134 24.464 42.715 26.406 8.543-8.155 19.416-6.99 34.949-9.32-.389 27.571 1.165 48.929-.389 83.489-41.939 1.553-72.616 15.145-105.235-.777-2.718 5.825 12.038 25.241 17.086 29.901 21.746 19.416 29.901 6.99 49.706 0 29.901-10.485 99.798-10.096 134.747-6.213 15.145 3.107 40.385 7.378 48.929-.777-7.378-22.134-46.21-30.289-66.015-31.454-13.203 13.203-33.395 6.601-56.306 7.378 4.271-31.454 5.824-64.461 6.99-83.877 23.299-3.495 57.472-3.883 76.888-6.601-6.213-18.251-31.066-17.863-49.317-27.571-1.553 8.155-18.639 9.32-28.347 10.485.389-8.155 5.048-24.853-2.33-33.396 17.475-2.718 36.502-5.825 53.977-5.825-10.484-15.921-27.571-24.076-49.317-27.571-6.602 2.718-8.155 9.708-21.358 10.485-13.203 4.66-37.667 6.99-57.472 6.213 12.426-13.203 46.987-63.296 63.296-88.537 2.718-2.33 5.436-5.825 9.32-6.99 41.551 52.812 77.276 110.283 111.448 168.92 28.347 13.98 45.434 21.746 77.276 6.601zm-104.847 24.853c-3.495-19.804-20.581-25.241-38.444-29.512l-5.437 3.107c3.495 4.66 6.602 10.873 9.708 14.756-10.484 12.426-28.347 35.337-38.832 55.53 7.378-2.33 19.028-10.096 24.853-11.261-3.883 5.825-4.66 10.873-4.66 10.873 20.193-11.65 34.949-29.124 52.812-43.492zm-130.864 45.822c-.389-10.485-5.825-15.533-6.213-26.406-14.368-10.096-30.677-26.018-49.317-26.406 6.99 22.523 27.571 62.131 55.53 52.812z"
         stroke-width="19.267"
         id="path41" /></clipPath><clipPath
       id="F"><path
         d="M1799.132 1043.253a7.22 7.22 0 0 0-7.237 7.237v107.141l-75.759-75.759a7.222 7.222 0 0 0-10.237 0l-3.45 3.45a7.222 7.222 0 0 0 0 10.237l75.759 75.759h-107.141a7.223 7.223 0 0 0-7.237 7.24v4.876c0 4.01 3.227 7.24 7.237 7.24h120.828v120.828a7.22 7.22 0 0 0 7.237 7.237h4.88c4.01 0 7.24-3.227 7.24-7.237v-120.828h120.825c4.01 0 7.24-3.23 7.24-7.24v-4.876c0-4.01-3.23-7.24-7.24-7.24h-107.138l75.759-75.759a7.222 7.222 0 0 0 0-10.237l-3.45-3.45a7.222 7.222 0 0 0-10.237 0l-75.759 75.759V1050.49c0-4.01-3.23-7.237-7.24-7.237zm2.438 137.74h.01v.01h-.01z"
         stroke-width="1.534"
         id="path44" /></clipPath><filter
       id="C-4"
       x="-0.010152573"
       y="-0.010558682"
       width="1.0203051"
       height="1.0211174"
       class="B"><feGaussianBlur
         stdDeviation="2.441"
         id="feGaussianBlur4-8" /></filter><filter
       id="E-1"
       x="-0.029858744"
       y="-0.033802855"
       width="1.0597175"
       height="1.0676057"
       class="B"><feGaussianBlur
         stdDeviation="6.825"
         id="feGaussianBlur7-0" /></filter><filter
       id="F-3"
       x="-0.012623186"
       y="-0.01143498"
       width="1.0252464"
       height="1.02287"
       class="B"><feGaussianBlur
         stdDeviation="2.152"
         id="feGaussianBlur10-0" /></filter><filter
       id="H-7"
       x="-0.048167785"
       y="-0.048167262"
       width="1.0963356"
       height="1.0963345"
       class="B"><feGaussianBlur
         stdDeviation="5.529"
         id="feGaussianBlur13-1" /></filter><linearGradient
       id="A-3"
       x1="236.943"
       y1="670.458"
       x2="278.677"
       y2="670.458"
       spreadMethod="reflect"
       gradientUnits="userSpaceOnUse"
       gradientTransform="translate(2102.0959,-526.21748)"><stop
         offset="0"
         stop-color="#ffd285"
         id="stop16" /><stop
         offset=".232"
         stop-color="#ffcd79"
         id="stop18" /><stop
         offset=".616"
         stop-color="#ffca73"
         id="stop20" /><stop
         offset=".808"
         stop-color="#ffd386"
         id="stop22" /><stop
         offset="1"
         stop-color="#ffc86e"
         id="stop24" /></linearGradient><linearGradient
       id="B-2"
       x1="660"
       y1="115.844"
       x2="670.254"
       y2="1157.469"
       gradientUnits="userSpaceOnUse"
       gradientTransform="translate(2102.0959,-526.21748)"><stop
         offset=".604"
         stop-color="#fff"
         id="stop27-9" /><stop
         offset="1"
         id="stop29-4" /></linearGradient><clipPath
       id="D-5"><path
         d="M-259.905 606.27c-34.215-15.43-56.354-45.62-98.62-41.595 16.772 26.835 49.645 87.215 92.582 107.342 19.456-16.101 16.101-40.253 6.038-65.747zm127.468 137.531c-23.481-39.582-77.152-48.975-118.076-59.709-20.127 15.43-42.266 19.456-67.089 19.456s-49.646-2.684-77.823-3.354c2.013-40.924 4.025-111.367 4.025-157.658 48.975-7.38 111.367-6.709 163.696-5.367 16.101 0 15.43-10.063 9.392-18.785-19.456-20.127-49.645-28.177-81.177-34.886-14.759 12.076-64.405 12.076-91.24 12.076 2.684-38.24 3.354-94.595 4.696-144.24 39.582-2.684 78.494-6.709 110.025-7.38 32.202-.671 61.051-2.013 90.569-8.051-8.721-38.24-44.949-47.633-85.202-51.658-3.354-.671-6.038 8.051-12.747 8.721-64.405 8.722-225.417 22.81-281.101 15.43-26.165-3.354-50.987-12.076-83.19-20.127-9.392-2.013-9.392 8.722-6.709 20.797 16.772 20.797 34.886 46.962 56.354 58.367 14.089 7.38 30.19-5.367 44.278-7.38 37.57-6.038 67.759-.671 98.62-5.367 6.038 24.823 8.722 46.962 10.063 69.772s1.342 45.62 1.342 76.481c-73.797 10.063-140.215-.671-193.215 6.709 10.063 12.747 39.582 47.633 69.772 58.367 11.405 4.025 20.127-6.709 30.861-9.392 29.519-7.38 61.721-7.38 91.911-10.734l1.342 158.329c-69.101 3.354-142.228 16.101-190.531 17.443-21.468.671-40.253-14.089-62.392-5.367 16.772 32.202 47.633 48.304 75.81 67.089 24.823 9.392 30.19-6.038 48.975-14.089 29.519-12.747 88.557-17.443 121.43-19.456 101.974-6.038 200.595-6.038 259.632 8.722 14.759 4.025 43.607 1.342 57.696-14.759z"
         opacity=".593"
         stroke-width="5.943"
         id="path32" /></clipPath><clipPath
       id="G-9"><path
         d="M1799.132 1043.252a7.223 7.223 0 0 0-7.237 7.24v107.141l-75.759-75.762a7.222 7.222 0 0 0-10.237 0l-3.45 3.45a7.222 7.222 0 0 0 0 10.237l75.756 75.759h-107.138a7.223 7.223 0 0 0-7.237 7.24v4.88a7.22 7.22 0 0 0 7.237 7.237h107.141l-75.759 75.759a7.226 7.226 0 0 0 0 10.24l3.45 3.45a7.222 7.222 0 0 0 10.237 0l75.759-75.762v107.141c0 4.01 3.227 7.24 7.237 7.24h4.88c4.01 0 7.24-3.23 7.24-7.24V1204.36l75.759 75.762a7.222 7.222 0 0 0 10.237 0l3.45-3.45a7.226 7.226 0 0 0 0-10.24l-75.759-75.759h107.138c4.01 0 7.24-3.227 7.24-7.237v-4.88c0-4.01-3.23-7.24-7.24-7.24h-107.135l75.756-75.759a7.222 7.222 0 0 0 0-10.237l-3.45-3.45a7.222 7.222 0 0 0-10.237 0l-75.759 75.762v-107.141c0-4.01-3.23-7.24-7.24-7.24zm2.438 137.74h-.01z"
         stroke-width="1.534"
         id="path35" /></clipPath><path
       id="I-8"
       d="M654.456 1200.517c2.346 2.346 6.396 2.1 3.974 4.522s-6.287 2.483-8.633.137-2.285-6.211.137-8.633 2.176 1.628 4.522 3.974z" /><filter
       inkscape:menu-tooltip="In and out glow with a possible offset and colorizable flood"
       inkscape:menu="Shadows and Glows"
       inkscape:label="Cutout Glow"
       style="color-interpolation-filters:sRGB;"
       id="filter1178"
       x="-0.042234829"
       y="-0.017299242"
       width="1.0599145"
       height="1.0586252"><feOffset
         dy="10"
         dx="-10"
         id="feOffset1168" /><feGaussianBlur
         stdDeviation="3"
         result="blur"
         id="feGaussianBlur1170" /><feFlood
         flood-color="rgb(0,0,0)"
         flood-opacity="0"
         result="flood"
         id="feFlood1172" /><feComposite
         in="flood"
         in2="SourceGraphic"
         operator="in"
         result="composite"
         id="feComposite1174" /><feBlend
         in="blur"
         in2="composite"
         mode="normal"
         id="feBlend1176" /></filter><filter
       inkscape:menu-tooltip="In and out glow with a possible offset and colorizable flood"
       inkscape:menu="Shadows and Glows"
       inkscape:label="Cutout Glow"
       style="color-interpolation-filters:sRGB"
       id="filter1178-2"
       x="-0.042234829"
       y="-0.017299242"
       width="1.0599145"
       height="1.0586252"><feOffset
         dy="10"
         dx="-10"
         id="feOffset1168-5" /><feGaussianBlur
         stdDeviation="3"
         result="blur"
         id="feGaussianBlur1170-8" /><feFlood
         flood-color="rgb(0,0,0)"
         flood-opacity="1"
         result="flood"
         id="feFlood1172-3" /><feComposite
         in="flood"
         in2="SourceGraphic"
         operator="in"
         result="composite"
         id="feComposite1174-8" /><feBlend
         in="blur"
         in2="composite"
         mode="normal"
         id="feBlend1176-2" /></filter><filter
       id="K-5"
       x="-0.18338993"
       y="-0.31096481"
       width="1.3667799"
       height="1.6219296"
       class="B"><feGaussianBlur
         stdDeviation="1.678"
         id="feGaussianBlur22-1" /></filter><filter
       id="H-5"
       x="-0.27874491"
       y="-0.41037086"
       width="1.5574898"
       height="1.8207417"
       class="B"><feGaussianBlur
         stdDeviation="1.678"
         id="feGaussianBlur13-0" /></filter><clipPath
       clipPathUnits="userSpaceOnUse"
       id="clipPath900"><path
         d="m 861.5795,480.27321 q -5.20965,2.84163 -10.41929,6.63046 -4.73604,3.78883 -9.47208,7.57766 -12.78731,9.94569 -26.52182,17.99695 -13.73452,7.57767 -33.15228,4.73604 -0.94721,-5.68324 -4.73604,-8.52487 -3.78883,-2.84162 -7.10406,-5.68325 -3.31523,-3.31522 -3.78883,-9.47208 0.94721,-0.9472 2.36802,-2.84162 5.20964,-5.68325 11.36649,-14.20812 6.15685,-8.52487 9.94569,-18.47055 4.26243,-9.94571 2.84162,-20.83858 -9.94568,-6.63045 -26.52182,-8.99847 -16.57614,-2.36802 -36.94111,-1.89442 -20.365,0.47358 -41.67718,1.42081 -11.36649,0.47361 -22.73299,0.94721 -11.36647,0.47358 -21.78578,0.47358 5.20964,5.68327 12.78733,8.9985 7.57764,3.31523 13.73449,7.57764 6.63046,3.78886 8.05127,11.84012 0.4736,3.31523 -0.94721,5.68325 -0.94721,2.36802 -2.36802,5.20964 -1.89439,2.84163 -3.31523,6.63046 -1.42081,3.31523 0.94721,8.52487 0.94721,0 2.36802,-0.4736 14.68175,-1.89442 32.20507,-2.84163 17.52335,-1.42081 32.2051,2.84163 15.15532,4.26243 22.73299,18.47055 -20.36497,4.73604 -43.57157,5.68325 -22.73299,0.4736 -44.9924,4.26244 v 20.83857 q 8.9985,0.4736 25.10101,-0.94721 16.57614,-1.89441 27.94266,-6.63045 11.36647,1.89441 25.57459,5.68324 14.20814,3.78884 26.52185,8.99848 12.3137,4.73604 18.94416,10.41929 7.10406,5.20964 4.26243,10.89289 -1.89441,3.78883 -9.47208,6.63045 -7.10406,2.84163 -14.20812,4.26244 -10.41928,12.78731 -15.15532,35.5203 -4.26244,22.25938 -6.63046,43.09796 5.20964,13.26091 -5.68325,15.15533 -5.68327,0.9472 -13.73451,1.42081 -7.57769,0 -16.57614,-0.47361 -10.89292,0 -23.20662,0.47361 -12.31368,0 -23.6802,1.89441 0.4736,4.73604 0.4736,11.3665 0.47361,6.15685 0,9.94568 7.57769,-0.94721 16.57614,-0.94721 8.99848,0 17.99698,0 16.57614,0.47361 31.73144,0 15.15535,-0.9472 22.73302,-8.52487 15.15532,1.42081 32.67867,5.68325 17.99695,3.78883 31.25786,11.3665 13.26091,7.57766 14.68172,20.83857 -15.15532,0 -30.78425,-0.47358 -15.62893,-0.47363 -31.25787,-0.94723 -27.46905,-0.47361 -54.46445,-0.94721 -26.52185,-0.47358 -49.72842,0.4736 0,2.36802 0,5.20965 0.47358,2.84162 0.47358,5.68327 0.4736,13.26089 0.4736,30.78426 0,17.52332 -3.3152,34.09946 -3.31525,16.57614 -13.26094,26.52185 -8.05124,-1.42081 -12.3137,-11.36652 -3.78883,-9.47208 -5.20964,-23.20657 -1.42081,-13.26094 -1.42081,-26.99543 0,-14.20814 0.4736,-24.15383 0,-5.20964 0,-8.52487 0,-3.78883 0,-5.20964 -28.41624,-0.47361 -53.51725,3.31525 -25.10101,3.3152 -49.72842,15.62891 -23.68019,0.4736 -36.4675,-10.41929 -12.31371,-11.3665 -21.78578,-26.04822 12.3137,-1.89441 26.04821,-1.42081 13.73452,0 29.83705,-1.42081 24.62741,-1.89442 50.67563,-3.31523 26.52182,-1.89442 54.46446,-3.78883 0.4736,-2.36802 0.4736,-6.15685 0,-3.78884 -0.4736,-8.05127 0,-1.89442 0,-3.78883 0,-1.89442 0,-3.31523 -1.42082,0 -3.31523,0 -1.42081,0 -2.84163,0.4736 -8.05126,0 -16.10253,0.47361 -8.05127,0 -15.15533,-0.47361 -6.15685,9.47208 -14.68172,8.05127 -8.05127,-1.89441 -16.57614,-8.99847 -8.05127,-7.10406 -14.20812,-13.26092 -1.42081,-1.42081 -2.36802,-2.36802 0,-6.15685 0.94721,-12.3137 0.94721,-6.63045 1.89441,-13.26091 1.89442,-11.8401 2.36802,-22.73299 0.94721,-11.3665 -2.84162,-21.31218 -2.84162,-8.05127 -9.47208,-12.78731 -6.63045,-4.73604 -12.3137,-9.94568 -5.20965,-5.20964 -6.15685,-14.20812 13.26091,0 25.57461,-1.42081 12.3137,-1.89442 25.10101,-4.26244 13.73452,-2.36802 27.94264,-4.26243 14.68172,-1.89442 31.25786,-1.89442 0.4736,-2.36802 0,-7.10406 -0.47361,-5.20964 -0.47361,-9.94568 -0.4736,-2.84162 -0.4736,-3.78883 -1.42081,0 -3.31523,0 -1.89441,0 -3.78883,0 -9.47208,0.4736 -20.36497,1.42081 -10.41929,0.4736 -18.94416,4.73604 -14.68172,-5.20964 -26.52182,-12.3137 -11.8401,-7.57767 -13.26091,-26.04822 20.36497,4.73604 42.62435,7.10406 22.25939,1.89441 41.67715,-1.89442 0.47361,-15.62893 -3.31522,-24.62741 -3.78884,-8.99847 -10.41929,-14.68172 -6.63046,-5.68327 -15.15533,-10.89289 4.26244,-0.94721 7.10406,-1.89444 3.31523,-1.42079 6.63046,-4.73604 -15.62893,0.94723 -33.15228,2.36802 -17.04974,0.94723 -30.31066,4.73604 -13.26091,3.78886 -17.99695,12.78733 -6.15685,11.3665 -10.41928,26.99543 -3.78884,15.62893 -7.57767,31.73146 -3.78883,16.10254 -9.47208,29.83705 0.47361,1.89442 0.94721,3.78884 0.94721,1.89441 1.89442,3.78883 1.89441,4.73604 3.31522,9.94568 1.42082,4.73604 -0.4736,9.47208 -14.20812,0 -27.46903,-7.10406 -12.78731,-7.10406 -22.25939,-17.52335 -9.47208,-10.89289 -13.73451,-21.78578 13.26091,-3.78883 20.83857,-12.3137 7.57767,-8.99848 11.8401,-20.83858 4.73604,-12.3137 8.52487,-25.10101 -3.78883,-9.94568 -9.94568,-17.04974 -6.15685,-7.57766 -14.20812,-13.26091 0.47361,-6.63046 6.15685,-8.05127 6.15686,-1.89444 10.89289,-4.26246 8.05127,-0.47358 22.733,-1.42081 14.68172,-1.42079 33.15227,-3.31523 26.04822,-1.89439 57.77969,-4.73604 32.20507,-2.8416 64.88374,-4.73604 33.15228,-1.89439 62.98933,-2.36802 30.31068,-0.94721 53.51727,0.47363 23.6802,1.42081 35.5203,6.15685 3.78883,3.31523 7.57767,7.10406 3.78883,3.31523 8.05126,6.15685 1.42082,2.84163 3.31523,5.68325 2.36802,2.36802 4.73604,5.68325 7.10406,9.47208 13.73452,20.83857 6.63045,10.89289 4.73604,25.10101 z M 718.07749,643.66658 q 0.47358,-3.31522 0.47358,-6.63045 0.47363,-3.78883 0.94721,-7.57767 1.89444,-17.99695 1.89444,-36.4675 0.47358,-18.47056 -6.63048,-39.78274 -7.57764,1.89442 -19.41774,2.36802 -11.36652,0.47361 -21.78581,1.42082 -0.4736,6.15685 -0.4736,13.73451 0.4736,7.57767 0,12.78731 12.78733,3.31523 22.73299,8.99847 10.41929,5.20965 17.99695,14.20812 -10.89289,0.94721 -21.31218,2.36802 -9.94568,1.42082 -18.94416,4.73604 -0.4736,4.73604 -0.4736,8.52487 0,3.31523 0,7.10406 0,3.31523 0,7.10406 0.4736,3.31523 0,8.05127 4.26246,0 8.52487,-0.4736 4.26246,-0.47361 8.52487,-0.94721 7.57769,-0.4736 14.68175,-0.4736 7.10406,-0.47361 13.26091,0.9472 z m -76.72387,-27.46903 q -12.3137,0.94721 -23.20659,0.94721 -10.41929,0 -21.31218,-3.78883 -0.4736,8.99847 -0.94721,18.47055 0,9.47208 0,17.04975 4.73604,0.4736 12.78731,0.4736 8.52487,-0.4736 16.57614,-1.42081 4.26243,-0.47361 8.05127,-0.47361 4.26243,-0.4736 7.57766,-0.4736 0.4736,-5.20964 0.4736,-14.20812 0,-9.47208 0,-16.57614 z m -1.89441,-55.88527 q -10.41929,-1.42081 -23.6802,2.36802 -12.78731,3.31523 -21.31218,7.10406 1.42081,5.20965 1.89442,12.31371 0.4736,6.63045 0.4736,10.89289 9.47208,0.4736 20.36497,-0.47361 10.89289,-1.42081 22.73299,-5.20964 z"
         id="path902"
         style="font-size:473.604px;font-family:'Yuji Mai';-inkscape-font-specification:'Yuji Mai';fill:#29303d;stroke-width:27.7812" /></clipPath></defs><path
     d="m-2745.657 265.144 28.198 35.189h489.331l10.087-9.413-110.95-494.045-31.462-17.601z"
     transform="matrix(-2.0051 0 0 2.0051 -4364.078 816.662)"
     opacity=".5"
     filter="url(#C)"
     id="path49" /><path
     d="m-1215.57-304.058-153.963 48.25-92.727 473.093 6.639 36.814 10.024 8.338h460.053l10.024-8.338 6.639-36.814-92.727-473.093z"
     fill="url(#A)"
     transform="translate(3097.382 831.934) scale(2.0051)"
     id="path51" /><path
     d="m-899.905-344.262-153.963 48.25-92.727 473.093 6.639 36.814 10.024 8.338h460.054l10.024-8.338 6.639-36.814-92.727-473.093z"
     opacity=".25"
     fill="url(#B)"
     transform="translate(2464.43 912.55) scale(2.0051)"
     style="mix-blend-mode:overlay"
     id="path53" /><path
     d="m1133.938 1262.57-.043 21.064 20.75-16.013-20.707-5.052z"
     opacity=".8"
     fill="#fff"
     id="path55" /><path
     d="m1154.645 1267.622-20.75 16.013-12.661 74.524 20.099-16.719 13.312-73.818z"
     opacity=".6"
     id="path57" /><g
     fill="#fff"
     id="g63"><path
       d="m351.284 319.007 17.664 13.248L660 238.66v-16.402zM968.716 319.007l-17.664 13.248L660 238.66v-16.402z"
       opacity=".3"
       id="path59" /><path
       d="m968.716 319.007-17.664 13.248 182.886 930.315 20.707 5.052z"
       opacity=".3"
       id="path61" /></g><path
     d="m351.284 319.007 17.664 13.248-182.886 930.315-20.707 5.052z"
     opacity=".4"
     id="path65" /><path
     d="m165.355 1267.622 20.75 16.013 12.661 74.524-20.099-16.719-13.312-73.818z"
     opacity=".9"
     id="path67" /><path
     d="m186.062 1262.57.043 21.064-20.75-16.013 20.707-5.052z"
     opacity=".6"
     id="path69" /><path
     d="M186.062 1262.57h947.876l-.043 21.064h-947.79l-.043-21.064z"
     opacity=".2"
     id="path71" /><path
     d="m1133.895 1283.634-12.661 74.524H198.765l-12.66-74.524h947.791z"
     opacity=".7"
     id="path73" /><style
     id="style2-1">.B{color-interpolation-filters:sRGB}</style><path
     d="m 656.44437,817.80157 a 10.406,10.406 0 0 0 -10.426,10.431 V 982.5916 l -109.146,-109.15103 a 10.406,10.406 0 0 0 -14.748,0 l -4.971,4.971 a 10.406,10.406 0 0 0 0,14.748 l 109.141,109.14603 h -154.353 a 10.405,10.405 0 0 0 -10.426,10.431 v 7.03 a 10.4,10.4 0 0 0 10.426,10.426 h 154.359 l -109.146,109.146 a 10.41,10.41 0 0 0 0,14.753 l 4.971,4.971 a 10.406,10.406 0 0 0 14.748,0 l 109.146,-109.151 v 154.359 a 10.406,10.406 0 0 0 10.426,10.431 h 7.03 a 10.41,10.41 0 0 0 10.431,-10.431 v -154.359 l 109.146,109.151 a 10.406,10.406 0 0 0 14.748,0 l 4.971,-4.971 a 10.41,10.41 0 0 0 0,-14.753 l -109.146,-109.146 h 154.354 a 10.406,10.406 0 0 0 10.43102,-10.426 v -7.03 a 10.41,10.41 0 0 0 -10.43102,-10.431 h -154.35 l 109.141,-109.14603 a 10.406,10.406 0 0 0 0,-14.748 l -4.971,-4.971 a 10.406,10.406 0 0 0 -14.748,0 L 673.90537,982.5906 V 828.23257 a 10.41,10.41 0 0 0 -10.431,-10.431 z m 3.512,198.44203 h -0.014 z"
     id="path79" /><path
     d="m 1789.457,1052.923 a 7.223,7.223 0 0 0 -7.237,7.24 v 107.141 l -75.759,-75.762 a 7.222,7.222 0 0 0 -10.237,0 l -3.45,3.45 a 7.222,7.222 0 0 0 0,10.237 l 85.431,66.088 -9.675,9.671 h -107.138 a 7.223,7.223 0 0 0 -7.237,7.24 v 4.88 a 7.22,7.22 0 0 0 7.237,7.237 h 107.141 l -75.759,75.759 a 7.226,7.226 0 0 0 0,10.24 l 3.45,3.45 a 7.222,7.222 0 0 0 10.237,0 l 75.759,-75.762 v 107.141 c 0,4.01 3.227,7.24 7.237,7.24 h 4.88 c 4.01,0 7.24,-3.23 7.24,-7.24 v -107.141 l 9.675,-9.671 66.084,85.434 a 7.222,7.222 0 0 0 10.237,0 l 3.45,-3.45 a 7.226,7.226 0 0 0 0,-10.24 l -75.759,-75.759 9.675,-9.671 97.463,9.671 c 3.991,0.396 7.24,-3.227 7.24,-7.237 v -4.88 c 0,-4.01 -3.23,-7.24 -7.24,-7.24 h -107.135 l 75.756,-75.759 a 7.222,7.222 0 0 0 0,-10.237 l -3.45,-3.45 a 7.222,7.222 0 0 0 -10.237,0 l -75.759,75.762 v -107.141 c 0,-4.01 -3.23,-7.24 -7.24,-7.24 z m 2.438,137.74 h -0.01 z"
     clip-path="url(#G-9)"
     fill="#29303d"
     fill-opacity="0.99"
     filter="url(#H)"
     transform="matrix(1.4407,0,0,1.4407,-1935.5647,-685.21143)"
     id="path81"
     style="filter:url(#H-7)" /><path
     d="m 861.5795,480.27321 q -5.20965,2.84163 -10.41929,6.63046 -4.73604,3.78883 -9.47208,7.57766 -12.78731,9.94569 -26.52182,17.99695 -13.73452,7.57767 -33.15228,4.73604 -0.94721,-5.68324 -4.73604,-8.52487 -3.78883,-2.84162 -7.10406,-5.68325 -3.31523,-3.31522 -3.78883,-9.47208 0.94721,-0.9472 2.36802,-2.84162 5.20964,-5.68325 11.36649,-14.20812 6.15685,-8.52487 9.94569,-18.47055 4.26243,-9.94571 2.84162,-20.83858 -9.94568,-6.63045 -26.52182,-8.99847 -16.57614,-2.36802 -36.94111,-1.89442 -20.365,0.47358 -41.67718,1.42081 -11.36649,0.47361 -22.73299,0.94721 -11.36647,0.47358 -21.78578,0.47358 5.20964,5.68327 12.78733,8.9985 7.57764,3.31523 13.73449,7.57764 6.63046,3.78886 8.05127,11.84012 0.4736,3.31523 -0.94721,5.68325 -0.94721,2.36802 -2.36802,5.20964 -1.89439,2.84163 -3.31523,6.63046 -1.42081,3.31523 0.94721,8.52487 0.94721,0 2.36802,-0.4736 14.68175,-1.89442 32.20507,-2.84163 17.52335,-1.42081 32.2051,2.84163 15.15532,4.26243 22.73299,18.47055 -20.36497,4.73604 -43.57157,5.68325 -22.73299,0.4736 -44.9924,4.26244 v 20.83857 q 8.9985,0.4736 25.10101,-0.94721 16.57614,-1.89441 27.94266,-6.63045 11.36647,1.89441 25.57459,5.68324 14.20814,3.78884 26.52185,8.99848 12.3137,4.73604 18.94416,10.41929 7.10406,5.20964 4.26243,10.89289 -1.89441,3.78883 -9.47208,6.63045 -7.10406,2.84163 -14.20812,4.26244 -10.41928,12.78731 -15.15532,35.5203 -4.26244,22.25938 -6.63046,43.09796 5.20964,13.26091 -5.68325,15.15533 -5.68327,0.9472 -13.73451,1.42081 -7.57769,0 -16.57614,-0.47361 -10.89292,0 -23.20662,0.47361 -12.31368,0 -23.6802,1.89441 0.4736,4.73604 0.4736,11.3665 0.47361,6.15685 0,9.94568 7.57769,-0.94721 16.57614,-0.94721 8.99848,0 17.99698,0 16.57614,0.47361 31.73144,0 15.15535,-0.9472 22.73302,-8.52487 15.15532,1.42081 32.67867,5.68325 17.99695,3.78883 31.25786,11.3665 13.26091,7.57766 14.68172,20.83857 -15.15532,0 -30.78425,-0.47358 -15.62893,-0.47363 -31.25787,-0.94723 -27.46905,-0.47361 -54.46445,-0.94721 -26.52185,-0.47358 -49.72842,0.4736 0,2.36802 0,5.20965 0.47358,2.84162 0.47358,5.68327 0.4736,13.26089 0.4736,30.78426 0,17.52332 -3.3152,34.09946 -3.31525,16.57614 -13.26094,26.52185 -8.05124,-1.42081 -12.3137,-11.36652 -3.78883,-9.47208 -5.20964,-23.20657 -1.42081,-13.26094 -1.42081,-26.99543 0,-14.20814 0.4736,-24.15383 0,-5.20964 0,-8.52487 0,-3.78883 0,-5.20964 -28.41624,-0.47361 -53.51725,3.31525 -25.10101,3.3152 -49.72842,15.62891 -23.68019,0.4736 -36.4675,-10.41929 -12.31371,-11.3665 -21.78578,-26.04822 12.3137,-1.89441 26.04821,-1.42081 13.73452,0 29.83705,-1.42081 24.62741,-1.89442 50.67563,-3.31523 26.52182,-1.89442 54.46446,-3.78883 0.4736,-2.36802 0.4736,-6.15685 0,-3.78884 -0.4736,-8.05127 0,-1.89442 0,-3.78883 0,-1.89442 0,-3.31523 -1.42082,0 -3.31523,0 -1.42081,0 -2.84163,0.4736 -8.05126,0 -16.10253,0.47361 -8.05127,0 -15.15533,-0.47361 -6.15685,9.47208 -14.68172,8.05127 -8.05127,-1.89441 -16.57614,-8.99847 -8.05127,-7.10406 -14.20812,-13.26092 -1.42081,-1.42081 -2.36802,-2.36802 0,-6.15685 0.94721,-12.3137 0.94721,-6.63045 1.89441,-13.26091 1.89442,-11.8401 2.36802,-22.73299 0.94721,-11.3665 -2.84162,-21.31218 -2.84162,-8.05127 -9.47208,-12.78731 -6.63045,-4.73604 -12.3137,-9.94568 -5.20965,-5.20964 -6.15685,-14.20812 13.26091,0 25.57461,-1.42081 12.3137,-1.89442 25.10101,-4.26244 13.73452,-2.36802 27.94264,-4.26243 14.68172,-1.89442 31.25786,-1.89442 0.4736,-2.36802 0,-7.10406 -0.47361,-5.20964 -0.47361,-9.94568 -0.4736,-2.84162 -0.4736,-3.78883 -1.42081,0 -3.31523,0 -1.89441,0 -3.78883,0 -9.47208,0.4736 -20.36497,1.42081 -10.41929,0.4736 -18.94416,4.73604 -14.68172,-5.20964 -26.52182,-12.3137 -11.8401,-7.57767 -13.26091,-26.04822 20.36497,4.73604 42.62435,7.10406 22.25939,1.89441 41.67715,-1.89442 0.47361,-15.62893 -3.31522,-24.62741 -3.78884,-8.99847 -10.41929,-14.68172 -6.63046,-5.68327 -15.15533,-10.89289 4.26244,-0.94721 7.10406,-1.89444 3.31523,-1.42079 6.63046,-4.73604 -15.62893,0.94723 -33.15228,2.36802 -17.04974,0.94723 -30.31066,4.73604 -13.26091,3.78886 -17.99695,12.78733 -6.15685,11.3665 -10.41928,26.99543 -3.78884,15.62893 -7.57767,31.73146 -3.78883,16.10254 -9.47208,29.83705 0.47361,1.89442 0.94721,3.78884 0.94721,1.89441 1.89442,3.78883 1.89441,4.73604 3.31522,9.94568 1.42082,4.73604 -0.4736,9.47208 -14.20812,0 -27.46903,-7.10406 -12.78731,-7.10406 -22.25939,-17.52335 -9.47208,-10.89289 -13.73451,-21.78578 13.26091,-3.78883 20.83857,-12.3137 7.57767,-8.99848 11.8401,-20.83858 4.73604,-12.3137 8.52487,-25.10101 -3.78883,-9.94568 -9.94568,-17.04974 -6.15685,-7.57766 -14.20812,-13.26091 0.47361,-6.63046 6.15685,-8.05127 6.15686,-1.89444 10.89289,-4.26246 8.05127,-0.47358 22.733,-1.42081 14.68172,-1.42079 33.15227,-3.31523 26.04822,-1.89439 57.77969,-4.73604 32.20507,-2.8416 64.88374,-4.73604 33.15228,-1.89439 62.98933,-2.36802 30.31068,-0.94721 53.51727,0.47363 23.6802,1.42081 35.5203,6.15685 3.78883,3.31523 7.57767,7.10406 3.78883,3.31523 8.05126,6.15685 1.42082,2.84163 3.31523,5.68325 2.36802,2.36802 4.73604,5.68325 7.10406,9.47208 13.73452,20.83857 6.63045,10.89289 4.73604,25.10101 z M 718.07749,643.66658 q 0.47358,-3.31522 0.47358,-6.63045 0.47363,-3.78883 0.94721,-7.57767 1.89444,-17.99695 1.89444,-36.4675 0.47358,-18.47056 -6.63048,-39.78274 -7.57764,1.89442 -19.41774,2.36802 -11.36652,0.47361 -21.78581,1.42082 -0.4736,6.15685 -0.4736,13.73451 0.4736,7.57767 0,12.78731 12.78733,3.31523 22.73299,8.99847 10.41929,5.20965 17.99695,14.20812 -10.89289,0.94721 -21.31218,2.36802 -9.94568,1.42082 -18.94416,4.73604 -0.4736,4.73604 -0.4736,8.52487 0,3.31523 0,7.10406 0,3.31523 0,7.10406 0.4736,3.31523 0,8.05127 4.26246,0 8.52487,-0.4736 4.26246,-0.47361 8.52487,-0.94721 7.57769,-0.4736 14.68175,-0.4736 7.10406,-0.47361 13.26091,0.9472 z m -76.72387,-27.46903 q -12.3137,0.94721 -23.20659,0.94721 -10.41929,0 -21.31218,-3.78883 -0.4736,8.99847 -0.94721,18.47055 0,9.47208 0,17.04975 4.73604,0.4736 12.78731,0.4736 8.52487,-0.4736 16.57614,-1.42081 4.26243,-0.47361 8.05127,-0.47361 4.26243,-0.4736 7.57766,-0.4736 0.4736,-5.20964 0.4736,-14.20812 0,-9.47208 0,-16.57614 z m -1.89441,-55.88527 q -10.41929,-1.42081 -23.6802,2.36802 -12.78731,3.31523 -21.31218,7.10406 1.42081,5.20965 1.89442,12.31371 0.4736,6.63045 0.4736,10.89289 9.47208,0.4736 20.36497,-0.47361 10.89289,-1.42081 22.73299,-5.20964 z"
     id="path1148-6"
     style="font-size:473.604px;font-family:'Yuji Mai';-inkscape-font-specification:'Yuji Mai';fill:#000000;stroke-width:27.7812;fill-opacity:1" /><path
     d="m 861.57949,480.27321 q -5.20964,2.84162 -10.41928,6.63045 -4.73604,3.78883 -9.47208,7.57767 -12.78731,9.94568 -26.52183,17.99695 -13.73451,7.57766 -33.15228,4.73604 -0.94721,-5.68325 -4.73604,-8.52487 -3.78883,-2.84163 -7.10406,-5.68325 -3.31523,-3.31523 -3.78883,-9.47208 0.94721,-0.94721 2.36802,-2.84163 5.20964,-5.68324 11.3665,-14.20812 6.15685,-8.52487 9.94568,-18.47055 4.26244,-9.94569 2.84162,-20.83858 -9.94568,-6.63045 -26.52182,-8.99847 -16.57614,-2.36802 -36.94111,-1.89442 -20.36498,0.4736 -41.67716,1.42081 -11.36649,0.47361 -22.73299,0.94721 -11.36649,0.4736 -21.78578,0.4736 5.20964,5.68325 12.78731,8.99848 7.57766,3.31523 13.73451,7.57766 6.63046,3.78884 8.05127,11.8401 0.4736,3.31523 -0.94721,5.68325 -0.94721,2.36802 -2.36802,5.20965 -1.89441,2.84162 -3.31523,6.63045 -1.42081,3.31523 0.94721,8.52487 0.94721,0 2.36802,-0.4736 14.68173,-1.89442 32.20507,-2.84162 17.52335,-1.42082 32.20508,2.84162 15.15533,4.26244 22.73299,18.47056 -20.36497,4.73604 -43.57157,5.68324 -22.73299,0.47361 -44.99238,4.26244 v 20.83858 q 8.99848,0.4736 25.10101,-0.94721 16.57614,-1.89442 27.94264,-6.63046 11.36649,1.89442 25.57461,5.68325 14.20813,3.78883 26.52183,8.99848 12.3137,4.73604 18.94416,10.41928 7.10406,5.20965 4.26244,10.8929 -1.89442,3.78883 -9.47208,6.63045 -7.10406,2.84163 -14.20812,4.26244 -10.41929,12.78731 -15.15533,35.5203 -4.26244,22.25939 -6.63046,43.09796 5.20965,13.26092 -5.68325,15.15533 -5.68325,0.94721 -13.73451,1.42081 -7.57767,0 -16.57614,-0.4736 -10.8929,0 -23.2066,0.4736 -12.3137,0 -23.6802,1.89442 0.4736,4.73604 0.4736,11.3665 0.47361,6.15685 0,9.94568 7.57767,-0.94721 16.57614,-0.94721 8.99848,0 17.99696,0 16.57614,0.47361 31.73146,0 15.15533,-0.94721 22.733,-8.52487 15.15533,1.42081 32.67867,5.68325 17.99696,3.78883 31.25787,11.36649 13.26091,7.57767 14.68172,20.83858 -15.15533,0 -30.78426,-0.4736 -15.62893,-0.47361 -31.25786,-0.94721 -27.46904,-0.47361 -54.46446,-0.94721 -26.52183,-0.4736 -49.72842,0.4736 0,2.36802 0,5.20965 0.4736,2.84162 0.4736,5.68325 0.4736,13.26091 0.4736,30.78426 0,17.52334 -3.31522,34.09948 -3.31523,16.57614 -13.26092,26.52183 -8.05126,-1.42081 -12.3137,-11.3665 -3.78883,-9.47208 -5.20964,-23.20659 -1.42082,-13.26092 -1.42082,-26.99543 0,-14.20812 0.47361,-24.15381 0,-5.20964 0,-8.52487 0,-3.78883 0,-5.20964 -28.41624,-0.47361 -53.51725,3.31523 -25.10102,3.31522 -49.72842,15.62893 -23.6802,0.4736 -36.46751,-10.41929 -12.31371,-11.3665 -21.78579,-26.04822 12.31371,-1.89442 26.04822,-1.42081 13.73452,0 29.83706,-1.42081 24.6274,-1.89442 50.67562,-3.31523 26.52183,-1.89442 54.46446,-3.78883 0.47361,-2.36802 0.47361,-6.15686 0,-3.78883 -0.47361,-8.05126 0,-1.89442 0,-3.78884 0,-1.89441 0,-3.31522 -1.42081,0 -3.31522,0 -1.42082,0 -2.84163,0.4736 -8.05127,0 -16.10253,0.4736 -8.05127,0 -15.15533,-0.4736 -6.15685,9.47208 -14.68173,8.05127 -8.05126,-1.89442 -16.57614,-8.99848 -8.05126,-7.10406 -14.20812,-13.26091 -1.42081,-1.42081 -2.36802,-2.36802 0,-6.15685 0.94721,-12.31371 0.94721,-6.63045 1.89442,-13.26091 1.89441,-11.8401 2.36802,-22.73299 0.94721,-11.3665 -2.84163,-21.31218 -2.84162,-8.05127 -9.47208,-12.78731 -6.63045,-4.73604 -12.3137,-9.94568 -5.20964,-5.20965 -6.15685,-14.20812 13.26091,0 25.57461,-1.42081 12.31371,-1.89442 25.10102,-4.26244 13.73451,-2.36802 27.94263,-4.26244 14.68173,-1.89441 31.25787,-1.89441 0.4736,-2.36802 0,-7.10406 -0.47361,-5.20965 -0.47361,-9.94569 -0.4736,-2.84162 -0.4736,-3.78883 -1.42081,0 -3.31523,0 -1.89442,0 -3.78883,0 -9.47208,0.47361 -20.36497,1.42081 -10.41929,0.47361 -18.94416,4.73604 -14.68173,-5.20964 -26.52183,-12.3137 -11.8401,-7.57766 -13.26091,-26.04822 20.36497,4.73604 42.62436,7.10406 22.25939,1.89442 41.67715,-1.89442 0.47361,-15.62893 -3.31523,-24.6274 -3.78883,-8.99848 -10.41928,-14.68173 -6.63046,-5.68325 -15.15533,-10.89289 4.26243,-0.94721 7.10406,-1.89442 3.31523,-1.42081 6.63045,-4.73604 -15.62893,0.94721 -33.15228,2.36802 -17.04974,0.94721 -30.31065,4.73604 -13.26091,3.78884 -17.99695,12.78731 -6.15686,11.3665 -10.41929,26.99543 -3.78883,15.62893 -7.57767,31.73147 -3.78883,16.10253 -9.47208,29.83705 0.47361,1.89442 0.94721,3.78883 0.94721,1.89442 1.89442,3.78883 1.89441,4.73604 3.31523,9.94569 1.42081,4.73604 -0.47361,9.47208 -14.20812,0 -27.46903,-7.10406 -12.78731,-7.10406 -22.25939,-17.52335 -9.47208,-10.89289 -13.73452,-21.78578 13.26092,-3.78884 20.83858,-12.31371 7.57766,-8.99847 11.8401,-20.83857 4.73604,-12.31371 8.52487,-25.10102 -3.78883,-9.94568 -9.94568,-17.04974 -6.15685,-7.57766 -14.20812,-13.26091 0.4736,-6.63046 6.15685,-8.05127 6.15685,-1.89442 10.89289,-4.26244 8.05127,-0.4736 22.733,-1.42081 14.68172,-1.42081 33.15228,-3.31523 26.04822,-1.89441 57.77968,-4.73604 32.20508,-2.84162 64.88375,-4.73604 33.15228,-1.89441 62.98933,-2.36802 30.31066,-0.94721 53.51726,0.47361 23.6802,1.42081 35.5203,6.15685 3.78883,3.31523 7.57766,7.10406 3.78883,3.31523 8.05127,6.15685 1.42081,2.84163 3.31523,5.68325 2.36802,2.36802 4.73604,5.68325 7.10406,9.47208 13.73451,20.83857 6.63046,10.8929 4.73604,25.10102 z M 718.07748,643.66659 q 0.4736,-3.31523 0.4736,-6.63046 0.47361,-3.78883 0.94721,-7.57766 1.89442,-17.99696 1.89442,-36.46751 0.4736,-18.47056 -6.63046,-39.78274 -7.57766,1.89442 -19.41776,2.36802 -11.3665,0.47361 -21.78579,1.42081 -0.4736,6.15686 -0.4736,13.73452 0.4736,7.57766 0,12.78731 12.78731,3.31523 22.73299,8.99847 10.41929,5.20965 17.99695,14.20812 -10.89289,0.94721 -21.31218,2.36802 -9.94568,1.42082 -18.94416,4.73604 -0.4736,4.73604 -0.4736,8.52488 0,3.31522 0,7.10406 0,3.31522 0,7.10406 0.4736,3.31522 0,8.05126 4.26244,0 8.52487,-0.4736 4.26244,-0.4736 8.52487,-0.94721 7.57767,-0.4736 14.68173,-0.4736 7.10406,-0.47361 13.26091,0.94721 z m -76.72385,-27.46904 q -12.3137,0.94721 -23.20659,0.94721 -10.41929,0 -21.31218,-3.78883 -0.47361,8.99848 -0.94721,18.47056 0,9.47208 0,17.04974 4.73604,0.4736 12.78731,0.4736 8.52487,-0.4736 16.57614,-1.42081 4.26243,-0.4736 8.05126,-0.4736 4.26244,-0.47361 7.57767,-0.47361 0.4736,-5.20964 0.4736,-14.20812 0,-9.47208 0,-16.57614 z m -1.89441,-55.88527 q -10.41929,-1.42081 -23.6802,2.36802 -12.78731,3.31523 -21.31218,7.10406 1.42081,5.20965 1.89441,12.31371 0.47361,6.63045 0.47361,10.89289 9.47208,0.4736 20.36497,-0.47361 10.89289,-1.42081 22.73299,-5.20964 z"
     id="path3427"
     style="font-size:473.604px;font-family:'Yuji Mai';-inkscape-font-specification:'Yuji Mai';fill:#29303d;stroke-width:27.7812;filter:url(#filter1178)"
     clip-path="url(#clipPath900)" /><path
     d="m 516.04026,734.11746 c 6.706,1.377 14.303,-3.694 11.396,-7.608 -2.907,-3.914 -16.319,-6.67 -20.118,-4.133 -3.799,2.537 2.017,10.364 8.722,11.741 z"
     filter="url(#K)"
     id="path83"
     style="fill:#ffffff" /><path
     d="m 793.17282,510.05878 c 6.706,1.377 14.303,-3.694 11.396,-7.608 -2.907,-3.914 -16.319,-6.67 -20.118,-4.133 -3.799,2.537 2.017,10.364 8.722,11.741 z"
     filter="url(#K)"
     id="path83-1"
     style="fill:#ffffff;filter:url(#K-5)" /><path
     d="m 476.54379,543.55452 c 4.239,3.796 11.501,0.682 10.894,-4.671 -0.607,-5.353 -9.083,-12.949 -12.715,-11.392 -3.632,1.557 -2.417,12.267 1.821,16.063 z"
     filter="url(#J)"
     id="path85"
     style="fill:#ffffff" /><path
     d="m 636.01976,778.8165 c 2.702,0.685 11.477,-3.714 13.164,-6.599 1.687,-2.885 -3.715,-4.257 -8.105,-2.057 -4.39,2.2 -7.762,7.971 -5.059,8.656 z"
     filter="url(#H)"
     id="path89"
     style="fill:#ffffff"
     transform="rotate(110,637.54707,790.91463)" /><path
     d="m 636.01976,778.8165 c 2.702,0.685 11.477,-3.714 13.164,-6.599 1.687,-2.885 -3.715,-4.257 -8.105,-2.057 -4.39,2.2 -7.762,7.971 -5.059,8.656 z"
     filter="url(#H)"
     id="path89-1"
     style="fill:#ffffff;filter:url(#H-5)"
     transform="rotate(70,688.95739,661.37544)" /></svg>
