<?xml version="1.0" encoding="UTF-8" standalone="no"?>
<svg
   width="498.898"
   height="544.252"
   viewBox="0 0 1320 1440"
   version="1.1"
   id="svg103"
   sodipodi:docname="wF.svg"
   inkscape:version="1.2.2 (732a01da63, 2022-12-09)"
   xmlns:inkscape="http://www.inkscape.org/namespaces/inkscape"
   xmlns:sodipodi="http://sodipodi.sourceforge.net/DTD/sodipodi-0.dtd"
   xmlns="http://www.w3.org/2000/svg"
   xmlns:svg="http://www.w3.org/2000/svg">
  <sodipodi:namedview
     id="namedview105"
     pagecolor="#ffffff"
     bordercolor="#000000"
     borderopacity="0.25"
     inkscape:showpageshadow="2"
     inkscape:pageopacity="0.0"
     inkscape:pagecheckerboard="0"
     inkscape:deskcolor="#d1d1d1"
     showgrid="false"
     inkscape:zoom="2.0164"
     inkscape:cx="241.76751"
     inkscape:cy="279.21047"
     inkscape:window-width="1920"
     inkscape:window-height="974"
     inkscape:window-x="-11"
     inkscape:window-y="-11"
     inkscape:window-maximized="1"
     inkscape:current-layer="svg103" />
  <style
     id="style2">.B{color-interpolation-filters:sRGB}</style>
  <defs
     id="defs53">
    <filter
       id="C"
       x="-0.01052904"
       y="-0.011053209"
       width="1.0210581"
       height="1.0221064"
       class="B">
      <feGaussianBlur
         stdDeviation="2.441"
         id="feGaussianBlur4" />
    </filter>
    <filter
       id="E"
       x="-0.047960027"
       y="-0.048037478"
       width="1.0959201"
       height="1.096075"
       class="B">
      <feGaussianBlur
         stdDeviation="7.58"
         id="feGaussianBlur7" />
    </filter>
    <filter
       id="G"
       x="-0.048002438"
       y="-0.048002441"
       width="1.0960049"
       height="1.0960049"
       class="B">
      <feGaussianBlur
         stdDeviation="5.51"
         id="feGaussianBlur10" />
    </filter>
    <filter
       id="H"
       x="-0.15500487"
       y="-0.17417449"
       width="1.3100097"
       height="1.348349"
       class="B">
      <feGaussianBlur
         stdDeviation="1.005"
         id="feGaussianBlur13" />
    </filter>
    <filter
       id="I"
       x="-0.16749596"
       y="-0.21712731"
       width="1.3349919"
       height="1.4342546"
       class="B">
      <feGaussianBlur
         stdDeviation="1.005"
         id="feGaussianBlur16" />
    </filter>
    <filter
       id="J"
       x="-0.13868595"
       y="-0.16783961"
       width="1.2773719"
       height="1.3356792"
       class="B">
      <feGaussianBlur
         stdDeviation="1.005"
         id="feGaussianBlur19" />
    </filter>
    <filter
       id="K"
       x="-0.19308802"
       y="-0.25104453"
       width="1.386176"
       height="1.5020891"
       class="B">
      <feGaussianBlur
         stdDeviation="1.005"
         id="feGaussianBlur22" />
    </filter>
    <filter
       id="L"
       x="-0.10037904"
       y="-0.12979434"
       width="1.2007581"
       height="1.2595887"
       class="B">
      <feGaussianBlur
         stdDeviation="1.005"
         id="feGaussianBlur25" />
    </filter>
    <filter
       id="M"
       x="-0.11922398"
       y="-0.14197023"
       width="1.238448"
       height="1.2839405"
       class="B">
      <feGaussianBlur
         stdDeviation="1.005"
         id="feGaussianBlur28" />
    </filter>
    <linearGradient
       id="A"
       x1="228.547"
       y1="660.587"
       x2="270.281"
       y2="660.587"
       spreadMethod="reflect"
       gradientUnits="userSpaceOnUse">
      <stop
         offset="0"
         stop-color="#ffd285"
         id="stop31" />
      <stop
         offset=".232"
         stop-color="#ffcd79"
         id="stop33" />
      <stop
         offset=".616"
         stop-color="#ffca73"
         id="stop35" />
      <stop
         offset=".808"
         stop-color="#ffd386"
         id="stop37" />
      <stop
         offset="1"
         stop-color="#ffc86e"
         id="stop39" />
    </linearGradient>
    <linearGradient
       id="B"
       x1="660.031"
       y1="176.668"
       x2="660.029"
       y2="1147.598"
       gradientUnits="userSpaceOnUse">
      <stop
         offset=".597"
         stop-color="#fff"
         id="stop42" />
      <stop
         offset="1"
         id="stop44" />
    </linearGradient>
    <clipPath
       id="D">
      <path
         d="M-309.997 569.351c-12.933-14.657-33.194-29.746-54.318-36.643-15.951-5.173-32.332-5.604-46.99 2.155-27.59-4.311-46.99-.431-68.113-1.293.862-8.622-2.587-22.417 3.449-26.297 20.261 0 40.954-4.311 61.216-6.466 6.898-.862 14.226 4.311 18.537-3.018-12.502-17.244-45.696-25.435-81.477-16.382-.862-9.484-1.724-15.088 1.724-26.297 30.177-1.724 57.336-1.293 81.477-11.209-6.035-12.502-22.848-20.262-43.541-22.848-6.466 6.466-21.124 5.173-34.488 5.173 4.742-18.106-6.035-26.728-10.346-37.505 27.159-5.604 68.975-.862 101.308-3.449-.431-20.693-38.799-27.59-57.336-25.004-23.279 3.449-51.732 2.155-75.442 3.88-36.643 2.587-71.131 10.777-104.756 12.933-3.018.862.431 7.76-3.018 8.191-6.898.431-8.622-4.742-16.813-3.018-4.742 8.622 3.88 13.364 5.173 21.124 12.933 3.88 17.675 14.657 18.106 30.608.862 33.194 0 91.824-8.191 120.707 9.915 9.053 15.519 22.848 26.728 30.608 2.155-2.587 16.382-5.604 16.382-11.209 62.509-6.898 122-16.813 179.336-12.933 7.329 25.866-5.173 51.732-6.466 73.286-.431 4.742 4.311 9.915 3.449 14.657-2.155 13.795-12.502 23.71-23.279 28.883 0-3.018 19.399-16.382 18.537-22.848-13.364 9.053-25.866 30.608-43.541 32.763-25.004 3.018-52.594-18.968-75.011-11.209 17.244 6.898 28.883 20.693 38.368 35.781 18.106 9.484 30.608 27.59 56.474 25.866 13.795-.862 35.35-12.071 44.834-21.124 28.883-26.728 25.435-85.357 36.643-126.742 18.106-2.587 34.488-12.502 41.385-21.124zm-140.968 72.855c2.587-9.915 2.156-18.106 0-25.004-5.604-18.968-26.297-28.883-48.283-36.643 1.293 6.035 2.156 12.933 1.724 21.124 12.933 15.519 19.83 43.972 46.558 40.523zm-60.353-16.813c-6.466-19.83-31.039-31.47-44.403-38.368-4.311 34.057 17.244 62.509 43.11 63.371 3.88-9.484 3.449-17.675 1.293-25.004zm-60.785 7.76c-6.035-19.83-28.452-34.488-46.99-41.385 5.604 29.746 12.071 67.251 44.834 68.544 4.311-9.915 4.742-18.968 2.155-27.159zm-65.096 40.092c10.777-46.558-20.262-64.233-50.007-79.753-8.191 8.622 10.777 31.901 1.724 45.696 9.915 7.76 16.382 22.848 26.728 30.608 5.604 4.311 12.502 6.466 21.555 3.449zm124.587-242.276c-23.71-.431-37.936 6.898-64.664 4.742 2.587-6.898.862-21.986-3.449-27.159 12.502-15.088 42.247-14.226 64.664-16.813 2.155 12.071 4.311 24.141 3.449 39.23zm-1.724 55.18c-25.004.431-40.954 2.587-62.94 4.742-3.449-7.329-1.293-24.141 0-27.59 24.141-2.155 38.368-7.329 62.94-6.466-.431 10.777 1.724 19.83 0 29.315zm1.724 50.438c-24.572 6.898-45.265 6.466-66.389 8.191-1.293-8.622 3.018-19.83 1.293-27.159 23.71 1.724 38.799-9.484 63.371-8.622-.431 10.346 3.018 16.382 1.724 27.59z"
         stroke-width="21.389"
         id="path47" />
    </clipPath>
    <clipPath
       id="F">
      <path
         d="M1799.132 1043.254a7.22 7.22 0 0 0-7.237 7.237v107.141l-44.726-44.726 10.889-10.886c-.771-2.729-3.59-5.548-6.319-6.319l-30.343-8.569-5.259-5.26a7.222 7.222 0 0 0-10.237 0l-3.45 3.45a7.222 7.222 0 0 0 0 10.237l5.259 5.259 8.569 30.343c.771 2.729 3.59 5.548 6.319 6.319l10.886-10.889 44.726 44.726h-107.141a7.22 7.22 0 0 0-7.237 7.237v4.88c0 4.01 3.227 7.24 7.237 7.24h107.141l-44.726 44.726-10.886-10.889c-2.729.771-5.548 3.586-6.319 6.315l-8.569 30.347-5.259 5.259a7.222 7.222 0 0 0 0 10.237l3.45 3.45a7.222 7.222 0 0 0 10.237 0l5.266-5.266 30.337-8.565c2.729-.771 5.548-3.586 6.319-6.315l-10.889-10.886 44.726-44.726v107.138c0 4.01 3.227 7.24 7.237 7.24h4.88c4.01 0 7.24-3.23 7.24-7.24v-107.138l44.726 44.726-10.889 10.886c.771 2.729 3.586 5.545 6.315 6.315l30.34 8.565 5.266 5.266a7.222 7.222 0 0 0 10.237 0l3.45-3.45a7.222 7.222 0 0 0 0-10.237l-5.266-5.266-8.565-30.34c-.771-2.729-3.586-5.545-6.315-6.315l-10.886 10.889-44.726-44.726h107.138c4.01 0 7.24-3.23 7.24-7.24v-4.88c0-4.01-3.23-7.237-7.24-7.237H1824.94l44.726-44.726 10.886 10.889c2.729-.771 5.545-3.59 6.315-6.319l8.565-30.337 5.266-5.266a7.222 7.222 0 0 0 0-10.237l-1.725-1.725-1.725-1.725a7.222 7.222 0 0 0-10.237 0l-5.259 5.26-30.347 8.569c-2.729.771-5.545 3.59-6.315 6.319l10.889 10.886-44.726 44.726V1050.49c0-4.01-3.23-7.237-7.24-7.237zm2.438 137.74h.01v.01h-.01z"
         stroke-width="1.534"
         id="path50" />
    </clipPath>
    <filter
       inkscape:menu-tooltip="In and out glow with a possible offset and colorizable flood"
       inkscape:menu="Shadows and Glows"
       inkscape:label="Cutout Glow"
       style="color-interpolation-filters:sRGB;"
       id="filter1889"
       x="-0.035304156"
       y="-0.017821078"
       width="1.0500826"
       height="1.0603937">
      <feOffset
         dy="10"
         dx="-10"
         id="feOffset1879" />
      <feGaussianBlur
         stdDeviation="3"
         result="blur"
         id="feGaussianBlur1881" />
      <feFlood
         flood-color="rgb(0,0,0)"
         flood-opacity="0"
         result="flood"
         id="feFlood1883" />
      <feComposite
         in="flood"
         in2="SourceGraphic"
         operator="in"
         result="composite"
         id="feComposite1885" />
      <feBlend
         in="blur"
         in2="composite"
         mode="normal"
         id="feBlend1887" />
    </filter>
    <filter
       inkscape:menu-tooltip="In and out glow with a possible offset and colorizable flood"
       inkscape:menu="Shadows and Glows"
       inkscape:label="Cutout Glow"
       style="color-interpolation-filters:sRGB"
       id="filter1889-1"
       x="-0.035304156"
       y="-0.017821078"
       width="1.0500826"
       height="1.0603937">
      <feOffset
         dy="10"
         dx="-10"
         id="feOffset1879-4" />
      <feGaussianBlur
         stdDeviation="3"
         result="blur"
         id="feGaussianBlur1881-6" />
      <feFlood
         flood-color="rgb(0,0,0)"
         flood-opacity="1"
         result="flood"
         id="feFlood1883-8" />
      <feComposite
         in="flood"
         in2="SourceGraphic"
         operator="in"
         result="composite"
         id="feComposite1885-3" />
      <feBlend
         in="blur"
         in2="composite"
         mode="normal"
         id="feBlend1887-6" />
    </filter>
    <filter
       id="I-5"
       x="-0.16749596"
       y="-0.21712731"
       width="1.3349919"
       height="1.4342546"
       class="B">
      <feGaussianBlur
         stdDeviation="1.005"
         id="feGaussianBlur16-5" />
    </filter>
    <clipPath
       clipPathUnits="userSpaceOnUse"
       id="clipPath933">
      <path
         d="m 896.25778,739.25423 q -11.25801,7.34219 -24.47394,5.38427 -12.72646,-1.46844 -25.94239,-7.83166 -12.72645,-6.36323 -23.49499,-12.72646 l -0.97896,-0.48948 q -7.83166,-12.72645 -14.68439,-29.85821 -6.3632,-17.13179 -11.25802,-34.75301 -4.89479,-17.62124 -7.83166,-31.81613 -6.85271,-19.08968 -14.68437,-44.54259 -7.83164,-25.94238 -15.66333,-54.33219 -7.83166,-28.38978 -16.15278,-55.8006 -7.83169,-27.41082 -15.17387,-49.92685 -8.81062,4.89479 -16.64229,10.76853 -7.83166,5.38427 -14.68437,8.81062 -0.48947,4.40531 2.4474,7.34219 3.42635,2.93687 7.34218,5.87375 3.91584,2.44739 6.85271,5.38426 3.42635,2.4474 4.89479,6.36323 -3.42635,23.00551 -3.42635,46.01105 0.48947,22.51603 0.97895,45.03204 0.97896,23.49501 0.97896,46.50053 0,23.00551 -3.91583,45.03206 -0.97896,5.87375 3.42635,5.38427 0,0.48948 -0.97896,1.95792 -1.46843,5.38426 -2.93687,11.74749 -0.97896,5.87375 2.93687,10.27906 8.81063,-5.38427 14.19489,-14.68437 5.38427,-9.3001 11.7475,-17.62124 0,-10.27906 -3.42635,-16.15281 -2.93688,-5.87375 -6.85271,-10.76854 -3.91583,-5.38426 -6.36322,-12.72645 17.13176,4.40531 30.83717,17.62124 13.70541,12.72646 21.04762,31.81614 7.34216,18.6002 5.38427,40.62675 -6.36325,5.38427 -11.25804,3.42635 -4.40531,-2.44739 -8.8106,-6.36322 -1.95794,-1.46844 -3.42638,-2.93688 -1.46843,-1.46843 -3.42635,-2.44739 -13.21593,18.11072 -23.00551,30.83717 -9.3001,12.72646 -26.43186,23.98447 -15.66333,-9.78958 -30.83718,-20.55811 -14.68437,-11.25802 -21.04757,-32.79512 7.34216,1.46846 14.19487,3.42638 7.34218,1.95789 13.21593,4.89479 8.32114,-37.2004 7.34218,-79.78507 -0.97896,-43.07415 -3.42635,-89.57468 -0.97896,-19.08968 -1.95792,-38.17936 -0.97895,-19.57916 -1.46843,-39.15832 -15.17385,13.70541 -34.26353,15.17385 -19.08968,0.97896 -33.77405,-11.25802 21.5371,-11.25801 45.52157,-23.49499 23.98444,-12.23697 43.07412,-34.753 2.4474,2.93687 5.38427,1.95791 3.42635,-1.46843 7.34219,-3.91583 1.95791,-1.46843 2.93687,-1.95791 0,-0.97896 -0.97896,-3.91584 -0.48948,-1.95791 -0.48948,-2.93687 0,-0.97896 2.93688,-0.97896 -1.95792,-6.8527 -6.85271,-10.27906 -4.40531,-3.91583 -6.36323,-11.25801 0.48948,-0.48948 1.46844,-1.46844 1.95792,-1.46844 1.46844,-3.91583 7.34218,3.91583 15.66333,5.38427 8.32114,0.97896 16.1528,1.46844 12.237,0.97895 22.51603,4.40531 10.76854,2.93687 16.15281,17.62124 -11.25802,9.78958 -22.02653,19.08968 -10.76856,9.3001 -24.96345,10.27906 13.21593,12.23697 22.02655,30.34769 8.81062,17.62125 15.66333,37.68988 7.34221,19.57916 15.17387,38.17936 8.32112,18.60023 20.06864,32.79512 20.06864,66.07966 64.12174,108.66433 0.48948,6.3632 4.40532,12.72645 4.40531,5.87375 8.81062,12.23698 4.89479,6.36322 6.8527,14.68436 0.48948,2.93688 2.4474,3.42636 2.44739,0.48948 3.91583,1.95789 0,3.42638 0.48948,6.36325 0.48948,2.93687 0.97896,5.87375 0.97895,4.40531 1.46843,8.81062 0.48948,3.91583 -0.48948,8.32114 z M 600.12298,380.46612 q 0,1.46844 0,2.93688 0,1.46844 0,2.93687 0.48948,4.89479 0,9.3001 0,4.40531 -0.97895,7.34219 -14.68437,6.36322 -28.38978,14.19489 -13.21594,7.83166 -21.53708,22.02655 1.95792,7.83166 8.81062,13.21593 7.34219,4.89479 10.76854,12.23698 3.42635,7.34218 3.42635,16.64228 0,8.81062 -0.48948,18.11072 -0.48947,5.87375 -0.48947,11.25802 0,5.38427 0.48947,10.76856 0.48948,5.87375 1.46844,11.25802 0.97896,4.89479 2.4474,10.27903 1.95791,8.81065 2.93687,17.62127 1.46844,8.81062 0.97896,19.57916 -0.48948,10.76854 -0.48948,22.02655 0,11.25802 0.48948,22.51603 0.48948,20.06864 0,39.15832 -0.48948,19.08968 -4.89479,35.73197 -4.40531,16.64228 -15.17385,28.87925 0.48948,2.4474 0,3.91584 0,1.46843 -0.48948,2.44739 -0.97896,2.4474 -0.97896,4.40531 -4.89479,4.89479 -9.78958,9.3001 -4.89479,4.89479 -8.32114,11.7475 -7.83166,4.40531 -12.72645,1.46843 -4.40531,-2.93687 -8.81062,-8.32114 -1.95792,-2.44739 -4.40531,-4.89479 -1.95792,-1.95791 -4.40531,-3.91583 -6.36323,-4.89479 -14.68437,-11.25802 -7.83167,-6.36322 -14.19489,-13.21593 -5.87375,-7.34218 -6.85271,-13.21593 -1.46844,-2.93687 -4.40531,-3.42635 -2.44739,-0.48948 -3.91583,-5.38427 4.40531,0 8.32114,0.97896 4.40531,0.97893 8.81062,2.44739 6.85271,1.95792 13.70541,3.42633 6.85271,0.97898 15.17385,-0.97893 13.21593,-3.91586 20.06864,-17.62125 6.8527,-13.70541 9.78958,-33.28457 1.95791,-13.70541 2.93687,-30.34769 0.97896,-16.64229 0.97896,-33.28457 0,-17.13179 -0.48948,-29.85822 0,-4.40531 -0.48948,-9.78958 -0.48948,-5.38429 -0.48948,-5.38429 -15.17384,11.74752 -29.85821,32.79509 -14.68437,21.04762 -26.43187,41.11626 -7.83166,2.93687 -10.76853,9.3001 -2.93688,6.36322 -4.89479,13.21593 -3.42636,1.95792 -7.34219,5.87375 -3.42635,3.42635 -6.8527,7.34218 -5.87375,6.85271 -12.72646,13.21591 -6.8527,5.87377 -15.66332,8.32114 -8.32115,1.95794 -19.57916,-3.42633 18.11072,-25.4529 35.73196,-51.88477 17.62124,-26.92134 40.62676,-49.92685 2.44739,-15.66333 14.19489,-30.3477 12.23697,-15.17387 21.04759,-29.85824 6.85271,-10.76854 10.76854,-23.00551 4.40531,-12.72645 -4.40531,-24.96343 -11.25802,6.36323 -21.0476,15.66333 -9.3001,8.81062 -19.57916,14.68437 -8.81062,4.89479 -19.08968,5.87374 -9.78958,0.48948 -23.00551,-5.87374 0.97896,-2.93688 0,-4.89479 -0.97895,-1.95792 -4.89479,-0.48948 2.93688,-4.89479 6.85271,-5.87375 3.91583,-1.46844 6.8527,-2.44739 2.93688,-1.46844 3.42636,-4.89479 2.44739,-0.97896 3.42635,0 0.97896,0.48948 1.95792,1.46843 1.46843,2.4474 3.91583,1.95792 -3.91583,-5.87375 1.46843,-11.25802 1.46844,-0.48948 3.42636,2.4474 1.46843,1.95791 3.42635,2.93687 2.44739,0.48948 8.81062,-7.83166 5.87375,-7.83167 12.72645,-18.11072 6.85271,-10.27906 11.7475,-12.23698 -5.38427,-8.32114 -13.21593,-16.1528 -7.83167,-7.83167 -14.19489,-16.15281 -6.36323,-8.32114 -8.32115,-18.11072 15.66333,3.91583 27.90031,13.21593 12.23697,8.81062 23.49499,18.6002 7.83166,-3.42635 12.72645,-9.78958 5.38427,-6.8527 11.74749,-11.74749 -2.44739,-6.85271 -8.32114,-10.27906 -5.87375,-3.42635 -7.83166,-11.25802 17.62124,-9.78958 35.24248,-5.87374 18.11073,3.42635 32.79509,14.68436 z m 50.41634,118.45391 q 0,4.40531 0,9.30013 0.4895,4.40531 0.4895,9.3001 0.97896,32.79509 0.97896,66.56914 0,33.28457 -4.40531,61.18487 -4.40534,27.9003 -16.64231,44.05311 -0.48948,5.38427 -0.48948,6.3632 0,0.4895 0.97896,6.36325 -3.42633,0.48948 -4.40531,2.44739 -0.48948,1.95792 -0.48948,4.40532 0,1.95791 -0.97896,3.42635 -0.48948,1.46844 -3.42635,0.97896 2.93687,2.93687 1.95791,4.40531 -0.97893,1.46843 -2.93687,2.93687 -1.95792,1.46844 -3.91583,3.91583 -1.95792,2.4474 -0.97896,7.34219 -8.81062,0.97895 -13.70541,6.36322 -4.89479,5.38427 -9.3001,11.25802 -1.46844,0.97896 -1.46844,-2.93687 0.48948,-4.89479 -1.95791,-4.40532 1.95791,-1.95791 1.95791,-3.42635 0,-1.95791 -0.48948,-3.42635 -0.48948,-2.4474 0,-3.91583 0.97896,-1.46844 7.83167,-2.4474 0.97895,-2.93687 -1.46844,-3.91583 -2.93687,-0.48948 -1.95792,-3.42635 2.93688,-0.97896 4.89479,-7.34219 1.95792,-6.36322 3.91584,-13.70541 2.44739,-7.83166 5.87374,-12.72645 0,-1.95794 -0.97896,-0.97896 7.34219,-18.6002 11.25802,-45.52154 3.91583,-26.92134 4.40531,-58.248 0.48948,-31.81613 -2.93687,-65.1007 -4.89479,-8.32117 -9.78958,-13.70544 -4.89479,-5.87375 -9.3001,-12.72645 -3.91583,-6.85271 -6.85271,-18.6002 15.17385,4.89479 29.85822,9.78958 15.17385,4.89479 24.47395,16.1528 z"
         id="path935"
         style="font-size:489.479px;font-family:'Yuji Mai';-inkscape-font-specification:'Yuji Mai';fill:#29303d;stroke-width:27.7812"
         inkscape:label="path1316" />
    </clipPath>
  </defs>
  <path
     d="m-2758.546 269.702 24.453 34.897h517.576l14.375-11.25-104.69-501.167-31.462-17.601z"
     transform="matrix(-2.0051 0 0 2.0051 -4364.078 800.65)"
     opacity=".5"
     filter="url(#C)"
     id="path55" />
  <path
     d="M660.043 176.666 306.898 293.594l-167.217 974.019 13.3 73.818 20.099 16.718h973.903l20.099-16.718 13.324-73.818-167.217-974.019z"
     fill="url(#A)"
     id="path57" />
  <path
     d="M660.031 176.668 306.887 293.595l-167.217 974.02 13.312 73.816 20.099 16.719h973.903l20.099-16.719 13.312-73.816-167.217-974.019z"
     opacity=".25"
     fill="url(#B)"
     style="mix-blend-mode:overlay"
     id="path59" />
  <path
     d="m1159.664 1262.571-.043 21.064 20.75-16.013-20.707-5.052z"
     opacity=".8"
     fill="#fff"
     id="path61" />
  <path
     d="m1180.371 1267.622-20.75 16.013-12.637 74.514 20.099-16.718 13.288-73.808z"
     opacity=".6"
     id="path63" />
  <g
     fill="#fff"
     id="g69">
    <path
       d="m306.85 293.586 17.664 13.248L660 193.058v-16.402zM1013.15 293.586l-17.664 13.248L660 193.058v-16.402z"
       opacity=".3"
       id="path65" />
    <path
       d="m1013.15 293.586-17.664 13.248 164.177 955.737 20.707 5.052z"
       opacity=".3"
       id="path67" />
  </g>
  <path
     d="m306.85 293.586 17.664 13.248-164.177 955.737-20.707 5.052z"
     opacity=".4"
     id="path71" />
  <path
     d="m139.629 1267.622 20.75 16.013 12.702 74.514-20.099-16.718-13.353-73.808z"
     opacity=".9"
     id="path73" />
  <path
     d="m160.337 1262.571.043 21.064-20.75-16.013 20.707-5.052z"
     opacity=".6"
     id="path75" />
  <path
     d="M160.337 1262.571h999.327l-.043 21.064H160.379l-.043-21.064z"
     opacity=".2"
     id="path77" />
  <path
     d="m1159.621 1283.635-12.637 74.514H173.081l-12.702-74.514h999.241z"
     opacity=".7"
     id="path79" />
  <path
     d="M643.199 817.8a10.4 10.4 0 0 0-10.425 10.425v154.348l-64.433-64.433 15.687-15.682c-1.11-3.931-5.172-7.993-9.103-9.103l-43.713-12.344-7.577-7.577a10.405 10.405 0 0 0-14.747 0l-4.971 4.971a10.405 10.405 0 0 0 0 14.747l7.577 7.577 12.344 43.713c1.11 3.932 5.171 7.993 9.103 9.103l15.682-15.687 64.433 64.433H458.708a10.4 10.4 0 0 0-10.425 10.425v7.029c0 5.777 4.648 10.43 10.425 10.43h154.348l-64.433 64.433-15.682-15.687c-3.931 1.11-7.993 5.167-9.103 9.098l-12.344 43.717-7.577 7.577a10.405 10.405 0 0 0 0 14.747l4.971 4.971a10.405 10.405 0 0 0 14.747 0l7.587-7.587 43.703-12.339c3.931-1.11 7.993-5.167 9.103-9.098l-15.687-15.682 64.433-64.433v154.343c0 5.777 4.648 10.43 10.425 10.43h7.03a10.41 10.41 0 0 0 10.43-10.43v-154.343l64.433 64.433-15.687 15.682c1.11 3.931 5.167 7.988 9.098 9.098l43.708 12.339 7.586 7.587a10.405 10.405 0 0 0 14.747 0l4.971-4.971a10.405 10.405 0 0 0 0-14.747l-7.587-7.586-12.339-43.708c-1.11-3.931-5.167-7.988-9.098-9.098l-15.682 15.687-64.433-64.433h154.343a10.41 10.41 0 0 0 10.43-10.43v-7.029a10.404 10.404 0 0 0-10.43-10.425H680.376l64.433-64.433 15.682 15.687c3.931-1.11 7.988-5.172 9.098-9.103l12.339-43.703 7.587-7.586a10.405 10.405 0 0 0 0-14.747l-2.485-2.485-2.485-2.485a10.405 10.405 0 0 0-14.747 0l-7.577 7.577-43.717 12.344c-3.932 1.11-7.988 5.171-9.098 9.103l15.687 15.682-64.433 64.433v-154.35a10.404 10.404 0 0 0-10.43-10.425zm3.512 198.429h.014v.014h-.014z"
     fill="#340000"
     id="path85"
     style="fill:#000000;fill-opacity:1" />
  <path
     d="M1789.451 1052.929a7.22 7.22 0 0 0-7.237 7.237v107.141l-44.726-44.726 10.889-10.886c-.771-2.729-3.59-5.548-6.319-6.319l-30.343-8.569-5.259-5.26a7.222 7.222 0 0 0-10.237 0l-3.45 3.45a7.222 7.222 0 0 0 0 10.237l5.259 5.259 8.569 30.343c.771 2.729 3.59 5.548 6.319 6.319l10.886-10.889 44.726 44.726h-107.141a7.22 7.22 0 0 0-7.237 7.237v4.88c0 4.01 3.227 7.24 7.237 7.24h107.141l-44.726 44.726-10.886-10.889c-2.729.771-5.548 3.586-6.319 6.315l-8.569 30.347-5.259 5.259a7.222 7.222 0 0 0 0 10.237l3.45 3.45a7.222 7.222 0 0 0 10.237 0l5.266-5.266 30.336-8.565c2.729-.771 5.548-3.586 6.319-6.315l-10.889-10.886 44.726-44.726v107.138c0 4.01 3.227 7.24 7.237 7.24h4.88c4.01 0 7.24-3.23 7.24-7.24v-107.138l44.726 44.726-10.889 10.886c.771 2.729 3.586 5.545 6.315 6.315l30.34 8.565 5.266 5.266a7.222 7.222 0 0 0 10.237 0l3.45-3.45a7.222 7.222 0 0 0 0-10.237l-5.266-5.266-8.565-30.34c-.771-2.729-3.586-5.545-6.315-6.315l-10.886 10.889-44.726-44.726h107.138c4.01 0 7.24-3.23 7.24-7.24v-4.88c0-4.01-3.23-7.237-7.24-7.237h-107.138l44.726-44.726 10.886 10.889c2.729-.771 5.545-3.59 6.315-6.319l8.565-30.337 5.266-5.266a7.222 7.222 0 0 0 0-10.237l-1.725-1.725-1.725-1.725a7.222 7.222 0 0 0-10.237 0l-5.259 5.26-30.347 8.569c-2.729.771-5.545 3.59-6.315 6.319l10.889 10.886-44.726 44.726v-107.141c0-4.01-3.23-7.237-7.24-7.237zm2.438 137.74h.01v.01h-.01z"
     clip-path="url(#F)"
     fill="#9b0000"
     filter="url(#G)"
     transform="translate(-1948.631 -685.111) scale(1.4406)"
     id="path87"
     style="fill:#29303d;fill-opacity:1" />
  <path
     d="m 896.25778,739.25422 q -11.25802,7.34219 -24.47395,5.38427 -12.72645,-1.46843 -25.94239,-7.83166 -12.72645,-6.36323 -23.49499,-12.72645 l -0.97896,-0.48948 q -7.83166,-12.72646 -14.68437,-29.85822 -6.36322,-17.13177 -11.25802,-34.753 -4.89479,-17.62125 -7.83166,-31.81614 -6.85271,-19.08968 -14.68437,-44.54259 -7.83166,-25.94238 -15.66333,-54.33217 -7.83166,-28.38978 -16.1528,-55.8006 -7.83167,-27.41083 -15.17385,-49.92686 -8.81063,4.89479 -16.64229,10.76854 -7.83166,5.38427 -14.68437,8.81062 -0.48948,4.40531 2.4474,7.34218 3.42635,2.93688 7.34218,5.87375 3.91583,2.4474 6.85271,5.38427 3.42635,2.4474 4.89479,6.36323 -3.42636,23.00551 -3.42636,46.01103 0.48948,22.51603 0.97896,45.03206 0.97896,23.495 0.97896,46.50051 0,23.00551 -3.91583,45.03207 -0.97896,5.87375 3.42635,5.38427 0,0.48948 -0.97896,1.95791 -1.46843,5.38427 -2.93687,11.74749 -0.97896,5.87375 2.93687,10.27906 8.81062,-5.38427 14.19489,-14.68436 5.38427,-9.3001 11.7475,-17.62125 0,-10.27906 -3.42635,-16.1528 -2.93688,-5.87375 -6.85271,-10.76854 -3.91583,-5.38427 -6.36323,-12.72646 17.13177,4.40531 30.83718,17.62125 13.70541,12.72645 21.0476,31.81613 7.34218,18.6002 5.38427,40.62675 -6.36323,5.38427 -11.25802,3.42635 -4.40531,-2.44739 -8.81062,-6.36322 -1.95792,-1.46844 -3.42636,-2.93688 -1.46843,-1.46843 -3.42635,-2.44739 -13.21593,18.11072 -23.00551,30.83717 -9.3001,12.72646 -26.43187,23.98448 -15.66333,-9.78958 -30.83717,-20.55812 -14.68437,-11.25802 -21.04759,-32.7951 7.34218,1.46844 14.19488,3.42636 7.34218,1.95791 13.21593,4.89479 8.32115,-37.2004 7.34219,-79.78507 -0.97896,-43.07415 -3.42636,-89.57466 -0.97895,-19.08968 -1.95791,-38.17936 -0.97896,-19.57916 -1.46844,-39.15832 -15.17384,13.70541 -34.26352,15.17385 -19.08968,0.97896 -33.77405,-11.25802 21.53708,-11.25802 45.52155,-23.49499 23.98446,-12.23698 43.07414,-34.75301 2.44739,2.93687 5.38427,1.95792 3.42635,-1.46844 7.34218,-3.91584 1.95792,-1.46843 2.93688,-1.95791 0,-0.97896 -0.97896,-3.91583 -0.48948,-1.95792 -0.48948,-2.93688 0,-0.97896 2.93687,-0.97896 -1.95791,-6.8527 -6.8527,-10.27906 -4.40531,-3.91583 -6.36323,-11.25801 0.48948,-0.48948 1.46844,-1.46844 1.95791,-1.46844 1.46844,-3.91583 7.34218,3.91583 15.66332,5.38427 8.32115,0.97896 16.15281,1.46843 12.23698,0.97896 22.51603,4.40532 10.76854,2.93687 16.15281,17.62124 -11.25802,9.78958 -22.02655,19.08968 -10.76854,9.3001 -24.96343,10.27906 13.21593,12.23698 22.02655,30.3477 8.81062,17.62124 15.66333,37.68988 7.34219,19.57916 15.17385,38.17936 8.32114,18.60021 20.06864,32.7951 20.06864,66.07966 64.12175,108.66434 0.48948,6.36321 4.40531,12.72644 4.40531,5.87375 8.81062,12.23698 4.89479,6.36322 6.85271,14.68437 0.48948,2.93687 2.44739,3.42635 2.4474,0.48948 3.91583,1.95791 0,3.42636 0.48948,6.36323 0.48948,2.93688 0.97896,5.87375 0.97896,4.40531 1.46844,8.81062 0.48948,3.91583 -0.48948,8.32114 z M 600.12299,380.46612 q 0,1.46844 0,2.93688 0,1.46844 0,2.93687 0.48948,4.89479 0,9.3001 0,4.40532 -0.97896,7.34219 -14.68437,6.36323 -28.38978,14.19489 -13.21593,7.83166 -21.53707,22.02656 1.95791,7.83166 8.81062,13.21593 7.34218,4.89479 10.76854,12.23697 3.42635,7.34219 3.42635,16.64229 0,8.81062 -0.48948,18.11072 -0.48948,5.87375 -0.48948,11.25802 0,5.38427 0.48948,10.76854 0.48948,5.87375 1.46844,11.25802 0.97896,4.89479 2.44739,10.27905 1.95792,8.81063 2.93688,17.62125 1.46843,8.81062 0.97895,19.57916 -0.48947,10.76854 -0.48947,22.02655 0,11.25802 0.48947,22.51604 0.48948,20.06864 0,39.15832 -0.48947,19.08967 -4.89479,35.73196 -4.40531,16.64228 -15.17384,28.87926 0.48947,2.44739 0,3.91583 0,1.46844 -0.48948,2.44739 -0.97896,2.4474 -0.97896,4.40531 -4.89479,4.89479 -9.78958,9.30011 -4.89479,4.89479 -8.32115,11.74749 -7.83166,4.40531 -12.72645,1.46844 -4.40531,-2.93687 -8.81062,-8.32114 -1.95792,-2.4474 -4.40531,-4.89479 -1.95792,-1.95792 -4.40531,-3.91584 -6.36323,-4.89479 -14.68437,-11.25801 -7.83167,-6.36323 -14.19489,-13.21594 -5.87375,-7.34218 -6.85271,-13.21593 -1.46844,-2.93687 -4.40531,-3.42635 -2.4474,-0.48948 -3.91583,-5.38427 4.40531,0 8.32114,0.97896 4.40531,0.97895 8.81062,2.44739 6.85271,1.95792 13.70541,3.42635 6.85271,0.97896 15.17385,-0.97895 13.21594,-3.91584 20.06864,-17.62125 6.85271,-13.70541 9.78958,-33.28456 1.95792,-13.70541 2.93688,-30.3477 0.97895,-16.64228 0.97895,-33.28457 0,-17.13177 -0.48948,-29.85822 0,-4.40531 -0.48947,-9.78958 -0.48948,-5.38427 -0.48948,-5.38427 -15.17385,11.7475 -29.85822,32.79509 -14.68437,21.0476 -26.43187,41.11624 -7.83166,2.93687 -10.76854,9.3001 -2.93687,6.36323 -4.89479,13.21594 -3.42635,1.95791 -7.34218,5.87374 -3.42635,3.42636 -6.85271,7.34219 -5.87375,6.8527 -12.72645,13.21592 -6.85271,5.87375 -15.66333,8.32114 -8.32114,1.95792 -19.57916,-3.42635 18.11072,-25.4529 35.73197,-51.88476 17.62124,-26.92135 40.62675,-49.92686 2.4474,-15.66333 14.1949,-30.3477 12.23697,-15.17385 21.04759,-29.85822 6.85271,-10.76854 10.76854,-23.00551 4.40531,-12.72646 -4.40531,-24.96343 -11.25802,6.36323 -21.0476,15.66333 -9.3001,8.81062 -19.57916,14.68437 -8.81062,4.89479 -19.08968,5.87374 -9.78958,0.48948 -23.00551,-5.87374 0.97896,-2.93688 0,-4.89479 -0.97896,-1.95792 -4.89479,-0.48948 2.93687,-4.89479 6.8527,-5.87375 3.91584,-1.46844 6.85271,-2.4474 2.93687,-1.46843 3.42635,-4.89479 2.4474,-0.97895 3.42636,0 0.97895,0.48948 1.95791,1.46844 1.46844,2.4474 3.91583,1.95792 -3.91583,-5.87375 1.46844,-11.25802 1.46844,-0.48948 3.42635,2.4474 1.46844,1.95791 3.42636,2.93687 2.44739,0.48948 8.81062,-7.83166 5.87375,-7.83167 12.72645,-18.11073 6.85271,-10.27906 11.7475,-12.23697 -5.38427,-8.32115 -13.21593,-16.15281 -7.83167,-7.83166 -14.19489,-16.15281 -6.36323,-8.32114 -8.32115,-18.11072 15.66333,3.91583 27.90031,13.21593 12.23697,8.81063 23.49499,18.60021 7.83166,-3.42636 12.72645,-9.78958 5.38427,-6.85271 11.7475,-11.7475 -2.4474,-6.85271 -8.32115,-10.27906 -5.87374,-3.42635 -7.83166,-11.25802 17.62125,-9.78958 35.24249,-5.87375 18.11072,3.42636 32.79509,14.68437 z m 50.41634,118.45392 q 0,4.40531 0,9.30011 0.48948,4.40531 0.48948,9.3001 0.97896,32.79509 0.97896,66.56914 0,33.28457 -4.40531,61.18488 -4.40532,27.90029 -16.64229,44.0531 -0.48948,5.38427 -0.48948,6.36322 0,0.48948 0.97896,6.36323 -3.42635,0.48948 -4.40531,2.4474 -0.48948,1.95791 -0.48948,4.40531 0,1.95791 -0.97896,3.42635 -0.48948,1.46844 -3.42635,0.97896 2.93687,2.93687 1.95791,4.40531 -0.97895,1.46844 -2.93687,2.93687 -1.95792,1.46844 -3.91583,3.91583 -1.95792,2.4474 -0.97896,7.34219 -8.81062,0.97896 -13.70541,6.36323 -4.89479,5.38427 -9.3001,11.25801 -1.46844,0.97896 -1.46844,-2.93687 0.48948,-4.89479 -1.95792,-4.40531 1.95792,-1.95792 1.95792,-3.42635 0,-1.95792 -0.48948,-3.42636 -0.48948,-2.44739 0,-3.91583 0.97896,-1.46844 7.83166,-2.44739 0.97896,-2.93688 -1.46843,-3.91584 -2.93688,-0.48948 -1.95792,-3.42635 2.93688,-0.97896 4.89479,-7.34218 1.95792,-6.36323 3.91583,-13.70542 2.4474,-7.83166 5.87375,-12.72645 0,-1.95792 -0.97896,-0.97896 7.34219,-18.6002 11.25802,-45.52154 3.91583,-26.92134 4.40531,-58.248 0.48948,-31.81613 -2.93687,-65.1007 -4.89479,-8.32115 -9.78958,-13.70542 -4.89479,-5.87375 -9.3001,-12.72645 -3.91584,-6.85271 -6.85271,-18.6002 15.17385,4.89479 29.85822,9.78958 15.17385,4.89479 24.47395,16.1528 z"
     id="path1316-8"
     style="font-size:489.479px;font-family:'Yuji Mai';-inkscape-font-specification:'Yuji Mai';fill:#000000;stroke-width:27.7812;fill-opacity:1"
     inkscape:label="path1316" />
  <path
     d="m 896.25779,739.25423 q -11.25802,7.34219 -24.47395,5.38427 -12.72645,-1.46843 -25.94239,-7.83166 -12.72645,-6.36323 -23.49499,-12.72645 l -0.97896,-0.48948 q -7.83166,-12.72646 -14.68437,-29.85822 -6.36322,-17.13177 -11.25802,-34.75301 -4.89479,-17.62125 -7.83166,-31.81614 -6.85271,-19.08968 -14.68437,-44.54259 -7.83166,-25.94238 -15.66333,-54.33217 -7.83166,-28.38978 -16.1528,-55.8006 -7.83167,-27.41083 -15.17385,-49.92686 -8.81063,4.89479 -16.64229,10.76854 -7.83166,5.38427 -14.68437,8.81062 -0.48948,4.40531 2.4474,7.34218 3.42635,2.93688 7.34218,5.87375 3.91583,2.4474 6.85271,5.38427 3.42635,2.4474 4.89479,6.36323 -3.42636,23.00551 -3.42636,46.01103 0.48948,22.51603 0.97896,45.03206 0.97896,23.495 0.97896,46.50051 0,23.00551 -3.91583,45.03207 -0.97896,5.87375 3.42635,5.38427 0,0.48948 -0.97896,1.95791 -1.46843,5.38427 -2.93687,11.7475 -0.97896,5.87375 2.93687,10.27906 8.81062,-5.38427 14.19489,-14.68437 5.38427,-9.3001 11.7475,-17.62125 0,-10.27906 -3.42635,-16.1528 -2.93688,-5.87375 -6.85271,-10.76854 -3.91583,-5.38427 -6.36323,-12.72646 17.13177,4.40531 30.83718,17.62125 13.70541,12.72645 21.0476,31.81613 7.34218,18.60021 5.38427,40.62676 -6.36323,5.38427 -11.25802,3.42635 -4.40531,-2.44739 -8.81062,-6.36322 -1.95792,-1.46844 -3.42636,-2.93688 -1.46843,-1.46843 -3.42635,-2.44739 -13.21593,18.11072 -23.00551,30.83717 -9.3001,12.72646 -26.43187,23.98448 -15.66333,-9.78958 -30.83717,-20.55812 -14.68438,-11.25802 -21.0476,-32.7951 7.34218,1.46844 14.19489,3.42636 7.34218,1.95791 13.21593,4.89479 8.32115,-37.20041 7.34219,-79.78508 -0.97896,-43.07415 -3.42636,-89.57466 -0.97895,-19.08968 -1.95791,-38.17936 -0.97896,-19.57916 -1.46844,-39.15832 -15.17385,13.70541 -34.26353,15.17385 -19.08968,0.97896 -33.77405,-11.25802 21.53708,-11.25802 45.52155,-23.49499 23.98447,-12.23698 43.07415,-34.75301 2.44739,2.93687 5.38427,1.95792 3.42635,-1.46844 7.34218,-3.91584 1.95792,-1.46843 2.93688,-1.95791 0,-0.97896 -0.97896,-3.91583 -0.48948,-1.95792 -0.48948,-2.93688 0,-0.97896 2.93687,-0.97896 -1.95791,-6.8527 -6.8527,-10.27906 -4.40531,-3.91583 -6.36323,-11.25801 0.48948,-0.48948 1.46844,-1.46844 1.95791,-1.46844 1.46844,-3.91583 7.34218,3.91583 15.66332,5.38427 8.32115,0.97896 16.15281,1.46843 12.23698,0.97896 22.51603,4.40532 10.76854,2.93687 16.15281,17.62124 -11.25802,9.78958 -22.02655,19.08968 -10.76854,9.3001 -24.96343,10.27906 13.21593,12.23698 22.02655,30.3477 8.81062,17.62124 15.66333,37.68988 7.34219,19.57916 15.17385,38.17936 8.32114,18.60021 20.06864,32.7951 20.06864,66.07966 64.12175,108.66434 0.48948,6.36322 4.40531,12.72645 4.40531,5.87375 8.81062,12.23698 4.89479,6.36322 6.85271,14.68437 0.48948,2.93687 2.44739,3.42635 2.4474,0.48948 3.91583,1.95791 0,3.42636 0.48948,6.36323 0.48948,2.93688 0.97896,5.87375 0.97896,4.40531 1.46844,8.81062 0.48948,3.91583 -0.48948,8.32114 z M 600.12299,380.46612 q 0,1.46844 0,2.93688 0,1.46844 0,2.93687 0.48948,4.89479 0,9.3001 0,4.40532 -0.97896,7.34219 -14.68437,6.36323 -28.38978,14.19489 -13.21593,7.83166 -21.53707,22.02656 1.95791,7.83166 8.81062,13.21593 7.34218,4.89479 10.76854,12.23697 3.42635,7.34219 3.42635,16.64229 0,8.81062 -0.48948,18.11072 -0.48948,5.87375 -0.48948,11.25802 0,5.38427 0.48948,10.76854 0.48948,5.87375 1.46844,11.25802 0.97896,4.89479 2.44739,10.27905 1.95792,8.81063 2.93688,17.62125 1.46843,8.81062 0.97895,19.57916 -0.48947,10.76854 -0.48947,22.02655 0,11.25802 0.48947,22.51604 0.48948,20.06864 0,39.15832 -0.48947,19.08968 -4.89479,35.73197 -4.40531,16.64228 -15.17384,28.87926 0.48947,2.44739 0,3.91583 0,1.46844 -0.48948,2.44739 -0.97896,2.4474 -0.97896,4.40531 -4.89479,4.89479 -9.78958,9.30011 -4.89479,4.89479 -8.32115,11.74749 -7.83166,4.40531 -12.72645,1.46844 -4.40531,-2.93687 -8.81062,-8.32114 -1.95792,-2.4474 -4.40531,-4.89479 -1.95792,-1.95792 -4.40531,-3.91584 -6.36323,-4.89479 -14.68437,-11.25801 -7.83167,-6.36323 -14.19489,-13.21594 -5.87375,-7.34218 -6.85271,-13.21593 -1.46844,-2.93687 -4.40531,-3.42635 -2.4474,-0.48948 -3.91583,-5.38427 4.40531,0 8.32114,0.97896 4.40531,0.97895 8.81062,2.44739 6.85271,1.95792 13.70541,3.42635 6.85271,0.97896 15.17385,-0.97895 13.21594,-3.91584 20.06864,-17.62125 6.85271,-13.70541 9.78958,-33.28457 1.95792,-13.70541 2.93688,-30.3477 0.97895,-16.64228 0.97895,-33.28457 0,-17.13177 -0.48948,-29.85822 0,-4.40531 -0.48947,-9.78958 -0.48948,-5.38427 -0.48948,-5.38427 -15.17385,11.7475 -29.85822,32.79509 -14.68437,21.0476 -26.43187,41.11624 -7.83166,2.93687 -10.76854,9.3001 -2.93687,6.36323 -4.89479,13.21594 -3.42635,1.95791 -7.34218,5.87374 -3.42635,3.42636 -6.85271,7.34219 -5.87375,6.8527 -12.72645,13.21593 -6.85271,5.87375 -15.66333,8.32114 -8.32114,1.95792 -19.57916,-3.42635 18.11072,-25.45291 35.73197,-51.88477 17.62124,-26.92135 40.62675,-49.92686 2.4474,-15.66333 14.1949,-30.3477 12.23697,-15.17385 21.04759,-29.85822 6.85271,-10.76854 10.76854,-23.00551 4.40531,-12.72646 -4.40531,-24.96343 -11.25802,6.36323 -21.0476,15.66333 -9.3001,8.81062 -19.57916,14.68437 -8.81062,4.89479 -19.08968,5.87374 -9.78958,0.48948 -23.00551,-5.87374 0.97896,-2.93688 0,-4.89479 -0.97896,-1.95792 -4.89479,-0.48948 2.93687,-4.89479 6.8527,-5.87375 3.91584,-1.46844 6.85271,-2.4474 2.93687,-1.46843 3.42635,-4.89479 2.4474,-0.97895 3.42636,0 0.97895,0.48948 1.95791,1.46844 1.46844,2.4474 3.91583,1.95792 -3.91583,-5.87375 1.46844,-11.25802 1.46844,-0.48948 3.42635,2.4474 1.46844,1.95791 3.42636,2.93687 2.44739,0.48948 8.81062,-7.83166 5.87375,-7.83167 12.72645,-18.11073 6.85271,-10.27906 11.7475,-12.23697 -5.38427,-8.32115 -13.21593,-16.15281 -7.83167,-7.83166 -14.19489,-16.15281 -6.36323,-8.32114 -8.32115,-18.11072 15.66333,3.91583 27.90031,13.21593 12.23697,8.81063 23.49499,18.60021 7.83166,-3.42636 12.72645,-9.78958 5.38427,-6.85271 11.7475,-11.7475 -2.4474,-6.85271 -8.32115,-10.27906 -5.87374,-3.42635 -7.83166,-11.25802 17.62125,-9.78958 35.24249,-5.87375 18.11072,3.42636 32.79509,14.68437 z m 50.41634,118.45392 q 0,4.40531 0,9.30011 0.48948,4.40531 0.48948,9.3001 0.97896,32.79509 0.97896,66.56914 0,33.28457 -4.40531,61.18488 -4.40532,27.9003 -16.64229,44.05311 -0.48948,5.38427 -0.48948,6.36322 0,0.48948 0.97896,6.36323 -3.42635,0.48948 -4.40531,2.4474 -0.48948,1.95791 -0.48948,4.40531 0,1.95791 -0.97896,3.42635 -0.48948,1.46844 -3.42635,0.97896 2.93687,2.93687 1.95791,4.40531 -0.97895,1.46844 -2.93687,2.93687 -1.95792,1.46844 -3.91583,3.91583 -1.95792,2.4474 -0.97896,7.34219 -8.81062,0.97896 -13.70541,6.36323 -4.89479,5.38427 -9.3001,11.25801 -1.46844,0.97896 -1.46844,-2.93687 0.48948,-4.89479 -1.95792,-4.40531 1.95792,-1.95792 1.95792,-3.42635 0,-1.95792 -0.48948,-3.42636 -0.48948,-2.44739 0,-3.91583 0.97896,-1.46844 7.83166,-2.44739 0.97896,-2.93688 -1.46843,-3.91584 -2.93688,-0.48948 -1.95792,-3.42635 2.93688,-0.97896 4.89479,-7.34218 1.95792,-6.36323 3.91583,-13.70542 2.4474,-7.83166 5.87375,-12.72645 0,-1.95792 -0.97896,-0.97896 7.34219,-18.6002 11.25802,-45.52155 3.91583,-26.92134 4.40531,-58.248 0.48948,-31.81613 -2.93687,-65.1007 -4.89479,-8.32115 -9.78958,-13.70542 -4.89479,-5.87375 -9.3001,-12.72645 -3.91584,-6.85271 -6.85271,-18.6002 15.17385,4.89479 29.85822,9.78958 15.17385,4.89479 24.47395,16.1528 z"
     id="path4124"
     style="font-size:489.479px;font-family:'Yuji Mai';-inkscape-font-specification:'Yuji Mai';fill:#29303d;stroke-width:27.7812;filter:url(#filter1889)"
     clip-path="url(#clipPath933)" />
  <path
     d="m 670.03657,715.14327 c 4.396,1.796 9.422,-1.409 7.54,-4.808 -1.882,-3.399 -10.674,-6.995 -13.187,-5.391 -2.513,1.604 1.252,8.403 5.647,10.199 z"
     filter="url(#I)"
     id="path91"
     style="fill:#ffffff" />
  <path
     d="m 488.68845,718.85154 c 4.396,1.796 9.422,-1.409 7.54,-4.808 -1.882,-3.399 -10.674,-6.995 -13.187,-5.391 -2.513,1.604 1.252,8.403 5.647,10.199 z"
     filter="url(#I)"
     id="path91-0"
     style="fill:#ffffff;filter:url(#I-5)"
     transform="rotate(180,489.76242,713.81316)" />
  <path
     d="m 547.74719,386.99958 c 3.554,0.746 9.64,-3.449 9.13,-6.294 -0.51,-2.845 -7.618,-4.341 -10.662,-2.242 -3.044,2.099 -2.022,7.79 1.532,8.536 z"
     filter="url(#K)"
     id="path95"
     style="fill:#ffffff" />
  <path
     d="m 737.81344,395.14572 c 6.079,2.009 14.316,-4.296 12.356,-9.46 -1.96,-5.164 -14.117,-9.186 -18.237,-6.032 -4.12,3.154 -0.198,13.482 5.881,15.491 z"
     filter="url(#M)"
     id="path99"
     style="fill:#ffffff" />
</svg>
