<?xml version="1.0" encoding="UTF-8" standalone="no"?>
<svg
   width="498.898"
   height="544.252"
   viewBox="0 0 1320 1440"
   version="1.1"
   id="svg98"
   sodipodi:docname="wM.svg"
   inkscape:version="1.2.2 (732a01da63, 2022-12-09)"
   xml:space="preserve"
   xmlns:inkscape="http://www.inkscape.org/namespaces/inkscape"
   xmlns:sodipodi="http://sodipodi.sourceforge.net/DTD/sodipodi-0.dtd"
   xmlns="http://www.w3.org/2000/svg"
   xmlns:svg="http://www.w3.org/2000/svg"><sodipodi:namedview
     id="namedview100"
     pagecolor="#ffffff"
     bordercolor="#000000"
     borderopacity="0.25"
     inkscape:showpageshadow="2"
     inkscape:pageopacity="0.0"
     inkscape:pagecheckerboard="0"
     inkscape:deskcolor="#d1d1d1"
     showgrid="false"
     inkscape:zoom="1.0082"
     inkscape:cx="208.78795"
     inkscape:cy="253.91788"
     inkscape:window-width="1920"
     inkscape:window-height="974"
     inkscape:window-x="-11"
     inkscape:window-y="-11"
     inkscape:window-maximized="1"
     inkscape:current-layer="svg98" /><style
     id="style2">.B{color-interpolation-filters:sRGB}</style><defs
     id="defs50"><filter
       id="C"
       x="-0.01110353"
       y="-0.011243256"
       width="1.0222071"
       height="1.0224865"
       class="B"><feGaussianBlur
         stdDeviation="2.441"
         id="feGaussianBlur4" /></filter><filter
       id="D"
       x="-0.044582165"
       y="-0.051981172"
       width="1.0891643"
       height="1.1039623"
       class="B"><feGaussianBlur
         stdDeviation="8.635"
         id="feGaussianBlur7" /></filter><filter
       id="G"
       x="-0.052321729"
       y="-0.044333314"
       width="1.1046435"
       height="1.0886666"
       class="B"><feGaussianBlur
         stdDeviation="6.784"
         id="feGaussianBlur10" /></filter><filter
       id="H"
       x="-0.28694713"
       y="-0.30485973"
       width="1.5738943"
       height="1.6097195"
       class="B"><feGaussianBlur
         stdDeviation="1.688"
         id="feGaussianBlur13" /></filter><filter
       id="I"
       x="-0.34932089"
       y="-0.38465625"
       width="1.6986418"
       height="1.7693125"
       class="B"><feGaussianBlur
         stdDeviation="1.688"
         id="feGaussianBlur16" /></filter><filter
       id="J"
       x="-0.29422404"
       y="-0.54109355"
       width="1.5884481"
       height="2.0821871"
       class="B"><feGaussianBlur
         stdDeviation="1.688"
         id="feGaussianBlur19" /></filter><filter
       id="K"
       x="-0.21468687"
       y="-0.32268743"
       width="1.4293737"
       height="1.6453749"
       class="B"><feGaussianBlur
         stdDeviation="1.688"
         id="feGaussianBlur22" /></filter><filter
       id="L"
       x="-0.29418135"
       y="-0.45605182"
       width="1.5883627"
       height="1.9121036"
       class="B"><feGaussianBlur
         stdDeviation="1.688"
         id="feGaussianBlur25" /></filter><linearGradient
       id="A"
       x1="-1430.769"
       y1="-77.47"
       x2="-1409.955"
       y2="-77.47"
       spreadMethod="reflect"
       gradientUnits="userSpaceOnUse"><stop
         offset="0"
         stop-color="#ffd285"
         id="stop28" /><stop
         offset=".232"
         stop-color="#ffcd79"
         id="stop30" /><stop
         offset=".616"
         stop-color="#ffca73"
         id="stop32" /><stop
         offset=".808"
         stop-color="#ffd386"
         id="stop34" /><stop
         offset="1"
         stop-color="#ffc86e"
         id="stop36" /></linearGradient><linearGradient
       id="B"
       x1="-899.905"
       y1="-344.262"
       x2="-899.906"
       y2="125.211"
       gradientUnits="userSpaceOnUse"><stop
         offset=".597"
         stop-color="#fff"
         id="stop39" /><stop
         offset="1"
         id="stop41" /></linearGradient><clipPath
       id="E"><path
         d="M895.511 704.042c-3.776-55.22-81.178-64.187-112.8-108.08 27.374-10.855 64.187-14.631 83.066-34.454-6.608-23.598-27.846-25.958-42.949-27.374 3.776-4.248 6.608-8.967 7.552-15.575-.472-16.047 6.136-92.977 23.126-104.305 4.72-3.304 11.327-1.888 16.991-8.967-16.519-25.486-48.613-60.412-87.314-35.397-28.79.944-59.468 7.079-79.762 8.967-17.935 1.888-32.566-13.215-50.028-8.495-3.304 11.327 6.608 19.823 11.799 26.43 6.136 21.71 10.855 52.86 11.799 86.37 0 2.832 4.248.944 3.304 4.72-.472 55.22.472 122.239-7.08 192.09-7.551-4.72-16.047-5.664-21.71.944 8.967 13.215 19.823 43.421 52.388 42.005 2.36-2.832 3.776-6.136 6.136-10.383 25.486-16.991 49.084-39.173 77.402-60.412 12.743 15.103 31.15 38.701 43.893 63.243 26.43 8.023 50.028 9.439 64.187-11.327zm-235.039-96.753c.472-13.215-34.454-53.804-42.949-35.869 2.36 5.192 4.72 9.439 6.608 15.103 1.888 21.238-11.327 51.444-21.239 77.402 12.271 0 17.463-9.439 25.014-.944 8.967-11.327 31.622-37.285 32.566-55.692zm-2.36-183.123c0-33.038-31.15-52.86-51.444-62.3-11.327-28.79-40.589-37.757-70.323-21.71 7.552 8.023 17.935 13.215 22.182 25.014-6.136 17.463-85.426 153.389-102.417 162.828 0 9.911-23.598 29.262-31.622 38.229 6.608 9.911 20.295 11.327 30.678 8.967 9.911-2.36 61.356-72.211 65.131-77.874 8.023 2.832 18.879 11.799 33.038 7.08 6.136 9.911 9.911 22.182 10.383 40.589-19.823 9.439-63.243 2.832-76.931 20.766 17.935 24.542 51.916 9.911 77.874 9.911 0 30.206 0 82.122-2.832 112.328-12.271 2.832-40.117 9.911-57.58 8.023-9.911-.944-16.991-10.383-27.846-4.248 1.416 16.519 33.982 52.86 52.388 45.781 8.495-3.304 15.103-13.687 24.542-18.407 30.206-15.103 69.379-4.248 100.057-23.126-11.327-16.991-33.982-22.182-63.715-13.215l5.664-113.744c20.767-5.664 41.533-6.607 55.692-18.879-5.664-12.271-20.767-25.486-56.164-11.799 1.416-12.271 3.304-28.318-4.248-44.365 21.238-1.888 33.038-6.608 49.085-14.631-10.855-12.743-26.43-19.351-45.781-22.182-10.383 14.159-44.837 18.407-62.3 19.351 11.799-19.351 38.229-57.58 49.556-83.538 3.304-3.304 8.023-8.023 15.103-8.967 14.159 24.07 33.51 35.869 61.828 40.117zM542.953 679.5c0-14.159-6.608-27.846-6.136-39.173 0-3.304 3.304-4.72 2.832-8.495-3.304-18.407-29.262-35.397-44.365-35.869-2.832 15.575 10.855 38.701 9.439 58.996 8.495 8.967 21.71 22.182 38.229 24.542zm254.862-227.488c-22.654-15.103-50.5.944-86.842 1.416.944-16.519-2.36-35.397-4.248-45.781 21.71-6.136 57.108-10.855 88.73-13.215 3.776 12.271 2.36 40.117 2.36 57.58zm0 16.991c.472 19.823-.472 28.79-1.888 45.781-19.823 2.832-57.58 8.023-85.426 6.608 1.416-8.495.944-30.206 1.416-39.645 25.014-3.776 56.636-6.608 85.898-12.743zm14.159 70.795c2.832 5.664 2.36 12.743-3.776 15.103-9.911 5.192-26.902 17.463-39.645 23.598-8.495-5.664-23.126-23.126-33.982-31.15 22.182-1.888 54.276-3.776 77.402-7.551zm-45.309 84.482c-6.608 13.215-41.061 37.285-64.187 49.557 1.416-16.991 6.608-86.842 7.551-122.239 24.542 17.935 39.645 46.253 56.636 72.683z"
         stroke-width="23.417"
         id="path44" /></clipPath><clipPath
       id="F"><path
         d="M656.251 790.644a11.095 11.095 0 0 0-11.121 11.121v164.641L528.709 849.984a11.1 11.1 0 0 0-15.73 0l-5.302 5.302a11.105 11.105 0 0 0 0 15.735l131.289 131.289-131.29 131.29a11.1 11.1 0 0 0 0 15.73l5.302 5.302a11.1 11.1 0 0 0 15.73 0l131.289-131.294 131.294 131.294a11.1 11.1 0 0 0 15.73 0l5.302-5.302a11.1 11.1 0 0 0 0-15.73l-131.289-131.289 131.289-131.289a11.105 11.105 0 0 0 0-15.735l-5.302-5.302a11.1 11.1 0 0 0-15.73 0L674.87 966.401V801.765a11.095 11.095 0 0 0-11.121-11.121zm3.747 211.661h.011l-.011.011-.005-.011z"
         stroke-width="1.534"
         id="path47" /></clipPath><filter
       inkscape:menu-tooltip="In and out glow with a possible offset and colorizable flood"
       inkscape:menu="Shadows and Glows"
       inkscape:label="Cutout Glow"
       style="color-interpolation-filters:sRGB;"
       id="filter2186"
       x="-0.059691271"
       y="-0.024987349"
       width="1.0846783"
       height="1.0846793"><feOffset
         dy="10"
         dx="-10"
         id="feOffset2176" /><feGaussianBlur
         stdDeviation="3"
         result="blur"
         id="feGaussianBlur2178" /><feFlood
         flood-color="rgb(0,0,0)"
         flood-opacity="0"
         result="flood"
         id="feFlood2180" /><feComposite
         in="flood"
         in2="SourceGraphic"
         operator="in"
         result="composite"
         id="feComposite2182" /><feBlend
         in="blur"
         in2="composite"
         mode="normal"
         id="feBlend2184" /></filter><filter
       inkscape:menu-tooltip="In and out glow with a possible offset and colorizable flood"
       inkscape:menu="Shadows and Glows"
       inkscape:label="Cutout Glow"
       style="color-interpolation-filters:sRGB;"
       id="filter2926"
       x="-0.038188498"
       y="-0.017354312"
       width="1.0541744"
       height="1.0588118"><feOffset
         dy="10"
         dx="-10"
         id="feOffset2916" /><feGaussianBlur
         stdDeviation="3"
         result="blur"
         id="feGaussianBlur2918" /><feFlood
         flood-color="rgb(0,0,0)"
         flood-opacity="0"
         result="flood"
         id="feFlood2920" /><feComposite
         in="flood"
         in2="SourceGraphic"
         operator="in"
         result="composite"
         id="feComposite2922" /><feBlend
         in="blur"
         in2="composite"
         mode="normal"
         id="feBlend2924" /></filter><filter
       inkscape:menu-tooltip="In and out glow with a possible offset and colorizable flood"
       inkscape:menu="Shadows and Glows"
       inkscape:label="Cutout Glow"
       style="color-interpolation-filters:sRGB"
       id="filter2926-7"
       x="-0.038188498"
       y="-0.017354312"
       width="1.0541744"
       height="1.0588118"><feOffset
         dy="10"
         dx="-10"
         id="feOffset2916-0" /><feGaussianBlur
         stdDeviation="3"
         result="blur"
         id="feGaussianBlur2918-2" /><feFlood
         flood-color="rgb(0,0,0)"
         flood-opacity="1"
         result="flood"
         id="feFlood2920-5" /><feComposite
         in="flood"
         in2="SourceGraphic"
         operator="in"
         result="composite"
         id="feComposite2922-1" /><feBlend
         in="blur"
         in2="composite"
         mode="normal"
         id="feBlend2924-1" /></filter><filter
       inkscape:menu-tooltip="In and out glow with a possible offset and colorizable flood"
       inkscape:menu="Shadows and Glows"
       inkscape:label="Cutout Glow"
       style="color-interpolation-filters:sRGB"
       id="filter2186-7"
       x="-0.059691273"
       y="-0.024987348"
       width="1.0846783"
       height="1.0846793"><feOffset
         dy="10"
         dx="-10"
         id="feOffset2176-0" /><feGaussianBlur
         stdDeviation="3"
         result="blur"
         id="feGaussianBlur2178-4" /><feFlood
         flood-color="rgb(0,0,0)"
         flood-opacity="1"
         result="flood"
         id="feFlood2180-6" /><feComposite
         in="flood"
         in2="SourceGraphic"
         operator="in"
         result="composite"
         id="feComposite2182-2" /><feBlend
         in="blur"
         in2="composite"
         mode="normal"
         id="feBlend2184-2" /></filter><filter
       id="C-3"
       x="-0.01110353"
       y="-0.011243256"
       width="1.0222071"
       height="1.0224865"
       class="B"><feGaussianBlur
         stdDeviation="2.441"
         id="feGaussianBlur311" /></filter><filter
       id="D-4"
       x="-0.044582165"
       y="-0.051981172"
       width="1.0891643"
       height="1.1039623"
       class="B"><feGaussianBlur
         stdDeviation="8.635"
         id="feGaussianBlur314" /></filter><filter
       id="G-3"
       x="-0.052321729"
       y="-0.044333314"
       width="1.1046435"
       height="1.0886666"
       class="B"><feGaussianBlur
         stdDeviation="6.784"
         id="feGaussianBlur317" /></filter><filter
       id="H-2"
       x="-0.28694713"
       y="-0.30485973"
       width="1.5738943"
       height="1.6097195"
       class="B"><feGaussianBlur
         stdDeviation="1.688"
         id="feGaussianBlur320" /></filter><filter
       id="I-3"
       x="-0.34932089"
       y="-0.38465625"
       width="1.6986418"
       height="1.7693125"
       class="B"><feGaussianBlur
         stdDeviation="1.688"
         id="feGaussianBlur323" /></filter><filter
       id="J-2"
       x="-0.29422404"
       y="-0.54109355"
       width="1.5884481"
       height="2.0821871"
       class="B"><feGaussianBlur
         stdDeviation="1.688"
         id="feGaussianBlur326" /></filter><filter
       id="K-1"
       x="-0.21468687"
       y="-0.32268743"
       width="1.4293737"
       height="1.6453749"
       class="B"><feGaussianBlur
         stdDeviation="1.688"
         id="feGaussianBlur329" /></filter><filter
       id="L-1"
       x="-0.29418135"
       y="-0.45605182"
       width="1.5883627"
       height="1.9121036"
       class="B"><feGaussianBlur
         stdDeviation="1.688"
         id="feGaussianBlur332" /></filter><clipPath
       id="E-8"><path
         d="M895.511 704.042c-3.776-55.22-81.178-64.187-112.8-108.08 27.374-10.855 64.187-14.631 83.066-34.454-6.608-23.598-27.846-25.958-42.949-27.374 3.776-4.248 6.608-8.967 7.552-15.575-.472-16.047 6.136-92.977 23.126-104.305 4.72-3.304 11.327-1.888 16.991-8.967-16.519-25.486-48.613-60.412-87.314-35.397-28.79.944-59.468 7.079-79.762 8.967-17.935 1.888-32.566-13.215-50.028-8.495-3.304 11.327 6.608 19.823 11.799 26.43 6.136 21.71 10.855 52.86 11.799 86.37 0 2.832 4.248.944 3.304 4.72-.472 55.22.472 122.239-7.08 192.09-7.551-4.72-16.047-5.664-21.71.944 8.967 13.215 19.823 43.421 52.388 42.005 2.36-2.832 3.776-6.136 6.136-10.383 25.486-16.991 49.084-39.173 77.402-60.412 12.743 15.103 31.15 38.701 43.893 63.243 26.43 8.023 50.028 9.439 64.187-11.327zm-235.039-96.753c.472-13.215-34.454-53.804-42.949-35.869 2.36 5.192 4.72 9.439 6.608 15.103 1.888 21.238-11.327 51.444-21.239 77.402 12.271 0 17.463-9.439 25.014-.944 8.967-11.327 31.622-37.285 32.566-55.692zm-2.36-183.123c0-33.038-31.15-52.86-51.444-62.3-11.327-28.79-40.589-37.757-70.323-21.71 7.552 8.023 17.935 13.215 22.182 25.014-6.136 17.463-85.426 153.389-102.417 162.828 0 9.911-23.598 29.262-31.622 38.229 6.608 9.911 20.295 11.327 30.678 8.967 9.911-2.36 61.356-72.211 65.131-77.874 8.023 2.832 18.879 11.799 33.038 7.08 6.136 9.911 9.911 22.182 10.383 40.589-19.823 9.439-63.243 2.832-76.931 20.766 17.935 24.542 51.916 9.911 77.874 9.911 0 30.206 0 82.122-2.832 112.328-12.271 2.832-40.117 9.911-57.58 8.023-9.911-.944-16.991-10.383-27.846-4.248 1.416 16.519 33.982 52.86 52.388 45.781 8.495-3.304 15.103-13.687 24.542-18.407 30.206-15.103 69.379-4.248 100.057-23.126-11.327-16.991-33.982-22.182-63.715-13.215l5.664-113.744c20.767-5.664 41.533-6.607 55.692-18.879-5.664-12.271-20.767-25.486-56.164-11.799 1.416-12.271 3.304-28.318-4.248-44.365 21.238-1.888 33.038-6.608 49.085-14.631-10.855-12.743-26.43-19.351-45.781-22.182-10.383 14.159-44.837 18.407-62.3 19.351 11.799-19.351 38.229-57.58 49.556-83.538 3.304-3.304 8.023-8.023 15.103-8.967 14.159 24.07 33.51 35.869 61.828 40.117zM542.953 679.5c0-14.159-6.608-27.846-6.136-39.173 0-3.304 3.304-4.72 2.832-8.495-3.304-18.407-29.262-35.397-44.365-35.869-2.832 15.575 10.855 38.701 9.439 58.996 8.495 8.967 21.71 22.182 38.229 24.542zm254.862-227.488c-22.654-15.103-50.5.944-86.842 1.416.944-16.519-2.36-35.397-4.248-45.781 21.71-6.136 57.108-10.855 88.73-13.215 3.776 12.271 2.36 40.117 2.36 57.58zm0 16.991c.472 19.823-.472 28.79-1.888 45.781-19.823 2.832-57.58 8.023-85.426 6.608 1.416-8.495.944-30.206 1.416-39.645 25.014-3.776 56.636-6.608 85.898-12.743zm14.159 70.795c2.832 5.664 2.36 12.743-3.776 15.103-9.911 5.192-26.902 17.463-39.645 23.598-8.495-5.664-23.126-23.126-33.982-31.15 22.182-1.888 54.276-3.776 77.402-7.551zm-45.309 84.482c-6.608 13.215-41.061 37.285-64.187 49.557 1.416-16.991 6.608-86.842 7.551-122.239 24.542 17.935 39.645 46.253 56.636 72.683z"
         stroke-width="23.417"
         id="path351" /></clipPath><clipPath
       id="F-4"><path
         d="M656.251 790.644a11.095 11.095 0 0 0-11.121 11.121v164.641L528.709 849.984a11.1 11.1 0 0 0-15.73 0l-5.302 5.302a11.105 11.105 0 0 0 0 15.735l131.289 131.289-131.29 131.29a11.1 11.1 0 0 0 0 15.73l5.302 5.302a11.1 11.1 0 0 0 15.73 0l131.289-131.294 131.294 131.294a11.1 11.1 0 0 0 15.73 0l5.302-5.302a11.1 11.1 0 0 0 0-15.73l-131.289-131.289 131.289-131.289a11.105 11.105 0 0 0 0-15.735l-5.302-5.302a11.1 11.1 0 0 0-15.73 0L674.87 966.401V801.765a11.095 11.095 0 0 0-11.121-11.121zm3.747 211.661h.011l-.011.011-.005-.011z"
         stroke-width="1.534"
         id="path354" /></clipPath><filter
       inkscape:menu-tooltip="In and out glow with a possible offset and colorizable flood"
       inkscape:menu="Shadows and Glows"
       inkscape:label="Cutout Glow"
       style="color-interpolation-filters:sRGB"
       id="filter2926-5"
       x="-0.038188498"
       y="-0.017354311"
       width="1.0541744"
       height="1.0588118"><feOffset
         dy="10"
         dx="-10"
         id="feOffset2916-1" /><feGaussianBlur
         stdDeviation="3"
         result="blur"
         id="feGaussianBlur2918-6" /><feFlood
         flood-color="rgb(0,0,0)"
         flood-opacity="0"
         result="flood"
         id="feFlood2920-50" /><feComposite
         in="flood"
         in2="SourceGraphic"
         operator="in"
         result="composite"
         id="feComposite2922-8" /><feBlend
         in="blur"
         in2="composite"
         mode="normal"
         id="feBlend2924-7" /></filter><clipPath
       clipPathUnits="userSpaceOnUse"
       id="clipPath1489-3"><path
         d="m 877.43827,495.7258 q -8.52487,3.31523 -17.52332,5.68325 -8.5249,2.36802 -17.52335,5.20964 -6.15685,10.41929 -8.9985,23.6802 -2.36802,13.26091 -3.31523,26.99545 -1.42081,15.62891 -2.84162,31.25786 -0.94721,15.62894 -5.68325,28.88985 -8.52487,2.36802 -16.10251,0 -7.57769,-2.84163 -11.36652,-8.99848 -37.41471,0.47361 -78.14465,3.78883 -40.72995,3.31523 -75.30303,9.94569 -4.26244,0.4736 -6.63046,3.78883 -2.36802,3.31523 -7.57766,3.31523 -8.05127,-6.15686 -15.62894,-13.26092 -7.10405,-7.57766 -12.7873,-16.10253 2.36802,-19.41776 2.84162,-38.83555 0.47361,-19.41774 -3.78883,-41.20355 -1.42081,-3.78883 -4.73604,-4.73604 -3.31523,-1.42081 -6.63046,-3.3152 -0.4736,-5.20967 -2.84162,-8.5249 -2.36802,-3.3152 -5.68325,-6.15685 0.94721,-2.36802 0.47361,-3.78883 0,-1.42081 -0.47361,-2.8416 -0.4736,-1.42084 -0.9472,-2.84165 0,-1.42081 0.4736,-3.78883 16.57614,-4.26244 31.73147,-8.52487 15.15532,-4.73604 34.09948,-7.57766 6.63046,-0.94721 12.78731,-1.42082 6.63045,-0.4736 6.63045,-0.4736 -18.47055,-9.47208 -28.88984,-23.6802 -9.94568,-14.20812 -18.47055,-33.15228 14.68172,-5.20964 29.36344,-0.4736 15.15533,4.73604 24.15381,15.62893 7.10405,8.05127 8.99847,18.94416 2.36802,10.41929 -2.36802,22.25939 16.57614,-1.42082 42.15075,-1.89442 25.57462,-0.4736 48.30761,-0.94721 -1.89442,-5.68325 -8.52487,-4.73604 -1.42081,0 -3.31523,0.47361 -1.42081,0.4736 -2.84162,0.9472 -2.84163,0.47361 -5.20965,0.94721 -2.36802,0.47361 -4.73604,0 9.94569,-10.41929 17.52335,-22.25938 8.05127,-12.31371 16.57614,-24.15381 -1.89442,-8.05126 -7.10406,-12.7873 -4.73604,-5.20965 -8.05127,-11.8401 12.78731,-7.57767 25.57462,-4.73604 12.7873,2.36802 22.25938,10.41928 9.94571,8.05127 14.20812,17.52335 -7.57766,12.78731 -18.94416,21.31218 -11.36649,8.52487 -18.47055,21.78578 -7.57767,-0.4736 -11.8401,3.31523 -4.26244,3.31523 -4.26244,3.31523 17.99695,-2.84163 39.30913,-3.78883 21.31218,-0.94721 38.83553,5.68324 10.89289,3.78884 18.94416,11.8401 8.05129,7.57769 12.3137,19.89137 z m -52.09644,141.60761 q -0.94718,8.99848 -7.10406,13.26091 -6.15685,4.26244 -11.36649,9.47208 0,8.52488 0,17.99695 0,8.99848 0.4736,18.94416 0.47363,27.94264 -0.4736,55.88527 -0.47361,27.46903 -8.52487,44.04517 -10.41929,4.26244 -19.89137,-2.84162 -9.47208,-7.10406 -13.26091,-17.52335 -11.8401,-4.26244 -27.94264,-4.73604 -15.62893,0 -31.73146,1.42081 -16.10254,1.89442 -29.36345,3.78883 -1.89441,0 -3.78883,0.47361 -1.89441,0.4736 -3.78883,0.4736 -1.42081,5.68325 -6.15685,9.94569 -8.99848,-2.84163 -17.99695,-10.41929 -8.99848,-7.10406 -14.20812,-17.99695 -4.73604,-11.3665 -1.89442,-25.10101 2.36802,0.4736 2.36802,3.31522 0,2.36802 2.84163,2.84163 2.36802,-10.89289 2.36802,-23.6802 0,-12.78731 -0.94721,-26.52182 0,-4.73604 -0.47361,-9.47208 0,-5.20965 0,-10.41929 -2.36802,-5.68325 -8.05126,-9.94568 -5.20965,-4.73604 -9.47208,-9.47208 -4.26244,-4.73604 -4.73604,-9.94568 6.63045,1.89441 12.3137,0 6.15685,-1.89442 12.3137,-4.73604 3.31523,-1.42082 6.15685,-2.36802 2.84163,-1.42082 6.15686,-2.36802 14.68172,-4.26244 33.15227,-4.26244 18.47056,-0.4736 36.94111,-1.42081 12.78731,-0.94721 24.62741,-2.84163 11.8401,-2.36802 21.31218,-7.10406 19.89137,2.36802 33.15228,5.20965 13.73451,2.36802 26.99542,16.10253 z M 604.16878,428.00043 q -10.89289,22.25939 -25.57462,48.30761 -14.68172,25.57461 -27.94263,50.20202 0.94721,3.31525 2.84162,5.68327 1.89442,1.89439 3.78884,4.26241 -1.89442,26.04825 -0.94721,52.57007 0.94721,26.04822 2.36802,52.57004 0.94721,15.62893 1.42081,31.73147 0.94721,15.62893 0.94721,31.25786 0,4.73604 0,10.41928 0.4736,5.68325 0.94721,11.8401 0.4736,9.94569 0.9472,20.83858 0.47361,10.89289 -0.4736,19.89137 -0.94721,10.41928 -3.78883,17.52334 -2.84163,7.10406 -9.47208,8.52487 -13.26091,-8.05126 -23.20662,-21.78578 -9.47208,-13.26091 -7.57764,-34.09949 1.42081,0 2.8416,-1.89441 1.42084,-1.89442 3.78886,-1.42081 2.84162,-22.25939 4.26243,-49.72842 1.42079,-27.94263 0.47361,-58.25329 -0.94721,-30.31065 -5.20965,-59.20049 -5.68327,-0.47361 -8.05129,3.3152 -1.89439,3.78886 -3.3152,8.05129 -0.94721,1.42081 -1.42084,3.31523 -0.47358,1.42081 -1.42081,2.84162 -6.15683,8.99848 -14.6817,16.10254 -8.05127,7.10406 -11.8401,17.99695 -1.89444,0 -3.31523,-0.47361 -1.42081,-0.9472 -1.42081,-0.9472 l -6.15685,9.94568 4.26241,-2.84162 q -2.36802,6.15685 -10.41929,11.8401 -7.57766,5.68324 -12.3137,12.7873 -5.20965,0.94721 -8.52487,-0.4736 -2.84163,-1.42081 -5.20965,-3.31523 -2.36802,-1.89442 -5.68324,-3.31523 -2.84163,-1.89441 -8.05127,-1.89441 9.47208,-8.05127 15.15533,-17.99695 6.15687,-9.94569 11.84009,-18.94416 6.15688,-8.99848 16.10254,-14.20812 0,-2.36802 -1.42081,-1.89442 -1.89442,0.47361 -1.89442,-0.94721 5.68325,-3.78883 10.89292,-13.26093 5.20964,-9.94566 10.89289,-20.83855 5.68325,-11.36652 12.78731,-18.47058 l -2.36802,6.15685 q 4.26241,-0.94721 5.20964,-3.78883 1.42079,-3.31523 -3.78883,-4.73604 0.47358,-0.47358 1.42081,-1.89442 4.26244,-4.73604 7.10406,-9.94568 2.8416,-5.68325 0.47358,-13.26091 17.52337,-13.26089 26.99545,-34.09949 9.47208,-20.83857 17.52335,-42.62436 -2.84163,-7.57766 -8.52487,-12.3137 -5.20967,-4.73604 -10.41929,-9.47208 -5.20964,-4.73604 -8.05127,-12.3137 2.36802,-3.31523 7.57767,-3.31523 5.20964,-0.4736 7.10406,2.84162 22.25938,-5.68324 38.36192,5.20965 16.57614,10.41929 24.1538,27.94263 z m 158.65733,320.15631 q 3.31523,-22.73299 1.89442,-49.72841 -0.94721,-26.99543 -3.31523,-48.78121 -17.99695,-4.73604 -34.57309,-2.84163 -16.10254,1.42081 -32.67868,4.26244 -5.20964,0.94721 -10.89289,1.89441 -5.20964,0.94721 -10.89289,1.42082 -2.84162,6.15685 -3.31523,11.8401 -0.4736,5.68324 -0.4736,11.84009 0,1.89442 0,3.78884 0,1.89441 0,4.26243 0.94721,0 2.36802,-0.4736 18.47055,-1.89442 33.15228,-2.36802 15.15532,-0.47361 26.52182,3.78883 11.8401,4.26244 21.31218,16.57614 -23.2066,3.78883 -42.62436,4.73604 -18.94416,0.4736 -41.20354,6.15685 0.9472,2.36802 0.9472,6.15685 0,3.31523 0,8.05127 -0.4736,4.26244 -0.4736,9.47208 0,4.73604 0.4736,9.47208 16.57614,1.42081 32.67868,1.42081 16.10253,-0.4736 30.78426,-0.4736 8.05126,-0.47361 15.62893,-0.47361 7.57766,0 14.68172,0 z m 28.41624,-222.59389 q -0.47361,-11.36647 -2.84163,-21.78578 -1.89441,-10.89287 -6.63045,-19.89137 -17.99695,0.4736 -31.25786,1.42081 -13.26092,0.94721 -29.83705,3.78883 2.36802,8.05127 1.89441,17.04975 -0.4736,8.52487 0.94721,21.3122 16.10253,-6.15685 30.31065,0.94721 14.68173,6.63043 25.10101,17.04974 -12.7873,2.8416 -26.99542,3.78881 -14.20812,0.94723 -27.46903,3.31525 0,4.73604 -0.47361,8.99848 0,3.78883 0,7.57766 -0.4736,4.26244 -0.9472,8.52487 0,3.78883 0.4736,8.05127 6.63046,0.4736 12.78731,0 6.15685,-0.4736 12.3137,-0.94721 9.94568,-0.94721 18.94416,-0.94721 8.99847,0 17.52335,3.31523 v -1.42081 q 2.84162,-15.62893 4.73604,-30.78426 1.89441,-15.15535 1.42081,-29.36347 z m -99.93044,6.15685 q 0,-11.36647 -1.42081,-23.20659 -0.94721,-11.8401 -3.31523,-16.57614 -8.05127,0 -18.94416,0.94723 -10.41929,0.47358 -20.36497,2.8416 -9.94568,1.89444 -16.57614,6.15685 0,1.89442 -0.4736,4.26244 0,1.89441 0,3.78883 -0.47361,6.15685 -0.94721,12.78733 0,6.15683 2.36802,12.78731 14.20812,0 30.78426,-0.94721 17.04974,-1.42081 28.88984,-2.84165 z m 0.94721,23.68023 q -8.05127,-0.94721 -17.04975,0 -8.52487,0.94718 -17.04974,1.89441 -5.68325,0.94721 -11.36649,1.89442 -5.68325,0.4736 -11.3665,0.94721 l 1.42081,33.62588 q 15.15533,-0.94721 29.83705,-1.89442 15.15533,-0.94721 26.52183,-5.20964 z"
         id="path1491-6"
         style="font-size:473.604px;font-family:'Yuji Mai';-inkscape-font-specification:'Yuji Mai';fill:#29303d;stroke-width:27.7812" /></clipPath><filter
       inkscape:menu-tooltip="In and out glow with a possible offset and colorizable flood"
       inkscape:menu="Shadows and Glows"
       inkscape:label="Cutout Glow"
       style="color-interpolation-filters:sRGB"
       id="filter2926-57"
       x="-0.038188498"
       y="-0.017354312"
       width="1.0541744"
       height="1.0588118"><feOffset
         dy="10"
         dx="-10"
         id="feOffset2916-7" /><feGaussianBlur
         stdDeviation="3"
         result="blur"
         id="feGaussianBlur2918-60" /><feFlood
         flood-color="rgb(0,0,0)"
         flood-opacity="1"
         result="flood"
         id="feFlood2920-2" /><feComposite
         in="flood"
         in2="SourceGraphic"
         operator="in"
         result="composite"
         id="feComposite2922-4" /><feBlend
         in="blur"
         in2="composite"
         mode="normal"
         id="feBlend2924-8" /></filter><clipPath
       clipPathUnits="userSpaceOnUse"
       id="clipPath1678"><path
         d="M 646.231,980.58099 538.42699,872.777 c -4.01775,-4.03323 -10.54824,-4.03323 -14.56599,0 l -4.91001,4.90998 c -4.03489,4.01902 -4.03489,10.552 0,14.57102 l 121.57002,121.57 -121.57002,121.57 c -4.03322,4.0178 -4.03322,10.5482 0,14.566 l 4.91001,4.909 c 4.01775,4.0332 10.54824,4.0332 14.56599,0 L 659.997,1033.298 781.57199,1154.873 c 4.01775,4.0332 10.54824,4.0332 14.56599,0 l 4.91001,-4.909 c 4.03322,-4.0178 4.03322,-10.5482 0,-14.566 L 679.478,1013.828 801.04799,892.258 c 4.03489,-4.01902 4.03489,-10.552 0,-14.57102 l -4.91001,-4.90998 c -4.01775,-4.03323 -10.54824,-4.03323 -14.56599,0 l -107.80301,107.79899 -14.57562,13.90998 z m 13.76701,33.24201 h 0.0106 l -0.0106,0.011 -0.005,-0.011 z"
         id="path1680"
         sodipodi:nodetypes="cccccccccccccccccccccccccccc"
         style="fill:#29303d;fill-opacity:1;stroke-width:1" /></clipPath><clipPath
       clipPathUnits="userSpaceOnUse"
       id="clipPath1706"><path
         d="m 877.43827,495.7258 q -8.52487,3.31523 -17.52332,5.68325 -8.5249,2.36802 -17.52335,5.20964 -6.15685,10.41929 -8.9985,23.6802 -2.36802,13.26091 -3.31523,26.99545 -1.42081,15.62891 -2.84162,31.25786 -0.94721,15.62894 -5.68325,28.88985 -8.52487,2.36802 -16.10251,0 -7.57769,-2.84163 -11.36652,-8.99848 -37.41471,0.47361 -78.14465,3.78883 -40.72995,3.31523 -75.30303,9.94569 -4.26244,0.4736 -6.63046,3.78883 -2.36802,3.31523 -7.57766,3.31523 -8.05127,-6.15686 -15.62894,-13.26092 -7.10405,-7.57766 -12.7873,-16.10253 2.36802,-19.41776 2.84162,-38.83555 0.47361,-19.41774 -3.78883,-41.20355 -1.42081,-3.78883 -4.73604,-4.73604 -3.31523,-1.42081 -6.63046,-3.3152 -0.4736,-5.20967 -2.84162,-8.5249 -2.36802,-3.3152 -5.68325,-6.15685 0.94721,-2.36802 0.47361,-3.78883 0,-1.42081 -0.47361,-2.8416 -0.4736,-1.42084 -0.9472,-2.84165 0,-1.42081 0.4736,-3.78883 16.57614,-4.26244 31.73147,-8.52487 15.15532,-4.73604 34.09948,-7.57766 6.63046,-0.94721 12.78731,-1.42082 6.63045,-0.4736 6.63045,-0.4736 -18.47055,-9.47208 -28.88984,-23.6802 -9.94568,-14.20812 -18.47055,-33.15228 14.68172,-5.20964 29.36344,-0.4736 15.15533,4.73604 24.15381,15.62893 7.10405,8.05127 8.99847,18.94416 2.36802,10.41929 -2.36802,22.25939 16.57614,-1.42082 42.15075,-1.89442 25.57462,-0.4736 48.30761,-0.94721 -1.89442,-5.68325 -8.52487,-4.73604 -1.42081,0 -3.31523,0.47361 -1.42081,0.4736 -2.84162,0.9472 -2.84163,0.47361 -5.20965,0.94721 -2.36802,0.47361 -4.73604,0 9.94569,-10.41929 17.52335,-22.25938 8.05127,-12.31371 16.57614,-24.15381 -1.89442,-8.05126 -7.10406,-12.7873 -4.73604,-5.20965 -8.05127,-11.8401 12.78731,-7.57767 25.57462,-4.73604 12.7873,2.36802 22.25938,10.41928 9.94571,8.05127 14.20812,17.52335 -7.57766,12.78731 -18.94416,21.31218 -11.36649,8.52487 -18.47055,21.78578 -7.57767,-0.4736 -11.8401,3.31523 -4.26244,3.31523 -4.26244,3.31523 17.99695,-2.84163 39.30913,-3.78883 21.31218,-0.94721 38.83553,5.68324 10.89289,3.78884 18.94416,11.8401 8.05129,7.57769 12.3137,19.89137 z m -52.09644,141.60761 q -0.94718,8.99848 -7.10406,13.26091 -6.15685,4.26244 -11.36649,9.47208 0,8.52488 0,17.99695 0,8.99848 0.4736,18.94416 0.47363,27.94264 -0.4736,55.88527 -0.47361,27.46903 -8.52487,44.04517 -10.41929,4.26244 -19.89137,-2.84162 -9.47208,-7.10406 -13.26091,-17.52335 -11.8401,-4.26244 -27.94264,-4.73604 -15.62893,0 -31.73146,1.42081 -16.10254,1.89442 -29.36345,3.78883 -1.89441,0 -3.78883,0.47361 -1.89441,0.4736 -3.78883,0.4736 -1.42081,5.68325 -6.15685,9.94569 -8.99848,-2.84163 -17.99695,-10.41929 -8.99848,-7.10406 -14.20812,-17.99695 -4.73604,-11.3665 -1.89442,-25.10101 2.36802,0.4736 2.36802,3.31522 0,2.36802 2.84163,2.84163 2.36802,-10.89289 2.36802,-23.6802 0,-12.78731 -0.94721,-26.52182 0,-4.73604 -0.47361,-9.47208 0,-5.20965 0,-10.41929 -2.36802,-5.68325 -8.05126,-9.94568 -5.20965,-4.73604 -9.47208,-9.47208 -4.26244,-4.73604 -4.73604,-9.94568 6.63045,1.89441 12.3137,0 6.15685,-1.89442 12.3137,-4.73604 3.31523,-1.42082 6.15685,-2.36802 2.84163,-1.42082 6.15686,-2.36802 14.68172,-4.26244 33.15227,-4.26244 18.47056,-0.4736 36.94111,-1.42081 12.78731,-0.94721 24.62741,-2.84163 11.8401,-2.36802 21.31218,-7.10406 19.89137,2.36802 33.15228,5.20965 13.73451,2.36802 26.99542,16.10253 z M 604.16878,428.00043 q -10.89289,22.25939 -25.57462,48.30761 -14.68172,25.57461 -27.94263,50.20202 0.94721,3.31525 2.84162,5.68327 1.89442,1.89439 3.78884,4.26241 -1.89442,26.04825 -0.94721,52.57007 0.94721,26.04822 2.36802,52.57004 0.94721,15.62893 1.42081,31.73147 0.94721,15.62893 0.94721,31.25786 0,4.73604 0,10.41928 0.4736,5.68325 0.94721,11.8401 0.4736,9.94569 0.9472,20.83858 0.47361,10.89289 -0.4736,19.89137 -0.94721,10.41928 -3.78883,17.52334 -2.84163,7.10406 -9.47208,8.52487 -13.26091,-8.05126 -23.20662,-21.78578 -9.47208,-13.26091 -7.57764,-34.09949 1.42081,0 2.8416,-1.89441 1.42084,-1.89442 3.78886,-1.42081 2.84162,-22.25939 4.26243,-49.72842 1.42079,-27.94263 0.47361,-58.25329 -0.94721,-30.31065 -5.20965,-59.20049 -5.68327,-0.47361 -8.05129,3.3152 -1.89439,3.78886 -3.3152,8.05129 -0.94721,1.42081 -1.42084,3.31523 -0.47358,1.42081 -1.42081,2.84162 -6.15683,8.99848 -14.6817,16.10254 -8.05127,7.10406 -11.8401,17.99695 -1.89444,0 -3.31523,-0.47361 -1.42081,-0.9472 -1.42081,-0.9472 l -6.15685,9.94568 4.26241,-2.84162 q -2.36802,6.15685 -10.41929,11.8401 -7.57766,5.68324 -12.3137,12.7873 -5.20965,0.94721 -8.52487,-0.4736 -2.84163,-1.42081 -5.20965,-3.31523 -2.36802,-1.89442 -5.68324,-3.31523 -2.84163,-1.89441 -8.05127,-1.89441 9.47208,-8.05127 15.15533,-17.99695 6.15687,-9.94569 11.84009,-18.94416 6.15688,-8.99848 16.10254,-14.20812 0,-2.36802 -1.42081,-1.89442 -1.89442,0.47361 -1.89442,-0.94721 5.68325,-3.78883 10.89292,-13.26093 5.20964,-9.94566 10.89289,-20.83855 5.68325,-11.36652 12.78731,-18.47058 l -2.36802,6.15685 q 4.26241,-0.94721 5.20964,-3.78883 1.42079,-3.31523 -3.78883,-4.73604 0.47358,-0.47358 1.42081,-1.89442 4.26244,-4.73604 7.10406,-9.94568 2.8416,-5.68325 0.47358,-13.26091 17.52337,-13.26089 26.99545,-34.09949 9.47208,-20.83857 17.52335,-42.62436 -2.84163,-7.57766 -8.52487,-12.3137 -5.20967,-4.73604 -10.41929,-9.47208 -5.20964,-4.73604 -8.05127,-12.3137 2.36802,-3.31523 7.57767,-3.31523 5.20964,-0.4736 7.10406,2.84162 22.25938,-5.68324 38.36192,5.20965 16.57614,10.41929 24.1538,27.94263 z m 158.65733,320.15631 q 3.31523,-22.73299 1.89442,-49.72841 -0.94721,-26.99543 -3.31523,-48.78121 -17.99695,-4.73604 -34.57309,-2.84163 -16.10254,1.42081 -32.67868,4.26244 -5.20964,0.94721 -10.89289,1.89441 -5.20964,0.94721 -10.89289,1.42082 -2.84162,6.15685 -3.31523,11.8401 -0.4736,5.68324 -0.4736,11.84009 0,1.89442 0,3.78884 0,1.89441 0,4.26243 0.94721,0 2.36802,-0.4736 18.47055,-1.89442 33.15228,-2.36802 15.15532,-0.47361 26.52182,3.78883 11.8401,4.26244 21.31218,16.57614 -23.2066,3.78883 -42.62436,4.73604 -18.94416,0.4736 -41.20354,6.15685 0.9472,2.36802 0.9472,6.15685 0,3.31523 0,8.05127 -0.4736,4.26244 -0.4736,9.47208 0,4.73604 0.4736,9.47208 16.57614,1.42081 32.67868,1.42081 16.10253,-0.4736 30.78426,-0.4736 8.05126,-0.47361 15.62893,-0.47361 7.57766,0 14.68172,0 z m 28.41624,-222.59389 q -0.47361,-11.36647 -2.84163,-21.78578 -1.89441,-10.89287 -6.63045,-19.89137 -17.99695,0.4736 -31.25786,1.42081 -13.26092,0.94721 -29.83705,3.78883 2.36802,8.05127 1.89441,17.04975 -0.4736,8.52487 0.94721,21.3122 16.10253,-6.15685 30.31065,0.94721 14.68173,6.63043 25.10101,17.04974 -12.7873,2.8416 -26.99542,3.78881 -14.20812,0.94723 -27.46903,3.31525 0,4.73604 -0.47361,8.99848 0,3.78883 0,7.57766 -0.4736,4.26244 -0.9472,8.52487 0,3.78883 0.4736,8.05127 6.63046,0.4736 12.78731,0 6.15685,-0.4736 12.3137,-0.94721 9.94568,-0.94721 18.94416,-0.94721 8.99847,0 17.52335,3.31523 v -1.42081 q 2.84162,-15.62893 4.73604,-30.78426 1.89441,-15.15535 1.42081,-29.36347 z m -99.93044,6.15685 q 0,-11.36647 -1.42081,-23.20659 -0.94721,-11.8401 -3.31523,-16.57614 -8.05127,0 -18.94416,0.94723 -10.41929,0.47358 -20.36497,2.8416 -9.94568,1.89444 -16.57614,6.15685 0,1.89442 -0.4736,4.26244 0,1.89441 0,3.78883 -0.47361,6.15685 -0.94721,12.78733 0,6.15683 2.36802,12.78731 14.20812,0 30.78426,-0.94721 17.04974,-1.42081 28.88984,-2.84165 z m 0.94721,23.68023 q -8.05127,-0.94721 -17.04975,0 -8.52487,0.94718 -17.04974,1.89441 -5.68325,0.94721 -11.36649,1.89442 -5.68325,0.4736 -11.3665,0.94721 l 1.42081,33.62588 q 15.15533,-0.94721 29.83705,-1.89442 15.15533,-0.94721 26.52183,-5.20964 z"
         id="path1708"
         style="font-size:473.604px;font-family:'Yuji Mai';-inkscape-font-specification:'Yuji Mai';fill:#29303d;stroke-width:27.7812" /></clipPath></defs><path
     d="m-2745.657 265.144 28.198 35.189h489.331l10.087-9.413-110.95-494.045-31.462-17.601z"
     transform="matrix(-2.0051 0 0 2.0051 -4364.078 816.662)"
     opacity=".5"
     filter="url(#C)"
     id="path52" /><path
     d="m-1215.57-304.058-153.963 48.25-92.727 473.093 6.639 36.814 10.024 8.338h460.053l10.024-8.338 6.639-36.814-92.727-473.093z"
     fill="url(#A)"
     transform="translate(3097.382 831.934) scale(2.0051)"
     id="path54" /><path
     d="m-899.905-344.262-153.963 48.25-92.727 473.093 6.639 36.814 10.024 8.338h460.054l10.024-8.338 6.639-36.814-92.727-473.093z"
     opacity=".25"
     fill="url(#B)"
     transform="translate(2464.43 912.55) scale(2.0051)"
     style="mix-blend-mode:overlay"
     id="path56" /><path
     d="m1133.938 1262.57-.043 21.064 20.75-16.013-20.707-5.052z"
     opacity=".8"
     fill="#fff"
     id="path58" /><path
     d="m1154.645 1267.622-20.75 16.013-12.661 74.524 20.099-16.719 13.312-73.818z"
     opacity=".6"
     id="path60" /><g
     fill="#fff"
     id="g66"><path
       d="m351.284 319.007 17.664 13.248L660 238.66v-16.402zM968.716 319.007l-17.664 13.248L660 238.66v-16.402z"
       opacity=".3"
       id="path62" /><path
       d="m968.716 319.007-17.664 13.248 182.886 930.315 20.707 5.052z"
       opacity=".3"
       id="path64" /></g><path
     d="m351.284 319.007 17.664 13.248-182.886 930.315-20.707 5.052z"
     opacity=".4"
     id="path68" /><path
     d="m165.355 1267.622 20.75 16.013 12.661 74.524-20.099-16.719-13.312-73.818z"
     opacity=".9"
     id="path70" /><path
     d="m186.062 1262.57.043 21.064-20.75-16.013 20.707-5.052z"
     opacity=".6"
     id="path72" /><path
     d="M186.062 1262.57h947.876l-.043 21.064h-947.79l-.043-21.064z"
     opacity=".2"
     id="path74" /><path
     d="m1133.895 1283.634-12.661 74.524H198.765l-12.66-74.524h947.791z"
     opacity=".7"
     id="path76" /><path
     d="M 646.231,980.58098 538.42699,872.77699 c -4.01775,-4.03323 -10.54824,-4.03323 -14.56599,0 l -4.91001,4.90998 c -4.03489,4.01902 -4.03489,10.552 0,14.57102 l 121.57002,121.57001 -121.57002,121.57 c -4.03322,4.0178 -4.03322,10.5482 0,14.566 l 4.91001,4.909 c 4.01775,4.0332 10.54824,4.0332 14.56599,0 L 659.997,1033.298 781.57199,1154.873 c 4.01775,4.0332 10.54824,4.0332 14.56599,0 l 4.91001,-4.909 c 4.03322,-4.0178 4.03322,-10.5482 0,-14.566 L 679.478,1013.828 801.04799,892.25799 c 4.03489,-4.01902 4.03489,-10.552 0,-14.57102 l -4.91001,-4.90998 c -4.01775,-4.03323 -10.54824,-4.03323 -14.56599,0 l -107.80301,107.79899 -14.57562,13.90998 z m 13.76701,33.24202 h 0.0106 l -0.0106,0.011 -0.005,-0.011 z"
     id="path368-4"
     sodipodi:nodetypes="cccccccccccccccccccccccccccc"
     style="fill:#000000;fill-opacity:1;stroke-width:1" /><path
     id="path82"
     clip-path="url(#clipPath1678)"
     style="fill:#29303d;fill-opacity:1;filter:url(#filter2186)"
     class="UnoptimicedTransforms"
     d="M 646.231,980.581 538.427,872.777 c -4.01776,-4.03322 -10.54824,-4.03322 -14.566,0 l -4.91,4.91 c -4.03489,4.01902 -4.03489,10.55198 0,14.571 l 121.57,121.57 -121.57,121.57 c -4.03322,4.0178 -4.03322,10.5482 0,14.566 l 4.91,4.909 c 4.01776,4.0332 10.54824,4.0332 14.566,0 l 121.57,-121.575 121.575,121.575 c 4.01776,4.0332 10.54824,4.0332 14.566,0 l 4.91,-4.909 c 4.03322,-4.0178 4.03322,-10.5482 0,-14.566 l -121.57,-121.57 121.57,-121.57 c 4.03489,-4.01902 4.03489,-10.55198 0,-14.571 l -4.91,-4.91 c -4.01776,-4.03322 -10.54824,-4.03322 -14.566,0 l -107.803,107.799 -14.57565,13.90998 z m 13.767,33.242 h 0.01 l -0.01,0.01 -0.005,-0.01 z" /><path
     d="m 877.43827,495.72581 q -8.52487,3.31523 -17.52332,5.68325 -8.5249,2.36802 -17.52335,5.20964 -6.15685,10.41929 -8.9985,23.6802 -2.36802,13.26091 -3.31523,26.99545 -1.42081,15.62891 -2.84162,31.25786 -0.94721,15.62894 -5.68325,28.88985 -8.52487,2.36802 -16.10251,0 -7.57769,-2.84163 -11.36652,-8.99848 -37.41471,0.47361 -78.14465,3.78883 -40.72995,3.31523 -75.30303,9.94569 -4.26244,0.4736 -6.63046,3.78883 -2.36802,3.31523 -7.57766,3.31523 -8.05127,-6.15686 -15.62894,-13.26092 -7.10405,-7.57766 -12.7873,-16.10253 2.36802,-19.41776 2.84162,-38.83555 0.47361,-19.41774 -3.78883,-41.20355 -1.42081,-3.78883 -4.73604,-4.73604 -3.31523,-1.42081 -6.63046,-3.3152 -0.4736,-5.20967 -2.84162,-8.5249 -2.36802,-3.3152 -5.68325,-6.15685 0.94721,-2.36802 0.47361,-3.78883 0,-1.42081 -0.47361,-2.8416 -0.4736,-1.42084 -0.9472,-2.84165 0,-1.42081 0.4736,-3.78883 16.57614,-4.26244 31.73147,-8.52487 15.15532,-4.73604 34.09948,-7.57766 6.63046,-0.94721 12.78731,-1.42082 6.63045,-0.4736 6.63045,-0.4736 -18.47055,-9.47208 -28.88984,-23.6802 -9.94568,-14.20812 -18.47055,-33.15228 14.68172,-5.20964 29.36344,-0.4736 15.15533,4.73604 24.15381,15.62893 7.10405,8.05127 8.99847,18.94416 2.36802,10.41929 -2.36802,22.25939 16.57614,-1.42082 42.15075,-1.89442 25.57462,-0.4736 48.30761,-0.94721 -1.89442,-5.68325 -8.52487,-4.73604 -1.42081,0 -3.31523,0.47361 -1.42081,0.4736 -2.84162,0.9472 -2.84163,0.47361 -5.20965,0.94721 -2.36802,0.47361 -4.73604,0 9.94569,-10.41929 17.52335,-22.25938 8.05127,-12.31371 16.57614,-24.15381 -1.89442,-8.05126 -7.10406,-12.7873 -4.73604,-5.20965 -8.05127,-11.8401 12.78731,-7.57767 25.57462,-4.73604 12.7873,2.36802 22.25938,10.41928 9.94571,8.05127 14.20812,17.52335 -7.57766,12.78731 -18.94416,21.31218 -11.36649,8.52487 -18.47055,21.78578 -7.57767,-0.4736 -11.8401,3.31523 -4.26244,3.31523 -4.26244,3.31523 17.99695,-2.84163 39.30913,-3.78883 21.31218,-0.94721 38.83553,5.68324 10.89289,3.78884 18.94416,11.8401 8.05129,7.57769 12.3137,19.89137 z m -52.09644,141.60761 q -0.94718,8.99848 -7.10406,13.26091 -6.15685,4.26244 -11.36649,9.47208 0,8.52488 0,17.99695 0,8.99848 0.4736,18.94416 0.47363,27.94264 -0.4736,55.88527 -0.47361,27.46903 -8.52487,44.04517 -10.41929,4.26244 -19.89137,-2.84162 -9.47208,-7.10406 -13.26091,-17.52335 -11.8401,-4.26244 -27.94264,-4.73604 -15.62893,0 -31.73146,1.42081 -16.10254,1.89442 -29.36345,3.78883 -1.89441,0 -3.78883,0.47361 -1.89441,0.4736 -3.78883,0.4736 -1.42081,5.68325 -6.15685,9.94569 -8.99848,-2.84163 -17.99695,-10.41929 -8.99848,-7.10406 -14.20812,-17.99695 -4.73604,-11.3665 -1.89442,-25.10101 2.36802,0.4736 2.36802,3.31522 0,2.36802 2.84163,2.84163 2.36802,-10.89289 2.36802,-23.6802 0,-12.78731 -0.94721,-26.52182 0,-4.73604 -0.47361,-9.47208 0,-5.20965 0,-10.41929 -2.36802,-5.68325 -8.05126,-9.94568 -5.20965,-4.73604 -9.47208,-9.47208 -4.26244,-4.73604 -4.73604,-9.94568 6.63045,1.89441 12.3137,0 6.15685,-1.89442 12.3137,-4.73604 3.31523,-1.42082 6.15685,-2.36802 2.84163,-1.42082 6.15686,-2.36802 14.68172,-4.26244 33.15227,-4.26244 18.47056,-0.4736 36.94111,-1.42081 12.78731,-0.94721 24.62741,-2.84163 11.8401,-2.36802 21.31218,-7.10406 19.89137,2.36802 33.15228,5.20965 13.73451,2.36802 26.99542,16.10253 z M 604.16878,428.00044 q -10.89289,22.25939 -25.57462,48.30761 -14.68172,25.57461 -27.94263,50.20202 0.94721,3.31525 2.84162,5.68327 1.89442,1.89439 3.78884,4.26241 -1.89442,26.04825 -0.94721,52.57007 0.94721,26.04822 2.36802,52.57004 0.94721,15.62893 1.42081,31.73147 0.94721,15.62893 0.94721,31.25786 0,4.73604 0,10.41928 0.4736,5.68325 0.94721,11.8401 0.4736,9.94569 0.9472,20.83858 0.47361,10.89289 -0.4736,19.89137 -0.94721,10.41928 -3.78883,17.52334 -2.84163,7.10406 -9.47208,8.52487 -13.26091,-8.05126 -23.20662,-21.78578 -9.47208,-13.26091 -7.57764,-34.09949 1.42081,0 2.8416,-1.89441 1.42084,-1.89442 3.78886,-1.42081 2.84162,-22.25939 4.26243,-49.72842 1.42079,-27.94263 0.47361,-58.25329 -0.94721,-30.31065 -5.20965,-59.20049 -5.68327,-0.47361 -8.05129,3.3152 -1.89439,3.78886 -3.3152,8.05129 -0.94721,1.42081 -1.42084,3.31523 -0.47358,1.42081 -1.42081,2.84162 -6.15683,8.99848 -14.6817,16.10254 -8.05127,7.10406 -11.8401,17.99695 -1.89444,0 -3.31523,-0.47361 -1.42081,-0.9472 -1.42081,-0.9472 l -6.15685,9.94568 4.26241,-2.84162 q -2.36802,6.15685 -10.41929,11.8401 -7.57766,5.68324 -12.3137,12.7873 -5.20965,0.94721 -8.52487,-0.4736 -2.84163,-1.42081 -5.20965,-3.31523 -2.36802,-1.89442 -5.68324,-3.31523 -2.84163,-1.89441 -8.05127,-1.89441 9.47208,-8.05127 15.15533,-17.99695 6.15687,-9.94569 11.84009,-18.94416 6.15688,-8.99848 16.10254,-14.20812 0,-2.36802 -1.42081,-1.89442 -1.89442,0.47361 -1.89442,-0.94721 5.68325,-3.78883 10.89292,-13.26093 5.20964,-9.94566 10.89289,-20.83855 5.68325,-11.36652 12.78731,-18.47058 l -2.36802,6.15685 q 4.26241,-0.94721 5.20964,-3.78883 1.42079,-3.31523 -3.78883,-4.73604 0.47358,-0.47358 1.42081,-1.89442 4.26244,-4.73604 7.10406,-9.94568 2.8416,-5.68325 0.47358,-13.26091 17.52337,-13.26089 26.99545,-34.09949 9.47208,-20.83857 17.52335,-42.62436 -2.84163,-7.57766 -8.52487,-12.3137 -5.20967,-4.73604 -10.41929,-9.47208 -5.20964,-4.73604 -8.05127,-12.3137 2.36802,-3.31523 7.57767,-3.31523 5.20964,-0.4736 7.10406,2.84162 22.25938,-5.68324 38.36192,5.20965 16.57614,10.41929 24.1538,27.94263 z m 158.65733,320.15631 q 3.31523,-22.73299 1.89442,-49.72841 -0.94721,-26.99543 -3.31523,-48.78121 -17.99695,-4.73604 -34.57309,-2.84163 -16.10254,1.42081 -32.67868,4.26244 -5.20964,0.94721 -10.89289,1.89441 -5.20964,0.94721 -10.89289,1.42082 -2.84162,6.15685 -3.31523,11.8401 -0.4736,5.68324 -0.4736,11.84009 0,1.89442 0,3.78884 0,1.89441 0,4.26243 0.94721,0 2.36802,-0.4736 18.47055,-1.89442 33.15228,-2.36802 15.15532,-0.47361 26.52182,3.78883 11.8401,4.26244 21.31218,16.57614 -23.2066,3.78883 -42.62436,4.73604 -18.94416,0.4736 -41.20354,6.15685 0.9472,2.36802 0.9472,6.15685 0,3.31523 0,8.05127 -0.4736,4.26244 -0.4736,9.47208 0,4.73604 0.4736,9.47208 16.57614,1.42081 32.67868,1.42081 16.10253,-0.4736 30.78426,-0.4736 8.05126,-0.47361 15.62893,-0.47361 7.57766,0 14.68172,0 z m 28.41624,-222.59389 q -0.47361,-11.36647 -2.84163,-21.78578 -1.89441,-10.89287 -6.63045,-19.89137 -17.99695,0.4736 -31.25786,1.42081 -13.26092,0.94721 -29.83705,3.78883 2.36802,8.05127 1.89441,17.04975 -0.4736,8.52487 0.94721,21.3122 16.10253,-6.15685 30.31065,0.94721 14.68173,6.63043 25.10101,17.04974 -12.7873,2.8416 -26.99542,3.78881 -14.20812,0.94723 -27.46903,3.31525 0,4.73604 -0.47361,8.99848 0,3.78883 0,7.57766 -0.4736,4.26244 -0.9472,8.52487 0,3.78883 0.4736,8.05127 6.63046,0.4736 12.78731,0 6.15685,-0.4736 12.3137,-0.94721 9.94568,-0.94721 18.94416,-0.94721 8.99847,0 17.52335,3.31523 v -1.42081 q 2.84162,-15.62893 4.73604,-30.78426 1.89441,-15.15535 1.42081,-29.36347 z m -99.93044,6.15685 q 0,-11.36647 -1.42081,-23.20659 -0.94721,-11.8401 -3.31523,-16.57614 -8.05127,0 -18.94416,0.94723 -10.41929,0.47358 -20.36497,2.8416 -9.94568,1.89444 -16.57614,6.15685 0,1.89442 -0.4736,4.26244 0,1.89441 0,3.78883 -0.47361,6.15685 -0.94721,12.78733 0,6.15683 2.36802,12.78731 14.20812,0 30.78426,-0.94721 17.04974,-1.42081 28.88984,-2.84165 z m 0.94721,23.68023 q -8.05127,-0.94721 -17.04975,0 -8.52487,0.94718 -17.04974,1.89441 -5.68325,0.94721 -11.36649,1.89442 -5.68325,0.4736 -11.3665,0.94721 l 1.42081,33.62588 q 15.15533,-0.94721 29.83705,-1.89442 15.15533,-0.94721 26.52183,-5.20964 z"
     id="path1491-7"
     style="font-size:473.604px;font-family:'Yuji Mai';-inkscape-font-specification:'Yuji Mai';fill:#000000;stroke-width:27.7812;fill-opacity:1" /><path
     d="m 877.43828,495.72581 q -8.52487,3.31523 -17.52334,5.68325 -8.52488,2.36802 -17.52335,5.20964 -6.15685,10.41929 -8.99848,23.6802 -2.36802,13.26091 -3.31523,26.99543 -1.42081,15.62893 -2.84162,31.25787 -0.94721,15.62893 -5.68325,28.88984 -8.52487,2.36802 -16.10253,0 -7.57767,-2.84162 -11.3665,-8.99848 -37.41472,0.47361 -78.14466,3.78884 -40.72995,3.31522 -75.30304,9.94568 -4.26243,0.4736 -6.63045,3.78883 -2.36802,3.31523 -7.57767,3.31523 -8.05127,-6.15685 -15.62893,-13.26091 -7.10406,-7.57767 -12.78731,-16.10254 2.36802,-19.41776 2.84163,-38.83553 0.4736,-19.41776 -3.78884,-41.20355 -1.42081,-3.78883 -4.73604,-4.73604 -3.31522,-1.42081 -6.63045,-3.31522 -0.47361,-5.20965 -2.84163,-8.52488 -2.36802,-3.31522 -5.68324,-6.15685 0.9472,-2.36802 0.4736,-3.78883 0,-1.42081 -0.4736,-2.84162 -0.47361,-1.42082 -0.94721,-2.84163 0,-1.42081 0.4736,-3.78883 16.57614,-4.26244 31.73147,-8.52487 15.15533,-4.73604 34.09949,-7.57767 6.63045,-0.9472 12.78731,-1.42081 6.63045,-0.4736 6.63045,-0.4736 -18.47055,-9.47208 -28.88984,-23.6802 -9.94569,-14.20812 -18.47056,-33.15228 14.68173,-5.20965 29.36345,-0.47361 15.15533,4.73604 24.1538,15.62894 7.10406,8.05126 8.99848,18.94416 2.36802,10.41928 -2.36802,22.25938 16.57614,-1.42081 42.15076,-1.89441 25.57461,-0.47361 48.30761,-0.94721 -1.89442,-5.68325 -8.52488,-4.73604 -1.42081,0 -3.31522,0.4736 -1.42082,0.47361 -2.84163,0.94721 -2.84162,0.47361 -5.20964,0.94721 -2.36802,0.4736 -4.73604,0 9.94568,-10.41929 17.52335,-22.25939 8.05126,-12.3137 16.57614,-24.1538 -1.89442,-8.05127 -7.10406,-12.78731 -4.73604,-5.20964 -8.05127,-11.8401 12.78731,-7.57766 25.57461,-4.73604 12.78731,2.36802 22.25939,10.41929 9.94569,8.05127 14.20812,17.52335 -7.57766,12.7873 -18.94416,21.31218 -11.36649,8.52487 -18.47055,21.78578 -7.57767,-0.4736 -11.8401,3.31523 -4.26244,3.31523 -4.26244,3.31523 17.99695,-2.84163 39.30913,-3.78884 21.31218,-0.9472 38.83553,5.68325 10.89289,3.78883 18.94416,11.8401 8.05127,7.57767 12.3137,19.89137 z m -52.09644,141.6076 q -0.9472,8.99847 -7.10406,13.26091 -6.15685,4.26244 -11.36649,9.47208 0,8.52487 0,17.99695 0,8.99848 0.4736,18.94416 0.47361,27.94264 -0.4736,55.88527 -0.47361,27.46904 -8.52487,44.04518 -10.41929,4.26243 -19.89137,-2.84163 -9.47208,-7.10406 -13.26091,-17.52335 -11.8401,-4.26243 -27.94264,-4.73604 -15.62893,0 -31.73147,1.42082 -16.10254,1.89441 -29.36345,3.78883 -1.89441,0 -3.78883,0.4736 -1.89442,0.47361 -3.78883,0.47361 -1.42081,5.68324 -6.15685,9.94568 -8.99848,-2.84162 -17.99696,-10.41929 -8.99847,-7.10406 -14.20812,-17.99695 -4.73604,-11.3665 -1.89441,-25.10101 2.36802,0.4736 2.36802,3.31523 0,2.36802 2.84162,2.84162 2.36802,-10.89289 2.36802,-23.6802 0,-12.78731 -0.94721,-26.52182 0,-4.73604 -0.4736,-9.47208 0,-5.20965 0,-10.41929 -2.36802,-5.68325 -8.05127,-9.94569 -5.20964,-4.73604 -9.47208,-9.47208 -4.26243,-4.73604 -4.73604,-9.94568 6.63046,1.89442 12.31371,0 6.15685,-1.89442 12.3137,-4.73604 3.31523,-1.42081 6.15685,-2.36802 2.84163,-1.42081 6.15685,-2.36802 14.68173,-4.26244 33.15228,-4.26244 18.47056,-0.4736 36.94112,-1.42081 12.78731,-0.94721 24.62741,-2.84162 11.8401,-2.36802 21.31218,-7.10406 19.89136,2.36802 33.15228,5.20964 13.73451,2.36802 26.99542,16.10254 z M 604.16877,428.00044 q -10.89289,22.25939 -25.57461,48.30761 -14.68173,25.57461 -27.94264,50.20202 0.94721,3.31523 2.84163,5.68325 1.89441,1.89441 3.78883,4.26243 -1.89442,26.04823 -0.94721,52.57005 0.94721,26.04822 2.36802,52.57004 0.94721,15.62894 1.42081,31.73147 0.94721,15.62893 0.94721,31.25787 0,4.73604 0,10.41928 0.4736,5.68325 0.94721,11.8401 0.4736,9.94569 0.94721,20.83858 0.4736,10.89289 -0.47361,19.89137 -0.94721,10.41929 -3.78883,17.52335 -2.84162,7.10406 -9.47208,8.52487 -13.26091,-8.05127 -23.2066,-21.78579 -9.47208,-13.26091 -7.57766,-34.09948 1.42081,0 2.84162,-1.89442 1.42082,-1.89442 3.78884,-1.42081 2.84162,-22.25939 4.26243,-49.72842 1.42081,-27.94264 0.47361,-58.25329 -0.94721,-30.31066 -5.20965,-59.2005 -5.68325,-0.47361 -8.05127,3.31522 -1.89441,3.78884 -3.31522,8.05127 -0.94721,1.42081 -1.42082,3.31523 -0.4736,1.42081 -1.42081,2.84162 -6.15685,8.99848 -14.68172,16.10254 -8.05127,7.10406 -11.8401,17.99695 -1.89442,0 -3.31523,-0.4736 -1.42081,-0.94721 -1.42081,-0.94721 l -6.15685,9.94568 4.26243,-2.84162 q -2.36802,6.15685 -10.41929,11.8401 -7.57766,5.68325 -12.3137,12.78731 -5.20965,0.94721 -8.52487,-0.47361 -2.84163,-1.42081 -5.20965,-3.31522 -2.36802,-1.89442 -5.68325,-3.31523 -2.84162,-1.89442 -8.05126,-1.89442 9.47208,-8.05127 15.15532,-17.99695 6.15686,-9.94568 11.8401,-18.94416 6.15686,-8.99848 16.10254,-14.20812 0,-2.36802 -1.42081,-1.89442 -1.89442,0.47361 -1.89442,-0.9472 5.68325,-3.78884 10.8929,-13.26092 5.20964,-9.94568 10.89289,-20.83857 5.68325,-11.3665 12.78731,-18.47056 l -2.36802,6.15685 q 4.26243,-0.94721 5.20964,-3.78883 1.42081,-3.31523 -3.78883,-4.73604 0.4736,-0.4736 1.42081,-1.89442 4.26244,-4.73604 7.10406,-9.94568 2.84162,-5.68325 0.4736,-13.26091 17.52335,-13.26091 26.99543,-34.09949 9.47208,-20.83858 17.52335,-42.62436 -2.84162,-7.57766 -8.52487,-12.3137 -5.20965,-4.73604 -10.41929,-9.47208 -5.20964,-4.73604 -8.05127,-12.31371 2.36802,-3.31523 7.57767,-3.31523 5.20964,-0.4736 7.10406,2.84163 22.25938,-5.68325 38.36192,5.20964 16.57614,10.41929 24.1538,27.94264 z m 158.65735,320.1563 q 3.31522,-22.73299 1.89441,-49.72842 -0.94721,-26.99542 -3.31523,-48.78121 -17.99695,-4.73604 -34.57309,-2.84162 -16.10253,1.42081 -32.67868,4.26243 -5.20964,0.94721 -10.89289,1.89442 -5.20964,0.94721 -10.89289,1.42081 -2.84162,6.15685 -3.31523,11.8401 -0.4736,5.68325 -0.4736,11.8401 0,1.89442 0,3.78883 0,1.89442 0,4.26244 0.94721,0 2.36802,-0.4736 18.47055,-1.89442 33.15228,-2.36802 15.15533,-0.47361 26.52182,3.78883 11.8401,4.26243 21.31218,16.57614 -23.20659,3.78883 -42.62436,4.73604 -18.94416,0.4736 -41.20355,6.15685 0.94721,2.36802 0.94721,6.15685 0,3.31523 0,8.05127 -0.4736,4.26244 -0.4736,9.47208 0,4.73604 0.4736,9.47208 16.57614,1.42081 32.67868,1.42081 16.10254,-0.4736 30.78426,-0.4736 8.05127,-0.47361 15.62893,-0.47361 7.57767,0 14.68173,0 z m 28.41624,-222.59388 q -0.47361,-11.36649 -2.84163,-21.78578 -1.89441,-10.89289 -6.63045,-19.89137 -17.99696,0.4736 -31.25787,1.42081 -13.26091,0.94721 -29.83705,3.78883 2.36802,8.05127 1.89442,17.04975 -0.47361,8.52487 0.9472,21.31218 16.10254,-6.15685 30.31066,0.94721 14.68172,6.63045 25.10101,17.04974 -12.78731,2.84162 -26.99543,3.78883 -14.20812,0.94721 -27.46903,3.31523 0,4.73604 -0.4736,8.99848 0,3.78883 0,7.57766 -0.47361,4.26244 -0.94721,8.52487 0,3.78884 0.4736,8.05127 6.63046,0.47361 12.78731,0 6.15685,-0.4736 12.31371,-0.94721 9.94568,-0.9472 18.94416,-0.9472 8.99847,0 17.52334,3.31522 v -1.42081 q 2.84163,-15.62893 4.73604,-30.78426 1.89442,-15.15533 1.42082,-29.36345 z m -99.93045,6.15685 q 0,-11.36649 -1.42081,-23.20659 -0.94721,-11.8401 -3.31523,-16.57614 -8.05127,0 -18.94416,0.94721 -10.41929,0.4736 -20.36497,2.84162 -9.94569,1.89442 -16.57614,6.15685 0,1.89442 -0.47361,4.26244 0,1.89441 0,3.78883 -0.4736,6.15685 -0.9472,12.78731 0,6.15685 2.36802,12.78731 14.20812,0 30.78426,-0.94721 17.04974,-1.42081 28.88984,-2.84163 z m 0.94721,23.68021 q -8.05127,-0.94721 -17.04975,0 -8.52487,0.9472 -17.04974,1.89441 -5.68325,0.94721 -11.3665,1.89442 -5.68324,0.4736 -11.36649,0.94721 l 1.42081,33.62588 q 15.15533,-0.94721 29.83705,-1.89442 15.15533,-0.9472 26.52183,-5.20964 z"
     id="path3525"
     style="font-size:473.604px;font-family:'Yuji Mai';-inkscape-font-specification:'Yuji Mai';fill:#29303d;stroke-width:27.7812;filter:url(#filter2926)"
     clip-path="url(#clipPath1706)" /><path
     d="m 655.97025,777.45753 c 4.199,0.573 6.541,-5.863 3.513,-9.655 -3.028,-3.792 -11.427,-4.94 -12.598,-1.721 -1.171,3.219 4.886,10.803 9.085,11.376 z"
     filter="url(#H)"
     id="path86"
     style="fill:#ffffff" /><path
     d="m 448.64981,644.28584 c 3.431,1.309 5.21,-2.488 2.67,-5.697 -2.54,-3.209 -9.405,-5.828 -10.295,-3.928 -0.89,1.9 4.194,8.316 7.625,9.625 z"
     filter="url(#I)"
     id="path88"
     style="fill:#ffffff"
     transform="rotate(90,449.34496,641.90934)" /><path
     d="m 537.71438,773.73563 c 4.215,0.067 8.386,-3.856 6.256,-5.885 -2.13,-2.029 -10.563,-2.166 -12.648,-0.203 -2.085,1.963 2.177,6.021 6.393,6.088 z"
     filter="url(#J)"
     id="path90"
     style="fill:#ffffff"
     transform="rotate(-130,540.5025,772.66147)" /><path
     d="m 611.26443,603.6045 c 4.495,1.912 11.428,0.6 13.007,-1.969 1.579,-2.569 -2.196,-6.397 -6.69,-8.312 -4.494,-1.915 -9.708,-1.915 -11.287,0.656 -1.579,2.571 0.476,7.712 4.971,9.624 z"
     filter="url(#K)"
     id="path92"
     style="fill:#ffffff"
     transform="rotate(-160,708.15042,580.69339)" /><style
     id="style309">.B{color-interpolation-filters:sRGB}</style></svg>
