<?xml version="1.0" encoding="UTF-8" standalone="no"?>
<svg
   width="498.898"
   height="544.252"
   viewBox="0 0 1320 1440"
   version="1.1"
   id="svg88"
   sodipodi:docname="wO.svg"
   xml:space="preserve"
   inkscape:version="1.2.2 (732a01da63, 2022-12-09)"
   xmlns:inkscape="http://www.inkscape.org/namespaces/inkscape"
   xmlns:sodipodi="http://sodipodi.sourceforge.net/DTD/sodipodi-0.dtd"
   xmlns="http://www.w3.org/2000/svg"
   xmlns:svg="http://www.w3.org/2000/svg"><sodipodi:namedview
     id="namedview90"
     pagecolor="#ffffff"
     bordercolor="#000000"
     borderopacity="0.25"
     inkscape:showpageshadow="2"
     inkscape:pageopacity="0.0"
     inkscape:pagecheckerboard="0"
     inkscape:deskcolor="#d1d1d1"
     showgrid="false"
     inkscape:zoom="2.0164"
     inkscape:cx="175.31244"
     inkscape:cy="331.28348"
     inkscape:window-width="1920"
     inkscape:window-height="974"
     inkscape:window-x="-11"
     inkscape:window-y="-11"
     inkscape:window-maximized="1"
     inkscape:current-layer="svg88" /><style
     id="style2">.B{color-interpolation-filters:sRGB}</style><defs
     id="defs44"><inkscape:path-effect
       effect="fillet_chamfer"
       id="path-effect14339"
       is_visible="true"
       lpeversion="1"
       nodesatellites_param="F,0,0,1,0,10,0,1 @ F,0,0,1,0,10,0,1 @ F,0,0,1,0,10,0,1 @ F,0,0,1,0,10,0,1"
       unit="px"
       method="auto"
       mode="F"
       radius="10"
       chamfer_steps="1"
       flexible="false"
       use_knot_distance="true"
       apply_no_radius="true"
       apply_with_radius="true"
       only_selected="false"
       hide_knots="false" /><filter
       id="C"
       x="-0.012394769"
       y="-0.012013239"
       width="1.0247895"
       height="1.0240265"
       class="B"><feGaussianBlur
         stdDeviation="2.441"
         id="feGaussianBlur4" /></filter><filter
       id="E"
       x="-0.050834621"
       y="-0.04546217"
       width="1.1016692"
       height="1.0909243"
       class="B"><feGaussianBlur
         stdDeviation="5.112"
         id="feGaussianBlur7" /></filter><filter
       id="G"
       x="-0.19478189"
       y="-0.027373106"
       width="1.3895638"
       height="1.0547462"
       class="B"><feGaussianBlur
         stdDeviation="1.571"
         id="feGaussianBlur10" /></filter><filter
       id="H"
       x="-0.14207156"
       y="-0.21663456"
       width="1.2841431"
       height="1.4332691"
       class="B"><feGaussianBlur
         stdDeviation=".815"
         id="feGaussianBlur13" /></filter><filter
       id="I"
       x="-0.11398413"
       y="-0.16712594"
       width="1.2279683"
       height="1.3342519"
       class="B"><feGaussianBlur
         stdDeviation=".815"
         id="feGaussianBlur16" /></filter><filter
       id="J"
       x="-0.32522829"
       y="-0.19027061"
       width="1.6504566"
       height="1.3805412"
       class="B"><feGaussianBlur
         stdDeviation=".815"
         id="feGaussianBlur19" /></filter><linearGradient
       id="A"
       x1="228.547"
       y1="805.755"
       x2="270.281"
       y2="805.755"
       spreadMethod="reflect"
       gradientUnits="userSpaceOnUse"><stop
         offset="0"
         stop-color="#ffd285"
         id="stop22" /><stop
         offset=".232"
         stop-color="#ffcd79"
         id="stop24" /><stop
         offset=".616"
         stop-color="#ffca73"
         id="stop26" /><stop
         offset=".808"
         stop-color="#ffd386"
         id="stop28" /><stop
         offset="1"
         stop-color="#ffc86e"
         id="stop30" /></linearGradient><linearGradient
       id="B"
       x1="660.031"
       y1="318.746"
       x2="660.029"
       y2="1292.766"
       gradientUnits="userSpaceOnUse"><stop
         offset=".596"
         stop-color="#fff"
         id="stop33" /><stop
         offset="1"
         id="stop35" /></linearGradient><clipPath
       id="D"><path
         d="M-124.639 624.558c-12.351-21.614-38.905-34.582-67.929-35.509v3.396c21.614 18.217 35.2 45.081 63.915 52.491 3.397-3.705 7.41-11.733 4.014-20.379zm10.189-67.621c-12.042-8.954-30.259-12.042-49.095-14.203-16.674 9.263-48.168 5.558-63.915 6.175 2.779-5.867 2.779-14.821 4.014-22.54 25.937-5.867 54.035-2.161 67.312-16.056-19.144-12.042-45.389-10.498-67.621-5.249 2.47-13.895 5.867-23.158-1.544-32.112-9.263-1.235-19.144-12.042-31.186-12.351-4.632 0-7.41 1.853-12.351 1.235 2.161 11.733 11.116 20.688 19.453 28.716-.618 7.102 2.779 10.189 2.47 16.982-4.323.309-8.028.926-14.512 1.235 3.397 4.94 10.189 8.954 14.512 10.498-.926 11.116 1.853 22.849-2.779 32.112-16.365.309-29.333 4.94-44.154 1.853-3.088-11.424.309-27.172-7.102-36.126-7.102-8.337-31.803-13.586-38.905-11.425 5.249 10.498 11.424 20.07 21.305 25.628l4.94 26.554c-9.263-.618-15.747 1.235-19.761 5.558-3.705-.309-3.705-4.323-6.793-5.249-6.175 4.323-10.189-2.47-17.909-.618 3.396 13.895 21.923 21.305 33.656 30.568 18.526-14.512 45.389-14.512 75.031-16.365 5.867 20.688 8.337 46.007 1.235 63.298-11.733.309-21.305-1.853-31.186-5.867 5.558 17.6 18.526 39.214 42.61 37.979-.309 1.235-.309.926-3.396.926-13.586 12.968-31.186 22.231-44.772 35.2 2.779 2.47-3.088 4.632-5.249 5.249-.309-3.705-8.954 3.088-13.277 5.558-1.544 1.235-8.954 7.102-7.719 4.323-12.66 1.235-21.614 12.351-33.038 13.586-.309 4.94 4.632 2.47 4.632 6.175 4.014-.309 6.175 1.235 9.881 3.088 0 0-4.014-.309-4.323 1.235 28.098 2.47 49.095-17.291 71.326-29.024 15.439-6.175 27.789-15.747 36.126-26.245 25.937-14.203 41.684-37.67 61.137-57.74-2.779-13.277-19.761-22.849-36.744-21.923-3.705 6.175 2.779 7.719 3.396 12.66-6.484 11.116-15.439 24.084-22.849 28.407-.618 4.014-.926 10.498-6.484 12.968 8.028-16.365 4.632-34.891 4.632-54.035 0-10.498.926-21.305 5.249-31.803-3.705-1.853-7.102-3.705-8.954-7.41 31.495.926 66.694-4.632 89.543.618 7.102-2.161 14.512-4.014 22.231-5.558 3.088-.926.926-4.014.926-6.484zm-168.28 60.519c-4.323-7.41-2.779-20.379-9.263-25.628-15.439 5.249-21.305 25.01-42.919 20.996-2.161 2.47-4.632 4.323-6.484 4.323.926 6.793-.926 16.674-.926 24.702s1.853 14.512 10.189 13.895c2.161 0 8.028-3.088 11.116-5.558 11.425-8.646 25.319-27.481 38.288-32.73z"
         stroke-width="15.32"
         id="path38" /></clipPath><clipPath
       id="F"><path
         d="M1799.134-1180.993h4.879a7.223 7.223 0 0 1 7.239 7.239v123.263a7.223 7.223 0 0 1-7.239 7.239h-4.879a7.223 7.223 0 0 1-7.239-7.239v-123.263a7.223 7.223 0 0 1 7.239-7.239z"
         stroke-width="1.534"
         id="path41" /></clipPath><filter
       inkscape:menu-tooltip="In and out glow with a possible offset and colorizable flood"
       inkscape:menu="Shadows and Glows"
       inkscape:label="Cutout Glow"
       style="color-interpolation-filters:sRGB;"
       id="filter4085"
       x="-0.014692907"
       y="-0.010978637"
       width="1.0355079"
       height="1.0265317"><feOffset
         dy="3"
         dx="3"
         id="feOffset4075" /><feGaussianBlur
         stdDeviation="3"
         result="blur"
         id="feGaussianBlur4077" /><feFlood
         flood-color="rgb(0,0,0)"
         flood-opacity="1"
         result="flood"
         id="feFlood4079" /><feComposite
         in="flood"
         in2="SourceGraphic"
         operator="in"
         result="composite"
         id="feComposite4081" /><feBlend
         in="blur"
         in2="composite"
         mode="normal"
         id="feBlend4083" /></filter><filter
       inkscape:menu-tooltip="In and out glow with a possible offset and colorizable flood"
       inkscape:menu="Shadows and Glows"
       inkscape:label="Cutout Glow"
       style="color-interpolation-filters:sRGB;"
       id="filter5627"
       x="-0.035099721"
       y="-0.010978637"
       width="1.0497926"
       height="1.0372054"><feOffset
         dy="10"
         dx="-10"
         id="feOffset5617" /><feGaussianBlur
         stdDeviation="3"
         result="blur"
         id="feGaussianBlur5619" /><feFlood
         flood-color="rgb(0,0,0)"
         flood-opacity="1"
         result="flood"
         id="feFlood5621" /><feComposite
         in="flood"
         in2="SourceGraphic"
         operator="in"
         result="composite"
         id="feComposite5623" /><feBlend
         in="blur"
         in2="composite"
         mode="normal"
         id="feBlend5625" /></filter><filter
       inkscape:menu-tooltip="In and out glow with a possible offset and colorizable flood"
       inkscape:menu="Shadows and Glows"
       inkscape:label="Cutout Glow"
       style="color-interpolation-filters:sRGB;"
       id="filter10903"
       x="-0.044109061"
       y="-0.019459825"
       width="1.0625733"
       height="1.0659472"><feOffset
         dy="10"
         dx="-10"
         id="feOffset10893" /><feGaussianBlur
         stdDeviation="3"
         result="blur"
         id="feGaussianBlur10895" /><feFlood
         flood-color="rgb(0,0,0)"
         flood-opacity="1"
         result="flood"
         id="feFlood10897" /><feComposite
         in="flood"
         in2="SourceGraphic"
         operator="in"
         result="composite"
         id="feComposite10899" /><feBlend
         in="blur"
         in2="composite"
         mode="normal"
         id="feBlend10901" /></filter><clipPath
       id="D-2"><path
         d="m -124.639,624.558 c -12.351,-21.614 -38.905,-34.582 -67.929,-35.509 v 3.396 c 21.614,18.217 35.2,45.081 63.915,52.491 3.397,-3.705 7.41,-11.733 4.014,-20.379 z m 10.189,-67.621 c -12.042,-8.954 -30.259,-12.042 -49.095,-14.203 -16.674,9.263 -48.168,5.558 -63.915,6.175 2.779,-5.867 2.779,-14.821 4.014,-22.54 25.937,-5.867 54.035,-2.161 67.312,-16.056 -19.144,-12.042 -45.389,-10.498 -67.621,-5.249 2.47,-13.895 5.867,-23.158 -1.544,-32.112 -9.263,-1.235 -19.144,-12.042 -31.186,-12.351 -4.632,0 -7.41,1.853 -12.351,1.235 2.161,11.733 11.116,20.688 19.453,28.716 -0.618,7.102 2.779,10.189 2.47,16.982 -4.323,0.309 -8.028,0.926 -14.512,1.235 3.397,4.94 10.189,8.954 14.512,10.498 -0.926,11.116 1.853,22.849 -2.779,32.112 -16.365,0.309 -29.333,4.94 -44.154,1.853 -3.088,-11.424 0.309,-27.172 -7.102,-36.126 -7.102,-8.337 -31.803,-13.586 -38.905,-11.425 5.249,10.498 11.424,20.07 21.305,25.628 l 4.94,26.554 c -9.263,-0.618 -15.747,1.235 -19.761,5.558 -3.705,-0.309 -3.705,-4.323 -6.793,-5.249 -6.175,4.323 -10.189,-2.47 -17.909,-0.618 3.396,13.895 21.923,21.305 33.656,30.568 18.526,-14.512 45.389,-14.512 75.031,-16.365 5.867,20.688 8.337,46.007 1.235,63.298 -11.733,0.309 -21.305,-1.853 -31.186,-5.867 5.558,17.6 18.526,39.214 42.61,37.979 -0.309,1.235 -0.309,0.926 -3.396,0.926 -13.586,12.968 -31.186,22.231 -44.772,35.2 2.779,2.47 -3.088,4.632 -5.249,5.249 -0.309,-3.705 -8.954,3.088 -13.277,5.558 -1.544,1.235 -8.954,7.102 -7.719,4.323 -12.66,1.235 -21.614,12.351 -33.038,13.586 -0.309,4.94 4.632,2.47 4.632,6.175 4.014,-0.309 6.175,1.235 9.881,3.088 0,0 -4.014,-0.309 -4.323,1.235 28.098,2.47 49.095,-17.291 71.326,-29.024 15.439,-6.175 27.789,-15.747 36.126,-26.245 25.937,-14.203 41.684,-37.67 61.137,-57.74 -2.779,-13.277 -19.761,-22.849 -36.744,-21.923 -3.705,6.175 2.779,7.719 3.396,12.66 -6.484,11.116 -15.439,24.084 -22.849,28.407 -0.618,4.014 -0.926,10.498 -6.484,12.968 8.028,-16.365 4.632,-34.891 4.632,-54.035 0,-10.498 0.926,-21.305 5.249,-31.803 -3.705,-1.853 -7.102,-3.705 -8.954,-7.41 31.495,0.926 66.694,-4.632 89.543,0.618 7.102,-2.161 14.512,-4.014 22.231,-5.558 3.088,-0.926 0.926,-4.014 0.926,-6.484 z m -168.28,60.519 c -4.323,-7.41 -2.779,-20.379 -9.263,-25.628 -15.439,5.249 -21.305,25.01 -42.919,20.996 -2.161,2.47 -4.632,4.323 -6.484,4.323 0.926,6.793 -0.926,16.674 -0.926,24.702 0,8.028 1.853,14.512 10.189,13.895 2.161,0 8.028,-3.088 11.116,-5.558 11.425,-8.646 25.319,-27.481 38.288,-32.73 z"
         stroke-width="15.32"
         id="path38-7" /></clipPath><filter
       id="E-9"
       x="-0.050834621"
       y="-0.04546217"
       width="1.1016692"
       height="1.0909243"
       class="B"><feGaussianBlur
         stdDeviation="5.112"
         id="feGaussianBlur7-2" /></filter><filter
       inkscape:menu-tooltip="In and out glow with a possible offset and colorizable flood"
       inkscape:menu="Shadows and Glows"
       inkscape:label="Cutout Glow"
       style="color-interpolation-filters:sRGB"
       id="filter10903-9"
       x="-0.044109054"
       y="-0.019459825"
       width="1.0625733"
       height="1.0659472"><feOffset
         dy="10"
         dx="-10"
         id="feOffset10893-2" /><feGaussianBlur
         stdDeviation="3"
         result="blur"
         id="feGaussianBlur10895-5" /><feFlood
         flood-color="rgb(0,0,0)"
         flood-opacity="1"
         result="flood"
         id="feFlood10897-9" /><feComposite
         in="flood"
         in2="SourceGraphic"
         operator="in"
         result="composite"
         id="feComposite10899-7" /><feBlend
         in="blur"
         in2="composite"
         mode="normal"
         id="feBlend10901-5" /></filter><clipPath
       clipPathUnits="userSpaceOnUse"
       id="clipPath11743"><g
         id="g11749"><text
           xml:space="preserve"
           style="font-size:423.333px;font-family:'Yuji Mai';-inkscape-font-specification:'Yuji Mai';fill:#29303d;fill-opacity:1;stroke-width:1.37054;stroke-linecap:round;stop-color:#000000"
           x="1319.446"
           y="878.38995"
           id="text11747"><tspan
             sodipodi:role="line"
             id="tspan11745"
             style="font-size:423.333px;stroke-width:1.37054"
             x="1319.446"
             y="878.38995">兵</tspan></text></g></clipPath><filter
       id="C-7"
       x="-0.01052904"
       y="-0.011053209"
       width="1.0210581"
       height="1.0221064"
       class="B"><feGaussianBlur
         stdDeviation="2.441"
         id="feGaussianBlur11757" /></filter><filter
       id="E-2"
       x="-0.047960027"
       y="-0.048037478"
       width="1.0959201"
       height="1.096075"
       class="B"><feGaussianBlur
         stdDeviation="7.58"
         id="feGaussianBlur11760" /></filter><filter
       id="G-2"
       x="-0.048002438"
       y="-0.048002441"
       width="1.0960049"
       height="1.0960049"
       class="B"><feGaussianBlur
         stdDeviation="5.51"
         id="feGaussianBlur11763" /></filter><filter
       id="H-6"
       x="-0.15500487"
       y="-0.17417449"
       width="1.3100097"
       height="1.348349"
       class="B"><feGaussianBlur
         stdDeviation="1.005"
         id="feGaussianBlur11766" /></filter><filter
       id="I-1"
       x="-0.16749596"
       y="-0.21712731"
       width="1.3349919"
       height="1.4342546"
       class="B"><feGaussianBlur
         stdDeviation="1.005"
         id="feGaussianBlur11769" /></filter><filter
       id="J-6"
       x="-0.13868595"
       y="-0.16783961"
       width="1.2773719"
       height="1.3356792"
       class="B"><feGaussianBlur
         stdDeviation="1.005"
         id="feGaussianBlur11772" /></filter><filter
       id="K"
       x="-0.19308802"
       y="-0.25104453"
       width="1.386176"
       height="1.5020891"
       class="B"><feGaussianBlur
         stdDeviation="1.005"
         id="feGaussianBlur11775" /></filter><filter
       id="L"
       x="-0.10037904"
       y="-0.12979434"
       width="1.2007581"
       height="1.2595887"
       class="B"><feGaussianBlur
         stdDeviation="1.005"
         id="feGaussianBlur11778" /></filter><filter
       id="M"
       x="-0.11922398"
       y="-0.14197023"
       width="1.238448"
       height="1.2839405"
       class="B"><feGaussianBlur
         stdDeviation="1.005"
         id="feGaussianBlur11781" /></filter><linearGradient
       id="A-2"
       x1="228.547"
       y1="660.587"
       x2="270.281"
       y2="660.587"
       spreadMethod="reflect"
       gradientUnits="userSpaceOnUse"><stop
         offset="0"
         stop-color="#ffd285"
         id="stop11784" /><stop
         offset=".232"
         stop-color="#ffcd79"
         id="stop11786" /><stop
         offset=".616"
         stop-color="#ffca73"
         id="stop11788" /><stop
         offset=".808"
         stop-color="#ffd386"
         id="stop11790" /><stop
         offset="1"
         stop-color="#ffc86e"
         id="stop11792" /></linearGradient><linearGradient
       id="B-4"
       x1="660.031"
       y1="176.668"
       x2="660.029"
       y2="1147.598"
       gradientUnits="userSpaceOnUse"><stop
         offset=".597"
         stop-color="#fff"
         id="stop11795" /><stop
         offset="1"
         id="stop11797" /></linearGradient><clipPath
       id="D-7"><path
         d="M-309.997 569.351c-12.933-14.657-33.194-29.746-54.318-36.643-15.951-5.173-32.332-5.604-46.99 2.155-27.59-4.311-46.99-.431-68.113-1.293.862-8.622-2.587-22.417 3.449-26.297 20.261 0 40.954-4.311 61.216-6.466 6.898-.862 14.226 4.311 18.537-3.018-12.502-17.244-45.696-25.435-81.477-16.382-.862-9.484-1.724-15.088 1.724-26.297 30.177-1.724 57.336-1.293 81.477-11.209-6.035-12.502-22.848-20.262-43.541-22.848-6.466 6.466-21.124 5.173-34.488 5.173 4.742-18.106-6.035-26.728-10.346-37.505 27.159-5.604 68.975-.862 101.308-3.449-.431-20.693-38.799-27.59-57.336-25.004-23.279 3.449-51.732 2.155-75.442 3.88-36.643 2.587-71.131 10.777-104.756 12.933-3.018.862.431 7.76-3.018 8.191-6.898.431-8.622-4.742-16.813-3.018-4.742 8.622 3.88 13.364 5.173 21.124 12.933 3.88 17.675 14.657 18.106 30.608.862 33.194 0 91.824-8.191 120.707 9.915 9.053 15.519 22.848 26.728 30.608 2.155-2.587 16.382-5.604 16.382-11.209 62.509-6.898 122-16.813 179.336-12.933 7.329 25.866-5.173 51.732-6.466 73.286-.431 4.742 4.311 9.915 3.449 14.657-2.155 13.795-12.502 23.71-23.279 28.883 0-3.018 19.399-16.382 18.537-22.848-13.364 9.053-25.866 30.608-43.541 32.763-25.004 3.018-52.594-18.968-75.011-11.209 17.244 6.898 28.883 20.693 38.368 35.781 18.106 9.484 30.608 27.59 56.474 25.866 13.795-.862 35.35-12.071 44.834-21.124 28.883-26.728 25.435-85.357 36.643-126.742 18.106-2.587 34.488-12.502 41.385-21.124zm-140.968 72.855c2.587-9.915 2.156-18.106 0-25.004-5.604-18.968-26.297-28.883-48.283-36.643 1.293 6.035 2.156 12.933 1.724 21.124 12.933 15.519 19.83 43.972 46.558 40.523zm-60.353-16.813c-6.466-19.83-31.039-31.47-44.403-38.368-4.311 34.057 17.244 62.509 43.11 63.371 3.88-9.484 3.449-17.675 1.293-25.004zm-60.785 7.76c-6.035-19.83-28.452-34.488-46.99-41.385 5.604 29.746 12.071 67.251 44.834 68.544 4.311-9.915 4.742-18.968 2.155-27.159zm-65.096 40.092c10.777-46.558-20.262-64.233-50.007-79.753-8.191 8.622 10.777 31.901 1.724 45.696 9.915 7.76 16.382 22.848 26.728 30.608 5.604 4.311 12.502 6.466 21.555 3.449zm124.587-242.276c-23.71-.431-37.936 6.898-64.664 4.742 2.587-6.898.862-21.986-3.449-27.159 12.502-15.088 42.247-14.226 64.664-16.813 2.155 12.071 4.311 24.141 3.449 39.23zm-1.724 55.18c-25.004.431-40.954 2.587-62.94 4.742-3.449-7.329-1.293-24.141 0-27.59 24.141-2.155 38.368-7.329 62.94-6.466-.431 10.777 1.724 19.83 0 29.315zm1.724 50.438c-24.572 6.898-45.265 6.466-66.389 8.191-1.293-8.622 3.018-19.83 1.293-27.159 23.71 1.724 38.799-9.484 63.371-8.622-.431 10.346 3.018 16.382 1.724 27.59z"
         stroke-width="21.389"
         id="path11800" /></clipPath><clipPath
       id="F-7"><path
         d="M1799.132 1043.254a7.22 7.22 0 0 0-7.237 7.237v107.141l-44.726-44.726 10.889-10.886c-.771-2.729-3.59-5.548-6.319-6.319l-30.343-8.569-5.259-5.26a7.222 7.222 0 0 0-10.237 0l-3.45 3.45a7.222 7.222 0 0 0 0 10.237l5.259 5.259 8.569 30.343c.771 2.729 3.59 5.548 6.319 6.319l10.886-10.889 44.726 44.726h-107.141a7.22 7.22 0 0 0-7.237 7.237v4.88c0 4.01 3.227 7.24 7.237 7.24h107.141l-44.726 44.726-10.886-10.889c-2.729.771-5.548 3.586-6.319 6.315l-8.569 30.347-5.259 5.259a7.222 7.222 0 0 0 0 10.237l3.45 3.45a7.222 7.222 0 0 0 10.237 0l5.266-5.266 30.337-8.565c2.729-.771 5.548-3.586 6.319-6.315l-10.889-10.886 44.726-44.726v107.138c0 4.01 3.227 7.24 7.237 7.24h4.88c4.01 0 7.24-3.23 7.24-7.24v-107.138l44.726 44.726-10.889 10.886c.771 2.729 3.586 5.545 6.315 6.315l30.34 8.565 5.266 5.266a7.222 7.222 0 0 0 10.237 0l3.45-3.45a7.222 7.222 0 0 0 0-10.237l-5.266-5.266-8.565-30.34c-.771-2.729-3.586-5.545-6.315-6.315l-10.886 10.889-44.726-44.726h107.138c4.01 0 7.24-3.23 7.24-7.24v-4.88c0-4.01-3.23-7.237-7.24-7.237H1824.94l44.726-44.726 10.886 10.889c2.729-.771 5.545-3.59 6.315-6.319l8.565-30.337 5.266-5.266a7.222 7.222 0 0 0 0-10.237l-1.725-1.725-1.725-1.725a7.222 7.222 0 0 0-10.237 0l-5.259 5.26-30.347 8.569c-2.729.771-5.545 3.59-6.315 6.319l10.889 10.886-44.726 44.726V1050.49c0-4.01-3.23-7.237-7.24-7.237zm2.438 137.74h.01v.01h-.01z"
         stroke-width="1.534"
         id="path11803" /></clipPath><filter
       id="C-2"
       x="-0.012394769"
       y="-0.012013239"
       width="1.0247895"
       height="1.0240265"><feGaussianBlur
         stdDeviation="2.441"
         id="feGaussianBlur11920" /></filter><filter
       id="E-6"
       x="-0.026998005"
       y="-0.026998101"
       width="1.053996"
       height="1.0539962"
       class="B"><feGaussianBlur
         stdDeviation="3.099"
         id="feGaussianBlur11923" /></filter><filter
       id="G-3"
       x="-0.058025685"
       y="-0.04092232"
       width="1.1160514"
       height="1.0818446"
       class="B"><feGaussianBlur
         stdDeviation="3.543"
         id="feGaussianBlur11926" /></filter><filter
       id="H-0"
       x="-0.093793037"
       y="-0.15286111"
       width="1.1875861"
       height="1.3057222"
       class="B"><feGaussianBlur
         stdDeviation=".9"
         id="feGaussianBlur11929" /></filter><filter
       id="I-7"
       x="-0.065162517"
       y="-0.067338683"
       width="1.130325"
       height="1.1346774"
       class="B"><feGaussianBlur
         stdDeviation=".9"
         id="feGaussianBlur11932" /></filter><linearGradient
       id="A-4"
       x1="228.547"
       y1="805.748"
       x2="270.281"
       y2="805.748"
       spreadMethod="reflect"
       gradientUnits="userSpaceOnUse"
       gradientTransform="translate(1292.803,-136.62942)"><stop
         offset="0"
         stop-color="#ffd285"
         id="stop11935" /><stop
         offset=".232"
         stop-color="#ffcd79"
         id="stop11937" /><stop
         offset=".616"
         stop-color="#ffca73"
         id="stop11939" /><stop
         offset=".808"
         stop-color="#ffd386"
         id="stop11941" /><stop
         offset="1"
         stop-color="#ffc86e"
         id="stop11943" /></linearGradient><linearGradient
       id="B-5"
       x1="660.031"
       y1="318.739"
       x2="660.029"
       y2="1292.759"
       gradientUnits="userSpaceOnUse"
       gradientTransform="translate(1292.803,-136.62942)"><stop
         offset=".604"
         stop-color="#fff"
         id="stop11946" /><stop
         offset="1"
         id="stop11948" /></linearGradient><clipPath
       id="D-1"><path
         d="M1799.132 1043.253a7.22 7.22 0 0 0-7.237 7.237v107.141l-75.759-75.759a7.222 7.222 0 0 0-10.237 0l-3.45 3.45a7.222 7.222 0 0 0 0 10.237l75.759 75.759h-107.141a7.223 7.223 0 0 0-7.237 7.24v4.876c0 4.01 3.227 7.24 7.237 7.24h120.828v120.828a7.22 7.22 0 0 0 7.237 7.237h4.88c4.01 0 7.24-3.227 7.24-7.237v-120.828h120.825c4.01 0 7.24-3.23 7.24-7.24v-4.876c0-4.01-3.23-7.24-7.24-7.24h-107.138l75.759-75.759a7.222 7.222 0 0 0 0-10.237l-3.45-3.45a7.222 7.222 0 0 0-10.237 0l-75.759 75.759V1050.49c0-4.01-3.23-7.237-7.24-7.237zm2.438 137.74h.01v.01h-.01z"
         stroke-width="1.534"
         id="path11951" /></clipPath><clipPath
       id="F-1"><path
         d="M982.397 347.79c-5.318-1.999-15.307-9.799-22.198-17.332-11.647-12.733-12.529-14.865-12.529-30.288 0-13.47 1.499-18.527 7.967-26.882 12.203-15.764 22.463-24.326 42.838-35.749l18.655-10.459-2.595-15.114c-1.427-8.313-4.779-23.864-7.45-34.559-4.612-18.474-5.426-15.573-12.474-18.186-11.903-4.414-12.257-5.303.606-16.686 11.268-9.971 26.614-16.976 30.27-13.817.985.851 1.971 12.958 2.191 26.904s1.253 33.888 2.296 44.315l1.896 18.959 18.371-7.607c21.637-8.959 26.026-9.473 26.026-3.051 0 2.806-7.331 9.239-17.804 15.621-25.142 15.321-66.454 49.521-70.818 58.625-5.762 12.021-6.054 25.28 3.9 31.668 11.08 7.11 33.452 10.552 65.71-2.216 35.013-13.859 49.631-5.427 49.631 11.723 0 11.818-14.309 17.551-59.937 24.013-33.845 4.793-52.032 4.827-64.552.12z"
         stroke-width="2.846"
         id="path11954" /></clipPath><inkscape:path-effect
       effect="fillet_chamfer"
       id="path-effect14339-8"
       is_visible="true"
       lpeversion="1"
       nodesatellites_param="F,0,0,1,0,10,0,1 @ F,0,0,1,0,10,0,1 @ F,0,0,1,0,10,0,1 @ F,0,0,1,0,10,0,1"
       unit="px"
       method="auto"
       mode="F"
       radius="10"
       chamfer_steps="1"
       flexible="false"
       use_knot_distance="true"
       apply_no_radius="true"
       apply_with_radius="true"
       only_selected="false"
       hide_knots="false" /><inkscape:path-effect
       effect="fillet_chamfer"
       id="path-effect14339-8-6"
       is_visible="true"
       lpeversion="1"
       nodesatellites_param="F,0,0,1,0,10,0,1 @ F,0,0,1,0,10,0,1 @ F,0,0,1,0,10,0,1 @ F,0,0,1,0,10,0,1"
       unit="px"
       method="auto"
       mode="F"
       radius="10"
       chamfer_steps="1"
       flexible="false"
       use_knot_distance="true"
       apply_no_radius="true"
       apply_with_radius="true"
       only_selected="false"
       hide_knots="false" /><inkscape:path-effect
       effect="fillet_chamfer"
       id="path-effect14339-3"
       is_visible="true"
       lpeversion="1"
       nodesatellites_param="F,0,0,1,0,10,0,1 @ F,0,0,1,0,10,0,1 @ F,0,0,1,0,10,0,1 @ F,0,0,1,0,10,0,1"
       unit="px"
       method="auto"
       mode="F"
       radius="10"
       chamfer_steps="1"
       flexible="false"
       use_knot_distance="true"
       apply_no_radius="true"
       apply_with_radius="true"
       only_selected="false"
       hide_knots="false" /><inkscape:path-effect
       effect="fillet_chamfer"
       id="path-effect14339-8-0"
       is_visible="true"
       lpeversion="1"
       nodesatellites_param="F,0,0,1,0,10,0,1 @ F,0,0,1,0,10,0,1 @ F,0,0,1,0,10,0,1 @ F,0,0,1,0,10,0,1"
       unit="px"
       method="auto"
       mode="F"
       radius="10"
       chamfer_steps="1"
       flexible="false"
       use_knot_distance="true"
       apply_no_radius="true"
       apply_with_radius="true"
       only_selected="false"
       hide_knots="false" /><inkscape:path-effect
       effect="fillet_chamfer"
       id="path-effect14339-2"
       is_visible="true"
       lpeversion="1"
       nodesatellites_param="F,0,0,1,0,10,0,1 @ F,0,0,1,0,10,0,1 @ F,0,0,1,0,10,0,1 @ F,0,0,1,0,10,0,1"
       unit="px"
       method="auto"
       mode="F"
       radius="10"
       chamfer_steps="1"
       flexible="false"
       use_knot_distance="true"
       apply_no_radius="true"
       apply_with_radius="true"
       only_selected="false"
       hide_knots="false" /><inkscape:path-effect
       effect="fillet_chamfer"
       id="path-effect14339-9"
       is_visible="true"
       lpeversion="1"
       nodesatellites_param="F,0,0,1,0,10,0,1 @ F,0,0,1,0,10,0,1 @ F,0,0,1,0,10,0,1 @ F,0,0,1,0,10,0,1"
       unit="px"
       method="auto"
       mode="F"
       radius="10"
       chamfer_steps="1"
       flexible="false"
       use_knot_distance="true"
       apply_no_radius="true"
       apply_with_radius="true"
       only_selected="false"
       hide_knots="false" /><inkscape:path-effect
       effect="fillet_chamfer"
       id="path-effect14339-8-7"
       is_visible="true"
       lpeversion="1"
       nodesatellites_param="F,0,0,1,0,10,0,1 @ F,0,0,1,0,10,0,1 @ F,0,0,1,0,10,0,1 @ F,0,0,1,0,10,0,1"
       unit="px"
       method="auto"
       mode="F"
       radius="10"
       chamfer_steps="1"
       flexible="false"
       use_knot_distance="true"
       apply_no_radius="true"
       apply_with_radius="true"
       only_selected="false"
       hide_knots="false" /><inkscape:path-effect
       effect="fillet_chamfer"
       id="path-effect14339-8-0-5"
       is_visible="true"
       lpeversion="1"
       nodesatellites_param="F,0,0,1,0,10,0,1 @ F,0,0,1,0,10,0,1 @ F,0,0,1,0,10,0,1 @ F,0,0,1,0,10,0,1"
       unit="px"
       method="auto"
       mode="F"
       radius="10"
       chamfer_steps="1"
       flexible="false"
       use_knot_distance="true"
       apply_no_radius="true"
       apply_with_radius="true"
       only_selected="false"
       hide_knots="false" /><inkscape:path-effect
       effect="fillet_chamfer"
       id="path-effect14339-2-9"
       is_visible="true"
       lpeversion="1"
       nodesatellites_param="F,0,0,1,0,10,0,1 @ F,0,0,1,0,10,0,1 @ F,0,0,1,0,10,0,1 @ F,0,0,1,0,10,0,1"
       unit="px"
       method="auto"
       mode="F"
       radius="10"
       chamfer_steps="1"
       flexible="false"
       use_knot_distance="true"
       apply_no_radius="true"
       apply_with_radius="true"
       only_selected="false"
       hide_knots="false" /><filter
       id="H-2"
       x="-0.14207156"
       y="-0.21663456"
       width="1.2841431"
       height="1.4332691"
       class="B"><feGaussianBlur
         stdDeviation=".815"
         id="feGaussianBlur13-1" /></filter><filter
       id="J-4"
       x="-0.32522829"
       y="-0.19027061"
       width="1.6504566"
       height="1.3805412"
       class="B"><feGaussianBlur
         stdDeviation=".815"
         id="feGaussianBlur19-0" /></filter><filter
       inkscape:menu-tooltip="In and out glow with a possible offset and colorizable flood"
       inkscape:menu="Shadows and Glows"
       inkscape:label="Cutout Glow"
       style="color-interpolation-filters:sRGB;"
       id="filter14575"
       x="-0.044109055"
       y="-0.019459825"
       width="1.0625733"
       height="1.0659472"><feOffset
         dy="10"
         dx="-10"
         id="feOffset14565" /><feGaussianBlur
         stdDeviation="3"
         result="blur"
         id="feGaussianBlur14567" /><feFlood
         flood-color="rgb(0,0,0)"
         flood-opacity="0"
         result="flood"
         id="feFlood14569" /><feComposite
         in="flood"
         in2="SourceGraphic"
         operator="in"
         result="composite"
         id="feComposite14571" /><feBlend
         in="blur"
         in2="composite"
         mode="normal"
         id="feBlend14573" /></filter><filter
       inkscape:menu-tooltip="In and out glow with a possible offset and colorizable flood"
       inkscape:menu="Shadows and Glows"
       inkscape:label="Cutout Glow"
       style="color-interpolation-filters:sRGB"
       id="filter14575-7"
       x="-0.044109054"
       y="-0.019459825"
       width="1.0625733"
       height="1.0659472"><feOffset
         dy="10"
         dx="-10"
         id="feOffset14565-6" /><feGaussianBlur
         stdDeviation="3"
         result="blur"
         id="feGaussianBlur14567-4" /><feFlood
         flood-color="rgb(0,0,0)"
         flood-opacity="1"
         result="flood"
         id="feFlood14569-8" /><feComposite
         in="flood"
         in2="SourceGraphic"
         operator="in"
         result="composite"
         id="feComposite14571-6" /><feBlend
         in="blur"
         in2="composite"
         mode="normal"
         id="feBlend14573-6" /></filter><filter
       inkscape:menu-tooltip="In and out glow with a possible offset and colorizable flood"
       inkscape:menu="Shadows and Glows"
       inkscape:label="Cutout Glow"
       style="color-interpolation-filters:sRGB;"
       id="filter14644"
       x="-0.052052722"
       y="-0.052103723"
       width="1.1257941"
       height="1.1259173"><feOffset
         dy="3"
         dx="3"
         id="feOffset14634" /><feGaussianBlur
         stdDeviation="3"
         result="blur"
         id="feGaussianBlur14636" /><feFlood
         flood-color="rgb(0,0,0)"
         flood-opacity="1"
         result="flood"
         id="feFlood14638" /><feComposite
         in="flood"
         in2="SourceGraphic"
         operator="in"
         result="composite"
         id="feComposite14640" /><feBlend
         in="blur"
         in2="composite"
         mode="normal"
         id="feBlend14642" /></filter><filter
       inkscape:menu-tooltip="In and out glow with a possible offset and colorizable flood"
       inkscape:menu="Shadows and Glows"
       inkscape:label="Cutout Glow"
       style="color-interpolation-filters:sRGB;"
       id="filter14656"
       x="-0.052052739"
       y="-0.052103744"
       width="1.1257941"
       height="1.1259174"><feOffset
         dy="3"
         dx="3"
         id="feOffset14646" /><feGaussianBlur
         stdDeviation="3"
         result="blur"
         id="feGaussianBlur14648" /><feFlood
         flood-color="rgb(0,0,0)"
         flood-opacity="1"
         result="flood"
         id="feFlood14650" /><feComposite
         in="flood"
         in2="SourceGraphic"
         operator="in"
         result="composite"
         id="feComposite14652" /><feBlend
         in="blur"
         in2="composite"
         mode="normal"
         id="feBlend14654" /></filter><filter
       inkscape:menu-tooltip="In and out glow with a possible offset and colorizable flood"
       inkscape:menu="Shadows and Glows"
       inkscape:label="Cutout Glow"
       style="color-interpolation-filters:sRGB;"
       id="filter14668"
       x="-0.6167516"
       y="-0.03628245"
       width="1.8749267"
       height="1.1229572"><feOffset
         dy="10"
         dx="-10"
         id="feOffset14658" /><feGaussianBlur
         stdDeviation="3"
         result="blur"
         id="feGaussianBlur14660" /><feFlood
         flood-color="rgb(0,0,0)"
         flood-opacity="0"
         result="flood"
         id="feFlood14662" /><feComposite
         in="flood"
         in2="SourceGraphic"
         operator="in"
         result="composite"
         id="feComposite14664" /><feBlend
         in="blur"
         in2="composite"
         mode="normal"
         id="feBlend14666" /></filter><filter
       inkscape:menu-tooltip="In and out glow with a possible offset and colorizable flood"
       inkscape:menu="Shadows and Glows"
       inkscape:label="Cutout Glow"
       style="color-interpolation-filters:sRGB;"
       id="filter14684"
       x="-0.12434821"
       y="-0.052103744"
       width="1.1764009"
       height="1.1765738"><feOffset
         dy="10"
         dx="-10"
         id="feOffset14674" /><feGaussianBlur
         stdDeviation="3"
         result="blur"
         id="feGaussianBlur14676" /><feFlood
         flood-color="rgb(0,0,0)"
         flood-opacity="0"
         result="flood"
         id="feFlood14678" /><feComposite
         in="flood"
         in2="SourceGraphic"
         operator="in"
         result="composite"
         id="feComposite14680" /><feBlend
         in="blur"
         in2="composite"
         mode="normal"
         id="feBlend14682" /></filter><filter
       inkscape:menu-tooltip="In and out glow with a possible offset and colorizable flood"
       inkscape:menu="Shadows and Glows"
       inkscape:label="Cutout Glow"
       style="color-interpolation-filters:sRGB"
       id="filter14684-2"
       x="-0.053747154"
       y="-0.052080623"
       width="1.076246"
       height="1.1764954"><feOffset
         dy="10"
         dx="-10"
         id="feOffset14674-3" /><feGaussianBlur
         stdDeviation="3"
         result="blur"
         id="feGaussianBlur14676-8" /><feFlood
         flood-color="rgb(0,0,0)"
         flood-opacity="1"
         result="flood"
         id="feFlood14678-1" /><feComposite
         in="flood"
         in2="SourceGraphic"
         operator="in"
         result="composite"
         id="feComposite14680-8" /><feBlend
         in="blur"
         in2="composite"
         mode="normal"
         id="feBlend14682-0" /></filter><filter
       inkscape:menu-tooltip="In and out glow with a possible offset and colorizable flood"
       inkscape:menu="Shadows and Glows"
       inkscape:label="Cutout Glow"
       style="color-interpolation-filters:sRGB"
       id="filter14668-8"
       x="-0.61675182"
       y="-0.036282448"
       width="1.874927"
       height="1.1229572"><feOffset
         dy="10"
         dx="-10"
         id="feOffset14658-0" /><feGaussianBlur
         stdDeviation="3"
         result="blur"
         id="feGaussianBlur14660-3" /><feFlood
         flood-color="rgb(0,0,0)"
         flood-opacity="1"
         result="flood"
         id="feFlood14662-0" /><feComposite
         in="flood"
         in2="SourceGraphic"
         operator="in"
         result="composite"
         id="feComposite14664-3" /><feBlend
         in="blur"
         in2="composite"
         mode="normal"
         id="feBlend14666-8" /></filter><filter
       id="H-23"
       x="-0.14207156"
       y="-0.21663456"
       width="1.2841431"
       height="1.4332691"
       class="B"><feGaussianBlur
         stdDeviation=".815"
         id="feGaussianBlur13-0" /></filter><clipPath
       clipPathUnits="userSpaceOnUse"
       id="clipPath1080"><path
         d="m 843.91433,708.93919 q 1.27,5.07999 -0.84664,6.77333 -2.11669,1.26999 -5.50333,2.11666 -1.69333,0.84667 -3.38669,1.69333 -1.69333,0.42334 -2.53997,1.69334 -28.36332,-4.65667 -58.41998,-5.92667 -29.63329,-1.69333 -58.41995,-1.69333 -32.17329,0 -65.61661,0.84667 -33.01999,0.84666 -64.76995,5.07999 9.31333,5.50331 18.62666,10.16 9.73664,4.23333 12.69997,15.6633 -18.62663,20.31999 -37.25329,43.17998 -18.20333,22.43666 -40.63996,39.36996 -4.23333,2.96333 -11.42999,4.23333 -7.19667,1.27 -12.27667,1.69333 0,-3.38666 -2.53999,-5.07999 -2.11667,-1.27 -5.08,-2.54 -2.54,-0.84667 -4.65667,-2.54 -2.11666,-1.69333 -0.42333,-5.92667 19.47333,-12.69999 36.82996,-31.74996 17.35666,-19.04999 31.74998,-36.40665 -0.84666,-5.92666 -6.34999,-10.58333 -5.50333,-4.65666 -5.50333,-8.88997 0,-3.81002 4.23333,-4.65666 4.65666,-1.27 9.31333,-1.69333 4.65666,-0.84667 4.65666,-2.96336 -11.85333,-0.84664 -27.93999,0.84669 -16.08663,1.69333 -30.05662,6.35 -4.65667,1.69333 -9.73667,4.23333 -5.07999,2.11664 -10.15999,2.11664 -6.77333,0 -14.81666,-6.77333 -8.04333,-6.77333 -15.66333,-14.81664 -7.61997,-8.04333 -13.54663,-11.85332 0.42333,-3.81 2.96333,-4.65667 2.96333,-1.27 3.38664,-4.23333 5.92666,2.11666 12.69999,2.54 6.77333,0.42333 13.12333,0.42333 18.62666,0 37.25332,-1.27 18.62663,-1.69333 37.25329,-1.69333 -1.69333,-18.62666 -2.11667,-43.60329 -0.42333,-24.97666 -5.08,-49.52998 -3.38666,-20.7433 -11.42999,-38.09996 -7.61997,-17.77999 -22.43663,-27.93999 2.54,-1.27 5.92666,-1.27 4.65667,0 9.31333,2.11667 4.65664,1.69333 9.31333,2.54 8.04331,-4.65667 17.77997,-6.77333 10.15999,-2.54 19.04999,-5.92667 l -1.69333,2.96334 q 13.12333,-2.11667 25.39999,-7.19667 12.69999,-5.07997 24.97663,-9.3133 0.84666,-4.23333 5.50333,-5.08 5.08,-1.27 7.19666,-2.11666 0,0 0,1.26997 0,0.84669 1.27,0.84669 1.69333,-0.84669 7.19666,-2.96333 5.50334,-2.54 11.00667,-4.65666 5.50333,-2.54 6.34999,-2.96334 l -2.96333,-1.69333 q 5.50333,-2.54 11.43,-4.65666 5.92666,-2.11667 11.42999,-3.81 -2.11669,-4.65667 -7.19666,-7.19667 -4.65669,-2.96333 -8.04333,-7.19666 7.19666,-0.42333 14.81666,-1.69333 7.61997,-1.27 14.3933,-4.23333 10.16,4.23333 19.89666,9.31333 9.73666,4.65666 20.31999,8.04333 -0.84667,1.69333 -0.42333,3.38666 0.42333,1.69333 0.84666,2.96333 0.42334,2.54 0.42334,5.08 0.42333,2.54 -2.54,5.92667 -27.51666,5.92666 -53.33998,17.35663 -25.8233,11.00666 -52.06995,20.74332 -25.8233,9.73667 -55.03329,11.85333 3.38667,7.19666 5.50333,15.23999 2.54,7.62 0.42334,15.66333 13.12333,0 25.82332,0.42331 13.1233,0 26.24663,0 27.93999,0 55.45662,-2.11664 27.93999,-2.11669 55.45664,-8.04333 16.08666,4.23333 30.47996,9.31333 14.39333,5.07997 24.97666,15.6633 -12.7,4.23333 -26.24666,4.65666 -13.54666,0.42334 -27.51665,0.42334 -6.34997,0 -13.1233,0 -6.35,0 -12.7,0.42333 1.69333,4.23333 2.11667,8.46666 0.42333,4.23333 0.42333,8.46667 0,16.50999 -4.23333,33.86665 -3.81,16.9333 -8.46666,33.01996 1.26999,0 3.80999,0.42333 8.89,0.84667 17.78,1.27 8.88999,0.42333 15.23999,-0.84666 6.77333,-1.27 8.04333,-5.50334 13.54663,0.84667 29.20996,4.23334 16.08666,2.96333 30.47999,9.31333 14.81666,5.92666 24.12996,16.08666 z M 689.39778,622.57925 q 0,-5.08 -0.84664,-9.73667 -0.42333,-5.07999 -2.54002,-9.31332 -3.81,0 -7.61997,0 -3.38667,0 -6.77333,0 -21.16666,0.42333 -42.33332,1.26999 -21.16663,0.84667 -41.06329,6.35 0.42333,9.73666 0.42333,19.47333 0,9.73666 0,19.47332 0,9.73664 0,19.4733 0,9.73666 0.42334,19.47333 11.00666,-1.27 22.01332,-1.69334 11.00664,-0.42333 22.0133,-0.42333 12.27666,0 24.55332,-0.42333 12.27666,-0.42334 24.97666,-2.54 0,-15.66333 3.38664,-30.47996 3.38666,-15.24 3.38666,-30.90332 z m 104.56327,201.5065 q -2.54,2.54 -6.35,3.38667 -3.81,0.84666 -8.04333,0.84666 -6.35,0 -11.85333,-3.38666 -5.50333,-2.96333 -11.42997,-3.81 -10.15999,-11.00664 -17.35666,-24.12996 -6.77333,-13.12333 -13.54666,-26.24666 -6.35,-13.54666 -16.08666,-24.97666 -5.50333,-6.34997 -12.69997,-12.27666 -6.77333,-5.92666 -6.77333,-15.23997 13.96997,2.11667 26.24663,8.46667 12.27666,6.34997 24.12999,13.96999 11.85333,7.19664 24.12999,12.69997 8.0433,7.19666 12.27664,17.35666 4.65666,9.73666 8.46666,19.47332 5.50333,3.81 6.77333,14.81664 1.69333,11.00666 2.11667,19.04999 z"
         id="path1082"
         style="font-size:423.333px;font-family:'Yuji Mai';-inkscape-font-specification:'Yuji Mai';fill:#29303d;stroke-width:1.37054;stroke-linecap:round" /></clipPath><clipPath
       clipPathUnits="userSpaceOnUse"
       id="clipPath1110"><path
         d="m 656.55401,1106.744 h 7.03 a 10.406,10.406 0 0 0 10.429,-10.429 V 918.73 a 10.406,10.406 0 0 0 -10.429,-10.42902 h -7.03 a 10.406,10.406 0 0 0 -10.429,10.42902 v 177.585 a 10.406,10.406 0 0 0 10.429,10.429 z"
         id="path1112"
         style="fill:#29303d;fill-opacity:1;stroke-width:1" /></clipPath><clipPath
       clipPathUnits="userSpaceOnUse"
       id="clipPath1137"><path
         style="color:#000000;fill:#9b0000;fill-opacity:1;stroke-width:1;-inkscape-stroke:none"
         d="m 810.67313,970.65308 5.49783,5.50497 a 10.000174,10.000174 0 0 1 -0.008,14.14227 L 703.33949,1102.9815 a 9.9998459,9.9998459 0 0 1 -14.14202,-0.011 l -5.49783,-5.505 a 10.000157,10.000157 0 0 1 0.008,-14.1422 l 112.8235,-112.67982 a 9.9998224,9.9998224 0 0 1 14.14202,0.008 z"
         id="path1139" /></clipPath><clipPath
       clipPathUnits="userSpaceOnUse"
       id="clipPath1164"><path
         style="color:#000000;fill:#9b0000;fill-opacity:1;stroke-width:1;-inkscape-stroke:none"
         d="m 507.50068,970.59173 -5.49783,5.50494 a 10.000163,10.000163 0 0 0 0.008,14.14224 l 112.8236,112.68129 a 9.9998166,9.9998166 0 0 0 14.142,-0.011 l 5.49783,-5.5049 a 10.00018,10.00018 0 0 0 -0.008,-14.1423 L 521.64271,970.58252 a 9.9998401,9.9998401 0 0 0 -14.14203,0.008 z"
         id="path1166" /></clipPath></defs><path
     d="m-2713.437 205.288 23.119 34.853h436.247l13.285-11.264-98.703-458.797-31.462-17.601z"
     transform="matrix(-2.0051 0 0 2.0051 -4364.078 945.818)"
     opacity=".5"
     filter="url(#C)"
     id="path46" /><path
     d="m660.043 318.747-287.664 75.701-142.368 882.306 13.312 80.689 20.099 16.718h793.244l20.099-16.718 13.312-80.689-142.368-882.306z"
     fill="url(#A)"
     id="path48" /><path
     d="m660.031 318.746-287.664 75.701L230 1283.627l13.312 73.816 20.099 16.718h793.244l20.099-16.718 13.312-73.816-142.37-889.18z"
     fill="url(#B)"
     opacity=".25"
     style="mix-blend-mode:overlay"
     id="path50" /><path
     d="m1069.332 1271.707-.043 21.064 20.75-16.013-20.707-5.052z"
     opacity=".8"
     fill="#fff"
     id="path52" /><path
     d="m1090.039 1276.759-20.75 16.013-12.661 81.397 20.099-16.719 13.312-80.69z"
     opacity=".6"
     id="path54" /><g
     fill="#fff"
     id="g60"><path
       d="m372.331 394.437 17.664 13.248L660 335.137v-16.402zM947.669 394.437l-17.664 13.248L660 335.137v-16.402z"
       opacity=".3"
       id="path56" /><path
       d="m947.669 394.437-17.664 13.248 139.327 864.022 20.707 5.052z"
       opacity=".3"
       id="path58" /></g><path
     d="m372.331 394.437 17.664 13.248-139.327 864.022-20.707 5.052z"
     opacity=".4"
     id="path62" /><path
     d="m229.96 1276.759 20.75 16.013 12.661 81.397-20.099-16.719-13.312-80.69z"
     opacity=".9"
     id="path64" /><path
     d="m250.668 1271.707.043 21.064-20.75-16.013 20.707-5.052z"
     opacity=".6"
     id="path66" /><path
     d="M250.668 1271.707h818.665l-.043 21.064H250.71l-.043-21.064z"
     opacity=".2"
     id="path68" /><path
     d="m1069.289 1292.771-12.661 81.397H263.371l-12.661-81.397z"
     opacity=".7"
     id="path70" /><path
     style="color:#000000;fill:#340000;fill-opacity:1;stroke-width:1;-inkscape-stroke:none"
     d="m 507.50068,970.59173 -5.49783,5.50494 a 10.000163,10.000163 0 0 0 0.008,14.14224 l 112.8236,112.68129 a 9.9998166,9.9998166 0 0 0 14.142,-0.011 l 5.49783,-5.5049 a 10.00018,10.00018 0 0 0 -0.008,-14.1423 L 521.64271,970.5821 a 9.9998401,9.9998401 0 0 0 -14.14203,0.008 z"
     id="path2586-4" /><path
     style="color:#000000;fill:#9b0000;fill-opacity:1;-inkscape-stroke:none;filter:url(#filter14684)"
     d="m 507.50068,970.59173 -5.49782,5.50494 a 10.000163,10.000163 0 0 0 0.009,14.14225 l 112.82358,112.68128 a 9.9998165,9.9998165 0 0 0 14.14201,-0.01 l 5.49784,-5.5049 a 10.00018,10.00018 0 0 0 -0.009,-14.1423 L 521.6427,970.58269 a 9.99984,9.99984 0 0 0 -14.14202,0.009 z"
     id="path12123-5"
     clip-path="url(#clipPath1164)" /><path
     style="color:#000000;fill:#340000;fill-opacity:1;stroke-width:1;-inkscape-stroke:none"
     d="m 810.67313,970.65308 5.49783,5.50497 a 10.000174,10.000174 0 0 1 -0.008,14.14227 L 703.33944,1102.9815 a 9.9998459,9.9998459 0 0 1 -14.14203,-0.011 l -5.49782,-5.505 a 10.000157,10.000157 0 0 1 0.008,-14.1422 L 796.5311,970.64345 a 9.9998224,9.9998224 0 0 1 14.14203,0.008 z"
     id="path2582-5" /><path
     style="color:#000000;fill:#9b0000;fill-opacity:1;-inkscape-stroke:none;filter:url(#filter14684)"
     d="m 810.67312,970.65308 5.49784,5.50498 a 10.000174,10.000174 0 0 1 -0.009,14.14225 L 703.33837,1102.9815 a 9.9998459,9.9998459 0 0 1 -14.14202,-0.01 l -5.49782,-5.505 a 10.000157,10.000157 0 0 1 0.009,-14.1422 L 796.53111,970.64404 a 9.9998224,9.9998224 0 0 1 14.14201,0.009 z"
     id="path12123-7-1"
     clip-path="url(#clipPath1137)" /><path
     d="m 656.55401,1106.744 h 7.03 A 10.406,10.406 0 0 0 674.013,1096.315 V 918.72999 a 10.406,10.406 0 0 0 -10.42899,-10.429 h -7.03 a 10.406,10.406 0 0 0 -10.429,10.429 V 1096.315 a 10.406,10.406 0 0 0 10.429,10.429 z"
     id="path14798-3"
     style="fill:#000000;fill-opacity:1" /><path
     d="M656.554 1106.744h7.03a10.406 10.406 0 0 0 10.429-10.429V918.73a10.406 10.406 0 0 0-10.429-10.429h-7.03a10.406 10.406 0 0 0-10.429 10.429v177.585a10.406 10.406 0 0 0 10.429 10.429z"
     id="path72"
     style="fill:#29303d;fill-opacity:1;filter:url(#filter14668)"
     clip-path="url(#clipPath1110)" /><path
     d="m 843.91433,708.93919 q 1.27,5.07999 -0.84664,6.77333 -2.11669,1.26999 -5.50333,2.11666 -1.69333,0.84667 -3.38669,1.69333 -1.69333,0.42334 -2.53997,1.69334 -28.36332,-4.65667 -58.41998,-5.92667 -29.63329,-1.69333 -58.41995,-1.69333 -32.17329,0 -65.61661,0.84667 -33.01999,0.84666 -64.76995,5.07999 9.31333,5.50331 18.62666,10.16 9.73664,4.23333 12.69997,15.6633 -18.62663,20.31999 -37.25329,43.17998 -18.20333,22.43666 -40.63996,39.36996 -4.23333,2.96333 -11.42999,4.23333 -7.19667,1.27 -12.27667,1.69333 0,-3.38666 -2.53999,-5.07999 -2.11667,-1.27 -5.08,-2.54 -2.54,-0.84667 -4.65667,-2.54 -2.11666,-1.69333 -0.42333,-5.92667 19.47333,-12.69999 36.82996,-31.74996 17.35666,-19.04999 31.74998,-36.40665 -0.84666,-5.92666 -6.34999,-10.58333 -5.50333,-4.65666 -5.50333,-8.88997 0,-3.81002 4.23333,-4.65666 4.65666,-1.27 9.31333,-1.69333 4.65666,-0.84667 4.65666,-2.96336 -11.85333,-0.84664 -27.93999,0.84669 -16.08663,1.69333 -30.05662,6.35 -4.65667,1.69333 -9.73667,4.23333 -5.07999,2.11664 -10.15999,2.11664 -6.77333,0 -14.81666,-6.77333 -8.04333,-6.77333 -15.66333,-14.81664 -7.61997,-8.04333 -13.54663,-11.85332 0.42333,-3.81 2.96333,-4.65667 2.96333,-1.27 3.38664,-4.23333 5.92666,2.11666 12.69999,2.54 6.77333,0.42333 13.12333,0.42333 18.62666,0 37.25332,-1.27 18.62663,-1.69333 37.25329,-1.69333 -1.69333,-18.62666 -2.11667,-43.60329 -0.42333,-24.97666 -5.08,-49.52998 -3.38666,-20.7433 -11.42999,-38.09996 -7.61997,-17.77999 -22.43663,-27.93999 2.54,-1.27 5.92666,-1.27 4.65667,0 9.31333,2.11667 4.65664,1.69333 9.31333,2.54 8.04331,-4.65667 17.77997,-6.77333 10.15999,-2.54 19.04999,-5.92667 l -1.69333,2.96334 q 13.12333,-2.11667 25.39999,-7.19667 12.69999,-5.07997 24.97663,-9.3133 0.84666,-4.23333 5.50333,-5.08 5.08,-1.27 7.19666,-2.11666 0,0 0,1.26997 0,0.84669 1.27,0.84669 1.69333,-0.84669 7.19666,-2.96333 5.50334,-2.54 11.00667,-4.65666 5.50333,-2.54 6.34999,-2.96334 l -2.96333,-1.69333 q 5.50333,-2.54 11.43,-4.65666 5.92666,-2.11667 11.42999,-3.81 -2.11669,-4.65667 -7.19666,-7.19667 -4.65669,-2.96333 -8.04333,-7.19666 7.19666,-0.42333 14.81666,-1.69333 7.61997,-1.27 14.3933,-4.23333 10.16,4.23333 19.89666,9.31333 9.73666,4.65666 20.31999,8.04333 -0.84667,1.69333 -0.42333,3.38666 0.42333,1.69333 0.84666,2.96333 0.42334,2.54 0.42334,5.08 0.42333,2.54 -2.54,5.92667 -27.51666,5.92666 -53.33998,17.35663 -25.8233,11.00666 -52.06995,20.74332 -25.8233,9.73667 -55.03329,11.85333 3.38667,7.19666 5.50333,15.23999 2.54,7.62 0.42334,15.66333 13.12333,0 25.82332,0.42331 13.1233,0 26.24663,0 27.93999,0 55.45662,-2.11664 27.93999,-2.11669 55.45664,-8.04333 16.08666,4.23333 30.47996,9.31333 14.39333,5.07997 24.97666,15.6633 -12.7,4.23333 -26.24666,4.65666 -13.54666,0.42334 -27.51665,0.42334 -6.34997,0 -13.1233,0 -6.35,0 -12.7,0.42333 1.69333,4.23333 2.11667,8.46666 0.42333,4.23333 0.42333,8.46667 0,16.50999 -4.23333,33.86665 -3.81,16.9333 -8.46666,33.01996 1.26999,0 3.80999,0.42333 8.89,0.84667 17.78,1.27 8.88999,0.42333 15.23999,-0.84666 6.77333,-1.27 8.04333,-5.50334 13.54663,0.84667 29.20996,4.23334 16.08666,2.96333 30.47999,9.31333 14.81666,5.92666 24.12996,16.08666 z M 689.39778,622.57925 q 0,-5.08 -0.84664,-9.73667 -0.42333,-5.07999 -2.54002,-9.31332 -3.81,0 -7.61997,0 -3.38667,0 -6.77333,0 -21.16666,0.42333 -42.33332,1.26999 -21.16663,0.84667 -41.06329,6.35 0.42333,9.73666 0.42333,19.47333 0,9.73666 0,19.47332 0,9.73664 0,19.4733 0,9.73666 0.42334,19.47333 11.00666,-1.27 22.01332,-1.69334 11.00664,-0.42333 22.0133,-0.42333 12.27666,0 24.55332,-0.42333 12.27666,-0.42334 24.97666,-2.54 0,-15.66333 3.38664,-30.47996 3.38666,-15.24 3.38666,-30.90332 z m 104.56327,201.5065 q -2.54,2.54 -6.35,3.38667 -3.81,0.84666 -8.04333,0.84666 -6.35,0 -11.85333,-3.38666 -5.50333,-2.96333 -11.42997,-3.81 -10.15999,-11.00664 -17.35666,-24.12996 -6.77333,-13.12333 -13.54666,-26.24666 -6.35,-13.54666 -16.08666,-24.97666 -5.50333,-6.34997 -12.69997,-12.27666 -6.77333,-5.92666 -6.77333,-15.23997 13.96997,2.11667 26.24663,8.46667 12.27666,6.34997 24.12999,13.96999 11.85333,7.19664 24.12999,12.69997 8.0433,7.19666 12.27664,17.35666 4.65666,9.73666 8.46666,19.47332 5.50333,3.81 6.77333,14.81664 1.69333,11.00666 2.11667,19.04999 z"
     id="path2338-5"
     style="font-size:423.333px;font-family:'Yuji Mai';-inkscape-font-specification:'Yuji Mai';fill:#000000;stroke-width:1.37054;stroke-linecap:round;fill-opacity:1" /><path
     d="m 843.91434,708.93924 q 1.27,5.08 -0.84666,6.77333 -2.11667,1.27 -5.50333,2.11666 -1.69333,0.84667 -3.38667,1.69334 -1.69333,0.42333 -2.53999,1.69333 -28.36332,-4.65666 -58.41996,-5.92666 -29.63331,-1.69334 -58.41995,-1.69334 -32.17331,0 -65.61662,0.84667 -33.01998,0.84667 -64.76995,5.08 9.31333,5.50333 18.62665,10.15999 9.73666,4.23333 12.69999,15.66332 -18.62665,20.31998 -37.2533,43.17997 -18.20332,22.43665 -40.63997,39.36997 -4.23333,2.96333 -11.42999,4.23333 -7.19666,1.27 -12.27666,1.69333 0,-3.38667 -2.54,-5.08 -2.11666,-1.27 -5.07999,-2.54 -2.54,-0.84666 -4.65667,-2.53999 -2.11666,-1.69334 -0.42333,-5.92667 19.47332,-12.69999 36.82997,-31.74997 17.35665,-19.04999 31.74998,-36.40664 -0.84667,-5.92666 -6.35,-10.58333 -5.50333,-4.65666 -5.50333,-8.88999 0,-3.81 4.23333,-4.65666 4.65667,-1.27 9.31333,-1.69333 4.65666,-0.84667 4.65666,-2.96333 -11.85332,-0.84667 -27.93998,0.84666 -16.08665,1.69333 -30.05664,6.35 -4.65666,1.69333 -9.73666,4.23333 -5.08,2.11666 -10.15999,2.11666 -6.77333,0 -14.81666,-6.77333 -8.04332,-6.77332 -15.66332,-14.81665 -7.61999,-8.04333 -13.54665,-11.85333 0.42333,-3.80999 2.96333,-4.65666 2.96333,-1.27 3.38666,-4.23333 5.92666,2.11667 12.69999,2.54 6.77333,0.42333 13.12332,0.42333 18.62666,0 37.25331,-1.27 18.62665,-1.69333 37.2533,-1.69333 -1.69333,-18.62665 -2.11666,-43.6033 -0.42333,-24.97665 -5.08,-49.52996 -3.38666,-20.74332 -11.42999,-38.09997 -7.61999,-17.77999 -22.43665,-27.93998 2.54,-1.27 5.92666,-1.27 4.65667,0 9.31333,2.11667 4.65666,1.69333 9.31333,2.53999 8.04332,-4.65666 17.77998,-6.77332 10.15999,-2.54 19.04999,-5.92667 l -1.69333,2.96333 q 13.12332,-2.11666 25.39998,-7.19666 12.69999,-5.07999 24.97664,-9.31332 0.84667,-4.23333 5.50333,-5.08 5.08,-1.27 7.19666,-2.11666 0,0 0,1.27 0,0.84666 1.27,0.84666 1.69334,-0.84666 7.19666,-2.96333 5.50333,-2.54 11.00666,-4.65666 5.50333,-2.54 6.35,-2.96333 l -2.96333,-1.69334 q 5.50333,-2.53999 11.42999,-4.65666 5.92666,-2.11666 11.42999,-3.81 -2.11667,-4.65666 -7.19666,-7.19666 -4.65667,-2.96333 -8.04333,-7.19666 7.19666,-0.42333 14.81666,-1.69333 7.61999,-1.27 14.39332,-4.23333 10.15999,4.23333 19.89665,9.31333 9.73666,4.65666 20.31998,8.04332 -0.84666,1.69334 -0.42333,3.38667 0.42333,1.69333 0.84667,2.96333 0.42333,2.54 0.42333,5.07999 0.42333,2.54 -2.54,5.92667 -27.51664,5.92666 -53.33996,17.35665 -25.82331,11.00666 -52.06996,20.74332 -25.82331,9.73666 -55.03329,11.85332 3.38667,7.19666 5.50333,15.23999 2.54,7.61999 0.42333,15.66332 13.12333,0 25.82332,0.42333 13.12332,0 26.24664,0 27.93998,0 55.45663,-2.11666 27.93998,-2.11667 55.45662,-8.04333 16.08666,4.23333 30.47998,9.31333 14.39332,5.07999 24.97665,15.66332 -12.69999,4.23333 -26.24665,4.65666 -13.54666,0.42334 -27.51665,0.42334 -6.34999,0 -13.12332,0 -6.34999,0 -12.69999,0.42333 1.69333,4.23333 2.11667,8.46666 0.42333,4.23333 0.42333,8.46666 0,16.50999 -4.23333,33.86664 -3.81,16.93332 -8.46666,33.01997 1.27,0 3.81,0.42334 8.88999,0.84666 17.77998,1.27 8.88999,0.42333 15.23999,-0.84667 6.77333,-1.27 8.04333,-5.50333 13.54665,0.84667 29.20997,4.23333 16.08666,2.96333 30.47998,9.31333 14.81666,5.92666 24.12998,16.08665 z M 689.39779,622.57931 q 0,-5.08 -0.84666,-9.73666 -0.42333,-5.08 -2.54,-9.31333 -3.81,0 -7.61999,0 -3.38667,0 -6.77333,0 -21.16665,0.42334 -42.3333,1.27 -21.16665,0.84667 -41.0633,6.35 0.42333,9.73666 0.42333,19.47331 0,9.73666 0,19.47332 0,9.73666 0,19.47332 0,9.73666 0.42333,19.47332 11.00666,-1.27 22.01332,-1.69333 11.00666,-0.42334 22.01331,-0.42334 12.27666,0 24.55332,-0.42333 12.27666,-0.42333 24.97665,-2.54 0,-15.66332 3.38666,-30.47997 3.38666,-15.23999 3.38666,-30.90331 z m 104.56326,201.50651 q -2.54,2.54 -6.35,3.38666 -3.80999,0.84667 -8.04332,0.84667 -6.35,0 -11.85333,-3.38666 -5.50333,-2.96334 -11.42999,-3.81 -10.15999,-11.00666 -17.35665,-24.12998 -6.77333,-13.12333 -13.54666,-26.24665 -6.34999,-13.54666 -16.08665,-24.97665 -5.50333,-6.34999 -12.69999,-12.27665 -6.77333,-5.92667 -6.77333,-15.23999 13.96999,2.11666 26.24664,8.46666 12.27666,6.34999 24.12999,13.96999 11.85332,7.19666 24.12998,12.69999 8.04332,7.19666 12.27665,17.35665 4.65667,9.73666 8.46666,19.47332 5.50333,3.81 6.77333,14.81665 1.69333,11.00666 2.11667,19.04999 z"
     id="path2792"
     style="font-size:423.333px;font-family:'Yuji Mai';-inkscape-font-specification:'Yuji Mai';fill:#29303d;stroke-width:1.37054;stroke-linecap:round;filter:url(#filter14575)"
     clip-path="url(#clipPath1080)" /><path
     d="m 642.478,491.592 c 4.81,2.442 13.399,0.325 12.885,-3.176 -0.514,-3.501 -10.131,-8.387 -14.427,-7.328 -4.296,1.059 -3.268,8.062 1.542,10.504 z"
     filter="url(#I)"
     transform="matrix(1.1537,0,0,1.1537,-253.01907,157.50522)"
     id="path80"
     style="fill:#ffffff" /><path
     d="m 630.788,690.397 c 1.733,1.307 4.585,-2.347 4.28,-5.481 -0.305,-3.134 -3.771,-5.751 -5.198,-3.923 -1.427,1.828 -0.814,8.098 0.918,9.405 z"
     filter="url(#J)"
     transform="matrix(0.81578909,-0.81578909,0.81578909,0.81578909,-370.18642,690.68272)"
     id="path82"
     style="fill:#ffffff" /><path
     d="m 545.954,688.375 c 4.214,1.647 8.612,-0.552 6.597,-3.299 -2.015,-2.747 -10.444,-6.046 -12.643,-4.946 -2.199,1.1 1.832,6.598 6.046,8.245 z"
     filter="url(#H)"
     transform="matrix(0.57685,-0.99913353,0.99913353,0.57685,-469.41795,966.0026)"
     id="path84-3"
     style="fill:#ffffff;filter:url(#H-23)" /><style
     id="style11755">.B{color-interpolation-filters:sRGB}</style><style
     id="style11918">.B{color-interpolation-filters:sRGB}</style></svg>
