<?xml version="1.0" encoding="UTF-8" standalone="no"?>
<svg
   xml:space="preserve"
   width="260"
   height="260"
   overflow="hidden"
   version="1.1"
   id="svg1047"
   sodipodi:docname="bA.svg"
   inkscape:version="1.2.2 (732a01da63, 2022-12-09)"
   xmlns:inkscape="http://www.inkscape.org/namespaces/inkscape"
   xmlns:sodipodi="http://sodipodi.sourceforge.net/DTD/sodipodi-0.dtd"
   xmlns="http://www.w3.org/2000/svg"
   xmlns:svg="http://www.w3.org/2000/svg"><sodipodi:namedview
     id="namedview1049"
     pagecolor="#ffffff"
     bordercolor="#000000"
     borderopacity="0.25"
     inkscape:showpageshadow="2"
     inkscape:pageopacity="0.0"
     inkscape:pagecheckerboard="0"
     inkscape:deskcolor="#d1d1d1"
     showgrid="false"
     inkscape:zoom="2.1104418"
     inkscape:cx="10.898192"
     inkscape:cy="31.746908"
     inkscape:window-width="1920"
     inkscape:window-height="974"
     inkscape:window-x="-11"
     inkscape:window-y="-11"
     inkscape:window-maximized="1"
     inkscape:current-layer="svg1047" /><defs
     id="defs1041"><clipPath
       id="a"><path
         d="M2720 1497h260v260h-260z"
         id="path1038" /></clipPath><clipPath
       id="a-1"><path
         d="m 2200,1757 h 260 v 260 h -260 z"
         id="path345" /></clipPath><clipPath
       id="a-1-8"><path
         d="m 2200,1757 h 260 v 260 h -260 z"
         id="path345-5" /></clipPath></defs><g
     clip-path="url(#a)"
     transform="matrix(0.665,0,0,0.665,-1728.491,-916.928)"
     id="g1045"><path
       fill="#262626"
       fill-rule="evenodd"
       d="m 2837.03,1575.38 c -9.78,0 -17.71,7.97 -17.71,17.79 0,9.83 7.93,17.79 17.71,17.79 9.78,0 17.71,-7.96 17.71,-17.79 0,-9.82 -7.93,-17.79 -17.71,-17.79 z m 43.42,-19.8 c -9.78,0 -17.71,7.97 -17.71,17.79 0,9.83 7.93,17.79 17.71,17.79 9.78,0 17.71,-7.96 17.71,-17.79 0,-9.82 -7.93,-17.79 -17.71,-17.79 z m -92.6711,-24.0522 44.5911,9.0922 15.12,-6.39 c 9.51,-2.64 19.53,-4.14 30.07,-4.58 42.16,-1.77 79.67,10.29 81.41,53.93 1.2,30.01 -38.89,49.32 -73.65,58.33 l -1.76,0.42 22.81,91.67 h -155.06 c -0.64,-28.1 -0.62,-72.16 10.13,-109.41 l 6.87,-15.98 -10.0649,-43.1378 31.4149,-2.3922 z"
       id="path1043"
       sodipodi:nodetypes="sssssssssscccccccccccccc" /></g><g
     style="overflow:hidden"
     id="g365"
     transform="matrix(0.3959798,-0.3959798,0.3959798,0.3959798,-0.48053274,101.86555)"><g
       clip-path="url(#a-1)"
       transform="matrix(0.9,0,0,0.9,-1966.95,-1568.208)"
       id="g354"><path
         d="M 105,-22.473 58.775,67.025 -13.985,-15.035 4.7533671,144.83352 61.358756,93.512721 99.233245,113.17357 144.14214,95.884688 205.57903,145.16592 223.984,-15.035 l -72.76,82.06 z"
         style="color:#000000;fill:#262626;fill-rule:evenodd;stroke-miterlimit:8;-inkscape-stroke:none"
         transform="matrix(-1,0,0,1,2435.5,1793.5)"
         id="path350"
         sodipodi:nodetypes="ccccccccccc" /></g></g></svg>
