<?xml version="1.0" encoding="UTF-8" standalone="no"?>
<svg
   xml:space="preserve"
   width="260"
   height="260"
   overflow="hidden"
   version="1.1"
   id="svg11"
   sodipodi:docname="bC.svg"
   inkscape:version="1.2.2 (732a01da63, 2022-12-09)"
   xmlns:inkscape="http://www.inkscape.org/namespaces/inkscape"
   xmlns:sodipodi="http://sodipodi.sourceforge.net/DTD/sodipodi-0.dtd"
   xmlns="http://www.w3.org/2000/svg"
   xmlns:svg="http://www.w3.org/2000/svg"><sodipodi:namedview
     id="namedview13"
     pagecolor="#ffffff"
     bordercolor="#000000"
     borderopacity="0.25"
     inkscape:showpageshadow="2"
     inkscape:pageopacity="0.0"
     inkscape:pagecheckerboard="0"
     inkscape:deskcolor="#d1d1d1"
     showgrid="false"
     inkscape:zoom="1.8038462"
     inkscape:cx="110.31983"
     inkscape:cy="131.10874"
     inkscape:window-width="1280"
     inkscape:window-height="650"
     inkscape:window-x="-6"
     inkscape:window-y="-6"
     inkscape:window-maximized="1"
     inkscape:current-layer="svg11" /><defs
     id="defs5"><clipPath
       id="a"><path
         d="M2720 1497h260v260h-260z"
         id="path2" /></clipPath><clipPath
       id="a-8"><path
         d="M1940 1757h260v260h-260z"
         id="path2-8" /></clipPath><clipPath
       id="a-9"><path
         d="m 1940,1757 h 260 v 260 h -260 z"
         id="path2-9" /></clipPath><clipPath
       id="a-92"><path
         d="M1680 1757h260v260h-260z"
         id="path345" /></clipPath><clipPath
       id="a-3"><path
         d="M1680 1757h260v260h-260z"
         id="path1550" /></clipPath><clipPath
       id="a-2"><path
         d="M1940 1757h260v260h-260z"
         id="path2-81" /></clipPath><clipPath
       id="a-92-0"><path
         d="M1680 1757h260v260h-260z"
         id="path345-4" /></clipPath><clipPath
       id="a-3-2"><path
         d="M1680 1757h260v260h-260z"
         id="path1550-4" /></clipPath><clipPath
       id="a-5"><path
         d="M2720 1497h260v260h-260z"
         id="path2518" /></clipPath><clipPath
       clipPathUnits="userSpaceOnUse"
       id="clipPath2554"><g
         id="g2558"><path
           d="m 43.1232,57.3574 h 187.2 v 187.2 h -187.2 z"
           id="path2556"
           style="stroke-width:0.72" /></g></clipPath><clipPath
       clipPathUnits="userSpaceOnUse"
       id="clipPath2560"><g
         id="g2564"><path
           d="m 43.1232,57.3574 h 187.2 v 187.2 h -187.2 z"
           id="path2562"
           style="stroke-width:0.72" /></g></clipPath><clipPath
       clipPathUnits="userSpaceOnUse"
       id="clipPath2566"><g
         id="g2570"><path
           d="m 43.1232,57.3574 h 187.2 v 187.2 h -187.2 z"
           id="path2568"
           style="stroke-width:0.72" /></g></clipPath><clipPath
       id="a-21"><path
         d="M1940 1757h260v260h-260z"
         id="path2-87" /></clipPath><clipPath
       id="a-9-9"><path
         d="m 1940,1757 h 260 v 260 h -260 z"
         id="path2-9-2" /></clipPath><clipPath
       id="a-92-6"><path
         d="M1680 1757h260v260h-260z"
         id="path345-6" /></clipPath><clipPath
       id="a-3-4"><path
         d="M1680 1757h260v260h-260z"
         id="path1550-6" /></clipPath></defs><path
     style="fill:#262626;fill-opacity:1;stroke:#262626;stroke-width:16;stroke-linecap:round;stroke-linejoin:round;stroke-dasharray:none;stroke-opacity:1;stop-color:#000000"
     id="path1129"
     sodipodi:type="arc"
     sodipodi:cx="127.31989"
     sodipodi:cy="44.394306"
     sodipodi:rx="15.010309"
     sodipodi:ry="14.608248"
     sodipodi:start="0"
     sodipodi:end="6.2753409"
     sodipodi:open="true"
     sodipodi:arc-type="chord"
     d="M 142.3302,44.394306 A 15.010309,14.608248 0 0 1 127.34933,59.002526 15.010309,14.608248 0 0 1 112.3097,44.451603 15.010309,14.608248 0 0 1 127.23158,29.786311 15.010309,14.608248 0 0 1 142.32974,44.279714 Z" /><path
     id="path2523"
     clip-path="url(#clipPath2538)"
     style="stroke-width:0.76;fill:#262626;fill-opacity:1"
     d="M 85.125 72.066406 L 93.402344 104.04688 L 61.740234 94.167969 L 77.175781 138.65039 L 77.175781 138.65234 L 84.580078 144.6543 L 109.35938 164.74219 L 116.86328 170.82812 L 104.69531 185.83789 L 97.189453 179.75391 L 72.410156 159.66406 L 70.121094 157.80859 C 63.790087 184.48174 63.809076 214.33069 64.255859 233.94727 L 182.10156 233.94727 L 164.76562 164.27734 L 166.10352 163.95703 C 192.52109 157.10944 222.99012 142.43453 222.07812 119.62695 C 220.75573 86.460583 192.24665 77.295426 160.20508 78.640625 C 152.19469 78.975025 144.58111 80.114696 137.35352 82.121094 L 125.86133 86.978516 L 85.125 72.066406 z M 162.40234 98.347656 C 169.83514 98.347656 175.86133 104.40399 175.86133 111.86719 C 175.86133 119.33798 169.83514 125.38867 162.40234 125.38867 C 154.96955 125.38867 148.94336 119.33798 148.94336 111.86719 C 148.94336 104.40399 154.96955 98.347656 162.40234 98.347656 z M 129.40234 113.39453 C 136.83514 113.39453 142.86328 119.45282 142.86328 126.91602 C 142.86328 134.38681 136.83514 140.43555 129.40234 140.43555 C 121.96955 140.43555 115.94336 134.38681 115.94336 126.91602 C 115.94336 119.45282 121.96955 113.39453 129.40234 113.39453 z " /></svg>
