<?xml version="1.0" encoding="UTF-8" standalone="no"?>
<svg
   xml:space="preserve"
   width="260"
   height="260"
   overflow="hidden"
   version="1.1"
   id="svg3432"
   sodipodi:docname="bG.svg"
   inkscape:version="1.2.2 (732a01da63, 2022-12-09)"
   xmlns:inkscape="http://www.inkscape.org/namespaces/inkscape"
   xmlns:sodipodi="http://sodipodi.sourceforge.net/DTD/sodipodi-0.dtd"
   xmlns="http://www.w3.org/2000/svg"
   xmlns:svg="http://www.w3.org/2000/svg"><sodipodi:namedview
     id="namedview3434"
     pagecolor="#ffffff"
     bordercolor="#000000"
     borderopacity="0.25"
     inkscape:showpageshadow="2"
     inkscape:pageopacity="0.0"
     inkscape:pagecheckerboard="0"
     inkscape:deskcolor="#d1d1d1"
     showgrid="false"
     inkscape:zoom="1.2755118"
     inkscape:cx="83.887892"
     inkscape:cy="185.41576"
     inkscape:window-width="1280"
     inkscape:window-height="650"
     inkscape:window-x="-6"
     inkscape:window-y="-6"
     inkscape:window-maximized="1"
     inkscape:current-layer="svg3432" /><defs
     id="defs3426"><clipPath
       id="a"><path
         d="M2720 1497h260v260h-260z"
         id="path3423" /></clipPath><clipPath
       id="a-31"><path
         d="M1940 1757h260v260h-260z"
         id="path2" /></clipPath><clipPath
       id="a-3"><path
         d="m 1940,1757 h 260 v 260 h -260 z"
         id="path2-3" /></clipPath><clipPath
       id="a-5"><path
         d="M2460 1757h260v260h-260z"
         id="path899" /></clipPath><clipPath
       id="a-50"><path
         d="M2460 1497h260v260h-260z"
         id="path4814" /></clipPath></defs><g
     clip-path="url(#a)"
     transform="matrix(0.76,0,0,0.76,-2011.8768,-1083.1164)"
     id="g3430"><path
       fill="#262626"
       fill-rule="evenodd"
       d="m 2837.03,1575.38 c -9.78,0 -17.71,7.97 -17.71,17.79 0,9.83 7.93,17.79 17.71,17.79 9.78,0 17.71,-7.96 17.71,-17.79 0,-9.82 -7.93,-17.79 -17.71,-17.79 z m 43.42,-19.8 c -9.78,0 -17.71,7.97 -17.71,17.79 0,9.83 7.93,17.79 17.71,17.79 9.78,0 17.71,-7.96 17.71,-17.79 0,-9.82 -7.93,-17.79 -17.71,-17.79 z m -101.68,-34.58 53.6,19.62 15.12,-6.39 c 9.51,-2.64 19.53,-4.14 30.07,-4.58 42.16,-1.77 79.67,10.29 81.41,53.93 1.2,30.01 -38.89,49.32 -73.65,58.33 l -1.76,0.42 22.81,91.67 h -155.06 c -0.64,-28.1 -0.62,-72.16 10.13,-109.41 l 6.87,-15.98 -20.31,-58.53 41.66,13 z"
       id="path3428" /></g><g
     style="overflow:hidden"
     id="g4841"
     transform="matrix(0.49149123,-0.34414586,0.34414586,0.49149123,-19.628788,58.227259)"><path
       d="m 99.573,54.875 c 0,-16.264 12.977,-29.45 28.975,-29.45 15.998,0 28.975,13.186 28.975,29.45 0,16.264 -12.977,29.45 -28.975,29.45 -15.998,0 -28.975,-13.186 -28.975,-29.45 z M 67.406,97.093 c 20.9703,-3.14355 40.91365,10.241 51.585,27.53765 4.61415,5.5936 8.14055,17.8182 10.925,20.45445 7.7064,-21.5859 23.5315,-43.0996 47.2758,-47.6387 21.2591,-4.4441 43.2554,9.03165 51.50425,28.6178 11.5235,25.8837 4.25885,55.65385 -8.3429,79.6917 -4.49825,9.36415 -10.7388,17.6434 -17.05915,25.8191 L 135.49378,223.01214 55.702,231.575 C 40.4222,212.6662 28.8778,190.212 25.34,165.9851 c -3.4675,-22.49315 3.173,-48.336 22.9539,-61.5391 5.7095,-3.84845 12.28635,-6.41535 19.1121,-7.353 z"
       id="path4819"
       style="fill:#262626;fill-rule:evenodd;stroke-width:0.95"
       clip-path="url(#clipPath4834)"
       sodipodi:nodetypes="ssssscccccccccccc" /></g></svg>
