<?xml version="1.0" encoding="UTF-8" standalone="no"?>
<svg
   xml:space="preserve"
   width="260"
   height="260"
   overflow="hidden"
   version="1.1"
   id="svg11"
   sodipodi:docname="bM.svg"
   inkscape:version="1.2.2 (732a01da63, 2022-12-09)"
   xmlns:inkscape="http://www.inkscape.org/namespaces/inkscape"
   xmlns:sodipodi="http://sodipodi.sourceforge.net/DTD/sodipodi-0.dtd"
   xmlns="http://www.w3.org/2000/svg"
   xmlns:svg="http://www.w3.org/2000/svg"><sodipodi:namedview
     id="namedview13"
     pagecolor="#ffffff"
     bordercolor="#000000"
     borderopacity="0.25"
     inkscape:showpageshadow="2"
     inkscape:pageopacity="0.0"
     inkscape:pagecheckerboard="0"
     inkscape:deskcolor="#d1d1d1"
     showgrid="false"
     inkscape:zoom="1.8038462"
     inkscape:cx="116.97228"
     inkscape:cy="130.55437"
     inkscape:window-width="1280"
     inkscape:window-height="650"
     inkscape:window-x="-6"
     inkscape:window-y="-6"
     inkscape:window-maximized="1"
     inkscape:current-layer="svg11" /><defs
     id="defs5"><clipPath
       id="a-5"><path
         d="M1940 1757h260v260h-260z"
         id="path2-2" /></clipPath><clipPath
       id="a-6"><path
         d="m 1940,1757 h 260 v 260 h -260 z"
         id="path2-3" /></clipPath><clipPath
       id="a-8"><path
         d="M1420 1757h260v260h-260z"
         id="path392" /></clipPath><clipPath
       id="a"><path
         d="M1420 1497h260v260h-260z"
         id="path1200" /></clipPath></defs><path
     id="path7"
     clip-path="none"
     style="stroke-width:0.76;fill:#262626;fill-opacity:1"
     d="M 90.564453 16.851562 L 98.839844 48.832031 L 67.179688 38.953125 L 82.615234 83.435547 L 77.392578 95.580078 C 71.813905 114.91083 70.071013 136.57702 69.660156 155.22461 L 181.69141 155.22461 L 170.20508 109.0625 L 171.54297 108.74414 C 197.96054 101.89655 228.42762 87.219687 227.51562 64.412109 C 226.19323 31.245743 197.6861 22.080583 165.64453 23.425781 C 157.63414 23.760181 150.01861 24.899852 142.79102 26.90625 L 131.30078 31.763672 L 90.564453 16.851562 z M 167.8418 43.132812 C 175.27459 43.132813 181.30078 49.189151 181.30078 56.652344 C 181.30078 64.123136 175.27459 70.173828 167.8418 70.173828 C 160.409 70.173828 154.38086 64.123136 154.38086 56.652344 C 154.38086 49.189151 160.409 43.132812 167.8418 43.132812 z M 134.8418 58.181641 C 142.27459 58.181641 148.30078 64.237979 148.30078 71.701172 C 148.30078 79.171964 142.27459 85.222656 134.8418 85.222656 C 127.409 85.222656 121.38281 79.171964 121.38281 71.701172 C 121.38281 64.237979 127.409 58.181641 134.8418 58.181641 z " /><g
     style="overflow:hidden"
     id="g1227"
     transform="translate(-114.9776,-48.453091)"><path
       d="m 161.81231,284.51882 h 41.876 v -36.204 h 19.6745 v 36.204 h 39.349 v -36.204 h 19.6745 v 36.204 h 41.876 v -71.2 h -162.45 z"
       id="path1205"
       style="fill:#262626;fill-rule:evenodd;stroke-width:0.95"
       clip-path="url(#clipPath1220)"
       sodipodi:nodetypes="ccccccccccccc" /></g></svg>
