<?xml version="1.0" encoding="UTF-8" standalone="no"?>
<svg
   xml:space="preserve"
   width="260"
   height="260"
   overflow="hidden"
   version="1.1"
   id="svg11"
   sodipodi:docname="bNN.svg"
   inkscape:version="1.2.2 (732a01da63, 2022-12-09)"
   xmlns:inkscape="http://www.inkscape.org/namespaces/inkscape"
   xmlns:sodipodi="http://sodipodi.sourceforge.net/DTD/sodipodi-0.dtd"
   xmlns="http://www.w3.org/2000/svg"
   xmlns:svg="http://www.w3.org/2000/svg"><sodipodi:namedview
     id="namedview13"
     pagecolor="#ffffff"
     bordercolor="#000000"
     borderopacity="0.25"
     inkscape:showpageshadow="2"
     inkscape:pageopacity="0.0"
     inkscape:pagecheckerboard="0"
     inkscape:deskcolor="#d1d1d1"
     showgrid="false"
     showguides="false"
     inkscape:zoom="1.8038462"
     inkscape:cx="118.63539"
     inkscape:cy="134.43497"
     inkscape:window-width="1280"
     inkscape:window-height="650"
     inkscape:window-x="-6"
     inkscape:window-y="-6"
     inkscape:window-maximized="1"
     inkscape:current-layer="svg11" /><defs
     id="defs5"><clipPath
       id="a"><path
         d="M2720 1497h260v260h-260z"
         id="path2" /></clipPath></defs><g
     style="overflow:hidden"
     id="g3404"
     transform="translate(-4.0949853e-5,-2e-4)"><path
       fill="#262626"
       fill-rule="evenodd"
       d="m 103.602,99.56 c 0,-8.946 7.056,-16.2 15.75,-16.2 8.694,0 15.75,7.254 15.75,16.2 0,8.946 -7.056,16.2 -15.75,16.2 -8.694,0 -15.75,-7.254 -15.75,-16.2 z m 38.7,-17.55 c 0,-8.694 7.254,-15.75 16.2,-15.75 8.946,0 16.2,7.056 16.2,15.75 0,8.703 -7.254,15.75 -16.2,15.75 -8.946,0 -16.2,-7.047 -16.2,-15.75 z"
       id="path11"
       style="fill:#262626;fill-opacity:1;stroke-width:0.9"
       clip-path="none" /></g><g
     clip-path="url(#a)"
     transform="matrix(0.95,0,0,0.95,-2577.325,-1415.625)"
     id="g9"
     style="fill:#262626;fill-opacity:1"><path
       id="path7"
       d="M 2778.7693 1520.9992 L 2789.6595 1563.0798 L 2748.0004 1550.0802 L 2767.1698 1605.3228 L 2915.9589 1532.9153 C 2904.3414 1529.9877 2891.2081 1529.0775 2877.5604 1529.6505 C 2867.0205 1530.0905 2857.0005 1531.589 2847.4905 1534.229 L 2832.3692 1540.6209 L 2778.7693 1520.9992 z M 2956.8512 1569.2619 L 2753.572 1666.1986 C 2750.7777 1691.359 2750.8997 1715.9681 2751.3104 1734.0008 L 2906.3701 1734.0008 L 2883.5596 1642.3294 L 2885.3195 1641.91 C 2920.0795 1632.9 2960.1708 1613.5893 2958.9708 1583.5794 C 2958.7627 1578.3609 2958.029 1573.6076 2956.8512 1569.2619 z "
       style="fill:#262626;fill-opacity:1" /></g></svg>
