<?xml version="1.0" encoding="UTF-8" standalone="no"?>
<svg
   xml:space="preserve"
   width="260"
   height="260"
   overflow="hidden"
   version="1.1"
   id="svg11"
   sodipodi:docname="bS.svg"
   inkscape:version="1.2.2 (732a01da63, 2022-12-09)"
   xmlns:inkscape="http://www.inkscape.org/namespaces/inkscape"
   xmlns:sodipodi="http://sodipodi.sourceforge.net/DTD/sodipodi-0.dtd"
   xmlns="http://www.w3.org/2000/svg"
   xmlns:svg="http://www.w3.org/2000/svg"><sodipodi:namedview
     id="namedview13"
     pagecolor="#ffffff"
     bordercolor="#000000"
     borderopacity="0.25"
     inkscape:showpageshadow="2"
     inkscape:pageopacity="0.0"
     inkscape:pagecheckerboard="0"
     inkscape:deskcolor="#d1d1d1"
     showgrid="false"
     inkscape:zoom="1.8038462"
     inkscape:cx="117.24947"
     inkscape:cy="130.55437"
     inkscape:window-width="1280"
     inkscape:window-height="650"
     inkscape:window-x="-6"
     inkscape:window-y="-6"
     inkscape:window-maximized="1"
     inkscape:current-layer="svg11" /><defs
     id="defs5"><clipPath
       id="a"><path
         d="M1161 458h259v260h-259z"
         id="path2" /></clipPath></defs><g
     fill="#262626"
     fill-rule="evenodd"
     clip-path="url(#a)"
     transform="translate(-1161 -458)"
     id="g9"><path
       id="path7"
       d="M 1290.0801 499.46094 C 1264.9501 499.46094 1244.5801 520.05296 1244.5801 545.46094 C 1244.5801 570.86891 1264.9501 591.46094 1290.0801 591.46094 C 1315.2201 591.46094 1335.5801 570.86891 1335.5801 545.46094 C 1335.5801 520.05296 1315.2201 499.46094 1290.0801 499.46094 z M 1290.0801 527.06055 C 1300.1361 527.06055 1308.2793 535.29775 1308.2793 545.46094 C 1308.2793 555.62413 1300.1361 563.85938 1290.0801 563.85938 C 1280.0281 563.85938 1271.8809 555.62413 1271.8809 545.46094 C 1271.8809 535.29775 1280.0281 527.06055 1290.0801 527.06055 z M 1250.7793 621.45703 L 1227.5801 682.45898 L 1352.5801 682.45898 L 1329.3809 621.45703 L 1250.7793 621.45703 z " /></g></svg>
