<?xml version="1.0" encoding="UTF-8" standalone="no"?>
<svg
   xml:space="preserve"
   width="260"
   height="260"
   overflow="hidden"
   version="1.1"
   id="svg15"
   sodipodi:docname="wCm.svg"
   inkscape:version="1.2.2 (732a01da63, 2022-12-09)"
   xmlns:inkscape="http://www.inkscape.org/namespaces/inkscape"
   xmlns:sodipodi="http://sodipodi.sourceforge.net/DTD/sodipodi-0.dtd"
   xmlns="http://www.w3.org/2000/svg"
   xmlns:svg="http://www.w3.org/2000/svg"><sodipodi:namedview
     id="namedview17"
     pagecolor="#ffffff"
     bordercolor="#000000"
     borderopacity="0.25"
     inkscape:showpageshadow="2"
     inkscape:pageopacity="0.0"
     inkscape:pagecheckerboard="0"
     inkscape:deskcolor="#d1d1d1"
     showgrid="false"
     inkscape:zoom="2.9846154"
     inkscape:cx="106.54639"
     inkscape:cy="121.28866"
     inkscape:window-width="1920"
     inkscape:window-height="974"
     inkscape:window-x="-11"
     inkscape:window-y="-11"
     inkscape:window-maximized="1"
     inkscape:current-layer="svg15" /><defs
     id="defs5"><clipPath
       id="a"><path
         d="M2460 1757h260v260h-260z"
         id="path2" /></clipPath></defs><g
     clip-path="url(#a)"
     transform="matrix(.9 0 0 .9 -2201.012 -1568.4)"
     id="g13"><path
       d="m 2528.705,1842.244 c -28.789,0.744 -52.468,25.106 -57.639,52.555 -6.81,33.403 6.25,67.592 24.78,94.989 l 11.34,15.024 h 165.632 c 9.322,-12.04 18.6,-24.238 24.69,-38.322 13.62,-28.496 19.28,-63.895 3.434,-92.725 -12.444,-23.884 -39.8493,-32.0761 -65.46,-30.7791 -4.3017,-0.2653 -102.432,0.3569 -106.777,-0.7419 z"
       style="color:#000000;fill:#262626;fill-rule:evenodd;stroke-miterlimit:8;-inkscape-stroke:none"
       id="path9"
       sodipodi:nodetypes="ccccccccc" /><path
       d="m 2647.97,1862.781 c -10.2628,-0.3705 -85.2331,-0.059 -128.778,1.993 -19.26,6.376 -29.298,27.315 -29.359,46.577 -0.27,24.366 9.978,47.775 23.602,67.506 2,1.71 2.744,5.939 5.898,5.33 h 143.21 c 13.12,-16.711 22.763,-36.47 26.703,-57.407 3.878,-20.298 -0.929,-44.239 -18.543,-56.86 -6.551,-4.733 -14.625,-7.417 -22.732,-7.139 z"
       style="fill:#ffffff;fill-opacity:1;stroke:none"
       id="path11"
       sodipodi:nodetypes="ccccccccsc" /></g></svg>
