<?xml version="1.0" encoding="UTF-8" standalone="no"?>
<svg
   xml:space="preserve"
   width="260"
   height="260"
   overflow="hidden"
   version="1.1"
   id="svg15"
   sodipodi:docname="wNN.svg"
   inkscape:version="1.2.2 (732a01da63, 2022-12-09)"
   xmlns:inkscape="http://www.inkscape.org/namespaces/inkscape"
   xmlns:sodipodi="http://sodipodi.sourceforge.net/DTD/sodipodi-0.dtd"
   xmlns="http://www.w3.org/2000/svg"
   xmlns:svg="http://www.w3.org/2000/svg"><sodipodi:namedview
     id="namedview17"
     pagecolor="#ffffff"
     bordercolor="#000000"
     borderopacity="0.25"
     inkscape:showpageshadow="2"
     inkscape:pageopacity="0.0"
     inkscape:pagecheckerboard="0"
     inkscape:deskcolor="#d1d1d1"
     showgrid="false"
     inkscape:zoom="2.9846154"
     inkscape:cx="125.30928"
     inkscape:cy="130"
     inkscape:window-width="1920"
     inkscape:window-height="974"
     inkscape:window-x="-11"
     inkscape:window-y="-11"
     inkscape:window-maximized="1"
     inkscape:current-layer="svg15" /><defs
     id="defs5" /><path
     d="m 61.7493,27.0182 c 2.2005,12.9015 4.4019,24.4413 6.6033,37.3437 -11.295,-2.8881 -23.1957,-6.2289 -34.4916,-9.117 4.4001,18.8802 9.405,39.5739 13.8042,58.4532 -8.4438,16.9794 -10.8603,36.1053 -13.0311,54.7308 -2.3085,22.5108 -2.0754,45.1719 -1.4535,67.7628 h 161.1666 l -21.3237,-85.2876 c 22.455,-7.1226 46.8504,-16.3755 60.1695,-37.0332 12.7917,-21.258 4.257,-50.7114 -14.7366,-65.4165 -21.5001,-15.8508 -50.0337,-16.4007 -75.5352,-13.5846 -9.666,0.9459 -18.8766,3.9042 -27.6093,8.0289 z"
     style="color:#000000;fill:#262626;fill-rule:evenodd;stroke-width:0.9;stroke-miterlimit:8;-inkscape-stroke:none"
     id="path7"
     clip-path="none" /><path
     id="path9"
     clip-path="none"
     style="fill:#ffffff;fill-opacity:1;stroke:none;stroke-width:0.9"
     d="M 80.505859 49.982422 L 90.105469 86.894531 L 54.070312 75.703125 L 63.75 103.46484 L 169.04688 52.222656 C 160.80135 51.912986 152.48984 52.467009 144.44531 53.414062 C 134.20692 54.231262 125.11755 59.019788 115.78906 62.833984 L 80.505859 49.982422 z M 219.3457 81.058594 L 54.492188 159.67188 C 51.850601 178.84384 51.273534 198.28859 51.449219 217.62305 L 170.56445 217.62305 L 155.00586 155.39844 L 129.02734 158.39062 L 127.01172 141.37695 C 152.39169 137.78236 178.27368 132.2484 200.62695 119.16602 C 210.83294 112.95242 222.23422 103.24311 220.63672 89.949219 C 220.5836 86.941478 220.14035 83.9475 219.3457 81.058594 z " /><path
     fill="#262626"
     fill-rule="evenodd"
     d="m 103.602,99.56 c 0,-8.946 7.056,-16.2 15.75,-16.2 8.694,0 15.75,7.254 15.75,16.2 0,8.946 -7.056,16.2 -15.75,16.2 -8.694,0 -15.75,-7.254 -15.75,-16.2 z m 38.7,-17.55 c 0,-8.694 7.254,-15.75 16.2,-15.75 8.946,0 16.2,7.056 16.2,15.75 0,8.703 -7.254,15.75 -16.2,15.75 -8.946,0 -16.2,-7.047 -16.2,-15.75 z"
     id="path11"
     style="stroke-width:0.9;fill:#ffffff;fill-opacity:1"
     clip-path="none" /></svg>
