<?xml version="1.0" encoding="UTF-8" standalone="no"?>
<svg
   xml:space="preserve"
   width="260"
   height="260"
   overflow="hidden"
   version="1.1"
   id="svg17"
   sodipodi:docname="wS.svg"
   inkscape:version="1.2.2 (732a01da63, 2022-12-09)"
   xmlns:inkscape="http://www.inkscape.org/namespaces/inkscape"
   xmlns:sodipodi="http://sodipodi.sourceforge.net/DTD/sodipodi-0.dtd"
   xmlns="http://www.w3.org/2000/svg"
   xmlns:svg="http://www.w3.org/2000/svg"><sodipodi:namedview
     id="namedview19"
     pagecolor="#ffffff"
     bordercolor="#000000"
     borderopacity="0.25"
     inkscape:showpageshadow="2"
     inkscape:pageopacity="0.0"
     inkscape:pagecheckerboard="0"
     inkscape:deskcolor="#d1d1d1"
     showgrid="false"
     inkscape:zoom="1.8038462"
     inkscape:cx="117.24947"
     inkscape:cy="130.55437"
     inkscape:window-width="1280"
     inkscape:window-height="650"
     inkscape:window-x="-6"
     inkscape:window-y="-6"
     inkscape:window-maximized="1"
     inkscape:current-layer="svg17" /><defs
     id="defs5"><clipPath
       id="a"><path
         d="M1161 1757h259v260h-259z"
         id="path2" /></clipPath></defs><g
     clip-path="url(#a)"
     transform="matrix(.9 0 0 .9 -1031.9 -1567.7)"
     id="g15"><path
       d="m1244.293 1919.188-31.736 83.624H1369.443l-31.736-83.624z"
       style="color:#000;fill:#262626;fill-rule:evenodd;stroke-miterlimit:8;-inkscape-stroke:none"
       id="path7" /><path
       d="m1258.527 1939.813-16.084 42.374h97.114l-16.084-42.374z"
       style="fill:#fff;fill-opacity:1;stroke:none"
       id="path9" /><path
       d="M1289.5 1783.188c-31.043 0-56.313 25.62-56.313 56.812 0 31.192 25.27 56.813 56.313 56.813 31.043 0 56.313-25.62 56.313-56.813 0-31.192-25.27-56.813-56.313-56.813z"
       style="color:#000;fill:#262626;fill-rule:evenodd;stroke-miterlimit:8;-inkscape-stroke:none"
       id="path11" /><path
       d="M1289.5 1803.813c-19.777 0-35.688 16.02-35.688 36.187 0 20.168 15.911 36.188 35.688 36.188s35.688-16.02 35.688-36.188c0-20.168-15.911-36.188-35.688-36.188z"
       style="fill:#fff;fill-opacity:1;stroke:none"
       id="path13" /></g><path
     d="m 128.65,67.84768 c -11.17548,0 -20.27268,9.2232 -20.27268,20.45232 0,11.22912 9.0972,20.45268 20.27268,20.45268 11.17548,0 20.27268,-9.2232 20.27268,-20.45268 0,-11.22912 -9.0972,-20.45268 -20.27268,-20.45268 z"
     style="color:#000000;fill:#262626;fill-rule:evenodd;stroke-width:0.36;stroke-miterlimit:8;-inkscape-stroke:none"
     id="path11-2" /></svg>
