<?xml version="1.0" encoding="UTF-8" standalone="no"?>
<svg
   width="177.17"
   height="177.17"
   shape-rendering="geometricPrecision"
   image-rendering="optimizeQuality"
   fill-rule="evenodd"
   clip-rule="evenodd"
   viewBox="0 0 50 50"
   version="1.1"
   id="svg17"
   sodipodi:docname="bK.svg"
   inkscape:version="1.2.2 (732a01da63, 2022-12-09)"
   xmlns:inkscape="http://www.inkscape.org/namespaces/inkscape"
   xmlns:sodipodi="http://sodipodi.sourceforge.net/DTD/sodipodi-0.dtd"
   xmlns:xlink="http://www.w3.org/1999/xlink"
   xmlns="http://www.w3.org/2000/svg"
   xmlns:svg="http://www.w3.org/2000/svg">
  <sodipodi:namedview
     id="namedview19"
     pagecolor="#ffffff"
     bordercolor="#000000"
     borderopacity="0.25"
     inkscape:showpageshadow="2"
     inkscape:pageopacity="0.0"
     inkscape:pagecheckerboard="0"
     inkscape:deskcolor="#d1d1d1"
     showgrid="false"
     inkscape:zoom="1.5485547"
     inkscape:cx="-5.4889893"
     inkscape:cy="16.78985"
     inkscape:window-width="1920"
     inkscape:window-height="974"
     inkscape:window-x="-11"
     inkscape:window-y="-11"
     inkscape:window-maximized="1"
     inkscape:current-layer="svg17" />
  <defs
     id="defs7">
    <linearGradient
       inkscape:collect="always"
       id="linearGradient1654">
      <stop
         style="stop-color:#96ff96;stop-opacity:1;"
         offset="0"
         id="stop1650" />
      <stop
         style="stop-color:#ffffff;stop-opacity:0;"
         offset="1"
         id="stop1652" />
    </linearGradient>
    <linearGradient
       inkscape:collect="always"
       id="linearGradient1300">
      <stop
         style="stop-color:#96ff96;stop-opacity:1;"
         offset="0"
         id="stop1296" />
      <stop
         style="stop-color:#ffffff;stop-opacity:0;"
         offset="1"
         id="stop1298" />
    </linearGradient>
    <linearGradient
       id="0"
       x1="21.129999"
       y1="37.220001"
       x2="77.760002"
       y2="37.469002"
       gradientUnits="userSpaceOnUse"
       gradientTransform="translate(0,-14.675173)">
      <stop
         stop-color="#fff"
         id="stop2" />
      <stop
         offset="1"
         stop-color="#fff"
         stop-opacity="0"
         id="stop4" />
    </linearGradient>
    <linearGradient
       inkscape:collect="always"
       xlink:href="#linearGradient1300"
       id="linearGradient1302"
       x1="21.129999"
       y1="22.544828"
       x2="77.760002"
       y2="22.793829"
       gradientUnits="userSpaceOnUse" />
    <linearGradient
       inkscape:collect="always"
       xlink:href="#linearGradient1654"
       id="linearGradient1656"
       x1="21.129999"
       y1="22.544828"
       x2="77.760002"
       y2="22.793829"
       gradientUnits="userSpaceOnUse" />
  </defs>
  <path
     style="fill:#1f1a17;fill-opacity:1;stroke:none;stroke-width:2.53993;stroke-linecap:round;stroke-opacity:1;stop-color:#000000"
     d="m 13.337629,29.123711 0.193299,-0.322165 c 0,0 3.293428,-14.357879 8.311855,-19.2010307 3.435279,-3.3152973 13.337628,-5.2190721 13.337628,-5.2190721 0,0 -3.16281,6.0366058 -3.414949,9.3427838 -0.398131,5.220503 3.092784,15.399484 3.092784,15.399484 z"
     id="path1168"
     sodipodi:nodetypes="ccscscc" />
  <path
     id="path1168-8"
     style="fill:url(#linearGradient1302);fill-opacity:1;stroke:none;stroke-width:2.53993;stroke-linecap:round;stroke-opacity:1;stop-color:#000000"
     d="M 31.049143 7.866187 C 24.643326 7.8999173 21.037685 12.747042 18.873668 17.968596 C 20.56503 17.706686 22.60141 17.447619 23.968968 17.461491 C 25.551081 17.477537 27.880187 17.817198 29.849179 18.159863 C 29.336235 14.510948 29.535735 10.832706 31.600344 7.8750063 C 31.414423 7.8681408 31.230543 7.8652319 31.049143 7.866187 z M 23.362096 21.618648 C 23.055669 21.619909 22.763236 21.629892 22.48734 21.649515 C 21.033446 21.752923 18.954089 22.349877 17.199119 22.936018 C 16.556699 25.26462 16.131149 27.369356 15.788597 28.801346 L 15.595125 29.123798 L 32.600773 29.123798 C 32.120646 27.243263 31.363986 24.937281 30.731651 22.469151 C 28.335369 22.024833 25.512342 21.609795 23.362096 21.618648 z " />
  <g
     id="g1226">
    <path
       style="fill:#1f1a17;fill-opacity:1;stroke:none;stroke-width:2.53993;stroke-linecap:round;stop-color:#000000"
       d="M 3.9948453,33.827318 C 3.9804114,37.371542 16.410961,43.738103 25.048966,43.878865 33.388274,44.014759 47.105983,38.177598 47.164949,33.311856 47.214539,29.219813 33.266525,24.206878 25.113399,23.969072 16.873328,23.72873 4.0121531,29.577411 3.9948453,33.827318 Z"
       id="path426"
       sodipodi:nodetypes="sssss" />
    <path
       style="fill:url(#linearGradient1656);fill-opacity:1;stroke:none;stroke-width:2.88483;stroke-linecap:round;stroke-opacity:1;stop-color:#000000"
       id="path1083"
       sodipodi:type="arc"
       sodipodi:cx="25.515463"
       sodipodi:cy="34.60051"
       sodipodi:rx="9.4280672"
       sodipodi:ry="3.7579637"
       sodipodi:start="0"
       sodipodi:end="6.2753409"
       sodipodi:open="true"
       sodipodi:arc-type="chord"
       d="m 34.94353,34.60051 a 9.4280672,3.7579637 0 0 1 -9.409578,3.757956 9.4280672,3.7579637 0 0 1 -9.446484,-3.743217 9.4280672,3.7579637 0 0 1 9.372527,-3.772638 9.4280672,3.7579637 0 0 1 9.483245,3.72842 z" />
  </g>
</svg>
