<?xml version="1.0" encoding="UTF-8" standalone="no"?>
<svg
   width="177.17"
   height="177.17"
   shape-rendering="geometricPrecision"
   image-rendering="optimizeQuality"
   fill-rule="evenodd"
   clip-rule="evenodd"
   viewBox="0 0 50 50"
   version="1.1"
   id="svg4798"
   sodipodi:docname="bC.svg"
   inkscape:version="1.2.2 (732a01da63, 2022-12-09)"
   xml:space="preserve"
   xmlns:inkscape="http://www.inkscape.org/namespaces/inkscape"
   xmlns:sodipodi="http://sodipodi.sourceforge.net/DTD/sodipodi-0.dtd"
   xmlns:xlink="http://www.w3.org/1999/xlink"
   xmlns="http://www.w3.org/2000/svg"
   xmlns:svg="http://www.w3.org/2000/svg"
   xmlns:rdf="http://www.w3.org/1999/02/22-rdf-syntax-ns#"
   xmlns:cc="http://creativecommons.org/ns#"
   xmlns:dc="http://purl.org/dc/elements/1.1/"><metadata
     id="metadata4802"><rdf:RDF><cc:Work
         rdf:about=""><dc:format>image/svg+xml</dc:format><dc:type
           rdf:resource="http://purl.org/dc/dcmitype/StillImage" /><dc:title /></cc:Work></rdf:RDF></metadata><sodipodi:namedview
     pagecolor="#ffffff"
     bordercolor="#666666"
     borderopacity="1"
     objecttolerance="10"
     gridtolerance="10"
     guidetolerance="10"
     inkscape:pageopacity="0"
     inkscape:pageshadow="2"
     inkscape:window-width="1920"
     inkscape:window-height="974"
     id="namedview4800"
     showgrid="false"
     inkscape:zoom="2.664108"
     inkscape:cx="27.213612"
     inkscape:cy="75.447393"
     inkscape:window-x="-11"
     inkscape:window-y="-11"
     inkscape:window-maximized="1"
     inkscape:current-layer="svg4798"
     inkscape:snap-nodes="false"
     inkscape:document-rotation="0"
     inkscape:showpageshadow="2"
     inkscape:pagecheckerboard="0"
     inkscape:deskcolor="#d1d1d1" /><defs
     id="defs4788"><linearGradient
       inkscape:collect="always"
       id="linearGradient1051"><stop
         style="stop-color:#96ff96;stop-opacity:1;"
         offset="0"
         id="stop1047" /><stop
         style="stop-color:#ffffff;stop-opacity:0;"
         offset="1"
         id="stop1049" /></linearGradient><linearGradient
       inkscape:collect="always"
       id="linearGradient1044"><stop
         style="stop-color:#96ff96;stop-opacity:1;"
         offset="0"
         id="stop1040" /><stop
         style="stop-color:#ffffff;stop-opacity:1;"
         offset="1"
         id="stop1042" /></linearGradient><linearGradient
       inkscape:collect="always"
       id="linearGradient6661"><stop
         style="stop-color:#96ff96;stop-opacity:1;"
         offset="0"
         id="stop6657" /><stop
         style="stop-color:#ffffff;stop-opacity:0;"
         offset="1"
         id="stop6659" /></linearGradient><linearGradient
       id="0"
       x1="21.376"
       x2="77.64"
       gradientUnits="userSpaceOnUse"><stop
         stop-color="#fff"
         id="stop4783" /><stop
         offset="1"
         stop-color="#fff"
         stop-opacity="0"
         id="stop4785" /></linearGradient><linearGradient
       gradientTransform="translate(50.708427,-1.9548155)"
       id="0-3"
       x1="21.129999"
       y1="37.220001"
       x2="77.760002"
       y2="37.469002"
       gradientUnits="userSpaceOnUse"><stop
         stop-color="#fff"
         id="stop5461" /><stop
         offset="1"
         stop-color="#fff"
         stop-opacity="0"
         id="stop5463" /></linearGradient><linearGradient
       gradientTransform="translate(-54.458725,-1.3555716)"
       id="0-2"
       x1="21.375999"
       x2="77.639999"
       gradientUnits="userSpaceOnUse"><stop
         stop-color="#fff"
         id="stop6058" /><stop
         offset="1"
         stop-color="#fff"
         stop-opacity="0"
         id="stop6060" /></linearGradient><linearGradient
       inkscape:collect="always"
       xlink:href="#linearGradient6661"
       id="linearGradient6663"
       x1="20.924793"
       y1="-17.032766"
       x2="77.554794"
       y2="-16.916948"
       gradientUnits="userSpaceOnUse"
       gradientTransform="translate(4.9999999e-7,4.1105175)" /><linearGradient
       inkscape:collect="always"
       xlink:href="#linearGradient1051"
       id="linearGradient6689"
       x1="74.144913"
       y1="-60.353905"
       x2="274.80765"
       y2="-59.943516"
       gradientUnits="userSpaceOnUse"
       gradientTransform="matrix(0.28221482,0,0,0.28221482,0,4.1105175)" /><linearGradient
       inkscape:collect="always"
       xlink:href="#linearGradient1044"
       id="linearGradient6699"
       x1="22.510593"
       y1="9.7722454"
       x2="40.413136"
       y2="9.7722454"
       gradientUnits="userSpaceOnUse"
       gradientTransform="matrix(0.80477768,0,0,0.80477768,4.7633372,6.1338862)" /><linearGradient
       inkscape:collect="always"
       id="linearGradient1050"><stop
         style="stop-color:#96ff96;stop-opacity:1;"
         offset="0"
         id="stop1046" /><stop
         style="stop-color:#ffffff;stop-opacity:0;"
         offset="1"
         id="stop1048" /></linearGradient><linearGradient
       id="0-6"
       gradientUnits="userSpaceOnUse"
       x1="21.129999"
       y1="37.349998"
       x2="77.760002"
       y2="37.469002"
       gradientTransform="matrix(1,0,0,0.97324,0,1.243)"><stop
         stop-color="#fff"
         id="stop2" /><stop
         offset="1"
         stop-color="#fff"
         stop-opacity="0"
         id="stop4" /></linearGradient><linearGradient
       inkscape:collect="always"
       xlink:href="#linearGradient1050"
       id="linearGradient1042"
       x1="51.103813"
       y1="-20.586908"
       x2="107.73382"
       y2="-20.47109"
       gradientUnits="userSpaceOnUse"
       gradientTransform="translate(-29.626115,13.795367)" /><linearGradient
       inkscape:collect="always"
       xlink:href="#linearGradient1050"
       id="linearGradient342"
       gradientUnits="userSpaceOnUse"
       gradientTransform="translate(-29.626115,13.795367)"
       x1="51.103813"
       y1="-20.586908"
       x2="107.73382"
       y2="-20.47109" /></defs><g
     id="g1806"
     transform="translate(0.08268769,-3.3764707)"
     style="clip-rule:evenodd;fill-rule:evenodd;image-rendering:optimizeQuality;shape-rendering:geometricPrecision"><path
       style="fill:#1f1a17;stroke-width:2.11661;stroke-linecap:round;stop-color:#000000"
       d="m 24.991551,42.434601 c 0,0 -18.8929412,-9.9824 -21.2967422,-17.636345 C 1.4767538,17.73574 2.0585248,11.442474 7.5807068,10.064023 13.042716,8.7005919 19.638568,17.6928 22.506081,22.53737 c 1.402683,2.369788 2.452025,7.889125 2.452025,7.889125 0,0 1.258714,-6.034488 2.65231,-8.229465 C 30.979298,16.890891 38.173112,7.4154034 44.12866,9.4243643 50.695733,11.639609 47.190147,24.661398 42.717784,29.955898 37.966701,35.580355 24.991551,42.434601 24.991551,42.434601 Z"
       id="path982"
       sodipodi:nodetypes="cssscsssc" /><path
       style="fill:#1f1a17;stroke:url(#linearGradient342);stroke-width:2.11661;stroke-linecap:round;stroke-opacity:1;stop-color:#000000"
       d="m 7.2274338,13.938559 c -3.315838,2.536496 -1.120237,8.874951 1.102681,12.408678 2.6454352,4.205394 14.4667882,11.097215 14.4667882,11.097215 0,0 -1.285958,-11.210122 -4.211739,-15.33352 C 15.908873,18.339148 10.900733,11.128619 7.2274338,13.938559 Z"
       id="path1034"
       sodipodi:nodetypes="sscss" /><path
       style="fill:#1f1a17;stroke:url(#linearGradient1042);stroke-width:2.11661;stroke-linecap:round;stroke-opacity:1;stop-color:#000000"
       d="m 26.989047,36.347129 c 0,0 1.665891,-8.359135 4.363426,-13.340079 3.471131,-6.409373 8.929075,-10.561809 11.855499,-9.833051 2.791669,0.695201 -0.214241,8.815661 -1.179365,11.525874 -2.251288,6.321952 -15.03956,11.647256 -15.03956,11.647256 z"
       id="path1044"
       sodipodi:nodetypes="csssc" /></g><g
     id="g5409"
     transform="translate(-47.900791,0.30426164)"
     style="fill:#1f1a17;fill-opacity:1;stroke:#1f1a17;stroke-opacity:1"><path
       sodipodi:nodetypes="cssssccc"
       inkscape:connector-curvature="0"
       id="path4760"
       d="m 59.323542,36.845189 c -4.923955,-4.423162 -7.488294,-6.501829 -7.488294,-10.697558 0,-9.536991 12.337066,-10.822594 21.466437,-10.554927 5.225494,0.153208 11.124384,0.559374 15.29758,2.774372 2.841632,1.508247 5.367066,3.823463 5.367066,7.531995 0,4.979028 -4.86475,7.93099 -8.255477,11.017435 -9.050136,-4.451366 -17.738141,-4.590077 -26.387312,-0.07133 z"
       style="fill:#1f1a17;fill-opacity:1;stroke:#1f1a17;stroke-width:1.69329;stroke-linecap:butt;stroke-linejoin:miter;stroke-miterlimit:4;stroke-dasharray:none;stroke-opacity:1" /><path
       sodipodi:nodetypes="cccccc"
       inkscape:connector-curvature="0"
       id="path5347"
       d="m 59.323542,36.845189 v 4.984114 c 8.612444,4.713783 17.405516,4.682783 26.375269,0 l 0.01211,-4.912797 v 0 C 76.184699,32.072204 67.50711,32.82843 59.323542,36.845182 Z"
       style="fill:#1f1a17;fill-opacity:1;stroke:#1f1a17;stroke-width:1.69329;stroke-linecap:butt;stroke-linejoin:miter;stroke-miterlimit:4;stroke-dasharray:none;stroke-opacity:1" /><path
       sodipodi:nodetypes="cscc"
       inkscape:connector-curvature="0"
       id="path5355"
       d="m 69.58961,15.521388 c 0.403124,-1.901498 1.356191,-3.235945 3.280585,-3.244926 1.682343,-0.0078 3.026638,1.263387 3.423218,3.351902 z"
       style="fill:#1f1a17;fill-opacity:1;stroke:#1f1a17;stroke-width:1.69329;stroke-linecap:butt;stroke-linejoin:miter;stroke-miterlimit:4;stroke-dasharray:none;stroke-opacity:1" /></g><path
     style="fill:url(#linearGradient6663);fill-opacity:1;stroke:none;stroke-width:0.282215px;stroke-linecap:butt;stroke-linejoin:miter;stroke-opacity:1"
     d="m 12.584104,37.556428 v 4.269606 c 8.669742,-3.392157 16.447722,-2.994618 24.119531,0 V 37.55643 c -8.355558,-3.453444 -16.162906,-2.929477 -24.119531,-2e-6 z"
     id="path6655"
     inkscape:connector-curvature="0"
     sodipodi:nodetypes="ccccc" /><path
     style="fill:url(#linearGradient6689);fill-opacity:1;stroke:none;stroke-width:1.58653;stroke-linecap:butt;stroke-linejoin:miter;stroke-miterlimit:4;stroke-dasharray:none;stroke-opacity:1"
     d="m 23.761165,16.579783 c -8.318037,-0.04159 -18.4779047,1.540534 -18.4779047,9.917756 0,3.931199 4.6874857,7.751611 7.2036437,8.450254 8.923258,-2.85791 15.181568,-3.005271 24.274334,-0.120162 2.877327,-0.869405 7.996819,-3.897588 7.996819,-8.562698 0,-3.474716 -2.366131,-5.64387 -5.028605,-7.057024 -3.910081,-2.075346 -9.436837,-2.455915 -14.332874,-2.599464 -0.534611,-0.01567 -1.080877,-0.02589 -1.635413,-0.02866 z m 0.266782,1.394538 c 0.484161,0.0022 0.960686,0.01026 1.425956,0.0226 4.261001,0.112989 9.070746,0.412539 12.473675,2.046057 2.317142,1.112303 4.853322,2.925312 4.853322,5.660282 0,3.671938 -2.987791,5.818131 -6.202111,6.895837 -7.74358,-2.948395 -16.22963,-2.95732 -23.688406,5.64e-4 C 9.4563491,30.8862 7.9535719,29.067084 7.7377577,25.780978 7.305645,19.20139 16.765517,17.941589 24.027947,17.974321 Z"
     id="path4760-0"
     inkscape:connector-curvature="0"
     sodipodi:nodetypes="ssccssssssssccss" /><path
     style="fill:url(#linearGradient6699);fill-opacity:1;stroke:none;stroke-width:0.22712px;stroke-linecap:butt;stroke-linejoin:miter;stroke-opacity:1"
     d="m 22.879359,14.914829 h 4.241281 c -0.190722,-1.337943 -1.365259,-1.720883 -2.15261,-1.712351 -0.810419,0.0088 -1.851236,0.433645 -2.088671,1.712351 z"
     id="path6691"
     inkscape:connector-curvature="0"
     sodipodi:nodetypes="ccsc" /></svg>
