<?xml version="1.0" encoding="UTF-8" standalone="no"?>
<svg
   width="177.17"
   height="177.17"
   shape-rendering="geometricPrecision"
   image-rendering="optimizeQuality"
   fill-rule="evenodd"
   clip-rule="evenodd"
   viewBox="0 0 50 50"
   version="1.1"
   id="svg961"
   sodipodi:docname="bY.svg"
   xml:space="preserve"
   inkscape:version="1.2.2 (732a01da63, 2022-12-09)"
   xmlns:inkscape="http://www.inkscape.org/namespaces/inkscape"
   xmlns:sodipodi="http://sodipodi.sourceforge.net/DTD/sodipodi-0.dtd"
   xmlns:xlink="http://www.w3.org/1999/xlink"
   xmlns="http://www.w3.org/2000/svg"
   xmlns:svg="http://www.w3.org/2000/svg"><defs
     id="defs965"><linearGradient
       inkscape:collect="always"
       id="linearGradient2342"><stop
         style="stop-color:#96ff96;stop-opacity:1;"
         offset="0"
         id="stop2338" /><stop
         style="stop-color:#000000;stop-opacity:0;"
         offset="1"
         id="stop2340" /></linearGradient><linearGradient
       id="0"
       gradientUnits="userSpaceOnUse"
       x1="21.129999"
       y1="37.349998"
       x2="77.760002"
       y2="37.469002"
       gradientTransform="matrix(1,0,0,0.97324,0,1.243)"><stop
         stop-color="#fff"
         id="stop2" /><stop
         offset="1"
         stop-color="#fff"
         stop-opacity="0"
         id="stop4" /></linearGradient><linearGradient
       id="0-2"
       x1="21.253"
       y1="37.220001"
       x2="77.760002"
       y2="37.360001"
       gradientUnits="userSpaceOnUse"><stop
         stop-color="#fff"
         id="stop2-7"
         offset="0"
         style="stop-color:#96ff96;stop-opacity:1;" /><stop
         offset="1"
         stop-color="#fff"
         stop-opacity="0"
         id="stop4-7" /></linearGradient><linearGradient
       id="0-0"
       x1="21.253"
       y1="37.220001"
       x2="77.639999"
       y2="37.349998"
       gradientUnits="userSpaceOnUse"><stop
         stop-color="#fff"
         id="stop2-6" /><stop
         offset="1"
         stop-color="#fff"
         stop-opacity="0"
         id="stop4-3" /></linearGradient><linearGradient
       inkscape:collect="always"
       xlink:href="#linearGradient2342"
       id="linearGradient2344"
       x1="21.30274"
       y1="36.053661"
       x2="77.809746"
       y2="36.193661"
       gradientUnits="userSpaceOnUse" /></defs><sodipodi:namedview
     id="namedview963"
     pagecolor="#ffffff"
     bordercolor="#000000"
     borderopacity="0.25"
     inkscape:showpageshadow="2"
     inkscape:pageopacity="0.0"
     inkscape:pagecheckerboard="0"
     inkscape:deskcolor="#d1d1d1"
     showgrid="false"
     inkscape:zoom="0.93591773"
     inkscape:cx="-56.094674"
     inkscape:cy="162.40744"
     inkscape:window-width="1920"
     inkscape:window-height="974"
     inkscape:window-x="-11"
     inkscape:window-y="-11"
     inkscape:window-maximized="1"
     inkscape:current-layer="svg961" /><g
     id="g2352"
     transform="translate(0.56442965)"><path
       style="clip-rule:evenodd;fill:#1f1a17;fill-rule:evenodd;stroke:none;stroke-width:2.11661;stroke-linecap:round;image-rendering:optimizeQuality;shape-rendering:geometricPrecision;stop-color:#000000"
       d="m 21.364832,26.083043 c 0,0 -9.98278,-9.031412 -13.8263804,-8.895374 -4.9660218,0.175764 -7.05861745,4.986058 -6.2569148,8.819989 1.0616151,5.076892 10.8553702,9.799989 10.8553702,9.799989 0,0 -6.5472539,1.931112 -6.4830682,5.503068 0.1050829,5.847905 3.9242265,6.302986 6.7092212,6.407685 4.266853,0.160407 13.192291,-5.729224 13.192291,-5.729224 0,0 8.116251,6.540544 12.287678,5.879992 2.647378,-0.419217 5.829679,-3.727436 5.804607,-6.407683 -0.03334,-3.56353 -6.859991,-6.558455 -6.859991,-6.558455 0,0 10.459509,-4.960229 10.327678,-9.875371 -0.127014,-4.735558 -4.047256,-7.076668 -7.049406,-7.084236 -3.504446,-0.0088 -8.932113,8.215004 -8.932113,8.215004 z"
       id="path1089"
       sodipodi:nodetypes="csscsscsscsscc" /><path
       style="clip-rule:evenodd;fill:none;fill-rule:evenodd;stroke:url(#linearGradient2344);stroke-width:2.53993;stroke-linecap:round;stroke-dasharray:none;stroke-opacity:1;image-rendering:optimizeQuality;shape-rendering:geometricPrecision;stop-color:#000000"
       d="m 16.297378,27.628389 c 0,0 -5.22003,-5.805831 -7.5384522,-5.714148 -2.5875402,0.102326 -3.4456661,0.732236 -3.2867649,3.316919 0.2546138,4.141542 15.8759791,10.870448 15.8759791,10.870448 0,0 -11.152542,2.45427 -11.4886005,5.608607 -0.221887,2.082689 1.1039995,2.328546 2.9550725,2.186152 3.405832,-0.261995 12.332908,-5.729223 12.332908,-5.729223 0,0 9.278053,5.782064 11.880602,5.503069 1.396677,-0.149724 2.314458,-1.143583 2.367072,-2.306766 0.10166,-2.247449 -12.031369,-6.603685 -12.031369,-6.603685 0,0 15.796815,-5.671414 15.710132,-9.603986 -0.0413,-1.87368 -1.173721,-3.342319 -3.121681,-3.240008 -1.897179,0.09964 -7.552767,5.923697 -7.552767,5.923697 z"
       id="path1089-1"
       sodipodi:nodetypes="csscsscsscsscc" /></g><g
     style="clip-rule:evenodd;fill-rule:evenodd;image-rendering:optimizeQuality;shape-rendering:geometricPrecision"
     id="g179"
     transform="translate(0.04974,-1.1663409)"><g
       fill="#1f1a17"
       id="g21"><path
         d="m 24.949,10.752 c -0.94,0 -1.744,-0.33 -2.396,-0.991 -0.652,-0.66 -0.974,-1.465 -0.974,-2.405 0,-0.931 0.322,-1.727 0.974,-2.388 0.652,-0.66 1.456,-0.991 2.396,-0.991 0.923,0 1.727,0.33 2.396,0.991 0.669,0.66 0.999,1.456 0.999,2.388 0,0.94 -0.33,1.744 -0.999,2.405 -0.669,0.66 -1.473,0.991 -2.396,0.991"
         id="path9" /><path
         d="M 34.021274,43.942 C 29.99125,45.938479 27.29358,46.385256 24.999,46.448 22.877059,46.506023 17.925735,45.726624 15.924726,43.84 l 1.566,-5.952 -0.694,-3.895 -2.184,-3.793 -2.108,-15.426 1.211,-0.474 6.799,11.455 L 24.102,10.778 h 1.719 l 3.561274,14.978 6.824,-11.481 1.16,0.542 -2.057,15.359 -2.21,3.793 -0.694,3.946 1.617,6.03"
         id="path11"
         sodipodi:nodetypes="cscccccccccccccccc" /><path
         d="m 11.608726,14.723 c -0.94,0 -1.7359999,-0.33 -2.3879999,-0.982 -0.652,-0.652 -0.982,-1.448 -0.982,-2.396 0,-0.923 0.33,-1.719 0.982,-2.388 0.652,-0.677 1.4479999,-1.01 2.3879999,-1.01 0.948,0 1.744,0.33 2.413,1.01 0.66,0.669 0.991,1.465 0.991,2.388 0,0.948 -0.33,1.744 -0.991,2.396 -0.669,0.652 -1.465,0.982 -2.413,0.982"
         id="path17"
         sodipodi:nodetypes="csscscscc" /><path
         d="m 38.332274,14.723 c -0.94,0 -1.744,-0.33 -2.405,-0.982 -0.66,-0.652 -0.991,-1.448 -0.991,-2.396 0,-0.923 0.33,-1.719 0.991,-2.388 0.66,-0.677 1.465,-1.01 2.405,-1.01 0.931,0 1.727,0.33 2.388,1.01 0.66,0.669 0.991,1.465 0.991,2.388 0,0.948 -0.33,1.744 -0.991,2.396 -0.66,0.652 -1.456,0.982 -2.388,0.982"
         id="path19"
         sodipodi:nodetypes="ccscscscc" /></g><path
       fill="url(#0)"
       d="m 30.991274,35.729 c -3.04,-0.838 -4.208128,-1.264831 -5.941274,-1.262 -1.70636,0.0028 -2.986274,0.432 -6.093274,1.287 l 0.373,2.506 c 2.520924,-0.888385 3.63386,-1.139865 5.721274,-1.219 1.781077,-0.06752 3.914888,0.209539 5.543274,1.194 l 0.398,-2.506 m 1.736,-4.437 C 28.689213,29.975653 26.82882,29.589739 24.9,29.581 23.05835,29.5727 21.725673,29.68093 17.235726,31.24 l 1.245,2.252 c 2.025667,-0.560266 3.27005,-1.097434 6.465274,-1.16 3.547691,-0.06947 4.745042,0.632419 6.517274,1.185 l 1.261,-2.227 m -1.092,11.853 -0.737,-2.929 c -2.39677,-0.812385 -3.749148,-1.138057 -5.949274,-1.109 -2.187676,0.02889 -3.447811,0.523769 -5.901274,1.109 l -0.787,2.955 c 3.141,-0.957 4.792233,-1.402169 6.711274,-1.439 1.689685,-0.03243 2.357414,0.202373 6.660274,1.414"
       id="path23"
       sodipodi:nodetypes="csccscccsccsccccsccsc"
       style="fill:url(#0-2)" /></g></svg>
