<?xml version="1.0" encoding="UTF-8" standalone="no"?>
<svg
   width="177.17"
   height="177.17"
   shape-rendering="geometricPrecision"
   image-rendering="optimizeQuality"
   fill-rule="evenodd"
   clip-rule="evenodd"
   viewBox="0 0 50 50"
   version="1.1"
   id="svg8675"
   sodipodi:docname="bA.svg"
   inkscape:version="1.2.2 (732a01da63, 2022-12-09)"
   xml:space="preserve"
   xmlns:inkscape="http://www.inkscape.org/namespaces/inkscape"
   xmlns:sodipodi="http://sodipodi.sourceforge.net/DTD/sodipodi-0.dtd"
   xmlns:xlink="http://www.w3.org/1999/xlink"
   xmlns="http://www.w3.org/2000/svg"
   xmlns:svg="http://www.w3.org/2000/svg"
   xmlns:rdf="http://www.w3.org/1999/02/22-rdf-syntax-ns#"
   xmlns:cc="http://creativecommons.org/ns#"
   xmlns:dc="http://purl.org/dc/elements/1.1/"><metadata
     id="metadata8679"><rdf:RDF><cc:Work
         rdf:about=""><dc:format>image/svg+xml</dc:format><dc:type
           rdf:resource="http://purl.org/dc/dcmitype/StillImage" /><dc:title /></cc:Work></rdf:RDF></metadata><sodipodi:namedview
     pagecolor="#ffffff"
     bordercolor="#666666"
     borderopacity="1"
     objecttolerance="10"
     gridtolerance="10"
     guidetolerance="10"
     inkscape:pageopacity="0"
     inkscape:pageshadow="2"
     inkscape:window-width="1280"
     inkscape:window-height="649"
     id="namedview8677"
     showgrid="false"
     inkscape:zoom="2.1764932"
     inkscape:cx="37.675284"
     inkscape:cy="77.188387"
     inkscape:window-x="-8"
     inkscape:window-y="-8"
     inkscape:window-maximized="1"
     inkscape:current-layer="svg8675"
     inkscape:showpageshadow="2"
     inkscape:pagecheckerboard="0"
     inkscape:deskcolor="#d1d1d1" /><defs
     id="defs8669"><linearGradient
       inkscape:collect="always"
       id="linearGradient6492"><stop
         style="stop-color:#ffffff;stop-opacity:1;"
         offset="0"
         id="stop6488" /><stop
         style="stop-color:#999999;stop-opacity:1;"
         offset="1"
         id="stop6490" /></linearGradient><linearGradient
       gradientTransform="matrix(0.80688623,0,0,0.80688623,50.509002,7.9437927)"
       gradientUnits="userSpaceOnUse"
       x2="77.639999"
       x1="21.405001"
       id="linearGradient9313"><stop
         id="stop9309"
         stop-color="#fff" /><stop
         id="stop9311"
         stop-opacity="0"
         stop-color="#fff"
         offset="1"
         style="stop-color:#b3b3b3;stop-opacity:1" /></linearGradient><linearGradient
       id="0"
       x1="21.253"
       y1="37.592"
       x2="77.64"
       y2="37.469"
       gradientUnits="userSpaceOnUse"><stop
         stop-color="#fff"
         id="stop8664" /><stop
         offset="1"
         stop-color="#fff"
         stop-opacity="0"
         id="stop8666" /></linearGradient><linearGradient
       id="0-7"
       x1="21.405001"
       x2="77.639999"
       gradientUnits="userSpaceOnUse"
       gradientTransform="matrix(0.80688623,0,0,0.80688623,50.509002,7.9437927)"><stop
         stop-color="#fff"
         id="stop1179" /><stop
         offset="1"
         stop-color="#fff"
         stop-opacity="0"
         id="stop1181" /></linearGradient><linearGradient
       inkscape:collect="always"
       xlink:href="#0-7"
       id="linearGradient9305"
       x1="25.037388"
       y1="12.813315"
       x2="43.187016"
       y2="12.813315"
       gradientUnits="userSpaceOnUse" /><linearGradient
       inkscape:collect="always"
       xlink:href="#linearGradient9313"
       id="linearGradient9307"
       x1="25.574814"
       y1="27.912001"
       x2="43.112312"
       y2="27.912001"
       gradientUnits="userSpaceOnUse" /><linearGradient
       id="0-4"
       x1="21.405001"
       x2="77.639999"
       gradientUnits="userSpaceOnUse"
       gradientTransform="matrix(0.80688623,0,0,0.80688623,-52.497581,36.238717)"><stop
         stop-color="#fff"
         id="stop1179-9" /><stop
         offset="1"
         stop-color="#fff"
         stop-opacity="0"
         id="stop1181-9" /></linearGradient><linearGradient
       inkscape:collect="always"
       id="linearGradient5568"><stop
         style="stop-color:#ffffff;stop-opacity:1;"
         offset="0"
         id="stop5564" /><stop
         style="stop-color:#999999;stop-opacity:1;"
         offset="1"
         id="stop5566" /></linearGradient><linearGradient
       id="0-75"
       x1="21.405"
       x2="77.64"
       gradientUnits="userSpaceOnUse"
       gradientTransform="matrix(0.80688625,0,0,0.80688625,-0.84624244,8.9715975)"><stop
         stop-color="#fff"
         id="stop1179-2" /><stop
         offset="1"
         stop-color="#fff"
         stop-opacity="0"
         id="stop1181-2" /></linearGradient><linearGradient
       id="0-0"
       x1="21.253"
       y1="37.220001"
       x2="77.639999"
       y2="37.349998"
       gradientUnits="userSpaceOnUse"
       gradientTransform="translate(-8.4464199,-32.64384)"><stop
         stop-color="#fff"
         id="stop1423" /><stop
         offset="1"
         stop-color="#fff"
         stop-opacity="0"
         id="stop1425"
         style="stop-color:#ffffff;stop-opacity:0;" /></linearGradient><linearGradient
       inkscape:collect="always"
       xlink:href="#linearGradient5568"
       id="linearGradient1737"
       gradientUnits="userSpaceOnUse"
       gradientTransform="matrix(0.69175805,-0.00179009,0.00179009,0.69175805,-80.249313,-23.826222)"
       x1="58.476898"
       y1="39.452381"
       x2="89.779778"
       y2="39.452381" /><linearGradient
       id="0-6"
       x1="21.253"
       y1="37.22"
       x2="77.76"
       y2="37.36"
       gradientUnits="userSpaceOnUse"
       gradientTransform="translate(-38.75759,4.7496517)"><stop
         stop-color="#fff"
         id="stop6062" /><stop
         offset="1"
         stop-color="#fff"
         stop-opacity="0"
         id="stop6064" /></linearGradient><linearGradient
       inkscape:collect="always"
       xlink:href="#linearGradient6492"
       id="linearGradient6494"
       x1="-41.313397"
       y1="-1.1268682"
       x2="-18.665934"
       y2="-1.1268682"
       gradientUnits="userSpaceOnUse" /></defs><g
     id="g5576"
     transform="matrix(0.70920969,0.55409534,-0.55409534,0.70920969,48.939412,38.922645)"
     style="clip-rule:evenodd;fill-rule:evenodd;image-rendering:optimizeQuality;shape-rendering:geometricPrecision"><path
       fill="#1f1a17"
       d="m -16.686222,-13.09704 c -0.640509,0 -1.188347,-0.212572 -1.638748,-0.632564 -0.449719,-0.419992 -0.675259,-0.932742 -0.675259,-1.543404 0,-0.59456 0.224858,-1.107311 0.675259,-1.538253 0.449719,-0.436096 0.998239,-0.6506 1.638748,-0.6506 0.634378,0 1.176764,0.212571 1.627165,0.6506 0.449719,0.430942 0.67526,0.943693 0.67526,1.538253 0,0.610662 -0.224859,1.123412 -0.67526,1.543404 -0.449719,0.419992 -0.992107,0.632564 -1.627165,0.632564 z m -22.097433,14.9225906 -1.0372,-2.50899914 -1.488161,-2.44329666 -1.436375,-9.9367978 0.825167,-0.305331 4.632786,7.3788414 0.103572,-8.7863294 1.148146,-0.190671 3.530975,8.8352844 1.892228,-9.5058554 h 1.171312 l 1.892228,9.4736494 3.496224,-8.8024344 1.165181,0.190672 0.103572,8.7863294 4.649823,-7.3955904 0.790416,0.349134 -1.401624,9.8936396 -1.505879,2.44329606 -1.037329,2.54185154 z m 1.651574,-16.6830776 c -0.64596,0 -1.194481,-0.207419 -1.6442,-0.627411 -0.449719,-0.419991 -0.675259,-0.937895 -0.675259,-1.543405 0,-0.594559 0.224858,-1.107309 0.675259,-1.532454 0.449719,-0.425145 0.99824,-0.638363 1.6442,-0.638363 0.628926,0 1.171314,0.212573 1.621033,0.638363 0.449718,0.425145 0.675259,0.937895 0.675259,1.532454 0,0.60551 -0.224858,1.123414 -0.675259,1.543405 -0.449719,0.419992 -0.992107,0.627411 -1.621033,0.627411 z m -6.2252,1.761777 c -0.64051,0 -1.182897,-0.212573 -1.627166,-0.632565 -0.444268,-0.419991 -0.669126,-0.932743 -0.669126,-1.543407 0,-0.594558 0.224858,-1.107308 0.669126,-1.538251 0.444269,-0.436095 0.986656,-0.6506 1.627166,-0.6506 0.64596,0 1.188348,0.212572 1.6442,0.6506 0.449719,0.430943 0.675259,0.943693 0.675259,1.538251 0,0.610664 -0.224858,1.123416 -0.675259,1.543407 -0.455852,0.419992 -0.99824,0.632565 -1.6442,0.632565 z m 13.32122,-2.557958 c -0.640509,0 -1.188348,-0.212572 -1.632616,-0.638361 -0.444268,-0.425145 -0.663677,-0.943693 -0.663677,-1.549202 0,-0.599713 0.219409,-1.112464 0.663677,-1.538252 0.444268,-0.425146 0.992107,-0.638363 1.632616,-0.638363 0.628925,0 1.176764,0.212574 1.632616,0.638363 0.455851,0.425144 0.680711,0.937895 0.680711,1.538252 0,0.605509 -0.22486,1.123414 -0.680711,1.549202 -0.455852,0.425144 -1.003691,0.638361 -1.632616,0.638361 z m 7.09602,0.796181 c -0.640508,0 -1.182897,-0.207419 -1.627165,-0.627411 -0.444269,-0.419991 -0.669127,-0.937895 -0.669127,-1.543405 0,-0.594559 0.224858,-1.107309 0.669127,-1.532454 0.444268,-0.425145 0.986657,-0.638363 1.627165,-0.638363 0.64596,0 1.19448,0.212573 1.644199,0.638363 0.449719,0.425145 0.67526,0.937895 0.67526,1.532454 0,0.60551 -0.22486,1.123414 -0.67526,1.543405 -0.449719,0.419992 -0.998239,0.627411 -1.644199,0.627411 z"
       id="path157-7"
       style="clip-rule:evenodd;opacity:1;fill:#000000;fill-opacity:1;fill-rule:evenodd;stroke:#000000;stroke-width:1.4110741;stroke-dasharray:none;image-rendering:optimizeQuality;shape-rendering:geometricPrecision;stroke-opacity:1"
       sodipodi:nodetypes="scscscscscccccccccccccccccccccssscscscsssscscscsscscscscsssssscscs" /><path
       sodipodi:nodetypes="cccccc"
       inkscape:connector-curvature="0"
       id="path5347-3-9"
       d="m -39.145819,1.5555395 0.0089,3.447801 c 5.966166,3.24538 12.048788,3.208195 18.245305,-0.04721 l -4.17e-4,-3.398489 v 0 c -6.598513,-3.334032 -12.599951,-2.795373 -18.25381,-0.0021 z"
       style="fill:url(#linearGradient1737);fill-opacity:1;stroke:#1f1a17;stroke-width:1.69329;stroke-linecap:butt;stroke-linejoin:miter;stroke-miterlimit:4;stroke-dasharray:none;stroke-opacity:1" /><path
       sodipodi:nodetypes="ccc"
       inkscape:connector-curvature="0"
       id="path5353-9-7"
       d="m -39.136897,5.0033405 c 5.946021,-3.14291 12.019535,-3.348797 18.245305,-0.04721 v 0"
       style="fill:none;stroke:#1f1a17;stroke-width:1.69329;stroke-linecap:butt;stroke-linejoin:miter;stroke-miterlimit:4;stroke-dasharray:none;stroke-opacity:1" /><path
       style="fill:url(#linearGradient6494);fill-opacity:1;stroke:#000000;stroke-width:1.69329;stroke-linecap:round;stroke-linejoin:round;stroke-dasharray:none;stroke-opacity:1"
       d="m -40.466785,-1.5008674 c 8.771824,-3.7007337 14.975121,-2.2802657 20.954234,-0.6135323 l -1.430329,3.6718832 c -7.154511,-2.49392674 -11.349769,-2.6837889 -18.202856,-0.00198 0.353164,0.1734103 -1.321049,-3.0563708 -1.321049,-3.0563709 z"
       id="path1654"
       sodipodi:nodetypes="ccccc" /></g><g
     id="g9363"
     transform="matrix(0.7261998,0,0,0.7261998,-0.52194889,14.067426)"><path
       id="path8671"
       d="m 26.18,9.395 c 2.599,0.169 5,0.838 7.222,2.02 2.21,1.168 4.098,2.675 5.656,4.513 1.092,1.287 2.117,2.845 3.082,4.665 0.974,1.812 1.744,3.742 2.32,5.774 0.66,2.371 1.084,4.851 1.253,7.459 0.178,2.599 0.263,5.01 0.263,7.23 v 5.402 c 0,0 -1.287,0 -3.861,0 -2.565,0 -5.901,0 -10.01,0 H 15.468 c -0.152,0 -0.22,-0.406 -0.212,-1.211 0.008,-0.813 0.059,-1.465 0.161,-1.964 0.059,-0.398 0.22,-0.957 0.466,-1.685 0.254,-0.728 0.66,-1.609 1.245,-2.65 0.262,-0.533 0.889,-1.304 1.88,-2.32 0.999,-1.016 2.134,-2.201 3.429,-3.539 0.745,-0.762 1.321,-1.719 1.744,-2.879 0.423,-1.151 0.601,-2.201 0.533,-3.15 -0.61,0.5 -1.279,0.906 -2.01,1.219 -3.505,1.253 -6.05,3.073 -7.611,5.452 -0.119,0.152 -0.491,0.821 -1.118,2.02 -0.33,0.627 -0.618,1.058 -0.847,1.287 -0.313,0.313 -0.771,0.491 -1.363,0.525 C 10.842,37.605 10.122,37.165 9.606,36.217 8.912,36.42 8.294,36.505 7.743,36.471 6.82,36.124 6.151,35.751 5.733,35.353 4.886,34.506 4.344,33.668 4.082,32.821 3.828,31.974 3.701,31.068 3.701,30.095 c 0,-1.389 0.855,-3.226 2.582,-5.512 2.02,-2.625 3.09,-4.631 3.217,-6 0,-0.593 0.059,-1.262 0.178,-2.01 0.102,-0.517 0.305,-1.01 0.618,-1.49 0.22,-0.33 0.364,-0.559 0.432,-0.677 0.076,-0.127 0.212,-0.313 0.415,-0.559 0.144,-0.203 0.271,-0.356 0.373,-0.457 0.093,-0.11 0.22,-0.254 0.373,-0.44 0.178,-0.212 0.406,-0.457 0.694,-0.745 -0.88,-2.413 -1.236,-4.902 -1.067,-7.459 3.285,1.168 6.05,3.01 8.28,5.529 0.55,-1.871 1.626,-3.387 3.226,-4.538 1.321,0.923 2.371,2.151 3.15,3.666"
       inkscape:connector-curvature="0"
       style="fill:#1f1a17" /><path
       style="fill:#ffffff"
       id="path9297"
       d="m 15.688,17.786 c 0.364,-0.186 0.542,-0.279 0.542,-0.279 0.499,-0.195 0.652,-0.559 0.474,-1.092 -0.195,-0.491 -0.576,-0.66 -1.143,-0.491 -1.947,0.711 -3.294,2.02 -4.04,3.92 -0.118,0.542 0.076,0.914 0.593,1.118 0.516,0.161 0.864,-0.017 1.041,-0.55 0.136,-0.279 0.229,-0.466 0.296,-0.542 0.186,0.144 0.423,0.245 0.72,0.296 1.01,0.161 1.6,-0.279 1.761,-1.338 0.051,-0.364 -0.034,-0.711 -0.246,-1.041"
       inkscape:connector-curvature="0" /><path
       style="fill:#ffffff"
       id="path9293"
       d="m 26.202,25.347 c 1.16,-1.524 1.727,-3.217 1.71,-5.08 -0.068,-0.55 -0.381,-0.821 -0.94,-0.821 -0.762,0 -1.058,0.279 -0.898,0.838 0.051,0.914 -0.034,1.668 -0.271,2.261 -0.381,0.94 -0.804,1.642 -1.261,2.108 -0.254,0.5 -0.102,0.864 0.449,1.092 0.525,0.245 0.931,0.119 1.211,-0.398"
       inkscape:connector-curvature="0" /><path
       style="fill:url(#linearGradient9305);fill-opacity:1"
       id="path9291"
       d="m 19.725,13.237 c -0.076,-0.593 -0.059,-1.236 0.051,-1.93 -0.991,0.195 -1.922,0.66 -2.802,1.389 -0.525,0.279 -0.652,0.669 -0.373,1.168 0.279,0.508 0.669,0.593 1.168,0.246 0.347,-0.186 0.669,-0.356 0.957,-0.508 0.288,-0.161 0.618,-0.279 0.999,-0.364"
       inkscape:connector-curvature="0" /><path
       style="fill:url(#linearGradient9307);fill-opacity:1"
       id="path9289"
       d="m 42.975,44.692 c -0.017,0 0,-0.449 0.042,-1.346 0.131,-3.107 0.095,-6.221 0.076,-9.33 -0.017,-2.21 -0.313,-4.411 -0.889,-6.613 -0.84,-3.31 -2.124,-6.485 -4.072,-9.296 -2.634,-3.845 -6.814,-6.03 -11.286,-6.976 0.126,0.766 0.033,1.54 0.076,2.311 1.6,0.542 3.116,1.219 4.538,2.032 4.241,2.554 6.414,7.275 7.197,11.93 1.272,6.154 0.453,11.557 0.813,17.289 h 3.505"
       inkscape:connector-curvature="0" /><path
       id="path9295"
       transform="scale(0.28221482)"
       d="m 102.15039,41.398438 c -0.48232,0 -11.477236,12.615893 -24.238281,27.537109 L 66.5,45.958984 c -2.300928,1.735997 -1.795016,1.338761 -5.310547,2.373047 l 12.994141,24.97461 c -6.455142,7.571808 -12.893469,15.178687 -18.8125,22.238281 l -21.726563,-15.5 c -1.123908,2.654198 -1.391323,3.431739 -3.917969,6.085937 l 21.476563,14.404301 c -7.844878,9.40936 -13.785685,16.68595 -14.251953,17.66211 -0.240951,0.4819 -0.598816,0.89898 -1.048828,1.22851 -1.590987,1.65123 -1.351546,3.03154 0.689453,4.14063 1.886963,1.1081 3.327783,0.74912 4.408203,-1.13868 0.209061,-0.53859 30.721532,-35.949196 31.263672,-36.998042 0.988608,-2.45912 34.784618,-39.213383 35.347658,-41.759766 -1.59003,-0.774775 -3.86995,-2.271484 -5.46094,-2.271484 z"
       style="fill:#ffffff;stroke-width:3.5434"
       inkscape:connector-curvature="0" /><path
       style="fill:#ffffff"
       id="path8673"
       d="M 9.438,30.139 C 9.912,29.8 9.963,29.411 9.582,28.945 9.184,28.564 8.752,28.53 8.27,28.843 7.26,29.503 6.721,30.375 6.653,31.451 6.67,31.993 7,32.255 7.627,32.222 8.22,32.171 8.508,31.866 8.491,31.299 8.626,30.774 8.94,30.385 9.439,30.139"
       inkscape:connector-curvature="0" /></g></svg>
