<?xml version="1.0" encoding="UTF-8" standalone="no"?>
<svg
   width="177.17"
   height="177.17"
   shape-rendering="geometricPrecision"
   image-rendering="optimizeQuality"
   fill-rule="evenodd"
   clip-rule="evenodd"
   viewBox="0 0 50 50"
   version="1.1"
   id="svg961"
   sodipodi:docname="bP.svg"
   xml:space="preserve"
   inkscape:version="1.2.2 (732a01da63, 2022-12-09)"
   xmlns:inkscape="http://www.inkscape.org/namespaces/inkscape"
   xmlns:sodipodi="http://sodipodi.sourceforge.net/DTD/sodipodi-0.dtd"
   xmlns:xlink="http://www.w3.org/1999/xlink"
   xmlns="http://www.w3.org/2000/svg"
   xmlns:svg="http://www.w3.org/2000/svg"><defs
     id="defs965"><linearGradient
       inkscape:collect="always"
       id="linearGradient1530"><stop
         style="stop-color:#ffffff;stop-opacity:1;"
         offset="0"
         id="stop1526" /><stop
         style="stop-color:#1f1a17;stop-opacity:0;"
         offset="1"
         id="stop1528" /></linearGradient><linearGradient
       inkscape:collect="always"
       xlink:href="#linearGradient1530"
       id="linearGradient1532"
       x1="21.477697"
       y1="7.8836317"
       x2="78.107704"
       y2="7.9994502"
       gradientUnits="userSpaceOnUse" /><linearGradient
       id="0"
       gradientUnits="userSpaceOnUse"
       x1="21.129999"
       y1="37.349998"
       x2="77.760002"
       y2="37.469002"
       gradientTransform="matrix(1,0,0,0.97324,0,1.243)"><stop
         stop-color="#fff"
         id="stop2" /><stop
         offset="1"
         stop-color="#fff"
         stop-opacity="0"
         id="stop4" /></linearGradient></defs><sodipodi:namedview
     id="namedview963"
     pagecolor="#ffffff"
     bordercolor="#000000"
     borderopacity="0.25"
     inkscape:showpageshadow="2"
     inkscape:pageopacity="0.0"
     inkscape:pagecheckerboard="0"
     inkscape:deskcolor="#d1d1d1"
     showgrid="false"
     inkscape:zoom="2.6471751"
     inkscape:cx="89.907163"
     inkscape:cy="87.640596"
     inkscape:window-width="1280"
     inkscape:window-height="649"
     inkscape:window-x="-8"
     inkscape:window-y="-8"
     inkscape:window-maximized="1"
     inkscape:current-layer="svg961" /><path
     d="m25 46.45h-13.394c-.66-1.651-.991-3.378-.991-5.182 0-3.056.864-5.8 2.599-8.238 1.736-2.43 3.971-4.166 6.697-5.207-1.168-.542-2.125-1.363-2.862-2.464-.737-1.101-1.101-2.345-1.101-3.734 0-1.736.576-3.243 1.736-4.513 1.152-1.278 2.574-2.02 4.267-2.21-1.346-1.01-2.02-2.345-2.02-3.996 0-1.389.491-2.582 1.482-3.573.982-.991 2.176-1.482 3.581-1.482 1.389 0 2.582.491 3.573 1.482.991.991 1.49 2.184 1.49 3.573 0 1.651-.669 2.989-2.02 3.996 1.693.195 3.116.931 4.267 2.21 1.16 1.27 1.736 2.777 1.736 4.513 0 1.389-.373 2.633-1.126 3.734-.753 1.101-1.71 1.922-2.862 2.464 2.726 1.041 4.961 2.777 6.697 5.207 1.736 2.438 2.599 5.182 2.599 8.238 0 1.786-.322 3.514-.965 5.182h-13.394"
     fill="#1f1a17"
     transform="matrix(1 0 0 .97324 0 1.243)"
     id="path959" /><path
     style="fill:none;stroke:url(#linearGradient1532);stroke-width:1.69329;stroke-linecap:square;stroke-linejoin:round;stop-color:#000000;fill-opacity:1"
     d="m 25,18.343964 -4.233222,5.644296 h 8.466445 z"
     id="path1138"
     sodipodi:nodetypes="cccc" /></svg>
