<?xml version="1.0" encoding="UTF-8" standalone="no"?>
<svg
   width="177.17"
   height="177.17"
   shape-rendering="geometricPrecision"
   image-rendering="optimizeQuality"
   fill-rule="evenodd"
   clip-rule="evenodd"
   viewBox="0 0 50 50"
   version="1.1"
   id="svg13"
   sodipodi:docname="wBp.svg"
   inkscape:version="1.2.2 (732a01da63, 2022-12-09)"
   xmlns:inkscape="http://www.inkscape.org/namespaces/inkscape"
   xmlns:sodipodi="http://sodipodi.sourceforge.net/DTD/sodipodi-0.dtd"
   xmlns="http://www.w3.org/2000/svg"
   xmlns:svg="http://www.w3.org/2000/svg">
  <sodipodi:namedview
     id="namedview15"
     pagecolor="#ffffff"
     bordercolor="#000000"
     borderopacity="0.25"
     inkscape:showpageshadow="2"
     inkscape:pageopacity="0.0"
     inkscape:pagecheckerboard="0"
     inkscape:deskcolor="#d1d1d1"
     showgrid="false"
     inkscape:zoom="2.6471751"
     inkscape:cx="77.818805"
     inkscape:cy="88.77388"
     inkscape:window-width="1280"
     inkscape:window-height="649"
     inkscape:window-x="-8"
     inkscape:window-y="-8"
     inkscape:window-maximized="1"
     inkscape:current-layer="svg13" />
  <defs
     id="defs7">
    <linearGradient
       id="0"
       gradientUnits="userSpaceOnUse"
       x1="21.13"
       y1="37.35"
       x2="77.76"
       y2="37.469"
       gradientTransform="matrix(1 0 0 .97324 0 1.243)">
      <stop
         stop-color="#fff"
         id="stop2" />
      <stop
         offset="1"
         stop-color="#fff"
         stop-opacity="0"
         id="stop4" />
    </linearGradient>
  </defs>
  <path
     d="M 25,46.45 H 11.606 c -0.66,-1.607 -0.991,-3.288 -0.991,-5.04 0,-2.975 0.864,-5.644 2.599,-8.02 1.736,-2.365 3.971,-4.054 6.697,-5.068 -1.168,-0.527 -2.125,-1.327 -2.862,-2.398 -0.737,-1.071 -1.101,-2.283 -1.101,-3.634 0,-1.689 0.576,-3.156 1.736,-4.392 1.152,-1.244 2.574,-1.961 4.267,-2.151 -1.346,-0.981 -2.866716,-3.128735 -2.866716,-4.735735 0,-1.3509995 0.07084,-1.0329965 0.635405,-1.7837765 3.648059,0.0154 7.397046,0.04759 10.540517,0 0.77778,0.75078 0.643442,0.432777 0.643442,1.7837765 0,1.607 -1.515648,3.755735 -2.866648,4.735735 1.693,0.19 3.116,0.906 4.267,2.151 1.16,1.236 1.736,2.703 1.736,4.392 0,1.351 -0.373,2.563 -1.126,3.634 -0.753,1.071 -1.71,1.87 -2.862,2.398 2.726,1.014 4.961,2.703 6.697,5.068 1.736,2.373 2.599,5.04 2.599,8.02 0,1.739 -0.322,3.42 -0.965,5.04 H 24.989"
     fill="#1f1a17"
     id="path9"
     sodipodi:nodetypes="ccsccssccsccsccssccscc" />
  <path
     d="m 25,44.808 h 12.175 c 0.347,-1.154 0.525,-2.291 0.525,-3.403 0,-2.513 -0.711,-4.787 -2.142,-6.831 -1.431,-2.044 -3.277,-3.552 -5.52,-4.516 -1.584,-0.62 -1.643,-0.659 -1.643,-1.739 0,-0.849 0.559,-1.475 1.668,-1.879 1.532,-1.047 2.303,-2.431 2.303,-4.153 0,-1.244 -0.432,-2.324 -1.287,-3.263 -0.864,-0.931 -1.905,-1.467 -3.124,-1.615 -0.999,-0.082 -1.49,-0.626 -1.49,-1.64 0,-0.453 0.178,-0.873 0.542,-1.261 0.898,-0.676 2.192639,-2.403646 2.192639,-3.499646 h -8.41621 c 0,1.079 1.286571,2.807646 2.184571,3.499646 0.364,0.354 0.542,0.775 0.542,1.261 0,1.014 -0.483,1.557 -1.465,1.64 -1.236,0.148 -2.286,0.684 -3.133,1.615 -0.855,0.939 -1.279,2.02 -1.279,3.263 0,1.722 0.77,3.106 2.303,4.153 1.109,0.412 1.668,1.046 1.668,1.879 0,1.079 -0.067,1.118 -1.668,1.739 -2.244,0.964 -4.081,2.472 -5.503,4.516 -1.422,2.044 -2.134,4.318 -2.134,6.831 0,1.195 0.178,2.324 0.525,3.403 h 12.175"
     fill="url(#0)"
     id="path11"
     sodipodi:nodetypes="ccsscscsccsccccsccscscsscc"
     style="fill:#201b18;fill-opacity:1" />
</svg>
