<?xml version="1.0" encoding="UTF-8" standalone="no"?>
<svg
   width="177.17"
   height="177.17"
   shape-rendering="geometricPrecision"
   image-rendering="optimizeQuality"
   fill-rule="evenodd"
   clip-rule="evenodd"
   viewBox="0 0 50 50"
   version="1.1"
   id="svg25"
   sodipodi:docname="bQ.svg"
   inkscape:version="1.2.2 (732a01da63, 2022-12-09)"
   xmlns:inkscape="http://www.inkscape.org/namespaces/inkscape"
   xmlns:sodipodi="http://sodipodi.sourceforge.net/DTD/sodipodi-0.dtd"
   xmlns="http://www.w3.org/2000/svg"
   xmlns:svg="http://www.w3.org/2000/svg">
  <sodipodi:namedview
     id="namedview27"
     pagecolor="#ffffff"
     bordercolor="#000000"
     borderopacity="0.25"
     inkscape:showpageshadow="2"
     inkscape:pageopacity="0.0"
     inkscape:pagecheckerboard="0"
     inkscape:deskcolor="#d1d1d1"
     showgrid="false"
     inkscape:zoom="4.3799741"
     inkscape:cx="88.699155"
     inkscape:cy="88.584999"
     inkscape:window-width="1920"
     inkscape:window-height="974"
     inkscape:window-x="-11"
     inkscape:window-y="-11"
     inkscape:window-maximized="1"
     inkscape:current-layer="svg25" />
  <defs
     id="defs7">
    <linearGradient
       id="0"
       x1="21.253"
       y1="37.22"
       x2="77.76"
       y2="37.36"
       gradientUnits="userSpaceOnUse"
       gradientTransform="matrix(1,0,0,-1,0,50.425)">
      <stop
         stop-color="#fff"
         id="stop2" />
      <stop
         offset="1"
         stop-color="#fff"
         stop-opacity="0"
         id="stop4" />
    </linearGradient>
  </defs>
  <g
     fill="#1f1a17"
     id="g21"
     transform="matrix(1,0,0,-1,0,50.425)">
    <path
       d="m 24.949,10.752 c -0.94,0 -1.744,-0.33 -2.396,-0.991 -0.652,-0.66 -0.974,-1.465 -0.974,-2.405 0,-0.931 0.322,-1.727 0.974,-2.388 0.652,-0.66 1.456,-0.991 2.396,-0.991 0.923,0 1.727,0.33 2.396,0.991 0.669,0.66 0.999,1.456 0.999,2.388 0,0.94 -0.33,1.744 -0.999,2.405 -0.669,0.66 -1.473,0.991 -2.396,0.991"
       id="path9" />
    <path
       d="m 40.23,43.942 c -0.813,0.711 -2.633,1.304 -5.461,1.786 -2.828,0.474 -6.087,0.72 -9.77,0.72 -3.751,0 -7.05,-0.254 -9.898,-0.745 -2.845,-0.499 -4.64,-1.118 -5.385,-1.863 L 11.282,37.888 10.588,33.993 8.404,30.2 6.296,14.774 7.507,14.3 l 6.799,11.455 0.152,-13.64 1.685,-0.296 5.182,13.716 2.777,-14.757 h 1.719 l 2.777,14.707 5.131,-13.665 1.71,0.296 0.152,13.64 6.824,-11.481 1.16,0.542 -2.057,15.359 -2.21,3.793 -0.694,3.946 1.617,6.03"
       id="path11" />
    <path
       d="m 14.535,11.989 c -0.948,0 -1.753,-0.322 -2.413,-0.974 -0.66,-0.652 -0.991,-1.456 -0.991,-2.396 0,-0.923 0.33,-1.719 0.991,-2.379 0.66,-0.66 1.465,-0.991 2.413,-0.991 0.923,0 1.719,0.33 2.379,0.991 0.66,0.66 0.991,1.456 0.991,2.379 0,0.94 -0.33,1.744 -0.991,2.396 -0.66,0.652 -1.456,0.974 -2.379,0.974"
       id="path13" />
    <path
       d="m 35.36,11.989 c -0.94,0 -1.736,-0.322 -2.388,-0.974 C 32.32,10.363 31.99,9.559 31.99,8.619 31.99,7.696 32.32,6.9 32.972,6.24 33.624,5.58 34.42,5.249 35.36,5.249 c 0.948,0 1.753,0.33 2.413,0.991 0.66,0.66 0.991,1.456 0.991,2.379 0,0.94 -0.33,1.744 -0.991,2.396 -0.66,0.652 -1.465,0.974 -2.413,0.974"
       id="path15" />
    <path
       d="m 5.4,14.723 c -0.94,0 -1.736,-0.33 -2.388,-0.982 C 2.36,13.089 2.03,12.293 2.03,11.345 2.03,10.422 2.36,9.626 3.012,8.957 3.664,8.28 4.46,7.947 5.4,7.947 c 0.948,0 1.744,0.33 2.413,1.01 0.66,0.669 0.991,1.465 0.991,2.388 0,0.948 -0.33,1.744 -0.991,2.396 -0.669,0.652 -1.465,0.982 -2.413,0.982"
       id="path17" />
    <path
       d="m 44.541,14.723 c -0.94,0 -1.744,-0.33 -2.405,-0.982 -0.66,-0.652 -0.991,-1.448 -0.991,-2.396 0,-0.923 0.33,-1.719 0.991,-2.388 0.66,-0.677 1.465,-1.01 2.405,-1.01 0.931,0 1.727,0.33 2.388,1.01 0.66,0.669 0.991,1.465 0.991,2.388 0,0.948 -0.33,1.744 -0.991,2.396 -0.66,0.652 -1.456,0.982 -2.388,0.982"
       id="path19" />
  </g>
  <path
     fill="url(#0)"
     d="m 37.2,14.696 c -3.04,0.838 -7.095,1.262 -12.15,1.262 -5.097,0 -9.195,-0.432 -12.302,-1.287 l 0.373,-2.506 c 3.124,0.813 7.095,1.219 11.93,1.219 4.809,0 8.729,-0.398 11.752,-1.194 l 0.398,2.506 m 1.736,4.437 c -1.372,0.5 -3.302,0.906 -5.791,1.228 -2.489,0.322 -5.232,0.483 -8.246,0.483 -2.946,0 -5.639,-0.152 -8.09,-0.457 -2.447,-0.305 -4.377,-0.703 -5.783,-1.202 l 1.245,-2.252 c 1.389,0.406 3.192,0.703 5.41,0.889 2.21,0.178 4.631,0.271 7.264,0.271 2.633,0 5.063,-0.093 7.29,-0.271 2.235,-0.186 4.047,-0.491 5.436,-0.914 l 1.261,2.227 M 37.841,7.282 37.104,10.211 c -3.226,0.737 -7.281,1.109 -12.158,1.109 -4.826,0 -8.865,-0.373 -12.11,-1.109 L 12.049,7.256 c 3.141,0.957 7.442,1.439 12.92,1.439 2.625,0 5.072,-0.136 7.315,-0.398 2.252,-0.262 4.106,-0.601 5.554,-1.016"
     id="path23"
     style="fill:url(#0)" />
</svg>
