<?xml version="1.0" encoding="UTF-8" standalone="no"?>
<svg
   width="177.17"
   height="177.17"
   shape-rendering="geometricPrecision"
   image-rendering="optimizeQuality"
   fill-rule="evenodd"
   clip-rule="evenodd"
   viewBox="0 0 50 50"
   version="1.1"
   id="svg15"
   sodipodi:docname="wQ.svg"
   inkscape:version="1.2.2 (732a01da63, 2022-12-09)"
   xmlns:inkscape="http://www.inkscape.org/namespaces/inkscape"
   xmlns:sodipodi="http://sodipodi.sourceforge.net/DTD/sodipodi-0.dtd"
   xmlns="http://www.w3.org/2000/svg"
   xmlns:svg="http://www.w3.org/2000/svg">
  <sodipodi:namedview
     id="namedview17"
     pagecolor="#ffffff"
     bordercolor="#000000"
     borderopacity="0.25"
     inkscape:showpageshadow="2"
     inkscape:pageopacity="0.0"
     inkscape:pagecheckerboard="0"
     inkscape:deskcolor="#d1d1d1"
     showgrid="false"
     inkscape:zoom="4.3799741"
     inkscape:cx="88.699155"
     inkscape:cy="88.584999"
     inkscape:window-width="1920"
     inkscape:window-height="974"
     inkscape:window-x="-11"
     inkscape:window-y="-11"
     inkscape:window-maximized="1"
     inkscape:current-layer="svg15" />
  <defs
     id="defs7">
    <linearGradient
       id="0"
       x1="21.253"
       y1="37.22"
       x2="77.64"
       y2="37.35"
       gradientUnits="userSpaceOnUse">
      <stop
         stop-color="#fff"
         id="stop2" />
      <stop
         offset="1"
         stop-color="#fff"
         stop-opacity="0"
         id="stop4" />
    </linearGradient>
  </defs>
  <g
     stroke="#1f1a17"
     stroke-width="0.076"
     id="g13"
     transform="matrix(1,0,0,-1,0,50.428)">
    <path
       fill="#1f1a17"
       d="m 44.541,14.723 c -0.94,0 -1.744,-0.33 -2.405,-0.982 -0.66,-0.652 -0.991,-1.448 -0.991,-2.396 0,-0.923 0.33,-1.719 0.991,-2.388 0.66,-0.677 1.465,-1.01 2.405,-1.01 0.931,0 1.727,0.33 2.388,1.01 0.66,0.669 0.991,1.465 0.991,2.388 0,0.948 -0.33,1.744 -0.991,2.396 -0.66,0.652 -1.456,0.982 -2.388,0.982 z m -4.31,29.22 c -0.813,0.711 -2.633,1.304 -5.461,1.786 -2.828,0.474 -6.087,0.72 -9.77,0.72 -3.751,0 -7.05,-0.254 -9.898,-0.745 -2.845,-0.499 -4.64,-1.118 -5.385,-1.863 l 1.566,-5.952 -0.694,-3.895 -2.184,-3.793 -2.108,-15.426 1.211,-0.474 6.799,11.455 0.152,-13.64 1.685,-0.296 5.182,13.716 2.777,-14.757 h 1.719 l 2.777,14.707 5.131,-13.665 1.71,0.296 0.152,13.64 6.824,-11.481 1.16,0.542 -2.057,15.359 -2.21,3.793 -0.694,3.946 1.617,6.03 z M 14.535,11.99 c -0.948,0 -1.753,-0.322 -2.413,-0.974 -0.66,-0.652 -0.991,-1.456 -0.991,-2.396 0,-0.923 0.33,-1.719 0.991,-2.379 0.66,-0.66 1.465,-0.991 2.413,-0.991 0.923,0 1.719,0.33 2.379,0.991 0.66,0.66 0.991,1.456 0.991,2.379 0,0.94 -0.33,1.744 -0.991,2.396 -0.66,0.652 -1.456,0.974 -2.379,0.974 z m -9.136,2.735 c -0.94,0 -1.736,-0.33 -2.388,-0.982 -0.652,-0.652 -0.982,-1.448 -0.982,-2.396 0,-0.923 0.33,-1.719 0.982,-2.388 0.652,-0.677 1.448,-1.01 2.388,-1.01 0.948,0 1.744,0.33 2.413,1.01 0.66,0.669 0.991,1.465 0.991,2.388 0,0.948 -0.33,1.744 -0.991,2.396 -0.669,0.652 -1.465,0.982 -2.413,0.982 z m 19.55,-3.971 c -0.94,0 -1.744,-0.33 -2.396,-0.991 -0.652,-0.66 -0.974,-1.465 -0.974,-2.405 0,-0.931 0.322,-1.727 0.974,-2.388 0.652,-0.66 1.456,-0.991 2.396,-0.991 0.923,0 1.727,0.33 2.396,0.991 0.669,0.66 0.999,1.456 0.999,2.388 0,0.94 -0.33,1.744 -0.999,2.405 -0.669,0.66 -1.473,0.991 -2.396,0.991 z m 10.414,1.236 c -0.94,0 -1.736,-0.322 -2.388,-0.974 -0.652,-0.652 -0.982,-1.456 -0.982,-2.396 0,-0.923 0.33,-1.719 0.982,-2.379 0.652,-0.66 1.448,-0.991 2.388,-0.991 0.948,0 1.753,0.33 2.413,0.991 0.66,0.66 0.991,1.456 0.991,2.379 0,0.94 -0.33,1.744 -0.991,2.396 -0.66,0.652 -1.465,0.974 -2.413,0.974 z"
       id="path9" />
    <path
       fill="url(#0)"
       d="m 38.22,43.04 c -3.02,-1.253 -7.417,-1.88 -13.166,-1.88 -5.876,0 -10.312,0.643 -13.327,1.93 2.896,1.143 7.315,1.71 13.25,1.71 2.845,0 5.444,-0.152 7.798,-0.466 2.362,-0.313 4.174,-0.745 5.444,-1.295 z M 24.953,9.01 c 1.109,0 1.66,-0.559 1.66,-1.659 0,-1.092 -0.55,-1.643 -1.66,-1.643 -1.092,0 -1.634,0.55 -1.634,1.643 0,1.101 0.542,1.659 1.634,1.659 z m 12.624,24.977 c -3.192,-0.813 -7.366,-1.211 -12.522,-1.211 -5.292,0 -9.517,0.406 -12.675,1.236 l 0.373,2.379 c 3.217,-0.762 7.324,-1.143 12.302,-1.143 4.944,0 8.975,0.373 12.1,1.118 l 0.423,-2.379 z m 0.618,-1.49 1.617,-2.853 c -0.796,0.322 -1.609,0.474 -2.43,0.474 -2.218,0 -3.988,-0.897 -5.309,-2.701 -0.991,0.821 -2.1,1.236 -3.327,1.236 -1.583,0 -2.853,-0.618 -3.793,-1.863 -1.058,1.16 -2.32,1.744 -3.793,1.744 -1.194,0 -2.286,-0.406 -3.277,-1.219 -1.389,1.77 -3.183,2.65 -5.385,2.65 -0.838,0 -1.676,-0.152 -2.506,-0.466 l 1.736,2.972 c 3.209,-0.923 7.62,-1.389 13.225,-1.389 5.706,0 10.118,0.474 13.242,1.414 z M 27.085,26.57 24.977,14.437 22.869,26.426 c 0.051,-0.034 0.161,-0.119 0.347,-0.254 0.381,-0.745 0.957,-1.118 1.736,-1.118 0.847,0 1.389,0.372 1.634,1.118 0.102,0.102 0.271,0.237 0.5,0.398 z m 6.867,0.474 V 15.555 l -4.089,11.261 c 0.313,-0.11 0.576,-0.262 0.796,-0.44 0.33,-0.415 0.779,-0.627 1.338,-0.627 0.66,0 1.194,0.296 1.592,0.872 0.042,0.068 0.102,0.136 0.169,0.212 0.068,0.076 0.136,0.144 0.195,0.212 z M 20.016,26.697 15.952,15.555 v 11.337 c 0.042,-0.068 0.119,-0.144 0.22,-0.245 0.33,-0.694 0.872,-1.041 1.634,-1.041 0.627,0 1.143,0.262 1.541,0.796 0.449,0.195 0.669,0.296 0.669,0.296 z m -6.299,1.389 -5.334,-9.203 1.363,8.382 c 0.94,0.66 1.863,0.991 2.752,0.991 0.347,0 0.754,-0.059 1.219,-0.169 z m 22.394,0.119 c 0.381,0.119 0.804,0.178 1.27,0.178 1.01,0 1.947,-0.313 2.828,-0.94 l 1.363,-8.585 z m 1.49,12.556 -0.745,-2.802 c -3.243,-0.711 -7.205,-1.067 -11.904,-1.067 -4.648,0 -8.611,0.356 -11.879,1.067 l -0.771,2.828 c 3.073,-0.931 7.298,-1.389 12.675,-1.389 5.241,0 9.449,0.449 12.624,1.363 z M 14.541,10.247 c 1.084,0 1.634,-0.542 1.634,-1.634 0,-1.092 -0.55,-1.634 -1.634,-1.634 -1.109,0 -1.668,0.542 -1.668,1.634 0,1.092 0.559,1.634 1.668,1.634 z m 20.828,0 c 1.109,0 1.668,-0.542 1.668,-1.634 0,-1.092 -0.559,-1.634 -1.668,-1.634 -1.084,0 -1.634,0.542 -1.634,1.634 0,1.092 0.55,1.634 1.634,1.634 z M 5.405,12.982 c 1.109,0 1.668,-0.55 1.668,-1.643 0,-1.109 -0.559,-1.659 -1.668,-1.659 -1.084,0 -1.634,0.55 -1.634,1.659 0,1.092 0.55,1.643 1.634,1.643 z m 39.14,0 c 1.092,0 1.642,-0.55 1.642,-1.643 0,-1.109 -0.55,-1.659 -1.642,-1.659 -1.101,0 -1.66,0.55 -1.66,1.659 0,1.092 0.559,1.643 1.66,1.643 z"
       id="path11"
       style="fill:url(#0)" />
  </g>
</svg>
