<?xml version="1.0" encoding="UTF-8" standalone="no"?>
<svg
   width="177.17"
   height="177.17"
   shape-rendering="geometricPrecision"
   image-rendering="optimizeQuality"
   fill-rule="evenodd"
   clip-rule="evenodd"
   viewBox="0 0 50 50"
   version="1.1"
   id="svg13"
   sodipodi:docname="wU.svg"
   inkscape:version="1.2.2 (732a01da63, 2022-12-09)"
   xmlns:inkscape="http://www.inkscape.org/namespaces/inkscape"
   xmlns:sodipodi="http://sodipodi.sourceforge.net/DTD/sodipodi-0.dtd"
   xmlns="http://www.w3.org/2000/svg"
   xmlns:svg="http://www.w3.org/2000/svg">
  <sodipodi:namedview
     id="namedview15"
     pagecolor="#ffffff"
     bordercolor="#000000"
     borderopacity="0.25"
     inkscape:showpageshadow="2"
     inkscape:pageopacity="0.0"
     inkscape:pagecheckerboard="0"
     inkscape:deskcolor="#d1d1d1"
     showgrid="false"
     inkscape:zoom="4.3799741"
     inkscape:cx="88.699155"
     inkscape:cy="88.584999"
     inkscape:window-width="1920"
     inkscape:window-height="974"
     inkscape:window-x="-11"
     inkscape:window-y="-11"
     inkscape:window-maximized="1"
     inkscape:current-layer="svg13" />
  <defs
     id="defs7">
    <linearGradient
       id="0"
       x1="21.405"
       x2="77.64"
       gradientUnits="userSpaceOnUse"
       gradientTransform="matrix(1,0,0,-1,0,51.204)">
      <stop
         stop-color="#fff"
         id="stop2" />
      <stop
         offset="1"
         stop-color="#fff"
         stop-opacity="0"
         id="stop4" />
    </linearGradient>
  </defs>
  <path
     fill="#1f1a17"
     d="m 26.18,41.809 c 2.599,-0.169 5,-0.838 7.222,-2.02 2.21,-1.168 4.098,-2.675 5.656,-4.513 1.092,-1.287 2.117,-2.845 3.082,-4.665 0.974,-1.812 1.744,-3.742 2.32,-5.774 0.66,-2.371 1.084,-4.851 1.253,-7.459 0.178,-2.599 0.263,-5.01 0.263,-7.23 V 4.746 c 0,0 -1.287,0 -3.861,0 -2.565,0 -5.901,0 -10.01,0 H 15.468 c -0.152,0 -0.22,0.406 -0.212,1.211 0.008,0.813 0.059,1.465 0.161,1.964 0.059,0.398 0.22,0.957 0.466,1.685 0.254,0.728 0.66,1.609 1.245,2.65 0.262,0.533 0.889,1.304 1.88,2.32 0.999,1.016 2.134,2.201 3.429,3.539 0.745,0.762 1.321,1.719 1.744,2.879 0.423,1.151 0.601,2.201 0.533,3.15 -0.61,-0.5 -1.279,-0.906 -2.01,-1.219 -3.505,-1.253 -6.05,-3.073 -7.611,-5.452 -0.119,-0.152 -0.491,-0.821 -1.118,-2.02 -0.33,-0.627 -0.618,-1.058 -0.847,-1.287 -0.313,-0.313 -0.771,-0.491 -1.363,-0.525 -0.923,-0.042 -1.643,0.398 -2.159,1.346 -0.694,-0.203 -1.312,-0.288 -1.863,-0.254 -0.923,0.347 -1.592,0.72 -2.01,1.118 -0.847,0.847 -1.389,1.685 -1.651,2.532 -0.254,0.847 -0.381,1.753 -0.381,2.726 0,1.389 0.855,3.226 2.582,5.512 2.02,2.625 3.09,4.631 3.217,6 0,0.593 0.059,1.262 0.178,2.01 0.102,0.517 0.305,1.01 0.618,1.49 0.22,0.33 0.364,0.559 0.432,0.677 0.076,0.127 0.212,0.313 0.415,0.559 0.144,0.203 0.271,0.356 0.373,0.457 0.093,0.11 0.22,0.254 0.373,0.44 0.178,0.212 0.406,0.457 0.694,0.745 -0.88,2.413 -1.236,4.902 -1.067,7.459 3.285,-1.168 6.05,-3.01 8.28,-5.529 0.55,1.871 1.626,3.387 3.226,4.538 1.321,-0.923 2.371,-2.151 3.15,-3.666"
     id="path9" />
  <path
     fill="url(#0)"
     d="m 42.976,6.511 c -0.017,0 0,0.449 0.042,1.346 0.051,0.906 0.076,1.88 0.076,2.921 0.017,2.066 0.017,4.2 0,6.409 -0.017,2.21 -0.313,4.411 -0.889,6.613 -0.567,2.117 -1.185,3.92 -1.863,5.419 -0.677,1.499 -1.414,2.786 -2.21,3.878 -1.185,1.786 -2.811,3.302 -4.86,4.538 -2.049,1.245 -4.191,2.057 -6.426,2.438 0.152,-0.813 0.22,-1.609 0.203,-2.388 -0.034,-0.593 -0.313,-0.889 -0.847,-0.889 -0.61,0 -0.881,0.296 -0.821,0.889 0.051,2.184 -0.728,4.056 -2.328,5.605 -1.253,-1.321 -1.939,-2.853 -2.032,-4.606 -0.034,-0.584 -0.33,-0.838 -0.897,-0.771 -0.525,0.017 -0.787,0.322 -0.787,0.914 0,0 0.017,0.068 0.042,0.203 -0.677,-0.22 -1.389,-0.525 -2.134,-0.923 -0.474,-0.33 -0.864,-0.245 -1.16,0.246 -0.296,0.499 -0.169,0.889 0.398,1.168 0.711,0.364 1.245,0.635 1.609,0.821 -1.422,1.456 -3.04,2.625 -4.86,3.522 0.195,-2.303 0.83,-4.47 1.888,-6.528 0.279,-0.423 0.212,-0.804 -0.203,-1.135 -0.466,-0.364 -0.855,-0.313 -1.168,0.169 -0.11,0.169 -0.279,0.466 -0.491,0.897 -0.347,-0.347 -0.584,-0.61 -0.694,-0.77 -0.118,-0.152 -0.322,-0.483 -0.61,-0.991 -0.288,-0.516 -0.499,-0.94 -0.635,-1.27 -0.144,-0.415 -0.212,-0.745 -0.186,-1.01 0.025,-0.254 0.051,-0.533 0.068,-0.855 C 11.049,31.397 10.71,30.483 10.191,29.619 9.666,28.764 9.006,27.714 8.193,26.469 7.414,25.284 6.821,24.386 6.407,23.794 5.992,23.193 5.679,22.439 5.467,21.508 c -0.152,-0.559 -0.152,-1.245 0,-2.041 0.144,-0.804 0.474,-1.431 0.965,-1.88 0.762,-0.77 1.499,-1.126 2.21,-1.067 0.229,0 0.542,0.093 0.931,0.279 0.389,0.178 0.686,0.525 0.906,1.041 0.423,0.94 0.779,1.414 1.067,1.414 0.406,0 0.635,-0.237 0.669,-0.694 0,-0.102 -0.136,-0.517 -0.398,-1.245 -0.152,-0.33 -0.347,-0.677 -0.593,-1.041 -0.322,-0.432 -0.457,-0.61 -0.423,-0.542 0.262,-0.948 0.703,-1.109 1.312,-0.499 0.178,0.178 0.389,0.525 0.618,1.016 0.237,0.499 0.601,1.168 1.092,2.01 0.584,0.982 1.202,1.77 1.863,2.388 0.66,0.61 1.245,1.109 1.761,1.482 0.296,0.22 0.66,0.466 1.092,0.745 0.432,0.288 1.01,0.576 1.736,0.872 0.576,0.229 1.219,0.516 1.922,0.855 0.703,0.339 1.329,0.77 1.871,1.304 0.762,0.745 1.346,1.659 1.761,2.752 0.22,0.61 0.296,1.363 0.245,2.261 -0.144,0.559 0.136,0.838 0.847,0.838 0.533,0 0.83,-0.271 0.898,-0.821 0,-1.863 -0.533,-3.564 -1.592,-5.105 0.347,-1.058 0.44,-2.218 0.271,-3.471 -0.144,-1.01 -0.5,-2.091 -1.05,-3.243 -0.559,-1.143 -1.676,-2.422 -3.361,-3.827 -3.429,-2.845 -5.05,-5.774 -4.86,-8.78 0,0 1.405,0 4.225,0 2.819,0 5.47,0 7.95,0 H 42.974 M 9.336,21.589 C 8.853,21.293 8.566,20.895 8.464,20.395 8.481,19.853 8.227,19.557 7.702,19.506 7.118,19.438 6.821,19.684 6.804,20.251 c 0.068,1.092 0.55,1.956 1.465,2.599 0.432,0.347 0.83,0.322 1.194,-0.093 0.364,-0.449 0.322,-0.838 -0.127,-1.168 m 7.366,11.828 c 0.212,-0.33 0.296,-0.677 0.246,-1.041 -0.161,-1.058 -0.754,-1.499 -1.761,-1.338 -0.296,0.051 -0.533,0.152 -0.72,0.296 -0.059,-0.076 -0.161,-0.262 -0.296,-0.542 -0.178,-0.533 -0.525,-0.711 -1.041,-0.55 -0.508,0.203 -0.711,0.576 -0.593,1.118 0.745,1.905 2.091,3.209 4.04,3.92 0.567,0.169 0.94,0 1.118,-0.491 0.203,-0.533 0.051,-0.898 -0.449,-1.092 -0.093,-0.051 -0.186,-0.102 -0.271,-0.136 -0.085,-0.042 -0.169,-0.093 -0.271,-0.144"
     id="path11"
     style="fill:url(#0)" />
</svg>
