<?xml version="1.0" encoding="UTF-8" standalone="no"?>
<svg
   id="svg2"
   height="100%"
   width="100%"
   version="1.1"
   viewBox="0 0 2048 2048"
   inkscape:version="1.2.2 (732a01da63, 2022-12-09)"
   sodipodi:docname="bA.svg"
   inkscape:export-filename="S:\Greg\Projects\Chess\CVP\Graphics\Alfaerie SVG\WAmazon.png"
   inkscape:export-xdpi="18.75"
   inkscape:export-ydpi="18.75"
   xml:space="preserve"
   xmlns:inkscape="http://www.inkscape.org/namespaces/inkscape"
   xmlns:sodipodi="http://sodipodi.sourceforge.net/DTD/sodipodi-0.dtd"
   xmlns="http://www.w3.org/2000/svg"
   xmlns:svg="http://www.w3.org/2000/svg"
   xmlns:rdf="http://www.w3.org/1999/02/22-rdf-syntax-ns#"
   xmlns:cc="http://creativecommons.org/ns#"
   xmlns:dc="http://purl.org/dc/elements/1.1/"><defs
     id="defs13"><inkscape:perspective
       sodipodi:type="inkscape:persp3d"
       inkscape:vp_x="0 : 1024 : 1"
       inkscape:vp_y="0 : 1000 : 0"
       inkscape:vp_z="2048 : 1024 : 1"
       inkscape:persp3d-origin="1024 : 682.66667 : 1"
       id="perspective14" /><inkscape:perspective
       id="perspective2828"
       inkscape:persp3d-origin="0.5 : 0.33333333 : 1"
       inkscape:vp_z="1 : 0.5 : 1"
       inkscape:vp_y="0 : 1000 : 0"
       inkscape:vp_x="0 : 0.5 : 1"
       sodipodi:type="inkscape:persp3d" /><inkscape:perspective
       id="perspective3620"
       inkscape:persp3d-origin="0.5 : 0.33333333 : 1"
       inkscape:vp_z="1 : 0.5 : 1"
       inkscape:vp_y="0 : 1000 : 0"
       inkscape:vp_x="0 : 0.5 : 1"
       sodipodi:type="inkscape:persp3d" /><inkscape:perspective
       id="perspective3648"
       inkscape:persp3d-origin="0.5 : 0.33333333 : 1"
       inkscape:vp_z="1 : 0.5 : 1"
       inkscape:vp_y="0 : 1000 : 0"
       inkscape:vp_x="0 : 0.5 : 1"
       sodipodi:type="inkscape:persp3d" /><inkscape:perspective
       id="perspective3705"
       inkscape:persp3d-origin="0.5 : 0.33333333 : 1"
       inkscape:vp_z="1 : 0.5 : 1"
       inkscape:vp_y="0 : 1000 : 0"
       inkscape:vp_x="0 : 0.5 : 1"
       sodipodi:type="inkscape:persp3d" /><inkscape:perspective
       id="perspective3735"
       inkscape:persp3d-origin="0.5 : 0.33333333 : 1"
       inkscape:vp_z="1 : 0.5 : 1"
       inkscape:vp_y="0 : 1000 : 0"
       inkscape:vp_x="0 : 0.5 : 1"
       sodipodi:type="inkscape:persp3d" /><inkscape:perspective
       id="perspective2827"
       inkscape:persp3d-origin="0.5 : 0.33333333 : 1"
       inkscape:vp_z="1 : 0.5 : 1"
       inkscape:vp_y="0 : 1000 : 0"
       inkscape:vp_x="0 : 0.5 : 1"
       sodipodi:type="inkscape:persp3d" /><inkscape:perspective
       id="perspective2828-7"
       inkscape:persp3d-origin="0.5 : 0.33333333 : 1"
       inkscape:vp_z="1 : 0.5 : 1"
       inkscape:vp_y="0 : 1000 : 0"
       inkscape:vp_x="0 : 0.5 : 1"
       sodipodi:type="inkscape:persp3d" /><inkscape:perspective
       id="perspective3826"
       inkscape:persp3d-origin="0.5 : 0.33333333 : 1"
       inkscape:vp_z="1 : 0.5 : 1"
       inkscape:vp_y="0 : 1000 : 0"
       inkscape:vp_x="0 : 0.5 : 1"
       sodipodi:type="inkscape:persp3d" /><inkscape:perspective
       id="perspective3880"
       inkscape:persp3d-origin="0.5 : 0.33333333 : 1"
       inkscape:vp_z="1 : 0.5 : 1"
       inkscape:vp_y="0 : 1000 : 0"
       inkscape:vp_x="0 : 0.5 : 1"
       sodipodi:type="inkscape:persp3d" /><inkscape:perspective
       id="perspective3900"
       inkscape:persp3d-origin="0.5 : 0.33333333 : 1"
       inkscape:vp_z="1 : 0.5 : 1"
       inkscape:vp_y="0 : 1000 : 0"
       inkscape:vp_x="0 : 0.5 : 1"
       sodipodi:type="inkscape:persp3d" /><inkscape:perspective
       id="perspective3900-6"
       inkscape:persp3d-origin="0.5 : 0.33333333 : 1"
       inkscape:vp_z="1 : 0.5 : 1"
       inkscape:vp_y="0 : 1000 : 0"
       inkscape:vp_x="0 : 0.5 : 1"
       sodipodi:type="inkscape:persp3d" /><inkscape:perspective
       id="perspective3900-5"
       inkscape:persp3d-origin="0.5 : 0.33333333 : 1"
       inkscape:vp_z="1 : 0.5 : 1"
       inkscape:vp_y="0 : 1000 : 0"
       inkscape:vp_x="0 : 0.5 : 1"
       sodipodi:type="inkscape:persp3d" /></defs><sodipodi:namedview
     pagecolor="#ffffff"
     bordercolor="#666666"
     borderopacity="1"
     objecttolerance="10"
     gridtolerance="10"
     guidetolerance="10"
     inkscape:pageopacity="0"
     inkscape:pageshadow="2"
     inkscape:window-width="1920"
     inkscape:window-height="974"
     id="namedview11"
     showgrid="false"
     inkscape:zoom="0.35355339"
     inkscape:cx="1285.5201"
     inkscape:cy="1097.4297"
     inkscape:window-x="-11"
     inkscape:window-y="-11"
     inkscape:window-maximized="1"
     inkscape:current-layer="layer2"
     showguides="false"
     inkscape:document-rotation="0"
     inkscape:snap-global="false"
     inkscape:showpageshadow="2"
     inkscape:pagecheckerboard="0"
     inkscape:deskcolor="#d1d1d1" /><metadata
     id="metadata12"><rdf:RDF><cc:Work
         rdf:about=""><dc:format>image/svg+xml</dc:format><dc:type
           rdf:resource="http://purl.org/dc/dcmitype/StillImage" /><dc:title /></cc:Work></rdf:RDF></metadata><g
     inkscape:groupmode="layer"
     id="layer1"
     inkscape:label="Queen"
     style="display:inline"><g
       id="g3932"
       style="stroke:#000000;stroke-opacity:1"
       transform="matrix(0.7339287,0,0,0.76385947,273.03425,-207.53463)"><g
         id="path3886"><path
           id="path1057"
           style="color:#000000;fill:#101010;stroke:none;stroke-width:86.812;stroke-linecap:round;stroke-linejoin:round;-inkscape-stroke:none"
           d="M 751.97951 624.81002 A 43.410339 43.410339 0 0 0 715.4786 660.13638 L 616.78831 1213.581 L 347.93077 1039.2018 A 43.410339 43.410339 0 0 0 287.08794 1097.9444 C 404.05396 1292.9694 509.6979 1368.5539 497.87828 1724.995 A 43.410339 43.410339 0 0 0 541.26102 1769.8408 C 784.23805 1769.8408 930.3036 1769.8845 1014.6338 1769.9405 C 1026.176 1769.9505 1028.4667 1769.9555 1037.7862 1769.9635 C 1037.7252 1769.9345 1038.7155 1770.0305 1038.8427 1770.0325 C 1043.2026 1770.1295 1050.5946 1770.1209 1061.532 1770.1374 C 1083.4067 1770.1704 1111.9297 1770.1751 1118.2207 1770.1041 C 1118.4173 1770.1041 1118.5979 1770.0933 1118.9073 1770.0913 C 1119.2167 1770.0813 1116.7265 1770.4721 1122.5984 1769.8663 C 1122.6184 1769.8663 1122.6332 1769.7641 1122.6542 1769.7538 C 1132.4195 1769.759 1157.7786 1769.7591 1168.1739 1769.7641 C 1171.6537 1764.7953 1175.0937 1759.7178 1178.4408 1754.4021 C 1180.815 1750.6316 1183.1536 1746.7746 1185.461 1742.8295 C 1192.3834 1730.9943 1199.0053 1718.3724 1205.3268 1704.9667 C 1209.5412 1696.0295 1213.6237 1686.7443 1217.571 1677.1091 C 1221.5183 1667.4739 1225.3312 1657.488 1229.0114 1647.1548 C 1230.8516 1641.9882 1232.6589 1636.7351 1234.4323 1631.394 C 1239.7524 1615.3706 1244.7727 1598.563 1249.492 1580.969 C 1251.0651 1575.1043 1252.6028 1569.1507 1254.1091 1563.1115 L 1279.0871 1644.3754 C 1278.9775 1648.9743 1278.7852 1653.5455 1278.5096 1658.0907 C 1277.9584 1667.1811 1277.0771 1676.1651 1275.8617 1685.0406 C 1274.6464 1693.9162 1273.0974 1702.6854 1271.2179 1711.3462 C 1266.8644 1731.4074 1260.6716 1750.8731 1252.7546 1769.782 C 1322.989 1769.807 1376.6826 1769.8382 1513.1948 1769.8382 A 43.410339 43.410339 0 0 0 1556.5243 1723.8623 C 1545.9957 1546.449 1570.8053 1443.4429 1607.1375 1358.1388 C 1643.4697 1272.8346 1694.8799 1202.9122 1735.7529 1100.3684 A 43.410339 43.410339 0 0 0 1670.6256 1048.6803 L 1436.1027 1212.0162 L 1330.1474 676.68475 A 43.410339 43.410339 0 0 0 1249.1753 664.85645 L 1021.5742 1096.2569 L 797.01486 648.30553 A 43.410339 43.410339 0 0 0 751.97951 624.81002 z " /></g><circle
         id="path3890"
         style="fill:#101010;fill-opacity:1;stroke:#000000;stroke-width:86.812;stroke-linecap:round;stroke-linejoin:miter;stroke-miterlimit:4;stroke-dasharray:none;stroke-opacity:1"
         cx="302.61768"
         cy="1019.2141"
         r="99.796608" /><circle
         id="path3890-9"
         style="fill:#101010;fill-opacity:1;stroke:#000000;stroke-width:86.812;stroke-linecap:round;stroke-linejoin:miter;stroke-miterlimit:4;stroke-dasharray:none;stroke-opacity:1"
         cx="740.85504"
         cy="659.07855"
         r="99.796608" /><circle
         id="path3890-1"
         style="fill:#101010;fill-opacity:1;stroke:#000000;stroke-width:86.812;stroke-linecap:round;stroke-linejoin:miter;stroke-miterlimit:4;stroke-dasharray:none;stroke-opacity:1"
         cx="1304.9226"
         cy="659.07855"
         r="99.796608" /><circle
         id="path3890-4"
         style="fill:#101010;fill-opacity:1;stroke:#000000;stroke-width:86.812;stroke-linecap:round;stroke-linejoin:miter;stroke-miterlimit:4;stroke-dasharray:none;stroke-opacity:1"
         cx="1738.821"
         cy="1014.8751"
         r="99.796608" /></g></g><g
     inkscape:groupmode="layer"
     id="layer2"
     inkscape:label="Knight"
     style="display:inline"><path
       id="path6-7"
       style="fill:#101010;fill-opacity:1;stroke-width:0.945466"
       d="M 1059.3477 408.3418 L 948.39258 551.01953 C 876.99435 597.34333 806.07792 641.65964 735.64453 683.96875 C 665.21115 726.27786 628.06444 759.47608 624.20508 783.56445 L 242.12695 1027.2285 L 253.70508 1302.3926 L 371.41602 1222.7148 L 420.62305 1269.0391 L 309.66602 1345.0098 L 519.03711 1457.1152 L 573.06836 1362.6133 C 604.14401 1308.2618 678.34666 1287.0405 795.5957 1298.8867 C 804.29031 1298.3994 836.9986 1296.3472 857.0957 1288.877 C 878.62214 1280.8753 918.66274 1253.7603 923.63086 1250.3828 C 939.90346 1238.0106 954.92501 1231.0372 968.65234 1229.6641 C 984.08979 1228.12 998.56264 1226.4214 1012.0703 1224.5684 C 1097.6195 1213.4507 1158.0836 1134.0813 1193.4609 986.46289 L 1211.793 1048.5371 C 1210.5066 1104.7435 1193.6214 1155.7002 1161.1387 1201.4062 C 1128.6556 1247.1125 1087.328 1273.3623 1037.1562 1280.1562 C 1025.5783 1282.0091 1014.804 1282.4734 1004.834 1281.5469 C 994.86436 1280.6204 983.12628 1284.7906 969.61914 1294.0547 C 969.60814 1294.0437 969.59694 1294.0344 969.58594 1294.0234 C 968.08227 1292.4547 966.53956 1290.924 964.9707 1289.418 L 969.36133 1294.1309 L 832.74414 1340.7676 C 823.92142 1353.8578 813.59155 1368.8535 801.73633 1385.7754 C 777.93691 1419.7462 747.08641 1434.0023 692.3125 1454.623 C 617.74929 1514.2969 558.10472 1543.5316 514.21289 1624.1504 C 474.8642 1696.4245 470.79494 1749.7281 476.58398 1859.6699 L 1631.4746 1859.2441 C 1613.3007 1802.0884 1610.9665 1777.7156 1605.1719 1697.6836 C 1600.2208 1629.3026 1603.5196 1611.194 1615.0977 1532.1348 C 1647.0954 1321.8632 1636.1576 1171.689 1569.2676 996.19141 C 1511.4201 844.4186 1371.9563 715.62266 1151.9727 609.38672 L 1059.3477 408.3418 z " /><g
       transform="matrix(0.96484282,0,0,0.92647788,-51.185537,201.42843)"
       id="g3337"><g
         style="fill:#000000"
         transform="matrix(1,0,0,-1,0,2048)"
         id="g4"><path
           style="fill:#ececec;fill-opacity:1"
           d="m 502,1134.6673 37,-31 -46,-55 -57,26 33,56 z"
           id="path989" /><path
           style="fill:#ececec;fill-opacity:1"
           d="m 1038,1329.6673 -212,2 116,100 c 20,16.6667 46.66667,3.8333 80,-38.5 33.3333,-42.3333 38.6667,-63.5 16,-63.5 z"
           id="path987" /></g></g><ellipse
       style="fill:#000000;stroke:none;stroke-width:94.325"
       id="path858"
       cx="637.71002"
       cy="806.3205"
       rx="34.711864"
       ry="35.796608" /></g><g
     id="g170"
     transform="matrix(1.0918205,0,0,0.86705551,-246.86014,284.95207)"
     style="display:inline"><path
       d="m 1601.305,1693.04 c -81.08,-89.747 -91.584,-156.541 -74.227,-472.05 20.379,-370.45 -8.752,-495.119 -150.558,-644.34 -28.348,-29.83 -47.813,-54.236 -43.256,-54.236 17.017,0 100.11,58.434 144.65,101.726 57.052,55.45 86.14,107.891 109.639,197.663 34.994,133.686 37.544,201.94 17.327,463.818 -19.99,258.96 -17.541,312.62 18.058,395.671 9.699,22.625 16.13,42.64 14.294,44.477 -1.837,1.837 -18.004,-12.89 -35.927,-32.729 z"
       fill="#ececec"
       id="path160"
       sodipodi:nodetypes="sssscscccs" /></g></svg>
