<?xml version="1.0" encoding="UTF-8" standalone="no"?>
<svg
   id="svg2"
   height="100%"
   width="100%"
   version="1.1"
   viewBox="0 0 2048 2048"
   inkscape:version="1.2.2 (732a01da63, 2022-12-09)"
   sodipodi:docname="bNN.svg"
   inkscape:export-filename="S:\Greg\Projects\Chess\CVP\Graphics\Alfaerie SVG\WNightrider.png"
   inkscape:export-xdpi="18.75"
   inkscape:export-ydpi="18.75"
   xml:space="preserve"
   xmlns:inkscape="http://www.inkscape.org/namespaces/inkscape"
   xmlns:sodipodi="http://sodipodi.sourceforge.net/DTD/sodipodi-0.dtd"
   xmlns="http://www.w3.org/2000/svg"
   xmlns:svg="http://www.w3.org/2000/svg"
   xmlns:rdf="http://www.w3.org/1999/02/22-rdf-syntax-ns#"
   xmlns:cc="http://creativecommons.org/ns#"
   xmlns:dc="http://purl.org/dc/elements/1.1/"><defs
     id="defs9" /><sodipodi:namedview
     pagecolor="#ffffff"
     bordercolor="#666666"
     borderopacity="1"
     objecttolerance="10"
     gridtolerance="10"
     guidetolerance="10"
     inkscape:pageopacity="0"
     inkscape:pageshadow="2"
     inkscape:window-width="1920"
     inkscape:window-height="974"
     id="namedview7"
     showgrid="false"
     inkscape:zoom="0.23046876"
     inkscape:cx="418.71185"
     inkscape:cy="607.4576"
     inkscape:window-x="-11"
     inkscape:window-y="-11"
     inkscape:window-maximized="1"
     inkscape:current-layer="svg2"
     inkscape:document-rotation="0"
     inkscape:showpageshadow="2"
     inkscape:pagecheckerboard="0"
     inkscape:deskcolor="#d1d1d1" /><metadata
     id="metadata12"><rdf:RDF><cc:Work
         rdf:about=""><dc:format>image/svg+xml</dc:format><dc:type
           rdf:resource="http://purl.org/dc/dcmitype/StillImage" /><dc:title /></cc:Work></rdf:RDF></metadata><g
     id="g256"><path
       d="m 502,868 -52,1 -26,64 69,21 46,-55 z m 536,-187 q 34,1 -16,-68 -50,-69 -80,-42 L 826,680 Z M 700,583 Q 706,544 815.5,475.5 925,407 1036,332 l 115,-154 96,217 q 342,172 432.5,417.5 90.5,245.5 47.5,603.5 -18,128 4.5,236 22.5,108 57.5,190 l -1242,1 q -9,-178 39,-301.5 48,-123.5 183,-237.5 50,-11 82.5,-39.5 Q 884,1236 905,1206 l 62.5,-1 138,-29 139,-97 66.5,-207 q 0,-17 -8.5,-34 -8.5,-17 -11.5,-37 -62,228 -161,288.5 -99,60.5 -191,58.5 -236,-42 -292,60 l -56,102 -217,-121 115,-82 -51,-50 -122,86 -12,-297 z m 981,1192 Q 1579,1645 1596,1466.5 1613,1288 1623,1104 1633,920 1573,752.5 1513,585 1257,477 q 220,164 252.5,342 32.5,178 16.5,350.5 -16,172.5 -12,329 4,156.5 167,276.5 z"
       fill="#101010"
       id="path244" /><path
       d="m 1601.305,1693.04 c -81.08,-89.747 -91.584,-156.541 -74.227,-472.05 20.379,-370.45 -8.752,-495.119 -150.558,-644.34 -28.348,-29.83 -47.813,-54.236 -43.256,-54.236 17.017,0 100.11,58.434 144.65,101.726 57.052,55.45 86.14,107.891 109.639,197.663 34.994,133.686 37.544,201.94 17.327,463.818 -19.99,258.96 -17.541,312.62 18.058,395.671 9.699,22.625 16.13,42.64 14.294,44.477 -1.837,1.837 -18.004,-12.89 -35.927,-32.729 z M 896.703,621.33 c 55.683,-53.268 60.422,-55.961 78.102,-44.378 26.068,17.078 76.403,84.066 70.43,93.73 -2.697,4.364 -50.558,7.805 -106.357,7.646 L 837.424,678.04 Z M 464.271,941.446 c -27.441,-6.6 -31.27,-14.684 -20.96,-44.258 7.683,-22.038 14.484,-27.656 33.481,-27.656 13.112,0 30.363,7.208 38.335,16.017 13.592,15.02 13.367,17.45 -3.624,39.05 -9.965,12.67 -20.764,22.582 -23.997,22.028 -3.233,-0.553 -13.689,-2.885 -23.235,-5.181 z"
       fill="#ececec"
       id="path246" /></g><path
     inkscape:connector-curvature="0"
     style="fill:none;stroke:#ececec;stroke-width:72.53494263;stroke-linecap:round;stroke-linejoin:miter;stroke-miterlimit:4;stroke-dasharray:none;stroke-opacity:1"
     d="m 1330.0636,1331.9259 c 486.9097,0 486.9097,0 486.9097,0"
     id="path2816-9" /><path
     inkscape:connector-curvature="0"
     style="fill:none;stroke:#ececec;stroke-width:73.42125702;stroke-linecap:round;stroke-linejoin:miter;stroke-miterlimit:4;stroke-dasharray:none;stroke-opacity:1"
     d="m 1330.8093,1492.4683 c 535.6429,0 535.6429,0 535.6429,0"
     id="path2816-4" /><path
     inkscape:connector-curvature="0"
     style="fill:none;stroke:#ececec;stroke-width:73.7804718;stroke-linecap:round;stroke-linejoin:miter;stroke-miterlimit:4;stroke-dasharray:none;stroke-opacity:1"
     d="m 1330.0726,1652.6716 c 585.414,0 585.414,0 585.414,0"
     id="path2816-0" /></svg>
