<?xml version="1.0" encoding="UTF-8" standalone="no"?>
<!-- Created with Inkscape (http://www.inkscape.org/) -->

<svg
   width="200"
   height="200"
   viewBox="-2 0 52.916665 52.916666"
   version="1.1"
   id="svg5"
   inkscape:version="1.2.2 (732a01da63, 2022-12-09)"
   sodipodi:docname="b+B.svg"
   xmlns:inkscape="http://www.inkscape.org/namespaces/inkscape"
   xmlns:sodipodi="http://sodipodi.sourceforge.net/DTD/sodipodi-0.dtd"
   xmlns="http://www.w3.org/2000/svg"
   xmlns:svg="http://www.w3.org/2000/svg">
  <sodipodi:namedview
     id="namedview7"
     pagecolor="#ffffff"
     bordercolor="#000000"
     borderopacity="0.25"
     inkscape:showpageshadow="2"
     inkscape:pageopacity="0.0"
     inkscape:pagecheckerboard="0"
     inkscape:deskcolor="#d1d1d1"
     inkscape:document-units="px"
     showgrid="false"
     inkscape:zoom="2.7652076"
     inkscape:cx="98.907583"
     inkscape:cy="83.176395"
     inkscape:window-width="1920"
     inkscape:window-height="974"
     inkscape:window-x="-11"
     inkscape:window-y="-11"
     inkscape:window-maximized="1"
     inkscape:current-layer="layer1" />
  <defs
     id="defs2">
    <filter
       style="color-interpolation-filters:sRGB"
       inkscape:label="Drop Shadow"
       id="filter4283"
       x="-0.094886842"
       y="-0.079634359"
       width="1.2413127"
       height="1.202251">
      <feFlood
         flood-opacity="0.498039"
         flood-color="rgb(0,0,0)"
         result="flood"
         id="feFlood4273" />
      <feComposite
         in="flood"
         in2="SourceGraphic"
         operator="in"
         result="composite1"
         id="feComposite4275" />
      <feGaussianBlur
         in="composite1"
         stdDeviation="1"
         result="blur"
         id="feGaussianBlur4277" />
      <feOffset
         dx="1.5"
         dy="1.5"
         result="offset"
         id="feOffset4279" />
      <feComposite
         in="SourceGraphic"
         in2="offset"
         operator="over"
         result="composite2"
         id="feComposite4281" />
    </filter>
    <filter
       style="color-interpolation-filters:sRGB;"
       inkscape:label="Drop Shadow"
       id="filter474"
       x="-0.094886842"
       y="-0.079634359"
       width="1.2413127"
       height="1.202251">
      <feFlood
         flood-opacity="0.498039"
         flood-color="rgb(0,0,0)"
         result="flood"
         id="feFlood464" />
      <feComposite
         in="flood"
         in2="SourceGraphic"
         operator="in"
         result="composite1"
         id="feComposite466" />
      <feGaussianBlur
         in="composite1"
         stdDeviation="1"
         result="blur"
         id="feGaussianBlur468" />
      <feOffset
         dx="1.5"
         dy="1.5"
         result="offset"
         id="feOffset470" />
      <feComposite
         in="SourceGraphic"
         in2="offset"
         operator="over"
         result="composite2"
         id="feComposite472" />
    </filter>
    <filter
       style="color-interpolation-filters:sRGB;"
       inkscape:label="Drop Shadow"
       id="filter9551"
       x="-0.14642585"
       y="-0.12324429"
       width="1.2413127"
       height="1.202251">
      <feFlood
         flood-opacity="0.498039"
         flood-color="rgb(0,0,0)"
         result="flood"
         id="feFlood9541" />
      <feComposite
         in="flood"
         in2="SourceGraphic"
         operator="in"
         result="composite1"
         id="feComposite9543" />
      <feGaussianBlur
         in="composite1"
         stdDeviation="1"
         result="blur"
         id="feGaussianBlur9545" />
      <feOffset
         dx="-1.5"
         dy="-1.5"
         result="offset"
         id="feOffset9547" />
      <feComposite
         in="SourceGraphic"
         in2="offset"
         operator="over"
         result="composite2"
         id="feComposite9549" />
    </filter>
  </defs>
  <g
     inkscape:label="Layer 1"
     inkscape:groupmode="layer"
     id="layer1">
    <path
       style="fill:#ffe1a8;fill-opacity:1;stroke:#99673c;stroke-width:0.635;stroke-linecap:square;stroke-dasharray:none;stroke-opacity:1;stop-color:#000000;filter:url(#filter9551)"
       d="M 13.874917,13.229167 9.9061668,43.65625 H 39.010334 L 35.041584,13.229167 24.45825,9.2604167 Z"
       id="path236"
       sodipodi:nodetypes="cccccc"
       transform="matrix(-1.1025,0,0,-1.1025,51.346596,55.552878)" />
    <g
       aria-label="馬"
       id="text495"
       style="font-weight:500;font-size:20.4191px;font-family:'Noto Sans JP';-inkscape-font-specification:'Noto Sans JP Medium';fill:#dc0000;stroke-width:0.700087;stroke-linecap:square;stop-color:#000000"
       transform="rotate(180,24.381375,26.382565)">
      <path
         d="m 30.613003,34.314398 q -0.816764,0.08168 -1.59269,0.06126 -1.245565,-0.04084 -1.184308,-0.89844 0.06126,-0.857602 0.347125,-0.816764 0.285867,0.02042 1.511013,0.02042 0.46964,0 0.714669,-0.245029 0.245029,-0.245029 0.428801,-1.265984 0.183772,-1.020955 0.347125,-3.144542 0,-0.102095 -0.102096,-0.102095 H 18.688249 q -1.225146,0 -1.225146,-1.225146 v -8.943566 q 0,-1.225146 1.225146,-1.225146 h 11.883916 q 1.225146,0 1.225146,0.816764 0,0.837183 -1.225146,0.837183 h -4.982261 q -0.102095,0 -0.102095,0.102096 v 1.490594 q 0,0.102096 0.102095,0.102096 h 4.288011 q 1.225146,0 1.225146,0.755506 0,0.755507 -1.225146,0.755507 h -4.288011 q -0.102095,0 -0.102095,0.102095 v 1.470176 q 0,0.102095 0.102095,0.102095 h 4.288011 q 1.225146,0 1.225146,0.755507 0,0.755507 -1.225146,0.755507 h -4.288011 q -0.102095,0 -0.102095,0.102095 v 1.470175 q 0,0.102096 0.102095,0.102096 h 6.35034 q 1.245566,0 1.163889,1.245565 -0.183772,2.797416 -0.306286,3.593761 -0.102096,0.612573 -0.204191,1.225146 -0.163353,0.878022 -0.387963,1.102632 -0.204191,0.245029 -0.592154,0.694249 -0.08168,0.102096 -1.000536,0.204191 z M 17.095559,33.579311 q -0.91886,0.796344 -1.511013,0.142933 -0.571735,-0.67383 0.367543,-1.470175 0.571735,-0.510477 0.878022,-2.327777 0.204191,-1.225146 1.061793,-1.061794 0.857602,0.163353 0.612573,1.36808 -0.510478,2.572807 -1.408918,3.348733 z m 4.349268,-0.204191 q -0.857602,0.02042 -0.857602,-1.204727 0,-0.326706 -0.306287,-1.490595 -0.306286,-1.184307 0.46964,-1.408918 0.775926,-0.204191 1.143469,0.959698 0.306287,1.020955 0.347125,1.878557 0.06126,1.245565 -0.796345,1.265985 z m 3.940886,-0.592154 q -0.816764,0.142933 -1.000535,-1.082213 -0.04084,-0.306286 -0.408382,-1.143469 -0.46964,-1.123051 0.183771,-1.429337 0.673831,-0.306287 1.225146,0.775926 0.449221,0.878021 0.571735,1.531432 0.245029,1.204727 -0.571735,1.347661 z m 3.6346,-1.225146 q -0.735087,0.285867 -1.163889,-0.857603 -0.06126,-0.163352 -0.347124,-0.551315 -0.69425,-0.980117 -0.163353,-1.408918 0.551316,-0.428801 1.327241,0.510477 0.592154,0.69425 0.673831,0.898441 0.408382,1.143469 -0.326706,1.408918 z m -9.699072,-5.411062 q 0,0.102096 0.102095,0.102096 h 4.08382 q 0.102096,0 0.102096,-0.102096 v -1.470175 q 0,-0.102095 -0.102096,-0.102095 h -4.08382 q -0.102095,0 -0.102095,0.102095 z m 0,-3.185379 q 0,0.102095 0.102095,0.102095 h 4.08382 q 0.102096,0 0.102096,-0.102095 v -1.470176 q 0,-0.102095 -0.102096,-0.102095 h -4.08382 q -0.102095,0 -0.102095,0.102095 z m 0,-3.18538 q 0,0.102096 0.102095,0.102096 h 4.08382 q 0.102096,0 0.102096,-0.102096 v -1.490594 q 0,-0.102096 -0.102096,-0.102096 h -4.08382 q -0.102095,0 -0.102095,0.102096 z"
         style="font-family:'Resource Han Rounded JP';-inkscape-font-specification:'Resource Han Rounded JP Medium'"
         id="path7480" />
    </g>
  </g>
</svg>
