<?xml version="1.0" encoding="UTF-8" standalone="no"?>
<!-- Created with Inkscape (http://www.inkscape.org/) -->

<svg
   width="200"
   height="200"
   viewBox="-2 0 52.916665 52.916666"
   version="1.1"
   id="svg5"
   inkscape:version="1.2.2 (732a01da63, 2022-12-09)"
   sodipodi:docname="wL.svg"
   xmlns:inkscape="http://www.inkscape.org/namespaces/inkscape"
   xmlns:sodipodi="http://sodipodi.sourceforge.net/DTD/sodipodi-0.dtd"
   xmlns="http://www.w3.org/2000/svg"
   xmlns:svg="http://www.w3.org/2000/svg">
  <sodipodi:namedview
     id="namedview7"
     pagecolor="#ffffff"
     bordercolor="#000000"
     borderopacity="0.25"
     inkscape:showpageshadow="2"
     inkscape:pageopacity="0.0"
     inkscape:pagecheckerboard="0"
     inkscape:deskcolor="#d1d1d1"
     inkscape:document-units="px"
     showgrid="false"
     inkscape:zoom="2.7652076"
     inkscape:cx="103.24722"
     inkscape:cy="83.176395"
     inkscape:window-width="1920"
     inkscape:window-height="974"
     inkscape:window-x="-11"
     inkscape:window-y="-11"
     inkscape:window-maximized="1"
     inkscape:current-layer="layer1" />
  <defs
     id="defs2">
    <filter
       style="color-interpolation-filters:sRGB"
       inkscape:label="Drop Shadow"
       id="filter4283"
       x="-0.094886842"
       y="-0.079634359"
       width="1.2413127"
       height="1.202251">
      <feFlood
         flood-opacity="0.498039"
         flood-color="rgb(0,0,0)"
         result="flood"
         id="feFlood4273" />
      <feComposite
         in="flood"
         in2="SourceGraphic"
         operator="in"
         result="composite1"
         id="feComposite4275" />
      <feGaussianBlur
         in="composite1"
         stdDeviation="1"
         result="blur"
         id="feGaussianBlur4277" />
      <feOffset
         dx="1.5"
         dy="1.5"
         result="offset"
         id="feOffset4279" />
      <feComposite
         in="SourceGraphic"
         in2="offset"
         operator="over"
         result="composite2"
         id="feComposite4281" />
    </filter>
    <filter
       style="color-interpolation-filters:sRGB;"
       inkscape:label="Drop Shadow"
       id="filter474"
       x="-0.094886842"
       y="-0.079634359"
       width="1.2413127"
       height="1.202251">
      <feFlood
         flood-opacity="0.498039"
         flood-color="rgb(0,0,0)"
         result="flood"
         id="feFlood464" />
      <feComposite
         in="flood"
         in2="SourceGraphic"
         operator="in"
         result="composite1"
         id="feComposite466" />
      <feGaussianBlur
         in="composite1"
         stdDeviation="1"
         result="blur"
         id="feGaussianBlur468" />
      <feOffset
         dx="1.5"
         dy="1.5"
         result="offset"
         id="feOffset470" />
      <feComposite
         in="SourceGraphic"
         in2="offset"
         operator="over"
         result="composite2"
         id="feComposite472" />
    </filter>
    <filter
       style="color-interpolation-filters:sRGB;"
       inkscape:label="Drop Shadow"
       id="filter11527"
       x="-0.14642585"
       y="-0.12324429"
       width="1.2413127"
       height="1.202251">
      <feFlood
         flood-opacity="0.498039"
         flood-color="rgb(0,0,0)"
         result="flood"
         id="feFlood11517" />
      <feComposite
         in="flood"
         in2="SourceGraphic"
         operator="in"
         result="composite1"
         id="feComposite11519" />
      <feGaussianBlur
         in="composite1"
         stdDeviation="1"
         result="blur"
         id="feGaussianBlur11521" />
      <feOffset
         dx="-1.5"
         dy="-1.5"
         result="offset"
         id="feOffset11523" />
      <feComposite
         in="SourceGraphic"
         in2="offset"
         operator="over"
         result="composite2"
         id="feComposite11525" />
    </filter>
  </defs>
  <g
     inkscape:label="Layer 1"
     inkscape:groupmode="layer"
     id="layer1">
    <path
       style="fill:#ffe1a8;fill-opacity:1;stroke:#99673c;stroke-width:0.635;stroke-linecap:square;stroke-dasharray:none;stroke-opacity:1;stop-color:#000000;filter:url(#filter11527)"
       d="M 13.874917,13.229167 9.9061668,43.65625 H 39.010334 L 35.041584,13.229167 24.45825,9.2604167 Z"
       id="path236"
       sodipodi:nodetypes="cccccc"
       transform="matrix(-1.05,0,0,-1.05,50.101913,54.202623)" />
    <g
       aria-label="香"
       id="text495"
       style="font-weight:500;font-size:19.4468px;font-family:'Noto Sans JP';-inkscape-font-specification:'Noto Sans JP Medium';stroke-width:0.66675;stroke-linecap:square;stop-color:#000000"
       transform="rotate(180,24.42075,26.421373)">
      <path
         d="m 20.165541,25.555039 q -1.439063,0.85566 -2.819786,1.516851 -1.089021,0.505617 -1.380723,-0.330596 -0.311148,-0.836212 0.680639,-1.341829 3.714338,-1.94468 4.8617,-3.092041 0.07779,-0.07779 -0.01945,-0.07779 h -4.531105 q -1.166808,0 -1.166808,-0.816766 0,-0.816766 1.166808,-0.816766 h 6.359104 q 0.09723,0 0.09723,-0.09723 v -1.536297 q 0,-0.09723 -0.09723,-0.09723 -2.703105,0.252809 -4.511658,0.311149 -1.166808,0.03889 -1.205701,-0.719532 -0.01945,-0.758425 1.147361,-0.816765 6.86472,-0.311149 10.092889,-1.166808 1.127915,-0.311149 1.341829,0.525063 0.233362,0.85566 -0.913999,1.127915 -0.622298,0.155574 -3.850467,0.54451 -0.136127,0.01945 -0.136127,0.155575 v 1.672424 q 0,0.09723 0.09723,0.09723 h 6.37855 q 1.166808,0 1.166808,0.816766 0,0.816766 -1.166808,0.816766 h -4.550551 q -0.09723,0 -0.01945,0.05834 1.205702,1.089021 2.897573,2.061361 1.691872,0.952893 1.905787,1.03068 1.127914,0.369489 0.816765,1.186255 -0.291702,0.836212 -1.380722,0.42783 -0.194468,-0.07779 -0.661192,-0.330596 -0.447276,-0.272255 -1.925233,-1.069574 -1.45851,-0.816766 -3.500424,-2.994807 -0.05834,-0.07779 -0.05834,0.01945 v 2.100254 q 0,1.166808 -0.933447,1.166808 -0.933446,0 -0.933446,-1.166808 v -2.139148 q 0,-0.09723 -0.05834,-0.01945 -1.750212,2.139148 -3.189276,2.994807 z m 0.233362,6.320211 q 0,0.09723 0.09723,0.09723 h 7.934294 q 0.09723,0 0.09723,-0.09723 v -1.283489 q 0,-0.09723 -0.09723,-0.09723 h -7.934294 q -0.09723,0 -0.09723,0.09723 z m 0,-2.761446 q 0,0.09723 0.09723,0.09723 h 7.934294 q 0.09723,0 0.09723,-0.09723 v -1.244595 q 0,-0.09723 -0.09723,-0.09723 h -7.934294 q -0.09723,0 -0.09723,0.09723 z m -1.789106,-1.594638 q 0,-1.166808 1.166808,-1.166808 h 9.451145 q 1.166808,0 1.166808,1.166808 v 5.328424 q 0,1.166808 -0.933446,1.166808 -0.933447,0 -0.933447,-0.525064 0,-0.09723 -0.09723,-0.09723 h -7.934294 q -0.09723,0 -0.09723,0.09723 0,0.54451 -0.894553,0.54451 -0.894553,0 -0.894553,-1.166808 z"
         style="font-family:'Resource Han Rounded JP';-inkscape-font-specification:'Resource Han Rounded JP Medium'"
         id="path1043" />
    </g>
  </g>
</svg>
