<?xml version="1.0" encoding="UTF-8" standalone="no"?>
<!-- Created with Inkscape (http://www.inkscape.org/) -->

<svg
   width="200"
   height="200"
   viewBox="-2 0 52.916665 52.916666"
   version="1.1"
   id="svg5"
   inkscape:version="1.2.2 (732a01da63, 2022-12-09)"
   sodipodi:docname="w+O.svg"
   xmlns:inkscape="http://www.inkscape.org/namespaces/inkscape"
   xmlns:sodipodi="http://sodipodi.sourceforge.net/DTD/sodipodi-0.dtd"
   xmlns="http://www.w3.org/2000/svg"
   xmlns:svg="http://www.w3.org/2000/svg">
  <sodipodi:namedview
     id="namedview7"
     pagecolor="#ffffff"
     bordercolor="#000000"
     borderopacity="0.25"
     inkscape:showpageshadow="2"
     inkscape:pageopacity="0.0"
     inkscape:pagecheckerboard="0"
     inkscape:deskcolor="#d1d1d1"
     inkscape:document-units="px"
     showgrid="false"
     inkscape:zoom="2.7652076"
     inkscape:cx="97.461037"
     inkscape:cy="83.176395"
     inkscape:window-width="1920"
     inkscape:window-height="974"
     inkscape:window-x="-11"
     inkscape:window-y="-11"
     inkscape:window-maximized="1"
     inkscape:current-layer="layer1" />
  <defs
     id="defs2">
    <filter
       style="color-interpolation-filters:sRGB"
       inkscape:label="Drop Shadow"
       id="filter4283"
       x="-0.094886842"
       y="-0.079634359"
       width="1.2413127"
       height="1.202251">
      <feFlood
         flood-opacity="0.498039"
         flood-color="rgb(0,0,0)"
         result="flood"
         id="feFlood4273" />
      <feComposite
         in="flood"
         in2="SourceGraphic"
         operator="in"
         result="composite1"
         id="feComposite4275" />
      <feGaussianBlur
         in="composite1"
         stdDeviation="1"
         result="blur"
         id="feGaussianBlur4277" />
      <feOffset
         dx="1.5"
         dy="1.5"
         result="offset"
         id="feOffset4279" />
      <feComposite
         in="SourceGraphic"
         in2="offset"
         operator="over"
         result="composite2"
         id="feComposite4281" />
    </filter>
    <filter
       style="color-interpolation-filters:sRGB;"
       inkscape:label="Drop Shadow"
       id="filter474"
       x="-0.094886842"
       y="-0.079634359"
       width="1.2413127"
       height="1.202251">
      <feFlood
         flood-opacity="0.498039"
         flood-color="rgb(0,0,0)"
         result="flood"
         id="feFlood464" />
      <feComposite
         in="flood"
         in2="SourceGraphic"
         operator="in"
         result="composite1"
         id="feComposite466" />
      <feGaussianBlur
         in="composite1"
         stdDeviation="1"
         result="blur"
         id="feGaussianBlur468" />
      <feOffset
         dx="1.5"
         dy="1.5"
         result="offset"
         id="feOffset470" />
      <feComposite
         in="SourceGraphic"
         in2="offset"
         operator="over"
         result="composite2"
         id="feComposite472" />
    </filter>
  </defs>
  <g
     inkscape:label="Layer 1"
     inkscape:groupmode="layer"
     id="layer1">
    <path
       style="fill:#ffe1a8;fill-opacity:1;stroke:#99673c;stroke-width:0.63500001;stroke-linecap:square;stroke-dasharray:none;stroke-opacity:1;stop-color:#000000;filter:url(#filter474)"
       d="M 13.874917,13.229167 9.9061668,43.65625 H 39.010334 L 35.041584,13.229167 24.45825,9.2604167 Z"
       id="path236"
       sodipodi:nodetypes="cccccc" />
    <g
       aria-label="士"
       id="text495"
       style="font-weight:500;font-size:18.5208px;font-family:'Noto Sans JP';-inkscape-font-specification:'Noto Sans JP Medium';stroke-width:0.635;stroke-linecap:square;stop-color:#000000">
      <path
         d="m 19.863289,32.78227 c -0.740832,0 -1.111248,-0.290159 -1.111248,-0.870478 0,-0.567971 0.370416,-0.851956 1.111248,-0.851956 h 3.4872 c 0.06173,0 0.0926,-0.03087 0.0926,-0.0926 v -6.778613 c 0,-0.06173 -0.03087,-0.0926 -0.0926,-0.0926 h -4.505844 c -0.740831,0 -1.111247,-0.283986 -1.111247,-0.851957 0,-0.567971 0.370416,-0.851957 1.111247,-0.851957 h 4.505844 c 0.06173,0 0.0926,-0.03087 0.0926,-0.0926 v -4.444992 c 0,-0.740832 0.30868,-1.111248 0.92604,-1.111248 0.605013,0 0.907519,0.370416 0.907519,1.111248 v 4.444992 c 0,0.06173 0.03087,0.0926 0.0926,0.0926 h 4.616968 c 0.740832,0 1.111248,0.283986 1.111248,0.851957 0,0.567971 -0.370416,0.851957 -1.111248,0.851957 h -4.616968 c -0.06173,0 -0.0926,0.03087 -0.0926,0.0926 v 6.778613 c 0,0.06173 0.03087,0.0926 0.0926,0.0926 h 3.635365 c 0.740832,0 1.111248,0.283985 1.111248,0.851956 0,0.580319 -0.370416,0.870478 -1.111248,0.870478 z"
         style="font-family:'Resource Han Rounded JP';-inkscape-font-specification:'Resource Han Rounded JP Medium';fill:#dc0000"
         id="path710"
         sodipodi:nodetypes="ssssssssssssssssssssssssssss" />
    </g>
  </g>
</svg>
