<?xml version="1.0" encoding="UTF-8" standalone="no"?>
<!-- Created with Inkscape (http://www.inkscape.org/) -->

<svg
   width="200"
   height="200"
   viewBox="-2 0 52.916665 52.916666"
   version="1.1"
   id="svg5"
   inkscape:version="1.2.2 (732a01da63, 2022-12-09)"
   sodipodi:docname="wC.svg"
   xmlns:inkscape="http://www.inkscape.org/namespaces/inkscape"
   xmlns:sodipodi="http://sodipodi.sourceforge.net/DTD/sodipodi-0.dtd"
   xmlns="http://www.w3.org/2000/svg"
   xmlns:svg="http://www.w3.org/2000/svg">
  <sodipodi:namedview
     id="namedview7"
     pagecolor="#ffffff"
     bordercolor="#000000"
     borderopacity="0.25"
     inkscape:showpageshadow="2"
     inkscape:pageopacity="0.0"
     inkscape:pagecheckerboard="0"
     inkscape:deskcolor="#d1d1d1"
     inkscape:document-units="px"
     showgrid="false"
     inkscape:zoom="2.7652076"
     inkscape:cx="102.52395"
     inkscape:cy="83.176395"
     inkscape:window-width="1920"
     inkscape:window-height="974"
     inkscape:window-x="-11"
     inkscape:window-y="-11"
     inkscape:window-maximized="1"
     inkscape:current-layer="layer1" />
  <defs
     id="defs2">
    <filter
       style="color-interpolation-filters:sRGB"
       inkscape:label="Drop Shadow"
       id="filter4283"
       x="-0.094886842"
       y="-0.079634359"
       width="1.2413127"
       height="1.202251">
      <feFlood
         flood-opacity="0.498039"
         flood-color="rgb(0,0,0)"
         result="flood"
         id="feFlood4273" />
      <feComposite
         in="flood"
         in2="SourceGraphic"
         operator="in"
         result="composite1"
         id="feComposite4275" />
      <feGaussianBlur
         in="composite1"
         stdDeviation="1"
         result="blur"
         id="feGaussianBlur4277" />
      <feOffset
         dx="1.5"
         dy="1.5"
         result="offset"
         id="feOffset4279" />
      <feComposite
         in="SourceGraphic"
         in2="offset"
         operator="over"
         result="composite2"
         id="feComposite4281" />
    </filter>
    <filter
       style="color-interpolation-filters:sRGB;"
       inkscape:label="Drop Shadow"
       id="filter474"
       x="-0.094886842"
       y="-0.079634359"
       width="1.2413127"
       height="1.202251">
      <feFlood
         flood-opacity="0.498039"
         flood-color="rgb(0,0,0)"
         result="flood"
         id="feFlood464" />
      <feComposite
         in="flood"
         in2="SourceGraphic"
         operator="in"
         result="composite1"
         id="feComposite466" />
      <feGaussianBlur
         in="composite1"
         stdDeviation="1"
         result="blur"
         id="feGaussianBlur468" />
      <feOffset
         dx="1.5"
         dy="1.5"
         result="offset"
         id="feOffset470" />
      <feComposite
         in="SourceGraphic"
         in2="offset"
         operator="over"
         result="composite2"
         id="feComposite472" />
    </filter>
  </defs>
  <g
     inkscape:label="Layer 1"
     inkscape:groupmode="layer"
     id="layer1">
    <path
       style="fill:#ffe1a8;fill-opacity:1;stroke:#99673c;stroke-width:0.635;stroke-linecap:square;stroke-dasharray:none;stroke-opacity:1;filter:url(#filter474);stop-color:#000000"
       d="M 13.874917,13.229167 9.9061668,43.65625 H 39.010334 L 35.041584,13.229167 24.45825,9.2604167 Z"
       id="path236"
       sodipodi:nodetypes="cccccc"
       transform="matrix(1.05,0,0,1.05,-1.2604126,-1.3598769)" />
    <g
       aria-label="è»"
       id="text495"
       style="font-weight:500;font-size:19.4468px;font-family:'Noto Sans JP';-inkscape-font-specification:'Noto Sans JP Medium';stroke-width:0.66675;stroke-linecap:square;stop-color:#000000">
      <path
         d="m 24.327157,34.072738 q -0.894553,0 -0.894553,-1.166808 v -0.991787 q 0,-0.09723 -0.09723,-0.09723 h -6.222976 q -1.166808,0 -1.166808,-0.836212 0,-0.816766 1.166808,-0.816766 h 6.222976 q 0.09723,0 0.09723,-0.09723 v -1.03068 q 0,-0.09723 -0.09723,-0.09723 h -4.181062 q -1.166808,0 -1.166808,-1.166808 v -4.219956 q 0,-1.166808 1.166808,-1.166808 h 4.181062 q 0.09723,0 0.09723,-0.09723 v -0.933446 q 0,-0.09723 -0.09723,-0.09723 h -3.383743 q -1.166808,0 -1.166808,-0.680638 0,-0.680638 1.166808,-0.680638 h 3.383743 q 0.09723,0 0.09723,-0.09723 v -1.050128 q 0,-0.09723 -0.09723,-0.09723 h -5.28953 q -0.09723,0 -0.09723,0.09723 v 1.147362 q 0,1.166808 -0.875106,1.166808 -0.875106,0 -0.875106,-1.166808 v -1.614085 q 0,-1.166808 1.166808,-1.166808 h 14.021143 q 1.166808,0 1.166808,1.166808 v 1.614085 q 0,1.166808 -0.894553,1.166808 -0.913999,0 -0.913999,-1.166808 v -1.147362 q 0,-0.09723 -0.09723,-0.09723 h -5.328424 q -0.09723,0 -0.09723,0.09723 v 1.050128 q 0,0.09723 0.09723,0.09723 h 3.383744 q 1.166808,0 1.166808,0.680638 0,0.680638 -1.166808,0.680638 h -3.383744 q -0.09723,0 -0.09723,0.09723 v 0.933446 q 0,0.09723 0.09723,0.09723 h 4.472764 q 1.166808,0 1.166808,1.166808 v 4.219956 q 0,1.166808 -1.166808,1.166808 h -4.472764 q -0.09723,0 -0.09723,0.09723 v 1.03068 q 0,0.09723 0.09723,0.09723 h 6.359104 q 1.166808,0 1.166808,0.816766 0,0.836212 -1.166808,0.836212 h -6.359104 q -0.09723,0 -0.09723,0.09723 v 0.991787 q 0,1.166808 -0.894552,1.166808 z m -4.628339,-6.553572 q 0,0.09723 0.09723,0.09723 h 3.539318 q 0.09723,0 0.09723,-0.09723 v -1.166808 q 0,-0.09723 -0.09723,-0.09723 h -3.539318 q -0.09723,0 -0.09723,0.09723 z m 5.522891,0 q 0,0.09723 0.09723,0.09723 h 3.753233 q 0.09723,0 0.09723,-0.09723 v -1.166808 q 0,-0.09723 -0.09723,-0.09723 h -3.753233 q -0.09723,0 -0.09723,0.09723 z m -5.522891,-2.566977 q 0,0.09723 0.09723,0.09723 h 3.539318 q 0.09723,0 0.09723,-0.09723 v -1.166808 q 0,-0.09723 -0.09723,-0.09723 h -3.539318 q -0.09723,0 -0.09723,0.09723 z m 5.522891,0 q 0,0.09723 0.09723,0.09723 h 3.753233 q 0.09723,0 0.09723,-0.09723 v -1.166808 q 0,-0.09723 -0.09723,-0.09723 h -3.753233 q -0.09723,0 -0.09723,0.09723 z"
         style="font-family:'Resource Han Rounded JP';-inkscape-font-specification:'Resource Han Rounded JP Medium'"
         id="path1539" />
    </g>
  </g>
</svg>
