<?xml version="1.0" encoding="UTF-8" standalone="no"?>
<!-- Created with Inkscape (http://www.inkscape.org/) -->

<svg
   width="200"
   height="200"
   viewBox="-2 0 52.916665 52.916666"
   version="1.1"
   id="svg5"
   inkscape:version="1.2.2 (732a01da63, 2022-12-09)"
   sodipodi:docname="wK.svg"
   xmlns:inkscape="http://www.inkscape.org/namespaces/inkscape"
   xmlns:sodipodi="http://sodipodi.sourceforge.net/DTD/sodipodi-0.dtd"
   xmlns="http://www.w3.org/2000/svg"
   xmlns:svg="http://www.w3.org/2000/svg">
  <sodipodi:namedview
     id="namedview7"
     pagecolor="#ffffff"
     bordercolor="#000000"
     borderopacity="0.25"
     inkscape:showpageshadow="2"
     inkscape:pageopacity="0.0"
     inkscape:pagecheckerboard="0"
     inkscape:deskcolor="#d1d1d1"
     inkscape:document-units="px"
     showgrid="false"
     inkscape:zoom="2.7652076"
     inkscape:cx="103.24722"
     inkscape:cy="83.176395"
     inkscape:window-width="1920"
     inkscape:window-height="974"
     inkscape:window-x="-11"
     inkscape:window-y="-11"
     inkscape:window-maximized="1"
     inkscape:current-layer="layer1" />
  <defs
     id="defs2">
    <filter
       style="color-interpolation-filters:sRGB"
       inkscape:label="Drop Shadow"
       id="filter4283"
       x="-0.094886842"
       y="-0.079634359"
       width="1.2413127"
       height="1.202251">
      <feFlood
         flood-opacity="0.498039"
         flood-color="rgb(0,0,0)"
         result="flood"
         id="feFlood4273" />
      <feComposite
         in="flood"
         in2="SourceGraphic"
         operator="in"
         result="composite1"
         id="feComposite4275" />
      <feGaussianBlur
         in="composite1"
         stdDeviation="1"
         result="blur"
         id="feGaussianBlur4277" />
      <feOffset
         dx="1.5"
         dy="1.5"
         result="offset"
         id="feOffset4279" />
      <feComposite
         in="SourceGraphic"
         in2="offset"
         operator="over"
         result="composite2"
         id="feComposite4281" />
    </filter>
    <filter
       style="color-interpolation-filters:sRGB;"
       inkscape:label="Drop Shadow"
       id="filter474"
       x="-0.094886842"
       y="-0.079634359"
       width="1.2413127"
       height="1.202251">
      <feFlood
         flood-opacity="0.498039"
         flood-color="rgb(0,0,0)"
         result="flood"
         id="feFlood464" />
      <feComposite
         in="flood"
         in2="SourceGraphic"
         operator="in"
         result="composite1"
         id="feComposite466" />
      <feGaussianBlur
         in="composite1"
         stdDeviation="1"
         result="blur"
         id="feGaussianBlur468" />
      <feOffset
         dx="1.5"
         dy="1.5"
         result="offset"
         id="feOffset470" />
      <feComposite
         in="SourceGraphic"
         in2="offset"
         operator="over"
         result="composite2"
         id="feComposite472" />
    </filter>
  </defs>
  <g
     inkscape:label="Layer 1"
     inkscape:groupmode="layer"
     id="layer1">
    <path
       style="fill:#ffe1a8;fill-opacity:1;stroke:#99673c;stroke-width:0.635;stroke-linecap:square;stroke-dasharray:none;stroke-opacity:1;filter:url(#filter474);stop-color:#000000"
       d="M 13.874917,13.229167 9.9061668,43.65625 H 39.010334 L 35.041584,13.229167 24.45825,9.2604167 Z"
       id="path236"
       sodipodi:nodetypes="cccccc"
       transform="matrix(1.157625,0,0,1.157625,-3.9734506,-4.287012)" />
    <g
       aria-label="玉"
       id="text495"
       style="font-weight:500;font-size:21.4401px;font-family:'Noto Sans JP';-inkscape-font-specification:'Noto Sans JP Medium';stroke-width:0.735091;stroke-linecap:square;stop-color:#000000">
      <path
         d="m 16.003848,34.449009 q -1.286406,0 -1.286406,-0.964804 0,-0.964805 1.286406,-0.964805 H 22.929 q 0.107201,0 0.107201,-0.1072 v -6.153309 q 0,-0.1072 -0.107201,-0.1072 h -4.974103 q -1.286406,0 -1.286406,-0.986245 0,-0.964804 1.286406,-0.964804 H 22.929 q 0.107201,0 0.107201,-0.107201 v -5.102743 q 0,-0.107201 -0.107201,-0.107201 h -5.938907 q -1.286406,0 -1.286406,-0.986245 0,-0.964804 1.286406,-0.964804 H 31.56936 q 1.286406,0 1.286406,0.964804 0,0.986245 -1.286406,0.986245 h -6.260509 q -0.1072,0 -0.1072,0.107201 v 5.102743 q 0,0.107201 0.1072,0.107201 h 5.381465 q 1.286406,0 1.286406,0.964804 0,0.986245 -1.286406,0.986245 h -5.381465 q -0.1072,0 -0.1072,0.1072 V 32.4122 q 0,0.1072 0.1072,0.1072 h 7.268194 q 1.286406,0 1.286406,0.964805 0,0.964804 -1.286406,0.964804 z M 31.3764,31.254435 q -0.771844,0.643203 -1.136326,0.19296 -0.343041,-0.450242 -3.044494,-3.151694 -0.257281,-0.257281 0.385922,-0.900484 0.621763,-0.664643 1.029125,-0.300162 2.722892,2.594252 3.130254,3.065935 0.407362,0.471682 -0.364481,1.093445 z"
         style="font-family:'Resource Han Rounded JP';-inkscape-font-specification:'Resource Han Rounded JP Medium'"
         id="path321" />
    </g>
  </g>
</svg>
