<?xml version="1.0" encoding="UTF-8" standalone="no"?>
<!-- Created with Inkscape (http://www.inkscape.org/) -->

<svg
   width="200"
   height="200"
   viewBox="-2 0 52.916665 52.916666"
   version="1.1"
   id="svg5"
   inkscape:version="1.2.2 (732a01da63, 2022-12-09)"
   sodipodi:docname="wM.svg"
   xmlns:inkscape="http://www.inkscape.org/namespaces/inkscape"
   xmlns:sodipodi="http://sodipodi.sourceforge.net/DTD/sodipodi-0.dtd"
   xmlns="http://www.w3.org/2000/svg"
   xmlns:svg="http://www.w3.org/2000/svg">
  <sodipodi:namedview
     id="namedview7"
     pagecolor="#ffffff"
     bordercolor="#000000"
     borderopacity="0.25"
     inkscape:showpageshadow="2"
     inkscape:pageopacity="0.0"
     inkscape:pagecheckerboard="0"
     inkscape:deskcolor="#d1d1d1"
     inkscape:document-units="px"
     showgrid="false"
     inkscape:zoom="2.7652076"
     inkscape:cx="102.16231"
     inkscape:cy="83.176395"
     inkscape:window-width="1920"
     inkscape:window-height="974"
     inkscape:window-x="-11"
     inkscape:window-y="-11"
     inkscape:window-maximized="1"
     inkscape:current-layer="layer1" />
  <defs
     id="defs2">
    <filter
       style="color-interpolation-filters:sRGB"
       inkscape:label="Drop Shadow"
       id="filter4283"
       x="-0.094886842"
       y="-0.079634359"
       width="1.2413127"
       height="1.202251">
      <feFlood
         flood-opacity="0.498039"
         flood-color="rgb(0,0,0)"
         result="flood"
         id="feFlood4273" />
      <feComposite
         in="flood"
         in2="SourceGraphic"
         operator="in"
         result="composite1"
         id="feComposite4275" />
      <feGaussianBlur
         in="composite1"
         stdDeviation="1"
         result="blur"
         id="feGaussianBlur4277" />
      <feOffset
         dx="1.5"
         dy="1.5"
         result="offset"
         id="feOffset4279" />
      <feComposite
         in="SourceGraphic"
         in2="offset"
         operator="over"
         result="composite2"
         id="feComposite4281" />
    </filter>
    <filter
       style="color-interpolation-filters:sRGB;"
       inkscape:label="Drop Shadow"
       id="filter474"
       x="-0.094886842"
       y="-0.079634359"
       width="1.2413127"
       height="1.202251">
      <feFlood
         flood-opacity="0.498039"
         flood-color="rgb(0,0,0)"
         result="flood"
         id="feFlood464" />
      <feComposite
         in="flood"
         in2="SourceGraphic"
         operator="in"
         result="composite1"
         id="feComposite466" />
      <feGaussianBlur
         in="composite1"
         stdDeviation="1"
         result="blur"
         id="feGaussianBlur468" />
      <feOffset
         dx="1.5"
         dy="1.5"
         result="offset"
         id="feOffset470" />
      <feComposite
         in="SourceGraphic"
         in2="offset"
         operator="over"
         result="composite2"
         id="feComposite472" />
    </filter>
  </defs>
  <g
     inkscape:label="Layer 1"
     inkscape:groupmode="layer"
     id="layer1">
    <path
       style="fill:#ffe1a8;fill-opacity:1;stroke:#99673c;stroke-width:0.635;stroke-linecap:square;stroke-dasharray:none;stroke-opacity:1;filter:url(#filter474);stop-color:#000000"
       d="M 13.874917,13.229167 9.9061668,43.65625 H 39.010334 L 35.041584,13.229167 24.45825,9.2604167 Z"
       id="path236"
       sodipodi:nodetypes="cccccc"
       transform="matrix(1.05,0,0,1.05,-1.2604126,-1.3598769)" />
    <g
       aria-label="僧"
       id="text495"
       style="font-weight:500;font-size:19.4468px;font-family:'Noto Sans JP';-inkscape-font-specification:'Noto Sans JP Medium';stroke-width:0.66675;stroke-linecap:square;stop-color:#000000">
      <path
         d="m 23.121455,34.014398 q -0.875106,0 -0.875106,-1.166808 v -5.075615 q 0,-1.166808 1.166808,-1.166808 h 7.35089 q 1.166808,0 1.166808,1.166808 v 5.017274 q 0,1.166808 -0.894552,1.166808 -0.914,0 -0.914,-0.525063 0,-0.09723 -0.09723,-0.09723 h -5.950721 q -0.09723,0 -0.09723,0.09723 0,0.583404 -0.855659,0.583404 z m -4.608892,-0.01945 q -0.855659,0 -0.855659,-1.166808 v -9.17889 q 0,-0.09723 -0.05834,-0.01945 -0.758425,1.030681 -1.069574,1.380723 -0.311149,0.330596 -1.030681,-0.369489 -0.719531,-0.700085 0.116681,-1.516851 0.738978,-0.719531 1.964127,-2.722552 1.225148,-2.00302 1.633531,-3.111488 0.408383,-1.08902 1.225149,-0.777872 0.836212,0.311149 0.427829,1.40017 -0.350042,0.914 -1.283489,2.586424 -0.213914,0.36949 -0.213914,0.797319 v 11.531953 q 0,1.166808 -0.85566,1.166808 z m 5.464551,-2.178042 q 0,0.09723 0.09723,0.09723 h 5.950721 q 0.09723,0 0.09723,-0.09723 v -1.147361 q 0,-0.09723 -0.09723,-0.09723 h -5.950721 q -0.09723,0 -0.09723,0.09723 z m 0,-2.625318 q 0,0.09723 0.09723,0.09723 h 5.950721 q 0.09723,0 0.09723,-0.09723 V 28.10257 q 0,-0.09723 -0.09723,-0.09723 h -5.950721 q -0.09723,0 -0.09723,0.09723 z M 22.36303,25.535593 q -1.166808,0 -1.166808,-1.166808 v -4.492211 q 0,-1.166808 1.166808,-1.166808 h 9.23723 q 1.166808,0 1.166808,1.166808 v 4.492211 q 0,1.166808 -1.166808,1.166808 z m 0.54451,-1.40017 q 0,0.09723 0.09723,0.09723 h 2.975361 q 0.09723,0 0.09723,-0.09723 v -1.302936 q 0,-0.09723 -0.09723,-0.09723 h -2.975361 q -0.09723,0 -0.09723,0.09723 z m 4.842253,0 q 0,0.09723 0.09723,0.09723 h 3.033701 q 0.09723,0 0.09723,-0.09723 v -1.302936 q 0,-0.09723 -0.09723,-0.09723 h -3.033701 q -0.09723,0 -0.09723,0.09723 z M 22.90754,21.373977 q 0,0.09723 0.09723,0.09723 h 2.975361 q 0.09723,0 0.09723,-0.09723 v -1.244595 q 0,-0.09723 -0.09723,-0.09723 h -2.975361 q -0.09723,0 -0.09723,0.09723 z m 4.842253,0 q 0,0.09723 0.09723,0.09723 h 3.033701 q 0.09723,0 0.09723,-0.09723 v -1.244595 q 0,-0.09723 -0.09723,-0.09723 h -3.033701 q -0.09723,0 -0.09723,0.09723 z m -2.97536,-2.625318 q -0.777872,0.42783 -1.341829,-0.583404 -0.194468,-0.369489 -0.544511,-0.777872 -0.330595,-0.408382 0.233362,-0.913999 0.563957,-0.525064 1.380723,0.291702 0.48617,0.48617 0.525063,0.54451 0.525064,1.030681 -0.252808,1.439063 z m 5.697912,-0.350042 q -0.816765,0.816766 -1.341829,0.350042 -0.525063,-0.466723 0.194468,-1.361276 0.09723,-0.136127 0.194468,-0.330595 0.563957,-1.069574 1.361276,-0.563957 0.797319,0.525063 0.408383,1.011233 -0.388936,0.466723 -0.816766,0.894553 z"
         style="font-family:'Resource Han Rounded JP';-inkscape-font-specification:'Resource Han Rounded JP Medium'"
         id="path5531" />
    </g>
  </g>
</svg>
