<?xml version="1.0" encoding="UTF-8" standalone="no"?>
<!-- Created with Inkscape (http://www.inkscape.org/) -->

<svg
   width="200"
   height="200"
   viewBox="-2 0 52.916665 52.916666"
   version="1.1"
   id="svg5"
   inkscape:version="1.2.2 (732a01da63, 2022-12-09)"
   sodipodi:docname="wR.svg"
   xmlns:inkscape="http://www.inkscape.org/namespaces/inkscape"
   xmlns:sodipodi="http://sodipodi.sourceforge.net/DTD/sodipodi-0.dtd"
   xmlns="http://www.w3.org/2000/svg"
   xmlns:svg="http://www.w3.org/2000/svg">
  <sodipodi:namedview
     id="namedview7"
     pagecolor="#ffffff"
     bordercolor="#000000"
     borderopacity="0.25"
     inkscape:showpageshadow="2"
     inkscape:pageopacity="0.0"
     inkscape:pagecheckerboard="0"
     inkscape:deskcolor="#d1d1d1"
     inkscape:document-units="px"
     showgrid="false"
     inkscape:zoom="2.7652076"
     inkscape:cx="103.24722"
     inkscape:cy="83.176395"
     inkscape:window-width="1920"
     inkscape:window-height="974"
     inkscape:window-x="-11"
     inkscape:window-y="-11"
     inkscape:window-maximized="1"
     inkscape:current-layer="layer1" />
  <defs
     id="defs2">
    <filter
       style="color-interpolation-filters:sRGB"
       inkscape:label="Drop Shadow"
       id="filter4283"
       x="-0.094886842"
       y="-0.079634359"
       width="1.2413127"
       height="1.202251">
      <feFlood
         flood-opacity="0.498039"
         flood-color="rgb(0,0,0)"
         result="flood"
         id="feFlood4273" />
      <feComposite
         in="flood"
         in2="SourceGraphic"
         operator="in"
         result="composite1"
         id="feComposite4275" />
      <feGaussianBlur
         in="composite1"
         stdDeviation="1"
         result="blur"
         id="feGaussianBlur4277" />
      <feOffset
         dx="1.5"
         dy="1.5"
         result="offset"
         id="feOffset4279" />
      <feComposite
         in="SourceGraphic"
         in2="offset"
         operator="over"
         result="composite2"
         id="feComposite4281" />
    </filter>
    <filter
       style="color-interpolation-filters:sRGB;"
       inkscape:label="Drop Shadow"
       id="filter474"
       x="-0.094886842"
       y="-0.079634359"
       width="1.2413127"
       height="1.202251">
      <feFlood
         flood-opacity="0.498039"
         flood-color="rgb(0,0,0)"
         result="flood"
         id="feFlood464" />
      <feComposite
         in="flood"
         in2="SourceGraphic"
         operator="in"
         result="composite1"
         id="feComposite466" />
      <feGaussianBlur
         in="composite1"
         stdDeviation="1"
         result="blur"
         id="feGaussianBlur468" />
      <feOffset
         dx="1.5"
         dy="1.5"
         result="offset"
         id="feOffset470" />
      <feComposite
         in="SourceGraphic"
         in2="offset"
         operator="over"
         result="composite2"
         id="feComposite472" />
    </filter>
  </defs>
  <g
     inkscape:label="Layer 1"
     inkscape:groupmode="layer"
     id="layer1">
    <path
       style="fill:#ffe1a8;fill-opacity:1;stroke:#99673c;stroke-width:0.635;stroke-linecap:square;stroke-dasharray:none;stroke-opacity:1;filter:url(#filter474);stop-color:#000000"
       d="M 13.874917,13.229167 9.9061668,43.65625 H 39.010334 L 35.041584,13.229167 24.45825,9.2604167 Z"
       id="path236"
       sodipodi:nodetypes="cccccc"
       transform="matrix(1.1025,0,0,1.1025,-2.5838458,-2.7877477)" />
    <g
       aria-label="飛"
       id="text495"
       style="font-weight:500;font-size:20.4191px;font-family:'Noto Sans JP';-inkscape-font-specification:'Noto Sans JP Medium';stroke-width:0.700087;stroke-linecap:square;stop-color:#000000">
      <path
         d="m 33.124552,33.926435 q -0.490058,0.612573 -0.816764,0.551316 -0.571735,-0.122515 -1.143469,-0.183772 -1.8173,-0.22461 -2.879093,-2.674902 -0.837184,-1.878557 -1.041374,-5.553995 0,-0.122515 -0.122515,-0.122515 h -2.49113 q -0.102096,0 -0.102096,0.102096 v 6.860817 q 0,1.225146 -0.918859,1.225146 -0.91886,0 -0.91886,-1.225146 v -6.860817 q 0,-0.102096 -0.102095,-0.102096 h -2.695321 q -0.122515,0 -0.122515,0.122515 -0.102096,2.429873 -0.775926,4.267592 -0.857602,2.389034 -1.939814,3.328313 -0.939279,0.796345 -1.551852,0.06126 -0.612573,-0.714668 0.306287,-1.511013 0.653411,-0.551316 1.429337,-2.572807 0.612573,-1.551851 0.714668,-3.593761 0,-0.102096 -0.102095,-0.102096 h -1.490595 q -1.225146,0 -1.225146,-0.878021 0,-0.878021 1.225146,-0.878021 h 1.511014 q 0.102095,0 0.102095,-0.102096 v -2.04191 q 0,-0.102095 -0.102095,-0.06126 l -1.061794,0.428801 q -1.163888,0.469639 -1.408917,-0.347125 -0.265449,-0.837183 0.878021,-1.245565 l 0.918859,-0.326705 q 0.551316,-0.204191 1.082213,-0.449221 1.000536,-0.44922 1.225146,-0.653411 0.918859,-0.796345 1.449756,-0.22461 0.530896,0.592154 0.22461,0.878021 -0.285868,0.265449 -1.14347,0.775926 -0.245029,0.142934 -0.245029,0.428801 v 2.838255 q 0,0.102096 0.102096,0.102096 h 2.695321 q 0.102095,0 0.102095,-0.102096 v -3.920467 q 0,-1.225146 0.91886,-1.225146 0.918859,0 0.918859,1.225146 v 3.920467 q 0,0.102096 0.102096,0.102096 h 3.083284 q 1.225146,0 1.245565,1.225146 0.02042,0.775925 0.142934,1.817299 0.142933,1.041375 0.530896,3.144542 0.387963,2.103167 1.858138,2.225682 0.653411,0.04084 0.837183,0.08168 0.183772,0.02042 0.22461,-0.326705 0.122515,-1.204727 0.714669,-1.14347 0.612573,0.06126 0.469639,1.286403 -0.102095,0.816764 -0.612573,1.429337 z m -1.245565,-6.493274 q -0.918859,0.775926 -1.429337,0.24503 -0.510477,-0.530897 0.183772,-1.470175 l 0.183772,-0.24503 q 0.735088,-1.000536 1.490594,-0.367543 0.755507,0.632992 -0.102095,1.531432 -0.22461,0.22461 -0.326706,0.306286 z m 1.14347,-2.899512 q -0.490059,0.510478 -0.735088,0.46964 -0.592154,-0.102096 -1.184308,-0.183772 -1.633528,-0.204191 -2.756578,-2.103168 -0.91886,-1.511013 -1.265984,-4.247172 -0.02042,-0.142934 -0.163353,-0.142934 h -9.433624 q -1.225146,0 -1.225146,-0.857602 0,-0.857602 1.225146,-0.857602 h 9.96452 q 1.204727,0 1.265985,1.204726 0,0.142934 0.122514,0.796345 0.122515,0.632992 0.551316,2.552388 0.428801,1.919395 2.021491,2.021491 0.653411,0.04084 0.837183,0.08168 0.183772,0.02042 0.245029,-0.551316 0.06126,-0.571734 0.67383,-0.490058 0.612573,0.08168 0.428802,1.306822 -0.08168,0.46964 -0.571735,1.000536 z m -1.14347,-6.268663 q -0.857602,0.857602 -1.388499,0.347124 -0.530896,-0.490058 0.142934,-1.449756 l 0.163353,-0.22461 q 0.714668,-1.020955 1.470175,-0.408382 0.735088,0.632992 -0.163353,1.511014 z M 29.714563,29.04627 q -1.061794,-0.571734 -0.755507,-1.204727 0.326705,-0.632992 1.429337,-0.102095 1.715204,0.796345 2.082748,1.082212 0.959698,0.775926 0.44922,1.408918 -0.510477,0.612573 -1.449756,-0.183772 -0.102095,-0.08168 -1.756042,-1.000536 z m -0.04084,-9.045661 q -1.041374,-0.592154 -0.714668,-1.225146 0.306286,-0.612573 1.408918,-0.08168 1.653947,0.816764 1.898976,1.020955 0.939279,0.775926 0.408382,1.388499 -0.530897,0.612573 -1.449756,-0.204191 -0.06126,-0.06126 -1.551852,-0.898441 z"
         style="font-family:'Resource Han Rounded JP';-inkscape-font-specification:'Resource Han Rounded JP Medium'"
         id="path7954" />
    </g>
  </g>
</svg>
