<?xml version="1.0" encoding="UTF-8" standalone="no"?>
<!-- Created with Inkscape (http://www.inkscape.org/) -->

<svg
   version="1.2"
   width="100"
   height="100"
   id="svg22"
   sodipodi:docname="bB.svg"
   inkscape:version="1.2.2 (732a01da63, 2022-12-09)"
   xmlns:inkscape="http://www.inkscape.org/namespaces/inkscape"
   xmlns:sodipodi="http://sodipodi.sourceforge.net/DTD/sodipodi-0.dtd"
   xmlns:xlink="http://www.w3.org/1999/xlink"
   xmlns="http://www.w3.org/2000/svg"
   xmlns:svg="http://www.w3.org/2000/svg">
  <defs
     id="defs26">
    <linearGradient
       inkscape:collect="always"
       id="linearGradient887">
      <stop
         style="stop-color:#373737;stop-opacity:1;"
         offset="0"
         id="stop883" />
      <stop
         style="stop-color:#000000;stop-opacity:1;"
         offset="1"
         id="stop885" />
    </linearGradient>
    <linearGradient
       inkscape:collect="always"
       id="linearGradient2468">
      <stop
         style="stop-color:#fff9d6;stop-opacity:1;"
         offset="0"
         id="stop2464" />
      <stop
         style="stop-color:#c6c1a3;stop-opacity:1;"
         offset="1"
         id="stop2466" />
    </linearGradient>
    <linearGradient
       inkscape:collect="always"
       id="linearGradient2460">
      <stop
         style="stop-color:#484848;stop-opacity:1;"
         offset="0"
         id="stop2456" />
      <stop
         style="stop-color:#0c0c0c;stop-opacity:1;"
         offset="1"
         id="stop2458" />
    </linearGradient>
    <linearGradient
       inkscape:collect="always"
       xlink:href="#linearGradient887"
       id="linearGradient2462"
       x1="11.3"
       y1="52.509569"
       x2="88.71"
       y2="52.509569"
       gradientUnits="userSpaceOnUse" />
    <linearGradient
       inkscape:collect="always"
       xlink:href="#linearGradient2468"
       id="linearGradient2470"
       x1="11.3"
       y1="52.509567"
       x2="88.709999"
       y2="52.509567"
       gradientUnits="userSpaceOnUse" />
    <linearGradient
       inkscape:collect="always"
       xlink:href="#linearGradient2460"
       id="linearGradient370"
       gradientUnits="userSpaceOnUse"
       x1="11.3"
       y1="52.509567"
       x2="88.709999"
       y2="52.509567" />
  </defs>
  <sodipodi:namedview
     id="namedview24"
     pagecolor="#ffffff"
     bordercolor="#000000"
     borderopacity="0.25"
     inkscape:showpageshadow="2"
     inkscape:pageopacity="0.0"
     inkscape:pagecheckerboard="0"
     inkscape:deskcolor="#d1d1d1"
     showgrid="false"
     inkscape:zoom="7.76"
     inkscape:cx="47.100515"
     inkscape:cy="50"
     inkscape:window-width="1920"
     inkscape:window-height="974"
     inkscape:window-x="-11"
     inkscape:window-y="-11"
     inkscape:window-maximized="1"
     inkscape:current-layer="svg22" />
  <linearGradient
     id="a"
     gradientUnits="userSpaceOnUse"
     x1="34.38"
     y1="56.08"
     x2="65.13"
     y2="56.08">
    <stop
       offset=".4"
       stop-color="&quot; + wColor + &quot;"
       id="stop2" />
    <stop
       offset=".58"
       stop-color="&quot;+ wShade +&quot;"
       id="stop4" />
    <stop
       offset=".81"
       stop-color="%23ebe6c2"
       id="stop6" />
    <stop
       offset="1"
       stop-color="%23d9d3b2"
       id="stop8" />
  </linearGradient>
  <g
     id="g20"
     style="fill:url(#linearGradient2462);fill-opacity:1">
    <linearGradient
       id="b"
       gradientUnits="userSpaceOnUse"
       x1="11.29"
       y1="52.5"
       x2="88.71"
       y2="52.5"
       style="fill-opacity:1;fill:url(#linearGradient2462)">
      <stop
         offset="0"
         stop-color="%2343444a"
         id="stop13"
         style="fill-opacity:1;fill:url(#linearGradient2462)" />
      <stop
         offset="1"
         id="stop15"
         style="fill-opacity:1;fill:url(#linearGradient2462)" />
    </linearGradient>
    <path
       style="fill:url(#linearGradient370);fill-opacity:1"
       d="m 66.15,65.91 a 6.9,6.9 0 0 1 0.93,3.28 v 2.35 c 0,0.59 -0.26,1.09 -0.78,1.52 -0.52,0.42 -1.19,0.8 -2.01,1.13 -0.82,0.32 -1.76,0.6 -2.84,0.83 a 35.6,35.6 0 0 1 -3.28,0.54 4.32,4.32 0 0 0 2.4,3.42 c 0.55,0.26 1.11,0.42 1.66,0.49 0.55,0.06 0.99,0.1 1.32,0.1 l 2.11,-0.1 a 15.5,15.5 0 0 0 4.26,-0.88 c 0.98,-0.46 2.17,-0.87 3.57,-1.22 1.4,-0.36 2.46,-0.54 3.18,-0.54 4.44,0 8.22,1.43 11.35,4.31 l 0.69,0.59 -4.8,9.79 -1.08,-0.98 a 14.57,14.57 0 0 0 -9.98,-3.82 23.97,23.97 0 0 0 -5.87,1.47 c -0.85,0.39 -1.68,0.67 -2.5,0.83 a 22.1,22.1 0 0 1 -3.96,0.44 h -0.78 c -1.44,0 -3.13,-0.47 -5.09,-1.42 a 12.18,12.18 0 0 1 -4.6,-3.67 9.43,9.43 0 0 1 -2.01,2.15 15.22,15.22 0 0 1 -5.28,2.75 8.3,8.3 0 0 1 -2.3,0.39 c -0.2,0 -1.06,-0.05 -2.59,-0.15 -1.53,-0.1 -3.12,-0.51 -4.75,-1.22 a 38.53,38.53 0 0 0 -3.38,-1.08 11.33,11.33 0 0 0 -2.59,-0.49 c -3.91,0 -7.24,1.27 -9.98,3.82 l -1.08,0.98 -4.79,-9.79 0.69,-0.59 a 16.63,16.63 0 0 1 11.35,-4.21 c 0.78,0 1.86,0.18 3.23,0.54 1.37,0.36 2.58,0.73 3.62,1.12 a 8.9,8.9 0 0 0 2.2,0.69 19.6,19.6 0 0 0 3.48,0.3 h 0.78 c 1.24,0 2.38,-0.29 3.43,-0.88 1.04,-0.59 1.7,-1.63 1.96,-3.13 A 35.6,35.6 0 0 1 38.76,75.03 20.07,20.07 0 0 1 35.87,74.2 7.4,7.4 0 0 1 33.82,73.07 1.91,1.91 0 0 1 33.04,71.55 V 69.2 c 0,-2.09 0.81,-3.98 2.45,-5.68 0.13,-0.19 0.24,-0.32 0.34,-0.39 0.1,-0.06 0.21,-0.16 0.34,-0.29 0.06,-0.26 -0.03,-0.76 -0.29,-1.52 -0.26,-0.75 -0.95,-1.58 -2.05,-2.5 -3.65,-3.13 -5.48,-7.54 -5.48,-13.21 0,-1.89 0.34,-3.59 1.03,-5.09 0.69,-1.5 1.53,-2.82 2.54,-3.96 1.01,-1.14 2.09,-2.1 3.23,-2.89 1.14,-0.79 2.17,-1.4 3.08,-1.86 4.11,-2.09 6.88,-3.95 8.32,-5.58 A 6.68,6.68 0 0 1 44.2,23.88 6.52,6.52 0 0 1 43.22,20.36 c 0,-1.89 0.67,-3.51 2.01,-4.85 a 6.6,6.6 0 0 1 4.85,-2.01 c 1.89,0 3.51,0.67 4.84,2.01 a 6.6,6.6 0 0 1 2.01,4.85 6,6 0 0 1 -0.98,3.42 8.66,8.66 0 0 1 -2.45,2.45 c 0.78,0.85 1.84,1.71 3.18,2.59 1.34,0.88 3.05,1.88 5.14,2.99 0.91,0.46 1.94,1.08 3.08,1.86 1.14,0.78 2.22,1.75 3.23,2.89 a 15.7,15.7 0 0 1 2.54,3.96 c 0.69,1.5 1.03,3.2 1.03,5.09 0,5.74 -1.83,10.15 -5.48,13.21 a 6.1,6.1 0 0 0 -2.05,2.54 c -0.26,0.78 -0.36,1.27 -0.29,1.47 0.88,0.91 1.65,1.94 2.27,3.08 z"
       id="path18" />
    <path
       id="path2444"
       style="fill:url(#linearGradient2470);fill-opacity:1"
       d="m 60.28,69.53 c 2.51,0.55 4,1.09 4.45,1.61 l 0.15,-1.13 c 0.03,-0.29 -0.02,-0.77 -0.15,-1.42 a 21.74,21.74 0 0 0 -3.96,-1.13 c -1.53,-0.29 -3.03,-0.5 -4.5,-0.63 a 64.04,64.04 0 0 0 -3.96,-0.24 l -2.25,-0.05 -2.25,0.05 c -1.17,0.03 -2.51,0.11 -4.01,0.24 -1.5,0.13 -3.02,0.34 -4.55,0.63 -1.53,0.29 -2.86,0.67 -3.96,1.13 a 5.41,5.41 0 0 0 -0.15,1.42 c 0.03,0.29 0.11,0.67 0.25,1.13 0.39,-0.52 1.86,-1.06 4.4,-1.61 2.54,-0.55 5.97,-0.83 10.28,-0.83 4.28,0 7.69,0.28 10.21,0.83 z m -2.94,-7.44 c 2.25,0.69 4.06,1.75 5.43,3.18 a 4.91,4.91 0 0 1 -1.08,-1.96 3.62,3.62 0 0 1 0,-1.67 c -3.2,-1.89 -7.08,-2.84 -11.65,-2.84 -4.63,0 -8.58,0.95 -11.84,2.84 0.46,1.11 0.16,2.32 -0.88,3.62 a 11.59,11.59 0 0 1 5.33,-3.18 25.43,25.43 0 0 1 7.39,-1.03 c 2.62,0.01 5.05,0.36 7.3,1.04 z m -5.92,-20.5 v -6.46 c 0,-1.04 -0.52,-1.57 -1.57,-1.57 -0.33,0 -0.62,0.15 -0.88,0.44 -0.26,0.29 -0.39,0.67 -0.39,1.13 v 6.46 h -6.46 c -0.39,0 -0.73,0.15 -1.03,0.44 -0.29,0.29 -0.44,0.64 -0.44,1.03 0,0.39 0.15,0.72 0.44,0.98 0.29,0.26 0.64,0.39 1.03,0.39 h 6.46 v 6.56 c 0,0.39 0.13,0.72 0.39,0.98 0.26,0.26 0.55,0.39 0.88,0.39 1.04,0 1.57,-0.46 1.57,-1.37 v -6.56 h 6.56 c 0.91,0 1.37,-0.46 1.37,-1.37 0,-0.39 -0.13,-0.73 -0.39,-1.03 a 1.27,1.27 0 0 0 -0.98,-0.44 z m -5.24,36.99 c 1.08,0.07 2.01,0.1 2.79,0.1 v -2.54 c -0.78,0 -1.6,-0.02 -2.45,-0.05 -0.85,-0.03 -1.73,-0.11 -2.64,-0.24 -0.06,0.52 -0.18,0.98 -0.34,1.37 L 43.1,78.3 c 0.98,0.12 2.01,0.22 3.08,0.28 z m 7.24,-2.49 c -0.82,0.03 -1.61,0.05 -2.4,0.05 v 2.54 a 45.8,45.8 0 0 0 5.88,-0.39 c -0.13,-0.33 -0.29,-0.68 -0.49,-1.08 a 4.23,4.23 0 0 1 -0.39,-1.37 c -0.91,0.13 -1.78,0.21 -2.6,0.25 z" />
  </g>
</svg>
