<?xml version="1.0" encoding="UTF-8" standalone="no"?>
<!-- Created with Inkscape (http://www.inkscape.org/) -->

<svg
   version="1.2"
   width="100"
   height="100"
   id="svg22"
   sodipodi:docname="bC.svg"
   inkscape:version="1.2.2 (732a01da63, 2022-12-09)"
   xml:space="preserve"
   xmlns:inkscape="http://www.inkscape.org/namespaces/inkscape"
   xmlns:sodipodi="http://sodipodi.sourceforge.net/DTD/sodipodi-0.dtd"
   xmlns:xlink="http://www.w3.org/1999/xlink"
   xmlns="http://www.w3.org/2000/svg"
   xmlns:svg="http://www.w3.org/2000/svg"><defs
     id="defs26"><linearGradient
       inkscape:collect="always"
       id="linearGradient922"><stop
         style="stop-color:#484848;stop-opacity:1;"
         offset="0"
         id="stop918" /><stop
         style="stop-color:#0c0c0c;stop-opacity:1;"
         offset="1"
         id="stop920" /></linearGradient><linearGradient
       inkscape:collect="always"
       id="linearGradient887"><stop
         style="stop-color:#373737;stop-opacity:1;"
         offset="0"
         id="stop883" /><stop
         style="stop-color:#000000;stop-opacity:1;"
         offset="1"
         id="stop885" /></linearGradient><linearGradient
       inkscape:collect="always"
       id="linearGradient2468"><stop
         style="stop-color:#fff9d6;stop-opacity:1;"
         offset="0"
         id="stop2464" /><stop
         style="stop-color:#c6c1a3;stop-opacity:1;"
         offset="1"
         id="stop2466" /></linearGradient><linearGradient
       inkscape:collect="always"
       id="linearGradient2460"><stop
         style="stop-color:#484848;stop-opacity:1;"
         offset="0"
         id="stop2456" /><stop
         style="stop-color:#0c0c0c;stop-opacity:1;"
         offset="1"
         id="stop2458" /></linearGradient><linearGradient
       inkscape:collect="always"
       xlink:href="#linearGradient887"
       id="linearGradient2462"
       x1="11.3"
       y1="52.509569"
       x2="88.71"
       y2="52.509569"
       gradientUnits="userSpaceOnUse" /><linearGradient
       inkscape:collect="always"
       xlink:href="#linearGradient2468"
       id="linearGradient2470"
       x1="11.3"
       y1="52.509567"
       x2="88.709999"
       y2="52.509567"
       gradientUnits="userSpaceOnUse" /><linearGradient
       inkscape:collect="always"
       xlink:href="#linearGradient2460"
       id="linearGradient370"
       gradientUnits="userSpaceOnUse"
       x1="11.3"
       y1="52.509567"
       x2="88.709999"
       y2="52.509567" /><linearGradient
       inkscape:collect="always"
       id="linearGradient1841"><stop
         style="stop-color:#fff9d6;stop-opacity:1;"
         offset="0"
         id="stop1837" /><stop
         style="stop-color:#c4c1a3;stop-opacity:1;"
         offset="1"
         id="stop1839" /></linearGradient><linearGradient
       inkscape:collect="always"
       xlink:href="#linearGradient1841"
       id="linearGradient1843"
       x1="4.2182364"
       y1="71.184578"
       x2="107.43157"
       y2="71.184578"
       gradientUnits="userSpaceOnUse" /><linearGradient
       inkscape:collect="always"
       xlink:href="#linearGradient922"
       id="linearGradient339"
       gradientUnits="userSpaceOnUse"
       x1="4.2182364"
       y1="71.184578"
       x2="107.43157"
       y2="71.184578" /></defs><sodipodi:namedview
     id="namedview24"
     pagecolor="#ffffff"
     bordercolor="#000000"
     borderopacity="0.25"
     inkscape:showpageshadow="2"
     inkscape:pageopacity="0.0"
     inkscape:pagecheckerboard="0"
     inkscape:deskcolor="#d1d1d1"
     showgrid="false"
     inkscape:zoom="7.76"
     inkscape:cx="47.229381"
     inkscape:cy="50"
     inkscape:window-width="1920"
     inkscape:window-height="974"
     inkscape:window-x="-11"
     inkscape:window-y="-11"
     inkscape:window-maximized="1"
     inkscape:current-layer="svg22" /><linearGradient
     id="a"
     gradientUnits="userSpaceOnUse"
     x1="34.38"
     y1="56.08"
     x2="65.13"
     y2="56.08"><stop
       offset=".4"
       stop-color="&quot; + wColor + &quot;"
       id="stop2" /><stop
       offset=".58"
       stop-color="&quot;+ wShade +&quot;"
       id="stop4" /><stop
       offset=".81"
       stop-color="%23ebe6c2"
       id="stop6" /><stop
       offset="1"
       stop-color="%23d9d3b2"
       id="stop8" /></linearGradient><g
     id="g20"
     style="fill:url(#linearGradient2462);fill-opacity:1"
     transform="translate(0,2)"><linearGradient
       id="b"
       gradientUnits="userSpaceOnUse"
       x1="11.29"
       y1="52.5"
       x2="88.709999"
       y2="52.5"
       style="fill:url(#linearGradient2462);fill-opacity:1"><stop
         offset="0"
         stop-color="%2343444a"
         id="stop13"
         style="fill-opacity:1;fill:url(#linearGradient2462)" /><stop
         offset="1"
         id="stop15"
         style="fill-opacity:1;fill:url(#linearGradient2462)" /></linearGradient><path
       style="fill:url(#linearGradient370);fill-opacity:1"
       d="m 66.15,65.91 c 0.57948,0.99833 0.899241,2.126087 0.93,3.28 v 2.35 c 0,0.59 -0.26,1.09 -0.78,1.52 -0.52,0.42 -1.19,0.8 -2.01,1.13 -0.82,0.32 -1.76,0.6 -2.84,0.83 -1.084329,0.230975 -2.178855,0.411171 -3.28,0.54 0.158873,1.47678 1.065264,2.768387 2.4,3.42 0.55,0.26 1.11,0.42 1.66,0.49 0.55,0.06 0.99,0.1 1.32,0.1 l 2.11,-0.1 c 1.454306,-0.09163 2.888425,-0.387879 4.26,-0.88 0.98,-0.46 2.17,-0.87 3.57,-1.22 1.4,-0.36 2.46,-0.54 3.18,-0.54 4.44,0 8.22,1.43 11.35,4.31 l 0.69,0.59 -4.8,9.79 -1.08,-0.98 c -2.722801,-2.491348 -6.289591,-3.856592 -9.98,-3.82 -2.010909,0.240059 -3.983289,0.733994 -5.87,1.47 -0.85,0.39 -1.68,0.67 -2.5,0.83 -1.304059,0.2656 -2.629444,0.412865 -3.96,0.44 h -0.78 c -1.44,0 -3.13,-0.47 -5.09,-1.42 -1.810248,-0.828972 -3.389676,-2.08908 -4.6,-3.67 -0.55334,0.817452 -1.2316,1.542953 -2.01,2.15 -1.561818,1.255293 -3.356137,2.189834 -5.28,2.75 -0.744483,0.23763 -1.518796,0.368927 -2.3,0.39 -0.2,0 -1.06,-0.05 -2.59,-0.15 -1.53,-0.1 -3.12,-0.51 -4.75,-1.22 -1.109483,-0.411716 -2.237346,-0.772098 -3.38,-1.08 -0.841328,-0.263547 -1.710543,-0.427993 -2.59,-0.49 -3.91,0 -7.24,1.27 -9.98,3.82 l -1.08,0.98 -4.79,-9.79 0.69,-0.59 c 3.120067,-2.779419 7.172112,-4.282424 11.35,-4.21 0.78,0 1.86,0.18 3.23,0.54 1.37,0.36 2.58,0.73 3.62,1.12 0.700313,0.324419 1.43985,0.556365 2.2,0.69 1.14876,0.203368 2.313383,0.303767 3.48,0.3 h 0.78 c 1.24,0 2.38,-0.29 3.43,-0.88 1.04,-0.59 1.7,-1.63 1.96,-3.13 -1.101145,-0.128829 -2.195671,-0.309025 -3.28,-0.54 -0.982732,-0.204014 -1.948776,-0.481459 -2.89,-0.83 -0.738958,-0.265519 -1.430946,-0.646956 -2.05,-1.13 -0.484739,-0.355665 -0.773721,-0.918809 -0.78,-1.52 V 69.2 c 0,-2.09 0.81,-3.98 2.45,-5.68 0.13,-0.19 0.24,-0.32 0.34,-0.39 0.1,-0.06 0.21,-0.16 0.34,-0.29 0.06,-0.26 -0.03,-0.76 -0.29,-1.52 8.198548,-7.951708 22.179133,-8.977981 28.29,0.04 -0.26,0.78 -0.36,1.27 -0.29,1.47 0.88,0.91 1.65,1.94 2.27,3.08 z"
       id="path18"
       sodipodi:nodetypes="ccsccccccccccsccccccccscccccsccccccccscccsccccccsccccccc" /><path
       id="path2444"
       style="fill:url(#linearGradient2470);fill-opacity:1"
       d="m 60.28,69.53 c 2.51,0.55 4,1.09 4.45,1.61 l 0.15,-1.13 c 0.03,-0.29 -0.02,-0.77 -0.15,-1.42 -1.281271,-0.501119 -2.607218,-0.879483 -3.96,-1.13 -1.53,-0.29 -3.03,-0.5 -4.5,-0.63 -1.317205,-0.120877 -2.637838,-0.200916 -3.96,-0.24 l -2.25,-0.05 -2.25,0.05 c -1.17,0.03 -2.51,0.11 -4.01,0.24 -1.5,0.13 -3.02,0.34 -4.55,0.63 -1.53,0.29 -2.86,0.67 -3.96,1.13 -0.11252,0.464627 -0.162959,0.942118 -0.15,1.42 0.03,0.29 0.11,0.67 0.25,1.13 0.39,-0.52 1.86,-1.06 4.4,-1.61 2.54,-0.55 5.97,-0.83 10.28,-0.83 4.28,0 7.69,0.28 10.21,0.83 z m -2.94,-7.44 c 2.25,0.69 4.06,1.75 5.43,3.18 -0.506072,-0.56149 -0.875671,-1.232243 -1.08,-1.96 -0.130157,-0.549058 -0.130157,-1.120942 0,-1.67 -3.2,-1.89 -7.08,-2.84 -11.65,-2.84 -4.63,0 -8.58,0.95 -11.84,2.84 0.46,1.11 0.16,2.32 -0.88,3.62 1.45453,-1.524845 3.297274,-2.624269 5.33,-3.18 2.399292,-0.704816 4.889423,-1.051884 7.39,-1.03 2.62,0.01 5.05,0.36 7.3,1.04 z M 46.18,78.58 c 1.08,0.07 2.01,0.1 2.79,0.1 v -2.54 c -0.78,0 -1.6,-0.02 -2.45,-0.05 -0.85,-0.03 -1.73,-0.11 -2.64,-0.24 -0.06,0.52 -0.18,0.98 -0.34,1.37 L 43.1,78.3 c 0.98,0.12 2.01,0.22 3.08,0.28 z m 7.24,-2.49 c -0.82,0.03 -1.61,0.05 -2.4,0.05 v 2.54 c 1.96634,-0.0036 3.930404,-0.133911 5.88,-0.39 -0.13,-0.33 -0.29,-0.68 -0.49,-1.08 -0.206508,-0.431338 -0.338377,-0.894571 -0.39,-1.37 -0.91,0.13 -1.78,0.21 -2.6,0.25 z"
       sodipodi:nodetypes="cccccccccsscccsscccccsccccccccsccccccccccc" /></g><g
     id="g16"
     transform="matrix(0.75,0,0,0.75,8.1363228,1.1211354)"><linearGradient
       id="b-1"
       gradientUnits="userSpaceOnUse"
       x1="11.48"
       y1="51"
       x2="88.5"
       y2="51"><stop
         offset="0"
         stop-color="%2343444a"
         id="stop9" /><stop
         offset="1"
         id="stop11" /></linearGradient><path
       style="fill:url(#linearGradient339);fill-opacity:1"
       d="m 45.73,12.17 c 1.06,1.45 2.14,2.9 3.01,4.47 0.7,1.26 1.42,2.57 1.86,3.95 0.21,0.65 0.36,1.33 0.43,2.01 0.81,0.03 1.62,0.08 2.43,0.16 a 30.56,30.56 0 0 1 15.04,5.66 c 8.74,6.41 13.45,16.93 16.17,27.12 2.97,11.15 3.82,22.78 3.82,34.29 H 33.96 c 0,-3.49 0.22,-7.11 1.33,-10.45 a 14.96,14.96 0 0 1 6.16,-7.86 c 6.66,-3.7 8.92,-11.22 9.96,-18.3 a 14.55,14.55 0 0 1 -5.98,5.04 c -1.57,0.74 -3.23,1.28 -4.77,2.07 -2.44,1.25 -4.32,3.84 -6.07,5.88 -0.78,0.9 -1.49,1.87 -2.27,2.77 -1.5,1.75 -3.18,3.8 -5.47,4.5 -2.67,0.82 -5.54,0.35 -8.03,-0.8 a 13.95,13.95 0 0 1 -6.27,-5.62 c -1.4,-2.47 -1.22,-5.51 -0.72,-8.21 a 18.53,18.53 0 0 1 2.69,-6.32 48.57,48.57 0 0 1 2.22,-3.29 c 0.37,-0.5 0.87,-0.9 1.21,-1.41 1.42,-2.13 2.98,-4.23 3.96,-6.61 0.93,-2.26 0.48,-4.8 0.99,-7.17 0.48,-2.23 1.65,-4.14 2.89,-6.01 0.49,-0.73 1.12,-1.38 1.57,-2.14 0.49,-0.83 0.25,-2.18 0.11,-3.1 -0.15,-0.96 -0.49,-1.79 -0.52,-2.79 -0.03,-1.18 -0.02,-2.39 0.19,-3.55 0.22,-1.27 0.93,-2.38 1.42,-3.56 1.39,1.01 2.85,1.95 4.13,3.11 1.04,0.94 2.01,1.96 2.94,3.01 0.46,0.52 0.88,1.07 1.27,1.65 0.19,0.29 0.38,0.58 0.55,0.89 0.26,0.45 0.29,0.97 0.86,0.86 0.71,-0.14 1.42,-0.25 2.13,-0.36 0.54,-0.08 0.37,-0.28 0.45,-0.76 0.05,-0.35 0.12,-0.7 0.2,-1.04 0.32,-1.36 0.87,-2.67 1.5,-3.91 a 19.8,19.8 0 0 1 3.14,-4.18"
       id="path14" /><path
       id="path1802"
       style="fill:url(#linearGradient1843);fill-opacity:1"
       d="m 19.18,57.92 a 10.45,10.45 0 0 0 -2.97,4.3 c -0.17,0.5 -0.51,1.44 -0.09,1.91 0.48,0.54 1.14,0.13 1.59,-0.23 a 10.36,10.36 0 0 0 2.93,-4.24 c 0.19,-0.5 0.6,-1.48 0.17,-1.97 -0.47,-0.55 -1.19,-0.14 -1.63,0.23 m 3.75,13.9 c 0.22,0.05 0.45,0.03 0.67,0.01 0.66,-0.07 0.58,-0.16 0.77,-0.74 0.24,-0.75 0.74,-1.33 1.12,-2.01 a 8.6,8.6 0 0 0 1.38,-4.47 h -2.29 c -0.12,0 -0.17,1.16 -0.22,1.38 -0.25,1.12 -0.95,2.1 -1.55,3.06 a 6.65,6.65 0 0 0 -0.84,1.79 c -0.12,0.42 -0.26,0.56 0.2,0.74 0.23,0.09 0.49,0.18 0.76,0.24 M 34.54,35.97 a 7.87,7.87 0 0 1 1.52,-0.38 c 0.06,-0.08 0,-0.48 0,-0.58 v -1.88 c -2.11,0.5 -4.34,1.17 -5.97,2.66 -1.67,1.51 -2.62,3.65 -3.22,5.78 h 2.11 c 0.37,0 0.57,-1.18 0.74,-1.53 0.33,-0.69 0.87,-1.28 1.32,-1.89 -0.64,1.31 0.41,3.67 2.06,3.29 1.78,-0.4 1.84,-4.2 0.5,-5.09 l 0.94,-0.38 m 5.6,-11 c -3.37,0.37 -6.75,1.3 -9.58,3.22 l 1.32,1.76 c 0.21,0.29 0.87,-0.4 1.15,-0.56 0.76,-0.44 1.58,-0.79 2.42,-1.05 0.49,-0.15 4.69,-1.01 4.69,-1.17 v -2.2 m 10.9,2.18 c 12.17,0.64 19.59,11.04 23.36,21.61 4.27,11.98 5.46,25.01 5.66,37.65 0.01,0.54 0.06,0.4 0.54,0.4 h 3.55 C 84.15,74.22 82.53,61.26 78.12,49.41 74.28,39.09 67.33,28.08 55.83,25.48 a 26.48,26.48 0 0 0 -4.78,-0.6 l -0.01,2.27 m 3.99,24.66 c 1.35,-3.3 1.9,-6.88 1.9,-10.43 h -1.84 c -0.42,0 -0.43,-0.12 -0.43,0.38 a 29.2,29.2 0 0 1 -0.12,2.48 c -0.23,2.59 -0.82,5.36 -2.25,7.57 h 2.74" /></g></svg>
