<?xml version="1.0" encoding="UTF-8" standalone="no"?>
<!-- Created with Inkscape (http://www.inkscape.org/) -->

<svg
   version="1.2"
   width="100"
   height="100"
   id="svg18"
   sodipodi:docname="bCm.svg"
   inkscape:version="1.2.2 (732a01da63, 2022-12-09)"
   xmlns:inkscape="http://www.inkscape.org/namespaces/inkscape"
   xmlns:sodipodi="http://sodipodi.sourceforge.net/DTD/sodipodi-0.dtd"
   xmlns:xlink="http://www.w3.org/1999/xlink"
   xmlns="http://www.w3.org/2000/svg"
   xmlns:svg="http://www.w3.org/2000/svg">
  <defs
     id="defs22">
    <linearGradient
       inkscape:collect="always"
       id="linearGradient929">
      <stop
         style="stop-color:#484848;stop-opacity:1;"
         offset="0"
         id="stop925" />
      <stop
         style="stop-color:#0c0c0c;stop-opacity:1;"
         offset="1"
         id="stop927" />
    </linearGradient>
    <linearGradient
       inkscape:collect="always"
       id="linearGradient919">
      <stop
         style="stop-color:#484848;stop-opacity:1;"
         offset="0"
         id="stop915" />
      <stop
         style="stop-color:#0c0c0c;stop-opacity:1;"
         offset="1"
         id="stop917" />
    </linearGradient>
    <linearGradient
       inkscape:collect="always"
       id="linearGradient911">
      <stop
         style="stop-color:#fff9d6;stop-opacity:1;"
         offset="0"
         id="stop907" />
      <stop
         style="stop-color:#c4c1a3;stop-opacity:1;"
         offset="1"
         id="stop909" />
    </linearGradient>
    <linearGradient
       inkscape:collect="always"
       xlink:href="#linearGradient911"
       id="linearGradient913"
       x1="14.68105"
       y1="57.75"
       x2="85.5"
       y2="57.75"
       gradientUnits="userSpaceOnUse" />
    <linearGradient
       inkscape:collect="always"
       xlink:href="#linearGradient919"
       id="linearGradient921"
       x1="12.4"
       y1="52.5"
       x2="87.800003"
       y2="52.5"
       gradientUnits="userSpaceOnUse" />
    <linearGradient
       inkscape:collect="always"
       xlink:href="#linearGradient929"
       id="linearGradient923"
       x1="12.4"
       y1="52.5"
       x2="87.800003"
       y2="52.5"
       gradientUnits="userSpaceOnUse" />
    <linearGradient
       inkscape:collect="always"
       xlink:href="#linearGradient919"
       id="linearGradient1070"
       gradientUnits="userSpaceOnUse"
       x1="12.4"
       y1="52.5"
       x2="87.800003"
       y2="52.5" />
  </defs>
  <sodipodi:namedview
     id="namedview20"
     pagecolor="#ffffff"
     bordercolor="#000000"
     borderopacity="0.25"
     inkscape:showpageshadow="2"
     inkscape:pageopacity="0.0"
     inkscape:pagecheckerboard="0"
     inkscape:deskcolor="#d1d1d1"
     showgrid="false"
     inkscape:zoom="7.76"
     inkscape:cx="41.945876"
     inkscape:cy="44.329897"
     inkscape:window-width="1920"
     inkscape:window-height="974"
     inkscape:window-x="-11"
     inkscape:window-y="-11"
     inkscape:window-maximized="1"
     inkscape:current-layer="g16" />
  <linearGradient
     id="a"
     gradientUnits="userSpaceOnUse"
     x1="12.19"
     y1="59.94"
     x2="87.81"
     y2="59.94">
    <stop
       offset=".4"
       stop-color="&quot; + wColor + &quot;"
       id="stop2" />
    <stop
       offset="1"
       stop-color="&quot;+ wShade +&quot;"
       id="stop4" />
  </linearGradient>
  <g
     id="g16">
    <linearGradient
       id="b"
       gradientUnits="userSpaceOnUse"
       x1="12.19"
       y1="52.5"
       x2="87.81"
       y2="52.5">
      <stop
         offset="0"
         stop-color="%2343444a"
         id="stop9" />
      <stop
         offset="1"
         id="stop11" />
    </linearGradient>
    <path
       style="fill:url(#linearGradient921);fill-opacity:1;stroke:none;stroke-opacity:1"
       d="m 45,46.2 -1.2,-4.5 c -0.4,-1.5 -0.6,-2.9 -0.7,-4.2 -0.1,-1.3 0,-2.5 0.1,-3.6 0.2,-1.1 0.6,-2.1 1.1,-2.8 0.4,-0.8 1.1,-1.3 1.9,-1.8 0.8,-0.4 1.7,-0.7 2.7,-0.8 1.141269,-0.219485 1.798829,-0.09727 2.3,0 2.2,0.3 3.8,1.1 4.9,2.6 0.6,0.8 0.9,1.7 1.1,2.8 0.2,1.1 0.2,2.3 0.1,3.6 -0.1,1.3 -0.3,2.7 -0.7,4.2 -0.3,1.5 -0.7,3 -1.1,4.5 -4.288101,15.737922 -6.856474,12.967674 -10.5,0 z"
       id="path14"
       sodipodi:nodetypes="cssccccccssccc" />
    <path
       id="path1033"
       style="stroke:none;stroke-opacity:1;fill:url(#linearGradient913);fill-opacity:1"
       d="m 49,43.1 c -0.6,-1.5 -1,-2.9 -1.4,-4.2 -0.4,-1.4 -0.5,-2.6 -0.3,-3.6 0.2,-1 1,-1.5 2.6,-1.5 1.6,0 2.5,0.5 2.7,1.5 0.2,1 0.1,2.2 -0.3,3.6 -0.4,1.4 -0.9,2.8 -1.5,4.2 -0.6,1.5 -0.9,2.6 -0.9,3.5 0,-0.9 -0.3,-2.1 -0.9,-3.5 z m -4.1,-7.3 c 0,2 0.4,4.4 1.1,7 0.8,2.6 1.5,5.1 2.3,7.5 0.3,1 0.6,1.9 0.9,2.8 0.3,0.9 0.6,1.7 0.8,2.6 0.2,-0.8 0.4,-1.7 0.7,-2.6 0.3,-0.9 0.6,-1.8 0.9,-2.8 0.9,-2.4 1.7,-4.9 2.3,-7.5 0.7,-2.6 1,-4.9 1,-7 0,-0.8 -0.1,-1.5 -0.2,-2.1 -0.1,-0.6 -0.4,-1.2 -0.7,-1.7 -0.8,-1.1 -2.1,-1.6 -4.1,-1.6 -1.8,0 -3.2,0.5 -4.2,1.6 -0.5,1.1 -0.8,2.4 -0.8,3.8 z" />
    <path
       style="fill:url(#linearGradient1070);fill-opacity:1;stroke:none;stroke-opacity:1"
       d="m 83.7,40.5 c 2.7,2.7 4.1,6.4 4.1,11 0,2.1 -0.3,4.1 -1,5.9 -0.7,1.8 -1.5,3.5 -2.6,5.1 -1,1.6 -2.2,3 -3.5,4.3 l -3.8,3.8 -1.2,1.2 c -1.3,1.3 -2,2.3 -2.2,3.1 -0.2,0.8 -0.2,1.4 0,1.7 1.1,1.2 1.9,2.6 2.4,4.1 0.5,1.5 0.8,2.7 0.9,3.5 0.1,0.8 0,1.5 -0.1,2 -0.1,0.5 -0.4,0.9 -0.7,1.2 -0.8,0.8 -2.1,1.4 -4,1.9 -1.9,0.5 -4,0.9 -6.4,1.2 -2.4,0.3 -5,0.6 -7.7,0.7 -2.7,0.2 -5.4,0.2 -7.9,0.2 -2.5,0 -5.2,-0.1 -8,-0.2 -2.8,-0.1 -5.4,-0.4 -7.8,-0.7 -2.4,-0.3 -4.6,-0.7 -6.4,-1.2 -1.8,-0.5 -3.1,-1.1 -3.9,-1.9 -0.3,-0.3 -0.5,-0.6 -0.6,-1 -0.1,-0.3 -0.1,-0.6 -0.1,-0.8 0,-1.7 0.3,-3.4 0.9,-4.9 0.6,-1.6 1.4,-2.9 2.5,-4.1 0.3,-0.3 0.4,-0.9 0.1,-1.7 -0.2,-0.8 -0.9,-1.9 -2.1,-3.1 l -1.3,-1.2 -3.8,-3.8 c -2.665096,-2.674876 -4.742708,-5.876442 -6.1,-9.4 -0.7,-1.8 -1,-3.8 -1,-5.9 0,-4.6 1.4,-8.2 4.1,-11 4.67646,-7.427617 55.921513,-11.094311 67.2,0 z"
       id="path14-4"
       sodipodi:nodetypes="csscscsscsssssscssssscscccccccscc" />
    <path
       style="fill:url(#linearGradient913);fill-opacity:1;stroke:none;stroke-opacity:1"
       d="m 78.8,65.2 c 1.2,-1.3 2.3,-2.6 3.3,-4.1 1,-1.4 1.8,-2.9 2.4,-4.5 0.6,-1.6 1,-3.3 1,-5.1 0,-3.9 -1.1,-7 -3.4,-9.2 C 79.8,40.1 76.313402,38.420103 72.413402,37.775773 62.436599,36.445128 48.417006,33.989208 28.173196,38.25567 24.917645,38.72619 20.441031,39.889249 18.1,42.2 c -2.326804,2.296708 -3.071413,5.947167 -3.4,9.2 -0.176257,1.744846 0.246167,3.536021 0.8,5.2 0.536866,1.613002 1.462916,3.081595 2.4,4.5 0.967048,1.463761 2.13701,2.786519 3.3,4.1 1.140735,1.288346 2.391581,2.474914 3.6,3.7 0.628981,0.637656 1.9,1.9 1.9,1.9 0,0 2.395633,-1.486013 3.7,-2 1.474314,-0.580954 3.042585,-0.907478 4.6,-1.2 1.978961,-0.371698 3.991469,-0.557707 6,-0.7 2.627591,-0.18615 5.266023,-0.232462 7.9,-0.2 0.667449,0.0082 2,0.1 2,0.1 5.8,0 10.6,0.2 14.3,0.7 3.7,0.4 6.4,1.6 8.2,3.4 l 1.9,-2 c 1.2,-1.2 2.3,-2.4 3.5,-3.7 z"
       id="path1035"
       sodipodi:nodetypes="scsssccsssssscssssccccs" />
    <path
       style="stroke:none;stroke-opacity:1;fill:url(#linearGradient913);fill-opacity:1"
       d="m 50,75.1 h 8.3 c 1.9,0 3.7,0.1 5.4,0.3 1.7,0.2 3.2,0.5 4.6,1 1.4,0.4 2.6,1.1 3.6,1.9 C 71.3,77.6 71,77 70.9,76.5 70.8,76 70.9,75.5 71,75 A 21.6,21.6 0 0 0 62.7,72.9 C 59.6,72.7 56.1,72.6 52.3,72.7 h -4.6 c -3.8,-0.1 -7.2,0 -10.3,0.2 -3.1,0.2 -5.9,0.9 -8.3,2.1 0.1,0.5 0.1,1 0,1.5 0,0.5 -0.4,1.1 -1,1.8 2.1,-1.6 4.9,-2.5 8.3,-2.8 3.4,-0.3 7.2,-0.4 11.3,-0.3 H 50 Z"
       id="path1029" />
    <path
       style="stroke:none;stroke-opacity:1;fill:url(#linearGradient913);fill-opacity:1"
       d="m 60.8,82.4 c 3,0.2 5.5,0.5 7.4,0.8 2,0.3 3.4,0.7 4.4,1 1,0.3 1.6,0.7 1.8,0.9 0.3,-0.7 0.2,-1.7 -0.2,-2.9 -1.3,-0.6 -3,-1 -5,-1.4 -2,-0.4 -4.1,-0.6 -6.3,-0.8 -2.2,-0.2 -4.5,-0.3 -6.7,-0.3 H 50 c -2,0 -4,0 -6.3,0.1 l -6.8,0.3 a 55,55 0 0 0 -6.2,0.8 c -1.9,0.3 -3.5,0.8 -4.8,1.4 -0.3,0.7 -0.4,1.3 -0.4,1.7 v 1.1 c 0.2,-0.3 0.8,-0.6 1.8,-0.9 1,-0.4 2.5,-0.7 4.5,-1 2,-0.3 4.4,-0.6 7.4,-0.8 3,-0.2 6.6,-0.3 10.8,-0.3 4.2,0 7.8,0.1 10.8,0.3 z"
       id="path1027" />
    <path
       style="fill:url(#linearGradient923);fill-opacity:1;stroke:none;stroke-opacity:1"
       d="m 77,62.9 c 1,-1 1.9,-2.2 2.7,-3.3 0.8,-1.2 1.4,-2.4 2,-3.7 0.5,-1.3 0.8,-2.7 0.8,-4.1 0,-3.2 -0.9,-5.7 -2.8,-7.5 C 77.9,42.5 75.582759,40.640169 72.422165,40.31134 53.222004,38.313749 40.832262,38.200207 27.7,40.984536 27.257535,41.078348 22.100838,42.652392 20.1,44.2 c -1.562142,1.208286 -2.497125,4.85069 -2.7,7.5 -0.106317,1.388375 0.330227,2.789198 0.8,4.1 0.472993,1.319785 1.219245,2.535535 2,3.7 0.791494,1.180482 1.755286,2.238155 2.7,3.3 0.924491,1.039115 1.942131,1.99157 2.9,3 0.471029,0.495892 1.4,1.5 1.4,1.5 0,0 1.944861,-1.186325 3,-1.6 1.219423,-0.478084 2.513676,-0.75317 3.8,-1 1.616049,-0.3101 3.259316,-0.473765 4.9,-0.6 2.094866,-0.161179 4.19906,-0.177719 6.3,-0.2 3.166664,-0.03358 6.337145,-0.05887 9.5,0.1 3.710307,0.186365 8.5,0.4 11.1,1 2.6,0.6 4.9,1.4 6.8,2.5 L 74.1,66 C 75,65 76,64 77,62.9 Z"
       id="path939"
       sodipodi:nodetypes="cccscsssssssscssssssccc" />
  </g>
</svg>
