<?xml version="1.0" encoding="UTF-8" standalone="no"?>
<!-- Created with Inkscape (http://www.inkscape.org/) -->

<svg
   version="1.2"
   width="100"
   height="100"
   id="svg16"
   sodipodi:docname="bM.svg"
   inkscape:version="1.2.2 (732a01da63, 2022-12-09)"
   xml:space="preserve"
   xmlns:inkscape="http://www.inkscape.org/namespaces/inkscape"
   xmlns:sodipodi="http://sodipodi.sourceforge.net/DTD/sodipodi-0.dtd"
   xmlns:xlink="http://www.w3.org/1999/xlink"
   xmlns="http://www.w3.org/2000/svg"
   xmlns:svg="http://www.w3.org/2000/svg"><defs
     id="defs20"><linearGradient
       inkscape:collect="always"
       id="linearGradient887"><stop
         style="stop-color:#fff9d6;stop-opacity:1;"
         offset="0"
         id="stop883" /><stop
         style="stop-color:#c4c1a3;stop-opacity:1;"
         offset="1"
         id="stop885" /></linearGradient><linearGradient
       inkscape:collect="always"
       id="linearGradient951"><stop
         style="stop-color:#484848;stop-opacity:1;"
         offset="0"
         id="stop947" /><stop
         style="stop-color:#0c0c0c;stop-opacity:1;"
         offset="1"
         id="stop949" /></linearGradient><linearGradient
       inkscape:collect="always"
       id="linearGradient907"><stop
         style="stop-color:#484848;stop-opacity:1;"
         offset="0"
         id="stop903" /><stop
         style="stop-color:#0c0c0c;stop-opacity:1;"
         offset="1"
         id="stop905" /></linearGradient><linearGradient
       inkscape:collect="always"
       id="linearGradient845"><stop
         style="stop-color:#fff9d6;stop-opacity:1;"
         offset="0"
         id="stop841" /><stop
         style="stop-color:#c4c1a3;stop-opacity:1;"
         offset="1"
         id="stop843" /></linearGradient><linearGradient
       inkscape:collect="always"
       xlink:href="#linearGradient845"
       id="linearGradient847"
       x1="12.862311"
       y1="65.072258"
       x2="82.48851"
       y2="64.427925"
       gradientUnits="userSpaceOnUse"
       gradientTransform="matrix(1,0,0,-1,4,107.59)" /><linearGradient
       inkscape:collect="always"
       xlink:href="#linearGradient907"
       id="linearGradient909"
       x1="12.862311"
       y1="65.072258"
       x2="81.546394"
       y2="64.95887"
       gradientUnits="userSpaceOnUse"
       gradientTransform="matrix(1,0,0,-1,4,107.59)" /><linearGradient
       inkscape:collect="always"
       xlink:href="#linearGradient887"
       id="linearGradient1843"
       x1="11.462625"
       y1="50.999996"
       x2="103.0414"
       y2="51.151184"
       gradientUnits="userSpaceOnUse" /><linearGradient
       inkscape:collect="always"
       xlink:href="#linearGradient951"
       id="linearGradient318"
       gradientUnits="userSpaceOnUse"
       x1="11.462625"
       y1="50.999996"
       x2="101.66682"
       y2="52.010288" /></defs><sodipodi:namedview
     id="namedview18"
     pagecolor="#ffffff"
     bordercolor="#000000"
     borderopacity="0.25"
     inkscape:showpageshadow="2"
     inkscape:pageopacity="0.0"
     inkscape:pagecheckerboard="0"
     inkscape:deskcolor="#d1d1d1"
     showgrid="false"
     inkscape:zoom="7.76"
     inkscape:cx="46.842784"
     inkscape:cy="50"
     inkscape:window-width="1920"
     inkscape:window-height="974"
     inkscape:window-x="-11"
     inkscape:window-y="-11"
     inkscape:window-maximized="1"
     inkscape:current-layer="svg16" /><linearGradient
     id="a"
     gradientUnits="userSpaceOnUse"
     x1="27.75"
     y1="54.88"
     x2="73.33"
     y2="54.88"><stop
       offset=".4"
       stop-color="&quot; + wColor + &quot;"
       id="stop2" /><stop
       offset="1"
       stop-color="&quot;+ wShade +&quot;"
       id="stop4" /></linearGradient><linearGradient
     id="b"
     gradientUnits="userSpaceOnUse"
     x1="20"
     y1="52.33"
     x2="80"
     y2="52.33"><stop
       offset="0"
       stop-color="%2343444a"
       id="stop9" /><stop
       offset="1"
       id="stop11" /></linearGradient><path
     style="fill:url(#linearGradient909);fill-opacity:1"
     d="m 36.34,68.82 -1.27,1.27 c -0.72,0.72 -1.49,1.47 -2.31,2.26 -0.82,0.78 -1.85,1.8 -3.11,3.06 v 15.36 h 11.02 v -6.59 h 7.06 v 6.59 h 12.43 v -6.59 h 7.07 v 6.59 h 11.11 c 0,-10.24 -0.09,-15.43 -0.09,-15.43 l -3.02,-2.99 c 0,0 -1.57,-1.54 -2.26,-2.26 l -1.22,-1.27 z"
     id="path14"
     sodipodi:nodetypes="csccccccccccccccccc" /><path
     id="path806"
     style="fill:url(#linearGradient847);fill-opacity:1"
     d="m 74.96,75.41 v 1.41 H 32.95 v -1.41 l 1.41,-1.22 h 39.18 z"
     sodipodi:nodetypes="ccccccc" /><g
     id="g16"
     transform="matrix(0.75,0,0,0.75,8.2653433,4.267745)"><linearGradient
       id="b-1"
       gradientUnits="userSpaceOnUse"
       x1="11.48"
       y1="51"
       x2="88.5"
       y2="51"><stop
         offset="0"
         stop-color="%2343444a"
         id="stop9-3" /><stop
         offset="1"
         id="stop11-2" /></linearGradient><path
       style="fill:url(#linearGradient318);fill-opacity:1"
       d="m 45.73,12.17 c 1.06,1.45 2.14,2.9 3.01,4.47 0.7,1.26 1.42,2.57 1.86,3.95 0.21,0.65 0.36,1.33 0.43,2.01 0.81,0.03 1.62,0.08 2.43,0.16 a 30.56,30.56 0 0 1 15.04,5.66 c 8.74,6.41 13.45,16.93 16.17,27.12 2.97,11.15 3.82,22.78 3.82,34.29 H 33.96 c 0,-3.49 0.22,-7.11 1.33,-10.45 a 14.96,14.96 0 0 1 6.16,-7.86 c 6.66,-3.7 8.92,-11.22 9.96,-18.3 a 14.55,14.55 0 0 1 -5.98,5.04 c -1.57,0.74 -3.23,1.28 -4.77,2.07 -2.44,1.25 -4.32,3.84 -6.07,5.88 -0.78,0.9 -1.49,1.87 -2.27,2.77 -1.5,1.75 -3.18,3.8 -5.47,4.5 -2.67,0.82 -5.54,0.35 -8.03,-0.8 a 13.95,13.95 0 0 1 -6.27,-5.62 c -1.4,-2.47 -1.22,-5.51 -0.72,-8.21 a 18.53,18.53 0 0 1 2.69,-6.32 48.57,48.57 0 0 1 2.22,-3.29 c 0.37,-0.5 0.87,-0.9 1.21,-1.41 1.42,-2.13 2.98,-4.23 3.96,-6.61 0.93,-2.26 0.48,-4.8 0.99,-7.17 0.48,-2.23 1.65,-4.14 2.89,-6.01 0.49,-0.73 1.12,-1.38 1.57,-2.14 0.49,-0.83 0.25,-2.18 0.11,-3.1 -0.15,-0.96 -0.49,-1.79 -0.52,-2.79 -0.03,-1.18 -0.02,-2.39 0.19,-3.55 0.22,-1.27 0.93,-2.38 1.42,-3.56 1.39,1.01 2.85,1.95 4.13,3.11 1.04,0.94 2.01,1.96 2.94,3.01 0.46,0.52 0.88,1.07 1.27,1.65 0.19,0.29 0.38,0.58 0.55,0.89 0.26,0.45 0.29,0.97 0.86,0.86 0.71,-0.14 1.42,-0.25 2.13,-0.36 0.54,-0.08 0.37,-0.28 0.45,-0.76 0.05,-0.35 0.12,-0.7 0.2,-1.04 0.32,-1.36 0.87,-2.67 1.5,-3.91 a 19.8,19.8 0 0 1 3.14,-4.18"
       id="path14-0" /><path
       id="path1802"
       style="fill:url(#linearGradient1843);fill-opacity:1"
       d="m 19.18,57.92 a 10.45,10.45 0 0 0 -2.97,4.3 c -0.17,0.5 -0.51,1.44 -0.09,1.91 0.48,0.54 1.14,0.13 1.59,-0.23 a 10.36,10.36 0 0 0 2.93,-4.24 c 0.19,-0.5 0.6,-1.48 0.17,-1.97 -0.47,-0.55 -1.19,-0.14 -1.63,0.23 m 3.75,13.9 c 0.22,0.05 0.45,0.03 0.67,0.01 0.66,-0.07 0.58,-0.16 0.77,-0.74 0.24,-0.75 0.74,-1.33 1.12,-2.01 a 8.6,8.6 0 0 0 1.38,-4.47 h -2.29 c -0.12,0 -0.17,1.16 -0.22,1.38 -0.25,1.12 -0.95,2.1 -1.55,3.06 a 6.65,6.65 0 0 0 -0.84,1.79 c -0.12,0.42 -0.26,0.56 0.2,0.74 0.23,0.09 0.49,0.18 0.76,0.24 M 34.54,35.97 a 7.87,7.87 0 0 1 1.52,-0.38 c 0.06,-0.08 0,-0.48 0,-0.58 v -1.88 c -2.11,0.5 -4.34,1.17 -5.97,2.66 -1.67,1.51 -2.62,3.65 -3.22,5.78 h 2.11 c 0.37,0 0.57,-1.18 0.74,-1.53 0.33,-0.69 0.87,-1.28 1.32,-1.89 -0.64,1.31 0.41,3.67 2.06,3.29 1.78,-0.4 1.84,-4.2 0.5,-5.09 l 0.94,-0.38 m 5.6,-11 c -3.37,0.37 -6.75,1.3 -9.58,3.22 l 1.32,1.76 c 0.21,0.29 0.87,-0.4 1.15,-0.56 0.76,-0.44 1.58,-0.79 2.42,-1.05 0.49,-0.15 4.69,-1.01 4.69,-1.17 v -2.2 m 10.9,2.18 c 12.17,0.64 19.59,11.04 23.36,21.61 4.27,11.98 5.46,25.01 5.66,37.65 0.01,0.54 0.06,0.4 0.54,0.4 h 3.55 C 84.15,74.22 82.53,61.26 78.12,49.41 74.28,39.09 67.33,28.08 55.83,25.48 a 26.48,26.48 0 0 0 -4.78,-0.6 l -0.01,2.27 m 3.99,24.66 c 1.35,-3.3 1.9,-6.88 1.9,-10.43 h -1.84 c -0.42,0 -0.43,-0.12 -0.43,0.38 a 29.2,29.2 0 0 1 -0.12,2.48 c -0.23,2.59 -0.82,5.36 -2.25,7.57 h 2.74" /></g></svg>
