<?xml version="1.0" encoding="UTF-8" standalone="no"?>
<!-- Created with Inkscape (http://www.inkscape.org/) -->

<svg
   version="1.2"
   width="100"
   height="100"
   id="svg16"
   sodipodi:docname="bQ.svg"
   inkscape:version="1.2.2 (732a01da63, 2022-12-09)"
   xmlns:inkscape="http://www.inkscape.org/namespaces/inkscape"
   xmlns:sodipodi="http://sodipodi.sourceforge.net/DTD/sodipodi-0.dtd"
   xmlns:xlink="http://www.w3.org/1999/xlink"
   xmlns="http://www.w3.org/2000/svg"
   xmlns:svg="http://www.w3.org/2000/svg">
  <defs
     id="defs20">
    <linearGradient
       inkscape:collect="always"
       id="linearGradient922">
      <stop
         style="stop-color:#484848;stop-opacity:1;"
         offset="0"
         id="stop918" />
      <stop
         style="stop-color:#0c0c0c;stop-opacity:1;"
         offset="1"
         id="stop920" />
    </linearGradient>
    <linearGradient
       inkscape:collect="always"
       id="linearGradient777">
      <stop
         style="stop-color:#fff9d6;stop-opacity:1;"
         offset="0"
         id="stop773" />
      <stop
         style="stop-color:#c4c1a3;stop-opacity:1;"
         offset="1"
         id="stop775" />
    </linearGradient>
    <linearGradient
       inkscape:collect="always"
       xlink:href="#linearGradient777"
       id="linearGradient779"
       x1="8.28"
       y1="52.509991"
       x2="91.721068"
       y2="52.509991"
       gradientUnits="userSpaceOnUse" />
    <linearGradient
       inkscape:collect="always"
       xlink:href="#linearGradient922"
       id="linearGradient924"
       x1="8.28"
       y1="52.509991"
       x2="91.721068"
       y2="52.509991"
       gradientUnits="userSpaceOnUse" />
  </defs>
  <sodipodi:namedview
     id="namedview18"
     pagecolor="#ffffff"
     bordercolor="#000000"
     borderopacity="0.25"
     inkscape:showpageshadow="2"
     inkscape:pageopacity="0.0"
     inkscape:pagecheckerboard="0"
     inkscape:deskcolor="#d1d1d1"
     showgrid="false"
     inkscape:zoom="7.76"
     inkscape:cx="48.389175"
     inkscape:cy="50"
     inkscape:window-width="1920"
     inkscape:window-height="974"
     inkscape:window-x="-11"
     inkscape:window-y="-11"
     inkscape:window-maximized="1"
     inkscape:current-layer="svg16" />
  <linearGradient
     id="a"
     gradientUnits="userSpaceOnUse"
     x1="23.63"
     y1="74.91"
     x2="76.38"
     y2="74.91">
    <stop
       offset=".4"
       stop-color="&quot; + wColor + &quot;"
       id="stop2" />
    <stop
       offset="1"
       stop-color="&quot;+ wShade +&quot;"
       id="stop4" />
  </linearGradient>
  <linearGradient
     id="b"
     gradientUnits="userSpaceOnUse"
     x1="8.28"
     y1="52.5"
     x2="91.72"
     y2="52.5">
    <stop
       offset="0"
       stop-color="%2343444a"
       id="stop9" />
    <stop
       offset="1"
       id="stop11" />
  </linearGradient>
  <path
     style="fill-opacity:1;fill:url(#linearGradient924)"
     d="m 90.05,25.71 a 5.37,5.37 0 0 1 1.67,4 5.3,5.3 0 0 1 -1.67,3.86 5.3,5.3 0 0 1 -3.86,1.67 H 86 A 2127.74,2127.74 0 0 1 82.42,48.3 l -2.24,7.92 a 649.23,649.23 0 0 1 -3.86,12.97 13.83,13.83 0 0 1 -1,2.67 10.72,10.72 0 0 0 -1.91,5.82 c 0,0.57 0.11,1.05 0.33,1.43 0.22,0.38 0.49,0.79 0.81,1.24 0.44,0.57 0.87,1.27 1.29,2.1 0.41,0.83 0.62,1.94 0.62,3.34 0,0.95 -0.56,1.75 -1.67,2.38 a 16.4,16.4 0 0 1 -4.24,1.57 c -1.72,0.41 -3.62,0.73 -5.72,0.95 -2.1,0.22 -4.13,0.4 -6.1,0.53 -1.97,0.13 -3.75,0.21 -5.34,0.24 -1.59,0.03 -2.77,0.05 -3.53,0.05 a 221.68,221.68 0 0 1 -8.72,-0.24 84.6,84.6 0 0 1 -6.06,-0.52 c -2.1,-0.26 -3.99,-0.59 -5.67,-1 a 16.89,16.89 0 0 1 -4.2,-1.57 c -1.11,-0.64 -1.67,-1.43 -1.67,-2.38 0,-1.4 0.21,-2.51 0.62,-3.34 0.41,-0.83 0.81,-1.53 1.19,-2.1 0.38,-0.45 0.68,-0.86 0.91,-1.24 0.22,-0.38 0.33,-0.86 0.33,-1.43 0,-1.97 -0.67,-3.91 -2,-5.82 L 24.26,71.2 C 24.1,70.88 23.83,70.07 23.45,68.77 L 21.73,62.95 C 20.97,60.37 19.95,56.8 18.68,52.22 L 15.34,39.92 A 46.06,46.06 0 0 1 14,35.25 H 13.81 A 5.3,5.3 0 0 1 9.95,33.58 5.3,5.3 0 0 1 8.28,29.72 c 0,-1.59 0.56,-2.92 1.67,-4 a 5.5,5.5 0 0 1 7.82,0 5.37,5.37 0 0 1 1.67,4 4.9,4.9 0 0 1 -0.86,2.86 6.57,6.57 0 0 1 -2.19,2 L 29.74,56.32 V 26.66 a 5.92,5.92 0 0 1 -3.15,-1.95 5.23,5.23 0 0 1 -1.24,-3.48 5.5,5.5 0 0 1 1.62,-3.96 5.37,5.37 0 0 1 4,-1.67 c 1.53,0 2.84,0.56 3.96,1.67 a 5.41,5.41 0 0 1 1.67,3.96 c 0,1.27 -0.4,2.4 -1.19,3.38 a 5.52,5.52 0 0 1 -2.91,1.95 l 10.11,28.42 6.1,-30.51 a 5.64,5.64 0 0 1 -3.1,-1.95 5.19,5.19 0 0 1 -1.19,-3.38 5.5,5.5 0 0 1 1.62,-3.96 5.15,5.15 0 0 1 3.81,-1.67 c 1.65,0 3.02,0.56 4.1,1.67 a 5.48,5.48 0 0 1 1.62,3.96 5.56,5.56 0 0 1 -4.19,5.33 L 57.39,54.98 67.5,26.56 A 5.68,5.68 0 0 1 64.59,24.61 5.19,5.19 0 0 1 63.4,21.23 c 0,-1.53 0.56,-2.84 1.67,-3.96 a 5.52,5.52 0 0 1 4.05,-1.67 c 1.53,0 2.83,0.56 3.91,1.67 a 5.48,5.48 0 0 1 1.62,3.96 c 0,1.33 -0.41,2.5 -1.24,3.48 a 5.76,5.76 0 0 1 -3.05,1.95 V 56.32 L 83.62,34.58 a 5.08,5.08 0 0 1 -3.05,-4.86 c 0,-1.59 0.54,-2.92 1.62,-4 a 5.45,5.45 0 0 1 4.01,-1.62 5.28,5.28 0 0 1 3.85,1.61 z"
     id="path14" />
  <path
     id="path783"
     style="fill-opacity:1;fill:url(#linearGradient779)"
     d="m 56.67,67.9 c 2.38,0.1 4.64,0.29 6.77,0.57 2.13,0.29 4.05,0.72 5.77,1.29 a 8.9,8.9 0 0 1 3.81,2.19 l 0.29,-0.48 a 16.22,16.22 0 0 0 0.57,-1.72 c -1.65,-1.53 -4.42,-2.64 -8.29,-3.34 -3.88,-0.7 -9.12,-1.05 -15.73,-1.05 -6.48,0 -11.65,0.35 -15.5,1.05 -3.85,0.7 -6.63,1.81 -8.34,3.34 0.38,0.89 0.57,1.4 0.57,1.52 0.19,0.32 0.35,0.54 0.48,0.67 0.76,-0.89 2,-1.62 3.72,-2.19 1.72,-0.57 3.64,-1 5.77,-1.29 2.13,-0.29 4.35,-0.48 6.67,-0.57 A 153.69,153.69 0 0 1 56.67,67.9 Z M 67.59,81.92 A 99.38,99.38 0 0 0 54.2,80.78 c -2,-0.03 -3.45,-0.05 -4.34,-0.05 l -4.15,0.05 a 99.38,99.38 0 0 0 -13.3,1.14 c -2.29,0.35 -4.2,0.84 -5.72,1.48 -0.45,0.7 -0.67,1.68 -0.67,2.96 0.38,-0.57 2.53,-1.27 6.44,-2.1 3.91,-0.83 9.71,-1.24 17.4,-1.24 7.82,0 13.7,0.41 17.64,1.24 3.94,0.83 6.1,1.53 6.48,2.1 0,-1.27 -0.22,-2.26 -0.67,-2.96 a 24.48,24.48 0 0 0 -5.72,-1.48 z m -4.62,-6.15 c 3.46,0.57 6.18,1.59 8.15,3.05 v -0.57 a 11.74,11.74 0 0 1 0.19,-2.1 C 69.08,74.69 66.24,73.72 62.77,73.24 A 94.16,94.16 0 0 0 50.14,72.53 c -5.09,0 -9.38,0.24 -12.87,0.71 -3.5,0.48 -6.36,1.45 -8.58,2.91 l 0.14,1.14 c 0.03,0.32 0.05,0.63 0.05,0.95 v 0.57 c 1.97,-1.46 4.72,-2.48 8.25,-3.05 3.53,-0.57 7.87,-0.86 13.02,-0.86 5.08,0.01 9.35,0.29 12.82,0.87 z" />
</svg>
