<?xml version="1.0" encoding="UTF-8" standalone="no"?>
<!-- Created with Inkscape (http://www.inkscape.org/) -->

<svg
   version="1.2"
   width="100"
   height="100"
   id="svg13"
   sodipodi:docname="wA.svg"
   inkscape:version="1.2.2 (732a01da63, 2022-12-09)"
   xml:space="preserve"
   xmlns:inkscape="http://www.inkscape.org/namespaces/inkscape"
   xmlns:sodipodi="http://sodipodi.sourceforge.net/DTD/sodipodi-0.dtd"
   xmlns:xlink="http://www.w3.org/1999/xlink"
   xmlns="http://www.w3.org/2000/svg"
   xmlns:svg="http://www.w3.org/2000/svg"><defs
     id="defs17"><linearGradient
       inkscape:collect="always"
       id="linearGradient1054"><stop
         style="stop-color:#484848;stop-opacity:1;"
         offset="0"
         id="stop1050" /><stop
         style="stop-color:#0c0c0c;stop-opacity:1;"
         offset="1"
         id="stop1052" /></linearGradient><linearGradient
       inkscape:collect="always"
       id="linearGradient1019"><stop
         style="stop-color:#484848;stop-opacity:1;"
         offset="0"
         id="stop1015" /><stop
         style="stop-color:#0c0c0c;stop-opacity:1;"
         offset="1"
         id="stop1017" /></linearGradient><linearGradient
       inkscape:collect="always"
       id="linearGradient1011"><stop
         style="stop-color:#fff9d6;stop-opacity:1;"
         offset="0"
         id="stop1007" /><stop
         style="stop-color:#c4c1a3;stop-opacity:1;"
         offset="1"
         id="stop1009" /></linearGradient><linearGradient
       inkscape:collect="always"
       xlink:href="#linearGradient1011"
       id="linearGradient1013"
       x1="11.429458"
       y1="51.005001"
       x2="88.559998"
       y2="51.005001"
       gradientUnits="userSpaceOnUse" /><linearGradient
       inkscape:collect="always"
       xlink:href="#linearGradient1019"
       id="linearGradient1021"
       x1="11.429458"
       y1="51.005001"
       x2="88.559998"
       y2="51.005001"
       gradientUnits="userSpaceOnUse" /><linearGradient
       inkscape:collect="always"
       xlink:href="#linearGradient1011"
       id="linearGradient916"
       x1="7.9969296"
       y1="52.400002"
       x2="91.800003"
       y2="52.400002"
       gradientUnits="userSpaceOnUse" /><linearGradient
       inkscape:collect="always"
       xlink:href="#linearGradient1054"
       id="linearGradient471"
       gradientUnits="userSpaceOnUse"
       x1="7.9969296"
       y1="52.400002"
       x2="91.800003"
       y2="52.400002" /></defs><sodipodi:namedview
     id="namedview15"
     pagecolor="#ffffff"
     bordercolor="#000000"
     borderopacity="0.25"
     inkscape:showpageshadow="2"
     inkscape:pageopacity="0.0"
     inkscape:pagecheckerboard="0"
     inkscape:deskcolor="#d1d1d1"
     showgrid="false"
     inkscape:zoom="2.7435743"
     inkscape:cx="49.388128"
     inkscape:cy="-20.41133"
     inkscape:window-width="1920"
     inkscape:window-height="974"
     inkscape:window-x="-11"
     inkscape:window-y="-11"
     inkscape:window-maximized="1"
     inkscape:current-layer="svg13" /><linearGradient
     id="a"
     gradientUnits="userSpaceOnUse"
     x1="11.42"
     y1="51"
     x2="88.55"
     y2="51"><stop
       offset=".4"
       stop-color="&quot; + wColor + &quot;"
       id="stop2" /><stop
       offset="1"
       stop-color="&quot;+ wShade +&quot;"
       id="stop4" /></linearGradient><g
     id="g415"
     transform="matrix(0.45961941,0.45961941,-0.45961941,0.45961941,66.084173,-6.183565)"><path
       d="m 86.2,24 c 1.5,0 2.8,0.6 3.9,1.7 1.1,1.1 1.7,2.4 1.7,3.9 0,1.6 -0.6,2.9 -1.7,4 a 5.28,5.28 0 0 1 -3.9,1.6 H 86 l -1.5,5.7 c -0.6,2.3 -1.3,4.8 -2,7.4 -0.7,2.6 -1.5,5.3 -2.2,8 -0.8,2.7 -1.5,5.2 -2.1,7.4 -0.7,2.2 -1.3,4.1 -1.8,5.6 -0.5,1.5 -0.9,2.3 -1.1,2.5 a 9.8,9.8 0 0 0 -1.9,5.8 5,5 0 0 0 1.1,2.7 c 0.4,0.6 0.8,1.3 1.2,2.1 0.4,0.8 0.6,1.9 0.6,3.3 0,0.9 -0.6,1.7 -1.7,2.3 -1.1,0.6 -2.5,1.2 -4.2,1.6 -1.7,0.4 -3.6,0.7 -5.7,1 -2.1,0.3 -4.1,0.4 -6.1,0.6 -2,0.1 -3.8,0.2 -5.3,0.2 H 46.4 C 44.8,91.4 43,91.3 41.1,91.2 39.2,91.1 37.1,90.9 35,90.6 32.9,90.3 31,90 29.3,89.6 27.6,89.2 26.2,88.7 25.1,88 24,87.4 23.4,86.6 23.4,85.7 c 0,-1.4 0.2,-2.5 0.6,-3.3 0.4,-0.8 0.8,-1.5 1.2,-2.1 0.8,-0.9 1.2,-1.8 1.2,-2.7 0,-2 -0.7,-3.9 -2,-5.8 -0.1,-0.1 -0.2,-0.3 -0.3,-0.6 L 23.3,68.8 21.5,63 C 20.7,60.4 19.7,56.8 18.4,52.3 L 15,40 C 14.7,38.9 14.4,37.9 14.1,37.1 13.8,36.3 13.7,35.7 13.5,35.2 12,35.2 10.7,34.7 9.6,33.6 A 5.35,5.35 0 0 1 8,29.6 C 8,28.1 8.5,26.8 9.6,25.7 10.7,24.6 12,24 13.5,24 c 1.5,0 2.8,0.6 4,1.7 a 5.38,5.38 0 0 1 0.8,6.9 c -0.6,0.9 -1.3,1.5 -2.2,2.1 L 29.5,56.5 V 26.6 c -1.3,-0.3 -2.3,-0.9 -3.2,-1.9 -0.9,-1 -1.3,-2.1 -1.3,-3.5 0,-1.6 0.6,-2.9 1.7,-4 1.1,-1.1 2.4,-1.6 3.9,-1.6 1.7,0 3,0.5 4.1,1.6 1.1,1.1 1.6,2.4 1.6,4 0,1.3 -0.4,2.4 -1.1,3.4 -0.8,1 -1.7,1.6 -2.9,2 l 10.2,28.4 6,-30.6 c -1.1,-0.3 -2.1,-1 -3,-2 -0.8,-1 -1.2,-2.1 -1.2,-3.4 0,-1.6 0.6,-2.9 1.7,-4 1.1,-1.1 2.4,-1.6 3.9,-1.6 1.6,0 2.9,0.5 4.1,1.6 1.1,1.1 1.7,2.4 1.7,4 0,1.3 -0.4,2.4 -1.2,3.4 -0.8,1 -1.8,1.6 -3,2 l 6,30.6 10.1,-28.5 c -1.1,-0.3 -2.1,-1 -2.9,-2 -0.8,-1 -1.2,-2.1 -1.2,-3.4 0,-1.6 0.5,-2.9 1.6,-4 1.1,-1.1 2.4,-1.6 4.1,-1.6 1.5,0 2.8,0.5 3.9,1.6 1.1,1.1 1.7,2.4 1.7,4 0,1.3 -0.4,2.5 -1.3,3.5 -0.9,1 -1.9,1.6 -3.2,1.9 V 56.3 L 83.7,34.5 c -2,-1 -3,-2.7 -3,-5.1 0,-1.5 0.5,-2.8 1.6,-3.9 1,-0.9 2.3,-1.5 3.9,-1.5 z"
       id="path9-7"
       style="fill:url(#linearGradient471);fill-opacity:1" /><path
       id="path303"
       d="m 10.6,29.5 c 0,1 0.3,1.7 0.9,2.3 0.6,0.6 1.4,0.9 2.2,0.9 A 3.26,3.26 0 0 0 17,29.5 c 0,-0.9 -0.3,-1.6 -1,-2.2 -0.6,-0.6 -1.4,-0.9 -2.3,-0.9 -0.9,0 -1.6,0.3 -2.2,0.9 -0.6,0.6 -0.9,1.3 -0.9,2.2 z m 7.6,12.4 c 0.8,3.2 1.8,6.7 2.8,10.4 1,3.7 2,7 3,10.1 0.7,-0.4 1.5,-0.7 2.4,-1 0.9,-0.3 1.9,-0.6 3,-1 -0.4,-0.6 -1,-1.7 -1.9,-3.1 -0.9,-1.4 -1.8,-3 -2.9,-4.7 -1.1,-1.7 -2.2,-3.6 -3.3,-5.4 -1.1,-1.9 -2.2,-3.7 -3.1,-5.3 z m 31.7,22.9 c 6.7,0 11.9,0.3 15.8,1 3.8,0.7 6.6,1.8 8.3,3.4 0.3,-0.6 0.5,-1.2 0.7,-1.9 0.2,-0.7 0.4,-1.5 0.8,-2.5 -1,-0.6 -2.4,-1.2 -4.1,-1.7 -1.7,-0.5 -3.6,-0.9 -5.8,-1.2 -2.2,-0.3 -4.6,-0.6 -7.2,-0.8 -2.6,-0.2 -5.3,-0.2 -8.2,-0.2 -2.4,0 -4.8,0.1 -7.3,0.2 -2.5,0.1 -4.9,0.3 -7.2,0.7 -2.3,0.4 -4.4,0.7 -6.3,1.2 -1.9,0.5 -3.5,1.1 -4.6,1.8 0.3,1 0.5,1.8 0.7,2.5 0.2,0.7 0.4,1.3 0.7,1.9 1.7,-1.6 4.5,-2.7 8.3,-3.4 3.8,-0.7 8.8,-1 15.4,-1 z m 0,24.3 c 7.8,0 13.7,-0.4 17.7,-1.2 3.9,-0.8 6.1,-1.5 6.5,-2.1 -0.4,-0.7 -2.5,-1.4 -6.5,-2.2 -3.9,-0.8 -9.8,-1.2 -17.7,-1.2 -7.7,0 -13.5,0.4 -17.4,1.2 -3.9,0.8 -6.1,1.5 -6.5,2.2 0.4,0.6 2.5,1.3 6.4,2.1 3.8,0.8 9.6,1.2 17.5,1.2 z m 0,-15.4 c -10.1,0 -17.2,1.5 -21.1,4.5 -0.1,0.8 -0.3,1.4 -0.6,2 -0.3,0.5 -0.6,1 -1,1.5 -0.1,0.2 -0.2,0.4 -0.3,0.5 l -0.3,0.6 c 1.5,-0.6 3.5,-1.1 5.8,-1.5 2.3,-0.4 4.6,-0.7 7,-0.9 2.3,-0.2 4.5,-0.3 6.4,-0.4 1.9,-0.1 3.3,-0.1 4.2,-0.1 0.9,0 2.3,0 4.3,0.1 2,0.1 4.1,0.2 6.4,0.4 2.3,0.2 4.6,0.5 7,0.9 2.3,0.4 4.2,0.9 5.8,1.5 -0.1,-0.3 -0.2,-0.5 -0.3,-0.6 -0.1,-0.2 -0.2,-0.3 -0.3,-0.5 -0.3,-0.4 -0.6,-0.9 -1,-1.5 -0.3,-0.5 -0.5,-1.2 -0.6,-2 -4.1,-3 -11.2,-4.5 -21.4,-4.5 z m 0,-6.5 c -2,0 -4.2,0 -6.6,0.1 -2.4,0.1 -4.6,0.3 -6.8,0.6 -2.2,0.3 -4.1,0.7 -5.8,1.2 -1.7,0.5 -2.9,1.3 -3.7,2.2 0.4,0.6 0.7,1.2 0.9,2 0.2,0.8 0.5,1.5 0.7,2.2 2.2,-1.5 5.1,-2.5 8.5,-3 3.5,-0.5 7.7,-0.8 12.6,-0.8 5.2,0 9.5,0.3 12.9,0.8 3.4,0.5 6.3,1.5 8.5,3 0.3,-0.7 0.5,-1.4 0.8,-2.2 0.3,-0.8 0.6,-1.4 1,-2 C 72,70.3 70.7,69.6 69,69.1 67.3,68.6 65.3,68.1 63.2,67.9 61,67.6 58.8,67.4 56.4,67.3 54.2,67.2 52,67.2 49.9,67.2 Z m -22.4,-46 c 0,0.9 0.3,1.7 1,2.3 0.7,0.6 1.4,1 2.2,1 1,0 1.7,-0.3 2.4,-1 0.6,-0.6 1,-1.4 1,-2.3 0,-1 -0.3,-1.7 -1,-2.3 C 32.5,18.3 31.7,18 30.7,18 a 3.26,3.26 0 0 0 -3.2,3.2 z M 32,59.9 c 1.5,-0.3 3.1,-0.6 4.7,-0.7 1.6,-0.2 3.1,-0.3 4.6,-0.4 L 32,32.3 Z m 12.2,-1.2 c 0.6,-0.1 1.2,-0.1 1.7,-0.1 h 8 c 0.6,0 1.1,0 1.7,0.1 L 49.8,29.5 Z m 2.4,-39.6 c 0,0.9 0.3,1.6 1,2.2 0.7,0.6 1.4,0.9 2.2,0.9 0.9,0 1.7,-0.3 2.4,-0.9 0.7,-0.6 1,-1.4 1,-2.2 0,-1 -0.4,-1.7 -1,-2.3 -0.7,-0.6 -1.5,-0.9 -2.4,-0.9 -0.8,0 -1.6,0.3 -2.2,0.9 -0.7,0.6 -1,1.4 -1,2.3 z m 12,39.7 c 1.5,0.1 3,0.3 4.6,0.4 1.6,0.2 3.2,0.4 4.7,0.7 V 32.3 Z m 7.2,-37.6 c 0,0.9 0.3,1.7 1,2.3 0.7,0.6 1.4,1 2.3,1 0.8,0 1.6,-0.3 2.2,-1 0.7,-0.6 1,-1.4 1,-2.3 0,-1 -0.3,-1.7 -1,-2.3 C 70.7,18.3 70,18 69.1,18 c -0.9,0 -1.7,0.3 -2.3,0.9 -0.7,0.6 -1,1.4 -1,2.3 z M 76,62.4 c 0.8,-2.7 1.7,-5.9 2.7,-9.5 1,-3.6 2,-7.3 3.1,-11.1 -1,1.7 -2,3.4 -3.2,5.3 -1.1,1.9 -2.2,3.7 -3.3,5.4 -1,1.8 -2,3.3 -2.9,4.7 -0.9,1.4 -1.5,2.4 -1.9,3.1 1,0.3 2,0.6 3,1 1,0.3 1.8,0.7 2.5,1.1 z M 86.2,32.8 a 3.26,3.26 0 0 0 3.3,-3.2 c 0,-0.9 -0.3,-1.6 -1,-2.2 -0.6,-0.6 -1.4,-0.9 -2.3,-0.9 -1,0 -1.7,0.4 -2.3,1.1 -0.6,0.7 -0.9,1.4 -0.9,2.1 0,1 0.3,1.7 0.9,2.3 0.6,0.5 1.4,0.8 2.3,0.8 z"
       style="fill:url(#linearGradient916);fill-opacity:1" /></g><g
     id="g249"
     transform="matrix(0.729,0,0,0.729,4.1887121,26.651705)"><path
       d="m 45.69,12.17 a 30.17,30.17 0 0 1 3.03,4.17 22.64,22.64 0 0 1 1.85,3.92 c 0.22,0.65 0.38,1.32 0.48,2 0.07,0.52 0.27,0.35 0.75,0.37 a 30.64,30.64 0 0 1 16.53,5.62 c 8.79,6.32 13.57,16.79 16.32,26.96 3.04,11.25 3.91,23.01 3.91,34.63 H 34.04 c 0,-6.95 1.08,-14.64 7.67,-18.46 6.49,-3.76 8.75,-11.14 9.68,-18.15 a 14.17,14.17 0 0 1 -6.23,5.23 c -1.53,0.71 -3.24,1.13 -4.7,1.99 -2.39,1.42 -4.26,3.97 -6.05,6.05 -0.71,0.87 -1.39,1.74 -2.12,2.59 -1.59,1.83 -3.18,3.83 -5.63,4.48 -2.74,0.72 -5.58,0.2 -8.09,-1.03 A 14.08,14.08 0 0 1 12.4,66.78 C 11.08,64.3 11.32,61.22 11.87,58.55 a 18.45,18.45 0 0 1 2.63,-6.01 45.11,45.11 0 0 1 2.22,-3.29 c 0.37,-0.5 0.87,-0.9 1.21,-1.41 1.46,-2.15 2.94,-4.23 4.01,-6.61 1,-2.23 0.53,-4.8 1.01,-7.17 0.45,-2.19 1.54,-4.07 2.76,-5.91 0.46,-0.69 0.96,-1.32 1.49,-1.95 0.69,-0.83 0.52,-2.04 0.39,-3.04 -0.13,-1.06 -0.53,-2.01 -0.57,-3.08 -0.04,-1.19 -0.02,-2.42 0.2,-3.59 0.24,-1.26 0.92,-2.42 1.49,-3.56 3.61,2.62 7.25,5.5 9.29,9.58 0.7,-0.2 1.42,-0.28 2.13,-0.38 0.47,-0.07 0.59,0.05 0.66,-0.45 0.05,-0.35 0.1,-0.7 0.18,-1.05 0.29,-1.38 0.81,-2.71 1.45,-3.96 a 20.49,20.49 0 0 1 3.27,-4.5"
       id="path9"
       style="fill:url(#linearGradient1021);fill-opacity:1" /><path
       id="path995"
       d="m 27.57,70.54 a 20.64,20.64 0 0 0 3.35,-3.45 c 0.58,-0.76 1.2,-1.32 1.87,-2 1.7,-1.95 3.38,-4.06 5.37,-5.73 a 12.62,12.62 0 0 1 3.52,-1.94 c 2,-0.82 4.08,-1.6 5.74,-3.02 a 13.28,13.28 0 0 0 3.72,-5.62 20.2,20.2 0 0 0 1.07,-6.45 c 0.01,-0.18 -0.07,-1.13 0.1,-1.13 h 2.29 c 0,4.6 -0.22,9.23 -1,13.77 -0.75,4.42 -2.01,8.92 -4.57,12.67 a 19.93,19.93 0 0 1 -4.3,4.54 c -1.72,1.33 -3.58,2.29 -5.01,3.98 -2.68,3.17 -3.3,7.19 -3.43,11.22 h 47.6 C 83.89,74.81 83.27,61.84 79.56,49.75 76.34,39.23 70.02,28.71 58.68,25.78 a 27.97,27.97 0 0 0 -4.63,-0.77 c -0.83,-0.07 -1.67,-0.11 -2.5,-0.12 -0.61,-0.01 -0.37,0.53 -0.41,1.04 -0.03,0.37 -0.08,0.74 -0.18,1.1 -0.13,0.49 -1.17,2.83 -1.54,2.6 l -1.84,-1.14 a 5.78,5.78 0 0 0 1.28,-2.67 c 0.09,-0.78 0.07,-1.6 0.04,-2.38 -0.12,-2.65 -1.63,-5.4 -3.22,-7.47 a 13.37,13.37 0 0 0 -2.56,8.21 c 0,0.42 0.32,3.69 0.4,3.67 l -2.2,0.64 c -0.39,-1.3 -0.66,-2.62 -0.66,-3.98 -2.09,0.23 -4.19,0.91 -5.67,2.51 -0.43,0.46 -0.8,0.99 -1.14,1.52 -0.27,0.43 -0.21,0.33 -0.58,0.1 l -1.6,-0.99 c -0.19,-0.12 1.83,-2.63 2.05,-2.83 a 9.42,9.42 0 0 1 1.56,-1.08 c 0.4,-0.23 0.74,-0.18 0.47,-0.67 l -0.53,-0.88 a 24,24 0 0 0 -5.46,-5.65 c -0.9,2.01 -0.33,4.57 0.14,6.59 0.22,0.96 0.29,2.24 -0.06,3.17 -0.41,1.08 -1.31,2.04 -1.98,2.97 a 14.35,14.35 0 0 0 -2.8,6.72 c -0.15,1.3 -0.03,2.64 -0.24,3.93 a 11.7,11.7 0 0 1 -1.66,4.17 c -1.27,2.1 -2.74,4.04 -4.1,6.08 -1.61,2.41 -3.48,4.57 -4.42,7.37 -0.85,2.53 -1.41,5.92 -0.06,8.36 a 11.5,11.5 0 0 0 6.35,5.3 c 0.31,0.1 0.63,0.18 0.95,0.25 0.27,-2.16 2.23,-3.62 2.58,-5.77 0.03,-0.19 0.01,-1.06 0.16,-1.06 h 2.29 c 0,1.34 -0.34,2.41 -0.96,3.57 -0.31,0.58 -0.56,1.2 -0.97,1.71 a 3.44,3.44 0 0 0 -0.82,1.83 6.4,6.4 0 0 0 3.41,-1.19 m 7.12,-31.73 c 0,1.38 -0.94,3.22 -2.59,2.51 -0.98,-0.42 -1.47,-2.25 -1.01,-3.17 -0.41,0.54 -0.89,1.07 -1.21,1.67 -0.15,0.27 -0.59,1.74 -0.77,1.74 h -2.29 c 0.69,-2.09 1.57,-4.3 3.27,-5.78 1.68,-1.46 3.89,-2.15 6.02,-2.66 v 2.04 c 0,0.54 -0.05,0.42 -0.63,0.55 -0.67,0.15 -1.28,0.42 -1.93,0.63 0.87,0.52 1.14,1.52 1.14,2.47"
       style="fill:url(#linearGradient1013);fill-opacity:1" /><path
       d="m 19.27,57.92 a 9.58,9.58 0 0 0 -2.99,4.39 c -0.14,0.46 -0.47,1.45 -0.02,1.84 0.52,0.46 1.02,0.13 1.5,-0.26 a 10,10 0 0 0 3.02,-4.24 c 0.18,-0.51 0.51,-1.49 0.09,-1.97 -0.48,-0.54 -1.15,-0.12 -1.6,0.24"
       id="path997" /></g></svg>
