<?xml version="1.0" encoding="UTF-8" standalone="no"?>
<!-- Created with Inkscape (http://www.inkscape.org/) -->

<svg
   version="1.2"
   width="100"
   height="100"
   id="svg13"
   sodipodi:docname="wB.svg"
   inkscape:version="1.2.2 (732a01da63, 2022-12-09)"
   xmlns:inkscape="http://www.inkscape.org/namespaces/inkscape"
   xmlns:sodipodi="http://sodipodi.sourceforge.net/DTD/sodipodi-0.dtd"
   xmlns:xlink="http://www.w3.org/1999/xlink"
   xmlns="http://www.w3.org/2000/svg"
   xmlns:svg="http://www.w3.org/2000/svg">
  <defs
     id="defs17">
    <linearGradient
       inkscape:collect="always"
       id="linearGradient918">
      <stop
         style="stop-color:#484848;stop-opacity:1;"
         offset="0"
         id="stop914" />
      <stop
         style="stop-color:#0c0c0c;stop-opacity:1;"
         offset="1"
         id="stop916" />
    </linearGradient>
    <linearGradient
       inkscape:collect="always"
       id="linearGradient904">
      <stop
         style="stop-color:#fff9d6;stop-opacity:1;"
         offset="0"
         id="stop900" />
      <stop
         style="stop-color:#c4c1a3;stop-opacity:1;"
         offset="1"
         id="stop902" />
    </linearGradient>
    <linearGradient
       inkscape:collect="always"
       xlink:href="#linearGradient904"
       id="linearGradient906"
       x1="10.84"
       y1="52.499702"
       x2="89.129997"
       y2="52.499702"
       gradientUnits="userSpaceOnUse" />
    <linearGradient
       inkscape:collect="always"
       xlink:href="#linearGradient918"
       id="linearGradient920"
       x1="10.84"
       y1="52.499702"
       x2="89.129997"
       y2="52.499702"
       gradientUnits="userSpaceOnUse" />
  </defs>
  <sodipodi:namedview
     id="namedview15"
     pagecolor="#ffffff"
     bordercolor="#000000"
     borderopacity="0.25"
     inkscape:showpageshadow="2"
     inkscape:pageopacity="0.0"
     inkscape:pagecheckerboard="0"
     inkscape:deskcolor="#d1d1d1"
     showgrid="false"
     inkscape:zoom="7.76"
     inkscape:cx="48.518041"
     inkscape:cy="50"
     inkscape:window-width="1920"
     inkscape:window-height="974"
     inkscape:window-x="-11"
     inkscape:window-y="-11"
     inkscape:window-maximized="1"
     inkscape:current-layer="svg13" />
  <linearGradient
     id="a"
     gradientUnits="userSpaceOnUse"
     x1="10.86"
     y1="52.5"
     x2="89.14"
     y2="52.5">
    <stop
       offset=".4"
       stop-color="&quot; + wColor + &quot;"
       id="stop2" />
    <stop
       offset="1"
       stop-color="&quot;+ wShade +&quot;"
       id="stop4" />
  </linearGradient>
  <path
     d="m 35.84,62.21 0.34,-0.33 0.33,-0.34 c 0.06,-0.19 -0.03,-0.69 -0.29,-1.48 -0.25,-0.8 -0.92,-1.64 -2.01,-2.53 -3.57,-2.94 -5.36,-7.15 -5.36,-12.63 0,-1.85 0.33,-3.51 1.01,-4.98 0.67,-1.47 1.5,-2.76 2.49,-3.88 a 17.25,17.25 0 0 1 3.16,-2.82 26.5,26.5 0 0 1 3.01,-1.82 c 2.04,-1.15 3.73,-2.15 5.07,-3.01 A 13.61,13.61 0 0 0 46.65,25.85 6.34,6.34 0 0 1 43.4,20.2 c 0,-1.85 0.65,-3.43 1.96,-4.74 A 6.33,6.33 0 0 1 50,13.5 a 6.5,6.5 0 0 1 4.74,1.96 6.45,6.45 0 0 1 1.96,4.74 c 0,1.28 -0.3,2.41 -0.91,3.4 a 5.94,5.94 0 0 1 -2.44,2.25 c 0.77,0.83 1.8,1.67 3.11,2.54 1.31,0.86 3.01,1.87 5.12,3.01 0.89,0.45 1.9,1.05 3.01,1.82 1.12,0.77 2.17,1.71 3.16,2.82 a 15.54,15.54 0 0 1 2.49,3.88 c 0.67,1.47 1,3.13 1,4.98 0,5.42 -1.79,9.63 -5.36,12.63 a 6.28,6.28 0 0 0 -2.06,2.58 4.85,4.85 0 0 0 -0.38,1.34 c 0.03,0.06 0.11,0.14 0.24,0.24 l 0.38,0.33 c 1.78,1.91 2.68,3.89 2.68,5.94 v 2.2 c 0,1.08 -0.8,1.91 -2.39,2.49 a 30.6,30.6 0 0 1 -5.26,1.34 c 0.06,0.64 0.25,1.15 0.57,1.53 a 3.35,3.35 0 0 0 2.29,1.24 c 0.45,0.06 0.86,0.1 1.25,0.1 l 1.91,-0.05 c 1.21,-0.03 2.49,-0.3 3.83,-0.82 1.08,-0.45 2.33,-0.86 3.73,-1.24 1.41,-0.38 2.52,-0.57 3.35,-0.57 2.29,0 4.45,0.38 6.46,1.15 2.01,0.77 3.84,1.88 5.5,3.35 l 1.15,1.15 -5.63,11.67 -2.2,-2.01 a 12.66,12.66 0 0 0 -8.9,-3.45 c -0.38,0 -1.13,0.14 -2.25,0.43 -1.12,0.29 -2.19,0.62 -3.21,1 -1.66,0.7 -3.25,1.1 -4.79,1.2 -1.53,0.1 -2.42,0.11 -2.68,0.05 -1.4,0 -3.01,-0.4 -4.83,-1.2 A 14.1,14.1 0 0 1 50,84.31 a 11.6,11.6 0 0 1 -4.59,3.35 12.83,12.83 0 0 1 -4.79,1.15 c -0.32,0 -1.23,-0.03 -2.73,-0.1 -1.5,-0.06 -3.11,-0.45 -4.83,-1.15 A 23.99,23.99 0 0 0 27.6,86.13 c -3.45,0 -6.38,1.12 -8.81,3.35 l -2.3,2.01 -5.65,-11.67 1.25,-1.15 a 17.25,17.25 0 0 1 11.77,-4.5 c 0.89,0 2.04,0.2 3.45,0.62 1.4,0.42 2.65,0.82 3.73,1.2 1.34,0.57 2.63,0.88 3.88,0.91 l 2.06,0.05 a 6.39,6.39 0 0 0 2.25,-0.48 c 0.41,-0.19 0.8,-0.48 1.15,-0.86 0.35,-0.38 0.59,-0.93 0.72,-1.63 a 28.9,28.9 0 0 1 -5.41,-1.34 c -1.56,-0.57 -2.34,-1.4 -2.34,-2.49 v -2.2 c 0,-2.03 0.83,-3.95 2.49,-5.74 z"
     id="path9"
     style="fill-opacity:1;fill:url(#linearGradient920)" />
  <path
     id="path882"
     d="m 49.04,74.56 c -0.57,0 -1.44,-0.02 -2.58,-0.05 A 29.3,29.3 0 0 1 43.3,74.27 c 0,1.08 -0.18,1.95 -0.53,2.58 a 3.51,3.51 0 0 1 -1.39,1.44 c -0.57,0.32 -1.24,0.54 -2.01,0.67 -0.77,0.13 -1.56,0.19 -2.39,0.19 h -1.05 c -0.64,0 -1.5,-0.08 -2.58,-0.24 A 13.48,13.48 0 0 1 30.29,78.1 39.13,39.13 0 0 0 26.8,77.05 12.56,12.56 0 0 0 23.88,76.57 15.26,15.26 0 0 0 13.64,80.3 l 3.54,7.37 a 15.4,15.4 0 0 1 10.43,-4.12 c 0.64,0 1.58,0.16 2.82,0.48 1.24,0.32 2.38,0.7 3.4,1.15 a 11.9,11.9 0 0 0 4.59,1.05 h 2.2 a 10.34,10.34 0 0 0 5.41,-1.72 7.13,7.13 0 0 0 2.15,-2.25 6.2,6.2 0 0 0 0.86,-3.3 z M 37.61,58 c 0.48,0.7 0.78,1.37 0.91,2.01 a 22.62,22.62 0 0 1 5.31,-2.1 c 1.95,-0.51 4,-0.77 6.17,-0.77 2.23,0 4.34,0.26 6.32,0.77 1.98,0.51 3.7,1.24 5.17,2.2 a 7.74,7.74 0 0 1 2.97,-4.22 c 3,-2.55 4.5,-6.22 4.5,-11.01 0,-1.59 -0.29,-3.01 -0.86,-4.26 a 12.9,12.9 0 0 0 -2.16,-3.3 15.84,15.84 0 0 0 -2.73,-2.44 26.23,26.23 0 0 0 -2.68,-1.67 57.12,57.12 0 0 1 -5.93,-3.4 14.55,14.55 0 0 1 -3.45,-3.11 c -0.19,0 -0.38,0.02 -0.57,0.05 -0.19,0.03 -0.38,0.05 -0.57,0.05 a 2.3,2.3 0 0 1 -0.48,-0.05 3.68,3.68 0 0 0 -0.58,-0.05 14.55,14.55 0 0 1 -3.45,3.11 61.37,61.37 0 0 1 -5.93,3.4 c -0.77,0.45 -1.64,1 -2.63,1.67 a 14.5,14.5 0 0 0 -4.98,5.74 9.59,9.59 0 0 0 -0.91,4.26 c 0,4.79 1.53,8.46 4.59,11.01 0.83,0.71 1.49,1.41 1.97,2.11 z m -1.96,9.57 c 1.02,-0.44 2.3,-0.8 3.83,-1.05 a 89.3,89.3 0 0 1 4.45,-0.62 c 1.44,-0.16 2.73,-0.25 3.88,-0.29 l 2.2,-0.05 2.2,0.05 c 1.15,0.03 2.44,0.13 3.88,0.29 1.44,0.16 2.92,0.37 4.45,0.62 1.53,0.25 2.84,0.61 3.92,1.05 0,-1.4 -0.64,-2.74 -1.91,-4.02 a 14.47,14.47 0 0 0 -5.36,-3.06 21.88,21.88 0 0 0 -7.18,-1.15 c -2.55,0 -4.96,0.4 -7.23,1.2 -2.27,0.8 -4.07,1.9 -5.41,3.3 a 5.8,5.8 0 0 0 -1.72,3.73 z m 4.35,1.1 c -2.46,0.54 -3.88,1.04 -4.26,1.49 0.38,0.51 1.8,1.02 4.26,1.53 2.46,0.51 5.79,0.77 10,0.77 4.21,0 7.54,-0.25 10,-0.77 2.46,-0.51 3.94,-1.02 4.45,-1.53 -0.51,-0.45 -1.99,-0.94 -4.45,-1.49 -2.46,-0.54 -5.79,-0.81 -10,-0.81 -4.21,0 -7.54,0.27 -10,0.81 z M 49.04,44.6 h -6.7 v -2.2 h 6.7 v -6.7 h 2.11 v 6.7 h 6.7 v 2.2 h -6.7 v 6.7 H 49.04 Z M 46.99,16.99 A 4.36,4.36 0 0 0 45.7,20.2 c 0,1.28 0.43,2.35 1.29,3.21 A 4.14,4.14 0 0 0 50,24.7 4.37,4.37 0 0 0 54.5,20.2 4.39,4.39 0 0 0 50,15.7 c -1.15,0 -2.15,0.43 -3.01,1.29 z m 4.16,61.97 c 0,1.28 0.29,2.38 0.86,3.3 a 7.59,7.59 0 0 0 2.11,2.25 c 0.83,0.57 1.72,1 2.68,1.29 0.96,0.29 1.64,0.43 2.06,0.43 h 2.73 c 1.4,0 2.93,-0.35 4.59,-1.05 1.02,-0.45 2.17,-0.83 3.45,-1.15 1.27,-0.32 2.2,-0.48 2.78,-0.48 1.85,0 3.65,0.32 5.41,0.96 1.75,0.64 3.43,1.69 5.03,3.16 l 3.64,-7.37 a 15.07,15.07 0 0 0 -5.03,-2.87 17.4,17.4 0 0 0 -5.41,-0.86 c -0.58,0 -1.48,0.16 -2.73,0.48 a 34.5,34.5 0 0 0 -3.4,1.05 c -1.66,0.64 -3.19,0.97 -4.59,1 l -2.2,0.05 c -0.77,0 -1.53,-0.07 -2.3,-0.19 a 6.83,6.83 0 0 1 -2.06,-0.67 3.8,3.8 0 0 1 -1.49,-1.44 5.03,5.03 0 0 1 -0.57,-2.58 c -0.89,0.13 -1.91,0.21 -3.06,0.24 -1.15,0.03 -1.98,0.05 -2.49,0.05 v 4.4 z"
     style="fill:url(#linearGradient906);fill-opacity:1" />
</svg>
