<?xml version="1.0" encoding="UTF-8" standalone="no"?>
<!-- Created with Inkscape (http://www.inkscape.org/) -->

<svg
   version="1.2"
   width="100"
   height="100"
   id="svg13"
   sodipodi:docname="wC.svg"
   inkscape:version="1.2.2 (732a01da63, 2022-12-09)"
   xml:space="preserve"
   xmlns:inkscape="http://www.inkscape.org/namespaces/inkscape"
   xmlns:sodipodi="http://sodipodi.sourceforge.net/DTD/sodipodi-0.dtd"
   xmlns:xlink="http://www.w3.org/1999/xlink"
   xmlns="http://www.w3.org/2000/svg"
   xmlns:svg="http://www.w3.org/2000/svg"><defs
     id="defs17"><linearGradient
       inkscape:collect="always"
       id="linearGradient882"><stop
         style="stop-color:#fff9d6;stop-opacity:1;"
         offset="0"
         id="stop878" /><stop
         style="stop-color:#c4c1a3;stop-opacity:1;"
         offset="1"
         id="stop880" /></linearGradient><linearGradient
       inkscape:collect="always"
       id="linearGradient1001"><stop
         style="stop-color:#484848;stop-opacity:1;"
         offset="0"
         id="stop997" /><stop
         style="stop-color:#0c0c0c;stop-opacity:1;"
         offset="1"
         id="stop999" /></linearGradient><linearGradient
       inkscape:collect="always"
       id="linearGradient918"><stop
         style="stop-color:#484848;stop-opacity:1;"
         offset="0"
         id="stop914" /><stop
         style="stop-color:#0c0c0c;stop-opacity:1;"
         offset="1"
         id="stop916" /></linearGradient><linearGradient
       inkscape:collect="always"
       id="linearGradient904"><stop
         style="stop-color:#fff9d6;stop-opacity:1;"
         offset="0"
         id="stop900" /><stop
         style="stop-color:#c4c1a3;stop-opacity:1;"
         offset="1"
         id="stop902" /></linearGradient><linearGradient
       inkscape:collect="always"
       xlink:href="#linearGradient904"
       id="linearGradient906"
       x1="10.84"
       y1="52.499702"
       x2="89.129997"
       y2="52.499702"
       gradientUnits="userSpaceOnUse"
       gradientTransform="translate(0,2)" /><linearGradient
       inkscape:collect="always"
       xlink:href="#linearGradient918"
       id="linearGradient920"
       x1="10.84"
       y1="52.499702"
       x2="89.129997"
       y2="52.499702"
       gradientUnits="userSpaceOnUse"
       gradientTransform="translate(0,2)" /><linearGradient
       inkscape:collect="always"
       xlink:href="#linearGradient882"
       id="linearGradient1013"
       x1="11.429458"
       y1="51.005001"
       x2="88.559998"
       y2="51.005001"
       gradientUnits="userSpaceOnUse" /><linearGradient
       inkscape:collect="always"
       xlink:href="#linearGradient1001"
       id="linearGradient441"
       gradientUnits="userSpaceOnUse"
       x1="11.429458"
       y1="51.005001"
       x2="88.559998"
       y2="51.005001" /></defs><sodipodi:namedview
     id="namedview15"
     pagecolor="#ffffff"
     bordercolor="#000000"
     borderopacity="0.25"
     inkscape:showpageshadow="2"
     inkscape:pageopacity="0.0"
     inkscape:pagecheckerboard="0"
     inkscape:deskcolor="#d1d1d1"
     showgrid="false"
     inkscape:zoom="7.76"
     inkscape:cx="46.971649"
     inkscape:cy="50"
     inkscape:window-width="1920"
     inkscape:window-height="974"
     inkscape:window-x="-11"
     inkscape:window-y="-11"
     inkscape:window-maximized="1"
     inkscape:current-layer="svg13" /><linearGradient
     id="a"
     gradientUnits="userSpaceOnUse"
     x1="10.86"
     y1="52.5"
     x2="89.14"
     y2="52.5"><stop
       offset=".4"
       stop-color="&quot; + wColor + &quot;"
       id="stop2" /><stop
       offset="1"
       stop-color="&quot;+ wShade +&quot;"
       id="stop4" /></linearGradient><path
     d="m 35.84,64.21 0.34,-0.33 0.33,-0.34 c 9.304331,-7.184595 22.962995,-4.679245 26.93,-0.09 0.03,0.06 0.11,0.14 0.24,0.24 l 0.38,0.33 c 1.78,1.91 2.68,3.89 2.68,5.94 v 2.2 c 0,1.08 -0.8,1.91 -2.39,2.49 -1.710177,0.6016 -3.470434,1.05003 -5.26,1.34 0.06,0.64 0.25,1.15 0.57,1.53 0.564866,0.705254 1.390675,1.152417 2.29,1.24 0.45,0.06 0.86,0.1 1.25,0.1 l 1.91,-0.05 c 1.21,-0.03 2.49,-0.3 3.83,-0.82 1.08,-0.45 2.33,-0.86 3.73,-1.24 1.41,-0.38 2.52,-0.57 3.35,-0.57 2.29,0 4.45,0.38 6.46,1.15 2.01,0.77 3.84,1.88 5.5,3.35 l 1.15,1.15 -5.63,11.67 -2.2,-2.01 c -2.402893,-2.267181 -5.596827,-3.505279 -8.9,-3.45 -0.38,0 -1.13,0.14 -2.25,0.43 -1.12,0.29 -2.19,0.62 -3.21,1 -1.66,0.7 -3.25,1.1 -4.79,1.2 -1.53,0.1 -2.42,0.11 -2.68,0.05 -1.4,0 -3.01,-0.4 -4.83,-1.2 -1.747138,-0.746461 -3.325397,-1.838317 -4.64,-3.21 -1.228597,1.479942 -2.805922,2.631149 -4.59,3.35 -1.507396,0.689135 -3.13404,1.079665 -4.79,1.15 -0.32,0 -1.23,-0.03 -2.73,-0.1 -1.5,-0.06 -3.11,-0.45 -4.83,-1.15 -1.757391,-0.689849 -3.590072,-1.169837 -5.46,-1.43 -3.45,0 -6.38,1.12 -8.81,3.35 l -2.3,2.01 -5.65,-11.67 1.25,-1.15 c 3.215488,-2.930575 7.419575,-4.537915 11.77,-4.5 0.89,0 2.04,0.2 3.45,0.62 1.4,0.42 2.65,0.82 3.73,1.2 1.34,0.57 2.63,0.88 3.88,0.91 l 2.06,0.05 c 0.772863,-0.02256 1.535217,-0.185192 2.25,-0.48 0.41,-0.19 0.8,-0.48 1.15,-0.86 0.35,-0.38 0.59,-0.93 0.72,-1.63 -1.842293,-0.271327 -3.65405,-0.72008 -5.41,-1.34 -1.56,-0.57 -2.34,-1.4 -2.34,-2.49 v -2.2 c 0,-2.03 0.83,-3.95 2.49,-5.74 z"
     id="path9"
     style="fill:url(#linearGradient920);fill-opacity:1"
     sodipodi:nodetypes="ccccccssccccccccsscccccsccccccccccccccccccccsccssc" /><path
     id="path882"
     d="m 49.04,76.56 c -0.57,0 -1.44,-0.02 -2.58,-0.05 -1.056892,-0.02294 -2.111768,-0.103052 -3.16,-0.24 0,1.08 -0.18,1.95 -0.53,2.58 -0.313765,0.604725 -0.796736,1.105069 -1.39,1.44 -0.57,0.32 -1.24,0.54 -2.01,0.67 -0.77,0.13 -1.56,0.19 -2.39,0.19 h -1.05 c -0.64,0 -1.5,-0.08 -2.58,-0.24 -1.048271,-0.148889 -2.075351,-0.420763 -3.06,-0.81 -1.146394,-0.404015 -2.31099,-0.754395 -3.49,-1.05 -0.951019,-0.274502 -1.931153,-0.43562 -2.92,-0.48 -3.756089,-0.05944 -7.402126,1.268656 -10.24,3.73 l 3.54,7.37 c 2.835308,-2.635364 6.559093,-4.106313 10.43,-4.12 0.64,0 1.58,0.16 2.82,0.48 1.24,0.32 2.38,0.7 3.4,1.15 1.444794,0.652221 3.005337,1.009208 4.59,1.05 h 2.2 c 1.928484,-0.05738 3.80245,-0.65317 5.41,-1.72 0.873599,-0.582539 1.607751,-1.350838 2.15,-2.25 0.589498,-0.997986 0.887436,-2.141237 0.86,-3.3 z M 35.65,69.57 c 1.02,-0.44 2.3,-0.8 3.83,-1.05 1.477899,-0.243956 2.961702,-0.450688 4.45,-0.62 1.44,-0.16 2.73,-0.25 3.88,-0.29 l 2.2,-0.05 2.2,0.05 c 1.15,0.03 2.44,0.13 3.88,0.29 1.44,0.16 2.92,0.37 4.45,0.62 1.53,0.25 2.84,0.61 3.92,1.05 0,-1.4 -0.64,-2.74 -1.91,-4.02 -1.545811,-1.393603 -3.37406,-2.437342 -5.36,-3.06 -2.312437,-0.781129 -4.739276,-1.169829 -7.18,-1.15 -2.55,0 -4.96,0.4 -7.23,1.2 -2.27,0.8 -4.07,1.9 -5.41,3.3 -1.009133,0.991898 -1.620855,2.318483 -1.72,3.73 z m 4.35,1.1 c -2.46,0.54 -3.88,1.04 -4.26,1.49 0.38,0.51 1.8,1.02 4.26,1.53 2.46,0.51 5.79,0.77 10,0.77 4.21,0 7.54,-0.25 10,-0.77 2.46,-0.51 3.94,-1.02 4.45,-1.53 -0.51,-0.45 -1.99,-0.94 -4.45,-1.49 -2.46,-0.54 -5.79,-0.81 -10,-0.81 -4.21,0 -7.54,0.27 -10,0.81 z m 11.15,10.29 c 0,1.28 0.29,2.38 0.86,3.3 0.541913,0.886518 1.260074,1.65233 2.11,2.25 0.83,0.57 1.72,1 2.68,1.29 0.96,0.29 1.64,0.43 2.06,0.43 h 2.73 c 1.4,0 2.93,-0.35 4.59,-1.05 1.02,-0.45 2.17,-0.83 3.45,-1.15 1.27,-0.32 2.2,-0.48 2.78,-0.48 1.85,0 3.65,0.32 5.41,0.96 1.75,0.64 3.43,1.69 5.03,3.16 l 3.64,-7.37 c -1.475354,-1.272859 -3.183556,-2.247519 -5.03,-2.87 -1.746614,-0.570515 -3.57257,-0.860778 -5.41,-0.86 -0.58,0 -1.48,0.16 -2.73,0.48 -1.150641,0.29128 -2.285483,0.641746 -3.4,1.05 -1.66,0.64 -3.19,0.97 -4.59,1 l -2.2,0.05 c -0.77,0 -1.53,-0.07 -2.3,-0.19 -0.717936,-0.112326 -1.413348,-0.338503 -2.06,-0.67 -0.620475,-0.332702 -1.136321,-0.831238 -1.49,-1.44 -0.416516,-0.79384 -0.613306,-1.684572 -0.57,-2.58 -0.89,0.13 -1.91,0.21 -3.06,0.24 -1.15,0.03 -1.98,0.05 -2.49,0.05 v 4.4 z"
     style="fill:url(#linearGradient906);fill-opacity:1"
     sodipodi:nodetypes="cccccssscccccccscccccccccccccssccccsccscsscccsscccsssccscccccccccccccsccc" /><g
     id="g385"
     transform="matrix(0.75,0,0,0.75,8.1609066,1.1215)"><path
       d="m 45.69,12.17 a 30.17,30.17 0 0 1 3.03,4.17 22.64,22.64 0 0 1 1.85,3.92 c 0.22,0.65 0.38,1.32 0.48,2 0.07,0.52 0.27,0.35 0.75,0.37 a 30.64,30.64 0 0 1 16.53,5.62 c 8.79,6.32 13.57,16.79 16.32,26.96 3.04,11.25 3.91,23.01 3.91,34.63 H 34.04 c 0,-6.95 1.08,-14.64 7.67,-18.46 6.49,-3.76 8.75,-11.14 9.68,-18.15 a 14.17,14.17 0 0 1 -6.23,5.23 c -1.53,0.71 -3.24,1.13 -4.7,1.99 -2.39,1.42 -4.26,3.97 -6.05,6.05 -0.71,0.87 -1.39,1.74 -2.12,2.59 -1.59,1.83 -3.18,3.83 -5.63,4.48 -2.74,0.72 -5.58,0.2 -8.09,-1.03 A 14.08,14.08 0 0 1 12.4,66.78 C 11.08,64.3 11.32,61.22 11.87,58.55 a 18.45,18.45 0 0 1 2.63,-6.01 45.11,45.11 0 0 1 2.22,-3.29 c 0.37,-0.5 0.87,-0.9 1.21,-1.41 1.46,-2.15 2.94,-4.23 4.01,-6.61 1,-2.23 0.53,-4.8 1.01,-7.17 0.45,-2.19 1.54,-4.07 2.76,-5.91 0.46,-0.69 0.96,-1.32 1.49,-1.95 0.69,-0.83 0.52,-2.04 0.39,-3.04 -0.13,-1.06 -0.53,-2.01 -0.57,-3.08 -0.04,-1.19 -0.02,-2.42 0.2,-3.59 0.24,-1.26 0.92,-2.42 1.49,-3.56 3.61,2.62 7.25,5.5 9.29,9.58 0.7,-0.2 1.42,-0.28 2.13,-0.38 0.47,-0.07 0.59,0.05 0.66,-0.45 0.05,-0.35 0.1,-0.7 0.18,-1.05 0.29,-1.38 0.81,-2.71 1.45,-3.96 a 20.49,20.49 0 0 1 3.27,-4.5"
       id="path9-7"
       style="fill:url(#linearGradient441);fill-opacity:1" /><path
       id="path995"
       d="m 27.57,70.54 a 20.64,20.64 0 0 0 3.35,-3.45 c 0.58,-0.76 1.2,-1.32 1.87,-2 1.7,-1.95 3.38,-4.06 5.37,-5.73 a 12.62,12.62 0 0 1 3.52,-1.94 c 2,-0.82 4.08,-1.6 5.74,-3.02 a 13.28,13.28 0 0 0 3.72,-5.62 20.2,20.2 0 0 0 1.07,-6.45 c 0.01,-0.18 -0.07,-1.13 0.1,-1.13 h 2.29 c 0,4.6 -0.22,9.23 -1,13.77 -0.75,4.42 -2.01,8.92 -4.57,12.67 a 19.93,19.93 0 0 1 -4.3,4.54 c -1.72,1.33 -3.58,2.29 -5.01,3.98 -2.68,3.17 -3.3,7.19 -3.43,11.22 h 47.6 C 83.89,74.81 83.27,61.84 79.56,49.75 76.34,39.23 70.02,28.71 58.68,25.78 a 27.97,27.97 0 0 0 -4.63,-0.77 c -0.83,-0.07 -1.67,-0.11 -2.5,-0.12 -0.61,-0.01 -0.37,0.53 -0.41,1.04 -0.03,0.37 -0.08,0.74 -0.18,1.1 -0.13,0.49 -1.17,2.83 -1.54,2.6 l -1.84,-1.14 a 5.78,5.78 0 0 0 1.28,-2.67 c 0.09,-0.78 0.07,-1.6 0.04,-2.38 -0.12,-2.65 -1.63,-5.4 -3.22,-7.47 a 13.37,13.37 0 0 0 -2.56,8.21 c 0,0.42 0.32,3.69 0.4,3.67 l -2.2,0.64 c -0.39,-1.3 -0.66,-2.62 -0.66,-3.98 -2.09,0.23 -4.19,0.91 -5.67,2.51 -0.43,0.46 -0.8,0.99 -1.14,1.52 -0.27,0.43 -0.21,0.33 -0.58,0.1 l -1.6,-0.99 c -0.19,-0.12 1.83,-2.63 2.05,-2.83 a 9.42,9.42 0 0 1 1.56,-1.08 c 0.4,-0.23 0.74,-0.18 0.47,-0.67 l -0.53,-0.88 a 24,24 0 0 0 -5.46,-5.65 c -0.9,2.01 -0.33,4.57 0.14,6.59 0.22,0.96 0.29,2.24 -0.06,3.17 -0.41,1.08 -1.31,2.04 -1.98,2.97 a 14.35,14.35 0 0 0 -2.8,6.72 c -0.15,1.3 -0.03,2.64 -0.24,3.93 a 11.7,11.7 0 0 1 -1.66,4.17 c -1.27,2.1 -2.74,4.04 -4.1,6.08 -1.61,2.41 -3.48,4.57 -4.42,7.37 -0.85,2.53 -1.41,5.92 -0.06,8.36 a 11.5,11.5 0 0 0 6.35,5.3 c 0.31,0.1 0.63,0.18 0.95,0.25 0.27,-2.16 2.23,-3.62 2.58,-5.77 0.03,-0.19 0.01,-1.06 0.16,-1.06 h 2.29 c 0,1.34 -0.34,2.41 -0.96,3.57 -0.31,0.58 -0.56,1.2 -0.97,1.71 a 3.44,3.44 0 0 0 -0.82,1.83 6.4,6.4 0 0 0 3.41,-1.19 m 7.12,-31.73 c 0,1.38 -0.94,3.22 -2.59,2.51 -0.98,-0.42 -1.47,-2.25 -1.01,-3.17 -0.41,0.54 -0.89,1.07 -1.21,1.67 -0.15,0.27 -0.59,1.74 -0.77,1.74 h -2.29 c 0.69,-2.09 1.57,-4.3 3.27,-5.78 1.68,-1.46 3.89,-2.15 6.02,-2.66 v 2.04 c 0,0.54 -0.05,0.42 -0.63,0.55 -0.67,0.15 -1.28,0.42 -1.93,0.63 0.87,0.52 1.14,1.52 1.14,2.47"
       style="fill:url(#linearGradient1013);fill-opacity:1" /><path
       d="m 19.27,57.92 a 9.58,9.58 0 0 0 -2.99,4.39 c -0.14,0.46 -0.47,1.45 -0.02,1.84 0.52,0.46 1.02,0.13 1.5,-0.26 a 10,10 0 0 0 3.02,-4.24 c 0.18,-0.51 0.51,-1.49 0.09,-1.97 -0.48,-0.54 -1.15,-0.12 -1.6,0.24"
       id="path997" /></g></svg>
