<?xml version="1.0" encoding="UTF-8" standalone="no"?>
<!-- Created with Inkscape (http://www.inkscape.org/) -->

<svg
   version="1.2"
   width="100"
   height="100"
   id="svg13"
   sodipodi:docname="wG.svg"
   inkscape:version="1.2.2 (732a01da63, 2022-12-09)"
   xml:space="preserve"
   xmlns:inkscape="http://www.inkscape.org/namespaces/inkscape"
   xmlns:sodipodi="http://sodipodi.sourceforge.net/DTD/sodipodi-0.dtd"
   xmlns:xlink="http://www.w3.org/1999/xlink"
   xmlns="http://www.w3.org/2000/svg"
   xmlns:svg="http://www.w3.org/2000/svg"><defs
     id="defs17"><linearGradient
       inkscape:collect="always"
       id="linearGradient1138"><stop
         style="stop-color:#484848;stop-opacity:1;"
         offset="0"
         id="stop1134" /><stop
         style="stop-color:#0c0c0c;stop-opacity:1;"
         offset="1"
         id="stop1136" /></linearGradient><linearGradient
       inkscape:collect="always"
       id="linearGradient1019"><stop
         style="stop-color:#484848;stop-opacity:1;"
         offset="0"
         id="stop1015" /><stop
         style="stop-color:#0c0c0c;stop-opacity:1;"
         offset="1"
         id="stop1017" /></linearGradient><linearGradient
       inkscape:collect="always"
       id="linearGradient1011"><stop
         style="stop-color:#fff9d6;stop-opacity:1;"
         offset="0"
         id="stop1007" /><stop
         style="stop-color:#c4c1a3;stop-opacity:1;"
         offset="1"
         id="stop1009" /></linearGradient><linearGradient
       inkscape:collect="always"
       xlink:href="#linearGradient1011"
       id="linearGradient1013"
       x1="11.429458"
       y1="51.005001"
       x2="88.559998"
       y2="51.005001"
       gradientUnits="userSpaceOnUse" /><linearGradient
       inkscape:collect="always"
       xlink:href="#linearGradient1019"
       id="linearGradient1021"
       x1="11.429458"
       y1="51.005001"
       x2="88.559998"
       y2="51.005001"
       gradientUnits="userSpaceOnUse" /><linearGradient
       inkscape:collect="always"
       xlink:href="#linearGradient1011"
       id="linearGradient1620"
       x1="12.349254"
       y1="52.499027"
       x2="87.639999"
       y2="52.499027"
       gradientUnits="userSpaceOnUse" /><linearGradient
       inkscape:collect="always"
       xlink:href="#linearGradient1138"
       id="linearGradient507"
       gradientUnits="userSpaceOnUse"
       x1="12.349254"
       y1="52.499027"
       x2="87.639999"
       y2="52.499027" /></defs><sodipodi:namedview
     id="namedview15"
     pagecolor="#ffffff"
     bordercolor="#000000"
     borderopacity="0.25"
     inkscape:showpageshadow="2"
     inkscape:pageopacity="0.0"
     inkscape:pagecheckerboard="0"
     inkscape:deskcolor="#d1d1d1"
     showgrid="false"
     inkscape:zoom="2.7435743"
     inkscape:cx="44.285296"
     inkscape:cy="37.906755"
     inkscape:window-width="1920"
     inkscape:window-height="974"
     inkscape:window-x="-11"
     inkscape:window-y="-11"
     inkscape:window-maximized="1"
     inkscape:current-layer="svg13" /><linearGradient
     id="a"
     gradientUnits="userSpaceOnUse"
     x1="11.42"
     y1="51"
     x2="88.55"
     y2="51"><stop
       offset=".4"
       stop-color="&quot; + wColor + &quot;"
       id="stop2" /><stop
       offset="1"
       stop-color="&quot;+ wShade +&quot;"
       id="stop4" /></linearGradient><g
     id="g505"
     transform="matrix(0.45961941,0.45961941,-0.45961941,0.45961941,68.867092,-10.29733)"><path
       d="m 83.56,40.48 c 2.72,2.74 4.08,6.39 4.08,10.97 0,2.04 -0.33,3.96 -1,5.77 -0.67,1.81 -1.52,3.5 -2.56,5.05 a 33.6,33.6 0 0 1 -3.51,4.39 c -1.3,1.37 -2.55,2.65 -3.75,3.86 l -1.33,1.24 c -1.26,1.27 -2.01,2.32 -2.23,3.15 -0.22,0.83 -0.17,1.4 0.14,1.72 a 11.05,11.05 0 0 1 2.42,4.05 12,12 0 0 1 0.81,3.58 c 0,0.82 -0.03,1.48 -0.1,1.95 a 2,2 0 0 1 -0.57,1.19 c -0.76,0.77 -2.08,1.4 -3.94,1.91 -1.87,0.51 -4,0.92 -6.41,1.24 -2.41,0.32 -4.97,0.55 -7.69,0.72 a 137.12,137.12 0 0 1 -15.81,0 c -2.75,-0.16 -5.35,-0.4 -7.79,-0.72 A 47.15,47.15 0 0 1 27.91,89.31 C 26.07,88.8 24.78,88.17 24.02,87.4 a 2.35,2.35 0 0 1 -0.76,-1.81 c 0,-1.66 0.29,-3.26 0.86,-4.82 a 12.71,12.71 0 0 1 2.47,-4.15 c 0.19,-0.32 0.19,-0.89 0,-1.72 C 26.4,74.07 25.7,73.02 24.5,71.75 l -1.23,-1.24 a 113.9,113.9 0 0 1 -3.8,-3.81 35.4,35.4 0 0 1 -3.51,-4.34 22.17,22.17 0 0 1 -2.61,-5.05 16.8,16.8 0 0 1 -1,-5.87 c 0,-4.58 1.36,-8.23 4.08,-10.97 2.72,-2.73 6.39,-4.1 11.01,-4.1 1.2,0 2.53,0.19 3.99,0.57 1.46,0.38 2.96,0.97 4.51,1.76 1.55,0.8 3.08,1.8 4.6,3 a 25.5,25.5 0 0 1 4.27,4.39 51,51 0 0 1 -1.95,-8.72 c -0.35,-2.77 0.08,-4.97 1.28,-6.63 0.88,-1.27 2.43,-2.07 4.65,-2.38 v -6.29 h -4.65 v -2.29 h 4.65 V 13.5 h 2.28 v 6.29 h 4.84 v 2.29 h -4.84 v 6.29 c 2.15,0.26 3.76,1.11 4.84,2.57 A 6,6 0 0 1 57,33.71 c 0.16,1.08 0.17,2.27 0.05,3.57 -0.13,1.3 -0.38,2.69 -0.76,4.15 -0.38,1.46 -0.79,2.96 -1.23,4.48 a 26.52,26.52 0 0 1 13.48,-8.96 c 1.46,-0.38 2.79,-0.57 3.99,-0.57 4.64,0 8.31,1.37 11.03,4.1 z"
       id="path9-7"
       style="fill:url(#linearGradient507);fill-opacity:1" /><path
       id="path248"
       d="m 15.63,56.6 c 0.6,1.59 1.39,3.1 2.37,4.53 a 33.3,33.3 0 0 0 3.27,4.05 c 1.2,1.27 2.4,2.51 3.61,3.72 l 0.38,0.38 c 1.71,-1.84 4.57,-3.05 8.59,-3.62 4.02,-0.57 9,-0.89 14.95,-0.95 -0.13,-4.58 -0.98,-8.51 -2.56,-11.78 a 27.74,27.74 0 0 0 -5.65,-8.06 21.27,21.27 0 0 0 -6.88,-4.58 17.57,17.57 0 0 0 -6.27,-1.43 c -3.99,0 -7.11,1.11 -9.35,3.34 -2.25,2.23 -3.37,5.31 -3.37,9.25 0.01,1.84 0.31,3.56 0.91,5.15 z m 52.22,31.28 c 3.95,-0.83 6.13,-1.59 6.5,-2.29 A 5.54,5.54 0 0 0 72.5,84.68 c -0.98,-0.35 -2.45,-0.67 -4.41,-0.95 a 97.77,97.77 0 0 0 -7.36,-0.71 c -2.94,-0.19 -6.5,-0.29 -10.68,-0.29 -4.24,0 -7.85,0.11 -10.82,0.33 a 87.7,87.7 0 0 0 -7.41,0.81 c -1.96,0.32 -3.43,0.63 -4.41,0.95 -0.98,0.31 -1.57,0.6 -1.76,0.86 0.44,0.64 2.64,1.37 6.6,2.2 3.95,0.82 9.89,1.24 17.8,1.24 7.91,-0.01 13.84,-0.42 17.8,-1.24 z m 5.27,-7.49 C 72.68,79.6 72.2,78.88 71.7,78.24 69.67,76.65 66.98,75.73 63.63,75.47 60.28,75.21 56.54,75.09 52.43,75.09 h -4.65 c -4.18,0 -7.96,0.13 -11.34,0.38 -3.39,0.26 -6.12,1.18 -8.21,2.77 -0.51,0.7 -0.97,1.43 -1.38,2.19 a 7.46,7.46 0 0 0 -0.81,2.48 20.78,20.78 0 0 1 4.79,-1.38 c 1.93,-0.36 4,-0.62 6.22,-0.81 2.21,-0.19 4.46,-0.32 6.74,-0.38 a 195.58,195.58 0 0 1 12.44,0 c 2.22,0.06 4.43,0.19 6.65,0.38 2.21,0.19 4.29,0.46 6.22,0.81 1.93,0.35 3.56,0.81 4.89,1.38 A 7.86,7.86 0 0 0 73.12,80.39 Z M 62.67,73 c 3.1,0.19 5.79,0.86 8.07,2 a 9.43,9.43 0 0 1 2.28,-4.01 8.26,8.26 0 0 0 -3.61,-2.1 31.8,31.8 0 0 0 -5.51,-1.19 62.26,62.26 0 0 0 -6.69,-0.52 283.3,283.3 0 0 0 -14.72,0 c -2.44,0.06 -4.68,0.24 -6.74,0.52 -2.06,0.29 -3.86,0.69 -5.41,1.19 a 8.24,8.24 0 0 0 -3.56,2.1 7.32,7.32 0 0 1 2.37,4 21.5,21.5 0 0 1 8.26,-2 c 3.17,-0.19 6.61,-0.28 10.35,-0.28 h 4.65 c 3.75,0.01 7.16,0.1 10.26,0.29 z M 45.11,33.72 c -0.13,0.63 -0.19,1.33 -0.19,2.1 0,2.03 0.38,4.35 1.14,6.96 a 355.89,355.89 0 0 0 3.18,10.3 l 0.81,2.57 c 0.19,-0.82 0.43,-1.68 0.71,-2.57 l 0.9,-2.77 2.18,-7.53 a 25.25,25.25 0 0 0 1.14,-6.96 c 0,-0.76 -0.07,-1.46 -0.19,-2.1 A 5.3,5.3 0 0 0 54.13,32 c -0.38,-0.51 -0.9,-0.91 -1.57,-1.19 a 6.34,6.34 0 0 0 -2.52,-0.43 c -1.83,0 -3.23,0.54 -4.18,1.62 a 4.37,4.37 0 0 0 -0.75,1.72 z M 78.67,65.09 A 33.71,33.71 0 0 0 82,61.08 c 0.98,-1.4 1.79,-2.89 2.42,-4.48 0.63,-1.59 0.95,-3.3 0.95,-5.15 0,-3.94 -1.14,-7.02 -3.42,-9.25 -2.28,-2.22 -5.41,-3.34 -9.4,-3.34 -1.84,0 -3.94,0.48 -6.32,1.43 a 21.4,21.4 0 0 0 -6.83,4.58 27.6,27.6 0 0 0 -5.65,8.06 c -1.58,3.27 -2.47,7.2 -2.66,11.78 5.82,0.06 10.78,0.38 14.86,0.95 4.08,0.57 6.98,1.78 8.69,3.62 l 0.38,-0.48 c 1.2,-1.2 2.42,-2.44 3.65,-3.71 z"
       style="fill:url(#linearGradient1620);fill-opacity:1" /></g><g
     id="g249"
     transform="matrix(0.729,0,0,0.729,4.1887121,22.651705)"><path
       d="m 45.69,12.17 a 30.17,30.17 0 0 1 3.03,4.17 22.64,22.64 0 0 1 1.85,3.92 c 0.22,0.65 0.38,1.32 0.48,2 0.07,0.52 0.27,0.35 0.75,0.37 a 30.64,30.64 0 0 1 16.53,5.62 c 8.79,6.32 13.57,16.79 16.32,26.96 3.04,11.25 3.91,23.01 3.91,34.63 H 34.04 c 0,-6.95 1.08,-14.64 7.67,-18.46 6.49,-3.76 8.75,-11.14 9.68,-18.15 a 14.17,14.17 0 0 1 -6.23,5.23 c -1.53,0.71 -3.24,1.13 -4.7,1.99 -2.39,1.42 -4.26,3.97 -6.05,6.05 -0.71,0.87 -1.39,1.74 -2.12,2.59 -1.59,1.83 -3.18,3.83 -5.63,4.48 -2.74,0.72 -5.58,0.2 -8.09,-1.03 A 14.08,14.08 0 0 1 12.4,66.78 C 11.08,64.3 11.32,61.22 11.87,58.55 a 18.45,18.45 0 0 1 2.63,-6.01 45.11,45.11 0 0 1 2.22,-3.29 c 0.37,-0.5 0.87,-0.9 1.21,-1.41 1.46,-2.15 2.94,-4.23 4.01,-6.61 1,-2.23 0.53,-4.8 1.01,-7.17 0.45,-2.19 1.54,-4.07 2.76,-5.91 0.46,-0.69 0.96,-1.32 1.49,-1.95 0.69,-0.83 0.52,-2.04 0.39,-3.04 -0.13,-1.06 -0.53,-2.01 -0.57,-3.08 -0.04,-1.19 -0.02,-2.42 0.2,-3.59 0.24,-1.26 0.92,-2.42 1.49,-3.56 3.61,2.62 7.25,5.5 9.29,9.58 0.7,-0.2 1.42,-0.28 2.13,-0.38 0.47,-0.07 0.59,0.05 0.66,-0.45 0.05,-0.35 0.1,-0.7 0.18,-1.05 0.29,-1.38 0.81,-2.71 1.45,-3.96 a 20.49,20.49 0 0 1 3.27,-4.5"
       id="path9"
       style="fill:url(#linearGradient1021);fill-opacity:1" /><path
       id="path995"
       d="m 27.57,70.54 a 20.64,20.64 0 0 0 3.35,-3.45 c 0.58,-0.76 1.2,-1.32 1.87,-2 1.7,-1.95 3.38,-4.06 5.37,-5.73 a 12.62,12.62 0 0 1 3.52,-1.94 c 2,-0.82 4.08,-1.6 5.74,-3.02 a 13.28,13.28 0 0 0 3.72,-5.62 20.2,20.2 0 0 0 1.07,-6.45 c 0.01,-0.18 -0.07,-1.13 0.1,-1.13 h 2.29 c 0,4.6 -0.22,9.23 -1,13.77 -0.75,4.42 -2.01,8.92 -4.57,12.67 a 19.93,19.93 0 0 1 -4.3,4.54 c -1.72,1.33 -3.58,2.29 -5.01,3.98 -2.68,3.17 -3.3,7.19 -3.43,11.22 h 47.6 C 83.89,74.81 83.27,61.84 79.56,49.75 76.34,39.23 70.02,28.71 58.68,25.78 a 27.97,27.97 0 0 0 -4.63,-0.77 c -0.83,-0.07 -1.67,-0.11 -2.5,-0.12 -0.61,-0.01 -0.37,0.53 -0.41,1.04 -0.03,0.37 -0.08,0.74 -0.18,1.1 -0.13,0.49 -1.17,2.83 -1.54,2.6 l -1.84,-1.14 a 5.78,5.78 0 0 0 1.28,-2.67 c 0.09,-0.78 0.07,-1.6 0.04,-2.38 -0.12,-2.65 -1.63,-5.4 -3.22,-7.47 a 13.37,13.37 0 0 0 -2.56,8.21 c 0,0.42 0.32,3.69 0.4,3.67 l -2.2,0.64 c -0.39,-1.3 -0.66,-2.62 -0.66,-3.98 -2.09,0.23 -4.19,0.91 -5.67,2.51 -0.43,0.46 -0.8,0.99 -1.14,1.52 -0.27,0.43 -0.21,0.33 -0.58,0.1 l -1.6,-0.99 c -0.19,-0.12 1.83,-2.63 2.05,-2.83 a 9.42,9.42 0 0 1 1.56,-1.08 c 0.4,-0.23 0.74,-0.18 0.47,-0.67 l -0.53,-0.88 a 24,24 0 0 0 -5.46,-5.65 c -0.9,2.01 -0.33,4.57 0.14,6.59 0.22,0.96 0.29,2.24 -0.06,3.17 -0.41,1.08 -1.31,2.04 -1.98,2.97 a 14.35,14.35 0 0 0 -2.8,6.72 c -0.15,1.3 -0.03,2.64 -0.24,3.93 a 11.7,11.7 0 0 1 -1.66,4.17 c -1.27,2.1 -2.74,4.04 -4.1,6.08 -1.61,2.41 -3.48,4.57 -4.42,7.37 -0.85,2.53 -1.41,5.92 -0.06,8.36 a 11.5,11.5 0 0 0 6.35,5.3 c 0.31,0.1 0.63,0.18 0.95,0.25 0.27,-2.16 2.23,-3.62 2.58,-5.77 0.03,-0.19 0.01,-1.06 0.16,-1.06 h 2.29 c 0,1.34 -0.34,2.41 -0.96,3.57 -0.31,0.58 -0.56,1.2 -0.97,1.71 a 3.44,3.44 0 0 0 -0.82,1.83 6.4,6.4 0 0 0 3.41,-1.19 m 7.12,-31.73 c 0,1.38 -0.94,3.22 -2.59,2.51 -0.98,-0.42 -1.47,-2.25 -1.01,-3.17 -0.41,0.54 -0.89,1.07 -1.21,1.67 -0.15,0.27 -0.59,1.74 -0.77,1.74 h -2.29 c 0.69,-2.09 1.57,-4.3 3.27,-5.78 1.68,-1.46 3.89,-2.15 6.02,-2.66 v 2.04 c 0,0.54 -0.05,0.42 -0.63,0.55 -0.67,0.15 -1.28,0.42 -1.93,0.63 0.87,0.52 1.14,1.52 1.14,2.47"
       style="fill:url(#linearGradient1013);fill-opacity:1" /><path
       d="m 19.27,57.92 a 9.58,9.58 0 0 0 -2.99,4.39 c -0.14,0.46 -0.47,1.45 -0.02,1.84 0.52,0.46 1.02,0.13 1.5,-0.26 a 10,10 0 0 0 3.02,-4.24 c 0.18,-0.51 0.51,-1.49 0.09,-1.97 -0.48,-0.54 -1.15,-0.12 -1.6,0.24"
       id="path997" /></g></svg>
