<?xml version="1.0" encoding="UTF-8" standalone="no"?>
<!-- Created with Inkscape (http://www.inkscape.org/) -->

<svg
   version="1.2"
   width="100"
   height="100"
   id="svg13"
   sodipodi:docname="wK.svg"
   inkscape:version="1.2.2 (732a01da63, 2022-12-09)"
   xmlns:inkscape="http://www.inkscape.org/namespaces/inkscape"
   xmlns:sodipodi="http://sodipodi.sourceforge.net/DTD/sodipodi-0.dtd"
   xmlns:xlink="http://www.w3.org/1999/xlink"
   xmlns="http://www.w3.org/2000/svg"
   xmlns:svg="http://www.w3.org/2000/svg">
  <defs
     id="defs17">
    <linearGradient
       inkscape:collect="always"
       id="linearGradient1626">
      <stop
         style="stop-color:#484848;stop-opacity:1;"
         offset="0"
         id="stop1622" />
      <stop
         style="stop-color:#0c0c0c;stop-opacity:1;"
         offset="1"
         id="stop1624" />
    </linearGradient>
    <linearGradient
       inkscape:collect="always"
       id="linearGradient1618">
      <stop
         style="stop-color:#fff9d6;stop-opacity:1;"
         offset="0"
         id="stop1614" />
      <stop
         style="stop-color:#c4c1a3;stop-opacity:1;"
         offset="1"
         id="stop1616" />
    </linearGradient>
    <linearGradient
       inkscape:collect="always"
       xlink:href="#linearGradient1618"
       id="linearGradient1620"
       x1="12.349254"
       y1="52.499027"
       x2="87.639999"
       y2="52.499027"
       gradientUnits="userSpaceOnUse" />
    <linearGradient
       inkscape:collect="always"
       xlink:href="#linearGradient1626"
       id="linearGradient1628"
       x1="12.349254"
       y1="52.499027"
       x2="87.639999"
       y2="52.499027"
       gradientUnits="userSpaceOnUse" />
  </defs>
  <sodipodi:namedview
     id="namedview15"
     pagecolor="#ffffff"
     bordercolor="#000000"
     borderopacity="0.25"
     inkscape:showpageshadow="2"
     inkscape:pageopacity="0.0"
     inkscape:pagecheckerboard="0"
     inkscape:deskcolor="#d1d1d1"
     showgrid="false"
     inkscape:zoom="7.76"
     inkscape:cx="48.389175"
     inkscape:cy="50"
     inkscape:window-width="1920"
     inkscape:window-height="974"
     inkscape:window-x="-11"
     inkscape:window-y="-11"
     inkscape:window-maximized="1"
     inkscape:current-layer="svg13" />
  <linearGradient
     id="a"
     gradientUnits="userSpaceOnUse"
     x1="12.36"
     y1="52.5"
     x2="87.64"
     y2="52.5">
    <stop
       offset=".4"
       stop-color="&quot; + wColor + &quot;"
       id="stop2" />
    <stop
       offset="1"
       stop-color="&quot;+ wShade +&quot;"
       id="stop4" />
  </linearGradient>
  <path
     d="m 83.56,40.48 c 2.72,2.74 4.08,6.39 4.08,10.97 0,2.04 -0.33,3.96 -1,5.77 -0.67,1.81 -1.52,3.5 -2.56,5.05 a 33.6,33.6 0 0 1 -3.51,4.39 c -1.3,1.37 -2.55,2.65 -3.75,3.86 l -1.33,1.24 c -1.26,1.27 -2.01,2.32 -2.23,3.15 -0.22,0.83 -0.17,1.4 0.14,1.72 a 11.05,11.05 0 0 1 2.42,4.05 12,12 0 0 1 0.81,3.58 c 0,0.82 -0.03,1.48 -0.1,1.95 a 2,2 0 0 1 -0.57,1.19 c -0.76,0.77 -2.08,1.4 -3.94,1.91 -1.87,0.51 -4,0.92 -6.41,1.24 -2.41,0.32 -4.97,0.55 -7.69,0.72 a 137.12,137.12 0 0 1 -15.81,0 c -2.75,-0.16 -5.35,-0.4 -7.79,-0.72 A 47.15,47.15 0 0 1 27.91,89.31 C 26.07,88.8 24.78,88.17 24.02,87.4 a 2.35,2.35 0 0 1 -0.76,-1.81 c 0,-1.66 0.29,-3.26 0.86,-4.82 a 12.71,12.71 0 0 1 2.47,-4.15 c 0.19,-0.32 0.19,-0.89 0,-1.72 C 26.4,74.07 25.7,73.02 24.5,71.75 l -1.23,-1.24 a 113.9,113.9 0 0 1 -3.8,-3.81 35.4,35.4 0 0 1 -3.51,-4.34 22.17,22.17 0 0 1 -2.61,-5.05 16.8,16.8 0 0 1 -1,-5.87 c 0,-4.58 1.36,-8.23 4.08,-10.97 2.72,-2.73 6.39,-4.1 11.01,-4.1 1.2,0 2.53,0.19 3.99,0.57 1.46,0.38 2.96,0.97 4.51,1.76 1.55,0.8 3.08,1.8 4.6,3 a 25.5,25.5 0 0 1 4.27,4.39 51,51 0 0 1 -1.95,-8.72 c -0.35,-2.77 0.08,-4.97 1.28,-6.63 0.88,-1.27 2.43,-2.07 4.65,-2.38 v -6.29 h -4.65 v -2.29 h 4.65 V 13.5 h 2.28 v 6.29 h 4.84 v 2.29 h -4.84 v 6.29 c 2.15,0.26 3.76,1.11 4.84,2.57 A 6,6 0 0 1 57,33.71 c 0.16,1.08 0.17,2.27 0.05,3.57 -0.13,1.3 -0.38,2.69 -0.76,4.15 -0.38,1.46 -0.79,2.96 -1.23,4.48 a 26.52,26.52 0 0 1 13.48,-8.96 c 1.46,-0.38 2.79,-0.57 3.99,-0.57 4.64,0 8.31,1.37 11.03,4.1 z"
     id="path9"
     style="fill-opacity:1;fill:url(#linearGradient1628)" />
  <path
     id="path248"
     d="m 15.63,56.6 c 0.6,1.59 1.39,3.1 2.37,4.53 a 33.3,33.3 0 0 0 3.27,4.05 c 1.2,1.27 2.4,2.51 3.61,3.72 l 0.38,0.38 c 1.71,-1.84 4.57,-3.05 8.59,-3.62 4.02,-0.57 9,-0.89 14.95,-0.95 -0.13,-4.58 -0.98,-8.51 -2.56,-11.78 a 27.74,27.74 0 0 0 -5.65,-8.06 21.27,21.27 0 0 0 -6.88,-4.58 17.57,17.57 0 0 0 -6.27,-1.43 c -3.99,0 -7.11,1.11 -9.35,3.34 -2.25,2.23 -3.37,5.31 -3.37,9.25 0.01,1.84 0.31,3.56 0.91,5.15 z m 52.22,31.28 c 3.95,-0.83 6.13,-1.59 6.5,-2.29 A 5.54,5.54 0 0 0 72.5,84.68 c -0.98,-0.35 -2.45,-0.67 -4.41,-0.95 a 97.77,97.77 0 0 0 -7.36,-0.71 c -2.94,-0.19 -6.5,-0.29 -10.68,-0.29 -4.24,0 -7.85,0.11 -10.82,0.33 a 87.7,87.7 0 0 0 -7.41,0.81 c -1.96,0.32 -3.43,0.63 -4.41,0.95 -0.98,0.31 -1.57,0.6 -1.76,0.86 0.44,0.64 2.64,1.37 6.6,2.2 3.95,0.82 9.89,1.24 17.8,1.24 7.91,-0.01 13.84,-0.42 17.8,-1.24 z m 5.27,-7.49 C 72.68,79.6 72.2,78.88 71.7,78.24 69.67,76.65 66.98,75.73 63.63,75.47 60.28,75.21 56.54,75.09 52.43,75.09 h -4.65 c -4.18,0 -7.96,0.13 -11.34,0.38 -3.39,0.26 -6.12,1.18 -8.21,2.77 -0.51,0.7 -0.97,1.43 -1.38,2.19 a 7.46,7.46 0 0 0 -0.81,2.48 20.78,20.78 0 0 1 4.79,-1.38 c 1.93,-0.36 4,-0.62 6.22,-0.81 2.21,-0.19 4.46,-0.32 6.74,-0.38 a 195.58,195.58 0 0 1 12.44,0 c 2.22,0.06 4.43,0.19 6.65,0.38 2.21,0.19 4.29,0.46 6.22,0.81 1.93,0.35 3.56,0.81 4.89,1.38 A 7.86,7.86 0 0 0 73.12,80.39 Z M 62.67,73 c 3.1,0.19 5.79,0.86 8.07,2 a 9.43,9.43 0 0 1 2.28,-4.01 8.26,8.26 0 0 0 -3.61,-2.1 31.8,31.8 0 0 0 -5.51,-1.19 62.26,62.26 0 0 0 -6.69,-0.52 283.3,283.3 0 0 0 -14.72,0 c -2.44,0.06 -4.68,0.24 -6.74,0.52 -2.06,0.29 -3.86,0.69 -5.41,1.19 a 8.24,8.24 0 0 0 -3.56,2.1 7.32,7.32 0 0 1 2.37,4 21.5,21.5 0 0 1 8.26,-2 c 3.17,-0.19 6.61,-0.28 10.35,-0.28 h 4.65 c 3.75,0.01 7.16,0.1 10.26,0.29 z M 45.11,33.72 c -0.13,0.63 -0.19,1.33 -0.19,2.1 0,2.03 0.38,4.35 1.14,6.96 a 355.89,355.89 0 0 0 3.18,10.3 l 0.81,2.57 c 0.19,-0.82 0.43,-1.68 0.71,-2.57 l 0.9,-2.77 2.18,-7.53 a 25.25,25.25 0 0 0 1.14,-6.96 c 0,-0.76 -0.07,-1.46 -0.19,-2.1 A 5.3,5.3 0 0 0 54.13,32 c -0.38,-0.51 -0.9,-0.91 -1.57,-1.19 a 6.34,6.34 0 0 0 -2.52,-0.43 c -1.83,0 -3.23,0.54 -4.18,1.62 a 4.37,4.37 0 0 0 -0.75,1.72 z M 78.67,65.09 A 33.71,33.71 0 0 0 82,61.08 c 0.98,-1.4 1.79,-2.89 2.42,-4.48 0.63,-1.59 0.95,-3.3 0.95,-5.15 0,-3.94 -1.14,-7.02 -3.42,-9.25 -2.28,-2.22 -5.41,-3.34 -9.4,-3.34 -1.84,0 -3.94,0.48 -6.32,1.43 a 21.4,21.4 0 0 0 -6.83,4.58 27.6,27.6 0 0 0 -5.65,8.06 c -1.58,3.27 -2.47,7.2 -2.66,11.78 5.82,0.06 10.78,0.38 14.86,0.95 4.08,0.57 6.98,1.78 8.69,3.62 l 0.38,-0.48 c 1.2,-1.2 2.42,-2.44 3.65,-3.71 z"
     style="fill-opacity:1;fill:url(#linearGradient1620)" />
</svg>
