<?xml version="1.0" encoding="UTF-8" standalone="no"?>
<!-- Created with Inkscape (http://www.inkscape.org/) -->

<svg
   version="1.2"
   width="100"
   height="100"
   id="svg13"
   sodipodi:docname="wM.svg"
   inkscape:version="1.2.2 (732a01da63, 2022-12-09)"
   xml:space="preserve"
   xmlns:inkscape="http://www.inkscape.org/namespaces/inkscape"
   xmlns:sodipodi="http://sodipodi.sourceforge.net/DTD/sodipodi-0.dtd"
   xmlns:xlink="http://www.w3.org/1999/xlink"
   xmlns="http://www.w3.org/2000/svg"
   xmlns:svg="http://www.w3.org/2000/svg"><defs
     id="defs17"><linearGradient
       inkscape:collect="always"
       id="linearGradient883"><stop
         style="stop-color:#fff9d6;stop-opacity:1;"
         offset="0"
         id="stop879" /><stop
         style="stop-color:#c4c1a3;stop-opacity:1;"
         offset="1"
         id="stop881" /></linearGradient><linearGradient
       inkscape:collect="always"
       id="linearGradient966"><stop
         style="stop-color:#484848;stop-opacity:1;"
         offset="0"
         id="stop962" /><stop
         style="stop-color:#0c0c0c;stop-opacity:1;"
         offset="1"
         id="stop964" /></linearGradient><linearGradient
       inkscape:collect="always"
       id="linearGradient1002"><stop
         style="stop-color:#484848;stop-opacity:1;"
         offset="0"
         id="stop998" /><stop
         style="stop-color:#0c0c0c;stop-opacity:1;"
         offset="1"
         id="stop1000" /></linearGradient><linearGradient
       inkscape:collect="always"
       id="linearGradient940"><stop
         style="stop-color:#fff9d6;stop-opacity:1;"
         offset="0"
         id="stop936" /><stop
         style="stop-color:#c4c1a3;stop-opacity:1;"
         offset="1"
         id="stop938" /></linearGradient><linearGradient
       inkscape:collect="always"
       xlink:href="#linearGradient940"
       id="linearGradient942"
       x1="12.892"
       y1="65.188751"
       x2="81.82238"
       y2="64.931015"
       gradientUnits="userSpaceOnUse"
       gradientTransform="matrix(1,0,0,-1,3.97,107.71)" /><linearGradient
       inkscape:collect="always"
       xlink:href="#linearGradient1002"
       id="linearGradient1004"
       x1="12.892"
       y1="65.188751"
       x2="79.760521"
       y2="64.544418"
       gradientUnits="userSpaceOnUse"
       gradientTransform="matrix(1,0,0,-1,3.97,107.71)" /><linearGradient
       inkscape:collect="always"
       xlink:href="#linearGradient883"
       id="linearGradient1013"
       x1="11.429459"
       y1="51.004997"
       x2="103.33663"
       y2="51.348644"
       gradientUnits="userSpaceOnUse" /><linearGradient
       inkscape:collect="always"
       xlink:href="#linearGradient966"
       id="linearGradient336"
       gradientUnits="userSpaceOnUse"
       x1="11.429459"
       y1="51.004997"
       x2="100.58749"
       y2="51.864109" /></defs><sodipodi:namedview
     id="namedview15"
     pagecolor="#ffffff"
     bordercolor="#000000"
     borderopacity="0.25"
     inkscape:showpageshadow="2"
     inkscape:pageopacity="0.0"
     inkscape:pagecheckerboard="0"
     inkscape:deskcolor="#d1d1d1"
     showgrid="false"
     inkscape:zoom="7.76"
     inkscape:cx="62.177835"
     inkscape:cy="50.64433"
     inkscape:window-width="1920"
     inkscape:window-height="974"
     inkscape:window-x="-11"
     inkscape:window-y="-11"
     inkscape:window-maximized="1"
     inkscape:current-layer="svg13" /><linearGradient
     id="a"
     gradientUnits="userSpaceOnUse"
     x1="20"
     y1="52.33"
     x2="80"
     y2="52.33"><stop
       offset=".4"
       stop-color="&quot; + wColor + &quot;"
       id="stop2" /><stop
       offset="1"
       stop-color="&quot;+ wShade +&quot;"
       id="stop4" /></linearGradient><path
     d="m 36.46,68.82 c 0,0 -0.65,0.55 -1.37,1.28 l -2.32,2.27 c -0.82,0.79 -1.86,1.85 -3.12,3.17 v 15.52 h 10.98 v -6.91 h 7.19 v 6.91 h 12.3 v -6.91 h 7.19 v 6.91 h 10.98 c 0,-10.35 0.0068,-15.917707 0.0068,-15.917707 C 77.666781,74.482293 76,73.16 75.21,72.37 L 72.94,70.1 71.66,68.82 Z"
     id="path9"
     style="fill:url(#linearGradient1004);fill-opacity:1"
     sodipodi:nodetypes="cccccccccccccccsccc" /><path
     id="path345"
     d="M 76.12,77.05 V 88.88 H 69.49 V 81.97 H 57.94 v 6.91 H 49.99 V 81.97 H 38.45 v 6.91 H 31.82 V 77.05 Z M 33.34,74.87 c 0.69,-0.7 1.5,-1.48 2.41,-2.37 0.91,-0.88 1.62,-1.61 2.13,-2.18 h 32.37 c 0.44,0.57 1.1,1.29 1.99,2.18 l 2.36,2.37 z"
     style="fill:url(#linearGradient942);fill-opacity:1"
     sodipodi:nodetypes="cccccccccccccccccccc" /><g
     id="g278"
     transform="translate(0.12899996,3.146)"><g
       id="g385"
       transform="matrix(0.75,0,0,0.75,8.1609066,1.1215)"><path
         d="m 45.69,12.17 a 30.17,30.17 0 0 1 3.03,4.17 22.64,22.64 0 0 1 1.85,3.92 c 0.22,0.65 0.38,1.32 0.48,2 0.07,0.52 0.27,0.35 0.75,0.37 a 30.64,30.64 0 0 1 16.53,5.62 c 8.79,6.32 13.57,16.79 16.32,26.96 3.04,11.25 3.91,23.01 3.91,34.63 H 34.04 c 0,-6.95 1.08,-14.64 7.67,-18.46 6.49,-3.76 8.75,-11.14 9.68,-18.15 a 14.17,14.17 0 0 1 -6.23,5.23 c -1.53,0.71 -3.24,1.13 -4.7,1.99 -2.39,1.42 -4.26,3.97 -6.05,6.05 -0.71,0.87 -1.39,1.74 -2.12,2.59 -1.59,1.83 -3.18,3.83 -5.63,4.48 -2.74,0.72 -5.58,0.2 -8.09,-1.03 A 14.08,14.08 0 0 1 12.4,66.78 C 11.08,64.3 11.32,61.22 11.87,58.55 a 18.45,18.45 0 0 1 2.63,-6.01 45.11,45.11 0 0 1 2.22,-3.29 c 0.37,-0.5 0.87,-0.9 1.21,-1.41 1.46,-2.15 2.94,-4.23 4.01,-6.61 1,-2.23 0.53,-4.8 1.01,-7.17 0.45,-2.19 1.54,-4.07 2.76,-5.91 0.46,-0.69 0.96,-1.32 1.49,-1.95 0.69,-0.83 0.52,-2.04 0.39,-3.04 -0.13,-1.06 -0.53,-2.01 -0.57,-3.08 -0.04,-1.19 -0.02,-2.42 0.2,-3.59 0.24,-1.26 0.92,-2.42 1.49,-3.56 3.61,2.62 7.25,5.5 9.29,9.58 0.7,-0.2 1.42,-0.28 2.13,-0.38 0.47,-0.07 0.59,0.05 0.66,-0.45 0.05,-0.35 0.1,-0.7 0.18,-1.05 0.29,-1.38 0.81,-2.71 1.45,-3.96 a 20.49,20.49 0 0 1 3.27,-4.5"
         id="path9-7"
         style="fill:url(#linearGradient336);fill-opacity:1" /><path
         id="path995"
         d="m 27.57,70.54 a 20.64,20.64 0 0 0 3.35,-3.45 c 0.58,-0.76 1.2,-1.32 1.87,-2 1.7,-1.95 3.38,-4.06 5.37,-5.73 a 12.62,12.62 0 0 1 3.52,-1.94 c 2,-0.82 4.08,-1.6 5.74,-3.02 a 13.28,13.28 0 0 0 3.72,-5.62 20.2,20.2 0 0 0 1.07,-6.45 c 0.01,-0.18 -0.07,-1.13 0.1,-1.13 h 2.29 c 0,4.6 -0.22,9.23 -1,13.77 -0.75,4.42 -2.01,8.92 -4.57,12.67 a 19.93,19.93 0 0 1 -4.3,4.54 c -1.72,1.33 -3.58,2.29 -5.01,3.98 -2.68,3.17 -3.3,7.19 -3.43,11.22 h 47.6 C 83.89,74.81 83.27,61.84 79.56,49.75 76.34,39.23 70.02,28.71 58.68,25.78 a 27.97,27.97 0 0 0 -4.63,-0.77 c -0.83,-0.07 -1.67,-0.11 -2.5,-0.12 -0.61,-0.01 -0.37,0.53 -0.41,1.04 -0.03,0.37 -0.08,0.74 -0.18,1.1 -0.13,0.49 -1.17,2.83 -1.54,2.6 l -1.84,-1.14 a 5.78,5.78 0 0 0 1.28,-2.67 c 0.09,-0.78 0.07,-1.6 0.04,-2.38 -0.12,-2.65 -1.63,-5.4 -3.22,-7.47 a 13.37,13.37 0 0 0 -2.56,8.21 c 0,0.42 0.32,3.69 0.4,3.67 l -2.2,0.64 c -0.39,-1.3 -0.66,-2.62 -0.66,-3.98 -2.09,0.23 -4.19,0.91 -5.67,2.51 -0.43,0.46 -0.8,0.99 -1.14,1.52 -0.27,0.43 -0.21,0.33 -0.58,0.1 l -1.6,-0.99 c -0.19,-0.12 1.83,-2.63 2.05,-2.83 a 9.42,9.42 0 0 1 1.56,-1.08 c 0.4,-0.23 0.74,-0.18 0.47,-0.67 l -0.53,-0.88 a 24,24 0 0 0 -5.46,-5.65 c -0.9,2.01 -0.33,4.57 0.14,6.59 0.22,0.96 0.29,2.24 -0.06,3.17 -0.41,1.08 -1.31,2.04 -1.98,2.97 a 14.35,14.35 0 0 0 -2.8,6.72 c -0.15,1.3 -0.03,2.64 -0.24,3.93 a 11.7,11.7 0 0 1 -1.66,4.17 c -1.27,2.1 -2.74,4.04 -4.1,6.08 -1.61,2.41 -3.48,4.57 -4.42,7.37 -0.85,2.53 -1.41,5.92 -0.06,8.36 a 11.5,11.5 0 0 0 6.35,5.3 c 0.31,0.1 0.63,0.18 0.95,0.25 0.27,-2.16 2.23,-3.62 2.58,-5.77 0.03,-0.19 0.01,-1.06 0.16,-1.06 h 2.29 c 0,1.34 -0.34,2.41 -0.96,3.57 -0.31,0.58 -0.56,1.2 -0.97,1.71 a 3.44,3.44 0 0 0 -0.82,1.83 6.4,6.4 0 0 0 3.41,-1.19 m 7.12,-31.73 c 0,1.38 -0.94,3.22 -2.59,2.51 -0.98,-0.42 -1.47,-2.25 -1.01,-3.17 -0.41,0.54 -0.89,1.07 -1.21,1.67 -0.15,0.27 -0.59,1.74 -0.77,1.74 h -2.29 c 0.69,-2.09 1.57,-4.3 3.27,-5.78 1.68,-1.46 3.89,-2.15 6.02,-2.66 v 2.04 c 0,0.54 -0.05,0.42 -0.63,0.55 -0.67,0.15 -1.28,0.42 -1.93,0.63 0.87,0.52 1.14,1.52 1.14,2.47"
         style="fill:url(#linearGradient1013);fill-opacity:1" /><path
         d="m 19.27,57.92 a 9.58,9.58 0 0 0 -2.99,4.39 c -0.14,0.46 -0.47,1.45 -0.02,1.84 0.52,0.46 1.02,0.13 1.5,-0.26 a 10,10 0 0 0 3.02,-4.24 c 0.18,-0.51 0.51,-1.49 0.09,-1.97 -0.48,-0.54 -1.15,-0.12 -1.6,0.24"
         id="path997" /></g></g></svg>
