<?xml version="1.0" encoding="UTF-8" standalone="no"?>
<!-- Created with Inkscape (http://www.inkscape.org/) -->

<svg
   version="1.2"
   width="100"
   height="100"
   id="svg13"
   sodipodi:docname="wP.svg"
   inkscape:version="1.2.2 (732a01da63, 2022-12-09)"
   xmlns:inkscape="http://www.inkscape.org/namespaces/inkscape"
   xmlns:sodipodi="http://sodipodi.sourceforge.net/DTD/sodipodi-0.dtd"
   xmlns:xlink="http://www.w3.org/1999/xlink"
   xmlns="http://www.w3.org/2000/svg"
   xmlns:svg="http://www.w3.org/2000/svg">
  <defs
     id="defs17">
    <linearGradient
       inkscape:collect="always"
       id="linearGradient895">
      <stop
         style="stop-color:#484848;stop-opacity:1;"
         offset="0"
         id="stop891" />
      <stop
         style="stop-color:#0c0c0c;stop-opacity:1;"
         offset="1"
         id="stop893" />
    </linearGradient>
    <linearGradient
       inkscape:collect="always"
       id="linearGradient887">
      <stop
         style="stop-color:#fff9d6;stop-opacity:1;"
         offset="0"
         id="stop883" />
      <stop
         style="stop-color:#c4c1a3;stop-opacity:1;"
         offset="1"
         id="stop885" />
    </linearGradient>
    <linearGradient
       inkscape:collect="always"
       xlink:href="#linearGradient887"
       id="linearGradient889"
       x1="23.33"
       y1="52.495289"
       x2="76.660034"
       y2="52.495289"
       gradientUnits="userSpaceOnUse" />
    <linearGradient
       inkscape:collect="always"
       xlink:href="#linearGradient895"
       id="linearGradient897"
       x1="23.33"
       y1="52.495289"
       x2="76.660034"
       y2="52.495289"
       gradientUnits="userSpaceOnUse" />
  </defs>
  <sodipodi:namedview
     id="namedview15"
     pagecolor="#ffffff"
     bordercolor="#000000"
     borderopacity="0.25"
     inkscape:showpageshadow="2"
     inkscape:pageopacity="0.0"
     inkscape:pagecheckerboard="0"
     inkscape:deskcolor="#d1d1d1"
     showgrid="false"
     inkscape:zoom="7.76"
     inkscape:cx="48.389175"
     inkscape:cy="50"
     inkscape:window-width="1920"
     inkscape:window-height="974"
     inkscape:window-x="-11"
     inkscape:window-y="-11"
     inkscape:window-maximized="1"
     inkscape:current-layer="svg13" />
  <linearGradient
     id="a"
     gradientUnits="userSpaceOnUse"
     x1="23.33"
     y1="52.5"
     x2="76.67"
     y2="52.5">
    <stop
       offset=".3"
       stop-color="&quot; + wColor + &quot;"
       id="stop2" />
    <stop
       offset="1"
       stop-color="&quot;+ wShade +&quot;"
       id="stop4" />
  </linearGradient>
  <path
     d="m 41.81,22.91 a 8.87,8.87 0 0 1 4.65,-4.7 8.68,8.68 0 0 1 6.92,0 8.73,8.73 0 0 1 5.5,8.13 c 0,1.38 -0.31,2.67 -0.94,3.86 a 9.96,9.96 0 0 1 -2.54,3.1 16,16 0 0 1 8.14,4.99 12.1,12.1 0 0 1 3.06,8.09 c 0,2.51 -0.72,4.78 -2.17,6.82 a 16.96,16.96 0 0 1 -5.74,5.04 c 2.63,0.69 5.06,1.66 7.29,2.92 a 23.13,23.13 0 0 1 5.69,4.42 19.76,19.76 0 0 1 3.67,5.55 15.54,15.54 0 0 1 1.32,6.3 V 87.5 H 23.33 V 77.43 c 0,-2.2 0.44,-4.3 1.32,-6.3 a 19.31,19.31 0 0 1 3.72,-5.55 c 1.6,-1.7 3.51,-3.17 5.74,-4.42 a 30.86,30.86 0 0 1 7.29,-2.92 c -2.51,-1.32 -4.49,-3 -5.93,-5.04 a 12,12 0 0 1 0.95,-14.91 16.34,16.34 0 0 1 8.19,-4.99 10.07,10.07 0 0 1 -2.54,-3.1 8.13,8.13 0 0 1 -0.94,-3.86 8.28,8.28 0 0 1 0.68,-3.43 z"
     id="path9"
     style="fill-opacity:1;fill:url(#linearGradient897)" />
  <path
     d="m 25.4,85.43 h 49.11 v -8 c 0,-2.13 -0.49,-4.19 -1.46,-6.16 A 18.16,18.16 0 0 0 69,65.91 23.82,23.82 0 0 0 62.79,61.82 28.95,28.95 0 0 0 54.93,59.47 L 54.84,57.49 A 14.67,14.67 0 0 0 61.8,53.16 10.02,10.02 0 0 0 63.54,42.29 11.37,11.37 0 0 0 61,38.81 14.43,14.43 0 0 0 57.14,36.22 17,17 0 0 0 52.3,34.81 l -0.28,-2.07 a 7.1,7.1 0 0 0 3.44,-2.45 6.4,6.4 0 0 0 1.27,-3.95 c 0,-1.88 -0.67,-3.48 -2.02,-4.8 -1.35,-1.32 -2.93,-1.98 -4.75,-1.98 -1.82,0 -3.39,0.66 -4.7,1.98 -1.31,1.32 -1.98,2.92 -1.98,4.8 0,1.5 0.41,2.82 1.22,3.95 a 6.8,6.8 0 0 0 3.39,2.45 l -0.09,2.07 c -1.82,0.25 -3.48,0.72 -4.99,1.41 -1.5,0.69 -2.79,1.55 -3.86,2.59 -1.07,1.04 -1.91,2.2 -2.54,3.48 a 9.19,9.19 0 0 0 -0.94,4.09 c 0,2.51 0.88,4.77 2.63,6.78 a 14.7,14.7 0 0 0 7.06,4.33 l -0.19,1.98 a 28.3,28.3 0 0 0 -7.81,2.35 24.88,24.88 0 0 0 -6.21,4.09 17.93,17.93 0 0 0 -4.09,5.36 14.03,14.03 0 0 0 -1.46,6.26 z"
     id="path303"
     style="fill:url(#linearGradient889);fill-opacity:1" />
</svg>
