<?xml version="1.0" encoding="UTF-8" standalone="no"?>
<!-- Created with Inkscape (http://www.inkscape.org/) -->

<svg
   version="1.2"
   width="100"
   height="100"
   id="svg13"
   sodipodi:docname="wQ.svg"
   inkscape:version="1.2.2 (732a01da63, 2022-12-09)"
   xmlns:inkscape="http://www.inkscape.org/namespaces/inkscape"
   xmlns:sodipodi="http://sodipodi.sourceforge.net/DTD/sodipodi-0.dtd"
   xmlns:xlink="http://www.w3.org/1999/xlink"
   xmlns="http://www.w3.org/2000/svg"
   xmlns:svg="http://www.w3.org/2000/svg">
  <defs
     id="defs17">
    <linearGradient
       inkscape:collect="always"
       id="linearGradient922">
      <stop
         style="stop-color:#484848;stop-opacity:1;"
         offset="0"
         id="stop918" />
      <stop
         style="stop-color:#0c0c0c;stop-opacity:1;"
         offset="1"
         id="stop920" />
    </linearGradient>
    <linearGradient
       inkscape:collect="always"
       id="linearGradient914">
      <stop
         style="stop-color:#fff9d6;stop-opacity:1;"
         offset="0"
         id="stop910" />
      <stop
         style="stop-color:#c4c1a3;stop-opacity:1;"
         offset="1"
         id="stop912" />
    </linearGradient>
    <linearGradient
       inkscape:collect="always"
       xlink:href="#linearGradient914"
       id="linearGradient916"
       x1="7.9969296"
       y1="52.400002"
       x2="91.800003"
       y2="52.400002"
       gradientUnits="userSpaceOnUse" />
    <linearGradient
       inkscape:collect="always"
       xlink:href="#linearGradient922"
       id="linearGradient924"
       x1="7.9969296"
       y1="52.400002"
       x2="91.800003"
       y2="52.400002"
       gradientUnits="userSpaceOnUse" />
  </defs>
  <sodipodi:namedview
     id="namedview15"
     pagecolor="#ffffff"
     bordercolor="#000000"
     borderopacity="0.25"
     inkscape:showpageshadow="2"
     inkscape:pageopacity="0.0"
     inkscape:pagecheckerboard="0"
     inkscape:deskcolor="#d1d1d1"
     showgrid="false"
     inkscape:zoom="7.76"
     inkscape:cx="48.389175"
     inkscape:cy="50"
     inkscape:window-width="1920"
     inkscape:window-height="974"
     inkscape:window-x="-11"
     inkscape:window-y="-11"
     inkscape:window-maximized="1"
     inkscape:current-layer="svg13" />
  <linearGradient
     id="a"
     gradientUnits="userSpaceOnUse"
     x1="8.23"
     y1="52.5"
     x2="91.77"
     y2="52.5">
    <stop
       offset=".4"
       stop-color="&quot; + wColor + &quot;"
       id="stop2" />
    <stop
       offset="1"
       stop-color="&quot;+ wShade +&quot;"
       id="stop4" />
  </linearGradient>
  <path
     d="m 86.2,24 c 1.5,0 2.8,0.6 3.9,1.7 1.1,1.1 1.7,2.4 1.7,3.9 0,1.6 -0.6,2.9 -1.7,4 a 5.28,5.28 0 0 1 -3.9,1.6 H 86 l -1.5,5.7 c -0.6,2.3 -1.3,4.8 -2,7.4 -0.7,2.6 -1.5,5.3 -2.2,8 -0.8,2.7 -1.5,5.2 -2.1,7.4 -0.7,2.2 -1.3,4.1 -1.8,5.6 -0.5,1.5 -0.9,2.3 -1.1,2.5 a 9.8,9.8 0 0 0 -1.9,5.8 5,5 0 0 0 1.1,2.7 c 0.4,0.6 0.8,1.3 1.2,2.1 0.4,0.8 0.6,1.9 0.6,3.3 0,0.9 -0.6,1.7 -1.7,2.3 -1.1,0.6 -2.5,1.2 -4.2,1.6 -1.7,0.4 -3.6,0.7 -5.7,1 -2.1,0.3 -4.1,0.4 -6.1,0.6 -2,0.1 -3.8,0.2 -5.3,0.2 H 46.4 C 44.8,91.4 43,91.3 41.1,91.2 39.2,91.1 37.1,90.9 35,90.6 32.9,90.3 31,90 29.3,89.6 27.6,89.2 26.2,88.7 25.1,88 24,87.4 23.4,86.6 23.4,85.7 c 0,-1.4 0.2,-2.5 0.6,-3.3 0.4,-0.8 0.8,-1.5 1.2,-2.1 0.8,-0.9 1.2,-1.8 1.2,-2.7 0,-2 -0.7,-3.9 -2,-5.8 -0.1,-0.1 -0.2,-0.3 -0.3,-0.6 L 23.3,68.8 21.5,63 C 20.7,60.4 19.7,56.8 18.4,52.3 L 15,40 C 14.7,38.9 14.4,37.9 14.1,37.1 13.8,36.3 13.7,35.7 13.5,35.2 12,35.2 10.7,34.7 9.6,33.6 A 5.35,5.35 0 0 1 8,29.6 C 8,28.1 8.5,26.8 9.6,25.7 10.7,24.6 12,24 13.5,24 c 1.5,0 2.8,0.6 4,1.7 a 5.38,5.38 0 0 1 0.8,6.9 c -0.6,0.9 -1.3,1.5 -2.2,2.1 L 29.5,56.5 V 26.6 c -1.3,-0.3 -2.3,-0.9 -3.2,-1.9 -0.9,-1 -1.3,-2.1 -1.3,-3.5 0,-1.6 0.6,-2.9 1.7,-4 1.1,-1.1 2.4,-1.6 3.9,-1.6 1.7,0 3,0.5 4.1,1.6 1.1,1.1 1.6,2.4 1.6,4 0,1.3 -0.4,2.4 -1.1,3.4 -0.8,1 -1.7,1.6 -2.9,2 l 10.2,28.4 6,-30.6 c -1.1,-0.3 -2.1,-1 -3,-2 -0.8,-1 -1.2,-2.1 -1.2,-3.4 0,-1.6 0.6,-2.9 1.7,-4 1.1,-1.1 2.4,-1.6 3.9,-1.6 1.6,0 2.9,0.5 4.1,1.6 1.1,1.1 1.7,2.4 1.7,4 0,1.3 -0.4,2.4 -1.2,3.4 -0.8,1 -1.8,1.6 -3,2 l 6,30.6 10.1,-28.5 c -1.1,-0.3 -2.1,-1 -2.9,-2 -0.8,-1 -1.2,-2.1 -1.2,-3.4 0,-1.6 0.5,-2.9 1.6,-4 1.1,-1.1 2.4,-1.6 4.1,-1.6 1.5,0 2.8,0.5 3.9,1.6 1.1,1.1 1.7,2.4 1.7,4 0,1.3 -0.4,2.5 -1.3,3.5 -0.9,1 -1.9,1.6 -3.2,1.9 V 56.3 L 83.7,34.5 c -2,-1 -3,-2.7 -3,-5.1 0,-1.5 0.5,-2.8 1.6,-3.9 1,-0.9 2.3,-1.5 3.9,-1.5 z"
     id="path9"
     style="fill-opacity:1;fill:url(#linearGradient924)" />
  <path
     id="path303"
     d="m 10.6,29.5 c 0,1 0.3,1.7 0.9,2.3 0.6,0.6 1.4,0.9 2.2,0.9 A 3.26,3.26 0 0 0 17,29.5 c 0,-0.9 -0.3,-1.6 -1,-2.2 -0.6,-0.6 -1.4,-0.9 -2.3,-0.9 -0.9,0 -1.6,0.3 -2.2,0.9 -0.6,0.6 -0.9,1.3 -0.9,2.2 z m 7.6,12.4 c 0.8,3.2 1.8,6.7 2.8,10.4 1,3.7 2,7 3,10.1 0.7,-0.4 1.5,-0.7 2.4,-1 0.9,-0.3 1.9,-0.6 3,-1 -0.4,-0.6 -1,-1.7 -1.9,-3.1 -0.9,-1.4 -1.8,-3 -2.9,-4.7 -1.1,-1.7 -2.2,-3.6 -3.3,-5.4 -1.1,-1.9 -2.2,-3.7 -3.1,-5.3 z m 31.7,22.9 c 6.7,0 11.9,0.3 15.8,1 3.8,0.7 6.6,1.8 8.3,3.4 0.3,-0.6 0.5,-1.2 0.7,-1.9 0.2,-0.7 0.4,-1.5 0.8,-2.5 -1,-0.6 -2.4,-1.2 -4.1,-1.7 -1.7,-0.5 -3.6,-0.9 -5.8,-1.2 -2.2,-0.3 -4.6,-0.6 -7.2,-0.8 -2.6,-0.2 -5.3,-0.2 -8.2,-0.2 -2.4,0 -4.8,0.1 -7.3,0.2 -2.5,0.1 -4.9,0.3 -7.2,0.7 -2.3,0.4 -4.4,0.7 -6.3,1.2 -1.9,0.5 -3.5,1.1 -4.6,1.8 0.3,1 0.5,1.8 0.7,2.5 0.2,0.7 0.4,1.3 0.7,1.9 1.7,-1.6 4.5,-2.7 8.3,-3.4 3.8,-0.7 8.8,-1 15.4,-1 z m 0,24.3 c 7.8,0 13.7,-0.4 17.7,-1.2 3.9,-0.8 6.1,-1.5 6.5,-2.1 -0.4,-0.7 -2.5,-1.4 -6.5,-2.2 -3.9,-0.8 -9.8,-1.2 -17.7,-1.2 -7.7,0 -13.5,0.4 -17.4,1.2 -3.9,0.8 -6.1,1.5 -6.5,2.2 0.4,0.6 2.5,1.3 6.4,2.1 3.8,0.8 9.6,1.2 17.5,1.2 z m 0,-15.4 c -10.1,0 -17.2,1.5 -21.1,4.5 -0.1,0.8 -0.3,1.4 -0.6,2 -0.3,0.5 -0.6,1 -1,1.5 -0.1,0.2 -0.2,0.4 -0.3,0.5 l -0.3,0.6 c 1.5,-0.6 3.5,-1.1 5.8,-1.5 2.3,-0.4 4.6,-0.7 7,-0.9 2.3,-0.2 4.5,-0.3 6.4,-0.4 1.9,-0.1 3.3,-0.1 4.2,-0.1 0.9,0 2.3,0 4.3,0.1 2,0.1 4.1,0.2 6.4,0.4 2.3,0.2 4.6,0.5 7,0.9 2.3,0.4 4.2,0.9 5.8,1.5 -0.1,-0.3 -0.2,-0.5 -0.3,-0.6 -0.1,-0.2 -0.2,-0.3 -0.3,-0.5 -0.3,-0.4 -0.6,-0.9 -1,-1.5 -0.3,-0.5 -0.5,-1.2 -0.6,-2 -4.1,-3 -11.2,-4.5 -21.4,-4.5 z m 0,-6.5 c -2,0 -4.2,0 -6.6,0.1 -2.4,0.1 -4.6,0.3 -6.8,0.6 -2.2,0.3 -4.1,0.7 -5.8,1.2 -1.7,0.5 -2.9,1.3 -3.7,2.2 0.4,0.6 0.7,1.2 0.9,2 0.2,0.8 0.5,1.5 0.7,2.2 2.2,-1.5 5.1,-2.5 8.5,-3 3.5,-0.5 7.7,-0.8 12.6,-0.8 5.2,0 9.5,0.3 12.9,0.8 3.4,0.5 6.3,1.5 8.5,3 0.3,-0.7 0.5,-1.4 0.8,-2.2 0.3,-0.8 0.6,-1.4 1,-2 C 72,70.3 70.7,69.6 69,69.1 67.3,68.6 65.3,68.1 63.2,67.9 61,67.6 58.8,67.4 56.4,67.3 54.2,67.2 52,67.2 49.9,67.2 Z m -22.4,-46 c 0,0.9 0.3,1.7 1,2.3 0.7,0.6 1.4,1 2.2,1 1,0 1.7,-0.3 2.4,-1 0.6,-0.6 1,-1.4 1,-2.3 0,-1 -0.3,-1.7 -1,-2.3 C 32.5,18.3 31.7,18 30.7,18 a 3.26,3.26 0 0 0 -3.2,3.2 z M 32,59.9 c 1.5,-0.3 3.1,-0.6 4.7,-0.7 1.6,-0.2 3.1,-0.3 4.6,-0.4 L 32,32.3 Z m 12.2,-1.2 c 0.6,-0.1 1.2,-0.1 1.7,-0.1 h 8 c 0.6,0 1.1,0 1.7,0.1 L 49.8,29.5 Z m 2.4,-39.6 c 0,0.9 0.3,1.6 1,2.2 0.7,0.6 1.4,0.9 2.2,0.9 0.9,0 1.7,-0.3 2.4,-0.9 0.7,-0.6 1,-1.4 1,-2.2 0,-1 -0.4,-1.7 -1,-2.3 -0.7,-0.6 -1.5,-0.9 -2.4,-0.9 -0.8,0 -1.6,0.3 -2.2,0.9 -0.7,0.6 -1,1.4 -1,2.3 z m 12,39.7 c 1.5,0.1 3,0.3 4.6,0.4 1.6,0.2 3.2,0.4 4.7,0.7 V 32.3 Z m 7.2,-37.6 c 0,0.9 0.3,1.7 1,2.3 0.7,0.6 1.4,1 2.3,1 0.8,0 1.6,-0.3 2.2,-1 0.7,-0.6 1,-1.4 1,-2.3 0,-1 -0.3,-1.7 -1,-2.3 C 70.7,18.3 70,18 69.1,18 c -0.9,0 -1.7,0.3 -2.3,0.9 -0.7,0.6 -1,1.4 -1,2.3 z M 76,62.4 c 0.8,-2.7 1.7,-5.9 2.7,-9.5 1,-3.6 2,-7.3 3.1,-11.1 -1,1.7 -2,3.4 -3.2,5.3 -1.1,1.9 -2.2,3.7 -3.3,5.4 -1,1.8 -2,3.3 -2.9,4.7 -0.9,1.4 -1.5,2.4 -1.9,3.1 1,0.3 2,0.6 3,1 1,0.3 1.8,0.7 2.5,1.1 z M 86.2,32.8 a 3.26,3.26 0 0 0 3.3,-3.2 c 0,-0.9 -0.3,-1.6 -1,-2.2 -0.6,-0.6 -1.4,-0.9 -2.3,-0.9 -1,0 -1.7,0.4 -2.3,1.1 -0.6,0.7 -0.9,1.4 -0.9,2.1 0,1 0.3,1.7 0.9,2.3 0.6,0.5 1.4,0.8 2.3,0.8 z"
     style="fill-opacity:1;fill:url(#linearGradient916)" />
</svg>
