<?xml version="1.0" encoding="UTF-8" standalone="no"?>
<!-- Created with Inkscape (http://www.inkscape.org/) -->

<svg
   width="45"
   height="45"
   id="svg3128"
   sodipodi:version="0.32"
   inkscape:version="1.2.2 (732a01da63, 2022-12-09)"
   version="1.0"
   sodipodi:docname="Chess_cdt45.svg"
   inkscape:output_extension="org.inkscape.output.svg.inkscape"
   xml:space="preserve"
   xmlns:inkscape="http://www.inkscape.org/namespaces/inkscape"
   xmlns:sodipodi="http://sodipodi.sourceforge.net/DTD/sodipodi-0.dtd"
   xmlns="http://www.w3.org/2000/svg"
   xmlns:svg="http://www.w3.org/2000/svg"
   xmlns:rdf="http://www.w3.org/1999/02/22-rdf-syntax-ns#"
   xmlns:cc="http://creativecommons.org/ns#"
   xmlns:dc="http://purl.org/dc/elements/1.1/"><defs
     id="defs3130"><inkscape:perspective
       sodipodi:type="inkscape:persp3d"
       inkscape:vp_x="0 : 22.5 : 1"
       inkscape:vp_y="0 : 1000 : 0"
       inkscape:vp_z="45 : 22.5 : 1"
       inkscape:persp3d-origin="22.5 : 15 : 1"
       id="perspective15" /><inkscape:perspective
       id="perspective12"
       inkscape:persp3d-origin="22.5 : 15 : 1"
       inkscape:vp_z="45 : 22.5 : 1"
       inkscape:vp_y="0 : 1000 : 0"
       inkscape:vp_x="0 : 22.5 : 1"
       sodipodi:type="inkscape:persp3d" /><inkscape:perspective
       id="perspective14"
       inkscape:persp3d-origin="22.5 : 15 : 1"
       inkscape:vp_z="45 : 22.5 : 1"
       inkscape:vp_y="0 : 1000 : 0"
       inkscape:vp_x="0 : 22.5 : 1"
       sodipodi:type="inkscape:persp3d" /><inkscape:perspective
       sodipodi:type="inkscape:persp3d"
       inkscape:vp_x="0 : 22.5 : 1"
       inkscape:vp_y="0 : 1000 : 0"
       inkscape:vp_z="45 : 22.5 : 1"
       inkscape:persp3d-origin="22.5 : 15 : 1"
       id="perspective15-1" /><inkscape:perspective
       id="perspective12-0"
       inkscape:persp3d-origin="22.5 : 15 : 1"
       inkscape:vp_z="45 : 22.5 : 1"
       inkscape:vp_y="0 : 1000 : 0"
       inkscape:vp_x="0 : 22.5 : 1"
       sodipodi:type="inkscape:persp3d" /><inkscape:perspective
       id="perspective14-7"
       inkscape:persp3d-origin="22.5 : 15 : 1"
       inkscape:vp_z="45 : 22.5 : 1"
       inkscape:vp_y="0 : 1000 : 0"
       inkscape:vp_x="0 : 22.5 : 1"
       sodipodi:type="inkscape:persp3d" /><clipPath
       clipPathUnits="userSpaceOnUse"
       id="clipPath552"><rect
         style="opacity:0.34;fill:#ff0000"
         id="rect554"
         width="44.194172"
         height="15.379572"
         x="9.7720766"
         y="-18.51992"
         transform="scale(1,-1)" /></clipPath></defs><sodipodi:namedview
     id="base"
     pagecolor="#ffffff"
     bordercolor="#666666"
     borderopacity="1.0"
     gridtolerance="10000"
     guidetolerance="10"
     objecttolerance="10"
     inkscape:pageopacity="0.0"
     inkscape:pageshadow="2"
     inkscape:zoom="5.6568544"
     inkscape:cx="22.804193"
     inkscape:cy="8.1317278"
     inkscape:document-units="px"
     inkscape:current-layer="layer1"
     height="45px"
     width="45px"
     inkscape:grid-points="true"
     showgrid="false"
     inkscape:window-width="1280"
     inkscape:window-height="649"
     inkscape:window-x="-8"
     inkscape:window-y="-8"
     inkscape:showpageshadow="2"
     inkscape:pagecheckerboard="0"
     inkscape:deskcolor="#d1d1d1"
     inkscape:window-maximized="1"><inkscape:grid
       id="GridFromPre046Settings"
       type="xygrid"
       originx="0"
       originy="0"
       spacingx="0.5"
       spacingy="0.5"
       color="#0000ff"
       empcolor="#0000ff"
       opacity="0.2"
       empopacity="0.4"
       empspacing="5" /></sodipodi:namedview><metadata
     id="metadata3133"><rdf:RDF><cc:Work
         rdf:about=""><dc:format>image/svg+xml</dc:format><dc:type
           rdf:resource="http://purl.org/dc/dcmitype/StillImage" /></cc:Work></rdf:RDF></metadata><g
     inkscape:label="Layer 1"
     inkscape:groupmode="layer"
     id="layer1"
     style="display:inline"><g
       id="g574"
       transform="translate(-1.7611765,0.93048397)"><g
         style="opacity:1;fill:#000000;fill-opacity:1;fill-rule:evenodd;stroke:#000000;stroke-width:1.5;stroke-linecap:round;stroke-linejoin:round;stroke-miterlimit:4;stroke-dasharray:none;stroke-opacity:1"
         transform="matrix(1,0,0,-1,1.8951834,47.511299)"
         id="g274"
         clip-path="url(#clipPath552)"><path
           d="M 9,39 H 36 V 36 H 9 Z"
           style="stroke-linecap:butt"
           id="path252" /><path
           d="M 12.5,32 14,29.5 h 17 l 1.5,2.5 z"
           style="stroke-linecap:butt"
           id="path254" /><path
           d="m 12,36 v -4 h 21 v 4 z"
           style="stroke-linecap:butt"
           id="path256" /><path
           d="m 14,29.5 v -13 h 17 v 13 z"
           style="stroke-linecap:butt;stroke-linejoin:miter"
           id="path258" /><path
           d="M 14,16.5 11,14 h 23 l -3,2.5 z"
           style="stroke-linecap:butt"
           id="path260" /><path
           d="M 11,14 V 9 h 4 v 2 h 5 V 9 h 5 v 2 h 5 V 9 h 4 v 5 z"
           style="stroke-linecap:butt"
           id="path262" /><path
           d="m 12,35.5 h 21 v 0"
           style="fill:none;stroke:#ffffff;stroke-width:1;stroke-linejoin:miter"
           id="path264" /><path
           d="M 13,31.5 H 32"
           style="fill:none;stroke:#ffffff;stroke-width:1;stroke-linejoin:miter"
           id="path266" /><path
           d="M 14,29.5 H 31"
           style="fill:none;stroke:#ffffff;stroke-width:1;stroke-linejoin:miter"
           id="path268" /><path
           d="M 14,16.5 H 31"
           style="fill:none;stroke:#ffffff;stroke-width:1;stroke-linejoin:miter"
           id="path270" /><path
           d="M 11,14 H 34"
           style="fill:none;stroke:#ffffff;stroke-width:1;stroke-linejoin:miter"
           id="path272" /></g><g
         style="opacity:1;fill:none;fill-opacity:1;fill-rule:evenodd;stroke:#000000;stroke-width:1.5;stroke-linecap:round;stroke-linejoin:round;stroke-miterlimit:4;stroke-dasharray:none;stroke-opacity:1"
         transform="matrix(0.75,0,0,0.75,5.9396714,-0.80976693)"
         id="g304"><path
           d="m 22,10 c 10.5,1 16.5,8 16,29 H 15 c 0,-9 10,-6.5 8,-21"
           style="fill:#000000;stroke:#000000"
           id="path294" /><path
           d="m 24,18 c 0.38,2.91 -5.55,7.37 -8,9 -3,2 -2.82,4.34 -5,4 -1.042,-0.94 1.41,-3.04 0,-3 -1,0 0.19,1.23 -1,2 -1,0 -4.003,1 -4,-4 0,-2 6,-12 6,-12 0,0 1.89,-1.9 2,-3.5 -0.73,-0.994 -0.5,-2 -0.5,-3 1,-1 3,2.5 3,2.5 h 2 c 0,0 0.78,-1.992 2.5,-3 1,0 1,3 1,3"
           style="fill:#000000;stroke:#000000"
           id="path296" /><path
           d="m 9.5,25.5 a 0.5,0.5 0 1 1 -1,0 0.5,0.5 0 1 1 1,0 z"
           style="fill:#ffffff;stroke:#ffffff"
           id="path298" /><path
           d="m 15,15.5 a 0.5,1.5 0 1 1 -1,0 0.5,1.5 0 1 1 1,0 z"
           transform="matrix(0.866,0.5,-0.5,0.866,9.693,-5.173)"
           style="fill:#ffffff;stroke:#ffffff"
           id="path300" /><path
           d="M 24.55,10.4 24.1,11.85 24.6,12 c 3.15,1 5.65,2.49 7.9,6.75 2.25,4.26 3.25,10.31 2.75,20.25 l -0.05,0.5 h 2.25 L 37.5,39 C 38,28.94 36.62,22.15 34.25,17.66 31.88,13.17 28.46,11.02 25.06,10.5 Z"
           style="fill:#ffffff;stroke:none"
           id="path302" /></g></g></g><g
     inkscape:groupmode="layer"
     id="layer2"
     inkscape:label="Layer 1#1"
     style="display:inline" /></svg>
