<?xml version="1.0" encoding="UTF-8" standalone="no"?>
<svg
   version="1.1"
   width="45"
   height="45"
   id="svg4"
   sodipodi:docname="Chess_ptdt45.svg"
   inkscape:version="1.2.2 (732a01da63, 2022-12-09)"
   xmlns:inkscape="http://www.inkscape.org/namespaces/inkscape"
   xmlns:sodipodi="http://sodipodi.sourceforge.net/DTD/sodipodi-0.dtd"
   xmlns="http://www.w3.org/2000/svg"
   xmlns:svg="http://www.w3.org/2000/svg">
  <defs
     id="defs8" />
  <sodipodi:namedview
     id="namedview6"
     pagecolor="#ffffff"
     bordercolor="#000000"
     borderopacity="0.25"
     inkscape:showpageshadow="2"
     inkscape:pageopacity="0.0"
     inkscape:pagecheckerboard="0"
     inkscape:deskcolor="#d1d1d1"
     showgrid="false"
     inkscape:zoom="10.422222"
     inkscape:cx="22.356077"
     inkscape:cy="22.452026"
     inkscape:window-width="1280"
     inkscape:window-height="649"
     inkscape:window-x="-8"
     inkscape:window-y="-8"
     inkscape:window-maximized="1"
     inkscape:current-layer="svg4" />
  <path
     d="m 22.5,9 c -2.21,0 -4,1.79 -4,4 0,0.89 0.29,1.71 0.78,2.38 C 17.33,16.5 16,18.59 16,21 c 0,2.03 0.94,3.84 2.41,5.03 C 15.41,27.09 11,31.58 11,39.5 H 34 C 34,31.58 29.59,27.09 26.59,26.03 28.06,24.84 29,23.03 29,21 29,18.59 27.67,16.5 25.72,15.38 26.21,14.71 26.5,13.89 26.5,13 c 0,-2.21 -1.79,-4 -4,-4 z"
     style="opacity:1;fill:#000000;fill-opacity:1;fill-rule:nonzero;stroke:#000000;stroke-width:1.5;stroke-linecap:round;stroke-linejoin:miter;stroke-miterlimit:4;stroke-dasharray:none;stroke-opacity:1"
     id="path2" />
  <rect
     style="fill:#000000;fill-opacity:1;stroke:#000000;stroke-width:1.5;stroke-linecap:round;stroke-linejoin:round;stroke-dasharray:none;stroke-opacity:1"
     id="rect944"
     width="14.920308"
     height="4.5578346"
     x="15.087821"
     y="17.870338" />
  <path
     style="fill:#ffffff;fill-opacity:1;stroke:#ffffff;stroke-width:0.75;stroke-linecap:round;stroke-linejoin:round;stroke-dasharray:none;stroke-opacity:1"
     d="M 16.311301,22.89339 H 28.880597"
     id="path1116"
     sodipodi:nodetypes="cc" />
  <path
     style="fill:#ffffff;fill-opacity:1;stroke:#ffffff;stroke-width:0.75;stroke-linecap:round;stroke-linejoin:round;stroke-dasharray:none;stroke-opacity:1"
     d="M 16.119404,17.520256 H 28.6887"
     id="path845"
     sodipodi:nodetypes="cc" />
</svg>
