<?xml version="1.0" encoding="UTF-8" standalone="no"?>
<svg
   viewBox="0 0 2048 2048"
   version="1.1"
   id="svg12"
   sodipodi:docname="bSG.svg"
   inkscape:version="1.2.2 (732a01da63, 2022-12-09)"
   xmlns:inkscape="http://www.inkscape.org/namespaces/inkscape"
   xmlns:sodipodi="http://sodipodi.sourceforge.net/DTD/sodipodi-0.dtd"
   xmlns="http://www.w3.org/2000/svg"
   xmlns:svg="http://www.w3.org/2000/svg">
  <defs
     id="defs16" />
  <sodipodi:namedview
     id="namedview14"
     pagecolor="#ffffff"
     bordercolor="#000000"
     borderopacity="0.25"
     inkscape:showpageshadow="2"
     inkscape:pageopacity="0.0"
     inkscape:pagecheckerboard="0"
     inkscape:deskcolor="#d1d1d1"
     showgrid="false"
     inkscape:zoom="0.22900391"
     inkscape:cx="982.51598"
     inkscape:cy="1032.7335"
     inkscape:window-width="1280"
     inkscape:window-height="650"
     inkscape:window-x="-6"
     inkscape:window-y="-6"
     inkscape:window-maximized="1"
     inkscape:current-layer="svg12" />
  <path
     d="m 788.35335,522.98199 c -99.04448,472.42776 -0.95827,-5.20698 -96.27975,468.69628 l 550.3226,-317.72902 c -453.99661,-150.88717 0,0 -454.04285,-150.96726 z m 0,0 c -99.04448,472.42776 -0.95827,-5.20698 -96.27975,468.69628 l 550.3226,-317.72902 c -453.99661,-150.88717 0,0 -454.04285,-150.96726 z"
     stroke-width="60"
     id="path2"
     sodipodi:nodetypes="cccc"
     style="fill:#5984bd;stroke:#000000;stroke-linecap:round;fill-opacity:1" />
  <path
     d="m 1259.6973,522.79354 c -458.65662,150.43885 4.0303,-3.43338 -454.04269,150.96743 L 1355.9773,991.4898 c -96.3262,-468.61617 0,0 -96.28,-468.69626 z m 0,0 c -458.65662,150.43885 4.0303,-3.43338 -454.04269,150.96743 L 1355.9773,991.4898 c -96.3262,-468.61617 0,0 -96.28,-468.69626 z"
     stroke-width="60"
     id="path2-0"
     sodipodi:nodetypes="cccc"
     style="fill:#5984bd;stroke:#000000;stroke-linecap:round;fill-opacity:1" />
  <path
     d="m 494.64407,1813.661 c 129.61055,-348.0325 289.54316,-138.5949 390.50847,-781.5095 l 260.33896,0.5265 c 95.2352,644.8281 302.0784,420.2406 425.2204,769.661"
     stroke-width="75"
     id="path4"
     style="fill:#5984bd;stroke:#000000;stroke-linecap:round;fill-opacity:1" />
  <path
     d="m 1023.9999,671.5592 c -321.98894,359.6122 1.7736,-4.98852 -317.72887,357.763 l 635.45787,-10e-5 c -317.729,-357.67043 -17.1745,-7.9028 -317.729,-357.7629 z"
     stroke-width="60"
     id="path6"
     style="fill:#5984bd;stroke:#000000;stroke-linecap:round;fill-opacity:1" />
  <path
     d="M 503.32203,1813.6949 H 1570.7119"
     stroke-width="75"
     id="path8"
     style="fill:#f9f9f9;stroke:#000000;stroke-linecap:round" />
</svg>
