<?xml version="1.0" encoding="UTF-8" standalone="no"?>
<svg
   inkscape:version="1.2.2 (732a01da63, 2022-12-09)"
   sodipodi:docname="wS.svg"
   id="svg12863"
   version="1.1"
   viewBox="0 0 50 50"
   clip-rule="evenodd"
   fill-rule="evenodd"
   image-rendering="optimizeQuality"
   shape-rendering="geometricPrecision"
   height="177.17"
   width="177.17"
   xmlns:inkscape="http://www.inkscape.org/namespaces/inkscape"
   xmlns:sodipodi="http://sodipodi.sourceforge.net/DTD/sodipodi-0.dtd"
   xmlns:xlink="http://www.w3.org/1999/xlink"
   xmlns="http://www.w3.org/2000/svg"
   xmlns:svg="http://www.w3.org/2000/svg"
   xmlns:rdf="http://www.w3.org/1999/02/22-rdf-syntax-ns#"
   xmlns:cc="http://creativecommons.org/ns#"
   xmlns:dc="http://purl.org/dc/elements/1.1/">
  <metadata
     id="metadata12867">
    <rdf:RDF>
      <cc:Work
         rdf:about="">
        <dc:format>image/svg+xml</dc:format>
        <dc:type
           rdf:resource="http://purl.org/dc/dcmitype/StillImage" />
        <dc:title />
      </cc:Work>
    </rdf:RDF>
  </metadata>
  <sodipodi:namedview
     inkscape:document-rotation="0"
     inkscape:current-layer="svg12863"
     inkscape:window-maximized="1"
     inkscape:window-y="-11"
     inkscape:window-x="-11"
     inkscape:cy="80.134189"
     inkscape:cx="27.188386"
     inkscape:zoom="2.4458973"
     showguides="false"
     showgrid="false"
     id="namedview12865"
     inkscape:window-height="974"
     inkscape:window-width="1920"
     inkscape:pageshadow="2"
     inkscape:pageopacity="0"
     guidetolerance="10"
     gridtolerance="10"
     objecttolerance="10"
     borderopacity="1"
     bordercolor="#666666"
     pagecolor="#ffffff"
     inkscape:showpageshadow="2"
     inkscape:pagecheckerboard="0"
     inkscape:deskcolor="#d1d1d1" />
  <defs
     id="defs12857">
    <linearGradient
       inkscape:collect="always"
       id="linearGradient1016">
      <stop
         style="stop-color:#ffffff;stop-opacity:1;"
         offset="0"
         id="stop1012" />
      <stop
         style="stop-color:#aba9a8;stop-opacity:1;"
         offset="1"
         id="stop1014" />
    </linearGradient>
    <linearGradient
       gradientUnits="userSpaceOnUse"
       x2="77.64"
       x1="21.405"
       id="0">
      <stop
         id="stop12852"
         stop-color="#fff" />
      <stop
         id="stop12854"
         stop-opacity="0"
         stop-color="#fff"
         offset="1" />
    </linearGradient>
    <clipPath
       id="clipPath5191"
       clipPathUnits="userSpaceOnUse">
      <rect
         clip-path="none"
         y="4.0289068"
         x="7.2068729"
         height="15.671"
         width="35.162529"
         id="rect5193"
         style="opacity:1;fill:#d40000;fill-opacity:1;stroke:#000000;stroke-width:0.2045171;stroke-linecap:square;stroke-linejoin:miter;stroke-miterlimit:4;stroke-dasharray:none;stroke-opacity:1;paint-order:normal" />
    </clipPath>
    <linearGradient
       gradientUnits="userSpaceOnUse"
       x2="77.639999"
       x1="21.375999"
       id="0-2">
      <stop
         id="stop4571"
         stop-color="#fff" />
      <stop
         id="stop4573"
         stop-opacity="0"
         stop-color="#fff"
         offset="1" />
    </linearGradient>
    <linearGradient
       id="0-1"
       x1="21.253"
       y1="37.220001"
       x2="77.639999"
       y2="37.349998"
       gradientUnits="userSpaceOnUse"
       xlink:href="#linearGradient9464">
      <stop
         stop-color="#fff"
         id="stop7734"
         style="stop-color:#f3c926;stop-opacity:1" />
      <stop
         offset="1"
         stop-color="#fff"
         stop-opacity="0"
         id="stop7736" />
    </linearGradient>
    <linearGradient
       inkscape:collect="always"
       id="linearGradient9464">
      <stop
         id="stop9462"
         offset="0"
         style="stop-color:#806600;stop-opacity:1" />
      <stop
         id="stop9460"
         offset="1"
         style="stop-color:#ffd42a;stop-opacity:1" />
    </linearGradient>
    <linearGradient
       id="0-6"
       x1="21.405001"
       x2="77.639999"
       gradientUnits="userSpaceOnUse"
       gradientTransform="translate(-45.398691,6.7749784)">
      <stop
         stop-color="#fff"
         id="stop3197" />
      <stop
         offset="1"
         stop-color="#fff"
         stop-opacity="0"
         id="stop3199" />
    </linearGradient>
    <linearGradient
       inkscape:collect="always"
       xlink:href="#linearGradient1016"
       id="linearGradient1018"
       x1="5.8917665"
       y1="41.617184"
       x2="39.009041"
       y2="41.45401"
       gradientUnits="userSpaceOnUse"
       gradientTransform="matrix(0.9,0,0,0.9,2.4509209,2.556985)" />
  </defs>
  <path
     style="fill:url(#linearGradient1018);fill-opacity:1;stroke:#1f1a17;stroke-width:1.69328895;stroke-linecap:square;stroke-dasharray:none;stop-color:#000000"
     id="path332"
     sodipodi:type="arc"
     sodipodi:cx="24.509211"
     sodipodi:cy="25.569853"
     sodipodi:rx="17.652676"
     sodipodi:ry="17.652672"
     sodipodi:start="0"
     sodipodi:end="6.2753409"
     sodipodi:open="true"
     sodipodi:arc-type="chord"
     d="M 42.161886,25.569853 A 17.652676,17.652672 0 0 1 24.543829,43.222491 17.652676,17.652672 0 0 1 6.8566707,25.63909 17.652676,17.652672 0 0 1 24.405355,7.9174865 17.652676,17.652672 0 0 1 42.161343,25.43138 Z" />
  <path
     style="fill:none;stroke:#1f1a17;stroke-width:1.69328895;stroke-linecap:square;stop-color:#000000;stroke-dasharray:none"
     id="path1746"
     sodipodi:type="arc"
     sodipodi:cx="24.369427"
     sodipodi:cy="25.430071"
     sodipodi:rx="9.9437304"
     sodipodi:ry="9.9437294"
     sodipodi:start="0"
     sodipodi:end="6.2753409"
     sodipodi:open="true"
     sodipodi:arc-type="chord"
     d="m 34.313157,25.430071 a 9.9437304,9.9437294 0 0 1 -9.92423,9.94371 9.9437304,9.9437294 0 0 1 -9.963154,-9.904709 9.9437304,9.9437294 0 0 1 9.885152,-9.982558 9.9437304,9.9437294 0 0 1 10.001926,9.865555 z" />
  <path
     style="fill:none;stroke:#1f1a17;stroke-width:1.69329;stroke-linecap:square;stroke-dasharray:none;stop-color:#000000"
     id="path1746-1"
     sodipodi:type="arc"
     sodipodi:cx="24.244362"
     sodipodi:cy="25.549763"
     sodipodi:rx="4.5198774"
     sodipodi:ry="4.5198717"
     sodipodi:start="0"
     sodipodi:end="6.2753409"
     sodipodi:open="true"
     sodipodi:arc-type="chord"
     d="m 28.764239,25.549763 a 4.5198774,4.5198717 0 0 1 -4.511013,4.519863 4.5198774,4.5198717 0 0 1 -4.528707,-4.502135 4.5198774,4.5198717 0 0 1 4.493251,-4.537522 4.5198774,4.5198717 0 0 1 4.54633,4.484338 z" />
  <path
     style="fill:#1f1a17;fill-opacity:1;stroke:none;stroke-width:4.26168;stroke-linecap:square;stroke-dasharray:none;stop-color:#000000"
     id="path1770"
     sodipodi:type="arc"
     sodipodi:cx="24.000406"
     sodipodi:cy="18.519718"
     sodipodi:rx="1.2699667"
     sodipodi:ry="1.2699667"
     sodipodi:start="0"
     sodipodi:end="6.2753409"
     sodipodi:open="true"
     sodipodi:arc-type="chord"
     d="m 25.270373,18.519718 a 1.2699667,1.2699667 0 0 1 -1.267476,1.269964 1.2699667,1.2699667 0 0 1 -1.272448,-1.264983 1.2699667,1.2699667 0 0 1 1.262486,-1.274926 1.2699667,1.2699667 0 0 1 1.277399,1.259983 z" />
  <path
     style="fill:#1f1a17;fill-opacity:1;stroke:none;stroke-width:4.26168;stroke-linecap:square;stroke-dasharray:none;stop-color:#000000"
     id="path1770-4"
     sodipodi:type="arc"
     sodipodi:cx="31.441851"
     sodipodi:cy="25.384247"
     sodipodi:rx="1.2699667"
     sodipodi:ry="1.2699667"
     sodipodi:start="0"
     sodipodi:end="6.2753409"
     sodipodi:open="true"
     sodipodi:arc-type="chord"
     d="m 32.711817,25.384247 a 1.2699667,1.2699667 0 0 1 -1.267476,1.269964 1.2699667,1.2699667 0 0 1 -1.272447,-1.264983 1.2699667,1.2699667 0 0 1 1.262485,-1.274926 1.2699667,1.2699667 0 0 1 1.277399,1.259983 z" />
  <path
     style="fill:#1f1a17;fill-opacity:1;stroke:none;stroke-width:4.26168;stroke-linecap:square;stroke-dasharray:none;stop-color:#000000"
     id="path1770-8"
     sodipodi:type="arc"
     sodipodi:cx="24.345798"
     sodipodi:cy="32.65337"
     sodipodi:rx="1.2699667"
     sodipodi:ry="1.2699667"
     sodipodi:start="0"
     sodipodi:end="6.2753409"
     sodipodi:open="true"
     sodipodi:arc-type="chord"
     d="m 25.615765,32.65337 a 1.2699667,1.2699667 0 0 1 -1.267476,1.269964 1.2699667,1.2699667 0 0 1 -1.272447,-1.264983 1.2699667,1.2699667 0 0 1 1.262485,-1.274926 1.2699667,1.2699667 0 0 1 1.277399,1.259983 z" />
  <path
     style="fill:#1f1a17;fill-opacity:1;stroke:none;stroke-width:4.26168;stroke-linecap:square;stroke-dasharray:none;stop-color:#000000"
     id="path1770-5"
     sodipodi:type="arc"
     sodipodi:cx="29.480341"
     sodipodi:cy="30.691862"
     sodipodi:rx="1.2699667"
     sodipodi:ry="1.2699667"
     sodipodi:start="0"
     sodipodi:end="6.2753409"
     sodipodi:open="true"
     sodipodi:arc-type="chord"
     d="m 30.750308,30.691862 a 1.2699667,1.2699667 0 0 1 -1.267477,1.269964 1.2699667,1.2699667 0 0 1 -1.272447,-1.264983 1.2699667,1.2699667 0 0 1 1.262485,-1.274926 1.2699667,1.2699667 0 0 1 1.2774,1.259983 z" />
  <path
     style="fill:#1f1a17;fill-opacity:1;stroke:none;stroke-width:4.26168;stroke-linecap:square;stroke-dasharray:none;stop-color:#000000"
     id="path1770-0"
     sodipodi:type="arc"
     sodipodi:cx="29.0765"
     sodipodi:cy="20.422781"
     sodipodi:rx="1.2699667"
     sodipodi:ry="1.2699667"
     sodipodi:start="0"
     sodipodi:end="6.2753409"
     sodipodi:open="true"
     sodipodi:arc-type="chord"
     d="m 30.346467,20.422781 a 1.2699667,1.2699667 0 0 1 -1.267477,1.269964 1.2699667,1.2699667 0 0 1 -1.272447,-1.264983 1.2699667,1.2699667 0 0 1 1.262485,-1.274926 1.2699667,1.2699667 0 0 1 1.2774,1.259983 z" />
  <path
     style="fill:#1f1a17;fill-opacity:1;stroke:none;stroke-width:4.26168;stroke-linecap:square;stroke-dasharray:none;stop-color:#000000"
     id="path1770-3"
     sodipodi:type="arc"
     sodipodi:cx="18.922802"
     sodipodi:cy="20.711239"
     sodipodi:rx="1.2699667"
     sodipodi:ry="1.2699667"
     sodipodi:start="0"
     sodipodi:end="6.2753409"
     sodipodi:open="true"
     sodipodi:arc-type="chord"
     d="m 20.192769,20.711239 a 1.2699667,1.2699667 0 0 1 -1.267476,1.269964 1.2699667,1.2699667 0 0 1 -1.272448,-1.264983 1.2699667,1.2699667 0 0 1 1.262485,-1.274926 1.2699667,1.2699667 0 0 1 1.2774,1.259983 z" />
  <path
     style="fill:#1f1a17;fill-opacity:1;stroke:none;stroke-width:4.26168;stroke-linecap:square;stroke-dasharray:none;stop-color:#000000"
     id="path1770-2"
     sodipodi:type="arc"
     sodipodi:cx="18.86511"
     sodipodi:cy="30.345713"
     sodipodi:rx="1.2699667"
     sodipodi:ry="1.2699667"
     sodipodi:start="0"
     sodipodi:end="6.2753409"
     sodipodi:open="true"
     sodipodi:arc-type="chord"
     d="m 20.135077,30.345713 a 1.2699667,1.2699667 0 0 1 -1.267476,1.269964 1.2699667,1.2699667 0 0 1 -1.272448,-1.264983 1.2699667,1.2699667 0 0 1 1.262486,-1.274926 1.2699667,1.2699667 0 0 1 1.277399,1.259983 z" />
  <path
     style="fill:#1f1a17;fill-opacity:1;stroke:none;stroke-width:4.26168;stroke-linecap:square;stroke-dasharray:none;stop-color:#000000"
     id="path1770-41"
     sodipodi:type="arc"
     sodipodi:cx="17.192059"
     sodipodi:cy="25.557322"
     sodipodi:rx="1.2699667"
     sodipodi:ry="1.2699667"
     sodipodi:start="0"
     sodipodi:end="6.2753409"
     sodipodi:open="true"
     sodipodi:arc-type="chord"
     d="m 18.462025,25.557322 a 1.2699667,1.2699667 0 0 1 -1.267476,1.269964 1.2699667,1.2699667 0 0 1 -1.272447,-1.264983 1.2699667,1.2699667 0 0 1 1.262485,-1.274926 1.2699667,1.2699667 0 0 1 1.277399,1.259983 z" />
</svg>
