<?xml version="1.0" encoding="UTF-8" standalone="no"?>
<svg
   width="498.898"
   height="544.252"
   viewBox="0 0 1320 1440"
   version="1.1"
   id="svg99"
   sodipodi:docname="bQ.svg"
   inkscape:version="1.2.2 (732a01da63, 2022-12-09)"
   xml:space="preserve"
   xmlns:inkscape="http://www.inkscape.org/namespaces/inkscape"
   xmlns:sodipodi="http://sodipodi.sourceforge.net/DTD/sodipodi-0.dtd"
   xmlns="http://www.w3.org/2000/svg"
   xmlns:svg="http://www.w3.org/2000/svg"><sodipodi:namedview
     id="namedview101"
     pagecolor="#ffffff"
     bordercolor="#000000"
     borderopacity="0.25"
     inkscape:showpageshadow="2"
     inkscape:pageopacity="0.0"
     inkscape:pagecheckerboard="0"
     inkscape:deskcolor="#d1d1d1"
     showgrid="false"
     inkscape:zoom="0.71711971"
     inkscape:cx="485.97186"
     inkscape:cy="196.61989"
     inkscape:window-width="1920"
     inkscape:window-height="974"
     inkscape:window-x="-11"
     inkscape:window-y="-11"
     inkscape:window-maximized="1"
     inkscape:current-layer="svg99" /><style
     id="style2">.B{color-interpolation-filters:sRGB}</style><defs
     id="defs53"><filter
       id="B"
       x="-0.012166599"
       y="-0.010441906"
       width="1.0243332"
       height="1.0208838"
       class="B"><feGaussianBlur
         stdDeviation="2.441"
         id="feGaussianBlur4" /></filter><filter
       id="F"
       x="-0.026998101"
       y="-0.026997811"
       width="1.0539962"
       height="1.0539956"
       class="B"><feGaussianBlur
         stdDeviation="3.099"
         id="feGaussianBlur7" /></filter><filter
       id="H"
       x="-0.048003158"
       y="-0.04799913"
       width="1.0960063"
       height="1.0959983"
       class="B"><feGaussianBlur
         stdDeviation="8.625"
         id="feGaussianBlur10" /></filter><filter
       id="I"
       x="-0.10401416"
       y="-0.29497504"
       width="1.2080283"
       height="1.5899501"
       class="B"><feGaussianBlur
         stdDeviation="1.527"
         id="feGaussianBlur13" /></filter><filter
       id="J"
       x="-0.082727631"
       y="-0.20403721"
       width="1.1654553"
       height="1.4080744"
       class="B"><feGaussianBlur
         stdDeviation="1.527"
         id="feGaussianBlur16" /></filter><filter
       id="K"
       x="-0.15878024"
       y="-0.25811154"
       width="1.3175605"
       height="1.5162231"
       class="B"><feGaussianBlur
         stdDeviation="1.527"
         id="feGaussianBlur19" /></filter><filter
       id="L"
       x="-0.12085111"
       y="-0.22025575"
       width="1.2417022"
       height="1.4405115"
       class="B"><feGaussianBlur
         stdDeviation="1.527"
         id="feGaussianBlur22" /></filter><filter
       id="M"
       x="-0.27550138"
       y="-0.26341684"
       width="1.5510028"
       height="1.5268337"
       class="B"><feGaussianBlur
         stdDeviation="1.527"
         id="feGaussianBlur25" /></filter><filter
       id="N"
       x="-0.16423792"
       y="-0.14645428"
       width="1.3284758"
       height="1.2929086"
       class="B"><feGaussianBlur
         stdDeviation="1.527"
         id="feGaussianBlur28" /></filter><linearGradient
       id="A"
       x1="-1430.769"
       y1="-77.47"
       x2="-1409.955"
       y2="-77.47"
       spreadMethod="reflect"
       gradientUnits="userSpaceOnUse"><stop
         offset="0"
         stop-color="#ffd285"
         id="stop31" /><stop
         offset=".232"
         stop-color="#ffcd79"
         id="stop33" /><stop
         offset=".616"
         stop-color="#ffca73"
         id="stop35" /><stop
         offset=".808"
         stop-color="#ffd386"
         id="stop37" /><stop
         offset="1"
         stop-color="#ffc86e"
         id="stop39" /></linearGradient><linearGradient
       id="C"
       x1="-904.556"
       y1="-406.052"
       x2="-904.556"
       y2="184.159"
       gradientUnits="userSpaceOnUse"><stop
         offset="0"
         id="stop42" /><stop
         offset=".601"
         stop-color="#fff"
         id="stop44" /></linearGradient><clipPath
       id="E"><path
         d="M1799.135 1043.254a7.223 7.223 0 0 0-7.24 7.237v7.446l-15.399 27.512c-1.385 2.475-1.385 6.457 0 8.932h15.399v63.253l-75.759-75.759a7.222 7.222 0 0 0-10.237 0l-3.45 3.45a7.222 7.222 0 0 0 0 10.237l75.759 75.759h-63.252v-15.399c-2.475-1.385-6.457-1.385-8.932 0l-27.515 15.399h-7.442a7.22 7.22 0 0 0-7.237 7.237v4.879c0 4.01 3.227 7.24 7.237 7.24h7.449l27.508 15.395c2.475 1.385 6.457 1.385 8.932 0v-15.395h63.252l-75.759 75.759a7.222 7.222 0 0 0 0 10.237l3.45 3.45a7.222 7.222 0 0 0 10.237 0l75.759-75.759v63.249h-15.399c-1.385 2.475-1.385 6.461 0 8.935l15.399 27.512v7.442c0 4.01 3.23 7.24 7.24 7.24h4.876c4.01 0 7.24-3.23 7.24-7.24v-7.442l15.399-27.512c1.385-2.475 1.385-6.461 0-8.935h-15.399v-63.249l75.759 75.759a7.222 7.222 0 0 0 10.237 0l3.45-3.45a7.222 7.222 0 0 0 0-10.237l-75.759-75.759h63.249v15.395c2.475 1.385 6.461 1.385 8.935 0l27.508-15.395h7.449c4.01 0 7.237-3.23 7.237-7.24v-4.88a7.22 7.22 0 0 0-7.237-7.237h-7.442l-27.515-15.399c-2.475-1.385-6.461-1.385-8.935 0v15.399h-63.249l75.759-75.759a7.222 7.222 0 0 0 0-10.237l-3.45-3.45a7.222 7.222 0 0 0-10.237 0l-75.759 75.759v-63.253h15.399c1.385-2.475 1.385-6.457 0-8.932l-15.399-27.512v-7.446c0-4.01-3.23-7.237-7.24-7.237zm2.435 137.74h.01z"
         stroke-width="10.708"
         id="path47" /></clipPath><clipPath
       id="G"><path
         d="M456.068 830.625c16.106 19.743 43.644 32.733 72.22 35.331 20.263 1.559 45.722-15.067 67.024-7.274-4.157 21.822-20.263 46.241-14.028 67.024-14.548 3.637-37.409 0-56.633 0-17.146 0-31.694 3.637-34.811 17.665 9.872 7.274 48.839 27.537 67.024 22.861 0 0-4.157-1.559-3.637-5.196 37.409.52 67.024-5.715 100.276-3.637-2.078 9.872-3.117 31.693-6.754 46.241 4.676 5.196 12.989 4.157 15.587 12.47 28.576 5.196 52.476 3.637 72.22-7.274-10.391-17.146-35.85-19.224-50.918-31.693-2.078-6.235-1.559-16.107-3.637-22.861 50.398-1.559 93.002-11.43 137.165-5.715 1.559-4.157-4.676-3.637-3.637-6.754 13.509-1.559 26.498 13.509 42.604 5.196-3.637-29.615-27.537-27.017-36.889-49.359-18.185 3.637-32.733 11.95-49.878 12.47-5.196-22.341-11.43-49.359-20.783-61.828 10.391-1.039 41.565-3.637 62.348-5.196 23.9-1.559 45.202-1.039 55.594 8.833 5.196-4.676 9.352 0 12.47 0 5.196-18.185-22.861-48.32-35.33-51.437-7.794-2.078-18.185 3.117-30.135 5.196-65.465 11.95-175.094 18.704-258.744 21.302-42.604 1.039-70.661-12.47-98.718 3.637zM440.481 632.67c11.43 3.637 14.548 15.587 17.665 23.38 40.526 21.302 51.957 51.437 51.957 51.437 1.039-8.313 2.078-25.978 2.078-33.772.52-28.057-.52-52.476 32.213-55.074.52-2.078-.52-4.676 1.559-5.196 25.459 8.313 85.209-8.313 109.109 12.47 0 8.833 1.559 18.704-3.117 22.861-38.967 0-67.024 3.637-89.885 1.559-3.637 3.637-2.598 13.509-10.911 12.47-12.989 23.38-10.911 56.633-22.861 86.768-10.911 4.157-22.861 5.715-24.42 17.665-7.274 9.352 4.676 11.95 3.637 22.861 21.822 4.676 46.241 19.224 72.22 19.224 69.102-.52 146.518-10.911 207.826-19.224 3.637-10.391 15.067-4.676 17.665-7.274 10.391-16.626-14.548-27.537-19.743-44.163-8.313-27.017 0-56.113-6.754-79.494-12.47-5.715-17.146-19.744-28.576-26.498-11.43 6.754-17.665 7.794-34.811 7.274-3.637 7.274-17.146 6.754-24.42 7.794-1.039-10.391 3.117-38.448-10.911-43.124 2.078-6.235-7.274-17.146-12.47-14.028 0 0 5.715 3.637 1.559 5.196-3.637-7.794-14.548-5.196-10.391-12.47-45.722-15.587-128.852-18.185-170.937-8.833-5.196 1.039-20.263 3.117-20.783 14.028-13.509 2.078-19.743 9.352-24.939 16.107 4.156 10.391-2.598 16.107-1.559 28.057zm182.887 293.035c-3.637-19.224 14.548-48.32 8.833-68.583 27.017-3.117 55.594-5.715 84.689-7.274 7.793 21.822 2.598 51.437 24.42 63.387-34.291 9.872-100.796 11.43-117.942 12.47zM579.725 777.63c-.52-38.448 5.196-71.181 10.391-104.433 19.224 3.117 40.007 4.676 63.387 3.637-.52 10.391-2.078 23.38-1.559 35.33-18.185 5.715-38.967-1.039-46.241 12.47 2.598 5.715 5.196-2.598 8.833 0 .52 12.989 24.42 18.704 38.967 22.861-.52 8.313-3.117 21.302 3.637 26.498-21.302 5.715-47.8 3.117-77.415 3.637zm109.109-35.331c15.587-5.715 44.163-6.235 58.191-7.274 2.078 8.833 5.715 17.146 8.833 24.939-16.107 8.313-44.163 12.47-60.27 10.911-6.754-8.313-6.235-17.665-6.754-28.576zm0-33.772c0-11.43-1.039-23.9 1.559-33.252 12.989-1.039 37.928-5.196 53.515-3.637 2.078 13.509 0 26.498.52 33.772-14.548 1.039-42.604 4.157-55.594 3.117z"
         stroke-width="25.778"
         id="path50" /></clipPath><filter
       inkscape:menu-tooltip="In and out glow with a possible offset and colorizable flood"
       inkscape:menu="Shadows and Glows"
       inkscape:label="Cutout Glow"
       style="color-interpolation-filters:sRGB;"
       id="filter1095"
       x="-0.037082761"
       y="-0.014877602"
       width="1.0526058"
       height="1.0504185"><feOffset
         dy="10"
         dx="-10"
         id="feOffset1085" /><feGaussianBlur
         stdDeviation="3"
         result="blur"
         id="feGaussianBlur1087" /><feFlood
         flood-color="rgb(0,0,0)"
         flood-opacity="0"
         result="flood"
         id="feFlood1089" /><feComposite
         in="flood"
         in2="SourceGraphic"
         operator="in"
         result="composite"
         id="feComposite1091" /><feBlend
         in="blur"
         in2="composite"
         mode="normal"
         id="feBlend1093" /></filter><clipPath
       clipPathUnits="userSpaceOnUse"
       id="clipPath1097"><path
         d="m 428.03089,758.83294 q 1.03187,-2.06375 1.03187,-4.1275 0,-1.54781 0,-3.61156 0,-1.54781 0.51594,-4.12747 0,-2.06375 0.51593,-5.15937 3.61157,-3.61157 10.31875,-5.67531 6.19125,-1.54782 9.80281,-5.67531 23.73309,1.54781 44.88652,6.70718 20.63749,5.67531 32.50402,15.99403 7.22312,6.70718 14.96218,19.60562 7.22312,12.89843 19.08968,19.60559 9.28687,-2.06373 18.57372,-3.0956 8.77093,-0.51594 17.54186,-0.51594 11.86656,0 23.21718,-1.54781 11.35059,-1.03187 22.18528,-6.19125 -2.57969,-17.54186 1.54781,-34.56777 4.1275,-17.02593 16.50999,-25.28093 9.28685,1.54782 13.41437,9.28688 3.61154,7.73905 4.12747,18.0578 0.51594,10.31872 0,20.12153 0,2.06375 0,4.1275 0,2.57968 0,4.64343 6.19125,4.1275 13.93031,4.64344 7.73906,1.03187 15.99406,1.03187 1.54781,0 2.57968,0 9.80281,0 19.08966,2.57969 9.28687,2.57969 14.44624,12.38247 8.77093,-7.73904 14.96218,-13.93028 6.19125,-5.67531 10.83466,-14.44625 5.67531,2.06375 7.22312,0.51594 1.54781,-1.03187 2.57969,-3.61156 1.03187,-2.57969 3.09562,-4.64344 1.54781,-2.06375 6.70719,-1.54781 0,-3.09562 1.54781,-4.1275 1.03187,-1.03187 3.61156,-2.06372 1.03187,-0.51596 2.57968,-1.54781 1.54782,-0.51594 2.57969,-1.54784 5.15937,-4.12747 9.80281,-9.28684 4.64341,-5.15938 10.83468,-9.28688 2.57966,-6.19124 11.3506,-9.8028 8.25499,-3.61156 19.08968,-4.64344 10.83468,-1.03187 20.63746,-0.51594 -1.54781,2.57969 -3.09562,2.57969 -1.54779,0 -3.61154,-0.51594 -1.03187,0 -2.57971,-0.51593 -1.54781,0 -3.0956,0 1.03188,4.12749 3.0956,4.12749 1.54784,0.51594 4.1275,-0.51593 3.09562,-1.03188 5.15937,-1.54782 2.57969,1.54782 5.67531,1.03188 2.57969,0 5.15937,-0.51594 2.06375,-0.51594 4.64344,-1.03187 2.06375,0 4.1275,0.51593 0,4.64344 -7.22312,6.19125 -7.73906,2.06375 -14.96216,4.1275 -7.73906,2.06375 -7.73906,6.70718 -2.06375,-2.06374 -7.73906,-2.06374 -5.67531,5.67531 -9.80281,12.89843 -4.64343,7.22309 -15.99405,7.73903 0.51593,3.09562 -0.51594,5.15937 -1.54781,2.06375 -1.54781,2.06375 -3.61156,-2.06375 -5.67531,-1.03187 -2.06375,1.03187 -4.1275,2.57968 -1.54781,1.54782 -3.0956,2.57969 -2.06377,1.54781 -5.15937,1.54781 0.51594,3.09563 3.61156,2.57969 2.06375,-0.51594 2.57969,1.54781 -1.54784,3.09562 -3.09565,2.57969 -2.06373,0 -4.12747,-1.03188 -2.06375,-1.03187 -3.09563,-1.54781 -0.51594,2.57969 1.54781,3.61156 2.06375,1.03188 4.1275,1.54781 2.06375,0.51594 2.57969,0.51594 -2.06375,2.57969 -6.19125,2.06375 -4.64343,-0.51594 -5.67531,3.09562 0,2.06375 2.06375,1.03188 1.03187,-1.03188 2.57969,-1.54781 1.03187,-0.51594 3.09562,0.51593 -8.255,8.77094 -16.50999,17.02591 -8.77094,8.25499 -19.08968,14.96218 -1.03188,13.41437 -10.31872,26.82874 -9.28687,13.41434 -20.12156,27.86059 -10.83468,14.44624 -15.47811,29.92433 6.19124,2.57969 15.47811,1.0319 8.77094,-1.54781 18.05781,-4.12752 8.77093,-2.57966 17.0259,-4.12747 8.255,-1.54782 14.96218,-0.51594 -0.51593,7.73903 4.1275,12.8984 4.64344,5.67531 10.31875,10.83469 6.19122,5.67531 11.86653,11.86655 5.67531,6.70719 5.67531,17.02591 -7.22312,1.54784 -14.44622,-0.51591 -7.73906,-2.06375 -15.47812,-4.64344 -5.67531,-2.06375 -11.35062,-4.1275 -6.19124,-1.54781 -12.38249,-2.06375 -7.2231,-0.51593 -18.57372,-0.51593 -11.35062,0 -21.66936,1.03187 -10.83466,1.54781 -15.47812,3.61156 -6.19122,3.09563 -7.73904,12.38247 -2.06374,9.80281 -1.03187,21.15343 0.51594,11.35062 2.57969,20.63749 0.51591,2.06375 2.06375,4.64344 1.03187,3.0956 2.57968,6.1912 3.0956,6.1913 6.19125,13.4144 3.0956,7.2231 3.0956,13.4144 -4.1275,1.5478 -5.67531,5.6753 -16.50997,-13.4144 -34.56777,-25.7969 -18.05781,-11.86653 -29.4084,-30.44027 5.15937,-6.70719 6.19122,-17.54187 1.0319,-10.83468 2.06377,-16.50999 -12.38249,-0.51591 -24.76499,0.51596 -12.38249,1.03188 -24.76496,2.06375 -10.31875,1.54779 -20.63749,2.06375 -10.31875,1.03185 -20.63749,1.03185 -14.96216,0 -29.4084,-3.0956 -14.44625,-3.09562 -27.34465,-11.86656 -6.19125,-8.25499 -4.1275,-12.38249 2.06375,-3.61156 5.67531,-6.70719 1.03185,-1.54781 2.57966,-2.57968 1.0319,-1.03188 2.06375,-2.57969 22.1853,1.54781 47.98214,1.03188 25.28093,0 49.52998,-3.09563 -5.67531,-7.22312 -12.89843,-11.86653 -7.22312,-4.64343 -13.93031,-9.28687 -6.70718,-4.64344 -10.83468,-12.38249 -10.83466,-2.06375 -15.47812,-10.83469 -4.64341,-8.25497 -12.38247,-13.93028 -11.35062,-8.25499 -25.79686,-13.9303 -14.44622,-5.15938 -28.89246,-10.83469 -14.44625,-5.15937 -25.28093,-14.44624 -5.15935,-9.80281 -12.89841,-17.54184 -8.25499,-7.73906 -17.02593,-14.44625 -1.03187,-8.25499 -5.67531,-12.38249 -4.64343,-4.1275 -8.25499,-9.80281 z m 45.91839,-61.91242 q -1.03188,-2.57969 -0.51594,-4.1275 0.51594,-1.03187 2.06375,-2.06375 2.06375,-1.54781 2.57969,-3.61156 11.86655,-2.06375 22.70124,-1.54781 10.31874,0.51594 20.63746,1.54781 9.80281,0.51594 19.60562,1.03187 9.80281,0.51594 20.63749,-1.03187 1.03185,-9.80281 1.03185,-21.15343 0,-10.83468 -0.51591,-21.66934 0,-5.67531 0,-11.35062 -0.51594,-5.15937 -0.51594,-10.83468 0,-21.15343 3.61156,-39.72715 3.0956,-19.08968 15.99403,-29.92436 9.28687,4.1275 13.41437,18.05781 4.1275,13.41437 5.15937,29.92436 1.03188,15.99403 1.54781,26.82871 0,6.70719 0,12.89843 0,6.19125 -0.51593,12.38247 -0.51594,9.28687 -0.51594,17.54187 0,8.255 1.03187,15.47812 14.44625,3.61156 31.98809,2.06375 17.02593,-1.03188 35.08371,-3.09563 10.31874,-1.03187 20.63749,-2.06375 9.80281,-1.03187 19.60562,-1.03187 1.03187,-33.5359 11.35059,-55.20526 10.31875,-21.66937 20.63749,-36.63152 3.61156,-5.15938 9.28687,-9.80281 5.67531,-4.64344 14.44625,-10.83469 0.51591,0.51594 3.09562,0 2.06375,-0.51593 4.12747,-0.51593 1.54781,0 3.09565,2.57968 -1.0319,4.64344 -3.09565,10.83469 -2.57966,6.19124 -5.15937,12.89843 -6.70716,17.54184 -12.89841,38.69527 -6.70718,21.1534 -5.15937,40.75902 6.19125,1.03187 12.3825,-2.06375 5.67528,-3.09562 9.80278,-7.22312 21.15343,3.61156 34.05186,14.96218 12.89843,11.35062 23.73309,24.24905 -4.1275,1.03185 -7.73906,1.03185 -3.61156,0 -7.2231,0 -5.67531,0 -10.31874,0.51596 -5.15938,0.51591 -8.77094,6.19122 -4.64343,-4.64343 -13.41437,-4.64343 -9.28687,0.51596 -18.0578,1.54781 -5.15935,1.03187 -9.80278,1.03187 -4.64344,0.51594 -8.255,0 -1.54781,9.80281 2.57969,17.54187 3.61156,7.73906 8.25499,15.47812 3.09563,4.64341 6.19125,9.28687 2.57969,5.15935 4.64341,10.31872 -12.38247,2.57969 -28.89246,-1.54781 -17.02593,-4.1275 -26.31278,-15.99403 -9.80281,-12.3825 -4.64343,-31.47217 -24.24905,0 -48.49808,2.06374 -24.76499,2.57969 -52.62558,3.61157 -1.03187,10.31874 1.03188,21.66936 1.54781,11.86656 3.61156,22.18528 1.03187,6.19125 2.06375,11.86656 1.03187,5.67531 1.03187,9.8028 -3.09562,-1.54781 -6.19125,-3.09562 -3.09562,-1.03187 -6.19124,-2.57969 -11.86656,-5.15937 -23.21718,-11.35062 -11.35062,-6.19124 -18.05778,-15.99405 -6.70718,-9.28685 -4.1275,-24.76497 -19.60561,-0.51593 -41.79089,-7.73905 -22.1853,-7.22313 -39.72717,-22.18528 z m 91.83681,104.73519 q 0,0 8.25497,9.28687 7.73906,9.28687 20.12155,24.76499 12.3825,15.47809 26.82874,34.05183 13.93028,19.08968 26.31278,38.69527 4.64343,-0.51591 10.83468,-0.51591 6.19122,0 10.83468,-1.0319 0.51594,-1.54781 2.57966,-4.12747 3.61156,-6.19125 7.22312,-13.41437 3.61157,-7.22312 2.06375,-12.38249 -9.80278,-4.1275 -20.63746,-11.35062 -10.83468,-7.22313 -17.02593,-18.05778 -6.70719,-10.83469 -4.1275,-25.28093 -13.41437,0.51594 -28.37652,-4.64344 -14.96219,-4.64343 -27.86062,-9.80278 -5.15937,-2.06375 -9.28687,-3.61156 -4.1275,-1.54781 -7.73903,-2.57971 z m 115.05393,14.96218 q -1.03187,9.28687 2.06375,25.28093 2.57969,16.50996 8.255,29.4084 2.06375,-2.06375 5.67531,-5.67531 3.09562,-3.09563 6.19125,-5.67531 -1.54782,-2.06373 -4.1275,-1.03188 -1.54781,1.03188 -2.06375,-1.03185 0.51594,-1.54784 2.06375,-2.57971 1.03187,-1.03185 2.57968,-1.54781 2.06375,-1.03185 3.09563,-2.57969 1.03187,-1.03185 -1.54781,-4.64341 h 7.73906 q -1.03188,-2.57968 0,-5.67531 0.51593,-2.57968 6.19122,-1.54781 -0.51594,-2.06375 0,-3.61156 0.51596,-1.03188 1.03187,-2.57969 0.51594,-1.03187 1.0319,-3.09562 0.51594,-1.54781 0,-4.1275 5.15935,0 8.77091,-5.67531 3.61156,-5.15937 6.70718,-9.28687 -14.96215,0 -26.82871,2.57969 -12.38249,2.57968 -26.82874,3.09562 z"
         id="path1099"
         style="font-size:515.937px;font-family:'Yuji Mai';-inkscape-font-specification:'Yuji Mai';fill:#330000;fill-opacity:1;stroke-width:21.1667" /></clipPath><filter
       id="C-5"
       x="-0.01052904"
       y="-0.011053209"
       width="1.0210581"
       height="1.0221064"
       class="B"><feGaussianBlur
         stdDeviation="2.441"
         id="feGaussianBlur4-8" /></filter><filter
       id="E-6"
       x="-0.049577471"
       y="-0.046521963"
       width="1.0991549"
       height="1.0930439"
       class="B"><feGaussianBlur
         stdDeviation="7.145"
         id="feGaussianBlur7-5" /></filter><filter
       id="G-7"
       x="-0.026998101"
       y="-0.026997811"
       width="1.0539962"
       height="1.0539956"
       class="B"><feGaussianBlur
         stdDeviation="3.099"
         id="feGaussianBlur10-1" /></filter><filter
       id="H-8"
       x="-0.32753811"
       y="-0.37941919"
       width="1.6550762"
       height="1.7588384"
       class="B"><feGaussianBlur
         stdDeviation="1.414"
         id="feGaussianBlur13-8" /></filter><filter
       id="I-41"
       x="-0.10275027"
       y="-0.21093859"
       width="1.2055005"
       height="1.4218772"
       class="B"><feGaussianBlur
         stdDeviation="1.414"
         id="feGaussianBlur16-7" /></filter><filter
       id="J-7"
       x="-0.16946047"
       y="-0.17130372"
       width="1.3389209"
       height="1.3426074"
       class="B"><feGaussianBlur
         stdDeviation="1.414"
         id="feGaussianBlur19-4" /></filter><filter
       id="K-6"
       x="-0.13819079"
       y="-0.22437343"
       width="1.2763816"
       height="1.4487469"
       class="B"><feGaussianBlur
         stdDeviation="1.414"
         id="feGaussianBlur22-6" /></filter><filter
       id="L-41"
       x="-0.16506688"
       y="-0.23552885"
       width="1.3301338"
       height="1.4710577"
       class="B"><feGaussianBlur
         stdDeviation="1.414"
         id="feGaussianBlur25-9" /></filter><linearGradient
       id="A-0"
       x1="228.547"
       y1="660.587"
       x2="270.281"
       y2="660.587"
       spreadMethod="reflect"
       gradientUnits="userSpaceOnUse"
       gradientTransform="translate(830.05875,-1363.4221)"><stop
         offset="0"
         stop-color="#ffd285"
         id="stop28" /><stop
         offset=".232"
         stop-color="#ffcd79"
         id="stop30" /><stop
         offset=".616"
         stop-color="#ffca73"
         id="stop32" /><stop
         offset=".808"
         stop-color="#ffd386"
         id="stop34" /><stop
         offset="1"
         stop-color="#ffc86e"
         id="stop36" /></linearGradient><linearGradient
       id="B-9"
       x1="660.031"
       y1="176.668"
       x2="660.029"
       y2="1147.598"
       gradientUnits="userSpaceOnUse"
       gradientTransform="translate(830.05875,-1363.4221)"><stop
         offset=".599"
         stop-color="#fff"
         id="stop39-2" /><stop
         offset="1"
         id="stop41" /></linearGradient><clipPath
       id="D"><path
         d="M-306.313 516.17c-13.376-16.397-36.245-27.184-59.977-29.341-16.828-1.294-37.971 12.513-55.662 6.041 3.452-18.123 16.828-38.403 11.65-55.662 12.082-3.02 31.067 0 47.032 0 14.239 0 26.321-3.02 28.91-14.671-8.198-6.041-40.56-22.869-55.662-18.986 0 0 3.452 1.294 3.02 4.315-31.067-.432-55.662 4.746-83.277 3.02 1.726-8.198 2.589-26.321 5.609-38.403-3.883-4.315-10.787-3.452-12.945-10.356-23.732-4.315-43.58-3.02-59.977 6.041 8.63 14.239 29.773 15.965 42.286 26.321 1.726 5.178 1.294 13.376 3.02 18.986-41.854 1.294-77.237 9.493-113.913 4.746-1.294 3.452 3.883 3.02 3.02 5.609-11.219 1.294-22.006-11.219-35.382-4.315 3.02 24.595 22.869 22.437 30.636 40.992 15.102-3.02 27.184-9.924 41.423-10.356 4.315 18.554 9.493 40.992 17.26 51.347-8.63.863-34.519 3.02-51.779 4.315-19.849 1.294-37.54.863-46.169-7.335-4.315 3.883-7.767 0-10.356 0-4.315 15.102 18.986 40.129 29.341 42.717 6.472 1.726 15.102-2.589 25.026-4.315 54.368-9.924 145.412-15.534 214.882-17.691 35.382-.863 58.683 10.356 81.983-3.02zm12.945 164.397c-9.493-3.02-12.082-12.945-14.671-19.417-33.656-17.691-43.149-42.717-43.149-42.717-.863 6.904-1.726 21.574-1.726 28.047-.432 23.3.432 43.58-26.752 45.738-.432 1.726.432 3.883-1.294 4.315-21.143-6.904-70.764 6.904-90.613-10.356 0-7.335-1.294-15.534 2.589-18.986 32.362 0 55.662-3.02 74.648-1.294 3.02-3.02 2.157-11.219 9.061-10.356 10.787-19.417 9.061-47.032 18.986-72.059 9.061-3.452 18.986-4.746 20.28-14.671 6.041-7.767-3.883-9.924-3.02-18.986-18.123-3.883-38.403-15.965-59.977-15.965-57.388.432-121.68 9.061-172.596 15.965-3.02 8.63-12.513 3.883-14.671 6.041-8.63 13.808 12.082 22.869 16.397 36.677 6.904 22.437 0 46.601 5.609 66.018 10.356 4.746 14.239 16.397 23.732 22.006 9.493-5.609 14.671-6.472 28.91-6.041 3.02-6.041 14.239-5.609 20.28-6.472.863 8.63-2.589 31.93 9.061 35.814-1.726 5.178 6.041 14.239 10.356 11.65 0 0-4.746-3.02-1.294-4.315 3.02 6.472 12.082 4.315 8.63 10.356 37.971 12.945 107.009 15.102 141.96 7.335 4.315-.863 16.828-2.589 17.26-11.65 11.219-1.726 16.397-7.767 20.711-13.376-3.452-8.63 2.157-13.376 1.294-23.3zm-151.884-243.36c3.02 15.965-12.082 40.129-7.335 56.957-22.437 2.589-46.169 4.746-70.333 6.041-6.472-18.123-2.157-42.717-20.28-52.642 28.478-8.198 83.709-9.493 97.948-10.356zm101.832 224.375c-2.157.431-.863-2.589-2.589-3.02 0 0 0 6.041-2.157 8.198-1.726-1.726.432-7.335-2.157-6.904-2.157-2.157 0-3.02 0-8.63 2.157 1.294 1.726 3.02 1.294 5.609 2.157-.431 4.315-3.02 4.315-7.767 2.589.431 1.294 10.356 1.294 12.513zm-65.586-101.4c.432 31.93-4.315 59.114-8.63 86.729-15.965-2.589-33.225-3.883-52.642-3.02.432-8.63 1.726-19.417 1.294-29.341 15.102-4.746 32.362.863 38.403-10.356-2.157-4.746-4.315 2.157-7.335 0-.432-10.787-20.28-15.534-32.362-18.986.432-6.904 2.589-17.691-3.02-22.006 17.691-4.746 39.697-2.589 64.292-3.02zm-90.613 29.341c-12.945 4.746-36.677 5.178-48.327 6.041-1.726-7.335-4.746-14.239-7.335-20.711 13.376-6.904 36.677-10.356 50.053-9.061 5.609 6.904 5.178 14.671 5.609 23.732zm0 28.047c0 9.493.863 19.849-1.294 27.615-10.787.863-31.499 4.315-44.443 3.02-1.726-11.219 0-22.006-.432-28.047 12.082-.863 35.382-3.452 46.169-2.589z"
         stroke-width="21.409"
         id="path44" /></clipPath><clipPath
       id="F-6"><path
         d="M1799.135 1043.254a7.223 7.223 0 0 0-7.24 7.237v7.446l-15.399 27.512c-1.385 2.475-1.385 6.457 0 8.932h15.399v63.253l-75.759-75.759a7.222 7.222 0 0 0-10.237 0l-3.45 3.45a7.222 7.222 0 0 0 0 10.237l75.759 75.759h-63.252v-15.399c-2.475-1.385-6.457-1.385-8.932 0l-27.515 15.399h-7.442a7.22 7.22 0 0 0-7.237 7.237v4.879c0 4.01 3.227 7.24 7.237 7.24h7.449l27.508 15.395c2.475 1.385 6.457 1.385 8.932 0v-15.395h63.252l-75.759 75.759a7.222 7.222 0 0 0 0 10.237l3.45 3.45a7.222 7.222 0 0 0 10.237 0l75.759-75.759v63.249h-15.399c-1.385 2.475-1.385 6.461 0 8.935l15.399 27.512v7.442c0 4.01 3.23 7.24 7.24 7.24h4.876c4.01 0 7.24-3.23 7.24-7.24v-7.442l15.399-27.512c1.385-2.475 1.385-6.461 0-8.935h-15.399v-63.249l75.759 75.759a7.222 7.222 0 0 0 10.237 0l3.45-3.45a7.222 7.222 0 0 0 0-10.237l-75.759-75.759h63.249v15.395c2.475 1.385 6.461 1.385 8.935 0l27.508-15.395h7.449c4.01 0 7.237-3.23 7.237-7.24v-4.88a7.22 7.22 0 0 0-7.237-7.237h-7.442l-27.515-15.399c-2.475-1.385-6.461-1.385-8.935 0v15.399h-63.249l75.759-75.759a7.222 7.222 0 0 0 0-10.237l-3.45-3.45a7.222 7.222 0 0 0-10.237 0l-75.759 75.759v-63.253h15.399c1.385-2.475 1.385-6.457 0-8.932l-15.399-27.512v-7.446c0-4.01-3.23-7.237-7.24-7.237zm2.435 137.74h.01z"
         stroke-width="10.708"
         id="path47-7" /></clipPath><filter
       inkscape:menu-tooltip="In and out glow with a possible offset and colorizable flood"
       inkscape:menu="Shadows and Glows"
       inkscape:label="Cutout Glow"
       style="color-interpolation-filters:sRGB;"
       id="filter1156"
       x="-0.03866914"
       y="-0.015514059"
       width="1.0548562"
       height="1.0525754"><feOffset
         dy="10"
         dx="-10"
         id="feOffset1146" /><feGaussianBlur
         stdDeviation="3"
         result="blur"
         id="feGaussianBlur1148" /><feFlood
         flood-color="rgb(0,0,0)"
         flood-opacity="0"
         result="flood"
         id="feFlood1150" /><feComposite
         in="flood"
         in2="SourceGraphic"
         operator="in"
         result="composite"
         id="feComposite1152" /><feBlend
         in="blur"
         in2="composite"
         mode="normal"
         id="feBlend1154" /></filter><clipPath
       clipPathUnits="userSpaceOnUse"
       id="clipPath1158"><path
         d="m 881.83678,606.79252 q -0.98954,1.97908 -0.98954,3.95814 0,1.48434 0,3.46342 0,1.48431 -0.49477,3.95816 0,1.97909 -0.49477,4.94771 -3.46342,3.46339 -9.89544,5.44248 -5.93725,1.48431 -9.40064,5.44247 -22.75948,-1.48431 -43.04507,-6.43201 -19.79086,-5.44248 -31.17058,-15.33789 -6.92679,-6.43205 -14.34835,-18.80131 -6.92681,-12.36927 -18.30654,-18.80129 -8.90587,1.97906 -17.81174,2.96863 -8.41113,0.49477 -16.82223,0.49477 -11.37972,0 -22.2647,1.48431 -10.88496,0.98954 -21.27514,5.93725 2.47385,16.82222 -1.48431,33.14965 -3.95819,16.32743 -15.83269,24.24379 -8.90587,-1.48434 -12.86403,-8.9059 -3.4634,-7.42156 -3.95817,-17.31697 -0.49477,-9.89541 0,-19.29608 0,-1.97908 0,-3.95816 0,-2.47386 0,-4.45294 -5.93725,-3.95817 -13.35883,-4.45294 -7.42156,-0.98954 -15.33789,-0.98954 -1.48431,0 -2.47386,0 -9.40064,0 -18.30651,-2.47385 -8.9059,-2.47385 -13.8536,-11.87452 -8.4111,7.42156 -14.34835,13.35883 -5.93725,5.44248 -10.39021,13.85358 -5.44248,-1.97908 -6.92679,-0.49477 -1.48431,0.98954 -2.47385,3.46339 -0.98954,2.47388 -2.96863,4.45294 -1.48431,1.97908 -6.43201,1.48431 0,2.96865 -1.48432,3.95819 -0.98954,0.98952 -3.46339,1.97906 -0.98954,0.4948 -2.47388,1.48434 -1.48431,0.49477 -2.47383,1.48431 -4.94773,3.95816 -9.40067,8.90587 -4.45293,4.94771 -10.39018,8.90587 -2.47385,5.93725 -10.88495,9.40064 -7.91636,3.4634 -18.30654,4.45294 -10.39019,0.98957 -19.79083,0.49477 1.48429,-2.47383 2.96863,-2.47383 1.48431,0 3.46339,0.49477 0.98954,0 2.47385,0.49475 1.48432,0 2.96863,0 -0.98954,-3.95817 -2.96863,-3.95817 -1.48431,-0.49477 -3.95816,0.49477 -2.96862,0.98957 -4.94771,1.48434 -2.47385,-1.48434 -5.4425,-0.98954 -2.47383,0 -4.94771,0.49477 -1.97908,0.49477 -4.45293,0.98954 -1.97908,0 -3.95817,-0.49477 0,-4.45296 6.92679,-5.93727 7.42156,-1.97909 14.34838,-3.95817 7.42156,-1.97908 7.42156,-6.43202 1.97908,1.97909 7.42155,1.97909 5.44248,-5.44248 9.40067,-12.36927 4.45291,-6.92679 15.33789,-7.42156 -0.49477,-2.96865 0.49477,-4.94773 1.48432,-1.97906 1.48432,-1.97906 3.46339,1.97906 5.44247,0.98952 1.97908,-0.98952 3.95817,-2.47386 1.48431,-1.48431 2.96862,-2.47385 1.97908,-1.48431 4.94771,-1.48431 -0.49477,-2.96862 -3.4634,-2.47385 -1.97908,0.49477 -2.47385,-1.48432 1.48431,-2.96862 2.96862,-2.47385 1.97909,0 3.95817,0.98954 1.97908,0.98954 2.96862,1.48431 0.49477,-2.47385 -1.48431,-3.46339 -1.97908,-0.98954 -3.95816,-1.48431 -1.97909,-0.49477 -2.47386,-0.49477 1.97908,-2.47386 5.93725,-1.97909 4.45296,0.49478 5.4425,-2.96862 0,-1.97908 -1.97908,-0.98954 -0.98957,0.98954 -2.47388,1.48431 -0.98954,0.49477 -2.96862,-0.49477 7.91633,-8.4111 15.83268,-16.32746 8.4111,-7.91633 18.30652,-14.34834 0.98954,-12.86404 9.89541,-25.7281 8.9059,-12.86404 19.29608,-26.71762 10.39018,-13.8536 14.84312,-28.69672 -5.93725,-2.47385 -14.84312,-0.98954 -8.4111,1.48431 -17.31697,3.95816 -8.41113,2.47386 -16.32746,3.95817 -7.91633,1.48431 -14.34835,0.49477 0.49477,-7.42156 -3.95816,-12.36929 -4.45294,-5.44248 -9.89544,-10.39019 -5.93725,-5.44247 -11.37973,-11.37972 -5.44247,-6.43202 -5.44247,-16.32746 6.92679,-1.48431 13.85358,0.49477 7.42158,1.97911 14.84314,4.45294 5.44248,1.97911 10.88495,3.95819 5.93725,1.48431 11.8745,1.97908 6.92679,0.49477 17.81177,0.49477 10.88495,0 20.78039,-0.98954 10.39018,-1.48431 14.84312,-3.46339 5.93725,-2.96865 7.42156,-11.87452 1.97908,-9.40065 0.98954,-20.2856 -0.49477,-10.88498 -2.47385,-19.79085 -0.49477,-1.97908 -1.97908,-4.45294 -0.98955,-2.96862 -2.47386,-5.93724 -2.96862,-5.93725 -5.93725,-12.86404 -2.96862,-6.92682 -2.96862,-12.86406 3.95817,-1.48432 5.44248,-5.44248 15.83266,12.86406 33.14966,24.73856 17.31697,11.37972 28.20192,29.19149 -4.9477,6.43202 -5.93725,16.8222 -0.98954,10.39019 -1.97908,15.83266 11.8745,0.49477 23.74902,-0.49477 11.87449,-0.98954 23.74899,-1.97908 9.89544,-1.48431 19.79085,-1.97908 9.89541,-0.98954 19.79085,-0.98954 14.34835,0 28.20193,2.96862 13.8536,2.96862 26.22287,11.37975 5.93727,7.91633 3.95816,11.8745 -1.97908,3.46339 -5.44247,6.43201 -0.98955,1.48432 -2.47386,2.47386 -0.98954,0.98954 -1.97908,2.47385 -21.27514,-1.48431 -46.0137,-0.98954 -24.24378,0 -47.49803,2.96862 5.44248,6.92682 12.36929,11.37975 6.92679,4.45294 13.35881,8.90587 6.43202,4.45294 10.39021,11.8745 10.39018,1.97908 14.84312,10.39021 4.45293,7.91633 11.87449,13.35881 10.88496,7.91633 24.73856,13.3588 13.85358,4.94771 27.70718,10.39021 13.85358,4.94771 24.24376,13.85358 4.94771,9.40064 12.3693,16.8222 7.91633,7.42159 16.32743,13.85361 0.98954,7.91633 5.44247,11.87449 4.45294,3.95817 7.91636,9.40067 z m -44.03464,59.3725 q 0.98954,2.47385 0.49477,3.95817 -0.49477,0.98954 -1.97908,1.97908 -1.97908,1.48431 -2.47385,3.46339 -11.37973,1.97911 -21.76991,1.48434 -9.89544,-0.49477 -19.79085,-1.48434 -9.40064,-0.49477 -18.80131,-0.98954 -9.40064,-0.49477 -19.79083,0.98954 -0.98954,9.40067 -0.98954,20.28562 0,10.39019 0.49477,20.7804 0,5.44247 0,10.88495 0.49477,4.94771 0.49477,10.39018 0,20.28563 -3.46339,38.09737 -2.96863,18.30654 -15.33792,28.69672 -8.90587,-3.95816 -12.86403,-17.31697 -3.95817,-12.86406 -4.94771,-28.69672 -0.98954,-15.33792 -1.48431,-25.7281 0,-6.43202 0,-12.36927 0,-5.93727 0.49477,-11.87452 0.49477,-8.90587 0.49477,-16.8222 0,-7.91633 -0.98954,-14.84312 -13.85358,-3.46342 -30.67581,-1.97911 -16.32743,0.98954 -33.64443,2.96865 -9.89541,0.98952 -19.79082,1.97906 -9.40067,0.98954 -18.80131,0.98954 -0.98954,32.16012 -10.88496,52.94051 -9.89541,20.78039 -19.79085,35.12874 -3.46339,4.94771 -8.90587,9.40064 -5.44248,4.45294 -13.8536,10.39021 -0.49475,-0.49477 -2.96863,0 -1.97908,0.49477 -3.95816,0.49477 -1.48431,0 -2.96863,-2.47385 0.98955,-4.45296 2.96863,-10.39021 2.47385,-5.93725 4.94773,-12.36927 6.43202,-16.8222 12.36927,-37.10782 6.43201,-20.28562 4.9477,-39.08691 -5.93724,-0.98954 -11.87449,1.97909 -5.44248,2.96862 -9.40067,6.92679 -20.2856,-3.4634 -32.65489,-14.34835 -12.36926,-10.88498 -22.75945,-23.25425 3.95817,-0.98954 7.42156,-0.98954 3.4634,0 6.92679,0 5.44248,0 9.89541,-0.49477 4.94771,-0.49477 8.41113,-5.93725 4.45294,4.45294 12.86404,4.45294 8.90587,-0.49477 17.31697,-1.48431 4.94773,-0.98955 9.40067,-0.98955 4.45293,-0.49477 7.91633,0 1.48431,-9.40064 -2.47386,-16.82222 -3.46339,-7.42156 -7.91633,-14.84312 -2.96862,-4.45294 -5.93727,-8.90587 -2.47385,-4.94771 -4.45291,-9.89544 11.8745,-2.47386 27.70716,1.48431 16.32743,3.95819 25.23332,15.33792 9.40065,11.87449 4.45294,30.18103 23.25425,0 46.50847,-1.97908 23.74901,-2.47388 50.46665,-3.46342 0.98954,-9.89542 -0.98954,-20.78037 -1.48431,-11.37972 -3.46339,-21.27516 -0.98954,-5.93725 -1.97911,-11.37973 -0.98952,-5.44247 -0.98952,-9.40064 2.96863,1.48431 5.93725,2.96862 2.96862,0.98955 5.93725,2.47386 11.37972,4.9477 22.2647,10.88495 10.88496,5.93725 17.31697,15.33792 6.43202,8.90587 3.95817,23.74899 18.80131,0.49477 40.07645,7.42156 21.27516,6.92681 38.09736,21.27516 z M 749.73292,565.7265 q 0,0 -7.91633,-8.90587 -7.42159,-8.90587 -19.29608,-23.74899 -11.8745,-14.84314 -25.7281,-32.65491 -13.35881,-18.30652 -25.2333,-37.1078 -4.45294,0.49477 -10.39021,0.49477 -5.93725,0 -10.39019,0.98954 -0.49477,1.48429 -2.47385,3.95817 -3.4634,5.93725 -6.92679,12.86403 -3.46339,6.92679 -1.97908,11.8745 9.40064,3.95816 19.79082,10.88498 10.39021,6.92679 16.32746,17.31697 6.43202,10.39018 3.95817,24.24379 12.86403,-0.49477 27.21241,4.45293 14.34834,4.45294 26.71761,9.40065 4.94773,1.97908 8.9059,3.46339 3.95816,1.48431 7.42156,2.47385 z M 639.39899,551.37816 q 0.98954,-8.90588 -1.97908,-24.24379 -2.47386,-15.83266 -7.91636,-28.20193 -1.97906,1.97906 -5.44248,5.44248 -2.96862,2.9686 -5.93725,5.44248 1.48432,1.97908 3.95817,0.98954 1.48431,-0.98954 1.97908,0.98954 -0.49477,1.48431 -1.97908,2.47385 -0.98954,0.98954 -2.47385,1.48431 -1.97909,0.98955 -2.96863,2.47386 -0.98954,0.98954 1.48431,4.45293 h -7.42155 q 0.98954,2.47386 0,5.44248 -0.49478,2.47385 -5.93725,1.48431 0.49477,1.97908 0,3.46342 -0.49477,0.98952 -0.98954,2.47383 -0.49477,0.98954 -0.98954,2.96865 -0.49478,1.48431 0,3.95816 -4.94771,0 -8.41113,5.44248 -3.4634,4.94771 -6.43202,8.90587 14.34837,0 25.7281,-2.47385 11.87449,-2.47385 25.7281,-2.96862 z"
         id="path1160"
         style="font-size:494.771px;font-family:'Yuji Mai';-inkscape-font-specification:'Yuji Mai';fill:#990000;fill-opacity:1;stroke-width:21.1667" /></clipPath><filter
       id="C-1"
       x="-0.01052904"
       y="-0.011053209"
       width="1.0210581"
       height="1.0221064"
       class="B"><feGaussianBlur
         stdDeviation="2.441"
         id="feGaussianBlur1205" /></filter><filter
       id="E-3"
       x="-0.047960027"
       y="-0.048037478"
       width="1.0959201"
       height="1.096075"
       class="B"><feGaussianBlur
         stdDeviation="7.58"
         id="feGaussianBlur1208" /></filter><filter
       id="G-2"
       x="-0.065303336"
       y="-0.065303013"
       width="1.1306067"
       height="1.130606"
       class="B"><feGaussianBlur
         stdDeviation="5.51"
         id="feGaussianBlur1211" /></filter><filter
       id="H-7"
       x="-0.15500487"
       y="-0.17417449"
       width="1.3100097"
       height="1.348349"
       class="B"><feGaussianBlur
         stdDeviation="1.005"
         id="feGaussianBlur1214" /></filter><filter
       id="I-4"
       x="-0.16749596"
       y="-0.21712731"
       width="1.3349919"
       height="1.4342546"
       class="B"><feGaussianBlur
         stdDeviation="1.005"
         id="feGaussianBlur1217" /></filter><filter
       id="J-2"
       x="-0.13868595"
       y="-0.16783961"
       width="1.2773719"
       height="1.3356792"
       class="B"><feGaussianBlur
         stdDeviation="1.005"
         id="feGaussianBlur1220" /></filter><filter
       id="K-7"
       x="-0.19308802"
       y="-0.25104453"
       width="1.386176"
       height="1.5020891"
       class="B"><feGaussianBlur
         stdDeviation="1.005"
         id="feGaussianBlur1223" /></filter><filter
       id="L-4"
       x="-0.10037904"
       y="-0.12979434"
       width="1.2007581"
       height="1.2595887"
       class="B"><feGaussianBlur
         stdDeviation="1.005"
         id="feGaussianBlur1226" /></filter><filter
       id="M-3"
       x="-0.11922398"
       y="-0.14197023"
       width="1.238448"
       height="1.2839405"
       class="B"><feGaussianBlur
         stdDeviation="1.005"
         id="feGaussianBlur1229" /></filter><linearGradient
       id="B-0"
       x1="660.031"
       y1="176.668"
       x2="660.029"
       y2="1147.598"
       gradientUnits="userSpaceOnUse"
       gradientTransform="translate(-2470.0682,-359.371)"><stop
         offset=".597"
         stop-color="#fff"
         id="stop1243" /><stop
         offset="1"
         id="stop1245" /></linearGradient><clipPath
       id="D-9"><path
         d="M-309.997 569.351c-12.933-14.657-33.194-29.746-54.318-36.643-15.951-5.173-32.332-5.604-46.99 2.155-27.59-4.311-46.99-.431-68.113-1.293.862-8.622-2.587-22.417 3.449-26.297 20.261 0 40.954-4.311 61.216-6.466 6.898-.862 14.226 4.311 18.537-3.018-12.502-17.244-45.696-25.435-81.477-16.382-.862-9.484-1.724-15.088 1.724-26.297 30.177-1.724 57.336-1.293 81.477-11.209-6.035-12.502-22.848-20.262-43.541-22.848-6.466 6.466-21.124 5.173-34.488 5.173 4.742-18.106-6.035-26.728-10.346-37.505 27.159-5.604 68.975-.862 101.308-3.449-.431-20.693-38.799-27.59-57.336-25.004-23.279 3.449-51.732 2.155-75.442 3.88-36.643 2.587-71.131 10.777-104.756 12.933-3.018.862.431 7.76-3.018 8.191-6.898.431-8.622-4.742-16.813-3.018-4.742 8.622 3.88 13.364 5.173 21.124 12.933 3.88 17.675 14.657 18.106 30.608.862 33.194 0 91.824-8.191 120.707 9.915 9.053 15.519 22.848 26.728 30.608 2.155-2.587 16.382-5.604 16.382-11.209 62.509-6.898 122-16.813 179.336-12.933 7.329 25.866-5.173 51.732-6.466 73.286-.431 4.742 4.311 9.915 3.449 14.657-2.155 13.795-12.502 23.71-23.279 28.883 0-3.018 19.399-16.382 18.537-22.848-13.364 9.053-25.866 30.608-43.541 32.763-25.004 3.018-52.594-18.968-75.011-11.209 17.244 6.898 28.883 20.693 38.368 35.781 18.106 9.484 30.608 27.59 56.474 25.866 13.795-.862 35.35-12.071 44.834-21.124 28.883-26.728 25.435-85.357 36.643-126.742 18.106-2.587 34.488-12.502 41.385-21.124zm-140.968 72.855c2.587-9.915 2.156-18.106 0-25.004-5.604-18.968-26.297-28.883-48.283-36.643 1.293 6.035 2.156 12.933 1.724 21.124 12.933 15.519 19.83 43.972 46.558 40.523zm-60.353-16.813c-6.466-19.83-31.039-31.47-44.403-38.368-4.311 34.057 17.244 62.509 43.11 63.371 3.88-9.484 3.449-17.675 1.293-25.004zm-60.785 7.76c-6.035-19.83-28.452-34.488-46.99-41.385 5.604 29.746 12.071 67.251 44.834 68.544 4.311-9.915 4.742-18.968 2.155-27.159zm-65.096 40.092c10.777-46.558-20.262-64.233-50.007-79.753-8.191 8.622 10.777 31.901 1.724 45.696 9.915 7.76 16.382 22.848 26.728 30.608 5.604 4.311 12.502 6.466 21.555 3.449zm124.587-242.276c-23.71-.431-37.936 6.898-64.664 4.742 2.587-6.898.862-21.986-3.449-27.159 12.502-15.088 42.247-14.226 64.664-16.813 2.155 12.071 4.311 24.141 3.449 39.23zm-1.724 55.18c-25.004.431-40.954 2.587-62.94 4.742-3.449-7.329-1.293-24.141 0-27.59 24.141-2.155 38.368-7.329 62.94-6.466-.431 10.777 1.724 19.83 0 29.315zm1.724 50.438c-24.572 6.898-45.265 6.466-66.389 8.191-1.293-8.622 3.018-19.83 1.293-27.159 23.71 1.724 38.799-9.484 63.371-8.622-.431 10.346 3.018 16.382 1.724 27.59z"
         stroke-width="21.389"
         id="path1248" /></clipPath><clipPath
       id="F-2"><path
         d="M1799.132 1043.254a7.22 7.22 0 0 0-7.237 7.237v107.141l-44.726-44.726 10.889-10.886c-.771-2.729-3.59-5.548-6.319-6.319l-30.343-8.569-5.259-5.26a7.222 7.222 0 0 0-10.237 0l-3.45 3.45a7.222 7.222 0 0 0 0 10.237l5.259 5.259 8.569 30.343c.771 2.729 3.59 5.548 6.319 6.319l10.886-10.889 44.726 44.726h-107.141a7.22 7.22 0 0 0-7.237 7.237v4.88c0 4.01 3.227 7.24 7.237 7.24h107.141l-44.726 44.726-10.886-10.889c-2.729.771-5.548 3.586-6.319 6.315l-8.569 30.347-5.259 5.259a7.222 7.222 0 0 0 0 10.237l3.45 3.45a7.222 7.222 0 0 0 10.237 0l5.266-5.266 30.337-8.565c2.729-.771 5.548-3.586 6.319-6.315l-10.889-10.886 44.726-44.726v107.138c0 4.01 3.227 7.24 7.237 7.24h4.88c4.01 0 7.24-3.23 7.24-7.24v-107.138l44.726 44.726-10.889 10.886c.771 2.729 3.586 5.545 6.315 6.315l30.34 8.565 5.266 5.266a7.222 7.222 0 0 0 10.237 0l3.45-3.45a7.222 7.222 0 0 0 0-10.237l-5.266-5.266-8.565-30.34c-.771-2.729-3.586-5.545-6.315-6.315l-10.886 10.889-44.726-44.726h107.138c4.01 0 7.24-3.23 7.24-7.24v-4.88c0-4.01-3.23-7.237-7.24-7.237H1824.94l44.726-44.726 10.886 10.889c2.729-.771 5.545-3.59 6.315-6.319l8.565-30.337 5.266-5.266a7.222 7.222 0 0 0 0-10.237l-1.725-1.725-1.725-1.725a7.222 7.222 0 0 0-10.237 0l-5.259 5.26-30.347 8.569c-2.729.771-5.545 3.59-6.315 6.319l10.889 10.886-44.726 44.726V1050.49c0-4.01-3.23-7.237-7.24-7.237zm2.438 137.74h.01v.01h-.01z"
         stroke-width="1.534"
         id="path1251" /></clipPath><filter
       inkscape:menu-tooltip="In and out glow with a possible offset and colorizable flood"
       inkscape:menu="Shadows and Glows"
       inkscape:label="Cutout Glow"
       style="color-interpolation-filters:sRGB;"
       id="filter1537"
       x="-0.043339722"
       y="-0.018142189"
       width="1.0614819"
       height="1.0614819"><feOffset
         dy="10"
         dx="-10"
         id="feOffset1527" /><feGaussianBlur
         stdDeviation="3"
         result="blur"
         id="feGaussianBlur1529" /><feFlood
         flood-color="rgb(0,0,0)"
         flood-opacity="0"
         result="flood"
         id="feFlood1531" /><feComposite
         in="flood"
         in2="SourceGraphic"
         operator="in"
         result="composite"
         id="feComposite1533" /><feBlend
         in="blur"
         in2="composite"
         mode="normal"
         id="feBlend1535" /></filter><clipPath
       clipPathUnits="userSpaceOnUse"
       id="clipPath1539"><path
         id="path1541"
         d="m 656.4196,812.74037 a 10.404,10.404 0 0 0 -10.42828,10.42312 v 10.72803 l -22.1847,39.63063 c -1.99498,3.56499 -1.99498,9.30245 0,12.86742 h 22.1847 v 90.89881 l -64.37331,-64.37331 15.68896,-15.68378 c -1.11,-3.93099 -5.16924,-7.9902 -9.10023,-9.10021 l -43.71307,-12.3455 -7.58094,-7.57576 c -4.06704,-4.08485 -10.67622,-4.08485 -14.74327,0 l -4.97128,4.97128 c -2.04242,2.03351 -3.0644,4.70424 -3.0644,7.37422 a 10.405,10.405 0 0 0 0.1188,0.61495 c 0.1352,2.25123 0.99756,4.43007 2.589,6.22699 a 10.405,10.405 0 0 0 0.28937,0.69247 l 7.73081,7.7308 12.25764,43.39784 c 1.11,3.932 5.16821,7.99023 9.1002,9.10021 l 15.57012,-15.57009 64.48181,64.48182 h -91.121 v -22.18467 c -3.565,-1.99501 -9.30243,-1.99501 -12.86743,0 l -39.63581,22.18467 h -10.72284 a 10.4,10.4 0 0 0 -10.42315,10.42309 v 7.028 c 0,5.777 4.64613,10.4335 10.42315,10.4335 h 10.728 l 39.63065,22.1743 c 3.565,1.995 9.30243,1.995 12.86743,0 v -22.1743 h 91.01766 l -64.26478,64.2699 -15.68381,-15.6889 c -3.93099,1.11 -7.9902,5.1692 -9.1002,9.1002 l -12.34551,43.7183 -7.57576,7.5757 c -2.04372,2.0348 -3.0657,4.7077 -3.0644,7.3794 a 10.405,10.405 0 0 0 0.11377,0.5788 c 0.12912,2.2664 0.99965,4.456 2.60448,6.2632 a 10.405,10.405 0 0 0 0.28424,0.6873 l 4.97125,4.9712 a 10.405,10.405 0 0 0 0.82167,0.3411 c 1.68899,1.4171 3.67048,2.2122 5.7464,2.3874 a 10.405,10.405 0 0 0 1.49347,0.047 c 2.23742,-0.1376 4.40166,-0.9921 6.19082,-2.5684 a 10.405,10.405 0 0 0 0.49093,-0.2066 l 7.7928,-7.7928 43.5632,-12.299 c 3.931,-1.11 7.99023,-5.164 9.10024,-9.095 l -15.63729,-15.6321 64.32163,-64.3217 v 91.1211 h -22.18469 c -1.99499,3.565 -1.99499,9.3076 0,12.8726 l 22.18469,39.6306 v 10.7229 a 10.41,10.41 0 0 0 10.42829,10.4283 h 7.02283 a 10.41,10.41 0 0 0 10.43347,-10.4283 v -10.7229 l 22.18467,-39.6306 c 1.99501,-3.565 1.99501,-9.3076 0,-12.8726 h -22.18467 v -91.121 l 64.38363,64.3837 -15.57528,15.5701 c 1.11001,3.931 5.16925,7.985 9.10024,9.095 l 43.38233,12.2473 7.8445,7.8445 a 10.405,10.405 0 0 0 0.83714,0.3463 c 1.68584,1.4112 3.66043,2.2064 5.73093,2.3822 a 10.405,10.405 0 0 0 1.49859,0.047 c 2.23745,-0.1376 4.40169,-0.9921 6.19086,-2.5684 a 10.405,10.405 0 0 0 0.49093,-0.2066 L 802.73105,1149 a 10.405,10.405 0 0 0 2.12392,-3.2558 c 0.1905,-0.4185 0.28646,-0.8409 0.41857,-1.2763 a 10.405,10.405 0 0 0 0.39275,-2.0206 c 0.0638,-0.6654 0.0638,-1.2982 0,-1.9636 a 10.405,10.405 0 0 0 -0.23786,-1.2145 c -0.41143,-1.8875 -1.1642,-3.7131 -2.63549,-5.178 l -7.5861,-7.5861 -12.34032,-43.7079 c -1.11001,-3.931 -5.16406,-7.9902 -9.09505,-9.1001 l -15.68381,15.6888 -64.26478,-64.2699 h 90.8885 v 22.1744 c 3.56496,1.9949 9.30758,1.9949 12.87258,0 l 39.62546,-22.1744 h 10.73319 a 10.404,10.404 0 0 0 10.42313,-10.4335 v -7.028 a 10.4,10.4 0 0 0 -10.42313,-10.42303 h -10.72284 l -39.63581,-22.18469 c -3.565,-1.99501 -9.30762,-1.99501 -12.87258,0 v 22.18469 h -91.05386 v -0.0619 l 64.48184,-64.48181 15.63211,15.6321 c 3.93099,-1.10998 7.98504,-5.16921 9.09505,-9.10021 l 12.29896,-43.5632 7.56544,-7.56544 a 10.405,10.405 0 0 0 2.12392,-3.25043 c 0.19182,-0.4213 0.28598,-0.84828 0.41857,-1.28675 a 10.405,10.405 0 0 0 0.39274,-2.01538 c 0.0638,-0.66501 0.0638,-1.29871 0,-1.96371 a 10.405,10.405 0 0 0 -0.23786,-1.21439 c -0.41142,-1.88751 -1.16419,-3.71311 -2.63548,-5.17797 l -2.48563,-2.48563 -2.48565,-2.48565 c -4.06704,-4.08485 -10.67623,-4.08485 -14.74327,0 l -7.57576,7.58092 -43.71825,12.34034 c -3.93199,1.11001 -7.99023,5.17337 -9.10023,9.10537 l 15.68896,15.68381 -64.4353,64.43014 h -0.0619 v -90.96083 h 22.17953 c 1.99499,-3.56497 1.99499,-9.30243 0,-12.86742 l -22.17953,-39.63145 v -10.72803 a 10.404,10.404 0 0 0 -10.43334,-10.42357 z"
         style="fill:#970000;fill-opacity:1;stroke-width:1"
         inkscape:label="path78-8-0" /></clipPath></defs><path
     d="m-2681.73 217.274 26.181 28.949 172.576 56.161 193.177-61.463 89.581-450.194-45.894-49.39z"
     transform="matrix(-2.0051 0 0 2.0051 -4364.078 706.823)"
     opacity=".5"
     filter="url(#B)"
     id="path55" /><path
     d="m-1220.686-363.581-176.123 60.03-8.809 28.459-84.914 494.898 10.349 7.986h518.995l10.348-7.986-84.914-495.039-8.809-28.459z"
     fill="url(#A)"
     transform="rotate(180 -893.82 266.77) scale(2.0051)"
     id="path57" /><path
     d="m-905.02-407.213-176.123 59.888-8.809 26.778-84.914 496.72 10.349 7.986h518.995l10.349-7.986-84.914-494.898-8.809-28.601z"
     opacity=".25"
     fill="url(#C)"
     transform="rotate(180 -577.344 223.027) scale(2.0051)"
     style="mix-blend-mode:overlay"
     id="path59" /><path
     d="m139.629 97.854.043-21.064-20.75 16.013 20.707 5.052zm891.185 987.285-17.664-13.248L660 1188.821v16.402z"
     opacity=".4"
     id="path61" /><path
     d="m289.186 1085.139 17.664-13.248L660 1188.821v16.402z"
     opacity=".6"
     id="path63" /><path
     d="m289.186 1085.139 17.664-13.248L139.629 97.854l-20.707-5.052z"
     opacity=".6"
     id="path65" /><g
     fill="#fff"
     id="g73"><path
       d="m1030.814 1085.139-17.664-13.248 167.221-974.037 20.707-5.052z"
       opacity=".3"
       id="path67" /><path
       d="m1180.371 97.854-.043-21.064 20.75 16.013-20.707 5.052z"
       opacity=".8"
       id="path69" /><path
       d="M1180.371 97.854H139.629l.043-21.064h1040.656l.043 21.064z"
       opacity=".3"
       id="path71" /></g><path
     d="m306.849 1142.487-17.663-57.348L660 1205.223l370.814-120.084-17.663 57.348L660 1262.571l-353.151-120.084z"
     opacity=".7"
     id="path75" /><path
     id="path78"
     d="m 656.1111,145.23243 a 10.404,10.404 0 0 0 -10.4283,10.42313 v 10.72803 l -22.1847,39.63064 c -1.995,3.56499 -1.995,9.30243 0,12.86742 h 22.1847 v 90.89881 l -64.3733,-64.37331 15.6889,-15.68379 c -1.11,-3.93099 -5.1692,-7.99021 -9.1002,-9.10021 l -43.7131,-12.3455 -7.5809,-7.57576 c -4.0671,-4.08486 -10.6762,-4.08486 -14.7433,0 l -4.9713,4.97127 c -2.0424,2.03352 -3.0644,4.70424 -3.0644,7.37423 a 10.405,10.405 0 0 0 0.1189,0.61494 c 0.1351,2.25125 0.9975,4.43009 2.589,6.22701 a 10.405,10.405 0 0 0 0.2894,0.69247 l 7.7308,7.73079 12.2576,43.39785 c 1.11,3.93199 5.1682,7.99021 9.1002,9.10021 l 15.5701,-15.5701 64.4818,64.48183 H 534.842 V 307.5377 c -3.565,-1.995 -9.3024,-1.995 -12.8674,0 l -39.6358,22.18469 h -10.7229 a 10.4,10.4 0 0 0 -10.4231,10.42309 v 7.028 c 0,5.777 4.6461,10.4335 10.4231,10.4335 h 10.7281 l 39.6306,22.1743 c 3.565,1.995 9.3024,1.995 12.8674,0 v -22.1743 h 91.0177 l -64.2648,64.2699 -15.6838,-15.6889 c -3.931,1.11 -7.9902,5.1692 -9.1002,9.1002 l -12.3455,43.7183 -7.5758,7.5757 c -2.0437,2.0348 -3.0657,4.7077 -3.0644,7.3794 a 10.405,10.405 0 0 0 0.1137,0.5788 c 0.1292,2.2664 0.9997,4.456 2.6045,6.2632 a 10.405,10.405 0 0 0 0.2842,0.6873 l 4.9713,4.9712 a 10.405,10.405 0 0 0 0.8217,0.3411 c 1.689,1.4171 3.6704,2.2122 5.7464,2.3874 a 10.405,10.405 0 0 0 1.4934,0.047 c 2.2375,-0.1377 4.4017,-0.9921 6.1909,-2.5684 a 10.405,10.405 0 0 0 0.4909,-0.2067 l 7.7928,-7.7928 43.5632,-12.299 c 3.931,-1.11 7.9902,-5.164 9.1002,-9.095 l -15.6373,-15.6321 64.3217,-64.3217 v 91.1211 h -22.1847 c -1.995,3.565 -1.995,9.3076 0,12.8726 l 22.1847,39.6306 v 10.7229 a 10.41,10.41 0 0 0 10.4283,10.4283 h 7.0228 a 10.41,10.41 0 0 0 10.4335,-10.4283 v -10.7229 l 22.1846,-39.6306 c 1.995,-3.565 1.995,-9.3076 0,-12.8726 h -22.1846 v -91.1211 l 64.3836,64.3837 -15.5753,15.5701 c 1.11,3.931 5.1692,7.985 9.1002,9.095 l 43.3824,12.2473 7.8445,7.8445 a 10.405,10.405 0 0 0 0.8371,0.3463 c 1.6859,1.4112 3.6604,2.2064 5.7309,2.3822 a 10.405,10.405 0 0 0 1.4987,0.047 c 2.2374,-0.1377 4.4016,-0.9921 6.1908,-2.5684 a 10.405,10.405 0 0 0 0.4909,-0.2067 l 4.9713,-4.9712 a 10.405,10.405 0 0 0 2.1239,-3.2557 c 0.1904,-0.4185 0.2865,-0.8409 0.4186,-1.2764 a 10.405,10.405 0 0 0 0.3927,-2.0205 c 0.064,-0.6654 0.064,-1.2983 0,-1.9637 a 10.405,10.405 0 0 0 -0.2377,-1.2144 c -0.4114,-1.8875 -1.1642,-3.7131 -2.6355,-5.178 l -7.5861,-7.5861 -12.3403,-43.7079 c -1.11,-3.931 -5.1641,-7.9902 -9.0951,-9.1002 l -15.6838,15.6889 -64.2648,-64.2699 h 90.8885 v 22.1743 c 3.565,1.995 9.3076,1.995 12.8726,0 l 39.6255,-22.1743 h 10.7332 a 10.404,10.404 0 0 0 10.4231,-10.4335 v -7.028 A 10.4,10.4 0 0 0 847.6342,329.72319 H 836.9113 L 797.2755,307.5385 c -3.565,-1.995 -9.3076,-1.995 -12.8726,0 v 22.18469 h -91.0538 v -0.062 l 64.4818,-64.48182 15.6321,15.63211 c 3.931,-1.11 7.9851,-5.16922 9.0951,-9.10021 l 12.299,-43.56322 7.5654,-7.56542 a 10.405,10.405 0 0 0 2.1239,-3.25045 c 0.1917,-0.42128 0.286,-0.84827 0.4186,-1.28674 a 10.405,10.405 0 0 0 0.3927,-2.01538 c 0.064,-0.66501 0.064,-1.2987 0,-1.96371 a 10.405,10.405 0 0 0 -0.2377,-1.21439 c -0.4114,-1.88752 -1.1642,-3.7131 -2.6355,-5.17798 l -2.4856,-2.48563 -2.4857,-2.48564 c -4.067,-4.08486 -10.6762,-4.08486 -14.7433,0 l -7.5757,7.58093 -43.7183,12.34033 c -3.932,1.11 -7.9902,5.17338 -9.1002,9.10538 l 15.689,15.68379 -64.4353,64.43015 h -0.062 v -90.96082 h 22.1795 c 1.995,-3.56499 1.995,-9.30243 0,-12.86742 l -22.1795,-39.63146 v -10.72803 a 10.404,10.404 0 0 0 -10.4335,-10.42313 z"
     style="fill:#000000;fill-opacity:1" /><path
     id="path78-8"
     d="m 656.41961,812.74036 a 10.404,10.404 0 0 0 -10.4283,10.42313 v 10.72803 l -22.18468,39.63064 c -1.995,3.56499 -1.995,9.30243 0,12.86742 h 22.18468 v 90.89881 L 581.618,912.91508 597.30696,897.23129 c -1.11,-3.93099 -5.16922,-7.99021 -9.10021,-9.10021 l -43.71308,-12.3455 -7.58093,-7.57576 c -4.06705,-4.08486 -10.67623,-4.08486 -14.74328,0 l -4.97127,4.97127 c -2.04243,2.03352 -3.06441,4.70424 -3.06441,7.37423 a 10.405,10.405 0 0 0 0.11885,0.61494 c 0.13516,2.25125 0.99755,4.43009 2.58899,6.22701 a 10.405,10.405 0 0 0 0.28939,0.69247 l 7.73079,7.73079 12.25765,43.39785 c 1.11,3.93199 5.16822,7.99021 9.10021,9.10021 l 15.57011,-15.5701 64.48182,64.48183 h -91.12101 v -22.18469 c -3.565,-1.995 -9.30243,-1.995 -12.86743,0 l -39.63581,22.18469 h -10.72285 a 10.4,10.4 0 0 0 -10.42314,10.42308 v 7.028 c 0,5.777 4.64614,10.4335 10.42314,10.4335 h 10.72802 l 39.63064,22.1743 c 3.565,1.995 9.30243,1.995 12.86743,0 v -22.1743 h 91.01766 l -64.26479,64.2699 -15.68379,-15.6889 c -3.93099,1.11 -7.99021,5.1692 -9.10021,9.1002 l -12.3455,43.7183 -7.57576,7.5757 c -2.04372,2.0348 -3.06571,4.7077 -3.06441,7.3794 a 10.405,10.405 0 0 0 0.11369,0.5788 c 0.12922,2.2664 0.99966,4.456 2.60449,6.2632 a 10.405,10.405 0 0 0 0.28422,0.6873 l 4.97127,4.9712 a 10.405,10.405 0 0 0 0.82165,0.3411 c 1.689,1.4171 3.67048,2.2122 5.74642,2.3874 a 10.405,10.405 0 0 0 1.49345,0.047 c 2.23743,-0.1377 4.40166,-0.9921 6.19083,-2.5684 a 10.405,10.405 0 0 0 0.49093,-0.2067 l 7.7928,-7.7928 43.56322,-12.299 c 3.93099,-1.11 7.99021,-5.164 9.10021,-9.095 l -15.63728,-15.6321 64.32163,-64.3217 v 91.1211 h -22.18468 c -1.995,3.565 -1.995,9.3076 0,12.8726 l 22.18468,39.6306 v 10.7229 a 10.41,10.41 0 0 0 10.4283,10.4283 h 7.02282 a 10.41,10.41 0 0 0 10.43347,-10.4283 v -10.7229 l 22.18468,-39.6306 c 1.995,-3.565 1.995,-9.3076 0,-12.8726 H 673.8759 v -91.1211 l 64.38364,64.3837 -15.57527,15.5701 c 1.11,3.931 5.16922,7.985 9.10022,9.095 l 43.38234,12.2473 7.84448,7.8445 a 10.405,10.405 0 0 0 0.83716,0.3463 c 1.68584,1.4112 3.66041,2.2064 5.73091,2.3822 a 10.405,10.405 0 0 0 1.49862,0.047 c 2.23743,-0.1377 4.40167,-0.9921 6.19083,-2.5684 a 10.405,10.405 0 0 0 0.49093,-0.2067 l 4.97127,-4.9712 a 10.405,10.405 0 0 0 2.1239,-3.2557 c 0.19044,-0.4185 0.28648,-0.8409 0.41858,-1.2764 a 10.405,10.405 0 0 0 0.39274,-2.0205 c 0.0639,-0.6654 0.0639,-1.2983 0,-1.9637 a 10.405,10.405 0 0 0 -0.23771,-1.2144 c -0.41143,-1.8875 -1.1642,-3.7131 -2.6355,-5.178 l -7.58609,-7.5861 -12.34033,-43.7079 c -1.11,-3.931 -5.16405,-7.9902 -9.09505,-9.1002 l -15.68379,15.6889 -64.26479,-64.2699 h 90.88848 v 22.1743 c 3.56499,1.995 9.30759,1.995 12.87259,0 l 39.62547,-22.1743 h 10.73319 a 10.404,10.404 0 0 0 10.42313,-10.4335 v -7.028 a 10.4,10.4 0 0 0 -10.42313,-10.42308 h -10.72285 l -39.63581,-22.18469 c -3.565,-1.995 -9.3076,-1.995 -12.87259,0 v 22.18469 h -91.05384 v -0.062 l 64.48183,-64.48182 15.63211,15.63211 c 3.931,-1.11 7.98505,-5.16922 9.09505,-9.10021 l 12.29898,-43.56322 7.56543,-7.56542 a 10.405,10.405 0 0 0 2.1239,-3.25045 c 0.19171,-0.42128 0.28599,-0.84827 0.41858,-1.28674 a 10.405,10.405 0 0 0 0.39274,-2.01538 c 0.0638,-0.66501 0.0638,-1.2987 0,-1.96371 a 10.405,10.405 0 0 0 -0.23771,-1.21439 c -0.41143,-1.88752 -1.1642,-3.7131 -2.6355,-5.17798 l -2.48563,-2.48563 -2.48564,-2.48564 c -4.06704,-4.08486 -10.67623,-4.08486 -14.74328,0 l -7.57576,7.58093 -43.71824,12.34033 c -3.932,1.11 -7.99022,5.17338 -9.10022,9.10538 l 15.68896,15.68379 -64.43532,64.43015 h -0.062 V 886.3904 h 22.17952 c 1.99499,-3.56499 1.99499,-9.30243 0,-12.86742 L 673.8759,833.89152 v -10.72803 a 10.404,10.404 0 0 0 -10.43347,-10.42313 z"
     style="fill:#29303d;fill-opacity:1;filter:url(#filter1537)"
     clip-path="url(#clipPath1539)"
     transform="translate(-0.30855926,-667.50836)" /><path
     d="m 428.03089,758.83295 q 1.03188,-2.06375 1.03188,-4.1275 0,-1.54781 0,-3.61156 0,-1.54781 0.51593,-4.12749 0,-2.06375 0.51594,-5.15937 3.61156,-3.61156 10.31874,-5.67531 6.19125,-1.54781 9.80281,-5.67531 23.7331,1.54781 44.88652,6.70718 20.63748,5.67531 32.50403,15.99405 7.22311,6.70718 14.96217,19.60561 7.22312,12.89842 19.08967,19.6056 9.28687,-2.06374 18.57373,-3.09562 8.77093,-0.51593 17.54186,-0.51593 11.86655,0 23.21717,-1.54782 11.35061,-1.03187 22.18529,-6.19124 -2.57969,-17.54186 1.54781,-34.56778 4.12749,-17.02592 16.50998,-25.28091 9.28687,1.54781 13.41437,9.28686 3.61155,7.73906 4.12749,18.0578 0.51594,10.31874 0,20.12154 0,2.06375 0,4.1275 0,2.57968 0,4.64343 6.19125,4.1275 13.9303,4.64343 7.73906,1.03188 15.99405,1.03188 1.54781,0 2.57968,0 9.80281,0 19.08967,2.57968 9.28687,2.57969 14.44624,12.38249 8.77093,-7.73905 14.96217,-13.9303 6.19125,-5.6753 10.83468,-14.44623 5.67531,2.06374 7.22312,0.51593 1.54781,-1.03187 2.57968,-3.61156 1.03188,-2.57968 3.09562,-4.64343 1.54782,-2.06375 6.70719,-1.54781 0,-3.09562 1.54781,-4.1275 1.03187,-1.03187 3.61156,-2.06374 1.03187,-0.51594 2.57968,-1.54781 1.54781,-0.51594 2.57969,-1.54782 5.15937,-4.12749 9.8028,-9.28686 4.64343,-5.15937 10.83468,-9.28687 2.57968,-6.19124 11.35061,-9.8028 8.25499,-3.61156 19.08967,-4.64343 10.83468,-1.03188 20.63748,-0.51594 -1.54781,2.57968 -3.09562,2.57968 -1.54781,0 -3.61156,-0.51593 -1.03187,0 -2.57969,-0.51594 -1.54781,0 -3.09562,0 1.03188,4.1275 3.09562,4.1275 1.54782,0.51593 4.1275,-0.51594 3.09562,-1.03188 5.15937,-1.54781 2.57969,1.54781 5.67531,1.03187 2.57968,0 5.15937,-0.51594 2.06375,-0.51593 4.64343,-1.03187 2.06375,0 4.1275,0.51594 0,4.64343 -7.22312,6.19124 -7.73906,2.06375 -14.96217,4.1275 -7.73906,2.06375 -7.73906,6.70718 -2.06375,-2.06375 -7.73905,-2.06375 -5.67531,5.67531 -9.80281,12.89843 -4.64343,7.22311 -15.99405,7.73905 0.51594,3.09562 -0.51593,5.15937 -1.54781,2.06375 -1.54781,2.06375 -3.61156,-2.06375 -5.67531,-1.03187 -2.06375,1.03187 -4.1275,2.57968 -1.54781,1.54781 -3.09562,2.57969 -2.06375,1.54781 -5.15937,1.54781 0.51594,3.09562 3.61156,2.57968 2.06375,-0.51594 2.57969,1.54781 -1.54782,3.09562 -3.09563,2.57969 -2.06374,0 -4.12749,-1.03188 -2.06375,-1.03187 -3.09562,-1.54781 -0.51594,2.57969 1.54781,3.61156 2.06374,1.03188 4.12749,1.54781 2.06375,0.51594 2.57969,0.51594 -2.06375,2.57968 -6.19125,2.06375 -4.64343,-0.51594 -5.6753,3.09562 0,2.06375 2.06374,1.03187 1.03188,-1.03187 2.57969,-1.54781 1.03187,-0.51593 3.09562,0.51594 -8.25499,8.77093 -16.50998,17.02592 -8.77093,8.25499 -19.08967,14.96217 -1.03188,13.41437 -10.31874,26.82873 -9.28687,13.41436 -20.12155,27.8606 -10.83467,14.44623 -15.47811,29.92434 6.19125,2.57969 15.47811,1.03188 8.77093,-1.54781 18.0578,-4.1275 8.77093,-2.57968 17.02592,-4.12749 8.25499,-1.54781 14.96217,-0.51594 -0.51593,7.73905 4.1275,12.89842 4.64343,5.67531 10.31874,10.83468 6.19124,5.67531 11.86655,11.86655 5.67531,6.70718 5.67531,17.02592 -7.22312,1.54782 -14.44624,-0.51593 -7.73905,-2.06375 -15.47811,-4.64344 -5.67531,-2.06374 -11.35061,-4.12749 -6.19125,-1.54781 -12.38249,-2.06375 -7.22312,-0.51594 -18.57373,-0.51594 -11.35062,0 -21.66936,1.03188 -10.83467,1.54781 -15.47811,3.61156 -6.19124,3.09562 -7.73905,12.38248 -2.06375,9.80281 -1.03188,21.15342 0.51594,11.35062 2.57969,20.63748 0.51593,2.06375 2.06375,4.64344 1.03187,3.09561 2.57968,6.19121 3.09562,6.1913 6.19125,13.4144 3.09562,7.2231 3.09562,13.4144 -4.1275,1.5478 -5.67531,5.6753 -16.50998,-13.4144 -34.56778,-25.7969 -18.0578,-11.86654 -29.40841,-30.44027 5.15937,-6.70718 6.19124,-17.54186 1.03188,-10.83468 2.06375,-16.50999 -12.38249,-0.51593 -24.76497,0.51594 -12.38249,1.03188 -24.76498,2.06375 -10.31874,1.54781 -20.63748,2.06375 -10.31874,1.03187 -20.63748,1.03187 -14.96217,0 -29.40841,-3.09562 -14.44624,-3.09562 -27.34466,-11.86655 -6.19125,-8.25499 -4.1275,-12.38249 2.06375,-3.61156 5.67531,-6.70718 1.03187,-1.54781 2.57968,-2.57969 1.03188,-1.03187 2.06375,-2.57968 22.18529,1.54781 47.98214,1.03187 25.28092,0 49.52996,-3.09562 -5.67531,-7.22312 -12.89843,-11.86655 -7.22312,-4.64343 -13.9303,-9.28687 -6.70718,-4.64343 -10.83468,-12.38249 -10.83467,-2.06374 -15.47811,-10.83467 -4.64343,-8.25499 -12.38248,-13.9303 -11.35062,-8.25499 -25.79685,-13.9303 -14.44624,-5.15937 -28.89248,-10.83468 -14.44623,-5.15937 -25.28091,-14.44623 -5.15937,-9.80281 -12.89843,-17.54186 -8.25499,-7.73906 -17.02592,-14.44624 -1.03187,-8.25499 -5.6753,-12.38249 -4.64344,-4.12749 -8.255,-9.8028 z m 45.9184,-61.91244 q -1.03188,-2.57969 -0.51594,-4.1275 0.51594,-1.03187 2.06375,-2.06375 2.06375,-1.54781 2.57968,-3.61156 11.86655,-2.06374 22.70123,-1.54781 10.31874,0.51594 20.63748,1.54781 9.80281,0.51594 19.60561,1.03188 9.8028,0.51594 20.63748,-1.03188 1.03187,-9.8028 1.03187,-21.15341 0,-10.83468 -0.51593,-21.66936 0,-5.6753 0,-11.35061 -0.51594,-5.15937 -0.51594,-10.83468 0,-21.15342 3.61156,-39.72715 3.09562,-19.08967 15.99405,-29.92435 9.28686,4.1275 13.41436,18.0578 4.12749,13.41436 5.15937,29.92435 1.03187,15.99404 1.54781,26.82872 0,6.70718 0,12.89843 0,6.19124 -0.51594,12.38248 -0.51593,9.28687 -0.51593,17.54186 0,8.255 1.03187,15.47811 14.44624,3.61156 31.98809,2.06375 17.02593,-1.03187 35.08372,-3.09562 10.31874,-1.03187 20.63748,-2.06375 9.8028,-1.03187 19.60561,-1.03187 1.03187,-33.53591 11.35061,-55.20526 10.31874,-21.66936 20.63748,-36.63153 3.61156,-5.15937 9.28687,-9.8028 5.67531,-4.64344 14.44624,-10.83468 0.51593,0.51594 3.09562,0 2.06375,-0.51594 4.12749,-0.51594 1.54781,0 3.09563,2.57969 -1.03188,4.64343 -3.09563,10.83467 -2.57968,6.19125 -5.15937,12.89843 -6.70718,17.54186 -12.89842,38.69528 -6.70718,21.15341 -5.15937,40.75902 6.19124,1.03187 12.38249,-2.06375 5.6753,-3.09562 9.8028,-7.22312 21.15342,3.61156 34.05184,14.96218 12.89843,11.35061 23.7331,24.24904 -4.12749,1.03187 -7.73905,1.03187 -3.61156,0 -7.22312,0 -5.67531,0 -10.31874,0.51594 -5.15937,0.51593 -8.77093,6.19124 -4.64343,-4.64343 -13.41436,-4.64343 -9.28687,0.51594 -18.0578,1.54781 -5.15937,1.03187 -9.8028,1.03187 -4.64343,0.51594 -8.25499,0 -1.54781,9.80281 2.57968,17.54186 3.61156,7.73906 8.255,15.47811 3.09562,4.64343 6.19124,9.28687 2.57969,5.15937 4.64343,10.31874 -12.38249,2.57968 -28.89247,-1.54781 -17.02592,-4.1275 -26.31279,-15.99405 -9.8028,-12.38249 -4.64343,-31.47216 -24.24904,0 -48.49808,2.06375 -24.76498,2.57969 -52.62557,3.61156 -1.03188,10.31874 1.03187,21.66935 1.54781,11.86656 3.61156,22.1853 1.03187,6.19124 2.06375,11.86655 1.03187,5.6753 1.03187,9.8028 -3.09562,-1.54781 -6.19124,-3.09562 -3.09563,-1.03188 -6.19125,-2.57969 -11.86655,-5.15937 -23.21716,-11.35061 -11.35062,-6.19125 -18.0578,-15.99405 -6.70718,-9.28687 -4.12749,-24.76498 -19.60561,-0.51593 -41.7909,-7.73905 -22.18529,-7.22312 -39.72715,-22.18529 z m 91.83679,104.73521 q 0,0 8.25499,9.28687 7.73905,9.28686 20.12154,24.76497 12.38249,15.47811 26.82873,34.05185 13.9303,19.08967 26.31278,38.69527 4.64344,-0.51593 10.83468,-0.51593 6.19124,0 10.83468,-1.03188 0.51594,-1.54781 2.57968,-4.12749 3.61156,-6.19125 7.22312,-13.41437 3.61156,-7.22311 2.06375,-12.38249 -9.8028,-4.12749 -20.63748,-11.35061 -10.83468,-7.22312 -17.02592,-18.05779 -6.70718,-10.83468 -4.1275,-25.28092 -13.41436,0.51594 -28.37653,-4.64343 -14.96218,-4.64343 -27.8606,-9.8028 -5.15937,-2.06375 -9.28687,-3.61156 -4.1275,-1.54781 -7.73905,-2.57969 z m 115.05395,14.96217 q -1.03187,9.28687 2.06375,25.28092 2.57968,16.50998 8.25499,29.40841 2.06375,-2.06375 5.67531,-5.67531 3.09562,-3.09562 6.19124,-5.67531 -1.54781,-2.06374 -4.1275,-1.03187 -1.54781,1.03187 -2.06374,-1.03187 0.51593,-1.54782 2.06374,-2.57969 1.03188,-1.03187 2.57969,-1.54781 2.06375,-1.03187 3.09562,-2.57969 1.03188,-1.03187 -1.54781,-4.64343 h 7.73906 q -1.03188,-2.57968 0,-5.67531 0.51593,-2.57968 6.19124,-1.54781 -0.51594,-2.06375 0,-3.61156 0.51594,-1.03187 1.03187,-2.57968 0.51594,-1.03188 1.03188,-3.09562 0.51594,-1.54781 0,-4.1275 5.15937,0 8.77093,-5.67531 3.61156,-5.15937 6.70718,-9.28686 -14.96217,0 -26.82873,2.57968 -12.38248,2.57969 -26.82872,3.09562 z"
     id="path490-5"
     style="font-size:515.937px;font-family:'Yuji Mai';-inkscape-font-specification:'Yuji Mai';fill:#000000;fill-opacity:1;stroke-width:21.1667" /><path
     d="m 428.03089,758.83295 q 1.03188,-2.06375 1.03188,-4.1275 0,-1.54781 0,-3.61156 0,-1.54781 0.51593,-4.12749 0,-2.06375 0.51594,-5.15937 3.61156,-3.61156 10.31874,-5.67531 6.19125,-1.54781 9.80281,-5.67531 23.7331,1.54781 44.88652,6.70718 20.63748,5.67531 32.50403,15.99405 7.22311,6.70718 14.96217,19.60561 7.22312,12.89842 19.08967,19.6056 9.28687,-2.06374 18.57373,-3.09562 8.77093,-0.51593 17.54186,-0.51593 11.86655,0 23.21717,-1.54782 11.35061,-1.03187 22.18529,-6.19124 -2.57969,-17.54186 1.54781,-34.56778 4.12749,-17.02592 16.50998,-25.28091 9.28687,1.54781 13.41437,9.28686 3.61155,7.73906 4.12749,18.0578 0.51594,10.31874 0,20.12154 0,2.06375 0,4.1275 0,2.57968 0,4.64343 6.19125,4.1275 13.9303,4.64343 7.73906,1.03188 15.99405,1.03188 1.54781,0 2.57968,0 9.80281,0 19.08967,2.57968 9.28687,2.57969 14.44624,12.38249 8.77093,-7.73905 14.96217,-13.9303 6.19125,-5.6753 10.83468,-14.44623 5.67531,2.06374 7.22312,0.51593 1.54781,-1.03187 2.57968,-3.61156 1.03188,-2.57968 3.09562,-4.64343 1.54782,-2.06375 6.70719,-1.54781 0,-3.09562 1.54781,-4.1275 1.03187,-1.03187 3.61156,-2.06374 1.03187,-0.51594 2.57968,-1.54781 1.54781,-0.51594 2.57969,-1.54782 5.15937,-4.12749 9.8028,-9.28686 4.64343,-5.15937 10.83468,-9.28687 2.57968,-6.19124 11.35061,-9.8028 8.25499,-3.61156 19.08967,-4.64343 10.83468,-1.03188 20.63748,-0.51594 -1.54781,2.57968 -3.09562,2.57968 -1.54781,0 -3.61156,-0.51593 -1.03187,0 -2.57969,-0.51594 -1.54781,0 -3.09562,0 1.03188,4.1275 3.09562,4.1275 1.54782,0.51593 4.1275,-0.51594 3.09562,-1.03188 5.15937,-1.54781 2.57969,1.54781 5.67531,1.03187 2.57968,0 5.15937,-0.51594 2.06375,-0.51593 4.64343,-1.03187 2.06375,0 4.1275,0.51594 0,4.64343 -7.22312,6.19124 -7.73906,2.06375 -14.96217,4.1275 -7.73906,2.06375 -7.73906,6.70718 -2.06375,-2.06375 -7.73905,-2.06375 -5.67531,5.67531 -9.80281,12.89843 -4.64343,7.22311 -15.99405,7.73905 0.51594,3.09562 -0.51593,5.15937 -1.54781,2.06375 -1.54781,2.06375 -3.61156,-2.06375 -5.67531,-1.03187 -2.06375,1.03187 -4.1275,2.57968 -1.54781,1.54781 -3.09562,2.57969 -2.06375,1.54781 -5.15937,1.54781 0.51594,3.09562 3.61156,2.57968 2.06375,-0.51594 2.57969,1.54781 -1.54782,3.09562 -3.09563,2.57969 -2.06374,0 -4.12749,-1.03188 -2.06375,-1.03187 -3.09562,-1.54781 -0.51594,2.57969 1.54781,3.61156 2.06374,1.03188 4.12749,1.54781 2.06375,0.51594 2.57969,0.51594 -2.06375,2.57968 -6.19125,2.06375 -4.64343,-0.51594 -5.6753,3.09562 0,2.06375 2.06374,1.03187 1.03188,-1.03187 2.57969,-1.54781 1.03187,-0.51593 3.09562,0.51594 -8.25499,8.77093 -16.50998,17.02592 -8.77093,8.25499 -19.08967,14.96217 -1.03188,13.41437 -10.31874,26.82873 -9.28687,13.41436 -20.12155,27.8606 -10.83467,14.44623 -15.47811,29.92434 6.19125,2.57969 15.47811,1.03188 8.77093,-1.54781 18.0578,-4.1275 8.77093,-2.57968 17.02592,-4.12749 8.25499,-1.54781 14.96217,-0.51594 -0.51593,7.73905 4.1275,12.89842 4.64343,5.67531 10.31874,10.83468 6.19124,5.67531 11.86655,11.86655 5.67531,6.70718 5.67531,17.02592 -7.22312,1.54782 -14.44624,-0.51593 -7.73905,-2.06375 -15.47811,-4.64344 -5.67531,-2.06374 -11.35061,-4.12749 -6.19125,-1.54781 -12.38249,-2.06375 -7.22312,-0.51594 -18.57373,-0.51594 -11.35062,0 -21.66936,1.03188 -10.83467,1.54781 -15.47811,3.61156 -6.19124,3.09562 -7.73905,12.38248 -2.06375,9.80281 -1.03188,21.15342 0.51594,11.35062 2.57969,20.63748 0.51593,2.06375 2.06375,4.64344 1.03187,3.09561 2.57968,6.19121 3.09562,6.1913 6.19125,13.4144 3.09562,7.2231 3.09562,13.4144 -4.1275,1.5478 -5.67531,5.6753 -16.50998,-13.4144 -34.56778,-25.7969 -18.0578,-11.86654 -29.40841,-30.44027 5.15937,-6.70718 6.19124,-17.54186 1.03188,-10.83468 2.06375,-16.50999 -12.38249,-0.51593 -24.76497,0.51594 -12.38249,1.03188 -24.76498,2.06375 -10.31874,1.54781 -20.63748,2.06375 -10.31874,1.03187 -20.63748,1.03187 -14.96217,0 -29.40841,-3.09562 -14.44624,-3.09562 -27.34466,-11.86655 -6.19125,-8.25499 -4.1275,-12.38249 2.06375,-3.61156 5.67531,-6.70718 1.03187,-1.54781 2.57968,-2.57969 1.03188,-1.03187 2.06375,-2.57968 22.18529,1.54781 47.98214,1.03187 25.28092,0 49.52996,-3.09562 -5.67531,-7.22312 -12.89843,-11.86655 -7.22312,-4.64343 -13.9303,-9.28687 -6.70718,-4.64343 -10.83468,-12.38249 -10.83467,-2.06374 -15.47811,-10.83467 -4.64343,-8.25499 -12.38248,-13.9303 -11.35062,-8.25499 -25.79685,-13.9303 -14.44624,-5.15937 -28.89248,-10.83468 -14.44623,-5.15937 -25.28091,-14.44623 -5.15937,-9.80281 -12.89843,-17.54186 -8.25499,-7.73906 -17.02592,-14.44624 -1.03187,-8.25499 -5.6753,-12.38249 -4.64344,-4.12749 -8.255,-9.8028 z m 45.9184,-61.91244 q -1.03188,-2.57969 -0.51594,-4.1275 0.51594,-1.03187 2.06375,-2.06375 2.06375,-1.54781 2.57968,-3.61156 11.86655,-2.06374 22.70123,-1.54781 10.31874,0.51594 20.63748,1.54781 9.80281,0.51594 19.60561,1.03188 9.8028,0.51594 20.63748,-1.03188 1.03187,-9.8028 1.03187,-21.15341 0,-10.83468 -0.51593,-21.66936 0,-5.6753 0,-11.35061 -0.51594,-5.15937 -0.51594,-10.83468 0,-21.15342 3.61156,-39.72715 3.09562,-19.08967 15.99405,-29.92435 9.28686,4.1275 13.41436,18.0578 4.12749,13.41436 5.15937,29.92435 1.03187,15.99404 1.54781,26.82872 0,6.70718 0,12.89843 0,6.19124 -0.51594,12.38248 -0.51593,9.28687 -0.51593,17.54186 0,8.255 1.03187,15.47811 14.44624,3.61156 31.98809,2.06375 17.02593,-1.03187 35.08372,-3.09562 10.31874,-1.03187 20.63748,-2.06375 9.8028,-1.03187 19.60561,-1.03187 1.03187,-33.53591 11.35061,-55.20526 10.31874,-21.66936 20.63748,-36.63153 3.61156,-5.15937 9.28687,-9.8028 5.67531,-4.64344 14.44624,-10.83468 0.51593,0.51594 3.09562,0 2.06375,-0.51594 4.12749,-0.51594 1.54781,0 3.09563,2.57969 -1.03188,4.64343 -3.09563,10.83467 -2.57968,6.19125 -5.15937,12.89843 -6.70718,17.54186 -12.89842,38.69528 -6.70718,21.15341 -5.15937,40.75902 6.19124,1.03187 12.38249,-2.06375 5.6753,-3.09562 9.8028,-7.22312 21.15342,3.61156 34.05184,14.96218 12.89843,11.35061 23.7331,24.24904 -4.12749,1.03187 -7.73905,1.03187 -3.61156,0 -7.22312,0 -5.67531,0 -10.31874,0.51594 -5.15937,0.51593 -8.77093,6.19124 -4.64343,-4.64343 -13.41436,-4.64343 -9.28687,0.51594 -18.0578,1.54781 -5.15937,1.03187 -9.8028,1.03187 -4.64343,0.51594 -8.25499,0 -1.54781,9.80281 2.57968,17.54186 3.61156,7.73906 8.255,15.47811 3.09562,4.64343 6.19124,9.28687 2.57969,5.15937 4.64343,10.31874 -12.38249,2.57968 -28.89247,-1.54781 -17.02592,-4.1275 -26.31279,-15.99405 -9.8028,-12.38249 -4.64343,-31.47216 -24.24904,0 -48.49808,2.06375 -24.76498,2.57969 -52.62557,3.61156 -1.03188,10.31874 1.03187,21.66935 1.54781,11.86656 3.61156,22.1853 1.03187,6.19124 2.06375,11.86655 1.03187,5.6753 1.03187,9.8028 -3.09562,-1.54781 -6.19124,-3.09562 -3.09563,-1.03188 -6.19125,-2.57969 -11.86655,-5.15937 -23.21716,-11.35061 -11.35062,-6.19125 -18.0578,-15.99405 -6.70718,-9.28687 -4.12749,-24.76498 -19.60561,-0.51593 -41.7909,-7.73905 -22.18529,-7.22312 -39.72715,-22.18529 z m 91.83679,104.73521 q 0,0 8.25499,9.28687 7.73905,9.28686 20.12154,24.76497 12.38249,15.47811 26.82873,34.05185 13.9303,19.08967 26.31278,38.69527 4.64344,-0.51593 10.83468,-0.51593 6.19124,0 10.83468,-1.03188 0.51594,-1.54781 2.57968,-4.12749 3.61156,-6.19125 7.22312,-13.41437 3.61156,-7.22311 2.06375,-12.38249 -9.8028,-4.12749 -20.63748,-11.35061 -10.83468,-7.22312 -17.02592,-18.05779 -6.70718,-10.83468 -4.1275,-25.28092 -13.41436,0.51594 -28.37653,-4.64343 -14.96218,-4.64343 -27.8606,-9.8028 -5.15937,-2.06375 -9.28687,-3.61156 -4.1275,-1.54781 -7.73905,-2.57969 z m 115.05395,14.96217 q -1.03187,9.28687 2.06375,25.28092 2.57968,16.50998 8.25499,29.40841 2.06375,-2.06375 5.67531,-5.67531 3.09562,-3.09562 6.19124,-5.67531 -1.54781,-2.06374 -4.1275,-1.03187 -1.54781,1.03187 -2.06374,-1.03187 0.51593,-1.54782 2.06374,-2.57969 1.03188,-1.03187 2.57969,-1.54781 2.06375,-1.03187 3.09562,-2.57969 1.03188,-1.03187 -1.54781,-4.64343 h 7.73906 q -1.03188,-2.57968 0,-5.67531 0.51593,-2.57968 6.19124,-1.54781 -0.51594,-2.06375 0,-3.61156 0.51594,-1.03187 1.03187,-2.57968 0.51594,-1.03188 1.03188,-3.09562 0.51594,-1.54781 0,-4.1275 5.15937,0 8.77093,-5.67531 3.61156,-5.15937 6.70718,-9.28686 -14.96217,0 -26.82873,2.57968 -12.38248,2.57969 -26.82872,3.09562 z"
     id="path490"
     style="font-size:515.937px;font-family:'Yuji Mai';-inkscape-font-specification:'Yuji Mai';fill:#29303d;stroke-width:21.1667;fill-opacity:1;filter:url(#filter1095)"
     clip-path="url(#clipPath1097)" /><path
     d="m 562.03758,942.50445 c -1.32,-3.078 -11.179,-7.079 -19.912,-6.654 -8.733,0.425 -16.336,5.278 -15.014,8.357 1.322,3.079 11.567,4.384 20.298,3.957 8.731,-0.427 15.949,-2.582 14.629,-5.66 z"
     filter="url(#I)"
     id="path85"
     style="fill:#ffffff"
     transform="rotate(10,553.27633,920.02315)" /><path
     d="m 656.59611,987.39828 c 2.09,1.263 6.266,3.788 8.863,5.867 2.597,2.079 3.616,3.711 6.941,4.91 3.325,1.199 8.954,1.97102 11.445,-0.282 2.491,-2.253 1.845,-7.533 -1.358,-10.809 -3.203,-3.276 -8.965,-4.548 -14.056,-4.372 -5.091,0.176 -9.508,1.799 -11.717,2.611 -2.209,0.812 -2.209,0.812 -0.119,2.075 z"
     filter="url(#L)"
     id="path91"
     style="fill:#ffffff"
     transform="rotate(10,670.20463,991.01578)" /><path
     d="m 725.66987,746.86758 c 1.313,-2.47 -1.363,-7.266 -4.455,-9.85 -3.092,-2.584 -6.6,-2.951 -7.915,-0.477 -1.315,2.474 -0.434,7.784 2.659,10.365 3.093,2.581 8.397,2.433 9.71,-0.038 z"
     filter="url(#M)"
     id="path93"
     style="fill:#ffffff" /><path
     d="m 445.9466,779.24253 c -1.526,-1.787 -0.112,-7.75 -2.651,-11.373 -2.539,-3.623 -9.036,-4.907 -8.783,-7.25 0.253,-2.343 7.258,-5.746 12.287,-5.793 5.029,-0.047 8.08,3.258 9.349,7.389 1.269,4.131 0.761,9.089 -1.725,12.759 -2.486,3.67 -6.951,6.056 -8.477,4.269 z"
     filter="url(#N)"
     id="path95"
     style="fill:#ffffff" /><style
     id="style2-5">.B{color-interpolation-filters:sRGB}</style><style
     id="style1203">.B{color-interpolation-filters:sRGB}</style></svg>
