<?xml version="1.0" encoding="UTF-8" standalone="no"?>
<svg
   width="498.898"
   height="544.252"
   viewBox="0 0 1320 1440"
   version="1.1"
   id="svg416"
   sodipodi:docname="bV.svg"
   inkscape:version="1.2.2 (732a01da63, 2022-12-09)"
   xmlns:inkscape="http://www.inkscape.org/namespaces/inkscape"
   xmlns:sodipodi="http://sodipodi.sourceforge.net/DTD/sodipodi-0.dtd"
   xmlns="http://www.w3.org/2000/svg"
   xmlns:svg="http://www.w3.org/2000/svg">
  <sodipodi:namedview
     id="namedview418"
     pagecolor="#ffffff"
     bordercolor="#000000"
     borderopacity="0.25"
     inkscape:showpageshadow="2"
     inkscape:pageopacity="0.0"
     inkscape:pagecheckerboard="0"
     inkscape:deskcolor="#d1d1d1"
     showgrid="false"
     inkscape:zoom="0.71290503"
     inkscape:cx="98.891152"
     inkscape:cy="103.80064"
     inkscape:window-width="1920"
     inkscape:window-height="974"
     inkscape:window-x="-11"
     inkscape:window-y="-11"
     inkscape:window-maximized="1"
     inkscape:current-layer="svg416" />
  <style
     id="style319">.B{color-interpolation-filters:sRGB}</style>
  <defs
     id="defs370">
    <filter
       id="B"
       x="-0.013119982"
       y="-0.01088309"
       width="1.02624"
       height="1.0217662"
       class="B">
      <feGaussianBlur
         stdDeviation="2.441"
         id="feGaussianBlur321" />
    </filter>
    <filter
       id="E"
       x="-0.044751876"
       y="-0.051751566"
       width="1.0895038"
       height="1.1035031"
       class="B">
      <feGaussianBlur
         stdDeviation="8.893"
         id="feGaussianBlur324" />
    </filter>
    <filter
       id="F"
       x="-0.40012373"
       y="-0.45173136"
       width="1.8002475"
       height="1.9034627"
       class="B">
      <feGaussianBlur
         stdDeviation="1.833"
         id="feGaussianBlur327" />
    </filter>
    <filter
       id="G"
       x="-0.29787007"
       y="-0.33255812"
       width="1.5957401"
       height="1.6651162"
       class="B">
      <feGaussianBlur
         stdDeviation="1.833"
         id="feGaussianBlur330" />
    </filter>
    <filter
       id="H"
       x="-0.18492689"
       y="-0.15215418"
       width="1.3698538"
       height="1.3043084"
       class="B">
      <feGaussianBlur
         stdDeviation="1.833"
         id="feGaussianBlur333" />
    </filter>
    <filter
       id="I"
       x="-0.21242123"
       y="-0.23248869"
       width="1.4248425"
       height="1.4649774"
       class="B">
      <feGaussianBlur
         stdDeviation="1.833"
         id="feGaussianBlur336" />
    </filter>
    <filter
       id="J"
       x="-0.21455541"
       y="-0.24771566"
       width="1.4291108"
       height="1.4954313"
       class="B">
      <feGaussianBlur
         stdDeviation="1.833"
         id="feGaussianBlur339" />
    </filter>
    <filter
       id="K"
       x="-0.34860632"
       y="-0.41712814"
       width="1.6972126"
       height="1.8342563"
       class="B">
      <feGaussianBlur
         stdDeviation="1.833"
         id="feGaussianBlur342" />
    </filter>
    <filter
       id="M"
       x="-0.052347271"
       y="-0.04432593"
       width="1.1046945"
       height="1.0886519"
       class="B">
      <feGaussianBlur
         stdDeviation="4.412"
         id="feGaussianBlur345" />
    </filter>
    <linearGradient
       id="A"
       x1="-1430.769"
       y1="-77.47"
       x2="-1409.955"
       y2="-77.47"
       spreadMethod="reflect"
       gradientUnits="userSpaceOnUse">
      <stop
         offset="0"
         stop-color="#ffd285"
         id="stop348" />
      <stop
         offset=".232"
         stop-color="#ffcd79"
         id="stop350" />
      <stop
         offset=".616"
         stop-color="#ffca73"
         id="stop352" />
      <stop
         offset=".808"
         stop-color="#ffd386"
         id="stop354" />
      <stop
         offset="1"
         stop-color="#ffc86e"
         id="stop356" />
    </linearGradient>
    <linearGradient
       id="C"
       x1="-905.02"
       y1="-384.47"
       x2="-904.556"
       y2="184.159"
       gradientUnits="userSpaceOnUse">
      <stop
         offset="0"
         id="stop359" />
      <stop
         offset=".599"
         stop-color="#fff"
         id="stop361" />
    </linearGradient>
    <clipPath
       id="D">
      <path
         d="M416.432 609.694c3.905 57.109 83.956 66.383 116.659 111.778-28.311 11.227-66.383 15.132-85.908 35.632 6.834 24.406 28.799 26.846 44.418 28.311-3.905 4.393-6.834 9.274-7.81 16.108.488 16.596-6.345 96.158-23.918 107.873-4.881 3.417-11.715 1.952-17.572 9.274 17.084 26.358 50.276 62.479 90.301 36.609 29.775-.976 61.502-7.322 82.491-9.274 18.548-1.952 33.68 13.667 51.74 8.786 3.417-11.715-6.834-20.501-12.203-27.334-6.345-22.453-11.227-54.669-12.203-89.325 0-2.929-4.393-.976-3.417-4.881.488-57.109-.488-126.421 7.322-198.662 7.81 4.881 16.596 5.857 22.453-.976-9.274-13.667-20.501-44.906-54.181-43.442-2.441 2.929-3.905 6.346-6.345 10.738-26.358 17.572-50.764 40.513-80.051 62.479-13.179-15.62-32.216-40.025-45.395-65.407-27.334-8.298-51.74-9.762-66.383 11.715zm243.081 100.063c-.488 13.667 35.632 55.645 44.418 37.097-2.441-5.369-4.881-9.762-6.834-15.62-1.952-21.965 11.715-53.204 21.965-80.051-12.691 0-18.06 9.762-25.87.976-9.274 11.715-32.704 38.561-33.68 57.597zm2.441 189.388c0 34.168 32.215 54.669 53.204 64.431 11.715 29.775 41.978 39.049 72.729 22.453-7.81-8.298-18.548-13.667-22.941-25.87 6.345-18.06 88.349-158.637 105.921-168.399 0-10.25 24.406-30.263 32.704-39.537-6.834-10.25-20.989-11.715-31.727-9.274-10.25 2.441-63.455 74.681-67.36 80.539-8.298-2.929-19.525-12.203-34.168-7.322-6.345-10.25-10.25-22.941-10.739-41.978 20.501-9.762 65.407-2.929 79.563-21.477-18.548-25.382-53.693-10.25-80.539-10.25 0-31.239 0-84.932 2.929-116.171 12.691-2.929 41.49-10.25 59.55-8.298 10.25.976 17.572 10.738 28.799 4.393-1.464-17.084-35.144-54.669-54.181-47.347-8.786 3.417-15.62 14.155-25.382 19.036-31.239 15.62-71.753 4.393-103.48 23.918 11.715 17.572 35.144 22.941 65.895 13.667l-5.857 117.635c-21.477 5.857-42.954 6.834-57.597 19.525 5.857 12.691 21.477 26.358 58.086 12.203-1.464 12.691-3.417 29.287 4.393 45.883-21.965 1.952-34.168 6.834-50.764 15.132 11.227 13.179 27.334 20.013 47.347 22.941 10.739-14.643 46.371-19.036 64.431-20.013-12.203 20.013-39.537 59.55-51.252 86.396-3.417 3.417-8.298 8.298-15.62 9.274-14.643-24.894-34.656-37.097-63.943-41.49zm119.1-264.069c0 14.643 6.834 28.799 6.346 40.513 0 3.417-3.417 4.881-2.929 8.786 3.417 19.036 30.263 36.609 45.883 37.097 2.929-16.108-11.227-40.025-9.762-61.014-8.786-9.274-22.453-22.941-39.537-25.382zM517.471 870.347c23.429 15.62 52.228-.976 89.813-1.464-.976 17.084 2.441 36.609 4.393 47.347-22.453 6.345-59.062 11.227-91.765 13.667-3.905-12.691-2.441-41.49-2.441-59.55zm0-17.572c-.488-20.501.488-29.775 1.952-47.347 20.501-2.929 59.55-8.298 88.349-6.834-1.464 8.786-.976 31.239-1.464 41.002-25.87 3.905-58.574 6.834-88.837 13.179zm-14.643-73.217c-2.929-5.857-2.441-13.179 3.905-15.62 10.25-5.369 27.823-18.06 41.002-24.406 8.786 5.857 23.918 23.918 35.144 32.215-22.941 1.952-56.133 3.905-80.051 7.81zm46.859-87.372c6.834-13.667 42.466-38.561 66.383-51.252-1.464 17.572-6.834 89.813-7.81 126.421-25.382-18.548-41.002-47.835-58.574-75.169z"
         stroke-width="24.218"
         id="path364" />
    </clipPath>
    <clipPath
       id="L">
      <path
         d="M1711.016 1079.856a7.484 7.484 0 0 0-5.309 2.208l-3.066 3.066a7.491 7.491 0 0 0 0 10.619l85.245 85.248-85.245 85.245a7.491 7.491 0 0 0 0 10.619l3.066 3.07a7.491 7.491 0 0 0 10.619 0l75.571-75.571v106.87a7.493 7.493 0 0 0 7.507 7.511h4.34a7.493 7.493 0 0 0 7.507-7.511v-106.87l75.568 75.571a7.491 7.491 0 0 0 10.619 0l3.07-3.07a7.492 7.492 0 0 0 0-10.619l-85.248-85.245 85.248-85.248a7.492 7.492 0 0 0 0-10.619l-3.07-3.066a7.493 7.493 0 0 0-10.619 0l-85.245 85.245-85.248-85.245a7.486 7.486 0 0 0-5.31-2.208zm90.558 101.135v.01h-.01z"
         stroke-width="1.534"
         id="path367" />
    </clipPath>
    <clipPath
       clipPathUnits="userSpaceOnUse"
       id="clipPath6426">
      <path
         id="path6428"
         d="m 830.90242,996.70622 c 0.0132,-5.69293 -4.60618,-10.31242 -10.29909,-10.29911 H 678.88076 V 881.37479 h 22.22086 c 1.998,-3.571 1.998,-9.31711 0,-12.88808 l -22.22086,-39.71334 v -10.73319 c 0.0132,-5.77278 -4.66585,-10.45656 -10.43866,-10.44381 h -7.04349 c -5.77432,-0.0132 -10.46062,4.66955 -10.4489,10.44381 v 10.74354 l -22.2157,39.70299 c -1.998,3.57097 -1.998,9.31708 0,12.88808 h 22.2157 v 105.03232 h -139.1853 c -5.69301,-0.0132 -10.3121,4.60618 -10.29911,10.29911 v 6.94528 c -0.0132,5.6929 4.6061,10.3073 10.29911,10.294 h 139.1853 v 6.382 111.0216 h -22.2157 c -1.998,3.571 -1.998,9.3233 0,12.8933 l 22.2157,39.6926 v 10.7435 c -0.0132,5.7751 4.67379,10.4607 10.4489,10.449 h 7.04349 c 5.77432,0.013 10.45308,-4.6747 10.43866,-10.449 v -10.7332 l 22.22086,-39.7029 c 1.998,-3.571 1.998,-9.3233 0,-12.8933 h -22.22086 v -111.0216 -6.382 h 141.72257 c 5.69291,0.013 10.3124,-4.6011 10.29909,-10.294 z m -165.97943,9.65318 v 0.016 h -0.0159 v -0.016 z"
         style="stroke-width:1" />
    </clipPath>
    <filter
       inkscape:menu-tooltip="In and out glow with a possible offset and colorizable flood"
       inkscape:menu="Shadows and Glows"
       inkscape:label="Cutout Glow"
       style="color-interpolation-filters:sRGB"
       id="filter5625"
       x="-0.052210256"
       y="-0.018111787"
       width="1.0740657"
       height="1.0613788">
      <feOffset
         dy="10"
         dx="-10"
         id="feOffset5615" />
      <feGaussianBlur
         stdDeviation="3"
         result="blur"
         id="feGaussianBlur5617" />
      <feFlood
         flood-color="rgb(0,0,0)"
         flood-opacity="0"
         result="flood"
         id="feFlood5619" />
      <feComposite
         in="flood"
         in2="SourceGraphic"
         operator="in"
         result="composite"
         id="feComposite5621" />
      <feBlend
         in="blur"
         in2="composite"
         mode="normal"
         id="feBlend5623" />
    </filter>
    <filter
       inkscape:menu-tooltip="In and out glow with a possible offset and colorizable flood"
       inkscape:menu="Shadows and Glows"
       inkscape:label="Cutout Glow"
       style="color-interpolation-filters:sRGB;"
       id="filter1756"
       x="-0.041162909"
       y="-0.017079557"
       width="1.0583939"
       height="1.0578807">
      <feOffset
         dy="10"
         dx="-10"
         id="feOffset1746" />
      <feGaussianBlur
         stdDeviation="3"
         result="blur"
         id="feGaussianBlur1748" />
      <feFlood
         flood-color="rgb(0,0,0)"
         flood-opacity="0"
         result="flood"
         id="feFlood1750" />
      <feComposite
         in="flood"
         in2="SourceGraphic"
         operator="in"
         result="composite"
         id="feComposite1752" />
      <feBlend
         in="blur"
         in2="composite"
         mode="normal"
         id="feBlend1754" />
    </filter>
    <clipPath
       clipPathUnits="userSpaceOnUse"
       id="clipPath1758">
      <path
         d="m 448.39853,771.97127 q 0.97898,-6.36323 7.34218,-11.25804 5.87375,-4.89479 14.68437,-7.83164 14.19489,-4.89479 31.81616,-5.38427 17.62122,0 28.87926,4.89479 1.46844,2.44737 0.97896,5.38427 -0.97896,2.93685 -0.97896,2.93685 3.42635,-1.46841 4.89479,-0.97896 1.46844,0.97896 2.44737,2.44742 0.97898,1.46844 2.44742,2.44737 1.46844,0.97898 4.89479,0.48948 4.89479,11.74752 11.25801,19.08968 5.87375,7.34221 12.23698,13.21596 5.87375,5.87374 10.76854,13.70541 6.36322,-3.42636 11.25801,-6.85271 4.89479,-3.42635 9.3001,-7.34218 9.3001,-7.34219 19.57916,-13.21594 10.27906,-5.38426 28.87926,-4.89478 0,-3.42636 -6.85271,-7.83167 -7.34218,-3.91583 -11.74749,-6.8527 -1.46844,-8.32117 0.48948,-13.21596 1.95791,-4.89479 4.89479,-8.8106 0.97896,-1.46846 1.95791,-3.42635 0.97896,-1.46846 1.95792,-3.42638 -4.40531,0.48948 -8.81062,0.97896 -4.89479,0.48948 -9.3001,0.97896 -20.55812,1.95794 -39.6478,2.93687 -19.08968,0.97896 -34.26353,-3.42635 -11.25801,-2.93685 -20.06863,-9.3001 -8.81065,-6.36323 -14.19489,-18.1107 23.98447,-0.4895 41.11623,-1.95794 17.13176,-1.46844 17.13176,-1.46844 -4.89479,-3.42635 -7.34218,-9.3001 -2.93687,-5.38427 -7.83166,-8.81062 1.95791,-6.36323 3.42635,-11.25801 0.97896,-4.40532 8.81062,-7.34219 6.36323,-14.19489 9.3001,-26.43186 2.93687,-11.7475 10.27906,-24.47395 -5.38427,-0.97896 -11.25802,-1.46844 -6.36322,0 -12.72645,0 -3.91583,0 -7.34219,0 -3.91585,0 -7.83166,-0.48948 -6.8527,6.85271 -15.17387,8.32115 -8.32112,1.95791 -17.13174,0.48947 -15.66333,-2.44739 -31.32668,-12.23697 -15.66333,-9.3001 -24.96343,-15.66333 0,-2.44739 -0.48948,-4.40531 -0.97893,-2.44739 -1.95791,-3.91583 -0.97896,-2.44739 -1.46844,-4.40531 -0.48948,-1.95792 0.48948,-3.91583 19.08968,-2.93688 35.73199,-0.97896 16.15278,1.95792 32.79509,4.89479 11.7475,1.95792 23.98447,3.91583 12.23697,1.46844 26.43186,1.95792 53.35321,1.46843 105.23798,-3.42635 51.39529,-5.38427 91.53257,-16.64229 2.93687,-1.95792 5.38429,-5.38427 1.95789,-3.42635 5.38427,-5.38427 16.64226,0.97896 27.4108,8.81062 10.27908,7.83167 19.0897,17.62125 8.32112,9.78958 20.06864,16.64228 0,4.40531 -1.95794,6.36323 -2.44737,2.44739 -5.87372,3.91583 -1.95792,-1.46844 -3.91586,0.48948 -1.95789,1.95791 -3.91583,1.46844 -11.74747,-9.3001 -33.28457,-8.32115 -22.02656,0.97896 -44.05311,3.91584 -7.34218,0.97895 -13.70541,1.46843 -6.85271,0.97896 -13.21593,1.46844 0.48948,9.78958 1.46843,24.96343 0.97896,15.17384 3.42636,30.34769 2.44739,15.66333 8.81062,24.47395 22.02655,0.97896 35.73196,11.25804 13.70544,10.76854 22.51606,28.87926 -4.89479,2.44737 -9.3001,1.46844 -4.40531,-0.97896 -8.81065,-2.44742 -2.44739,-0.97896 -4.89479,-1.95792 -2.44739,-0.48945 -4.89479,-0.97893 -14.68436,-1.95794 -30.34769,-0.97896 -16.15281,1.46844 -33.28457,3.91581 -9.78958,0.97898 -19.57916,1.95794 -10.27906,1.46841 -20.55812,1.95789 0,2.44742 0.48948,3.91583 0,1.95794 0.48948,3.42638 0.48948,2.44737 0.97896,4.89479 0.48948,2.44737 0,5.87375 10.27906,-1.46844 21.0476,-1.95792 10.76853,-0.48948 22.02655,-0.48948 19.08968,-0.48948 38.17936,-2.44739 19.08968,-1.46844 35.73196,-8.81065 2.9369,-1.46841 5.38427,-0.97893 1.95792,0.48945 3.42638,1.46841 2.44737,0.48948 4.40531,0.48948 1.95789,0 4.89479,-3.42633 5.87372,5.38427 14.19489,8.81062 8.32114,3.42633 15.17385,7.34219 6.85268,4.40531 8.81062,12.72645 0.48948,2.93685 -0.48948,7.34216 -1.46846,4.89479 -2.93687,10.27908 -1.95792,6.85271 -3.91586,13.70541 -1.95789,7.34219 -1.95789,14.19489 0,10.27906 6.36323,16.64229 -2.4474,0.97896 -4.40534,-0.48948 -1.95789,-0.97896 -1.95789,-0.97896 0.48948,6.85271 0,13.21593 -0.48948,6.85271 -1.46844,13.21594 0,4.89479 -0.4895,9.3001 -0.48948,4.40531 -0.48948,8.32114 0,6.8527 1.95794,12.23697 1.95789,5.38427 7.34216,8.81062 -8.32112,5.87375 -8.32112,11.7475 0,5.87375 3.91581,11.74749 4.89479,6.85271 13.21596,12.72646 7.83166,5.87374 13.70541,9.78958 -2.9369,5.87374 -4.89479,9.3001 -1.95792,3.42635 -5.87375,9.3001 -20.06864,5.38427 -40.62678,7.83166 -21.04757,2.4474 -48.45842,5.38427 -16.1528,1.95791 -30.83717,1.46844 -15.17385,0 -24.47395,3.42635 -2.4474,0.97896 -3.91583,2.93687 -1.46844,1.95792 -3.91583,2.4474 -12.72646,0.97895 -24.47395,-6.36323 -11.7475,-6.8527 -18.6002,-13.70541 3.42635,-8.81062 14.19489,-10.76854 10.76853,-1.95791 23.00551,-2.44739 2.93687,0 5.87375,-0.48948 2.44739,0 5.38426,0 0,-5.87375 1.46844,-12.72645 0.97896,-6.85271 4.89479,-12.72646 2.93687,-3.42635 7.34219,-6.36322 3.91583,-2.4474 7.83166,-3.91584 -4.89479,-2.93687 -8.32114,-2.44739 -3.42636,0.97896 -6.36323,2.93687 -3.42635,2.4474 -6.36323,5.38427 -3.42635,2.93688 -7.83166,3.42635 -7.83166,0.97896 -14.68437,-1.46843 -7.34218,-1.95792 -13.70541,-6.36323 -8.81062,-6.36323 -16.15281,-14.19489 -7.34218,-7.34218 -13.70541,-12.72645 0.97896,-6.85271 7.83167,-8.81062 6.36322,-1.46844 13.21593,-3.42636 3.42635,-11.25801 5.87375,-28.38978 1.95791,-16.64228 6.8527,-30.83717 8.32114,-2.93687 15.17385,-2.4474 6.36323,0.97896 14.68437,2.93688 1.46844,0.48948 2.93687,0.48948 1.46844,0.48948 2.93688,0.97896 -0.97896,-8.81063 1.95791,-17.62125 2.4474,-8.81062 5.38427,-15.17385 2.93687,-5.87374 2.93687,-5.87374 -7.34218,4.40531 -14.68436,2.44739 -7.34219,-1.95791 -14.68437,-5.38429 -2.4474,-0.97893 -4.89479,-2.44737 -2.93688,-0.97896 -5.38427,-1.46844 -1.46844,0 0,3.42633 0.48948,0.97898 0.97896,2.44742 0.48948,1.95792 -0.48948,3.91583 -3.91583,0.97896 -8.32114,0.97896 -4.40532,0 -9.78958,-1.95792 0.48947,5.38427 4.89479,5.87375 4.40531,0.97896 6.8527,3.91583 -21.53707,11.25802 -43.07415,24.47395 -22.02655,13.21593 -33.28457,29.85822 11.25802,15.17385 23.98447,28.87926 12.23698,14.19489 24.96343,27.9003 -7.34219,4.40531 -14.19489,2.93687 -7.34219,-0.97896 -14.19489,-5.38427 -10.27906,-6.36322 -21.0476,-16.1528 -10.76853,-9.3001 -21.53707,-12.23698 -6.36323,5.38427 -12.23697,15.17385 -5.87375,9.78958 -9.30011,21.0476 -3.42635,11.74749 -2.44739,21.53707 8.81062,1.95792 20.06864,0.48948 10.76853,-1.46844 22.02655,-3.42635 8.81062,-1.46844 17.62124,-2.93688 8.32115,-0.97896 16.64229,-0.97896 11.74749,0 22.02655,3.91584 9.78958,4.40531 16.15281,15.66332 -5.87375,7.83167 -18.11072,8.81062 -12.72646,1.46844 -28.38978,1.46844 -6.85271,0 -13.70541,0 -7.34219,0 -14.68437,0.48948 -11.7475,0.97896 -21.0476,2.93687 -9.3001,1.95792 -22.51603,1.95792 -6.36323,7.34218 -13.21593,10.27906 -6.85271,2.93687 -13.70544,2.44739 -13.21593,-0.48948 -26.43184,-8.81062 -13.70541,-8.32114 -23.98447,-16.1528 -3.42638,-7.83167 -1.46846,-13.21594 1.46846,-4.89479 6.36325,-7.34218 5.38427,-2.93687 13.70541,-3.42635 7.83164,0 15.17385,0.97895 10.76854,-16.64228 21.0476,-35.24248 9.78958,-18.11072 19.08968,-36.71092 -8.32117,-7.83167 -20.06864,-15.17385 -11.7475,-6.85271 -24.96343,-13.21593 -6.36325,-2.93688 -13.21593,-4.40531 -7.34221,-0.97896 -11.74752,-4.89479 -1.46844,-0.97896 -1.46844,-3.42636 0,-2.44739 -1.95789,-4.89479 -3.42638,-3.42635 -8.81065,-7.34218 -5.38427,-3.42635 -9.78958,-7.34218 -3.91583,-3.42636 -5.87372,-7.34219 -1.95794,-3.42635 -0.97898,-8.81062 z m 165.93339,-67.5481 q 25.94239,3.91581 56.29008,1.46841 29.85822,-1.95791 55.80061,-8.81062 -0.97896,-1.46844 -1.95792,-2.93687 -1.46844,-0.97896 -2.93687,-2.4474 -6.85271,-8.32114 -13.70541,-18.6002 -7.34219,-9.78958 -11.7475,-23.49499 -4.89479,-13.21593 -3.42635,-31.32665 -17.13177,-1.95792 -34.26353,-1.46844 -17.13176,0.97896 -33.77405,1.95792 -4.40531,10.76853 -8.32114,27.41082 -4.40531,16.64228 -5.87375,32.79509 -1.46843,16.64228 3.91583,25.45293 z m 99.85371,179.1493 q 14.19489,0.97896 26.43187,-0.97895 11.74749,-1.46844 23.00551,-3.42636 10.27908,-1.95791 20.55811,-3.42635 10.27906,-1.46844 21.0476,0 -0.48948,-5.38427 -0.48948,-10.76854 0,-4.89479 0.48948,-9.3001 0,-6.36322 0,-12.23697 0,-5.38427 -1.46844,-11.25802 -25.45288,0.97896 -46.01102,2.93688 -20.55812,1.95791 -41.60571,8.32114 -3.91583,7.83166 -4.89479,20.06864 -0.97896,12.23697 2.93687,20.06863 z m 27.9003,-106.21693 q 1.46844,6.85268 1.95792,14.19489 0.48948,7.83166 0.48948,15.66333 7.83166,4.40531 16.64228,3.91583 8.32115,-0.48948 17.13179,-1.95792 6.3632,-0.97896 12.72643,-1.95791 6.36325,-0.48948 12.237,1.46843 0.97893,-5.38427 0.97893,-9.78958 0,-3.91583 -0.48948,-8.32114 -0.48945,-3.91583 -0.48945,-8.32114 0,-3.91583 0.48945,-8.81062 -14.19489,-0.97896 -31.81613,-0.48948 -17.62124,0.48948 -29.85822,4.40531 z m 2.4474,130.2014 q -1.95792,6.85271 -1.46844,12.23698 0.48948,5.87374 1.46844,11.74749 0,2.4474 0.48948,5.38427 0.48948,2.93687 0.48948,5.87375 11.25801,2.44739 26.92134,0 15.66335,-2.4474 26.92134,-6.85271 0,-1.95791 0.97896,-4.89479 0.48948,-2.44739 1.46846,-5.38427 1.46844,-5.38426 2.44737,-10.76853 0.97896,-5.38427 -0.97893,-9.3001 -8.32117,-1.95792 -16.64231,-1.46844 -8.81062,0.48948 -18.11072,1.46844 -5.87375,0.97895 -11.7475,1.46843 -6.36322,0.48948 -12.23697,0.48948 z"
         id="path1760"
         style="font-size:489.479px;font-family:'Yuji Mai';-inkscape-font-specification:'Yuji Mai';fill:#29303d;fill-opacity:1;stroke-width:21.1667" />
    </clipPath>
    <filter
       id="J-2"
       x="-0.21455541"
       y="-0.24771566"
       width="1.4291108"
       height="1.4954313"
       class="B">
      <feGaussianBlur
         stdDeviation="1.833"
         id="feGaussianBlur339-3" />
    </filter>
  </defs>
  <path
     d="m-2659.569 204.596 26.181 28.949 150.416 46.096 171.017-51.398 98.911-437.515-45.894-49.39z"
     transform="matrix(-2.0051 0 0 2.0051 -4364.078 706.823)"
     opacity=".5"
     filter="url(#B)"
     id="path372" />
  <path
     d="m-1220.686-340.838-153.963 49.823-8.809 28.459-94.245 482.361 10.349 7.986h493.336l10.348-7.986-94.244-482.361-8.809-28.459z"
     fill="url(#A)"
     transform="rotate(180 -893.82 266.77) scale(2.0051)"
     id="path374" />
  <path
     d="m-905.02-384.47-153.963 49.823-8.809 26.778-94.245 484.042 10.349 7.986h493.336l10.349-7.986-94.244-482.219-8.809-28.601z"
     opacity=".25"
     fill="url(#C)"
     transform="rotate(180 -577.344 223.027) scale(2.0051)"
     style="mix-blend-mode:overlay"
     id="path376" />
  <path
     d="m165.355 97.854.043-21.064-20.75 16.013 20.707 5.052zm821.025 961.863-17.664-13.248L660 1143.218v16.402z"
     opacity=".4"
     id="path378" />
  <path
     d="m333.62 1059.717 17.664-13.248L660 1143.218v16.402z"
     opacity=".6"
     id="path380" />
  <path
     d="m333.62 1059.717 17.664-13.248L165.355 97.854l-20.707-5.052z"
     opacity=".6"
     id="path382" />
  <g
     fill="#fff"
     id="g390">
    <path
       d="m986.38 1059.717-17.664-13.248 185.93-948.615 20.707-5.052z"
       opacity=".3"
       id="path384" />
    <path
       d="m1154.646 97.854-.043-21.064 20.75 16.013-20.707 5.052z"
       opacity=".8"
       id="path386" />
    <path
       d="M1154.646 97.854H165.355l.043-21.064h989.205l.043 21.064z"
       opacity=".3"
       id="path388" />
  </g>
  <path
     d="m351.283 1117.065-17.663-57.348L660 1159.62l326.38-99.903-17.663 57.348L660 1216.968l-308.717-99.903z"
     opacity=".7"
     id="path396" />
  <path
     id="path405"
     d="m 825.76783,338.50909 c 0.013,-5.69293 -4.6062,-10.31242 -10.2991,-10.29911 h -141.7225 v -105.0323 h 22.2208 c 1.998,-3.571 1.998,-9.31711 0,-12.8881 l -22.2208,-39.71332 v -10.73319 c 0.013,-5.77279 -4.6659,-10.45657 -10.4387,-10.44381 h -7.0435 c -5.7743,-0.0144 -10.4606,4.66953 -10.4489,10.44381 v 10.74352 l -22.2157,39.70299 c -1.998,3.57099 -1.998,9.3171 0,12.8881 h 22.2157 v 105.0323 h -139.1853 c -5.693,-0.0133 -10.3121,4.60618 -10.2991,10.29911 v 6.94529 c -0.013,5.6929 4.6061,10.3073 10.2991,10.294 h 139.1853 v 6.382 111.0216 h -22.2157 c -1.998,3.571 -1.998,9.3233 0,12.8933 l 22.2157,39.6926 v 10.7435 c -0.012,5.7751 4.6738,10.4607 10.4489,10.449 h 7.0435 c 5.7743,0.012 10.4531,-4.6747 10.4387,-10.449 v -10.7332 l 22.2208,-39.7029 c 1.998,-3.571 1.998,-9.3233 0,-12.8933 h -22.2208 v -111.0216 -6.382 h 141.7225 c 5.6929,0.013 10.3124,-4.6011 10.2991,-10.294 z m -165.9794,9.65319 v 0.015 h -0.015 v -0.015 z" />
  <path
     id="path405-8"
     d="m 830.90243,996.70621 c 0.0133,-5.69293 -4.60618,-10.31242 -10.29911,-10.29911 H 678.88077 V 881.3748 h 22.22085 c 1.998,-3.571 1.998,-9.31711 0,-12.8881 l -22.22085,-39.71332 v -10.73319 c 0.013,-5.77279 -4.66586,-10.45657 -10.43867,-10.44381 h -7.0435 c -5.7743,-0.0144 -10.4606,4.66953 -10.4489,10.44381 v 10.74352 L 628.734,868.4867 c -1.998,3.57099 -1.998,9.3171 0,12.8881 h 22.2157 V 986.4071 H 511.7644 c -5.693,-0.0133 -10.3121,4.60618 -10.2991,10.29911 v 6.94529 c -0.0133,5.6929 4.6061,10.3073 10.2991,10.294 h 139.1853 v 6.382 111.0216 H 628.734 c -1.998,3.571 -1.998,9.3233 0,12.8933 l 22.2157,39.6926 v 10.7435 c -0.012,5.7751 4.6738,10.4607 10.4489,10.449 h 7.0435 c 5.77431,0.012 10.45307,-4.6747 10.43867,-10.449 v -10.7332 l 22.22085,-39.7029 c 1.998,-3.571 1.998,-9.3233 0,-12.8933 h -22.22085 v -111.0216 -6.382 h 141.72255 c 5.69293,0.013 10.31242,-4.6011 10.29911,-10.294 z M 664.923,1006.3594 v 0.015 h -0.0155 v -0.015 z"
     style="fill:#29303d;fill-opacity:1;filter:url(#filter5625)"
     clip-path="url(#clipPath6426)"
     transform="translate(-5.1345676,-658.19712)" />
  <path
     d="m 448.39855,771.97127 q 0.97896,-6.36323 7.34218,-11.25802 5.87375,-4.89479 14.68437,-7.83166 14.19489,-4.89479 31.81614,-5.38427 17.62124,0 28.87926,4.89479 1.46844,2.44739 0.97896,5.38427 -0.97896,2.93687 -0.97896,2.93687 3.42635,-1.46843 4.89479,-0.97896 1.46844,0.97896 2.44739,2.4474 0.97896,1.46844 2.4474,2.44739 1.46844,0.97896 4.89479,0.48948 4.89479,11.7475 11.25802,19.08968 5.87374,7.34219 12.23697,13.21594 5.87375,5.87375 10.76854,13.70541 6.36323,-3.42635 11.25802,-6.85271 4.89479,-3.42635 9.3001,-7.34218 9.3001,-7.34219 19.57916,-13.21593 10.27906,-5.38427 28.87926,-4.89479 0,-3.42636 -6.85271,-7.83167 -7.34218,-3.91583 -11.74749,-6.8527 -1.46844,-8.32115 0.48948,-13.21594 1.95791,-4.89479 4.89479,-8.81062 0.97895,-1.46844 1.95791,-3.42635 0.97896,-1.46844 1.95792,-3.42636 -4.40531,0.48948 -8.81062,0.97896 -4.89479,0.48948 -9.3001,0.97896 -20.55812,1.95792 -39.6478,2.93687 -19.08969,0.97896 -34.26353,-3.42635 -11.25802,-2.93687 -20.06864,-9.3001 -8.81063,-6.36323 -14.19489,-18.11072 23.98447,-0.48948 41.11623,-1.95792 17.13177,-1.46844 17.13177,-1.46844 -4.89479,-3.42635 -7.34219,-9.3001 -2.93687,-5.38427 -7.83166,-8.81062 1.95791,-6.36323 3.42635,-11.25802 0.97896,-4.40531 8.81062,-7.34218 6.36323,-14.19489 9.3001,-26.43187 2.93688,-11.74749 10.27906,-24.47395 -5.38427,-0.97896 -11.25801,-1.46843 -6.36323,0 -12.72646,0 -3.91583,0 -7.34218,0 -3.91584,0 -7.83167,-0.48948 -6.8527,6.8527 -15.17385,8.32114 -8.32114,1.95792 -17.13176,0.48948 -15.66333,-2.4474 -31.32666,-12.23698 -15.66333,-9.3001 -24.96343,-15.66332 0,-2.4474 -0.48948,-4.40532 -0.97895,-2.44739 -1.95791,-3.91583 -0.97896,-2.44739 -1.46844,-4.40531 -0.48948,-1.95791 0.48948,-3.91583 19.08968,-2.93688 35.73197,-0.97896 16.1528,1.95792 32.79509,4.89479 11.7475,1.95792 23.98447,3.91583 12.23698,1.46844 26.43187,1.95792 53.35321,1.46844 105.23798,-3.42635 51.3953,-5.38427 91.53258,-16.64229 2.93687,-1.95792 5.38427,-5.38427 1.95791,-3.42635 5.38427,-5.38427 16.64228,0.97896 27.41082,8.81062 10.27906,7.83167 19.08968,17.62125 8.32114,9.78958 20.06864,16.64228 0,4.40532 -1.95792,6.36323 -2.44739,2.4474 -5.87374,3.91583 -1.95792,-1.46843 -3.91584,0.48948 -1.95791,1.95792 -3.91583,1.46844 -11.74749,-9.3001 -33.28457,-8.32114 -22.02656,0.97895 -44.05311,3.91583 -7.34219,0.97896 -13.70541,1.46844 -6.85271,0.97895 -13.21594,1.46843 0.48948,9.78958 1.46844,24.96343 0.97896,15.17385 3.42635,30.3477 2.4474,15.66333 8.81063,24.47395 22.02655,0.97896 35.73196,11.25802 13.70542,10.76854 22.51604,28.87926 -4.89479,2.44739 -9.3001,1.46844 -4.40531,-0.97896 -8.81063,-2.4474 -2.44739,-0.97896 -4.89479,-1.95792 -2.44739,-0.48947 -4.89479,-0.97895 -14.68437,-1.95792 -30.34769,-0.97896 -16.15281,1.46844 -33.28458,3.91583 -9.78958,0.97896 -19.57916,1.95792 -10.27906,1.46843 -20.55811,1.95791 0,2.4474 0.48947,3.91583 0,1.95792 0.48948,3.42636 0.48948,2.44739 0.97896,4.89479 0.48948,2.44739 0,5.87375 10.27906,-1.46844 21.0476,-1.95792 10.76854,-0.48948 22.02655,-0.48948 19.08969,-0.48948 38.17937,-2.44739 19.08968,-1.46844 35.73196,-8.81063 2.93688,-1.46843 5.38427,-0.97895 1.95792,0.48947 3.42636,1.46843 2.44739,0.48948 4.40531,0.48948 1.95791,0 4.89479,-3.42635 5.87374,5.38427 14.19489,8.81062 8.32114,3.42635 15.17385,7.34219 6.8527,4.40531 8.81062,12.72645 0.48948,2.93687 -0.48948,7.34218 -1.46844,4.89479 -2.93687,10.27906 -1.95792,6.85271 -3.91584,13.70542 -1.95791,7.34218 -1.95791,14.19489 0,10.27906 6.36323,16.64228 -2.4474,0.97896 -4.40532,-0.48948 -1.95791,-0.97895 -1.95791,-0.97895 0.48948,6.8527 0,13.21593 -0.48948,6.85271 -1.46844,13.21593 0,4.89479 -0.48948,9.3001 -0.48948,4.40531 -0.48948,8.32115 0,6.8527 1.95792,12.23697 1.95791,5.38427 7.34218,8.81062 -8.32114,5.87375 -8.32114,11.7475 0,5.87375 3.91583,11.7475 4.89479,6.8527 13.21594,12.72645 7.83166,5.87375 13.70541,9.78958 -2.93688,5.87375 -4.89479,9.3001 -1.95792,3.42635 -5.87375,9.3001 -20.06864,5.38427 -40.62676,7.83167 -21.04759,2.44739 -48.45842,5.38427 -16.15281,1.95791 -30.83718,1.46843 -15.17384,0 -24.47395,3.42636 -2.44739,0.97895 -3.91583,2.93687 -1.46844,1.95792 -3.91583,2.44739 -12.72645,0.97896 -24.47395,-6.36322 -11.7475,-6.85271 -18.6002,-13.70541 3.42635,-8.81063 14.19489,-10.76854 10.76854,-1.95792 23.00551,-2.4474 2.93688,0 5.87375,-0.48948 2.44739,0 5.38427,0 0,-5.87375 1.46844,-12.72645 0.97895,-6.85271 4.89479,-12.72646 2.93687,-3.42635 7.34218,-6.36322 3.91583,-2.4474 7.83167,-3.91583 -4.89479,-2.93688 -8.32115,-2.4474 -3.42635,0.97896 -6.36323,2.93687 -3.42635,2.4474 -6.36322,5.38427 -3.42636,2.93688 -7.83167,3.42636 -7.83166,0.97895 -14.68437,-1.46844 -7.34218,-1.95792 -13.70541,-6.36323 -8.81062,-6.36322 -16.15281,-14.19489 -7.34218,-7.34218 -13.70541,-12.72645 0.97896,-6.85271 7.83167,-8.81062 6.36322,-1.46844 13.21593,-3.42636 3.42635,-11.25801 5.87375,-28.38978 1.95791,-16.64229 6.8527,-30.83718 8.32115,-2.93687 15.17385,-2.44739 6.36323,0.97896 14.68437,2.93687 1.46844,0.48948 2.93688,0.48948 1.46843,0.48948 2.93687,0.97896 -0.97896,-8.81062 1.95792,-17.62125 2.44739,-8.81062 5.38427,-15.17384 2.93687,-5.87375 2.93687,-5.87375 -7.34219,4.40531 -14.68437,2.44739 -7.34219,-1.95791 -14.68437,-5.38427 -2.4474,-0.97895 -4.89479,-2.44739 -2.93687,-0.97896 -5.38427,-1.46844 -1.46844,0 0,3.42635 0.48948,0.97896 0.97896,2.4474 0.48948,1.95792 -0.48948,3.91583 -3.91583,0.97896 -8.32114,0.97896 -4.40531,0 -9.78958,-1.95792 0.48948,5.38427 4.89479,5.87375 4.40531,0.97896 6.8527,3.91583 -21.53707,11.25802 -43.07415,24.47395 -22.02655,13.21594 -33.28457,29.85822 11.25802,15.17385 23.98447,28.87926 12.23697,14.1949 24.96343,27.90031 -7.34219,4.40531 -14.19489,2.93687 -7.34219,-0.97896 -14.19489,-5.38427 -10.27906,-6.36322 -21.0476,-16.1528 -10.76854,-9.30011 -21.53708,-12.23698 -6.36322,5.38427 -12.23697,15.17385 -5.87375,9.78958 -9.3001,21.0476 -3.42636,11.74749 -2.4474,21.53707 8.81062,1.95792 20.06864,0.48948 10.76854,-1.46844 22.02656,-3.42635 8.81062,-1.46844 17.62124,-2.93688 8.32114,-0.97895 16.64229,-0.97895 11.74749,0 22.02655,3.91583 9.78958,4.40531 16.15281,15.66333 -5.87375,7.83166 -18.11072,8.81062 -12.72646,1.46844 -28.38979,1.46844 -6.8527,0 -13.70541,0 -7.34218,0 -14.68437,0.48947 -11.7475,0.97896 -21.0476,2.93688 -9.3001,1.95791 -22.51603,1.95791 -6.36323,7.34219 -13.21593,10.27906 -6.85271,2.93688 -13.70542,2.4474 -13.21593,-0.48948 -26.43186,-8.81062 -13.70541,-8.32115 -23.98447,-16.15281 -3.42636,-7.83166 -1.46844,-13.21593 1.46844,-4.89479 6.36323,-7.34219 5.38427,-2.93687 13.70541,-3.42635 7.83166,0 15.17385,0.97896 10.76854,-16.64229 21.0476,-35.24249 9.78958,-18.11072 19.08968,-36.71093 -8.32115,-7.83166 -20.06864,-15.17385 -11.7475,-6.8527 -24.96343,-13.21593 -6.36323,-2.93687 -13.21593,-4.40531 -7.34219,-0.97896 -11.7475,-4.89479 -1.46844,-0.97896 -1.46844,-3.42635 0,-2.4474 -1.95791,-4.89479 -3.42636,-3.42636 -8.81063,-7.34219 -5.38427,-3.42635 -9.78958,-7.34218 -3.91583,-3.42636 -5.87374,-7.34219 -1.95792,-3.42635 -0.97896,-8.81062 z m 165.93338,-67.5481 q 25.94239,3.91583 56.29009,1.46843 29.85821,-1.95791 55.8006,-8.81062 -0.97896,-1.46844 -1.95791,-2.93687 -1.46844,-0.97896 -2.93688,-2.4474 -6.8527,-8.32114 -13.70541,-18.6002 -7.34219,-9.78958 -11.7475,-23.49499 -4.89479,-13.21593 -3.42635,-31.32666 -17.13176,-1.95791 -34.26353,-1.46843 -17.13176,0.97895 -33.77405,1.95791 -4.40531,10.76854 -8.32114,27.41083 -4.40531,16.64228 -5.87375,32.79509 -1.46844,16.64228 3.91583,25.45291 z m 99.85372,179.14931 q 14.19489,0.97896 26.43186,-0.97896 11.7475,-1.46843 23.00552,-3.42635 10.27906,-1.95791 20.55811,-3.42635 10.27906,-1.46844 21.0476,0 -0.48948,-5.38427 -0.48948,-10.76854 0,-4.89479 0.48948,-9.3001 0,-6.36323 0,-12.23698 0,-5.38426 -1.46844,-11.25801 -25.4529,0.97896 -46.01102,2.93687 -20.55812,1.95792 -41.60572,8.32114 -3.91583,7.83167 -4.89479,20.06864 -0.97896,12.23698 2.93688,20.06864 z m 27.9003,-106.21694 q 1.46844,6.8527 1.95792,14.19489 0.48948,7.83166 0.48948,15.66333 7.83166,4.40531 16.64228,3.91583 8.32114,-0.48948 17.13177,-1.95792 6.36322,-0.97895 12.72645,-1.95791 6.36323,-0.48948 12.23698,1.46843 0.97895,-5.38426 0.97895,-9.78958 0,-3.91583 -0.48948,-8.32114 -0.48947,-3.91583 -0.48947,-8.32114 0,-3.91583 0.48947,-8.81062 -14.19489,-0.97896 -31.81613,-0.48948 -17.62124,0.48948 -29.85822,4.40531 z m 2.4474,130.20141 q -1.95792,6.85271 -1.46844,12.23698 0.48948,5.87375 1.46844,11.74749 0,2.4474 0.48947,5.38427 0.48948,2.93688 0.48948,5.87375 11.25802,2.4474 26.92135,0 15.66333,-2.44739 26.92134,-6.8527 0,-1.95792 0.97896,-4.89479 0.48948,-2.4474 1.46844,-5.38427 1.46844,-5.38427 2.44739,-10.76854 0.97896,-5.38427 -0.97895,-9.3001 -8.32115,-1.95792 -16.64229,-1.46844 -8.81062,0.48948 -18.11072,1.46844 -5.87375,0.97896 -11.7475,1.46843 -6.36323,0.48948 -12.23697,0.48948 z"
     id="path1153"
     style="font-size:489.479px;font-family:'Yuji Mai';-inkscape-font-specification:'Yuji Mai';fill:#000000;stroke-width:21.1667;fill-opacity:1" />
  <path
     d="m 448.39854,771.97126 q 0.97896,-6.36323 7.34218,-11.25802 5.87375,-4.89479 14.68437,-7.83166 14.19489,-4.89479 31.81614,-5.38427 17.62124,0 28.87926,4.89479 1.46844,2.44739 0.97896,5.38427 -0.97896,2.93687 -0.97896,2.93687 3.42635,-1.46843 4.89479,-0.97896 1.46844,0.97896 2.44739,2.4474 0.97896,1.46844 2.4474,2.44739 1.46844,0.97896 4.89479,0.48948 4.89479,11.7475 11.25802,19.08968 5.87374,7.34219 12.23697,13.21594 5.87375,5.87375 10.76854,13.70541 6.36323,-3.42635 11.25802,-6.85271 4.89479,-3.42635 9.3001,-7.34218 9.3001,-7.34219 19.57916,-13.21593 10.27906,-5.38427 28.87926,-4.89479 0,-3.42636 -6.85271,-7.83167 -7.34218,-3.91583 -11.74749,-6.8527 -1.46844,-8.32115 0.48948,-13.21594 1.95791,-4.89479 4.89479,-8.81062 0.97895,-1.46844 1.95791,-3.42635 0.97896,-1.46844 1.95792,-3.42636 -4.40531,0.48948 -8.81062,0.97896 -4.89479,0.48948 -9.3001,0.97896 -20.55812,1.95792 -39.6478,2.93687 -19.08969,0.97896 -34.26353,-3.42635 -11.25802,-2.93687 -20.06864,-9.3001 -8.81063,-6.36323 -14.19489,-18.11072 23.98447,-0.48948 41.11623,-1.95792 17.13177,-1.46844 17.13177,-1.46844 -4.89479,-3.42635 -7.34219,-9.3001 -2.93687,-5.38427 -7.83166,-8.81062 1.95791,-6.36323 3.42635,-11.25802 0.97896,-4.40531 8.81062,-7.34218 6.36323,-14.19489 9.3001,-26.43187 2.93688,-11.74749 10.27906,-24.47395 -5.38427,-0.97896 -11.25801,-1.46843 -6.36323,0 -12.72646,0 -3.91583,0 -7.34218,0 -3.91584,0 -7.83167,-0.48948 -6.8527,6.8527 -15.17385,8.32114 -8.32114,1.95792 -17.13176,0.48948 -15.66333,-2.4474 -31.32666,-12.23698 -15.66333,-9.3001 -24.96343,-15.66332 0,-2.4474 -0.48948,-4.40532 -0.97895,-2.44739 -1.95791,-3.91583 -0.97896,-2.44739 -1.46844,-4.40531 -0.48948,-1.95791 0.48948,-3.91583 19.08968,-2.93688 35.73197,-0.97896 16.1528,1.95792 32.79509,4.89479 11.7475,1.95792 23.98447,3.91583 12.23698,1.46844 26.43187,1.95792 53.35321,1.46844 105.23798,-3.42635 51.3953,-5.38427 91.53258,-16.64229 2.93687,-1.95792 5.38427,-5.38427 1.95791,-3.42635 5.38427,-5.38427 16.64228,0.97896 27.41082,8.81062 10.27906,7.83167 19.08968,17.62125 8.32114,9.78958 20.06864,16.64228 0,4.40532 -1.95792,6.36323 -2.44739,2.4474 -5.87374,3.91583 -1.95792,-1.46843 -3.91584,0.48948 -1.95791,1.95792 -3.91583,1.46844 -11.74749,-9.3001 -33.28457,-8.32114 -22.02656,0.97895 -44.05311,3.91583 -7.34219,0.97896 -13.70541,1.46844 -6.85271,0.97895 -13.21594,1.46843 0.48948,9.78958 1.46844,24.96343 0.97896,15.17385 3.42635,30.3477 2.4474,15.66333 8.81063,24.47395 22.02655,0.97896 35.73196,11.25802 13.70542,10.76854 22.51604,28.87926 -4.89479,2.44739 -9.3001,1.46844 -4.40531,-0.97896 -8.81063,-2.4474 -2.44739,-0.97896 -4.89479,-1.95792 -2.44739,-0.48947 -4.89479,-0.97895 -14.68437,-1.95792 -30.34769,-0.97896 -16.15281,1.46844 -33.28458,3.91583 -9.78958,0.97896 -19.57916,1.95792 -10.27906,1.46843 -20.55811,1.95791 0,2.4474 0.48947,3.91583 0,1.95792 0.48948,3.42636 0.48948,2.44739 0.97896,4.89479 0.48948,2.44739 0,5.87375 10.27906,-1.46844 21.0476,-1.95792 10.76854,-0.48948 22.02655,-0.48948 19.08969,-0.48948 38.17937,-2.44739 19.08968,-1.46844 35.73196,-8.81063 2.93688,-1.46843 5.38427,-0.97895 1.95792,0.48947 3.42636,1.46843 2.44739,0.48948 4.40531,0.48948 1.95791,0 4.89479,-3.42635 5.87374,5.38427 14.19489,8.81062 8.32114,3.42635 15.17385,7.34219 6.8527,4.40531 8.81062,12.72645 0.48948,2.93687 -0.48948,7.34218 -1.46844,4.89479 -2.93687,10.27906 -1.95792,6.85271 -3.91584,13.70542 -1.95791,7.34218 -1.95791,14.19489 0,10.27906 6.36323,16.64228 -2.4474,0.97896 -4.40532,-0.48948 -1.95791,-0.97895 -1.95791,-0.97895 0.48948,6.8527 0,13.21593 -0.48948,6.85271 -1.46844,13.21593 0,4.89479 -0.48948,9.3001 -0.48948,4.40531 -0.48948,8.32115 0,6.8527 1.95792,12.23697 1.95791,5.38427 7.34218,8.81062 -8.32114,5.87375 -8.32114,11.7475 0,5.87375 3.91583,11.7475 4.89479,6.8527 13.21594,12.72645 7.83166,5.87375 13.70541,9.78958 -2.93688,5.87375 -4.89479,9.3001 -1.95792,3.42635 -5.87375,9.3001 -20.06864,5.38427 -40.62676,7.83167 -21.04759,2.44739 -48.45842,5.38427 -16.15281,1.95791 -30.83718,1.46843 -15.17384,0 -24.47395,3.42636 -2.44739,0.97895 -3.91583,2.93687 -1.46844,1.95792 -3.91583,2.44739 -12.72645,0.97896 -24.47395,-6.36322 -11.7475,-6.85271 -18.6002,-13.70541 3.42635,-8.81063 14.19489,-10.76854 10.76854,-1.95792 23.00551,-2.4474 2.93688,0 5.87375,-0.48948 2.44739,0 5.38427,0 0,-5.87375 1.46844,-12.72645 0.97895,-6.85271 4.89479,-12.72646 2.93687,-3.42635 7.34218,-6.36322 3.91583,-2.4474 7.83167,-3.91583 -4.89479,-2.93688 -8.32115,-2.4474 -3.42635,0.97896 -6.36323,2.93687 -3.42635,2.4474 -6.36322,5.38427 -3.42636,2.93688 -7.83167,3.42636 -7.83166,0.97895 -14.68437,-1.46844 -7.34218,-1.95792 -13.70541,-6.36323 -8.81062,-6.36322 -16.15281,-14.19489 -7.34218,-7.34218 -13.70541,-12.72645 0.97896,-6.85271 7.83167,-8.81062 6.36322,-1.46844 13.21593,-3.42636 3.42635,-11.25801 5.87375,-28.38978 1.95791,-16.64229 6.8527,-30.83718 8.32115,-2.93687 15.17385,-2.44739 6.36323,0.97896 14.68437,2.93687 1.46844,0.48948 2.93688,0.48948 1.46843,0.48948 2.93687,0.97896 -0.97896,-8.81062 1.95792,-17.62125 2.44739,-8.81062 5.38427,-15.17384 2.93687,-5.87375 2.93687,-5.87375 -7.34219,4.40531 -14.68437,2.44739 -7.34219,-1.95791 -14.68437,-5.38427 -2.4474,-0.97895 -4.89479,-2.44739 -2.93687,-0.97896 -5.38427,-1.46844 -1.46844,0 0,3.42635 0.48948,0.97896 0.97896,2.4474 0.48948,1.95792 -0.48948,3.91583 -3.91583,0.97896 -8.32114,0.97896 -4.40531,0 -9.78958,-1.95792 0.48948,5.38427 4.89479,5.87375 4.40531,0.97896 6.8527,3.91583 -21.53707,11.25802 -43.07415,24.47395 -22.02655,13.21594 -33.28457,29.85822 11.25802,15.17385 23.98447,28.87926 12.23697,14.1949 24.96343,27.90031 -7.34219,4.40531 -14.19489,2.93687 -7.34219,-0.97896 -14.19489,-5.38427 -10.27906,-6.36322 -21.0476,-16.1528 -10.76854,-9.30011 -21.53708,-12.23698 -6.36322,5.38427 -12.23697,15.17385 -5.87375,9.78958 -9.3001,21.0476 -3.42636,11.74749 -2.4474,21.53707 8.81062,1.95792 20.06864,0.48948 10.76854,-1.46844 22.02656,-3.42635 8.81062,-1.46844 17.62124,-2.93688 8.32114,-0.97895 16.64229,-0.97895 11.74749,0 22.02655,3.91583 9.78958,4.40531 16.15281,15.66333 -5.87375,7.83166 -18.11072,8.81062 -12.72646,1.46844 -28.38979,1.46844 -6.8527,0 -13.70541,0 -7.34218,0 -14.68437,0.48947 -11.7475,0.97896 -21.0476,2.93688 -9.3001,1.95791 -22.51603,1.95791 -6.36323,7.34219 -13.21593,10.27906 -6.85271,2.93688 -13.70542,2.4474 -13.21593,-0.48948 -26.43186,-8.81062 -13.70541,-8.32115 -23.98447,-16.15281 -3.42636,-7.83166 -1.46844,-13.21593 1.46844,-4.89479 6.36323,-7.34219 5.38427,-2.93687 13.70541,-3.42635 7.83166,0 15.17385,0.97896 10.76854,-16.64229 21.0476,-35.24249 9.78958,-18.11072 19.08968,-36.71093 -8.32115,-7.83166 -20.06864,-15.17385 -11.7475,-6.8527 -24.96343,-13.21593 -6.36323,-2.93687 -13.21593,-4.40531 -7.34219,-0.97896 -11.7475,-4.89479 -1.46844,-0.97896 -1.46844,-3.42635 0,-2.4474 -1.95791,-4.89479 -3.42636,-3.42636 -8.81063,-7.34219 -5.38427,-3.42635 -9.78958,-7.34218 -3.91583,-3.42636 -5.87374,-7.34219 -1.95792,-3.42635 -0.97896,-8.81062 z m 165.93338,-67.5481 q 25.94239,3.91583 56.29009,1.46843 29.85821,-1.95791 55.8006,-8.81062 -0.97896,-1.46844 -1.95791,-2.93687 -1.46844,-0.97896 -2.93688,-2.4474 -6.8527,-8.32114 -13.70541,-18.6002 -7.34219,-9.78958 -11.7475,-23.49499 -4.89479,-13.21593 -3.42635,-31.32666 -17.13176,-1.95791 -34.26353,-1.46843 -17.13176,0.97895 -33.77405,1.95791 -4.40531,10.76854 -8.32114,27.41083 -4.40531,16.64228 -5.87375,32.79509 -1.46844,16.64228 3.91583,25.45291 z m 99.85372,179.14931 q 14.19489,0.97896 26.43186,-0.97896 11.7475,-1.46843 23.00552,-3.42635 10.27906,-1.95791 20.55811,-3.42635 10.27906,-1.46844 21.0476,0 -0.48948,-5.38427 -0.48948,-10.76854 0,-4.89479 0.48948,-9.3001 0,-6.36323 0,-12.23698 0,-5.38426 -1.46844,-11.25801 -25.4529,0.97896 -46.01102,2.93687 -20.55812,1.95792 -41.60572,8.32114 -3.91583,7.83167 -4.89479,20.06864 -0.97896,12.23698 2.93688,20.06864 z m 27.9003,-106.21694 q 1.46844,6.8527 1.95792,14.19489 0.48948,7.83166 0.48948,15.66333 7.83166,4.40531 16.64228,3.91583 8.32114,-0.48948 17.13177,-1.95792 6.36322,-0.97895 12.72645,-1.95791 6.36323,-0.48948 12.23698,1.46843 0.97895,-5.38426 0.97895,-9.78958 0,-3.91583 -0.48948,-8.32114 -0.48947,-3.91583 -0.48947,-8.32114 0,-3.91583 0.48947,-8.81062 -14.19489,-0.97896 -31.81613,-0.48948 -17.62124,0.48948 -29.85822,4.40531 z m 2.4474,130.20141 q -1.95792,6.85271 -1.46844,12.23698 0.48948,5.87375 1.46844,11.74749 0,2.4474 0.48947,5.38427 0.48948,2.93688 0.48948,5.87375 11.25802,2.4474 26.92135,0 15.66333,-2.44739 26.92134,-6.8527 0,-1.95792 0.97896,-4.89479 0.48948,-2.4474 1.46844,-5.38427 1.46844,-5.38427 2.44739,-10.76854 0.97896,-5.38427 -0.97895,-9.3001 -8.32115,-1.95792 -16.64229,-1.46844 -8.81062,0.48948 -18.11072,1.46844 -5.87375,0.97896 -11.7475,1.46843 -6.36323,0.48948 -12.23697,0.48948 z"
     id="path1153-5"
     style="font-size:489.479px;font-family:'Yuji Mai';-inkscape-font-specification:'Yuji Mai';fill:#29303d;fill-opacity:1;stroke-width:21.1667;filter:url(#filter1756)"
     clip-path="url(#clipPath1758)" />
  <path
     d="m 686.28279,911.99353 c 5.841,2.671 9.977,-5.341 8.721,-12.019 -1.256,-6.678 -7.908,-12.022 -13.75,-14.696 -5.842,-2.674 -10.876,-2.673 -9.619,4.007 1.257,6.68 8.807,20.037 14.648,22.708 z"
     filter="url(#H)"
     id="path402"
     style="fill:#ffffff"
     transform="matrix(-0.61257271,0.3592753,-0.35366902,-0.62228308,1423.1533,1222.8906)" />
  <path
     d="m 469.46231,790.05488 c 5.018,1.184 7.738,-4.454 6.327,-9.036 -1.411,-4.582 -6.956,-8.106 -11.976,-9.292 -5.02,-1.186 -9.512,-0.032 -8.099,4.551 1.413,4.583 8.731,12.592 13.748,13.776 z"
     filter="url(#I)"
     id="path404"
     style="fill:#ffffff" />
  <path
     d="m 692.62037,976.33415 c 4.886,1.167 7.757,-2.608 6.033,-6.921 -1.724,-4.313 -8.047,-9.167 -12.936,-10.337 -4.889,-1.17 -8.34,1.347 -6.613,5.663 1.727,4.316 8.63,10.428 13.516,11.596 z"
     filter="url(#J)"
     id="path406"
     style="fill:#ffffff"
     transform="matrix(0.75717468,-0.26540355,0.26540355,0.70120585,-86.258841,475.90823)" />
  <path
     d="m 504.30293,959.32234 c 4.886,1.167 7.757,-2.608 6.033,-6.921 -1.724,-4.313 -8.047,-9.167 -12.936,-10.337 -4.889,-1.17 -8.34,1.347 -6.613,5.663 1.727,4.316 8.63,10.428 13.516,11.596 z"
     filter="url(#J)"
     id="path406-6"
     style="fill:#ffffff;filter:url(#J-2)"
     transform="rotate(-10,523.27168,907.30351)" />
  <path
     d="m 567.1596,690.76598 c 3.861,0.839 7.462,-3.738 5.403,-6.866 -2.059,-3.128 -9.782,-4.808 -11.584,-2.518 -1.802,2.29 2.32,8.546 6.18,9.384 z"
     filter="url(#K)"
     id="path410"
     style="fill:#ffffff" />
  <path
     d="m 709.8532,780.86394 c 3.357,0.929 6.259,-3.056 4.354,-5.98 -1.905,-2.924 -8.621,-4.785 -10.072,-2.791 -1.451,1.994 2.362,7.841 5.719,8.771 z"
     filter="url(#F)"
     id="path412"
     style="fill:#ffffff"
     transform="rotate(-20,709.31557,776.13194)" />
</svg>
