<?xml version="1.0" encoding="UTF-8" standalone="no"?>
<svg
   width="498.898"
   height="544.252"
   viewBox="0 0 1320 1440"
   version="1.1"
   id="svg421"
   sodipodi:docname="w+V.svg"
   inkscape:version="1.2.2 (732a01da63, 2022-12-09)"
   xmlns:inkscape="http://www.inkscape.org/namespaces/inkscape"
   xmlns:sodipodi="http://sodipodi.sourceforge.net/DTD/sodipodi-0.dtd"
   xmlns="http://www.w3.org/2000/svg"
   xmlns:svg="http://www.w3.org/2000/svg">
  <sodipodi:namedview
     id="namedview423"
     pagecolor="#ffffff"
     bordercolor="#000000"
     borderopacity="0.25"
     inkscape:showpageshadow="2"
     inkscape:pageopacity="0.0"
     inkscape:pagecheckerboard="0"
     inkscape:deskcolor="#d1d1d1"
     showgrid="false"
     inkscape:zoom="0.96402626"
     inkscape:cx="-88.69053"
     inkscape:cy="298.74705"
     inkscape:window-width="1920"
     inkscape:window-height="974"
     inkscape:window-x="-11"
     inkscape:window-y="-11"
     inkscape:window-maximized="1"
     inkscape:current-layer="svg421" />
  <style
     id="style325">.B{color-interpolation-filters:sRGB}</style>
  <defs
     id="defs373">
    <filter
       id="C"
       x="-0.01110353"
       y="-0.011243256"
       width="1.0222071"
       height="1.0224865"
       class="B">
      <feGaussianBlur
         stdDeviation="2.441"
         id="feGaussianBlur327" />
    </filter>
    <filter
       id="D"
       x="-0.044582165"
       y="-0.051981172"
       width="1.0891643"
       height="1.1039623"
       class="B">
      <feGaussianBlur
         stdDeviation="8.635"
         id="feGaussianBlur330" />
    </filter>
    <filter
       id="G"
       x="-0.052321729"
       y="-0.044333314"
       width="1.1046435"
       height="1.0886666"
       class="B">
      <feGaussianBlur
         stdDeviation="6.784"
         id="feGaussianBlur333" />
    </filter>
    <filter
       id="H"
       x="-0.28694713"
       y="-0.30485973"
       width="1.5738943"
       height="1.6097195"
       class="B">
      <feGaussianBlur
         stdDeviation="1.688"
         id="feGaussianBlur336" />
    </filter>
    <filter
       id="I"
       x="-0.34932089"
       y="-0.38465625"
       width="1.6986418"
       height="1.7693125"
       class="B">
      <feGaussianBlur
         stdDeviation="1.688"
         id="feGaussianBlur339" />
    </filter>
    <filter
       id="J"
       x="-0.29422404"
       y="-0.54109355"
       width="1.5884481"
       height="2.0821871"
       class="B">
      <feGaussianBlur
         stdDeviation="1.688"
         id="feGaussianBlur342" />
    </filter>
    <filter
       id="K"
       x="-0.21468687"
       y="-0.32268743"
       width="1.4293737"
       height="1.6453749"
       class="B">
      <feGaussianBlur
         stdDeviation="1.688"
         id="feGaussianBlur345" />
    </filter>
    <filter
       id="L"
       x="-0.29418135"
       y="-0.45605182"
       width="1.5883627"
       height="1.9121036"
       class="B">
      <feGaussianBlur
         stdDeviation="1.688"
         id="feGaussianBlur348" />
    </filter>
    <linearGradient
       id="A"
       x1="-1430.769"
       y1="-77.47"
       x2="-1409.955"
       y2="-77.47"
       spreadMethod="reflect"
       gradientUnits="userSpaceOnUse">
      <stop
         offset="0"
         stop-color="#ffd285"
         id="stop351" />
      <stop
         offset=".232"
         stop-color="#ffcd79"
         id="stop353" />
      <stop
         offset=".616"
         stop-color="#ffca73"
         id="stop355" />
      <stop
         offset=".808"
         stop-color="#ffd386"
         id="stop357" />
      <stop
         offset="1"
         stop-color="#ffc86e"
         id="stop359" />
    </linearGradient>
    <linearGradient
       id="B"
       x1="-899.905"
       y1="-344.262"
       x2="-899.906"
       y2="125.211"
       gradientUnits="userSpaceOnUse">
      <stop
         offset=".597"
         stop-color="#fff"
         id="stop362" />
      <stop
         offset="1"
         id="stop364" />
    </linearGradient>
    <clipPath
       id="E">
      <path
         d="M895.511 704.042c-3.776-55.22-81.178-64.187-112.8-108.08 27.374-10.855 64.187-14.631 83.066-34.454-6.608-23.598-27.846-25.958-42.949-27.374 3.776-4.248 6.608-8.967 7.552-15.575-.472-16.047 6.136-92.977 23.126-104.305 4.72-3.304 11.327-1.888 16.991-8.967-16.519-25.486-48.613-60.412-87.314-35.397-28.79.944-59.468 7.079-79.762 8.967-17.935 1.888-32.566-13.215-50.028-8.495-3.304 11.327 6.608 19.823 11.799 26.43 6.136 21.71 10.855 52.86 11.799 86.37 0 2.832 4.248.944 3.304 4.72-.472 55.22.472 122.239-7.08 192.09-7.551-4.72-16.047-5.664-21.71.944 8.967 13.215 19.823 43.421 52.388 42.005 2.36-2.832 3.776-6.136 6.136-10.383 25.486-16.991 49.084-39.173 77.402-60.412 12.743 15.103 31.15 38.701 43.893 63.243 26.43 8.023 50.028 9.439 64.187-11.327zm-235.039-96.753c.472-13.215-34.454-53.804-42.949-35.869 2.36 5.192 4.72 9.439 6.608 15.103 1.888 21.238-11.327 51.444-21.239 77.402 12.271 0 17.463-9.439 25.014-.944 8.967-11.327 31.622-37.285 32.566-55.692zm-2.36-183.123c0-33.038-31.15-52.86-51.444-62.3-11.327-28.79-40.589-37.757-70.323-21.71 7.552 8.023 17.935 13.215 22.182 25.014-6.136 17.463-85.426 153.389-102.417 162.828 0 9.911-23.598 29.262-31.622 38.229 6.608 9.911 20.295 11.327 30.678 8.967 9.911-2.36 61.356-72.211 65.131-77.874 8.023 2.832 18.879 11.799 33.038 7.08 6.136 9.911 9.911 22.182 10.383 40.589-19.823 9.439-63.243 2.832-76.931 20.766 17.935 24.542 51.916 9.911 77.874 9.911 0 30.206 0 82.122-2.832 112.328-12.271 2.832-40.117 9.911-57.58 8.023-9.911-.944-16.991-10.383-27.846-4.248 1.416 16.519 33.982 52.86 52.388 45.781 8.495-3.304 15.103-13.687 24.542-18.407 30.206-15.103 69.379-4.248 100.057-23.126-11.327-16.991-33.982-22.182-63.715-13.215l5.664-113.744c20.767-5.664 41.533-6.607 55.692-18.879-5.664-12.271-20.767-25.486-56.164-11.799 1.416-12.271 3.304-28.318-4.248-44.365 21.238-1.888 33.038-6.608 49.085-14.631-10.855-12.743-26.43-19.351-45.781-22.182-10.383 14.159-44.837 18.407-62.3 19.351 11.799-19.351 38.229-57.58 49.556-83.538 3.304-3.304 8.023-8.023 15.103-8.967 14.159 24.07 33.51 35.869 61.828 40.117zM542.953 679.5c0-14.159-6.608-27.846-6.136-39.173 0-3.304 3.304-4.72 2.832-8.495-3.304-18.407-29.262-35.397-44.365-35.869-2.832 15.575 10.855 38.701 9.439 58.996 8.495 8.967 21.71 22.182 38.229 24.542zm254.862-227.488c-22.654-15.103-50.5.944-86.842 1.416.944-16.519-2.36-35.397-4.248-45.781 21.71-6.136 57.108-10.855 88.73-13.215 3.776 12.271 2.36 40.117 2.36 57.58zm0 16.991c.472 19.823-.472 28.79-1.888 45.781-19.823 2.832-57.58 8.023-85.426 6.608 1.416-8.495.944-30.206 1.416-39.645 25.014-3.776 56.636-6.608 85.898-12.743zm14.159 70.795c2.832 5.664 2.36 12.743-3.776 15.103-9.911 5.192-26.902 17.463-39.645 23.598-8.495-5.664-23.126-23.126-33.982-31.15 22.182-1.888 54.276-3.776 77.402-7.551zm-45.309 84.482c-6.608 13.215-41.061 37.285-64.187 49.557 1.416-16.991 6.608-86.842 7.551-122.239 24.542 17.935 39.645 46.253 56.636 72.683z"
         stroke-width="23.417"
         id="path367" />
    </clipPath>
    <clipPath
       id="F">
      <path
         d="M656.251 790.644a11.095 11.095 0 0 0-11.121 11.121v164.641L528.709 849.984a11.1 11.1 0 0 0-15.73 0l-5.302 5.302a11.105 11.105 0 0 0 0 15.735l131.289 131.289-131.29 131.29a11.1 11.1 0 0 0 0 15.73l5.302 5.302a11.1 11.1 0 0 0 15.73 0l131.289-131.294 131.294 131.294a11.1 11.1 0 0 0 15.73 0l5.302-5.302a11.1 11.1 0 0 0 0-15.73l-131.289-131.289 131.289-131.289a11.105 11.105 0 0 0 0-15.735l-5.302-5.302a11.1 11.1 0 0 0-15.73 0L674.87 966.401V801.765a11.095 11.095 0 0 0-11.121-11.121zm3.747 211.661h.011l-.011.011-.005-.011z"
         stroke-width="1.534"
         id="path370" />
    </clipPath>
    <filter
       inkscape:menu-tooltip="In and out glow with a possible offset and colorizable flood"
       inkscape:menu="Shadows and Glows"
       inkscape:label="Cutout Glow"
       style="color-interpolation-filters:sRGB;"
       id="filter4712"
       x="-0.042661846"
       y="-0.017701505"
       width="1.0605203"
       height="1.0599884">
      <feOffset
         dy="10"
         dx="-10"
         id="feOffset4702" />
      <feGaussianBlur
         stdDeviation="3"
         result="blur"
         id="feGaussianBlur4704" />
      <feFlood
         flood-color="rgb(0,0,0)"
         flood-opacity="0"
         result="flood"
         id="feFlood4706" />
      <feComposite
         in="flood"
         in2="SourceGraphic"
         operator="in"
         result="composite"
         id="feComposite4708" />
      <feBlend
         in="blur"
         in2="composite"
         mode="normal"
         id="feBlend4710" />
    </filter>
    <clipPath
       clipPathUnits="userSpaceOnUse"
       id="clipPath4759">
      <path
         d="m 864.4267,599.74323 q -0.94456,6.13965 -7.08421,10.86246 -5.6674,4.72281 -14.16844,7.5565 -13.69615,4.72281 -30.69826,5.19509 -17.00212,0 -27.86459,-4.72281 -1.41684,-2.36143 -0.94456,-5.19509 0.94456,-2.83369 0.94456,-2.83369 -3.30596,1.41682 -4.72281,0.94454 -1.41684,-0.94454 -2.3614,-2.36138 -0.94456,-1.41684 -2.36141,-2.36143 -1.41684,-0.94454 -4.72281,-0.47226 -4.72281,-11.33474 -10.86246,-18.41896 -5.66737,-7.08421 -11.80703,-12.75159 -5.66737,-5.66737 -10.39018,-13.22387 -6.13966,3.30597 -10.86247,6.61194 -4.72281,3.30597 -8.97334,7.08421 -8.97334,7.08422 -18.89124,12.75159 -9.9179,5.19509 -27.86458,4.72279 0,3.30599 6.61193,7.55652 7.08422,3.77825 11.33475,6.61191 1.41684,8.0288 -0.47228,12.75159 -1.88913,4.72281 -4.72281,8.50108 -0.94456,1.41682 -1.88913,3.30597 -0.94456,1.41684 -1.88912,3.30594 4.25053,-0.47228 8.50106,-0.94456 4.72281,-0.47228 8.97334,-0.94454 19.8358,-1.88912 38.25476,-2.83371 18.41897,-0.94456 33.05968,3.30597 10.86246,2.83371 19.36352,8.97334 8.50106,6.13965 13.69615,17.47442 -23.14177,0.47226 -39.67161,1.8891 -16.52983,1.41684 -16.52983,1.41684 4.72281,3.30597 7.08421,8.97334 2.83369,5.1951 7.5565,8.50106 -1.88913,6.13966 -3.30597,10.86247 -0.94456,4.25053 -8.50106,7.08421 -6.13965,13.69615 -8.97334,25.50318 -2.83368,11.33475 -9.9179,23.61405 5.19509,0.94456 10.86246,1.41685 6.13966,0 12.27931,0 3.77825,0 7.08422,0 3.77825,0 7.5565,0.47228 6.61193,-6.61194 14.64071,-8.02878 8.02878,-1.88913 16.52983,-0.47228 15.113,2.3614 30.22599,11.80702 15.113,8.97334 24.08634,15.113 0,2.3614 0.47228,4.25053 0.94456,2.3614 1.88912,3.77825 0.94456,2.3614 1.41682,4.25053 0.47231,1.88912 -0.47226,3.77824 -18.41896,2.83369 -34.47651,0.94457 -15.58528,-1.88913 -31.64283,-4.72281 -11.33475,-1.88913 -23.14178,-3.77825 -11.80702,-1.41685 -25.50317,-1.88913 -51.47864,-1.41684 -101.54043,3.30597 -49.58948,5.19509 -88.31653,16.05756 -2.83369,1.88912 -5.19509,5.19509 -1.88913,3.30596 -5.19509,5.19509 -16.05756,-0.94456 -26.44774,-8.50106 -9.9179,-7.5565 -18.41896,-17.00212 -8.02878,-9.44562 -19.36353,-16.05755 0,-4.25053 1.88913,-6.13966 2.3614,-2.3614 5.66737,-3.77825 1.88912,1.41685 3.77825,-0.47228 1.88912,-1.88912 3.77825,-1.41684 11.33474,8.97334 32.11511,8.02878 21.25265,-0.94456 42.50529,-3.77825 7.08422,-0.94456 13.22387,-1.41684 6.61194,-0.94457 12.75159,-1.41685 -0.47228,-9.44562 -1.41684,-24.08633 -0.94456,-14.64071 -3.30597,-29.28143 -2.3614,-15.11299 -8.50106,-23.61405 -21.25265,-0.94456 -34.47651,-10.86246 -13.22387,-10.39016 -21.72493,-27.86456 4.72281,-2.36143 8.97334,-1.41684 4.25053,0.94456 8.50106,2.36138 2.3614,0.94456 4.72281,1.88912 2.3614,0.47231 4.72281,0.94459 14.16843,1.8891 29.28142,0.94456 15.58528,-1.41684 32.11509,-3.77827 9.44562,-0.94454 18.89124,-1.8891 9.9179,-1.41687 19.8358,-1.88915 0,-2.36138 -0.47228,-3.77825 0,-1.8891 -0.47228,-3.30594 -0.47228,-2.36143 -0.94456,-4.72281 -0.47228,-2.36143 0,-5.6674 -9.9179,1.41687 -20.30806,1.88915 -10.39018,0.47228 -21.25265,0.47228 -18.41896,0.47228 -36.83792,2.36141 -18.41896,1.41684 -34.47652,8.50103 -2.83368,1.41687 -5.19509,0.94459 -1.88912,-0.47231 -3.30596,-1.41687 -2.36141,-0.47228 -4.25053,-0.47228 -1.88913,0 -4.72281,3.30599 -5.66738,-5.19509 -13.69616,-8.50106 -8.02877,-3.30599 -14.64071,-7.08424 -6.61193,-4.2505 -8.50106,-12.27928 -0.47228,-2.83369 0.47228,-7.08422 1.41685,-4.72281 2.83369,-9.9179 1.88912,-6.61193 3.77825,-13.22387 1.88912,-7.08421 1.88912,-13.69615 0,-9.9179 -6.13965,-16.05756 2.3614,-0.94456 4.25053,0.47229 1.88912,0.94456 1.88912,0.94456 -0.47228,-6.61194 0,-12.75159 0.47228,-6.61194 1.41685,-12.75159 0,-4.72281 0.47228,-8.97334 0.47228,-4.25053 0.47228,-8.02878 0,-6.61193 -1.88913,-11.80702 -1.88912,-5.19509 -7.08421,-8.50106 8.02878,-5.66737 8.02878,-11.33475 0,-5.66737 -3.77825,-11.33474 -4.72281,-6.61194 -12.75159,-12.27931 -7.5565,-5.66737 -13.22387,-9.44562 2.83369,-5.66737 4.72281,-8.97334 1.88912,-3.30597 5.66737,-8.97334 19.36353,-5.19509 39.19933,-7.5565 20.30809,-2.36138 46.75582,-5.19509 15.58528,-1.8891 29.75371,-1.41684 14.64069,0 23.61403,-3.30597 2.36143,-0.94456 3.77827,-2.83369 1.41682,-1.88912 3.77825,-2.3614 12.27928,-0.94454 23.61403,6.13965 11.33474,6.61196 17.94668,13.22387 -3.30597,8.50106 -13.69613,10.39018 -10.39018,1.88913 -22.19721,2.36141 -2.83371,0 -5.66737,0.47228 -2.36143,0 -5.19509,0 0,5.66737 -1.41687,12.27931 -0.94456,6.61193 -4.72281,12.27931 -2.83366,3.30596 -7.08419,6.13965 -3.77825,2.3614 -7.5565,3.77825 4.72281,2.83368 8.02878,2.3614 3.30597,-0.94456 6.13963,-2.83368 3.30599,-2.36141 6.13968,-5.19509 3.30594,-2.83369 7.55647,-3.30597 7.55652,-0.94456 14.16843,1.41684 7.08424,1.88913 13.22387,6.13965 8.50106,6.13966 15.58527,13.69616 7.08422,7.08421 13.22387,12.2793 -0.94456,6.61194 -7.55649,8.50106 -6.13966,1.41684 -12.75159,3.30597 -3.30597,10.86246 -5.66735,27.3923 -1.88915,16.05756 -6.61196,29.75371 -8.02875,2.83368 -14.64071,2.3614 -6.13963,-0.94456 -14.16841,-2.83368 -1.41684,-0.47229 -2.83368,-0.47229 -1.41687,-0.47228 -2.83369,-0.94456 0.94456,8.50106 -1.88912,17.00212 -2.36141,8.50106 -5.19512,14.64071 -2.83366,5.66738 -2.83366,5.66738 7.08419,-4.25053 14.16843,-2.36141 7.08419,1.88912 14.16843,5.19509 2.36138,0.94454 4.72281,2.36141 2.83366,0.94456 5.19507,1.41684 1.41684,0 0,-3.30597 -0.47226,-0.94456 -0.94454,-2.3614 -0.47228,-1.88915 0.47228,-3.77825 3.77825,-0.94456 8.02878,-0.94456 4.2505,0 9.44562,1.88912 -0.47228,-5.19509 -4.72281,-5.66737 -4.25053,-0.94456 -6.61196,-3.77825 20.78039,-10.86246 41.56073,-23.61405 21.25265,-12.75159 32.11511,-28.80915 -10.86246,-14.64071 -23.14177,-27.86458 -11.80702,-13.69615 -24.08633,-26.92002 7.08421,-4.25053 13.69615,-2.83369 7.08422,0.94457 13.69615,5.1951 9.9179,6.13965 20.30809,15.58527 10.39018,8.97334 20.78036,11.80703 6.13966,-5.19509 11.80703,-14.64072 5.66737,-9.44562 8.97334,-20.30808 3.30597,-11.33475 2.3614,-20.78037 -8.50106,-1.88912 -19.36352,-0.47228 -10.39018,1.41685 -21.25265,3.30597 -8.50106,1.41684 -17.00212,2.83369 -8.02877,0.94456 -16.05755,0.94456 -11.33475,0 -21.25265,-3.77825 -9.44562,-4.25053 -15.58527,-15.11299 5.66737,-7.5565 17.47442,-8.50106 12.27928,-1.41685 27.39228,-1.41685 6.61193,0 13.22387,0 7.08421,0 14.16843,-0.47228 11.33474,-0.94456 20.30808,-2.83368 8.97334,-1.88913 21.72493,-1.88913 6.13966,-7.08419 12.75159,-9.9179 6.61194,-2.83369 13.22387,-2.36141 12.75159,0.47231 25.50318,8.50106 13.22387,8.02878 23.14177,15.58528 3.30597,7.55649 1.41684,12.75159 -1.41684,4.72281 -6.13965,7.08421 -5.19509,2.83369 -13.22387,3.30597 -7.5565,0 -14.64071,-0.94456 -10.39019,16.05755 -20.30809,34.00423 -9.44562,17.4744 -18.41896,35.42108 8.02878,7.5565 19.36352,14.64072 11.33475,6.61193 24.08634,12.75158 6.13965,2.83369 12.75158,4.25053 7.08422,0.94457 11.33475,4.72281 1.41684,0.94457 1.41684,3.30597 0,2.36141 1.88913,4.72281 3.30596,3.30597 8.50106,7.08422 5.19509,3.30596 9.44562,7.08421 3.77825,3.30597 5.66737,7.08422 1.8891,3.30597 0.94456,8.50106 z m -160.10328,65.17476 q -25.03089,-3.77825 -54.31232,-1.41685 -28.80914,1.88913 -53.84001,8.50106 0.94456,1.41687 1.8891,2.83369 1.41687,0.94456 2.83371,2.3614 6.61191,8.02878 13.22387,17.94668 7.08419,9.44563 11.33472,22.6695 4.72281,12.75158 3.30599,30.22598 16.52981,1.88913 33.05965,1.41685 16.52984,-0.94457 32.58739,-1.88913 4.25053,-10.39018 8.02878,-26.44774 4.25053,-16.05755 5.66737,-31.64283 1.41685,-16.05753 -3.77825,-24.55861 z m -96.3453,-172.85484 q -13.69615,-0.94456 -25.50318,0.94456 -11.33475,1.41684 -22.19721,3.30597 -9.9179,1.88912 -19.8358,3.30596 -9.91791,1.41685 -20.30809,0 0.47228,5.1951 0.47228,10.39019 0,4.72281 -0.47228,8.97334 0,6.13965 0,11.80702 0,5.1951 1.41684,10.86247 24.55862,-0.94456 44.39442,-2.83369 19.83581,-1.88912 40.14389,-8.02878 3.77825,-7.55649 4.72281,-19.36352 0.94454,-11.80703 -2.83368,-19.36352 z M 581.0581,594.54814 q -1.41685,-6.61194 -1.88913,-13.69615 -0.47228,-7.5565 -0.47228,-15.113 -7.5565,-4.25053 -16.05755,-3.77825 -8.02878,0.47228 -16.52984,1.88913 -6.13966,0.94456 -12.27931,1.88912 -6.13965,0.47228 -11.80703,-1.41684 -0.94456,5.19509 -0.94456,9.44562 0,3.77825 0.47228,8.02878 0.47228,3.77825 0.47228,8.02878 0,3.77824 -0.47228,8.50105 13.69615,0.94457 30.69827,0.47229 17.00212,-0.47229 28.80915,-4.25053 z m -2.36141,-125.62676 q 1.88913,-6.61194 1.41684,-11.80703 -0.47228,-5.66737 -1.41684,-11.33475 0,-2.3614 -0.47228,-5.19509 -0.47228,-2.83368 -0.47228,-5.66737 -10.86247,-2.36141 -25.97546,0 -15.11299,2.36141 -25.97546,6.61193 0,1.88913 -0.94456,4.72282 -0.47228,2.3614 -1.41684,5.19509 -1.41685,5.19509 -2.36141,10.39018 -0.94456,5.19509 0.94456,8.97334 8.02878,1.88912 16.05756,1.41684 8.50106,-0.47228 17.4744,-1.41684 5.66737,-0.94456 11.33474,-1.41684 6.13966,-0.47228 11.80703,-0.47228 z"
         id="path4761"
         style="font-size:472.281px;font-family:'Yuji Mai';-inkscape-font-specification:'Yuji Mai';stroke-width:21.1667"
         inkscape:label="path4696" />
    </clipPath>
    <filter
       inkscape:menu-tooltip="In and out glow with a possible offset and colorizable flood"
       inkscape:menu="Shadows and Glows"
       inkscape:label="Cutout Glow"
       style="color-interpolation-filters:sRGB;"
       id="filter5625"
       x="-0.052210256"
       y="-0.018111787"
       width="1.0740657"
       height="1.0613788">
      <feOffset
         dy="10"
         dx="-10"
         id="feOffset5615" />
      <feGaussianBlur
         stdDeviation="3"
         result="blur"
         id="feGaussianBlur5617" />
      <feFlood
         flood-color="rgb(0,0,0)"
         flood-opacity="0"
         result="flood"
         id="feFlood5619" />
      <feComposite
         in="flood"
         in2="SourceGraphic"
         operator="in"
         result="composite"
         id="feComposite5621" />
      <feBlend
         in="blur"
         in2="composite"
         mode="normal"
         id="feBlend5623" />
    </filter>
    <clipPath
       clipPathUnits="userSpaceOnUse"
       id="clipPath6426">
      <path
         id="path6428"
         d="m 830.90242,996.70622 c 0.0132,-5.69293 -4.60618,-10.31242 -10.29909,-10.29911 H 678.88076 V 881.37479 h 22.22086 c 1.998,-3.571 1.998,-9.31711 0,-12.88808 l -22.22086,-39.71334 v -10.73319 c 0.0132,-5.77278 -4.66585,-10.45656 -10.43866,-10.44381 h -7.04349 c -5.77432,-0.0132 -10.46062,4.66955 -10.4489,10.44381 v 10.74354 l -22.2157,39.70299 c -1.998,3.57097 -1.998,9.31708 0,12.88808 h 22.2157 v 105.03232 h -139.1853 c -5.69301,-0.0132 -10.3121,4.60618 -10.29911,10.29911 v 6.94528 c -0.0132,5.6929 4.6061,10.3073 10.29911,10.294 h 139.1853 v 6.382 111.0216 h -22.2157 c -1.998,3.571 -1.998,9.3233 0,12.8933 l 22.2157,39.6926 v 10.7435 c -0.0132,5.7751 4.67379,10.4607 10.4489,10.449 h 7.04349 c 5.77432,0.013 10.45308,-4.6747 10.43866,-10.449 v -10.7332 l 22.22086,-39.7029 c 1.998,-3.571 1.998,-9.3233 0,-12.8933 h -22.22086 v -111.0216 -6.382 h 141.72257 c 5.69291,0.013 10.3124,-4.6011 10.29909,-10.294 z m -165.97943,9.65318 v 0.016 h -0.0159 v -0.016 z"
         style="stroke-width:1" />
    </clipPath>
    <filter
       inkscape:menu-tooltip="In and out glow with a possible offset and colorizable flood"
       inkscape:menu="Shadows and Glows"
       inkscape:label="Cutout Glow"
       style="color-interpolation-filters:sRGB;"
       id="filter2783"
       x="-0.043267047"
       y="-0.021855457"
       width="1.0613788"
       height="1.0740657">
      <feOffset
         dy="10"
         dx="-10"
         id="feOffset2773" />
      <feGaussianBlur
         stdDeviation="3"
         result="blur"
         id="feGaussianBlur2775" />
      <feFlood
         flood-color="rgb(0,0,0)"
         flood-opacity="0"
         result="flood"
         id="feFlood2777" />
      <feComposite
         in="flood"
         in2="SourceGraphic"
         operator="in"
         result="composite"
         id="feComposite2779" />
      <feBlend
         in="blur"
         in2="composite"
         mode="normal"
         id="feBlend2781" />
    </filter>
    <clipPath
       clipPathUnits="userSpaceOnUse"
       id="clipPath2785">
      <path
         id="path2787"
         style="fill:#370000;fill-opacity:1;stroke-width:1"
         d="M 651.62787,967.4675 543.82385,859.66344 c -4.01774,-4.03323 -10.54824,-4.03323 -14.56599,0 l -4.91,4.91 c -4.0349,4.01902 -4.0349,10.552 0,14.57102 l 121.57001,121.57004 -121.57001,121.5699 c -4.03323,4.0178 -4.03323,10.5482 0,14.566 l 4.91,4.909 c 4.01775,4.0332 10.54825,4.0332 14.56599,0 l 121.57002,-121.575 121.57493,121.575 c 4.0178,4.0332 10.5483,4.0332 14.56602,0 l 4.90998,-4.909 c 4.0333,-4.0178 4.0333,-10.5482 0,-14.566 L 684.87486,1000.7145 806.4448,879.14446 c 4.03492,-4.01902 4.03492,-10.552 0,-14.57102 l -4.90998,-4.91 c -4.01772,-4.03323 -10.54822,-4.03323 -14.56602,0 L 679.16585,967.4625 664.59022,981.37238 Z m 13.767,33.242 h 0.0106 l -0.0106,0.011 -0.005,-0.011 z m 2.5581,165.2679 c 5.69293,0.013 10.31242,-4.6062 10.29911,-10.2991 v -141.7226 h 105.03229 v 22.2209 c 3.571,1.998 9.31712,1.998 12.88812,0 l 39.7133,-22.2209 h 10.73319 c 5.77281,0.013 10.45657,-4.6658 10.44382,-10.4386 v -7.04347 c 0.0132,-5.77435 -4.66953,-10.46064 -10.44382,-10.44895 H 835.87547 L 796.17249,963.809 c -3.571,-1.998 -9.31712,-1.998 -12.88812,0 v 22.21568 H 678.25208 v -139.1853 c 0.0132,-5.69299 -4.60618,-10.31208 -10.29911,-10.29909 h -6.94528 c -5.69291,-0.0132 -10.30732,4.6061 -10.29401,10.29909 v 139.1853 H 644.33169 533.31008 V 963.809 c -3.571,-1.998 -9.3233,-1.998 -12.89329,0 l -39.69262,22.21568 h -10.74348 c -5.77511,-0.0132 -10.46072,4.67381 -10.449,10.44895 v 7.04347 c -0.0132,5.7743 4.67468,10.453 10.449,10.4386 h 10.73319 l 39.70291,22.2209 c 3.571,1.998 9.3233,1.998 12.89329,0 v -22.2209 h 111.02161 6.38199 v 141.7226 c -0.0132,5.6929 4.6011,10.3124 10.29401,10.2991 z m -9.65319,-165.97939 h -0.0159 v -0.0159 h 0.0159 z" />
    </clipPath>
    <filter
       inkscape:menu-tooltip="In and out glow with a possible offset and colorizable flood"
       inkscape:menu="Shadows and Glows"
       inkscape:label="Cutout Glow"
       style="color-interpolation-filters:sRGB;"
       id="filter2835"
       x="-0.036898678"
       y="-0.016811707"
       width="1.0523446"
       height="1.056973">
      <feOffset
         dy="10"
         dx="-10"
         id="feOffset2825" />
      <feGaussianBlur
         stdDeviation="3"
         result="blur"
         id="feGaussianBlur2827" />
      <feFlood
         flood-color="rgb(0,0,0)"
         flood-opacity="0"
         result="flood"
         id="feFlood2829" />
      <feComposite
         in="flood"
         in2="SourceGraphic"
         operator="in"
         result="composite"
         id="feComposite2831" />
      <feBlend
         in="blur"
         in2="composite"
         mode="normal"
         id="feBlend2833" />
    </filter>
    <clipPath
       clipPathUnits="userSpaceOnUse"
       id="clipPath2922">
      <path
         d="m 889.9098,532.76367 q 0,1.41684 -0.94459,3.77825 -0.47228,0.94456 -0.94454,2.3614 0,1.41684 0.47226,3.30597 -14.64069,0.94456 -29.75368,0.47228 -14.64072,-0.47228 -29.75371,-0.94456 -21.72493,-0.94456 -43.44986,-0.94456 -21.72492,-0.47229 -43.44985,3.30596 0.94456,4.25053 2.3614,8.02878 1.88913,3.30597 2.36141,7.5565 3.77825,0.94456 7.55649,0.94456 4.25053,-0.47228 8.97334,-0.47228 3.77825,-0.47228 8.02878,-0.47228 4.25053,-0.47228 8.97334,0 2.36141,-5.19509 5.66738,-6.13966 3.77824,-0.94456 7.55649,-0.47228 2.36141,0 4.72281,0 2.36141,-0.47228 4.72281,-1.41684 14.16843,4.25053 27.3923,7.5565 13.69615,3.30596 23.61406,9.44562 9.9179,6.13965 13.22387,18.89124 -15.113,1.41684 -22.66949,10.39018 -7.5565,8.97334 -10.86247,22.19721 -2.83368,13.22387 -4.72281,27.86458 -1.41684,14.64072 -4.72281,28.33687 -3.30597,13.22387 -11.80703,22.66949 -2.83368,1.41684 -2.83368,-1.88913 0,-2.83368 -1.88913,-2.83368 -2.3614,3.30597 -8.97334,3.30597 -6.61193,-0.47229 -12.75158,-0.94457 -2.83369,-0.47228 -5.1951,-0.47228 -2.3614,-0.47228 -3.77824,-0.47228 17.00211,10.39018 34.94879,25.97546 18.41896,15.11299 30.69827,34.47649 12.27931,19.36352 10.86247,42.97758 -2.83369,-1.88913 -4.72281,-1.41685 -1.88913,0.94456 -3.77825,2.36141 -0.94457,0.94456 -2.36141,1.41684 -0.94456,0.94456 -2.83368,0.94456 -9.91791,0 -17.4744,-7.08421 -7.5565,-7.08422 -13.69615,-16.05756 -5.66738,-8.97334 -11.80703,-14.64071 -3.30597,-14.64069 -10.39018,-25.50315 -7.08422,-11.33475 -14.16844,-21.72493 -7.08421,-10.39018 -11.80702,-21.72493 -7.5565,0 -17.00212,0.94456 -9.44562,0.47228 -19.36352,1.88913 -5.19509,0.47228 -10.39019,0.94456 -4.72281,0.47228 -9.44562,0.94456 1.41685,5.19507 4.72281,8.02878 3.77825,2.83369 4.25053,9.44562 -8.50106,5.66735 -15.58527,14.16843 -6.61194,8.50106 -13.22387,17.4744 -7.5565,10.39016 -16.05756,19.83578 -8.02875,9.44562 -18.89124,15.11299 -10.86244,5.66738 -25.97543,3.77825 0.47228,-1.88912 -0.47228,-2.83369 -0.94456,-0.94456 -1.88915,-1.88912 -2.36138,-1.41684 -2.36138,-3.30597 13.69615,-13.69615 27.3923,-26.44771 14.16843,-12.75159 24.55859,-29.75373 -2.83369,-3.77822 -8.02878,-5.19507 -4.72281,-1.88912 -7.55647,-5.66737 1.41684,-4.25053 4.2505,-7.08422 3.30597,-3.30596 9.44562,-2.3614 -6.13965,-1.88913 -11.80702,-6.61194 -5.66735,-5.19509 -10.86244,-10.86246 -0.47228,-6.61193 -0.47228,-12.75159 0,-6.61193 0,-12.75159 0,-24.55861 -2.83369,-45.33898 -2.83371,-20.78036 -19.36352,-32.11511 1.41684,-0.47228 0.94456,-1.88912 0,-1.41685 -0.94456,-1.41685 13.22387,-8.02877 28.80912,-10.39018 16.05755,-2.36141 32.11511,-3.77825 16.05755,-1.41684 30.22599,-6.13965 -0.47228,-1.41685 -2.36141,-4.25053 -0.94456,-1.41685 -1.88912,-3.77825 -0.94457,-2.36141 -0.47228,-6.13965 -20.78037,0.94456 -35.89334,4.72281 -14.64074,3.77824 -31.17055,10.86246 -13.22387,-2.83369 -25.50317,-9.44562 -11.80703,-6.61194 -18.41897,-18.89124 0.94457,0 0.94457,-0.94456 0,-0.94457 0.47228,-1.88913 8.50106,0.47228 17.4744,-0.47228 9.44562,-1.41684 19.36352,-3.30597 8.97334,-1.41684 18.41896,-2.3614 9.44562,-1.41685 19.3635,-1.88913 V 484.591 q -15.58528,3.77825 -25.50318,-2.36138 -9.44562,-6.13965 -19.36352,-15.58527 -1.41682,-1.41687 -2.36138,-2.36141 -1.41687,-2.3614 -0.47228,-3.77825 0.94456,-1.88912 1.88912,-3.30596 0.94454,-0.94459 0.94454,-1.41685 0,-0.94456 -2.36138,-0.94456 3.77825,-2.36141 9.44562,-2.36141 5.66737,0 12.27928,0.47229 6.13968,0 11.80703,0.47228 6.13965,0 10.86246,-1.88913 0.94456,-10.39018 -3.77825,-17.00212 -4.25053,-7.08421 -9.44562,-13.22386 -4.72281,-5.1951 -8.97334,-10.86247 -3.77822,-5.66737 -3.77822,-13.69615 26.44771,-3.30597 42.03299,9.44562 16.05755,12.75159 14.16843,39.19933 13.69615,2.83369 32.58739,0.94456 18.89124,-1.88912 34.47652,-5.66737 2.83368,-19.83581 -2.36141,-31.64283 -4.72281,-12.27931 -10.86246,-22.66949 -1.88913,-2.83369 -3.77825,-5.66738 -1.41684,-2.83368 -2.83369,-6.13965 10.86247,-1.41684 23.14178,2.36141 12.2793,3.77824 21.72492,12.2793 9.91791,8.02878 13.22387,19.83581 3.30597,11.80702 -3.30596,25.50317 9.9179,2.36141 20.78036,5.66738 11.33475,3.30596 20.30809,9.44562 8.97334,6.13965 12.27931,17.4744 -5.66738,2.83366 -16.52984,2.83366 -10.86247,0 -22.19721,0 -10.86247,0 -17.4744,3.30599 -3.30597,10.39016 -8.02878,22.19721 -4.25053,11.807 -4.25053,18.89124 0.94456,1.8891 3.30597,1.8891 2.36141,0 5.19509,-0.47228 1.88913,0 3.30597,0 1.88912,-0.47228 3.30597,0 11.80702,-7.08419 24.08633,-6.13963 12.75159,0.94454 24.55861,6.13963 12.27931,4.72281 22.6695,10.39018 3.77822,1.88913 7.08421,3.77825 3.77825,1.41684 7.08422,2.83369 z M 633.93349,506.31593 q -3.77827,7.55652 -11.80702,10.86246 -8.02878,3.30597 -17.00212,5.19509 -8.97334,1.88913 -17.00212,5.66738 -2.83369,7.55649 -2.36141,17.00211 0.47229,8.97334 1.88913,17.4744 0.47228,3.30597 0.47228,4.72281 2.36141,2.83369 5.19509,5.66738 3.30597,2.83368 6.13966,5.66737 10.39018,10.39018 19.8358,22.19721 9.44562,11.33474 7.08419,25.97546 -9.44562,0.94456 -17.47437,-3.30597 -8.02878,-4.72281 -15.58528,-9.9179 -2.83368,-1.88913 -5.66737,-3.77825 -2.83369,-1.88912 -5.66737,-3.30597 -1.41685,12.75159 -1.41685,24.08634 0.47228,11.33474 0.94457,23.14177 0,1.88912 0,3.77825 0.47228,1.88912 0.47228,3.77824 0.47228,8.02878 1.41684,16.52984 0.94456,8.02878 1.88912,16.52984 1.88913,17.94668 2.83369,35.89336 1.41684,17.94668 -1.41684,33.53195 -2.36141,16.05753 -12.27931,27.86456 -4.72281,-0.94454 -7.5565,-1.88913 -2.3614,-0.47228 -8.97334,-1.41684 -11.80702,-14.16843 -25.03089,-25.03087 -13.22387,-10.39018 -24.55862,-22.19721 -11.33474,-12.27933 -18.89124,-31.17055 25.97546,16.52984 60.92426,22.19721 1.88912,0.47226 2.3614,-2.3614 0.47228,-2.36141 1.88913,-2.36141 0,-15.58527 0,-27.86458 0,-12.27931 0.47228,-22.66949 0,-17.4744 0,-34.00424 0,-16.52983 -0.47228,-41.08845 -23.14178,17.4744 -42.97758,41.08845 -19.8358,23.61406 -33.05967,42.03302 -12.75159,4.25053 -19.36353,11.33474 -6.13965,6.61194 -12.75159,12.27931 -6.13965,0 -11.33474,-1.41684 -5.19509,-1.41687 -9.91788,-3.30597 -0.94459,-1.88913 -0.94459,-3.30597 0,-1.41684 0.47229,-2.83368 0.4723,-2.36141 -0.94457,-4.72282 22.66949,-12.2793 36.36564,-29.28142 13.69616,-17.00212 30.69827,-34.9488 0,-3.30597 -2.83368,-1.41684 8.50106,-13.22387 19.36352,-26.92002 11.33475,-13.69615 21.72493,-28.33686 10.39018,-15.113 16.52984,-32.5874 -7.5565,-2.3614 -18.89125,0 -10.86246,2.36141 -19.36352,6.13966 -8.97334,3.77824 -15.11299,2.3614 -5.66738,-1.88912 -12.27931,-5.66737 -1.88913,-0.94456 -4.25053,-2.36141 -2.36141,-1.41684 -4.72281,-2.3614 -2.36141,-7.5565 -9.9179,-16.05756 -7.5565,-8.97334 -8.50106,-21.25262 0.47228,-1.41687 0.94456,-0.94456 0.94456,0 0.94456,0.94456 1.88913,1.8891 2.83369,1.41682 1.41684,-0.94454 2.83368,-1.8891 0.94457,-1.41687 2.36141,-2.36143 1.41684,-0.94454 3.77825,-0.47228 8.97334,4.72281 23.14177,7.55652 14.64071,2.83366 30.69827,2.36138 16.52984,-0.94456 30.22599,-6.61191 1.88912,0.47228 2.3614,-2.36143 0.47228,-2.36138 1.88913,-2.36138 -1.88913,-14.64071 -2.83369,-29.75373 -0.47228,-15.11297 -4.72281,-26.92 -3.30597,-9.44562 -9.9179,-16.52983 -6.61194,-7.5565 -12.27931,-15.58528 -5.19509,-8.02878 -6.61194,-19.36352 4.25053,0.47228 3.77825,0.94456 0,0 -0.94456,-4.25053 4.72281,0.94456 9.9179,0.94456 5.19509,0 9.9179,-2.3614 0.47229,0.47228 1.88913,0.94456 13.22387,6.61194 26.44774,15.11299 13.22387,8.02878 20.30808,20.30809 7.08422,12.27931 1.88913,31.17055 -0.47228,1.8891 1.41684,2.83369 1.41684,0.94456 1.41684,1.88912 -2.3614,3.77825 -2.3614,7.08422 0,3.30594 0.47228,7.08421 0.47228,2.83369 0.94456,6.13963 0.47228,2.83371 -0.47228,6.13968 11.80703,4.72281 21.72493,10.39018 10.39018,5.19507 19.36352,14.64069 z m 160.10325,84.53831 q -0.94456,-8.02878 -8.50106,-10.39019 -7.55649,-2.3614 -17.94668,-1.88912 -9.9179,0 -19.36352,1.41684 -3.30597,7.5565 -4.72281,15.58528 -0.94456,8.02878 0,17.4744 7.5565,-0.47228 17.00212,1.88912 9.44562,2.36141 17.00212,6.61194 7.55649,3.77824 8.97334,9.9179 -10.39019,4.72281 -21.72493,4.72281 -10.86247,-0.47228 -22.66949,1.88912 -2.36141,10.39019 -3.77825,20.30809 -0.94456,9.9179 2.3614,18.89124 5.1951,0.94456 9.91791,0.47228 5.19509,-0.94456 9.9179,-1.41684 5.66737,-1.41685 10.39018,-1.41685 5.19509,-0.47228 9.44562,2.36141 3.77825,-5.66737 6.61194,-16.52984 3.30596,-11.33474 5.19509,-24.55861 1.88912,-13.22387 2.3614,-25.0309 0.47229,-12.2793 -0.47228,-20.30808 z m -27.3923,-115.70886 q -8.02878,-0.94456 -17.00212,0 -8.50105,0.94459 -17.00211,1.88915 -7.08422,0.94456 -14.16844,1.8891 -7.08421,0.94456 -14.16843,0.94456 -0.47228,9.44562 -1.41684,17.4744 -0.47228,8.0288 -0.47228,21.72493 17.94668,-0.47226 31.17055,-0.94454 13.69615,-0.47231 28.33686,-0.94459 2.36141,-9.44562 3.77825,-21.25262 1.88912,-12.27933 0.94456,-20.78039 z m -50.53407,202.13629 q -0.94456,-7.08422 -0.94456,-11.80703 0,-5.19509 0.47228,-9.44562 0,-4.25053 0,-8.02878 0,-3.77824 -0.94456,-8.50105 -6.61194,0.94456 -13.22387,0.94456 -6.61194,0 -12.27931,0 -4.25053,0 -8.50106,0 -3.77825,0 -7.08422,0.47228 0,3.77825 0,8.97334 0,4.72281 0,9.44562 0,4.25053 0,8.02878 0,3.30597 0,5.19509 0.94459,-1.88912 2.83369,1.88912 0.47228,1.41685 1.41684,2.83369 0.94459,1.41684 1.88913,1.41684 3.30597,-0.94456 7.08421,-0.94456 4.25053,0 9.44563,0 4.72281,0 9.44562,0 5.19509,0 10.39018,-0.47228 z m 0,-93.98393 q -11.80703,0.47228 -22.66949,2.36141 -10.39018,1.88912 -18.41896,6.61193 -1.41685,3.77825 -1.41685,7.5565 0.47231,3.30596 0.94459,7.08421 0,2.83369 0.47226,6.13966 0.47228,2.83368 0,6.13965 12.27931,1.88912 22.19721,1.88912 10.39018,-0.47228 17.4744,-3.77824 0.94456,-7.5565 0.94456,-15.58528 0,-8.02878 0.47228,-18.41896 z"
         id="path2924"
         style="font-size:472.281px;font-family:'Yuji Mai';-inkscape-font-specification:'Yuji Mai';fill:#980000;stroke-width:21.1667" />
    </clipPath>
    <filter
       id="K-4"
       x="-0.21468687"
       y="-0.32268743"
       width="1.4293737"
       height="1.6453749"
       class="B">
      <feGaussianBlur
         stdDeviation="1.688"
         id="feGaussianBlur345-1" />
    </filter>
    <filter
       id="J-3"
       x="-0.29422404"
       y="-0.54109355"
       width="1.5884481"
       height="2.0821871"
       class="B">
      <feGaussianBlur
         stdDeviation="1.688"
         id="feGaussianBlur342-9" />
    </filter>
    <filter
       id="K-4-9"
       x="-0.21468687"
       y="-0.32268743"
       width="1.4293737"
       height="1.6453749"
       class="B">
      <feGaussianBlur
         stdDeviation="1.688"
         id="feGaussianBlur345-1-0" />
    </filter>
    <filter
       id="J-37"
       x="-0.29422404"
       y="-0.54109355"
       width="1.5884481"
       height="2.0821871"
       class="B">
      <feGaussianBlur
         stdDeviation="1.688"
         id="feGaussianBlur342-3" />
    </filter>
  </defs>
  <path
     d="m-2745.657 265.144 28.198 35.189h489.331l10.087-9.413-110.95-494.045-31.462-17.601z"
     transform="matrix(-2.0051 0 0 2.0051 -4364.078 816.662)"
     opacity=".5"
     filter="url(#C)"
     id="path375" />
  <path
     d="m-1215.57-304.058-153.963 48.25-92.727 473.093 6.639 36.814 10.024 8.338h460.053l10.024-8.338 6.639-36.814-92.727-473.093z"
     fill="url(#A)"
     transform="translate(3097.382 831.934) scale(2.0051)"
     id="path377" />
  <path
     d="m-899.905-344.262-153.963 48.25-92.727 473.093 6.639 36.814 10.024 8.338h460.054l10.024-8.338 6.639-36.814-92.727-473.093z"
     opacity=".25"
     fill="url(#B)"
     transform="translate(2464.43 912.55) scale(2.0051)"
     style="mix-blend-mode:overlay"
     id="path379" />
  <path
     d="m1133.938 1262.57-.043 21.064 20.75-16.013-20.707-5.052z"
     opacity=".8"
     fill="#fff"
     id="path381" />
  <path
     d="m1154.645 1267.622-20.75 16.013-12.661 74.524 20.099-16.719 13.312-73.818z"
     opacity=".6"
     id="path383" />
  <g
     fill="#fff"
     id="g389">
    <path
       d="m351.284 319.007 17.664 13.248L660 238.66v-16.402zM968.716 319.007l-17.664 13.248L660 238.66v-16.402z"
       opacity=".3"
       id="path385" />
    <path
       d="m968.716 319.007-17.664 13.248 182.886 930.315 20.707 5.052z"
       opacity=".3"
       id="path387" />
  </g>
  <path
     d="m351.284 319.007 17.664 13.248-182.886 930.315-20.707 5.052z"
     opacity=".4"
     id="path391" />
  <path
     d="m165.355 1267.622 20.75 16.013 12.661 74.524-20.099-16.719-13.312-73.818z"
     opacity=".9"
     id="path393" />
  <path
     d="m186.062 1262.57.043 21.064-20.75-16.013 20.707-5.052z"
     opacity=".6"
     id="path395" />
  <path
     d="M186.062 1262.57h947.876l-.043 21.064h-947.79l-.043-21.064z"
     opacity=".2"
     id="path397" />
  <path
     d="m1133.895 1283.634-12.661 74.524H198.765l-12.66-74.524h947.791z"
     opacity=".7"
     id="path399" />
  <path
     id="path368-4"
     style="fill:#370000;fill-opacity:1;stroke-width:1"
     d="M 651.62787,967.46748 543.82386,859.66344 c -4.01775,-4.03323 -10.54824,-4.03323 -14.56599,0 l -4.91001,4.90998 c -4.03489,4.01902 -4.03489,10.552 0,14.57102 l 121.57002,121.57006 -121.57002,121.5699 c -4.03322,4.0178 -4.03322,10.5482 0,14.566 l 4.91001,4.909 c 4.01775,4.0332 10.54824,4.0332 14.56599,0 l 121.57001,-121.575 121.57495,121.575 c 4.0178,4.0332 10.5483,4.0332 14.566,0 l 4.91,-4.909 c 4.0333,-4.0178 4.0333,-10.5482 0,-14.566 L 684.87487,1000.7145 806.44482,879.14444 c 4.0349,-4.01902 4.0349,-10.552 0,-14.57102 l -4.91,-4.90998 c -4.0177,-4.03323 -10.5482,-4.03323 -14.566,0 l -107.80297,107.79904 -14.57562,13.9099 z m 13.76701,33.24202 h 0.0106 l -0.0106,0.011 -0.005,-0.011 z m 2.5581,165.2679 c 5.69293,0.013 10.31242,-4.6062 10.29911,-10.2991 v -141.7226 h 105.0323 v 22.2209 c 3.571,1.998 9.31711,1.998 12.8881,0 l 39.71332,-22.2209 H 846.619 c 5.77279,0.013 10.45657,-4.6658 10.44381,-10.4386 v -7.04349 c 0.0144,-5.77433 -4.66953,-10.46063 -10.44381,-10.44893 h -10.74352 l -39.70299,-22.2157 c -3.57099,-1.998 -9.3171,-1.998 -12.8881,0 v 22.2157 h -105.0323 v -139.1853 c 0.0133,-5.693 -4.60618,-10.3121 -10.29911,-10.2991 h -6.94529 c -5.6929,-0.0133 -10.3073,4.6061 -10.294,10.2991 v 139.1853 h -6.382 -111.0216 v -22.2157 c -3.571,-1.998 -9.3233,-1.998 -12.8933,0 l -39.6926,22.2157 h -10.7435 c -5.7751,-0.012 -10.4607,4.6738 -10.449,10.44893 v 7.04349 c -0.012,5.7743 4.6747,10.453 10.449,10.4386 h 10.7332 l 39.7029,22.2209 c 3.571,1.998 9.3233,1.998 12.8933,0 v -22.2209 h 111.0216 6.382 v 141.7226 c -0.013,5.6929 4.6011,10.3124 10.294,10.2991 z m -9.65319,-165.97939 h -0.015 v -0.015 h 0.015 z" />
  <path
     id="path368-4-7"
     style="fill:#980000;fill-opacity:1;stroke-width:1;filter:url(#filter2783)"
     d="M 651.62786,967.46749 543.82385,859.66345 c -4.01775,-4.03323 -10.54824,-4.03323 -14.56599,0 l -4.91001,4.90998 c -4.03489,4.01902 -4.03489,10.552 0,14.57102 l 121.57002,121.57005 -121.57002,121.5699 c -4.03322,4.0178 -4.03322,10.5482 0,14.566 l 4.91001,4.909 c 4.01775,4.0332 10.54824,4.0332 14.56599,0 l 121.57001,-121.575 121.57495,121.575 c 4.0178,4.0332 10.5483,4.0332 14.566,0 l 4.91,-4.909 c 4.0333,-4.0178 4.0333,-10.5482 0,-14.566 L 684.87486,1000.7145 806.44481,879.14445 c 4.0349,-4.01902 4.0349,-10.552 0,-14.57102 l -4.91,-4.90998 c -4.0177,-4.03323 -10.5482,-4.03323 -14.566,0 l -107.80297,107.79904 -14.57562,13.9099 z m 13.76701,33.24201 h 0.0106 l -0.0106,0.011 -0.005,-0.011 z m 2.5581,165.2679 c 5.69293,0.013 10.31242,-4.6062 10.29911,-10.2991 v -141.7226 h 105.0323 v 22.2209 c 3.571,1.998 9.31711,1.998 12.8881,0 l 39.71332,-22.2209 h 10.73319 c 5.77279,0.013 10.45657,-4.6658 10.44381,-10.4386 v -7.04348 c 0.0144,-5.77433 -4.66953,-10.46063 -10.44381,-10.44893 h -10.74352 l -39.70299,-22.2157 c -3.57099,-1.998 -9.3171,-1.998 -12.8881,0 v 22.2157 h -105.0323 v -139.1853 c 0.0133,-5.693 -4.60618,-10.3121 -10.29911,-10.2991 h -6.94529 c -5.6929,-0.0133 -10.3073,4.6061 -10.294,10.2991 v 139.1853 h -6.382 -111.0216 v -22.2157 c -3.571,-1.998 -9.3233,-1.998 -12.8933,0 l -39.6926,22.2157 h -10.7435 c -5.7751,-0.012 -10.4607,4.6738 -10.449,10.44893 v 7.04348 c -0.012,5.7743 4.6747,10.453 10.449,10.4386 h 10.7332 l 39.7029,22.2209 c 3.571,1.998 9.3233,1.998 12.8933,0 v -22.2209 h 111.0216 6.382 v 141.7226 c -0.013,5.6929 4.6011,10.3124 10.294,10.2991 z m -9.65319,-165.97938 h -0.015 v -0.015 h 0.015 z"
     clip-path="url(#clipPath2785)" />
  <path
     d="m 889.90979,532.76368 q 0,1.41684 -0.94457,3.77824 -0.47228,0.94457 -0.94456,2.36141 0,1.41684 0.47228,3.30597 -14.64071,0.94456 -29.7537,0.47228 -14.64071,-0.47228 -29.7537,-0.94456 -21.72493,-0.94457 -43.44986,-0.94457 -21.72492,-0.47228 -43.44985,3.30597 0.94456,4.25053 2.36141,8.02878 1.88912,3.30596 2.3614,7.55649 3.77825,0.94457 7.5565,0.94457 4.25053,-0.47229 8.97334,-0.47229 3.77824,-0.47228 8.02877,-0.47228 4.25053,-0.47228 8.97334,0 2.36141,-5.19509 5.66737,-6.13965 3.77825,-0.94456 7.5565,-0.47228 2.36141,0 4.72281,0 2.36141,-0.47228 4.72281,-1.41684 14.16843,4.25053 27.3923,7.55649 13.69615,3.30597 23.61405,9.44562 9.9179,6.13966 13.22387,18.89124 -15.113,1.41685 -22.66949,10.39019 -7.5565,8.97333 -10.86246,22.1972 -2.83369,13.22387 -4.72281,27.86458 -1.41685,14.64071 -4.72281,28.33686 -3.30597,13.22387 -11.80703,22.66949 -2.83369,1.41684 -2.83369,-1.88912 0,-2.83369 -1.88912,-2.83369 -2.3614,3.30597 -8.97334,3.30597 -6.61193,-0.47228 -12.75159,-0.94456 -2.83368,-0.47229 -5.19509,-0.47229 -2.3614,-0.47228 -3.77825,-0.47228 17.00212,10.39019 34.9488,25.97546 18.41896,15.11299 30.69826,34.47651 12.27931,19.36352 10.86247,42.97757 -2.83369,-1.88912 -4.72281,-1.41684 -1.88913,0.94456 -3.77825,2.36141 -0.94456,0.94456 -2.36141,1.41684 -0.94456,0.94456 -2.83368,0.94456 -9.9179,0 -17.4744,-7.08421 -7.55649,-7.08422 -13.69615,-16.05756 -5.66737,-8.97334 -11.80702,-14.64071 -3.30597,-14.64071 -10.39018,-25.50317 -7.08422,-11.33475 -14.16844,-21.72493 -7.08421,-10.39018 -11.80702,-21.72493 -7.5565,0 -17.00212,0.94457 -9.44562,0.47228 -19.36352,1.88912 -5.19509,0.47228 -10.39018,0.94456 -4.72281,0.47228 -9.44562,0.94456 1.41684,5.19509 4.72281,8.02878 3.77825,2.83369 4.25053,9.44562 -8.50106,5.66737 -15.58527,14.16843 -6.61194,8.50106 -13.22387,17.4744 -7.5565,10.39018 -16.05756,19.8358 -8.02877,9.44562 -18.89124,15.11299 -10.86246,5.66737 -25.97545,3.77825 0.47228,-1.88912 -0.47228,-2.83369 -0.94456,-0.94456 -1.88913,-1.88912 -2.3614,-1.41684 -2.3614,-3.30597 13.69615,-13.69615 27.3923,-26.44773 14.16843,-12.75159 24.55861,-29.75371 -2.83369,-3.77824 -8.02878,-5.19509 -4.72281,-1.88912 -7.55649,-5.66737 1.41684,-4.25053 4.25052,-7.08421 3.30597,-3.30597 9.44562,-2.36141 -6.13965,-1.88912 -11.80702,-6.61193 -5.66737,-5.19509 -10.86246,-10.86247 -0.47228,-6.61193 -0.47228,-12.75158 0,-6.61194 0,-12.75159 0,-24.55861 -2.83369,-45.33898 -2.83369,-20.78036 -19.36352,-32.11511 1.41684,-0.47228 0.94456,-1.88912 0,-1.41684 -0.94456,-1.41684 13.22387,-8.02878 28.80914,-10.39019 16.05755,-2.3614 32.11511,-3.77824 16.05755,-1.41685 30.22598,-6.13966 -0.47228,-1.41684 -2.3614,-4.25053 -0.94456,-1.41684 -1.88913,-3.77824 -0.94456,-2.36141 -0.47228,-6.13966 -20.78036,0.94457 -35.89335,4.72281 -14.64072,3.77825 -31.17055,10.86247 -13.22387,-2.83369 -25.50317,-9.44562 -11.80703,-6.61194 -18.41896,-18.89124 0.94456,0 0.94456,-0.94457 0,-0.94456 0.47228,-1.88912 8.50106,0.47228 17.4744,-0.47228 9.44562,-1.41684 19.36352,-3.30597 8.97334,-1.41684 18.41896,-2.3614 9.44562,-1.41685 19.36352,-1.88913 v -37.3102 q -15.58528,3.77825 -25.50318,-2.3614 -9.44562,-6.13965 -19.36352,-15.58527 -1.41684,-1.41685 -2.3614,-2.36141 -1.41685,-2.3614 -0.47228,-3.77825 0.94456,-1.88912 1.88912,-3.30596 0.94456,-0.94457 0.94456,-1.41685 0,-0.94456 -2.3614,-0.94456 3.77825,-2.3614 9.44562,-2.3614 5.66737,0 12.2793,0.47228 6.13966,0 11.80703,0.47228 6.13965,0 10.86246,-1.88913 0.94456,-10.39018 -3.77825,-17.00211 -4.25053,-7.08422 -9.44562,-13.22387 -4.72281,-5.19509 -8.97334,-10.86246 -3.77824,-5.66738 -3.77824,-13.69615 26.44773,-3.30597 42.03301,9.44562 16.05755,12.75158 14.16843,39.19932 13.69615,2.83369 32.58739,0.94456 18.89124,-1.88912 34.47651,-5.66737 2.83368,-19.8358 -2.36141,-31.64283 -4.72281,-12.2793 -10.86246,-22.66949 -1.88912,-2.83368 -3.77825,-5.66737 -1.41684,-2.83368 -2.83368,-6.13965 10.86246,-1.41684 23.14177,2.3614 12.2793,3.77825 21.72492,12.27931 9.9179,8.02878 13.22387,19.8358 3.30597,11.80703 -3.30597,25.50318 9.9179,2.3614 20.78037,5.66737 11.33474,3.30597 20.30808,9.44562 8.97334,6.13965 12.27931,17.4744 -5.66738,2.83368 -16.52984,2.83368 -10.86246,0 -22.19721,0 -10.86246,0 -17.47439,3.30597 -3.30597,10.39018 -8.02878,22.19721 -4.25053,11.80702 -4.25053,18.89124 0.94456,1.88912 3.30597,1.88912 2.3614,0 5.19509,-0.47228 1.88912,0 3.30597,0 1.88912,-0.47228 3.30596,0 11.80703,-7.08421 24.08633,-6.13965 12.75159,0.94456 24.55862,6.13965 12.2793,4.72281 22.66949,10.39018 3.77824,1.88913 7.08421,3.77825 3.77825,1.41684 7.08422,2.83369 z M 633.93348,506.31594 q -3.77825,7.5565 -11.80702,10.86246 -8.02878,3.30597 -17.00212,5.19509 -8.97334,1.88913 -17.00212,5.66738 -2.83368,7.55649 -2.3614,17.00211 0.47228,8.97334 1.88912,17.4744 0.47228,3.30597 0.47228,4.72281 2.36141,2.83369 5.19509,5.66737 3.30597,2.83369 6.13966,5.66737 10.39018,10.39019 19.8358,22.19721 9.44562,11.33475 7.08421,25.97546 -9.44562,0.94456 -17.47439,-3.30597 -8.02878,-4.72281 -15.58528,-9.9179 -2.83368,-1.88913 -5.66737,-3.77825 -2.83368,-1.88912 -5.66737,-3.30597 -1.41684,12.75159 -1.41684,24.08633 0.47228,11.33475 0.94456,23.14177 0,1.88913 0,3.77825 0.47228,1.88913 0.47228,3.77825 0.47228,8.02878 1.41684,16.52984 0.94456,8.02877 1.88913,16.52983 1.88912,17.94668 2.83368,35.89336 1.41685,17.94668 -1.41684,33.53195 -2.36141,16.05755 -12.27931,27.86458 -4.72281,-0.94456 -7.55649,-1.88913 -2.36141,-0.47228 -8.97334,-1.41684 -11.80703,-14.16843 -25.0309,-25.03089 -13.22386,-10.39018 -24.55861,-22.19721 -11.33474,-12.27931 -18.89124,-31.17055 25.97546,16.52984 60.92425,22.19721 1.88913,0.47228 2.36141,-2.3614 0.47228,-2.36141 1.88912,-2.36141 0,-15.58527 0,-27.86458 0,-12.2793 0.47228,-22.66949 0,-17.47439 0,-34.00423 0,-16.52983 -0.47228,-41.08845 -23.14177,17.4744 -42.97757,41.08845 -19.8358,23.61405 -33.05967,42.03301 -12.75159,4.25053 -19.36352,11.33474 -6.13966,6.61194 -12.75159,12.27931 -6.13965,0 -11.33474,-1.41684 -5.19509,-1.41685 -9.9179,-3.30597 -0.94457,-1.88912 -0.94457,-3.30597 0,-1.41684 0.47228,-2.83368 0.47229,-2.36141 -0.94456,-4.72281 22.66949,-12.27931 36.36564,-29.28142 13.69615,-17.00212 30.69827,-34.9488 0,-3.30597 -2.83369,-1.41684 8.50106,-13.22387 19.36352,-26.92002 11.33474,-13.69615 21.72493,-28.33686 10.39018,-15.11299 16.52983,-32.58739 -7.55649,-2.3614 -18.89124,0 -10.86246,2.36141 -19.36352,6.13965 -8.97334,3.77825 -15.11299,2.36141 -5.66737,-1.88913 -12.27931,-5.66737 -1.88912,-0.94457 -4.25053,-2.36141 -2.3614,-1.41684 -4.72281,-2.3614 -2.3614,-7.5565 -9.9179,-16.05756 -7.55649,-8.97334 -8.50106,-21.25264 0.47228,-1.41685 0.94457,-0.94456 0.94456,0 0.94456,0.94456 1.88912,1.88912 2.83368,1.41684 1.41685,-0.94456 2.83369,-1.88912 0.94456,-1.41685 2.36141,-2.36141 1.41684,-0.94456 3.77824,-0.47228 8.97334,4.72281 23.14177,7.5565 14.64071,2.83368 30.69827,2.3614 16.52983,-0.94456 30.22598,-6.61193 1.88913,0.47228 2.36141,-2.36141 0.47228,-2.3614 1.88912,-2.3614 -1.88912,-14.64071 -2.83368,-29.75371 -0.47229,-15.11299 -4.72281,-26.92001 -3.30597,-9.44562 -9.91791,-16.52984 -6.61193,-7.55649 -12.2793,-15.58527 -5.19509,-8.02878 -6.61194,-19.36352 4.25053,0.47228 3.77825,0.94456 0,0 -0.94456,-4.25053 4.72281,0.94456 9.9179,0.94456 5.19509,0 9.9179,-2.3614 0.47228,0.47228 1.88913,0.94456 13.22386,6.61193 26.44773,15.11299 13.22387,8.02878 20.30809,20.30808 7.08421,12.27931 1.88912,31.17055 -0.47228,1.88912 1.41684,2.83369 1.41685,0.94456 1.41685,1.88912 -2.36141,3.77825 -2.36141,7.08422 0,3.30596 0.47228,7.08421 0.47228,2.83369 0.94456,6.13965 0.47228,2.83369 -0.47228,6.13966 11.80703,4.72281 21.72493,10.39018 10.39018,5.19509 19.36352,14.64071 z m 160.10326,84.5383 q -0.94456,-8.02878 -8.50106,-10.39018 -7.55649,-2.36141 -17.94668,-1.88913 -9.9179,0 -19.36352,1.41685 -3.30596,7.55649 -4.72281,15.58527 -0.94456,8.02878 0,17.4744 7.5565,-0.47228 17.00212,1.88912 9.44562,2.36141 17.00212,6.61194 7.55649,3.77824 8.97334,9.9179 -10.39019,4.72281 -21.72493,4.72281 -10.86246,-0.47228 -22.66949,1.88912 -2.3614,10.39018 -3.77825,20.30808 -0.94456,9.91791 2.36141,18.89124 5.19509,0.94457 9.9179,0.47229 5.19509,-0.94457 9.9179,-1.41685 5.66737,-1.41684 10.39018,-1.41684 5.19509,-0.47228 9.44562,2.3614 3.77825,-5.66737 6.61194,-16.52983 3.30596,-11.33475 5.19509,-24.55861 1.88912,-13.22387 2.3614,-25.0309 0.47228,-12.2793 -0.47228,-20.30808 z m -27.3923,-115.70885 q -8.02877,-0.94456 -17.00211,0 -8.50106,0.94457 -17.00212,1.88913 -7.08421,0.94456 -14.16843,1.88912 -7.08421,0.94456 -14.16843,0.94456 -0.47228,9.44562 -1.41684,17.4744 -0.47228,8.02878 -0.47228,21.72493 17.94667,-0.47228 31.17054,-0.94456 13.69615,-0.47229 28.33686,-0.94457 2.36141,-9.44562 3.77825,-21.25264 1.88912,-12.27931 0.94456,-20.78037 z m -50.53406,202.13627 q -0.94457,-7.08421 -0.94457,-11.80702 0,-5.19509 0.47228,-9.44562 0,-4.25053 0,-8.02878 0,-3.77825 -0.94456,-8.50106 -6.61193,0.94457 -13.22387,0.94457 -6.61193,0 -12.2793,0 -4.25053,0 -8.50106,0 -3.77825,0 -7.08422,0.47228 0,3.77824 0,8.97334 0,4.72281 0,9.44562 0,4.25053 0,8.02877 0,3.30597 0,5.19509 0.94457,-1.88912 2.83369,1.88913 0.47228,1.41684 1.41684,2.83368 0.94457,1.41685 1.88913,1.41685 3.30596,-0.94456 7.08421,-0.94456 4.25053,0 9.44562,0 4.72281,0 9.44562,0 5.19509,0 10.39019,-0.47229 z m 0,-93.98392 q -11.80703,0.47229 -22.66949,2.36141 -10.39019,1.88912 -18.41896,6.61193 -1.41685,3.77825 -1.41685,7.5565 0.47229,3.30597 0.94457,7.08421 0,2.83369 0.47228,6.13966 0.47228,2.83368 0,6.13965 12.2793,1.88912 22.19721,1.88912 10.39018,-0.47228 17.47439,-3.77824 0.94456,-7.5565 0.94456,-15.58528 0,-8.02877 0.47229,-18.41896 z"
     id="path2697"
     style="font-size:472.281px;font-family:'Yuji Mai';-inkscape-font-specification:'Yuji Mai';fill:#370000;stroke-width:21.1667;fill-opacity:1" />
  <path
     d="m 889.90979,532.76368 q 0,1.41684 -0.94457,3.77824 -0.47228,0.94457 -0.94456,2.36141 0,1.41684 0.47228,3.30597 -14.64071,0.94456 -29.7537,0.47228 -14.64071,-0.47228 -29.7537,-0.94456 -21.72493,-0.94457 -43.44986,-0.94457 -21.72492,-0.47228 -43.44985,3.30597 0.94456,4.25053 2.36141,8.02878 1.88912,3.30596 2.3614,7.55649 3.77825,0.94457 7.5565,0.94457 4.25053,-0.47229 8.97334,-0.47229 3.77824,-0.47228 8.02877,-0.47228 4.25053,-0.47228 8.97334,0 2.36141,-5.19509 5.66737,-6.13965 3.77825,-0.94456 7.5565,-0.47228 2.36141,0 4.72281,0 2.36141,-0.47228 4.72281,-1.41684 14.16843,4.25053 27.3923,7.55649 13.69615,3.30597 23.61405,9.44562 9.9179,6.13966 13.22387,18.89124 -15.113,1.41685 -22.66949,10.39019 -7.5565,8.97333 -10.86246,22.1972 -2.83369,13.22387 -4.72281,27.86458 -1.41685,14.64071 -4.72281,28.33686 -3.30597,13.22387 -11.80703,22.66949 -2.83369,1.41684 -2.83369,-1.88912 0,-2.83369 -1.88912,-2.83369 -2.3614,3.30597 -8.97334,3.30597 -6.61193,-0.47228 -12.75159,-0.94456 -2.83368,-0.47229 -5.19509,-0.47229 -2.3614,-0.47228 -3.77825,-0.47228 17.00212,10.39019 34.9488,25.97546 18.41896,15.11299 30.69826,34.47651 12.27931,19.36352 10.86247,42.97757 -2.83369,-1.88912 -4.72281,-1.41684 -1.88913,0.94456 -3.77825,2.36141 -0.94456,0.94456 -2.36141,1.41684 -0.94456,0.94456 -2.83368,0.94456 -9.9179,0 -17.4744,-7.08421 -7.55649,-7.08422 -13.69615,-16.05756 -5.66737,-8.97334 -11.80702,-14.64071 -3.30597,-14.64071 -10.39018,-25.50317 -7.08422,-11.33475 -14.16844,-21.72493 -7.08421,-10.39018 -11.80702,-21.72493 -7.5565,0 -17.00212,0.94457 -9.44562,0.47228 -19.36352,1.88912 -5.19509,0.47228 -10.39018,0.94456 -4.72281,0.47228 -9.44562,0.94456 1.41684,5.19509 4.72281,8.02878 3.77825,2.83369 4.25053,9.44562 -8.50106,5.66737 -15.58527,14.16843 -6.61194,8.50106 -13.22387,17.4744 -7.5565,10.39018 -16.05756,19.8358 -8.02877,9.44562 -18.89124,15.11299 -10.86246,5.66737 -25.97545,3.77825 0.47228,-1.88912 -0.47228,-2.83369 -0.94456,-0.94456 -1.88913,-1.88912 -2.3614,-1.41684 -2.3614,-3.30597 13.69615,-13.69615 27.3923,-26.44773 14.16843,-12.75159 24.55861,-29.75371 -2.83369,-3.77824 -8.02878,-5.19509 -4.72281,-1.88912 -7.55649,-5.66737 1.41684,-4.25053 4.25052,-7.08421 3.30597,-3.30597 9.44562,-2.36141 -6.13965,-1.88912 -11.80702,-6.61193 -5.66737,-5.19509 -10.86246,-10.86247 -0.47228,-6.61193 -0.47228,-12.75158 0,-6.61194 0,-12.75159 0,-24.55861 -2.83369,-45.33898 -2.83369,-20.78036 -19.36352,-32.11511 1.41684,-0.47228 0.94456,-1.88912 0,-1.41684 -0.94456,-1.41684 13.22387,-8.02878 28.80914,-10.39019 16.05755,-2.3614 32.11511,-3.77824 16.05755,-1.41685 30.22598,-6.13966 -0.47228,-1.41684 -2.3614,-4.25053 -0.94456,-1.41684 -1.88913,-3.77824 -0.94456,-2.36141 -0.47228,-6.13966 -20.78036,0.94457 -35.89335,4.72281 -14.64072,3.77825 -31.17055,10.86247 -13.22387,-2.83369 -25.50317,-9.44562 -11.80703,-6.61194 -18.41896,-18.89124 0.94456,0 0.94456,-0.94457 0,-0.94456 0.47228,-1.88912 8.50106,0.47228 17.4744,-0.47228 9.44562,-1.41684 19.36352,-3.30597 8.97334,-1.41684 18.41896,-2.3614 9.44562,-1.41685 19.36352,-1.88913 v -37.3102 q -15.58528,3.77825 -25.50318,-2.3614 -9.44562,-6.13965 -19.36352,-15.58527 -1.41684,-1.41685 -2.3614,-2.36141 -1.41685,-2.3614 -0.47228,-3.77825 0.94456,-1.88912 1.88912,-3.30596 0.94456,-0.94457 0.94456,-1.41685 0,-0.94456 -2.3614,-0.94456 3.77825,-2.3614 9.44562,-2.3614 5.66737,0 12.2793,0.47228 6.13966,0 11.80703,0.47228 6.13965,0 10.86246,-1.88913 0.94456,-10.39018 -3.77825,-17.00211 -4.25053,-7.08422 -9.44562,-13.22387 -4.72281,-5.19509 -8.97334,-10.86246 -3.77824,-5.66738 -3.77824,-13.69615 26.44773,-3.30597 42.03301,9.44562 16.05755,12.75158 14.16843,39.19932 13.69615,2.83369 32.58739,0.94456 18.89124,-1.88912 34.47651,-5.66737 2.83368,-19.8358 -2.36141,-31.64283 -4.72281,-12.2793 -10.86246,-22.66949 -1.88912,-2.83368 -3.77825,-5.66737 -1.41684,-2.83368 -2.83368,-6.13965 10.86246,-1.41684 23.14177,2.3614 12.2793,3.77825 21.72492,12.27931 9.9179,8.02878 13.22387,19.8358 3.30597,11.80703 -3.30597,25.50318 9.9179,2.3614 20.78037,5.66737 11.33474,3.30597 20.30808,9.44562 8.97334,6.13965 12.27931,17.4744 -5.66738,2.83368 -16.52984,2.83368 -10.86246,0 -22.19721,0 -10.86246,0 -17.47439,3.30597 -3.30597,10.39018 -8.02878,22.19721 -4.25053,11.80702 -4.25053,18.89124 0.94456,1.88912 3.30597,1.88912 2.3614,0 5.19509,-0.47228 1.88912,0 3.30597,0 1.88912,-0.47228 3.30596,0 11.80703,-7.08421 24.08633,-6.13965 12.75159,0.94456 24.55862,6.13965 12.2793,4.72281 22.66949,10.39018 3.77824,1.88913 7.08421,3.77825 3.77825,1.41684 7.08422,2.83369 z M 633.93348,506.31594 q -3.77825,7.5565 -11.80702,10.86246 -8.02878,3.30597 -17.00212,5.19509 -8.97334,1.88913 -17.00212,5.66738 -2.83368,7.55649 -2.3614,17.00211 0.47228,8.97334 1.88912,17.4744 0.47228,3.30597 0.47228,4.72281 2.36141,2.83369 5.19509,5.66737 3.30597,2.83369 6.13966,5.66737 10.39018,10.39019 19.8358,22.19721 9.44562,11.33475 7.08421,25.97546 -9.44562,0.94456 -17.47439,-3.30597 -8.02878,-4.72281 -15.58528,-9.9179 -2.83368,-1.88913 -5.66737,-3.77825 -2.83368,-1.88912 -5.66737,-3.30597 -1.41684,12.75159 -1.41684,24.08633 0.47228,11.33475 0.94456,23.14177 0,1.88913 0,3.77825 0.47228,1.88913 0.47228,3.77825 0.47228,8.02878 1.41684,16.52984 0.94456,8.02877 1.88913,16.52983 1.88912,17.94668 2.83368,35.89336 1.41685,17.94668 -1.41684,33.53195 -2.36141,16.05755 -12.27931,27.86458 -4.72281,-0.94456 -7.55649,-1.88913 -2.36141,-0.47228 -8.97334,-1.41684 -11.80703,-14.16843 -25.0309,-25.03089 -13.22386,-10.39018 -24.55861,-22.19721 -11.33474,-12.27931 -18.89124,-31.17055 25.97546,16.52984 60.92425,22.19721 1.88913,0.47228 2.36141,-2.3614 0.47228,-2.36141 1.88912,-2.36141 0,-15.58527 0,-27.86458 0,-12.2793 0.47228,-22.66949 0,-17.47439 0,-34.00423 0,-16.52983 -0.47228,-41.08845 -23.14177,17.4744 -42.97757,41.08845 -19.8358,23.61405 -33.05967,42.03301 -12.75159,4.25053 -19.36352,11.33474 -6.13966,6.61194 -12.75159,12.27931 -6.13965,0 -11.33474,-1.41684 -5.19509,-1.41685 -9.9179,-3.30597 -0.94457,-1.88912 -0.94457,-3.30597 0,-1.41684 0.47228,-2.83368 0.47229,-2.36141 -0.94456,-4.72281 22.66949,-12.27931 36.36564,-29.28142 13.69615,-17.00212 30.69827,-34.9488 0,-3.30597 -2.83369,-1.41684 8.50106,-13.22387 19.36352,-26.92002 11.33474,-13.69615 21.72493,-28.33686 10.39018,-15.11299 16.52983,-32.58739 -7.55649,-2.3614 -18.89124,0 -10.86246,2.36141 -19.36352,6.13965 -8.97334,3.77825 -15.11299,2.36141 -5.66737,-1.88913 -12.27931,-5.66737 -1.88912,-0.94457 -4.25053,-2.36141 -2.3614,-1.41684 -4.72281,-2.3614 -2.3614,-7.5565 -9.9179,-16.05756 -7.55649,-8.97334 -8.50106,-21.25264 0.47228,-1.41685 0.94457,-0.94456 0.94456,0 0.94456,0.94456 1.88912,1.88912 2.83368,1.41684 1.41685,-0.94456 2.83369,-1.88912 0.94456,-1.41685 2.36141,-2.36141 1.41684,-0.94456 3.77824,-0.47228 8.97334,4.72281 23.14177,7.5565 14.64071,2.83368 30.69827,2.3614 16.52983,-0.94456 30.22598,-6.61193 1.88913,0.47228 2.36141,-2.36141 0.47228,-2.3614 1.88912,-2.3614 -1.88912,-14.64071 -2.83368,-29.75371 -0.47229,-15.11299 -4.72281,-26.92001 -3.30597,-9.44562 -9.91791,-16.52984 -6.61193,-7.55649 -12.2793,-15.58527 -5.19509,-8.02878 -6.61194,-19.36352 4.25053,0.47228 3.77825,0.94456 0,0 -0.94456,-4.25053 4.72281,0.94456 9.9179,0.94456 5.19509,0 9.9179,-2.3614 0.47228,0.47228 1.88913,0.94456 13.22386,6.61193 26.44773,15.11299 13.22387,8.02878 20.30809,20.30808 7.08421,12.27931 1.88912,31.17055 -0.47228,1.88912 1.41684,2.83369 1.41685,0.94456 1.41685,1.88912 -2.36141,3.77825 -2.36141,7.08422 0,3.30596 0.47228,7.08421 0.47228,2.83369 0.94456,6.13965 0.47228,2.83369 -0.47228,6.13966 11.80703,4.72281 21.72493,10.39018 10.39018,5.19509 19.36352,14.64071 z m 160.10326,84.5383 q -0.94456,-8.02878 -8.50106,-10.39018 -7.55649,-2.36141 -17.94668,-1.88913 -9.9179,0 -19.36352,1.41685 -3.30596,7.55649 -4.72281,15.58527 -0.94456,8.02878 0,17.4744 7.5565,-0.47228 17.00212,1.88912 9.44562,2.36141 17.00212,6.61194 7.55649,3.77824 8.97334,9.9179 -10.39019,4.72281 -21.72493,4.72281 -10.86246,-0.47228 -22.66949,1.88912 -2.3614,10.39018 -3.77825,20.30808 -0.94456,9.91791 2.36141,18.89124 5.19509,0.94457 9.9179,0.47229 5.19509,-0.94457 9.9179,-1.41685 5.66737,-1.41684 10.39018,-1.41684 5.19509,-0.47228 9.44562,2.3614 3.77825,-5.66737 6.61194,-16.52983 3.30596,-11.33475 5.19509,-24.55861 1.88912,-13.22387 2.3614,-25.0309 0.47228,-12.2793 -0.47228,-20.30808 z m -27.3923,-115.70885 q -8.02877,-0.94456 -17.00211,0 -8.50106,0.94457 -17.00212,1.88913 -7.08421,0.94456 -14.16843,1.88912 -7.08421,0.94456 -14.16843,0.94456 -0.47228,9.44562 -1.41684,17.4744 -0.47228,8.02878 -0.47228,21.72493 17.94667,-0.47228 31.17054,-0.94456 13.69615,-0.47229 28.33686,-0.94457 2.36141,-9.44562 3.77825,-21.25264 1.88912,-12.27931 0.94456,-20.78037 z m -50.53406,202.13627 q -0.94457,-7.08421 -0.94457,-11.80702 0,-5.19509 0.47228,-9.44562 0,-4.25053 0,-8.02878 0,-3.77825 -0.94456,-8.50106 -6.61193,0.94457 -13.22387,0.94457 -6.61193,0 -12.2793,0 -4.25053,0 -8.50106,0 -3.77825,0 -7.08422,0.47228 0,3.77824 0,8.97334 0,4.72281 0,9.44562 0,4.25053 0,8.02877 0,3.30597 0,5.19509 0.94457,-1.88912 2.83369,1.88913 0.47228,1.41684 1.41684,2.83368 0.94457,1.41685 1.88913,1.41685 3.30596,-0.94456 7.08421,-0.94456 4.25053,0 9.44562,0 4.72281,0 9.44562,0 5.19509,0 10.39019,-0.47229 z m 0,-93.98392 q -11.80703,0.47229 -22.66949,2.36141 -10.39019,1.88912 -18.41896,6.61193 -1.41685,3.77825 -1.41685,7.5565 0.47229,3.30597 0.94457,7.08421 0,2.83369 0.47228,6.13966 0.47228,2.83368 0,6.13965 12.2793,1.88912 22.19721,1.88912 10.39018,-0.47228 17.47439,-3.77824 0.94456,-7.5565 0.94456,-15.58528 0,-8.02877 0.47229,-18.41896 z"
     id="path2697-9"
     style="font-size:472.281px;font-family:'Yuji Mai';-inkscape-font-specification:'Yuji Mai';fill:#980000;stroke-width:21.1667;filter:url(#filter2835)"
     clip-path="url(#clipPath2922)" />
  <path
     d="m 800.39751,613.49921 c 4.199,0.573 6.541,-5.863 3.513,-9.655 -3.028,-3.792 -11.427,-4.94 -12.598,-1.721 -1.171,3.219 4.886,10.803 9.085,11.376 z"
     filter="url(#H)"
     id="path409"
     style="fill:#ffffff"
     transform="rotate(180,638.60153,569.71686)" />
  <path
     d="m 558.30492,669.27806 c 3.431,1.309 5.21,-2.488 2.67,-5.697 -2.54,-3.209 -9.405,-5.828 -10.295,-3.928 -0.89,1.9 4.194,8.316 7.625,9.625 z"
     filter="url(#I)"
     id="path411"
     style="fill:#ffffff"
     transform="rotate(-20,694.31573,380.77294)" />
  <path
     d="m 494.50326,611.08948 c 4.215,0.067 8.386,-3.856 6.256,-5.885 -2.13,-2.029 -10.563,-2.166 -12.648,-0.203 -2.085,1.963 2.177,6.021 6.393,6.088 z"
     filter="url(#J)"
     id="path413"
     style="fill:#ffffff"
     transform="rotate(20,199.33473,483.98211)" />
  <path
     d="m 494.50326,611.08948 c 4.215,0.067 8.386,-3.856 6.256,-5.885 -2.13,-2.029 -10.563,-2.166 -12.648,-0.203 -2.085,1.963 2.177,6.021 6.393,6.088 z"
     filter="url(#J)"
     id="path413-6"
     style="fill:#ffffff;filter:url(#J-37)"
     transform="matrix(-1.1140576,-0.38443791,0.40548381,-1.0562345,942.9943,1383.3309)" />
  <path
     d="m 804.72569,766.32853 c 4.495,1.912 11.428,0.6 13.007,-1.969 1.579,-2.569 -2.196,-6.397 -6.69,-8.312 -4.494,-1.915 -9.708,-1.915 -11.287,0.656 -1.579,2.571 0.476,7.712 4.971,9.624 z"
     filter="url(#K)"
     id="path415"
     style="fill:#ffffff"
     transform="rotate(-160,808.54905,761.73208)" />
  <path
     d="m 804.72569,766.32853 c 4.495,1.912 11.428,0.6 13.007,-1.969 1.579,-2.569 -2.196,-6.397 -6.69,-8.312 -4.494,-1.915 -9.708,-1.915 -11.287,0.656 -1.579,2.571 0.476,7.712 4.971,9.624 z"
     filter="url(#K)"
     id="path415-2"
     style="fill:#ffffff;filter:url(#K-4)"
     transform="rotate(20,636.66746,65.795472)" />
  <path
     d="m 804.72569,766.32853 c 4.495,1.912 11.428,0.6 13.007,-1.969 1.579,-2.569 -2.196,-6.397 -6.69,-8.312 -4.494,-1.915 -9.708,-1.915 -11.287,0.656 -1.579,2.571 0.476,7.712 4.971,9.624 z"
     filter="url(#K)"
     id="path415-2-1"
     style="fill:#ffffff;filter:url(#K-4-9)"
     transform="matrix(0.25509947,-0.71462645,0.70088004,0.26010276,-86.901173,1151.8332)" />
</svg>
