<?xml version="1.0" encoding="UTF-8" standalone="no"?>
<svg
   width="498.898"
   height="544.252"
   viewBox="0 0 1320 1440"
   version="1.1"
   id="svg98"
   sodipodi:docname="wQ.svg"
   xml:space="preserve"
   inkscape:version="1.2.2 (732a01da63, 2022-12-09)"
   xmlns:inkscape="http://www.inkscape.org/namespaces/inkscape"
   xmlns:sodipodi="http://sodipodi.sourceforge.net/DTD/sodipodi-0.dtd"
   xmlns="http://www.w3.org/2000/svg"
   xmlns:svg="http://www.w3.org/2000/svg"><sodipodi:namedview
     id="namedview100"
     pagecolor="#ffffff"
     bordercolor="#000000"
     borderopacity="0.25"
     inkscape:showpageshadow="2"
     inkscape:pageopacity="0.0"
     inkscape:pagecheckerboard="0"
     inkscape:deskcolor="#d1d1d1"
     showgrid="false"
     inkscape:zoom="1.4142136"
     inkscape:cx="75.306872"
     inkscape:cy="512.65242"
     inkscape:window-width="1920"
     inkscape:window-height="974"
     inkscape:window-x="-11"
     inkscape:window-y="-11"
     inkscape:window-maximized="1"
     inkscape:current-layer="svg98" /><style
     id="style2">.B{color-interpolation-filters:sRGB}</style><defs
     id="defs50"><filter
       id="C"
       x="-0.01052904"
       y="-0.011053209"
       width="1.0210581"
       height="1.0221064"
       class="B"><feGaussianBlur
         stdDeviation="2.441"
         id="feGaussianBlur4" /></filter><filter
       id="E"
       x="-0.049577471"
       y="-0.046521963"
       width="1.0991549"
       height="1.0930439"
       class="B"><feGaussianBlur
         stdDeviation="7.145"
         id="feGaussianBlur7" /></filter><filter
       id="G"
       x="-0.026998101"
       y="-0.026997811"
       width="1.0539962"
       height="1.0539956"
       class="B"><feGaussianBlur
         stdDeviation="3.099"
         id="feGaussianBlur10" /></filter><filter
       id="H"
       x="-0.32753811"
       y="-0.37941919"
       width="1.6550762"
       height="1.7588384"
       class="B"><feGaussianBlur
         stdDeviation="1.414"
         id="feGaussianBlur13" /></filter><filter
       id="I"
       x="-0.10275027"
       y="-0.21093859"
       width="1.2055005"
       height="1.4218772"
       class="B"><feGaussianBlur
         stdDeviation="1.414"
         id="feGaussianBlur16" /></filter><filter
       id="J"
       x="-0.16946047"
       y="-0.17130372"
       width="1.3389209"
       height="1.3426074"
       class="B"><feGaussianBlur
         stdDeviation="1.414"
         id="feGaussianBlur19" /></filter><filter
       id="K"
       x="-0.13819079"
       y="-0.22437343"
       width="1.2763816"
       height="1.4487469"
       class="B"><feGaussianBlur
         stdDeviation="1.414"
         id="feGaussianBlur22" /></filter><filter
       id="L"
       x="-0.16506688"
       y="-0.23552885"
       width="1.3301338"
       height="1.4710577"
       class="B"><feGaussianBlur
         stdDeviation="1.414"
         id="feGaussianBlur25" /></filter><linearGradient
       id="A"
       x1="228.547"
       y1="660.587"
       x2="270.281"
       y2="660.587"
       spreadMethod="reflect"
       gradientUnits="userSpaceOnUse"><stop
         offset="0"
         stop-color="#ffd285"
         id="stop28" /><stop
         offset=".232"
         stop-color="#ffcd79"
         id="stop30" /><stop
         offset=".616"
         stop-color="#ffca73"
         id="stop32" /><stop
         offset=".808"
         stop-color="#ffd386"
         id="stop34" /><stop
         offset="1"
         stop-color="#ffc86e"
         id="stop36" /></linearGradient><linearGradient
       id="B"
       x1="660.031"
       y1="176.668"
       x2="660.029"
       y2="1147.598"
       gradientUnits="userSpaceOnUse"><stop
         offset=".599"
         stop-color="#fff"
         id="stop39" /><stop
         offset="1"
         id="stop41" /></linearGradient><clipPath
       id="D"><path
         d="M-306.313 516.17c-13.376-16.397-36.245-27.184-59.977-29.341-16.828-1.294-37.971 12.513-55.662 6.041 3.452-18.123 16.828-38.403 11.65-55.662 12.082-3.02 31.067 0 47.032 0 14.239 0 26.321-3.02 28.91-14.671-8.198-6.041-40.56-22.869-55.662-18.986 0 0 3.452 1.294 3.02 4.315-31.067-.432-55.662 4.746-83.277 3.02 1.726-8.198 2.589-26.321 5.609-38.403-3.883-4.315-10.787-3.452-12.945-10.356-23.732-4.315-43.58-3.02-59.977 6.041 8.63 14.239 29.773 15.965 42.286 26.321 1.726 5.178 1.294 13.376 3.02 18.986-41.854 1.294-77.237 9.493-113.913 4.746-1.294 3.452 3.883 3.02 3.02 5.609-11.219 1.294-22.006-11.219-35.382-4.315 3.02 24.595 22.869 22.437 30.636 40.992 15.102-3.02 27.184-9.924 41.423-10.356 4.315 18.554 9.493 40.992 17.26 51.347-8.63.863-34.519 3.02-51.779 4.315-19.849 1.294-37.54.863-46.169-7.335-4.315 3.883-7.767 0-10.356 0-4.315 15.102 18.986 40.129 29.341 42.717 6.472 1.726 15.102-2.589 25.026-4.315 54.368-9.924 145.412-15.534 214.882-17.691 35.382-.863 58.683 10.356 81.983-3.02zm12.945 164.397c-9.493-3.02-12.082-12.945-14.671-19.417-33.656-17.691-43.149-42.717-43.149-42.717-.863 6.904-1.726 21.574-1.726 28.047-.432 23.3.432 43.58-26.752 45.738-.432 1.726.432 3.883-1.294 4.315-21.143-6.904-70.764 6.904-90.613-10.356 0-7.335-1.294-15.534 2.589-18.986 32.362 0 55.662-3.02 74.648-1.294 3.02-3.02 2.157-11.219 9.061-10.356 10.787-19.417 9.061-47.032 18.986-72.059 9.061-3.452 18.986-4.746 20.28-14.671 6.041-7.767-3.883-9.924-3.02-18.986-18.123-3.883-38.403-15.965-59.977-15.965-57.388.432-121.68 9.061-172.596 15.965-3.02 8.63-12.513 3.883-14.671 6.041-8.63 13.808 12.082 22.869 16.397 36.677 6.904 22.437 0 46.601 5.609 66.018 10.356 4.746 14.239 16.397 23.732 22.006 9.493-5.609 14.671-6.472 28.91-6.041 3.02-6.041 14.239-5.609 20.28-6.472.863 8.63-2.589 31.93 9.061 35.814-1.726 5.178 6.041 14.239 10.356 11.65 0 0-4.746-3.02-1.294-4.315 3.02 6.472 12.082 4.315 8.63 10.356 37.971 12.945 107.009 15.102 141.96 7.335 4.315-.863 16.828-2.589 17.26-11.65 11.219-1.726 16.397-7.767 20.711-13.376-3.452-8.63 2.157-13.376 1.294-23.3zm-151.884-243.36c3.02 15.965-12.082 40.129-7.335 56.957-22.437 2.589-46.169 4.746-70.333 6.041-6.472-18.123-2.157-42.717-20.28-52.642 28.478-8.198 83.709-9.493 97.948-10.356zm101.832 224.375c-2.157.431-.863-2.589-2.589-3.02 0 0 0 6.041-2.157 8.198-1.726-1.726.432-7.335-2.157-6.904-2.157-2.157 0-3.02 0-8.63 2.157 1.294 1.726 3.02 1.294 5.609 2.157-.431 4.315-3.02 4.315-7.767 2.589.431 1.294 10.356 1.294 12.513zm-65.586-101.4c.432 31.93-4.315 59.114-8.63 86.729-15.965-2.589-33.225-3.883-52.642-3.02.432-8.63 1.726-19.417 1.294-29.341 15.102-4.746 32.362.863 38.403-10.356-2.157-4.746-4.315 2.157-7.335 0-.432-10.787-20.28-15.534-32.362-18.986.432-6.904 2.589-17.691-3.02-22.006 17.691-4.746 39.697-2.589 64.292-3.02zm-90.613 29.341c-12.945 4.746-36.677 5.178-48.327 6.041-1.726-7.335-4.746-14.239-7.335-20.711 13.376-6.904 36.677-10.356 50.053-9.061 5.609 6.904 5.178 14.671 5.609 23.732zm0 28.047c0 9.493.863 19.849-1.294 27.615-10.787.863-31.499 4.315-44.443 3.02-1.726-11.219 0-22.006-.432-28.047 12.082-.863 35.382-3.452 46.169-2.589z"
         stroke-width="21.409"
         id="path44" /></clipPath><clipPath
       id="F"><path
         d="M1799.135 1043.254a7.223 7.223 0 0 0-7.24 7.237v7.446l-15.399 27.512c-1.385 2.475-1.385 6.457 0 8.932h15.399v63.253l-75.759-75.759a7.222 7.222 0 0 0-10.237 0l-3.45 3.45a7.222 7.222 0 0 0 0 10.237l75.759 75.759h-63.252v-15.399c-2.475-1.385-6.457-1.385-8.932 0l-27.515 15.399h-7.442a7.22 7.22 0 0 0-7.237 7.237v4.879c0 4.01 3.227 7.24 7.237 7.24h7.449l27.508 15.395c2.475 1.385 6.457 1.385 8.932 0v-15.395h63.252l-75.759 75.759a7.222 7.222 0 0 0 0 10.237l3.45 3.45a7.222 7.222 0 0 0 10.237 0l75.759-75.759v63.249h-15.399c-1.385 2.475-1.385 6.461 0 8.935l15.399 27.512v7.442c0 4.01 3.23 7.24 7.24 7.24h4.876c4.01 0 7.24-3.23 7.24-7.24v-7.442l15.399-27.512c1.385-2.475 1.385-6.461 0-8.935h-15.399v-63.249l75.759 75.759a7.222 7.222 0 0 0 10.237 0l3.45-3.45a7.222 7.222 0 0 0 0-10.237l-75.759-75.759h63.249v15.395c2.475 1.385 6.461 1.385 8.935 0l27.508-15.395h7.449c4.01 0 7.237-3.23 7.237-7.24v-4.88a7.22 7.22 0 0 0-7.237-7.237h-7.442l-27.515-15.399c-2.475-1.385-6.461-1.385-8.935 0v15.399h-63.249l75.759-75.759a7.222 7.222 0 0 0 0-10.237l-3.45-3.45a7.222 7.222 0 0 0-10.237 0l-75.759 75.759v-63.253h15.399c1.385-2.475 1.385-6.457 0-8.932l-15.399-27.512v-7.446c0-4.01-3.23-7.237-7.24-7.237zm2.435 137.74h.01z"
         stroke-width="10.708"
         id="path47" /></clipPath><filter
       inkscape:menu-tooltip="In and out glow with a possible offset and colorizable flood"
       inkscape:menu="Shadows and Glows"
       inkscape:label="Cutout Glow"
       style="color-interpolation-filters:sRGB;"
       id="filter1156"
       x="-0.03866914"
       y="-0.015514059"
       width="1.0548562"
       height="1.0525754"><feOffset
         dy="10"
         dx="-10"
         id="feOffset1146" /><feGaussianBlur
         stdDeviation="3"
         result="blur"
         id="feGaussianBlur1148" /><feFlood
         flood-color="rgb(0,0,0)"
         flood-opacity="0"
         result="flood"
         id="feFlood1150" /><feComposite
         in="flood"
         in2="SourceGraphic"
         operator="in"
         result="composite"
         id="feComposite1152" /><feBlend
         in="blur"
         in2="composite"
         mode="normal"
         id="feBlend1154" /></filter><clipPath
       clipPathUnits="userSpaceOnUse"
       id="clipPath1158"><path
         d="m 881.83678,606.79252 q -0.98954,1.97908 -0.98954,3.95814 0,1.48434 0,3.46342 0,1.48431 -0.49477,3.95816 0,1.97909 -0.49477,4.94771 -3.46342,3.46339 -9.89544,5.44248 -5.93725,1.48431 -9.40064,5.44247 -22.75948,-1.48431 -43.04507,-6.43201 -19.79086,-5.44248 -31.17058,-15.33789 -6.92679,-6.43205 -14.34835,-18.80131 -6.92681,-12.36927 -18.30654,-18.80129 -8.90587,1.97906 -17.81174,2.96863 -8.41113,0.49477 -16.82223,0.49477 -11.37972,0 -22.2647,1.48431 -10.88496,0.98954 -21.27514,5.93725 2.47385,16.82222 -1.48431,33.14965 -3.95819,16.32743 -15.83269,24.24379 -8.90587,-1.48434 -12.86403,-8.9059 -3.4634,-7.42156 -3.95817,-17.31697 -0.49477,-9.89541 0,-19.29608 0,-1.97908 0,-3.95816 0,-2.47386 0,-4.45294 -5.93725,-3.95817 -13.35883,-4.45294 -7.42156,-0.98954 -15.33789,-0.98954 -1.48431,0 -2.47386,0 -9.40064,0 -18.30651,-2.47385 -8.9059,-2.47385 -13.8536,-11.87452 -8.4111,7.42156 -14.34835,13.35883 -5.93725,5.44248 -10.39021,13.85358 -5.44248,-1.97908 -6.92679,-0.49477 -1.48431,0.98954 -2.47385,3.46339 -0.98954,2.47388 -2.96863,4.45294 -1.48431,1.97908 -6.43201,1.48431 0,2.96865 -1.48432,3.95819 -0.98954,0.98952 -3.46339,1.97906 -0.98954,0.4948 -2.47388,1.48434 -1.48431,0.49477 -2.47383,1.48431 -4.94773,3.95816 -9.40067,8.90587 -4.45293,4.94771 -10.39018,8.90587 -2.47385,5.93725 -10.88495,9.40064 -7.91636,3.4634 -18.30654,4.45294 -10.39019,0.98957 -19.79083,0.49477 1.48429,-2.47383 2.96863,-2.47383 1.48431,0 3.46339,0.49477 0.98954,0 2.47385,0.49475 1.48432,0 2.96863,0 -0.98954,-3.95817 -2.96863,-3.95817 -1.48431,-0.49477 -3.95816,0.49477 -2.96862,0.98957 -4.94771,1.48434 -2.47385,-1.48434 -5.4425,-0.98954 -2.47383,0 -4.94771,0.49477 -1.97908,0.49477 -4.45293,0.98954 -1.97908,0 -3.95817,-0.49477 0,-4.45296 6.92679,-5.93727 7.42156,-1.97909 14.34838,-3.95817 7.42156,-1.97908 7.42156,-6.43202 1.97908,1.97909 7.42155,1.97909 5.44248,-5.44248 9.40067,-12.36927 4.45291,-6.92679 15.33789,-7.42156 -0.49477,-2.96865 0.49477,-4.94773 1.48432,-1.97906 1.48432,-1.97906 3.46339,1.97906 5.44247,0.98952 1.97908,-0.98952 3.95817,-2.47386 1.48431,-1.48431 2.96862,-2.47385 1.97908,-1.48431 4.94771,-1.48431 -0.49477,-2.96862 -3.4634,-2.47385 -1.97908,0.49477 -2.47385,-1.48432 1.48431,-2.96862 2.96862,-2.47385 1.97909,0 3.95817,0.98954 1.97908,0.98954 2.96862,1.48431 0.49477,-2.47385 -1.48431,-3.46339 -1.97908,-0.98954 -3.95816,-1.48431 -1.97909,-0.49477 -2.47386,-0.49477 1.97908,-2.47386 5.93725,-1.97909 4.45296,0.49478 5.4425,-2.96862 0,-1.97908 -1.97908,-0.98954 -0.98957,0.98954 -2.47388,1.48431 -0.98954,0.49477 -2.96862,-0.49477 7.91633,-8.4111 15.83268,-16.32746 8.4111,-7.91633 18.30652,-14.34834 0.98954,-12.86404 9.89541,-25.7281 8.9059,-12.86404 19.29608,-26.71762 10.39018,-13.8536 14.84312,-28.69672 -5.93725,-2.47385 -14.84312,-0.98954 -8.4111,1.48431 -17.31697,3.95816 -8.41113,2.47386 -16.32746,3.95817 -7.91633,1.48431 -14.34835,0.49477 0.49477,-7.42156 -3.95816,-12.36929 -4.45294,-5.44248 -9.89544,-10.39019 -5.93725,-5.44247 -11.37973,-11.37972 -5.44247,-6.43202 -5.44247,-16.32746 6.92679,-1.48431 13.85358,0.49477 7.42158,1.97911 14.84314,4.45294 5.44248,1.97911 10.88495,3.95819 5.93725,1.48431 11.8745,1.97908 6.92679,0.49477 17.81177,0.49477 10.88495,0 20.78039,-0.98954 10.39018,-1.48431 14.84312,-3.46339 5.93725,-2.96865 7.42156,-11.87452 1.97908,-9.40065 0.98954,-20.2856 -0.49477,-10.88498 -2.47385,-19.79085 -0.49477,-1.97908 -1.97908,-4.45294 -0.98955,-2.96862 -2.47386,-5.93724 -2.96862,-5.93725 -5.93725,-12.86404 -2.96862,-6.92682 -2.96862,-12.86406 3.95817,-1.48432 5.44248,-5.44248 15.83266,12.86406 33.14966,24.73856 17.31697,11.37972 28.20192,29.19149 -4.9477,6.43202 -5.93725,16.8222 -0.98954,10.39019 -1.97908,15.83266 11.8745,0.49477 23.74902,-0.49477 11.87449,-0.98954 23.74899,-1.97908 9.89544,-1.48431 19.79085,-1.97908 9.89541,-0.98954 19.79085,-0.98954 14.34835,0 28.20193,2.96862 13.8536,2.96862 26.22287,11.37975 5.93727,7.91633 3.95816,11.8745 -1.97908,3.46339 -5.44247,6.43201 -0.98955,1.48432 -2.47386,2.47386 -0.98954,0.98954 -1.97908,2.47385 -21.27514,-1.48431 -46.0137,-0.98954 -24.24378,0 -47.49803,2.96862 5.44248,6.92682 12.36929,11.37975 6.92679,4.45294 13.35881,8.90587 6.43202,4.45294 10.39021,11.8745 10.39018,1.97908 14.84312,10.39021 4.45293,7.91633 11.87449,13.35881 10.88496,7.91633 24.73856,13.3588 13.85358,4.94771 27.70718,10.39021 13.85358,4.94771 24.24376,13.85358 4.94771,9.40064 12.3693,16.8222 7.91633,7.42159 16.32743,13.85361 0.98954,7.91633 5.44247,11.87449 4.45294,3.95817 7.91636,9.40067 z m -44.03464,59.3725 q 0.98954,2.47385 0.49477,3.95817 -0.49477,0.98954 -1.97908,1.97908 -1.97908,1.48431 -2.47385,3.46339 -11.37973,1.97911 -21.76991,1.48434 -9.89544,-0.49477 -19.79085,-1.48434 -9.40064,-0.49477 -18.80131,-0.98954 -9.40064,-0.49477 -19.79083,0.98954 -0.98954,9.40067 -0.98954,20.28562 0,10.39019 0.49477,20.7804 0,5.44247 0,10.88495 0.49477,4.94771 0.49477,10.39018 0,20.28563 -3.46339,38.09737 -2.96863,18.30654 -15.33792,28.69672 -8.90587,-3.95816 -12.86403,-17.31697 -3.95817,-12.86406 -4.94771,-28.69672 -0.98954,-15.33792 -1.48431,-25.7281 0,-6.43202 0,-12.36927 0,-5.93727 0.49477,-11.87452 0.49477,-8.90587 0.49477,-16.8222 0,-7.91633 -0.98954,-14.84312 -13.85358,-3.46342 -30.67581,-1.97911 -16.32743,0.98954 -33.64443,2.96865 -9.89541,0.98952 -19.79082,1.97906 -9.40067,0.98954 -18.80131,0.98954 -0.98954,32.16012 -10.88496,52.94051 -9.89541,20.78039 -19.79085,35.12874 -3.46339,4.94771 -8.90587,9.40064 -5.44248,4.45294 -13.8536,10.39021 -0.49475,-0.49477 -2.96863,0 -1.97908,0.49477 -3.95816,0.49477 -1.48431,0 -2.96863,-2.47385 0.98955,-4.45296 2.96863,-10.39021 2.47385,-5.93725 4.94773,-12.36927 6.43202,-16.8222 12.36927,-37.10782 6.43201,-20.28562 4.9477,-39.08691 -5.93724,-0.98954 -11.87449,1.97909 -5.44248,2.96862 -9.40067,6.92679 -20.2856,-3.4634 -32.65489,-14.34835 -12.36926,-10.88498 -22.75945,-23.25425 3.95817,-0.98954 7.42156,-0.98954 3.4634,0 6.92679,0 5.44248,0 9.89541,-0.49477 4.94771,-0.49477 8.41113,-5.93725 4.45294,4.45294 12.86404,4.45294 8.90587,-0.49477 17.31697,-1.48431 4.94773,-0.98955 9.40067,-0.98955 4.45293,-0.49477 7.91633,0 1.48431,-9.40064 -2.47386,-16.82222 -3.46339,-7.42156 -7.91633,-14.84312 -2.96862,-4.45294 -5.93727,-8.90587 -2.47385,-4.94771 -4.45291,-9.89544 11.8745,-2.47386 27.70716,1.48431 16.32743,3.95819 25.23332,15.33792 9.40065,11.87449 4.45294,30.18103 23.25425,0 46.50847,-1.97908 23.74901,-2.47388 50.46665,-3.46342 0.98954,-9.89542 -0.98954,-20.78037 -1.48431,-11.37972 -3.46339,-21.27516 -0.98954,-5.93725 -1.97911,-11.37973 -0.98952,-5.44247 -0.98952,-9.40064 2.96863,1.48431 5.93725,2.96862 2.96862,0.98955 5.93725,2.47386 11.37972,4.9477 22.2647,10.88495 10.88496,5.93725 17.31697,15.33792 6.43202,8.90587 3.95817,23.74899 18.80131,0.49477 40.07645,7.42156 21.27516,6.92681 38.09736,21.27516 z M 749.73292,565.7265 q 0,0 -7.91633,-8.90587 -7.42159,-8.90587 -19.29608,-23.74899 -11.8745,-14.84314 -25.7281,-32.65491 -13.35881,-18.30652 -25.2333,-37.1078 -4.45294,0.49477 -10.39021,0.49477 -5.93725,0 -10.39019,0.98954 -0.49477,1.48429 -2.47385,3.95817 -3.4634,5.93725 -6.92679,12.86403 -3.46339,6.92679 -1.97908,11.8745 9.40064,3.95816 19.79082,10.88498 10.39021,6.92679 16.32746,17.31697 6.43202,10.39018 3.95817,24.24379 12.86403,-0.49477 27.21241,4.45293 14.34834,4.45294 26.71761,9.40065 4.94773,1.97908 8.9059,3.46339 3.95816,1.48431 7.42156,2.47385 z M 639.39899,551.37816 q 0.98954,-8.90588 -1.97908,-24.24379 -2.47386,-15.83266 -7.91636,-28.20193 -1.97906,1.97906 -5.44248,5.44248 -2.96862,2.9686 -5.93725,5.44248 1.48432,1.97908 3.95817,0.98954 1.48431,-0.98954 1.97908,0.98954 -0.49477,1.48431 -1.97908,2.47385 -0.98954,0.98954 -2.47385,1.48431 -1.97909,0.98955 -2.96863,2.47386 -0.98954,0.98954 1.48431,4.45293 h -7.42155 q 0.98954,2.47386 0,5.44248 -0.49478,2.47385 -5.93725,1.48431 0.49477,1.97908 0,3.46342 -0.49477,0.98952 -0.98954,2.47383 -0.49477,0.98954 -0.98954,2.96865 -0.49478,1.48431 0,3.95816 -4.94771,0 -8.41113,5.44248 -3.4634,4.94771 -6.43202,8.90587 14.34837,0 25.7281,-2.47385 11.87449,-2.47385 25.7281,-2.96862 z"
         id="path1160"
         style="font-size:494.771px;font-family:'Yuji Mai';-inkscape-font-specification:'Yuji Mai';fill:#990000;fill-opacity:1;stroke-width:21.1667" /></clipPath><filter
       id="C-1"
       x="-0.01052904"
       y="-0.011053209"
       width="1.0210581"
       height="1.0221064"
       class="B"><feGaussianBlur
         stdDeviation="2.441"
         id="feGaussianBlur1205" /></filter><filter
       id="E-3"
       x="-0.047960027"
       y="-0.048037478"
       width="1.0959201"
       height="1.096075"
       class="B"><feGaussianBlur
         stdDeviation="7.58"
         id="feGaussianBlur1208" /></filter><filter
       id="G-2"
       x="-0.065303336"
       y="-0.065303013"
       width="1.1306067"
       height="1.130606"
       class="B"><feGaussianBlur
         stdDeviation="5.51"
         id="feGaussianBlur1211" /></filter><filter
       id="H-7"
       x="-0.15500487"
       y="-0.17417449"
       width="1.3100097"
       height="1.348349"
       class="B"><feGaussianBlur
         stdDeviation="1.005"
         id="feGaussianBlur1214" /></filter><filter
       id="I-4"
       x="-0.16749596"
       y="-0.21712731"
       width="1.3349919"
       height="1.4342546"
       class="B"><feGaussianBlur
         stdDeviation="1.005"
         id="feGaussianBlur1217" /></filter><filter
       id="J-2"
       x="-0.13868595"
       y="-0.16783961"
       width="1.2773719"
       height="1.3356792"
       class="B"><feGaussianBlur
         stdDeviation="1.005"
         id="feGaussianBlur1220" /></filter><filter
       id="K-7"
       x="-0.19308802"
       y="-0.25104453"
       width="1.386176"
       height="1.5020891"
       class="B"><feGaussianBlur
         stdDeviation="1.005"
         id="feGaussianBlur1223" /></filter><filter
       id="L-4"
       x="-0.10037904"
       y="-0.12979434"
       width="1.2007581"
       height="1.2595887"
       class="B"><feGaussianBlur
         stdDeviation="1.005"
         id="feGaussianBlur1226" /></filter><filter
       id="M"
       x="-0.11922398"
       y="-0.14197023"
       width="1.238448"
       height="1.2839405"
       class="B"><feGaussianBlur
         stdDeviation="1.005"
         id="feGaussianBlur1229" /></filter><linearGradient
       id="B-0"
       x1="660.031"
       y1="176.668"
       x2="660.029"
       y2="1147.598"
       gradientUnits="userSpaceOnUse"
       gradientTransform="translate(-2470.0682,-359.371)"><stop
         offset=".597"
         stop-color="#fff"
         id="stop1243" /><stop
         offset="1"
         id="stop1245" /></linearGradient><clipPath
       id="D-9"><path
         d="M-309.997 569.351c-12.933-14.657-33.194-29.746-54.318-36.643-15.951-5.173-32.332-5.604-46.99 2.155-27.59-4.311-46.99-.431-68.113-1.293.862-8.622-2.587-22.417 3.449-26.297 20.261 0 40.954-4.311 61.216-6.466 6.898-.862 14.226 4.311 18.537-3.018-12.502-17.244-45.696-25.435-81.477-16.382-.862-9.484-1.724-15.088 1.724-26.297 30.177-1.724 57.336-1.293 81.477-11.209-6.035-12.502-22.848-20.262-43.541-22.848-6.466 6.466-21.124 5.173-34.488 5.173 4.742-18.106-6.035-26.728-10.346-37.505 27.159-5.604 68.975-.862 101.308-3.449-.431-20.693-38.799-27.59-57.336-25.004-23.279 3.449-51.732 2.155-75.442 3.88-36.643 2.587-71.131 10.777-104.756 12.933-3.018.862.431 7.76-3.018 8.191-6.898.431-8.622-4.742-16.813-3.018-4.742 8.622 3.88 13.364 5.173 21.124 12.933 3.88 17.675 14.657 18.106 30.608.862 33.194 0 91.824-8.191 120.707 9.915 9.053 15.519 22.848 26.728 30.608 2.155-2.587 16.382-5.604 16.382-11.209 62.509-6.898 122-16.813 179.336-12.933 7.329 25.866-5.173 51.732-6.466 73.286-.431 4.742 4.311 9.915 3.449 14.657-2.155 13.795-12.502 23.71-23.279 28.883 0-3.018 19.399-16.382 18.537-22.848-13.364 9.053-25.866 30.608-43.541 32.763-25.004 3.018-52.594-18.968-75.011-11.209 17.244 6.898 28.883 20.693 38.368 35.781 18.106 9.484 30.608 27.59 56.474 25.866 13.795-.862 35.35-12.071 44.834-21.124 28.883-26.728 25.435-85.357 36.643-126.742 18.106-2.587 34.488-12.502 41.385-21.124zm-140.968 72.855c2.587-9.915 2.156-18.106 0-25.004-5.604-18.968-26.297-28.883-48.283-36.643 1.293 6.035 2.156 12.933 1.724 21.124 12.933 15.519 19.83 43.972 46.558 40.523zm-60.353-16.813c-6.466-19.83-31.039-31.47-44.403-38.368-4.311 34.057 17.244 62.509 43.11 63.371 3.88-9.484 3.449-17.675 1.293-25.004zm-60.785 7.76c-6.035-19.83-28.452-34.488-46.99-41.385 5.604 29.746 12.071 67.251 44.834 68.544 4.311-9.915 4.742-18.968 2.155-27.159zm-65.096 40.092c10.777-46.558-20.262-64.233-50.007-79.753-8.191 8.622 10.777 31.901 1.724 45.696 9.915 7.76 16.382 22.848 26.728 30.608 5.604 4.311 12.502 6.466 21.555 3.449zm124.587-242.276c-23.71-.431-37.936 6.898-64.664 4.742 2.587-6.898.862-21.986-3.449-27.159 12.502-15.088 42.247-14.226 64.664-16.813 2.155 12.071 4.311 24.141 3.449 39.23zm-1.724 55.18c-25.004.431-40.954 2.587-62.94 4.742-3.449-7.329-1.293-24.141 0-27.59 24.141-2.155 38.368-7.329 62.94-6.466-.431 10.777 1.724 19.83 0 29.315zm1.724 50.438c-24.572 6.898-45.265 6.466-66.389 8.191-1.293-8.622 3.018-19.83 1.293-27.159 23.71 1.724 38.799-9.484 63.371-8.622-.431 10.346 3.018 16.382 1.724 27.59z"
         stroke-width="21.389"
         id="path1248" /></clipPath><clipPath
       id="F-2"><path
         d="M1799.132 1043.254a7.22 7.22 0 0 0-7.237 7.237v107.141l-44.726-44.726 10.889-10.886c-.771-2.729-3.59-5.548-6.319-6.319l-30.343-8.569-5.259-5.26a7.222 7.222 0 0 0-10.237 0l-3.45 3.45a7.222 7.222 0 0 0 0 10.237l5.259 5.259 8.569 30.343c.771 2.729 3.59 5.548 6.319 6.319l10.886-10.889 44.726 44.726h-107.141a7.22 7.22 0 0 0-7.237 7.237v4.88c0 4.01 3.227 7.24 7.237 7.24h107.141l-44.726 44.726-10.886-10.889c-2.729.771-5.548 3.586-6.319 6.315l-8.569 30.347-5.259 5.259a7.222 7.222 0 0 0 0 10.237l3.45 3.45a7.222 7.222 0 0 0 10.237 0l5.266-5.266 30.337-8.565c2.729-.771 5.548-3.586 6.319-6.315l-10.889-10.886 44.726-44.726v107.138c0 4.01 3.227 7.24 7.237 7.24h4.88c4.01 0 7.24-3.23 7.24-7.24v-107.138l44.726 44.726-10.889 10.886c.771 2.729 3.586 5.545 6.315 6.315l30.34 8.565 5.266 5.266a7.222 7.222 0 0 0 10.237 0l3.45-3.45a7.222 7.222 0 0 0 0-10.237l-5.266-5.266-8.565-30.34c-.771-2.729-3.586-5.545-6.315-6.315l-10.886 10.889-44.726-44.726h107.138c4.01 0 7.24-3.23 7.24-7.24v-4.88c0-4.01-3.23-7.237-7.24-7.237H1824.94l44.726-44.726 10.886 10.889c2.729-.771 5.545-3.59 6.315-6.319l8.565-30.337 5.266-5.266a7.222 7.222 0 0 0 0-10.237l-1.725-1.725-1.725-1.725a7.222 7.222 0 0 0-10.237 0l-5.259 5.26-30.347 8.569c-2.729.771-5.545 3.59-6.315 6.319l10.889 10.886-44.726 44.726V1050.49c0-4.01-3.23-7.237-7.24-7.237zm2.438 137.74h.01v.01h-.01z"
         stroke-width="1.534"
         id="path1251" /></clipPath><filter
       inkscape:menu-tooltip="In and out glow with a possible offset and colorizable flood"
       inkscape:menu="Shadows and Glows"
       inkscape:label="Cutout Glow"
       style="color-interpolation-filters:sRGB;"
       id="filter1537"
       x="-0.043339722"
       y="-0.018142189"
       width="1.0614819"
       height="1.0614819"><feOffset
         dy="10"
         dx="-10"
         id="feOffset1527" /><feGaussianBlur
         stdDeviation="3"
         result="blur"
         id="feGaussianBlur1529" /><feFlood
         flood-color="rgb(0,0,0)"
         flood-opacity="0"
         result="flood"
         id="feFlood1531" /><feComposite
         in="flood"
         in2="SourceGraphic"
         operator="in"
         result="composite"
         id="feComposite1533" /><feBlend
         in="blur"
         in2="composite"
         mode="normal"
         id="feBlend1535" /></filter><clipPath
       clipPathUnits="userSpaceOnUse"
       id="clipPath1539"><path
         id="path1541"
         d="m 656.4196,812.74037 a 10.404,10.404 0 0 0 -10.42828,10.42312 v 10.72803 l -22.1847,39.63063 c -1.99498,3.56499 -1.99498,9.30245 0,12.86742 h 22.1847 v 90.89881 l -64.37331,-64.37331 15.68896,-15.68378 c -1.11,-3.93099 -5.16924,-7.9902 -9.10023,-9.10021 l -43.71307,-12.3455 -7.58094,-7.57576 c -4.06704,-4.08485 -10.67622,-4.08485 -14.74327,0 l -4.97128,4.97128 c -2.04242,2.03351 -3.0644,4.70424 -3.0644,7.37422 a 10.405,10.405 0 0 0 0.1188,0.61495 c 0.1352,2.25123 0.99756,4.43007 2.589,6.22699 a 10.405,10.405 0 0 0 0.28937,0.69247 l 7.73081,7.7308 12.25764,43.39784 c 1.11,3.932 5.16821,7.99023 9.1002,9.10021 l 15.57012,-15.57009 64.48181,64.48182 h -91.121 v -22.18467 c -3.565,-1.99501 -9.30243,-1.99501 -12.86743,0 l -39.63581,22.18467 h -10.72284 a 10.4,10.4 0 0 0 -10.42315,10.42309 v 7.028 c 0,5.777 4.64613,10.4335 10.42315,10.4335 h 10.728 l 39.63065,22.1743 c 3.565,1.995 9.30243,1.995 12.86743,0 v -22.1743 h 91.01766 l -64.26478,64.2699 -15.68381,-15.6889 c -3.93099,1.11 -7.9902,5.1692 -9.1002,9.1002 l -12.34551,43.7183 -7.57576,7.5757 c -2.04372,2.0348 -3.0657,4.7077 -3.0644,7.3794 a 10.405,10.405 0 0 0 0.11377,0.5788 c 0.12912,2.2664 0.99965,4.456 2.60448,6.2632 a 10.405,10.405 0 0 0 0.28424,0.6873 l 4.97125,4.9712 a 10.405,10.405 0 0 0 0.82167,0.3411 c 1.68899,1.4171 3.67048,2.2122 5.7464,2.3874 a 10.405,10.405 0 0 0 1.49347,0.047 c 2.23742,-0.1376 4.40166,-0.9921 6.19082,-2.5684 a 10.405,10.405 0 0 0 0.49093,-0.2066 l 7.7928,-7.7928 43.5632,-12.299 c 3.931,-1.11 7.99023,-5.164 9.10024,-9.095 l -15.63729,-15.6321 64.32163,-64.3217 v 91.1211 h -22.18469 c -1.99499,3.565 -1.99499,9.3076 0,12.8726 l 22.18469,39.6306 v 10.7229 a 10.41,10.41 0 0 0 10.42829,10.4283 h 7.02283 a 10.41,10.41 0 0 0 10.43347,-10.4283 v -10.7229 l 22.18467,-39.6306 c 1.99501,-3.565 1.99501,-9.3076 0,-12.8726 h -22.18467 v -91.121 l 64.38363,64.3837 -15.57528,15.5701 c 1.11001,3.931 5.16925,7.985 9.10024,9.095 l 43.38233,12.2473 7.8445,7.8445 a 10.405,10.405 0 0 0 0.83714,0.3463 c 1.68584,1.4112 3.66043,2.2064 5.73093,2.3822 a 10.405,10.405 0 0 0 1.49859,0.047 c 2.23745,-0.1376 4.40169,-0.9921 6.19086,-2.5684 a 10.405,10.405 0 0 0 0.49093,-0.2066 L 802.73105,1149 a 10.405,10.405 0 0 0 2.12392,-3.2558 c 0.1905,-0.4185 0.28646,-0.8409 0.41857,-1.2763 a 10.405,10.405 0 0 0 0.39275,-2.0206 c 0.0638,-0.6654 0.0638,-1.2982 0,-1.9636 a 10.405,10.405 0 0 0 -0.23786,-1.2145 c -0.41143,-1.8875 -1.1642,-3.7131 -2.63549,-5.178 l -7.5861,-7.5861 -12.34032,-43.7079 c -1.11001,-3.931 -5.16406,-7.9902 -9.09505,-9.1001 l -15.68381,15.6888 -64.26478,-64.2699 h 90.8885 v 22.1744 c 3.56496,1.9949 9.30758,1.9949 12.87258,0 l 39.62546,-22.1744 h 10.73319 a 10.404,10.404 0 0 0 10.42313,-10.4335 v -7.028 a 10.4,10.4 0 0 0 -10.42313,-10.42303 h -10.72284 l -39.63581,-22.18469 c -3.565,-1.99501 -9.30762,-1.99501 -12.87258,0 v 22.18469 h -91.05386 v -0.0619 l 64.48184,-64.48181 15.63211,15.6321 c 3.93099,-1.10998 7.98504,-5.16921 9.09505,-9.10021 l 12.29896,-43.5632 7.56544,-7.56544 a 10.405,10.405 0 0 0 2.12392,-3.25043 c 0.19182,-0.4213 0.28598,-0.84828 0.41857,-1.28675 a 10.405,10.405 0 0 0 0.39274,-2.01538 c 0.0638,-0.66501 0.0638,-1.29871 0,-1.96371 a 10.405,10.405 0 0 0 -0.23786,-1.21439 c -0.41142,-1.88751 -1.16419,-3.71311 -2.63548,-5.17797 l -2.48563,-2.48563 -2.48565,-2.48565 c -4.06704,-4.08485 -10.67623,-4.08485 -14.74327,0 l -7.57576,7.58092 -43.71825,12.34034 c -3.93199,1.11001 -7.99023,5.17337 -9.10023,9.10537 l 15.68896,15.68381 -64.4353,64.43014 h -0.0619 v -90.96083 h 22.17953 c 1.99499,-3.56497 1.99499,-9.30243 0,-12.86742 l -22.17953,-39.63145 v -10.72803 a 10.404,10.404 0 0 0 -10.43334,-10.42357 z"
         style="fill:#970000;fill-opacity:1;stroke-width:1"
         inkscape:label="path78-8-0" /></clipPath></defs><path
     d="m-2758.546 269.702 24.453 34.897h517.576l14.375-11.25-104.69-501.167-31.462-17.601z"
     transform="matrix(-2.0051 0 0 2.0051 -4364.078 800.65)"
     opacity=".5"
     filter="url(#C)"
     id="path52" /><path
     d="M660.043 176.666 306.898 293.594l-167.217 974.019 13.3 73.818 20.099 16.718h973.903l20.099-16.718 13.324-73.818-167.217-974.019z"
     fill="url(#A)"
     id="path54" /><path
     d="M660.031 176.668 306.887 293.595l-167.217 974.02 13.312 73.816 20.099 16.719h973.903l20.099-16.719 13.312-73.816-167.217-974.019z"
     opacity=".25"
     fill="url(#B)"
     style="mix-blend-mode:overlay"
     id="path56" /><path
     d="m1159.664 1262.571-.043 21.064 20.75-16.013-20.707-5.052z"
     opacity=".8"
     fill="#fff"
     id="path58" /><path
     d="m1180.371 1267.622-20.75 16.013-12.637 74.514 20.099-16.718 13.288-73.808z"
     opacity=".6"
     id="path60" /><g
     fill="#fff"
     id="g66"><path
       d="m306.85 293.586 17.664 13.248L660 193.058v-16.402zM1013.15 293.586l-17.664 13.248L660 193.058v-16.402z"
       opacity=".3"
       id="path62" /><path
       d="m1013.15 293.586-17.664 13.248 164.177 955.737 20.707 5.052z"
       opacity=".3"
       id="path64" /></g><path
     d="m306.85 293.586 17.664 13.248-164.177 955.737-20.707 5.052z"
     opacity=".4"
     id="path68" /><path
     d="m139.629 1267.622 20.75 16.013 12.702 74.514-20.099-16.718-13.353-73.808z"
     opacity=".9"
     id="path70" /><path
     d="m160.337 1262.571.043 21.064-20.75-16.013 20.707-5.052z"
     opacity=".6"
     id="path72" /><path
     d="M160.337 1262.571h999.327l-.043 21.064H160.379l-.043-21.064z"
     opacity=".2"
     id="path74" /><path
     d="m1159.621 1283.635-12.637 74.514H173.081l-12.702-74.514h999.241z"
     opacity=".7"
     id="path76" /><path
     id="path78"
     d="M 656.41961 812.74075 A 10.404 10.404 0 0 0 645.99131 823.16388 L 645.99131 833.89191 L 623.80663 873.52255 C 621.81163 877.08754 621.81163 882.82498 623.80663 886.38997 L 645.99131 886.38997 L 645.99131 977.28878 L 581.618 912.91547 L 597.30696 897.23168 C 596.19696 893.30069 592.13774 889.24147 588.20675 888.13147 L 544.49367 875.78597 L 536.91274 868.21021 C 532.84569 864.12535 526.23651 864.12535 522.16946 868.21021 L 517.19819 873.18148 C 515.15576 875.215 514.13378 877.88572 514.13378 880.55571 A 10.405 10.405 0 0 0 514.25263 881.17065 C 514.38779 883.4219 515.25018 885.60074 516.84162 887.39766 A 10.405 10.405 0 0 0 517.13101 888.09013 L 524.8618 895.82092 L 537.11945 939.21877 C 538.22945 943.15076 542.28767 947.20898 546.21966 948.31898 L 561.78977 932.74888 L 626.27159 997.23071 L 535.15058 997.23071 L 535.15058 975.04602 C 531.58558 973.05102 525.84815 973.05102 522.28315 975.04602 L 482.64734 997.23071 L 471.92449 997.23071 A 10.4 10.4 0 0 0 461.50135 1007.6538 L 461.50135 1014.6818 C 461.50135 1020.4588 466.14749 1025.1153 471.92449 1025.1153 L 482.65251 1025.1153 L 522.28315 1047.2896 C 525.84815 1049.2846 531.58558 1049.2846 535.15058 1047.2896 L 535.15058 1025.1153 L 626.16824 1025.1153 L 561.90345 1089.3852 L 546.21966 1073.6963 C 542.28867 1074.8063 538.22945 1078.8655 537.11945 1082.7965 L 524.77395 1126.5148 L 517.19819 1134.0905 C 515.15447 1136.1253 514.13248 1138.7982 514.13378 1141.4699 A 10.405 10.405 0 0 0 514.24747 1142.0487 C 514.37669 1144.3151 515.24713 1146.5047 516.85196 1148.3119 A 10.405 10.405 0 0 0 517.13618 1148.9992 L 522.10745 1153.9704 A 10.405 10.405 0 0 0 522.9291 1154.3115 C 524.6181 1155.7286 526.59958 1156.5237 528.67552 1156.6989 A 10.405 10.405 0 0 0 530.16897 1156.7455 C 532.4064 1156.6078 534.57063 1155.7534 536.3598 1154.1771 A 10.405 10.405 0 0 0 536.85073 1153.9704 L 544.64353 1146.1776 L 588.20675 1133.8786 C 592.13774 1132.7686 596.19696 1128.7146 597.30696 1124.7836 L 581.66968 1109.1515 L 645.99131 1044.8298 L 645.99131 1135.9509 L 623.80663 1135.9509 C 621.81163 1139.5159 621.81163 1145.2585 623.80663 1148.8235 L 645.99131 1188.4541 L 645.99131 1199.177 A 10.41 10.41 0 0 0 656.41961 1209.6053 L 663.44243 1209.6053 A 10.41 10.41 0 0 0 673.8759 1199.177 L 673.8759 1188.4541 L 696.06058 1148.8235 C 698.05558 1145.2585 698.05558 1139.5159 696.06058 1135.9509 L 673.8759 1135.9509 L 673.8759 1044.8298 L 738.25954 1109.2135 L 722.68427 1124.7836 C 723.79427 1128.7146 727.85349 1132.7686 731.78449 1133.8786 L 775.16683 1146.1259 L 783.01131 1153.9704 A 10.405 10.405 0 0 0 783.84847 1154.3167 C 785.53431 1155.7279 787.50888 1156.5231 789.57938 1156.6989 A 10.405 10.405 0 0 0 791.078 1156.7455 C 793.31543 1156.6078 795.47967 1155.7534 797.26883 1154.1771 A 10.405 10.405 0 0 0 797.75976 1153.9704 L 802.73103 1148.9992 A 10.405 10.405 0 0 0 804.85493 1145.7435 C 805.04537 1145.325 805.14141 1144.9026 805.27351 1144.4671 A 10.405 10.405 0 0 0 805.66625 1142.4466 C 805.7302 1141.7812 805.73012 1141.1483 805.66625 1140.4829 A 10.405 10.405 0 0 0 805.42854 1139.2685 C 805.01711 1137.381 804.26434 1135.5554 802.79304 1134.0905 L 795.20695 1126.5044 L 782.86662 1082.7965 C 781.75662 1078.8655 777.70257 1074.8063 773.77157 1073.6963 L 758.08778 1089.3852 L 693.82299 1025.1153 L 784.71147 1025.1153 L 784.71147 1047.2896 C 788.27646 1049.2846 794.01906 1049.2846 797.58406 1047.2896 L 837.20953 1025.1153 L 847.94272 1025.1153 A 10.404 10.404 0 0 0 858.36585 1014.6818 L 858.36585 1007.6538 A 10.4 10.4 0 0 0 847.94272 997.23071 L 837.21987 997.23071 L 797.58406 975.04602 C 794.01906 973.05102 788.27646 973.05102 784.71147 975.04602 L 784.71147 997.23071 L 693.65763 997.23071 L 693.65763 997.16869 L 758.13946 932.68687 L 773.77157 948.31898 C 777.70257 947.20898 781.75662 943.14976 782.86662 939.21877 L 795.1656 895.65555 L 802.73103 888.09013 A 10.405 10.405 0 0 0 804.85493 884.83968 C 805.04664 884.4184 805.14092 883.99141 805.27351 883.55294 A 10.405 10.405 0 0 0 805.66625 881.53756 C 805.73008 880.87255 805.73008 880.23886 805.66625 879.57385 A 10.405 10.405 0 0 0 805.42854 878.35946 C 805.01711 876.47194 804.26434 874.64636 802.79304 873.18148 L 800.30741 870.69585 L 797.82177 868.21021 C 793.75473 864.12535 787.14554 864.12535 783.07849 868.21021 L 775.50273 875.79114 L 731.78449 888.13147 C 727.85249 889.24147 723.79427 893.30485 722.68427 897.23685 L 738.37323 912.92064 L 673.93791 977.35079 L 673.8759 977.35079 L 673.8759 886.38997 L 696.05542 886.38997 C 698.05041 882.82498 698.05041 877.08754 696.05542 873.52255 L 673.8759 833.89191 L 673.8759 823.16388 A 10.404 10.404 0 0 0 663.44243 812.74075 L 656.41961 812.74075 z "
     style="fill:#000000;fill-opacity:1" /><path
     id="path78-8"
     d="m 656.41961,812.74036 a 10.404,10.404 0 0 0 -10.4283,10.42313 v 10.72803 l -22.18468,39.63064 c -1.995,3.56499 -1.995,9.30243 0,12.86742 h 22.18468 v 90.89881 L 581.618,912.91508 597.30696,897.23129 c -1.11,-3.93099 -5.16922,-7.99021 -9.10021,-9.10021 l -43.71308,-12.3455 -7.58093,-7.57576 c -4.06705,-4.08486 -10.67623,-4.08486 -14.74328,0 l -4.97127,4.97127 c -2.04243,2.03352 -3.06441,4.70424 -3.06441,7.37423 a 10.405,10.405 0 0 0 0.11885,0.61494 c 0.13516,2.25125 0.99755,4.43009 2.58899,6.22701 a 10.405,10.405 0 0 0 0.28939,0.69247 l 7.73079,7.73079 12.25765,43.39785 c 1.11,3.93199 5.16822,7.99021 9.10021,9.10021 l 15.57011,-15.5701 64.48182,64.48183 h -91.12101 v -22.18469 c -3.565,-1.995 -9.30243,-1.995 -12.86743,0 l -39.63581,22.18469 h -10.72285 a 10.4,10.4 0 0 0 -10.42314,10.42308 v 7.028 c 0,5.777 4.64614,10.4335 10.42314,10.4335 h 10.72802 l 39.63064,22.1743 c 3.565,1.995 9.30243,1.995 12.86743,0 v -22.1743 h 91.01766 l -64.26479,64.2699 -15.68379,-15.6889 c -3.93099,1.11 -7.99021,5.1692 -9.10021,9.1002 l -12.3455,43.7183 -7.57576,7.5757 c -2.04372,2.0348 -3.06571,4.7077 -3.06441,7.3794 a 10.405,10.405 0 0 0 0.11369,0.5788 c 0.12922,2.2664 0.99966,4.456 2.60449,6.2632 a 10.405,10.405 0 0 0 0.28422,0.6873 l 4.97127,4.9712 a 10.405,10.405 0 0 0 0.82165,0.3411 c 1.689,1.4171 3.67048,2.2122 5.74642,2.3874 a 10.405,10.405 0 0 0 1.49345,0.047 c 2.23743,-0.1377 4.40166,-0.9921 6.19083,-2.5684 a 10.405,10.405 0 0 0 0.49093,-0.2067 l 7.7928,-7.7928 43.56322,-12.299 c 3.93099,-1.11 7.99021,-5.164 9.10021,-9.095 l -15.63728,-15.6321 64.32163,-64.3217 v 91.1211 h -22.18468 c -1.995,3.565 -1.995,9.3076 0,12.8726 l 22.18468,39.6306 v 10.7229 a 10.41,10.41 0 0 0 10.4283,10.4283 h 7.02282 a 10.41,10.41 0 0 0 10.43347,-10.4283 v -10.7229 l 22.18468,-39.6306 c 1.995,-3.565 1.995,-9.3076 0,-12.8726 H 673.8759 v -91.1211 l 64.38364,64.3837 -15.57527,15.5701 c 1.11,3.931 5.16922,7.985 9.10022,9.095 l 43.38234,12.2473 7.84448,7.8445 a 10.405,10.405 0 0 0 0.83716,0.3463 c 1.68584,1.4112 3.66041,2.2064 5.73091,2.3822 a 10.405,10.405 0 0 0 1.49862,0.047 c 2.23743,-0.1377 4.40167,-0.9921 6.19083,-2.5684 a 10.405,10.405 0 0 0 0.49093,-0.2067 l 4.97127,-4.9712 a 10.405,10.405 0 0 0 2.1239,-3.2557 c 0.19044,-0.4185 0.28648,-0.8409 0.41858,-1.2764 a 10.405,10.405 0 0 0 0.39274,-2.0205 c 0.0639,-0.6654 0.0639,-1.2983 0,-1.9637 a 10.405,10.405 0 0 0 -0.23771,-1.2144 c -0.41143,-1.8875 -1.1642,-3.7131 -2.6355,-5.178 l -7.58609,-7.5861 -12.34033,-43.7079 c -1.11,-3.931 -5.16405,-7.9902 -9.09505,-9.1002 l -15.68379,15.6889 -64.26479,-64.2699 h 90.88848 v 22.1743 c 3.56499,1.995 9.30759,1.995 12.87259,0 l 39.62547,-22.1743 h 10.73319 a 10.404,10.404 0 0 0 10.42313,-10.4335 v -7.028 a 10.4,10.4 0 0 0 -10.42313,-10.42308 h -10.72285 l -39.63581,-22.18469 c -3.565,-1.995 -9.3076,-1.995 -12.87259,0 v 22.18469 h -91.05384 v -0.062 l 64.48183,-64.48182 15.63211,15.63211 c 3.931,-1.11 7.98505,-5.16922 9.09505,-9.10021 l 12.29898,-43.56322 7.56543,-7.56542 a 10.405,10.405 0 0 0 2.1239,-3.25045 c 0.19171,-0.42128 0.28599,-0.84827 0.41858,-1.28674 a 10.405,10.405 0 0 0 0.39274,-2.01538 c 0.0638,-0.66501 0.0638,-1.2987 0,-1.96371 a 10.405,10.405 0 0 0 -0.23771,-1.21439 c -0.41143,-1.88752 -1.1642,-3.7131 -2.6355,-5.17798 l -2.48563,-2.48563 -2.48564,-2.48564 c -4.06704,-4.08486 -10.67623,-4.08486 -14.74328,0 l -7.57576,7.58093 -43.71824,12.34033 c -3.932,1.11 -7.99022,5.17338 -9.10022,9.10538 l 15.68896,15.68379 -64.43532,64.43015 h -0.062 V 886.3904 h 22.17952 c 1.99499,-3.56499 1.99499,-9.30243 0,-12.86742 L 673.8759,833.89152 v -10.72803 a 10.404,10.404 0 0 0 -10.43347,-10.42313 z"
     style="fill:#29303d;fill-opacity:1;filter:url(#filter1537)"
     clip-path="url(#clipPath1539)" /><path
     d="m 881.83677,606.79251 q -0.98954,1.97908 -0.98954,3.95816 0,1.48432 0,3.4634 0,1.48431 -0.49477,3.95817 0,1.97908 -0.49477,4.94771 -3.4634,3.46339 -9.89542,5.44248 -5.93726,1.48431 -9.40065,5.44248 -22.75947,-1.48431 -43.04508,-6.43202 -19.79084,-5.44248 -31.17057,-15.3379 -6.9268,-6.43203 -14.34836,-18.8013 -6.9268,-12.36928 -18.30653,-18.8013 -8.90588,1.97908 -17.81175,2.96863 -8.41111,0.49477 -16.82222,0.49477 -11.37973,0 -22.26469,1.48431 -10.88497,0.98954 -21.27516,5.93725 2.47386,16.82222 -1.48431,33.14966 -3.95817,16.32744 -15.83267,24.24378 -8.90588,-1.48432 -12.86405,-8.90588 -3.46339,-7.42157 -3.95817,-17.31698 -0.49477,-9.89542 0,-19.29607 0,-1.97909 0,-3.95817 0,-2.47386 0,-4.45294 -5.93725,-3.95817 -13.35881,-4.45294 -7.42157,-0.98954 -15.3379,-0.98954 -1.48432,0 -2.47386,0 -9.40065,0 -18.30652,-2.47386 -8.90588,-2.47385 -13.85359,-11.8745 -8.41111,7.42156 -14.34836,13.35882 -5.93725,5.44248 -10.39019,13.85358 -5.44248,-1.97908 -6.9268,-0.49477 -1.48431,0.98955 -2.47385,3.4634 -0.98954,2.47386 -2.96863,4.45294 -1.48431,1.97908 -6.43202,1.48431 0,2.96863 -1.48431,3.95817 -0.98955,0.98954 -3.4634,1.97908 -0.98954,0.49478 -2.47386,1.48432 -1.48431,0.49477 -2.47385,1.48431 -4.94771,3.95817 -9.40065,8.90588 -4.45294,4.94771 -10.39019,8.90588 -2.47385,5.93725 -10.88496,9.40064 -7.91634,3.4634 -18.30653,4.45294 -10.39019,0.98955 -19.79084,0.49477 1.48431,-2.47385 2.96863,-2.47385 1.48431,0 3.46339,0.49477 0.98955,0 2.47386,0.49477 1.48431,0 2.96863,0 -0.98955,-3.95817 -2.96863,-3.95817 -1.48431,-0.49477 -3.95817,0.49477 -2.96862,0.98955 -4.94771,1.48432 -2.47385,-1.48432 -5.44248,-0.98954 -2.47385,0 -4.94771,0.49477 -1.97908,0.49477 -4.45294,0.98954 -1.97908,0 -3.95817,-0.49477 0,-4.45294 6.9268,-5.93725 7.42156,-1.97909 14.34836,-3.95817 7.42156,-1.97909 7.42156,-6.43203 1.97909,1.97909 7.42157,1.97909 5.44248,-5.44248 9.40065,-12.36928 4.45293,-6.92679 15.3379,-7.42156 -0.49477,-2.96863 0.49477,-4.94771 1.48431,-1.97908 1.48431,-1.97908 3.4634,1.97908 5.44248,0.98954 1.97908,-0.98954 3.95817,-2.47386 1.48431,-1.48431 2.96862,-2.47385 1.97909,-1.48432 4.94771,-1.48432 -0.49477,-2.96862 -3.46339,-2.47385 -1.97909,0.49477 -2.47386,-1.48431 1.48432,-2.96863 2.96863,-2.47386 1.97908,0 3.95817,0.98954 1.97908,0.98955 2.96862,1.48432 0.49477,-2.47386 -1.48431,-3.4634 -1.97908,-0.98954 -3.95817,-1.48431 -1.97908,-0.49477 -2.47385,-0.49477 1.97908,-2.47386 5.93725,-1.97909 4.45294,0.49477 5.44248,-2.96862 0,-1.97909 -1.97908,-0.98955 -0.98955,0.98955 -2.47386,1.48432 -0.98954,0.49477 -2.96863,-0.49477 7.91634,-8.41111 15.83268,-16.32745 8.4111,-7.91633 18.30652,-14.34836 0.98955,-12.86404 9.89542,-25.72809 8.90588,-12.86404 19.29607,-26.71763 10.39019,-13.85359 14.84313,-28.69672 -5.93725,-2.47385 -14.84313,-0.98954 -8.4111,1.48431 -17.31698,3.95817 -8.41111,2.47385 -16.32745,3.95816 -7.91633,1.48432 -14.34835,0.49478 0.49477,-7.42157 -3.95817,-12.36928 -4.45294,-5.44248 -9.89542,-10.39019 -5.93725,-5.44248 -11.37974,-11.37973 -5.44248,-6.43203 -5.44248,-16.32745 6.9268,-1.48431 13.85359,0.49477 7.42157,1.97909 14.84313,4.45294 5.44248,1.97909 10.88496,3.95817 5.93726,1.48431 11.87451,1.97909 6.92679,0.49477 17.81175,0.49477 10.88497,0 20.78039,-0.98955 10.39019,-1.48431 14.84313,-3.46339 5.93725,-2.96863 7.42156,-11.87451 1.97908,-9.40065 0.98954,-20.28561 -0.49477,-10.88496 -2.47385,-19.79084 -0.49477,-1.97908 -1.97909,-4.45294 -0.98954,-2.96862 -2.47385,-5.93725 -2.96863,-5.93725 -5.93725,-12.86404 -2.96863,-6.9268 -2.96863,-12.86405 3.95817,-1.48431 5.44248,-5.44248 15.83267,12.86405 33.14966,24.73855 17.31698,11.37973 28.20194,29.19149 -4.94771,6.43202 -5.93725,16.82221 -0.98954,10.39019 -1.97908,15.83267 11.8745,0.49477 23.74901,-0.49477 11.8745,-0.98954 23.749,-1.97908 9.89542,-1.48431 19.79084,-1.97909 9.89542,-0.98954 19.79084,-0.98954 14.34836,0 28.20195,2.96863 13.85359,2.96862 26.22286,11.37973 5.93726,7.91634 3.95817,11.87451 -1.97908,3.46339 -5.44248,6.43202 -0.98954,1.48431 -2.47385,2.47385 -0.98955,0.98955 -1.97909,2.47386 -21.27515,-1.48431 -46.0137,-0.98954 -24.24378,0 -47.49802,2.96862 5.44248,6.9268 12.36928,11.37974 6.92679,4.45293 13.35882,8.90587 6.43202,4.45294 10.39019,11.87451 10.39019,1.97908 14.84313,10.39019 4.45294,7.91633 11.8745,13.35881 10.88496,7.91634 24.73855,13.35882 13.85359,4.94771 27.70718,10.39019 13.85358,4.94771 24.24377,13.85359 4.94771,9.40065 12.36928,16.82221 7.91634,7.42157 16.32744,13.85359 0.98954,7.91634 5.44248,11.87451 4.45294,3.95816 7.91634,9.40065 z m -44.03462,59.37251 q 0.98954,2.47386 0.49477,3.95817 -0.49477,0.98954 -1.97908,1.97909 -1.97909,1.48431 -2.47386,3.46339 -11.37973,1.97909 -21.76992,1.48432 -9.89542,-0.49477 -19.79084,-1.48432 -9.40065,-0.49477 -18.8013,-0.98954 -9.40065,-0.49477 -19.79084,0.98954 -0.98954,9.40065 -0.98954,20.28561 0,10.3902 0.49477,20.78039 0,5.44248 0,10.88496 0.49477,4.94771 0.49477,10.39019 0,20.28561 -3.4634,38.09737 -2.96862,18.30652 -15.3379,28.69671 -8.90587,-3.95816 -12.86404,-17.31698 -3.95817,-12.86405 -4.94771,-28.69672 -0.98954,-15.3379 -1.48432,-25.72809 0,-6.43202 0,-12.36928 0,-5.93725 0.49478,-11.8745 0.49477,-8.90588 0.49477,-16.82221 0,-7.91634 -0.98955,-14.84313 -13.85358,-3.4634 -30.6758,-1.97909 -16.32744,0.98954 -33.64443,2.96863 -9.89542,0.98954 -19.79083,1.97908 -9.40065,0.98954 -18.8013,0.98954 -0.98954,32.16012 -10.88496,52.9405 -9.89542,20.78038 -19.79084,35.12874 -3.4634,4.94771 -8.90588,9.40065 -5.44248,4.45294 -13.85359,10.39019 -0.49477,-0.49477 -2.96863,0 -1.97908,0.49477 -3.95816,0.49477 -1.48432,0 -2.96863,-2.47385 0.98954,-4.45294 2.96863,-10.39019 2.47385,-5.93726 4.94771,-12.36928 6.43202,-16.82221 12.36927,-37.10782 6.43202,-20.28561 4.94771,-39.08691 -5.93725,-0.98954 -11.8745,1.97908 -5.44248,2.96863 -9.40065,6.9268 -20.28561,-3.4634 -32.65489,-14.34836 -12.36927,-10.88496 -22.75946,-23.25424 3.95816,-0.98954 7.42156,-0.98954 3.4634,0 6.92679,0 5.44249,0 9.89542,-0.49477 4.94771,-0.49477 8.41111,-5.93725 4.45294,4.45293 12.86405,4.45293 8.90588,-0.49477 17.31698,-1.48431 4.94771,-0.98954 9.40065,-0.98954 4.45294,-0.49477 7.91634,0 1.48431,-9.40065 -2.47386,-16.82221 -3.46339,-7.42157 -7.91633,-14.84313 -2.96863,-4.45294 -5.93726,-8.90588 -2.47385,-4.94771 -4.45293,-9.89542 11.8745,-2.47386 27.70717,1.48431 16.32744,3.95817 25.23332,15.3379 9.40065,11.87451 4.45294,30.18103 23.25424,0 46.50847,-1.97908 23.74901,-2.47386 50.46665,-3.4634 0.98954,-9.89542 -0.98955,-20.78038 -1.48431,-11.37973 -3.46339,-21.27515 -0.98954,-5.93725 -1.97909,-11.37974 -0.98954,-5.44248 -0.98954,-9.40064 2.96863,1.48431 5.93725,2.96862 2.96863,0.98954 5.93726,2.47386 11.37973,4.94771 22.26469,10.88496 10.88496,5.93725 17.31699,15.3379 6.43202,8.90588 3.95816,23.74901 18.8013,0.49477 40.07645,7.42156 21.27516,6.9268 38.09737,21.27515 z M 749.73291,565.72651 q 0,0 -7.91633,-8.90588 -7.42157,-8.90587 -19.29607,-23.749 Q 710.646,518.2285 696.79242,500.41674 683.4336,482.11021 671.5591,463.30892 q -4.45294,0.49477 -10.3902,0.49477 -5.93725,0 -10.39019,0.98954 -0.49477,1.48431 -2.47385,3.95817 -3.4634,5.93725 -6.9268,12.86404 -3.46339,6.9268 -1.97908,11.87451 9.40065,3.95816 19.79084,10.88496 10.39019,6.92679 16.32744,17.31698 6.43203,10.39019 3.95817,24.24378 12.86405,-0.49477 27.21241,4.45294 14.34836,4.45294 26.71763,9.40065 4.94771,1.97908 8.90588,3.4634 3.95817,1.48431 7.42156,2.47385 z M 639.39898,551.37815 q 0.98954,-8.90587 -1.97908,-24.24378 -2.47386,-15.83267 -7.91634,-28.20194 -1.97908,1.97908 -5.44248,5.44248 -2.96863,2.96862 -5.93725,5.44248 1.48431,1.97908 3.95817,0.98954 1.48431,-0.98954 1.97908,0.98954 -0.49477,1.48432 -1.97908,2.47386 -0.98955,0.98954 -2.47386,1.48431 -1.97908,0.98954 -2.96862,2.47386 -0.98955,0.98954 1.48431,4.45294 h -7.42157 q 0.98955,2.47385 0,5.44248 -0.49477,2.47385 -5.93725,1.48431 0.49477,1.97908 0,3.4634 -0.49477,0.98954 -0.98954,2.47385 -0.49477,0.98954 -0.98954,2.96863 -0.49477,1.48431 0,3.95817 -4.94771,0 -8.41111,5.44248 -3.4634,4.94771 -6.43202,8.90587 14.34836,0 25.72809,-2.47385 11.8745,-2.47386 25.72809,-2.96863 z"
     id="path1093-4"
     style="font-size:494.771px;font-family:'Yuji Mai';-inkscape-font-specification:'Yuji Mai';fill:#000000;fill-opacity:1;stroke-width:21.1667" /><path
     d="m 881.83676,606.7925 q -0.98954,1.97908 -0.98954,3.95816 0,1.48432 0,3.4634 0,1.48431 -0.49477,3.95817 0,1.97908 -0.49477,4.94771 -3.4634,3.46339 -9.89542,5.44248 -5.93726,1.48431 -9.40065,5.44248 -22.75947,-1.48431 -43.04508,-6.43202 -19.79084,-5.44248 -31.17057,-15.3379 -6.9268,-6.43203 -14.34836,-18.8013 -6.9268,-12.36928 -18.30653,-18.8013 -8.90588,1.97908 -17.81175,2.96863 -8.41111,0.49477 -16.82222,0.49477 -11.37973,0 -22.26469,1.48431 -10.88497,0.98954 -21.27516,5.93725 2.47386,16.82222 -1.48431,33.14966 -3.95817,16.32744 -15.83267,24.24378 -8.90588,-1.48432 -12.86405,-8.90588 -3.46339,-7.42157 -3.95817,-17.31698 -0.49477,-9.89542 0,-19.29607 0,-1.97909 0,-3.95817 0,-2.47386 0,-4.45294 -5.93725,-3.95817 -13.35881,-4.45294 -7.42157,-0.98954 -15.3379,-0.98954 -1.48432,0 -2.47386,0 -9.40065,0 -18.30652,-2.47386 -8.90588,-2.47385 -13.85359,-11.8745 -8.41111,7.42156 -14.34836,13.35882 -5.93725,5.44248 -10.39019,13.85358 -5.44248,-1.97908 -6.9268,-0.49477 -1.48431,0.98955 -2.47385,3.4634 -0.98954,2.47386 -2.96863,4.45294 -1.48431,1.97908 -6.43202,1.48431 0,2.96863 -1.48431,3.95817 -0.98955,0.98954 -3.4634,1.97908 -0.98954,0.49478 -2.47386,1.48432 -1.48431,0.49477 -2.47385,1.48431 -4.94771,3.95817 -9.40065,8.90588 -4.45294,4.94771 -10.39019,8.90588 -2.47385,5.93725 -10.88496,9.40064 -7.91634,3.4634 -18.30653,4.45294 -10.39019,0.98955 -19.79084,0.49477 1.48431,-2.47385 2.96863,-2.47385 1.48431,0 3.46339,0.49477 0.98955,0 2.47386,0.49477 1.48431,0 2.96863,0 -0.98955,-3.95817 -2.96863,-3.95817 -1.48431,-0.49477 -3.95817,0.49477 -2.96862,0.98955 -4.94771,1.48432 -2.47385,-1.48432 -5.44248,-0.98954 -2.47385,0 -4.94771,0.49477 -1.97908,0.49477 -4.45294,0.98954 -1.97908,0 -3.95817,-0.49477 0,-4.45294 6.9268,-5.93725 7.42156,-1.97909 14.34836,-3.95817 7.42156,-1.97909 7.42156,-6.43203 1.97909,1.97909 7.42157,1.97909 5.44248,-5.44248 9.40065,-12.36928 4.45293,-6.92679 15.3379,-7.42156 -0.49477,-2.96863 0.49477,-4.94771 1.48431,-1.97908 1.48431,-1.97908 3.4634,1.97908 5.44248,0.98954 1.97908,-0.98954 3.95817,-2.47386 1.48431,-1.48431 2.96862,-2.47385 1.97909,-1.48432 4.94771,-1.48432 -0.49477,-2.96862 -3.46339,-2.47385 -1.97909,0.49477 -2.47386,-1.48431 1.48432,-2.96863 2.96863,-2.47386 1.97908,0 3.95817,0.98954 1.97908,0.98955 2.96862,1.48432 0.49477,-2.47386 -1.48431,-3.4634 -1.97908,-0.98954 -3.95817,-1.48431 -1.97908,-0.49477 -2.47385,-0.49477 1.97908,-2.47386 5.93725,-1.97909 4.45294,0.49477 5.44248,-2.96862 0,-1.97909 -1.97908,-0.98955 -0.98955,0.98955 -2.47386,1.48432 -0.98954,0.49477 -2.96863,-0.49477 7.91634,-8.41111 15.83268,-16.32745 8.4111,-7.91633 18.30652,-14.34836 0.98955,-12.86404 9.89542,-25.72809 8.90588,-12.86404 19.29607,-26.71763 10.39019,-13.85359 14.84313,-28.69672 -5.93725,-2.47385 -14.84313,-0.98954 -8.4111,1.48431 -17.31698,3.95817 -8.41111,2.47385 -16.32745,3.95816 -7.91633,1.48432 -14.34835,0.49478 0.49477,-7.42157 -3.95817,-12.36928 -4.45294,-5.44248 -9.89542,-10.39019 -5.93725,-5.44248 -11.37974,-11.37973 -5.44248,-6.43203 -5.44248,-16.32745 6.9268,-1.48431 13.85359,0.49477 7.42157,1.97909 14.84313,4.45294 5.44248,1.97909 10.88496,3.95817 5.93726,1.48431 11.87451,1.97909 6.92679,0.49477 17.81175,0.49477 10.88497,0 20.78039,-0.98955 10.39019,-1.48431 14.84313,-3.46339 5.93725,-2.96863 7.42156,-11.87451 1.97908,-9.40065 0.98954,-20.28561 -0.49477,-10.88496 -2.47385,-19.79084 -0.49477,-1.97908 -1.97909,-4.45294 -0.98954,-2.96862 -2.47385,-5.93725 -2.96863,-5.93725 -5.93725,-12.86404 -2.96863,-6.9268 -2.96863,-12.86405 3.95817,-1.48431 5.44248,-5.44248 15.83267,12.86405 33.14966,24.73855 17.31698,11.37973 28.20194,29.19149 -4.94771,6.43202 -5.93725,16.82221 -0.98954,10.39019 -1.97908,15.83267 11.8745,0.49477 23.74901,-0.49477 11.8745,-0.98954 23.749,-1.97908 9.89542,-1.48431 19.79084,-1.97909 9.89542,-0.98954 19.79084,-0.98954 14.34836,0 28.20195,2.96863 13.85359,2.96862 26.22286,11.37973 5.93726,7.91634 3.95817,11.87451 -1.97908,3.46339 -5.44248,6.43202 -0.98954,1.48431 -2.47385,2.47385 -0.98955,0.98955 -1.97909,2.47386 -21.27515,-1.48431 -46.0137,-0.98954 -24.24378,0 -47.49802,2.96862 5.44248,6.9268 12.36928,11.37974 6.92679,4.45293 13.35882,8.90587 6.43202,4.45294 10.39019,11.87451 10.39019,1.97908 14.84313,10.39019 4.45294,7.91633 11.8745,13.35881 10.88496,7.91634 24.73855,13.35882 13.85359,4.94771 27.70718,10.39019 13.85358,4.94771 24.24377,13.85359 4.94771,9.40065 12.36928,16.82221 7.91634,7.42157 16.32744,13.85359 0.98954,7.91634 5.44248,11.87451 4.45294,3.95816 7.91634,9.40065 z m -44.03462,59.37251 q 0.98954,2.47386 0.49477,3.95817 -0.49477,0.98954 -1.97908,1.97909 -1.97909,1.48431 -2.47386,3.46339 -11.37973,1.97909 -21.76992,1.48432 -9.89542,-0.49477 -19.79084,-1.48432 -9.40065,-0.49477 -18.8013,-0.98954 -9.40065,-0.49477 -19.79084,0.98954 -0.98954,9.40065 -0.98954,20.28561 0,10.3902 0.49477,20.78039 0,5.44248 0,10.88496 0.49477,4.94771 0.49477,10.39019 0,20.28561 -3.4634,38.09737 -2.96862,18.30652 -15.3379,28.69671 -8.90587,-3.95816 -12.86404,-17.31698 -3.95817,-12.86405 -4.94771,-28.69672 -0.98954,-15.3379 -1.48432,-25.72809 0,-6.43202 0,-12.36928 0,-5.93725 0.49478,-11.8745 0.49477,-8.90588 0.49477,-16.82221 0,-7.91634 -0.98955,-14.84313 -13.85358,-3.4634 -30.6758,-1.97909 -16.32744,0.98954 -33.64443,2.96863 -9.89542,0.98954 -19.79083,1.97908 -9.40065,0.98954 -18.8013,0.98954 -0.98954,32.16012 -10.88496,52.9405 -9.89542,20.78038 -19.79084,35.12874 -3.4634,4.94771 -8.90588,9.40065 -5.44248,4.45294 -13.85359,10.39019 -0.49477,-0.49477 -2.96863,0 -1.97908,0.49477 -3.95816,0.49477 -1.48432,0 -2.96863,-2.47385 0.98954,-4.45294 2.96863,-10.39019 2.47385,-5.93726 4.94771,-12.36928 6.43202,-16.82221 12.36927,-37.10782 6.43202,-20.28561 4.94771,-39.08691 -5.93725,-0.98954 -11.8745,1.97908 -5.44248,2.96863 -9.40065,6.9268 -20.28561,-3.4634 -32.65489,-14.34836 -12.36927,-10.88496 -22.75946,-23.25424 3.95816,-0.98954 7.42156,-0.98954 3.4634,0 6.92679,0 5.44249,0 9.89542,-0.49477 4.94771,-0.49477 8.41111,-5.93725 4.45294,4.45293 12.86405,4.45293 8.90588,-0.49477 17.31698,-1.48431 4.94771,-0.98954 9.40065,-0.98954 4.45294,-0.49477 7.91634,0 1.48431,-9.40065 -2.47386,-16.82221 -3.46339,-7.42157 -7.91633,-14.84313 -2.96863,-4.45294 -5.93726,-8.90588 -2.47385,-4.94771 -4.45293,-9.89542 11.8745,-2.47386 27.70717,1.48431 16.32744,3.95817 25.23332,15.3379 9.40065,11.87451 4.45294,30.18103 23.25424,0 46.50847,-1.97908 23.74901,-2.47386 50.46665,-3.4634 0.98954,-9.89542 -0.98955,-20.78038 -1.48431,-11.37973 -3.46339,-21.27515 -0.98954,-5.93725 -1.97909,-11.37974 -0.98954,-5.44248 -0.98954,-9.40064 2.96863,1.48431 5.93725,2.96862 2.96863,0.98954 5.93726,2.47386 11.37973,4.94771 22.26469,10.88496 10.88496,5.93725 17.31699,15.3379 6.43202,8.90588 3.95816,23.74901 18.8013,0.49477 40.07645,7.42156 21.27516,6.9268 38.09737,21.27515 z M 749.7329,565.7265 q 0,0 -7.91633,-8.90588 -7.42157,-8.90587 -19.29607,-23.749 -11.87451,-14.84313 -25.72809,-32.65489 -13.35882,-18.30653 -25.23332,-37.10782 -4.45294,0.49477 -10.3902,0.49477 -5.93725,0 -10.39019,0.98954 -0.49477,1.48431 -2.47385,3.95817 -3.4634,5.93725 -6.9268,12.86404 -3.46339,6.9268 -1.97908,11.87451 9.40065,3.95816 19.79084,10.88496 10.39019,6.92679 16.32744,17.31698 6.43203,10.39019 3.95817,24.24378 12.86405,-0.49477 27.21241,4.45294 14.34836,4.45294 26.71763,9.40065 4.94771,1.97908 8.90588,3.4634 3.95817,1.48431 7.42156,2.47385 z M 639.39897,551.37814 q 0.98954,-8.90587 -1.97908,-24.24378 -2.47386,-15.83267 -7.91634,-28.20194 -1.97908,1.97908 -5.44248,5.44248 -2.96863,2.96862 -5.93725,5.44248 1.48431,1.97908 3.95817,0.98954 1.48431,-0.98954 1.97908,0.98954 -0.49477,1.48432 -1.97908,2.47386 -0.98955,0.98954 -2.47386,1.48431 -1.97908,0.98954 -2.96862,2.47386 -0.98955,0.98954 1.48431,4.45294 h -7.42157 q 0.98955,2.47385 0,5.44248 -0.49477,2.47385 -5.93725,1.48431 0.49477,1.97908 0,3.4634 -0.49477,0.98954 -0.98954,2.47385 -0.49477,0.98954 -0.98954,2.96863 -0.49477,1.48431 0,3.95817 -4.94771,0 -8.41111,5.44248 -3.4634,4.94771 -6.43202,8.90587 14.34836,0 25.72809,-2.47385 11.8745,-2.47386 25.72809,-2.96863 z"
     id="path1093"
     style="font-size:494.771px;font-family:'Yuji Mai';-inkscape-font-specification:'Yuji Mai';fill:#29303d;stroke-width:21.1667;fill-opacity:1;filter:url(#filter1156)"
     clip-path="url(#clipPath1158)" /><path
     d="m 546.77353,473.94955 c 4.983,-1.514 10.136,-11.019 10.678,-15.676 0.542,-4.657 -3.531,-4.465 -8.516,-2.953 -4.985,1.512 -10.881,4.346 -11.42,9.004 -0.539,4.658 4.275,11.138 9.258,9.624 z"
     filter="url(#J)"
     id="path88"
     style="fill:#ffffff"
     transform="rotate(-90,545.22937,468.9868)" /><path
     d="m 532.63459,682.93179 c -2.203,-4.177 5.823,-5.795 12.039,-2.427 6.216,3.368 10.62,11.719 6.608,12.528 -4.012,0.809 -16.444,-5.923 -18.647,-10.1 z"
     filter="url(#L)"
     id="path90"
     style="fill:#ffffff" /><path
     d="m 800.98251,611.01949 c 1.006,-3.696 12.492,-4.304 20.699,-2.637 8.207,1.667 13.132,5.608 12.125,9.301 -1.007,3.693 -7.945,7.142 -16.15,5.477 -8.205,-1.665 -17.68,-8.446 -16.674,-12.141 z"
     filter="url(#I)"
     id="path92"
     style="fill:#ffffff" /><path
     d="m 726.37128,790.39998 c 0.039,-2.171 2.454,-3.712 5.045,-3.099 2.591,0.613 5.356,3.378 5.315,5.546 -0.041,2.168 -2.885,3.74 -5.474,3.13 -2.589,-0.61 -4.925,-3.407 -4.886,-5.577 z"
     filter="url(#H)"
     id="path94"
     style="fill:#ffffff" /><style
     id="style1203">.B{color-interpolation-filters:sRGB}</style></svg>
