<?xml version="1.0" encoding="UTF-8" standalone="no"?>
<svg
   width="498.898"
   height="544.252"
   viewBox="0 0 1320 1440"
   version="1.1"
   id="svg421"
   sodipodi:docname="wV.svg"
   inkscape:version="1.2.2 (732a01da63, 2022-12-09)"
   xmlns:inkscape="http://www.inkscape.org/namespaces/inkscape"
   xmlns:sodipodi="http://sodipodi.sourceforge.net/DTD/sodipodi-0.dtd"
   xmlns="http://www.w3.org/2000/svg"
   xmlns:svg="http://www.w3.org/2000/svg">
  <sodipodi:namedview
     id="namedview423"
     pagecolor="#ffffff"
     bordercolor="#000000"
     borderopacity="0.25"
     inkscape:showpageshadow="2"
     inkscape:pageopacity="0.0"
     inkscape:pagecheckerboard="0"
     inkscape:deskcolor="#d1d1d1"
     showgrid="false"
     inkscape:zoom="1.0082"
     inkscape:cx="515.27476"
     inkscape:cy="372.94189"
     inkscape:window-width="1920"
     inkscape:window-height="974"
     inkscape:window-x="-11"
     inkscape:window-y="-11"
     inkscape:window-maximized="1"
     inkscape:current-layer="svg421" />
  <style
     id="style325">.B{color-interpolation-filters:sRGB}</style>
  <defs
     id="defs373">
    <filter
       id="C"
       x="-0.01110353"
       y="-0.011243256"
       width="1.0222071"
       height="1.0224865"
       class="B">
      <feGaussianBlur
         stdDeviation="2.441"
         id="feGaussianBlur327" />
    </filter>
    <filter
       id="D"
       x="-0.044582165"
       y="-0.051981172"
       width="1.0891643"
       height="1.1039623"
       class="B">
      <feGaussianBlur
         stdDeviation="8.635"
         id="feGaussianBlur330" />
    </filter>
    <filter
       id="G"
       x="-0.052321729"
       y="-0.044333314"
       width="1.1046435"
       height="1.0886666"
       class="B">
      <feGaussianBlur
         stdDeviation="6.784"
         id="feGaussianBlur333" />
    </filter>
    <filter
       id="H"
       x="-0.28694713"
       y="-0.30485973"
       width="1.5738943"
       height="1.6097195"
       class="B">
      <feGaussianBlur
         stdDeviation="1.688"
         id="feGaussianBlur336" />
    </filter>
    <filter
       id="I"
       x="-0.34932089"
       y="-0.38465625"
       width="1.6986418"
       height="1.7693125"
       class="B">
      <feGaussianBlur
         stdDeviation="1.688"
         id="feGaussianBlur339" />
    </filter>
    <filter
       id="J"
       x="-0.29422404"
       y="-0.54109355"
       width="1.5884481"
       height="2.0821871"
       class="B">
      <feGaussianBlur
         stdDeviation="1.688"
         id="feGaussianBlur342" />
    </filter>
    <filter
       id="K"
       x="-0.21468687"
       y="-0.32268743"
       width="1.4293737"
       height="1.6453749"
       class="B">
      <feGaussianBlur
         stdDeviation="1.688"
         id="feGaussianBlur345" />
    </filter>
    <filter
       id="L"
       x="-0.29418135"
       y="-0.45605182"
       width="1.5883627"
       height="1.9121036"
       class="B">
      <feGaussianBlur
         stdDeviation="1.688"
         id="feGaussianBlur348" />
    </filter>
    <linearGradient
       id="A"
       x1="-1430.769"
       y1="-77.47"
       x2="-1409.955"
       y2="-77.47"
       spreadMethod="reflect"
       gradientUnits="userSpaceOnUse">
      <stop
         offset="0"
         stop-color="#ffd285"
         id="stop351" />
      <stop
         offset=".232"
         stop-color="#ffcd79"
         id="stop353" />
      <stop
         offset=".616"
         stop-color="#ffca73"
         id="stop355" />
      <stop
         offset=".808"
         stop-color="#ffd386"
         id="stop357" />
      <stop
         offset="1"
         stop-color="#ffc86e"
         id="stop359" />
    </linearGradient>
    <linearGradient
       id="B"
       x1="-899.905"
       y1="-344.262"
       x2="-899.906"
       y2="125.211"
       gradientUnits="userSpaceOnUse">
      <stop
         offset=".597"
         stop-color="#fff"
         id="stop362" />
      <stop
         offset="1"
         id="stop364" />
    </linearGradient>
    <clipPath
       id="E">
      <path
         d="M895.511 704.042c-3.776-55.22-81.178-64.187-112.8-108.08 27.374-10.855 64.187-14.631 83.066-34.454-6.608-23.598-27.846-25.958-42.949-27.374 3.776-4.248 6.608-8.967 7.552-15.575-.472-16.047 6.136-92.977 23.126-104.305 4.72-3.304 11.327-1.888 16.991-8.967-16.519-25.486-48.613-60.412-87.314-35.397-28.79.944-59.468 7.079-79.762 8.967-17.935 1.888-32.566-13.215-50.028-8.495-3.304 11.327 6.608 19.823 11.799 26.43 6.136 21.71 10.855 52.86 11.799 86.37 0 2.832 4.248.944 3.304 4.72-.472 55.22.472 122.239-7.08 192.09-7.551-4.72-16.047-5.664-21.71.944 8.967 13.215 19.823 43.421 52.388 42.005 2.36-2.832 3.776-6.136 6.136-10.383 25.486-16.991 49.084-39.173 77.402-60.412 12.743 15.103 31.15 38.701 43.893 63.243 26.43 8.023 50.028 9.439 64.187-11.327zm-235.039-96.753c.472-13.215-34.454-53.804-42.949-35.869 2.36 5.192 4.72 9.439 6.608 15.103 1.888 21.238-11.327 51.444-21.239 77.402 12.271 0 17.463-9.439 25.014-.944 8.967-11.327 31.622-37.285 32.566-55.692zm-2.36-183.123c0-33.038-31.15-52.86-51.444-62.3-11.327-28.79-40.589-37.757-70.323-21.71 7.552 8.023 17.935 13.215 22.182 25.014-6.136 17.463-85.426 153.389-102.417 162.828 0 9.911-23.598 29.262-31.622 38.229 6.608 9.911 20.295 11.327 30.678 8.967 9.911-2.36 61.356-72.211 65.131-77.874 8.023 2.832 18.879 11.799 33.038 7.08 6.136 9.911 9.911 22.182 10.383 40.589-19.823 9.439-63.243 2.832-76.931 20.766 17.935 24.542 51.916 9.911 77.874 9.911 0 30.206 0 82.122-2.832 112.328-12.271 2.832-40.117 9.911-57.58 8.023-9.911-.944-16.991-10.383-27.846-4.248 1.416 16.519 33.982 52.86 52.388 45.781 8.495-3.304 15.103-13.687 24.542-18.407 30.206-15.103 69.379-4.248 100.057-23.126-11.327-16.991-33.982-22.182-63.715-13.215l5.664-113.744c20.767-5.664 41.533-6.607 55.692-18.879-5.664-12.271-20.767-25.486-56.164-11.799 1.416-12.271 3.304-28.318-4.248-44.365 21.238-1.888 33.038-6.608 49.085-14.631-10.855-12.743-26.43-19.351-45.781-22.182-10.383 14.159-44.837 18.407-62.3 19.351 11.799-19.351 38.229-57.58 49.556-83.538 3.304-3.304 8.023-8.023 15.103-8.967 14.159 24.07 33.51 35.869 61.828 40.117zM542.953 679.5c0-14.159-6.608-27.846-6.136-39.173 0-3.304 3.304-4.72 2.832-8.495-3.304-18.407-29.262-35.397-44.365-35.869-2.832 15.575 10.855 38.701 9.439 58.996 8.495 8.967 21.71 22.182 38.229 24.542zm254.862-227.488c-22.654-15.103-50.5.944-86.842 1.416.944-16.519-2.36-35.397-4.248-45.781 21.71-6.136 57.108-10.855 88.73-13.215 3.776 12.271 2.36 40.117 2.36 57.58zm0 16.991c.472 19.823-.472 28.79-1.888 45.781-19.823 2.832-57.58 8.023-85.426 6.608 1.416-8.495.944-30.206 1.416-39.645 25.014-3.776 56.636-6.608 85.898-12.743zm14.159 70.795c2.832 5.664 2.36 12.743-3.776 15.103-9.911 5.192-26.902 17.463-39.645 23.598-8.495-5.664-23.126-23.126-33.982-31.15 22.182-1.888 54.276-3.776 77.402-7.551zm-45.309 84.482c-6.608 13.215-41.061 37.285-64.187 49.557 1.416-16.991 6.608-86.842 7.551-122.239 24.542 17.935 39.645 46.253 56.636 72.683z"
         stroke-width="23.417"
         id="path367" />
    </clipPath>
    <clipPath
       id="F">
      <path
         d="M656.251 790.644a11.095 11.095 0 0 0-11.121 11.121v164.641L528.709 849.984a11.1 11.1 0 0 0-15.73 0l-5.302 5.302a11.105 11.105 0 0 0 0 15.735l131.289 131.289-131.29 131.29a11.1 11.1 0 0 0 0 15.73l5.302 5.302a11.1 11.1 0 0 0 15.73 0l131.289-131.294 131.294 131.294a11.1 11.1 0 0 0 15.73 0l5.302-5.302a11.1 11.1 0 0 0 0-15.73l-131.289-131.289 131.289-131.289a11.105 11.105 0 0 0 0-15.735l-5.302-5.302a11.1 11.1 0 0 0-15.73 0L674.87 966.401V801.765a11.095 11.095 0 0 0-11.121-11.121zm3.747 211.661h.011l-.011.011-.005-.011z"
         stroke-width="1.534"
         id="path370" />
    </clipPath>
    <filter
       inkscape:menu-tooltip="In and out glow with a possible offset and colorizable flood"
       inkscape:menu="Shadows and Glows"
       inkscape:label="Cutout Glow"
       style="color-interpolation-filters:sRGB;"
       id="filter4712"
       x="-0.042661846"
       y="-0.017701505"
       width="1.0605203"
       height="1.0599884">
      <feOffset
         dy="10"
         dx="-10"
         id="feOffset4702" />
      <feGaussianBlur
         stdDeviation="3"
         result="blur"
         id="feGaussianBlur4704" />
      <feFlood
         flood-color="rgb(0,0,0)"
         flood-opacity="0"
         result="flood"
         id="feFlood4706" />
      <feComposite
         in="flood"
         in2="SourceGraphic"
         operator="in"
         result="composite"
         id="feComposite4708" />
      <feBlend
         in="blur"
         in2="composite"
         mode="normal"
         id="feBlend4710" />
    </filter>
    <clipPath
       clipPathUnits="userSpaceOnUse"
       id="clipPath4759">
      <path
         d="m 864.4267,599.74323 q -0.94456,6.13965 -7.08421,10.86246 -5.6674,4.72281 -14.16844,7.5565 -13.69615,4.72281 -30.69826,5.19509 -17.00212,0 -27.86459,-4.72281 -1.41684,-2.36143 -0.94456,-5.19509 0.94456,-2.83369 0.94456,-2.83369 -3.30596,1.41682 -4.72281,0.94454 -1.41684,-0.94454 -2.3614,-2.36138 -0.94456,-1.41684 -2.36141,-2.36143 -1.41684,-0.94454 -4.72281,-0.47226 -4.72281,-11.33474 -10.86246,-18.41896 -5.66737,-7.08421 -11.80703,-12.75159 -5.66737,-5.66737 -10.39018,-13.22387 -6.13966,3.30597 -10.86247,6.61194 -4.72281,3.30597 -8.97334,7.08421 -8.97334,7.08422 -18.89124,12.75159 -9.9179,5.19509 -27.86458,4.72279 0,3.30599 6.61193,7.55652 7.08422,3.77825 11.33475,6.61191 1.41684,8.0288 -0.47228,12.75159 -1.88913,4.72281 -4.72281,8.50108 -0.94456,1.41682 -1.88913,3.30597 -0.94456,1.41684 -1.88912,3.30594 4.25053,-0.47228 8.50106,-0.94456 4.72281,-0.47228 8.97334,-0.94454 19.8358,-1.88912 38.25476,-2.83371 18.41897,-0.94456 33.05968,3.30597 10.86246,2.83371 19.36352,8.97334 8.50106,6.13965 13.69615,17.47442 -23.14177,0.47226 -39.67161,1.8891 -16.52983,1.41684 -16.52983,1.41684 4.72281,3.30597 7.08421,8.97334 2.83369,5.1951 7.5565,8.50106 -1.88913,6.13966 -3.30597,10.86247 -0.94456,4.25053 -8.50106,7.08421 -6.13965,13.69615 -8.97334,25.50318 -2.83368,11.33475 -9.9179,23.61405 5.19509,0.94456 10.86246,1.41685 6.13966,0 12.27931,0 3.77825,0 7.08422,0 3.77825,0 7.5565,0.47228 6.61193,-6.61194 14.64071,-8.02878 8.02878,-1.88913 16.52983,-0.47228 15.113,2.3614 30.22599,11.80702 15.113,8.97334 24.08634,15.113 0,2.3614 0.47228,4.25053 0.94456,2.3614 1.88912,3.77825 0.94456,2.3614 1.41682,4.25053 0.47231,1.88912 -0.47226,3.77824 -18.41896,2.83369 -34.47651,0.94457 -15.58528,-1.88913 -31.64283,-4.72281 -11.33475,-1.88913 -23.14178,-3.77825 -11.80702,-1.41685 -25.50317,-1.88913 -51.47864,-1.41684 -101.54043,3.30597 -49.58948,5.19509 -88.31653,16.05756 -2.83369,1.88912 -5.19509,5.19509 -1.88913,3.30596 -5.19509,5.19509 -16.05756,-0.94456 -26.44774,-8.50106 -9.9179,-7.5565 -18.41896,-17.00212 -8.02878,-9.44562 -19.36353,-16.05755 0,-4.25053 1.88913,-6.13966 2.3614,-2.3614 5.66737,-3.77825 1.88912,1.41685 3.77825,-0.47228 1.88912,-1.88912 3.77825,-1.41684 11.33474,8.97334 32.11511,8.02878 21.25265,-0.94456 42.50529,-3.77825 7.08422,-0.94456 13.22387,-1.41684 6.61194,-0.94457 12.75159,-1.41685 -0.47228,-9.44562 -1.41684,-24.08633 -0.94456,-14.64071 -3.30597,-29.28143 -2.3614,-15.11299 -8.50106,-23.61405 -21.25265,-0.94456 -34.47651,-10.86246 -13.22387,-10.39016 -21.72493,-27.86456 4.72281,-2.36143 8.97334,-1.41684 4.25053,0.94456 8.50106,2.36138 2.3614,0.94456 4.72281,1.88912 2.3614,0.47231 4.72281,0.94459 14.16843,1.8891 29.28142,0.94456 15.58528,-1.41684 32.11509,-3.77827 9.44562,-0.94454 18.89124,-1.8891 9.9179,-1.41687 19.8358,-1.88915 0,-2.36138 -0.47228,-3.77825 0,-1.8891 -0.47228,-3.30594 -0.47228,-2.36143 -0.94456,-4.72281 -0.47228,-2.36143 0,-5.6674 -9.9179,1.41687 -20.30806,1.88915 -10.39018,0.47228 -21.25265,0.47228 -18.41896,0.47228 -36.83792,2.36141 -18.41896,1.41684 -34.47652,8.50103 -2.83368,1.41687 -5.19509,0.94459 -1.88912,-0.47231 -3.30596,-1.41687 -2.36141,-0.47228 -4.25053,-0.47228 -1.88913,0 -4.72281,3.30599 -5.66738,-5.19509 -13.69616,-8.50106 -8.02877,-3.30599 -14.64071,-7.08424 -6.61193,-4.2505 -8.50106,-12.27928 -0.47228,-2.83369 0.47228,-7.08422 1.41685,-4.72281 2.83369,-9.9179 1.88912,-6.61193 3.77825,-13.22387 1.88912,-7.08421 1.88912,-13.69615 0,-9.9179 -6.13965,-16.05756 2.3614,-0.94456 4.25053,0.47229 1.88912,0.94456 1.88912,0.94456 -0.47228,-6.61194 0,-12.75159 0.47228,-6.61194 1.41685,-12.75159 0,-4.72281 0.47228,-8.97334 0.47228,-4.25053 0.47228,-8.02878 0,-6.61193 -1.88913,-11.80702 -1.88912,-5.19509 -7.08421,-8.50106 8.02878,-5.66737 8.02878,-11.33475 0,-5.66737 -3.77825,-11.33474 -4.72281,-6.61194 -12.75159,-12.27931 -7.5565,-5.66737 -13.22387,-9.44562 2.83369,-5.66737 4.72281,-8.97334 1.88912,-3.30597 5.66737,-8.97334 19.36353,-5.19509 39.19933,-7.5565 20.30809,-2.36138 46.75582,-5.19509 15.58528,-1.8891 29.75371,-1.41684 14.64069,0 23.61403,-3.30597 2.36143,-0.94456 3.77827,-2.83369 1.41682,-1.88912 3.77825,-2.3614 12.27928,-0.94454 23.61403,6.13965 11.33474,6.61196 17.94668,13.22387 -3.30597,8.50106 -13.69613,10.39018 -10.39018,1.88913 -22.19721,2.36141 -2.83371,0 -5.66737,0.47228 -2.36143,0 -5.19509,0 0,5.66737 -1.41687,12.27931 -0.94456,6.61193 -4.72281,12.27931 -2.83366,3.30596 -7.08419,6.13965 -3.77825,2.3614 -7.5565,3.77825 4.72281,2.83368 8.02878,2.3614 3.30597,-0.94456 6.13963,-2.83368 3.30599,-2.36141 6.13968,-5.19509 3.30594,-2.83369 7.55647,-3.30597 7.55652,-0.94456 14.16843,1.41684 7.08424,1.88913 13.22387,6.13965 8.50106,6.13966 15.58527,13.69616 7.08422,7.08421 13.22387,12.2793 -0.94456,6.61194 -7.55649,8.50106 -6.13966,1.41684 -12.75159,3.30597 -3.30597,10.86246 -5.66735,27.3923 -1.88915,16.05756 -6.61196,29.75371 -8.02875,2.83368 -14.64071,2.3614 -6.13963,-0.94456 -14.16841,-2.83368 -1.41684,-0.47229 -2.83368,-0.47229 -1.41687,-0.47228 -2.83369,-0.94456 0.94456,8.50106 -1.88912,17.00212 -2.36141,8.50106 -5.19512,14.64071 -2.83366,5.66738 -2.83366,5.66738 7.08419,-4.25053 14.16843,-2.36141 7.08419,1.88912 14.16843,5.19509 2.36138,0.94454 4.72281,2.36141 2.83366,0.94456 5.19507,1.41684 1.41684,0 0,-3.30597 -0.47226,-0.94456 -0.94454,-2.3614 -0.47228,-1.88915 0.47228,-3.77825 3.77825,-0.94456 8.02878,-0.94456 4.2505,0 9.44562,1.88912 -0.47228,-5.19509 -4.72281,-5.66737 -4.25053,-0.94456 -6.61196,-3.77825 20.78039,-10.86246 41.56073,-23.61405 21.25265,-12.75159 32.11511,-28.80915 -10.86246,-14.64071 -23.14177,-27.86458 -11.80702,-13.69615 -24.08633,-26.92002 7.08421,-4.25053 13.69615,-2.83369 7.08422,0.94457 13.69615,5.1951 9.9179,6.13965 20.30809,15.58527 10.39018,8.97334 20.78036,11.80703 6.13966,-5.19509 11.80703,-14.64072 5.66737,-9.44562 8.97334,-20.30808 3.30597,-11.33475 2.3614,-20.78037 -8.50106,-1.88912 -19.36352,-0.47228 -10.39018,1.41685 -21.25265,3.30597 -8.50106,1.41684 -17.00212,2.83369 -8.02877,0.94456 -16.05755,0.94456 -11.33475,0 -21.25265,-3.77825 -9.44562,-4.25053 -15.58527,-15.11299 5.66737,-7.5565 17.47442,-8.50106 12.27928,-1.41685 27.39228,-1.41685 6.61193,0 13.22387,0 7.08421,0 14.16843,-0.47228 11.33474,-0.94456 20.30808,-2.83368 8.97334,-1.88913 21.72493,-1.88913 6.13966,-7.08419 12.75159,-9.9179 6.61194,-2.83369 13.22387,-2.36141 12.75159,0.47231 25.50318,8.50106 13.22387,8.02878 23.14177,15.58528 3.30597,7.55649 1.41684,12.75159 -1.41684,4.72281 -6.13965,7.08421 -5.19509,2.83369 -13.22387,3.30597 -7.5565,0 -14.64071,-0.94456 -10.39019,16.05755 -20.30809,34.00423 -9.44562,17.4744 -18.41896,35.42108 8.02878,7.5565 19.36352,14.64072 11.33475,6.61193 24.08634,12.75158 6.13965,2.83369 12.75158,4.25053 7.08422,0.94457 11.33475,4.72281 1.41684,0.94457 1.41684,3.30597 0,2.36141 1.88913,4.72281 3.30596,3.30597 8.50106,7.08422 5.19509,3.30596 9.44562,7.08421 3.77825,3.30597 5.66737,7.08422 1.8891,3.30597 0.94456,8.50106 z m -160.10328,65.17476 q -25.03089,-3.77825 -54.31232,-1.41685 -28.80914,1.88913 -53.84001,8.50106 0.94456,1.41687 1.8891,2.83369 1.41687,0.94456 2.83371,2.3614 6.61191,8.02878 13.22387,17.94668 7.08419,9.44563 11.33472,22.6695 4.72281,12.75158 3.30599,30.22598 16.52981,1.88913 33.05965,1.41685 16.52984,-0.94457 32.58739,-1.88913 4.25053,-10.39018 8.02878,-26.44774 4.25053,-16.05755 5.66737,-31.64283 1.41685,-16.05753 -3.77825,-24.55861 z m -96.3453,-172.85484 q -13.69615,-0.94456 -25.50318,0.94456 -11.33475,1.41684 -22.19721,3.30597 -9.9179,1.88912 -19.8358,3.30596 -9.91791,1.41685 -20.30809,0 0.47228,5.1951 0.47228,10.39019 0,4.72281 -0.47228,8.97334 0,6.13965 0,11.80702 0,5.1951 1.41684,10.86247 24.55862,-0.94456 44.39442,-2.83369 19.83581,-1.88912 40.14389,-8.02878 3.77825,-7.55649 4.72281,-19.36352 0.94454,-11.80703 -2.83368,-19.36352 z M 581.0581,594.54814 q -1.41685,-6.61194 -1.88913,-13.69615 -0.47228,-7.5565 -0.47228,-15.113 -7.5565,-4.25053 -16.05755,-3.77825 -8.02878,0.47228 -16.52984,1.88913 -6.13966,0.94456 -12.27931,1.88912 -6.13965,0.47228 -11.80703,-1.41684 -0.94456,5.19509 -0.94456,9.44562 0,3.77825 0.47228,8.02878 0.47228,3.77825 0.47228,8.02878 0,3.77824 -0.47228,8.50105 13.69615,0.94457 30.69827,0.47229 17.00212,-0.47229 28.80915,-4.25053 z m -2.36141,-125.62676 q 1.88913,-6.61194 1.41684,-11.80703 -0.47228,-5.66737 -1.41684,-11.33475 0,-2.3614 -0.47228,-5.19509 -0.47228,-2.83368 -0.47228,-5.66737 -10.86247,-2.36141 -25.97546,0 -15.11299,2.36141 -25.97546,6.61193 0,1.88913 -0.94456,4.72282 -0.47228,2.3614 -1.41684,5.19509 -1.41685,5.19509 -2.36141,10.39018 -0.94456,5.19509 0.94456,8.97334 8.02878,1.88912 16.05756,1.41684 8.50106,-0.47228 17.4744,-1.41684 5.66737,-0.94456 11.33474,-1.41684 6.13966,-0.47228 11.80703,-0.47228 z"
         id="path4761"
         style="font-size:472.281px;font-family:'Yuji Mai';-inkscape-font-specification:'Yuji Mai';stroke-width:21.1667"
         inkscape:label="path4696" />
    </clipPath>
    <filter
       inkscape:menu-tooltip="In and out glow with a possible offset and colorizable flood"
       inkscape:menu="Shadows and Glows"
       inkscape:label="Cutout Glow"
       style="color-interpolation-filters:sRGB;"
       id="filter5625"
       x="-0.052210256"
       y="-0.018111787"
       width="1.0740657"
       height="1.0613788">
      <feOffset
         dy="10"
         dx="-10"
         id="feOffset5615" />
      <feGaussianBlur
         stdDeviation="3"
         result="blur"
         id="feGaussianBlur5617" />
      <feFlood
         flood-color="rgb(0,0,0)"
         flood-opacity="0"
         result="flood"
         id="feFlood5619" />
      <feComposite
         in="flood"
         in2="SourceGraphic"
         operator="in"
         result="composite"
         id="feComposite5621" />
      <feBlend
         in="blur"
         in2="composite"
         mode="normal"
         id="feBlend5623" />
    </filter>
    <clipPath
       clipPathUnits="userSpaceOnUse"
       id="clipPath6426">
      <path
         id="path6428"
         d="m 830.90242,996.70622 c 0.0132,-5.69293 -4.60618,-10.31242 -10.29909,-10.29911 H 678.88076 V 881.37479 h 22.22086 c 1.998,-3.571 1.998,-9.31711 0,-12.88808 l -22.22086,-39.71334 v -10.73319 c 0.0132,-5.77278 -4.66585,-10.45656 -10.43866,-10.44381 h -7.04349 c -5.77432,-0.0132 -10.46062,4.66955 -10.4489,10.44381 v 10.74354 l -22.2157,39.70299 c -1.998,3.57097 -1.998,9.31708 0,12.88808 h 22.2157 v 105.03232 h -139.1853 c -5.69301,-0.0132 -10.3121,4.60618 -10.29911,10.29911 v 6.94528 c -0.0132,5.6929 4.6061,10.3073 10.29911,10.294 h 139.1853 v 6.382 111.0216 h -22.2157 c -1.998,3.571 -1.998,9.3233 0,12.8933 l 22.2157,39.6926 v 10.7435 c -0.0132,5.7751 4.67379,10.4607 10.4489,10.449 h 7.04349 c 5.77432,0.013 10.45308,-4.6747 10.43866,-10.449 v -10.7332 l 22.22086,-39.7029 c 1.998,-3.571 1.998,-9.3233 0,-12.8933 h -22.22086 v -111.0216 -6.382 h 141.72257 c 5.69291,0.013 10.3124,-4.6011 10.29909,-10.294 z m -165.97943,9.65318 v 0.016 h -0.0159 v -0.016 z"
         style="stroke-width:1" />
    </clipPath>
  </defs>
  <path
     d="m-2745.657 265.144 28.198 35.189h489.331l10.087-9.413-110.95-494.045-31.462-17.601z"
     transform="matrix(-2.0051 0 0 2.0051 -4364.078 816.662)"
     opacity=".5"
     filter="url(#C)"
     id="path375" />
  <path
     d="m-1215.57-304.058-153.963 48.25-92.727 473.093 6.639 36.814 10.024 8.338h460.053l10.024-8.338 6.639-36.814-92.727-473.093z"
     fill="url(#A)"
     transform="translate(3097.382 831.934) scale(2.0051)"
     id="path377" />
  <path
     d="m-899.905-344.262-153.963 48.25-92.727 473.093 6.639 36.814 10.024 8.338h460.054l10.024-8.338 6.639-36.814-92.727-473.093z"
     opacity=".25"
     fill="url(#B)"
     transform="translate(2464.43 912.55) scale(2.0051)"
     style="mix-blend-mode:overlay"
     id="path379" />
  <path
     d="m1133.938 1262.57-.043 21.064 20.75-16.013-20.707-5.052z"
     opacity=".8"
     fill="#fff"
     id="path381" />
  <path
     d="m1154.645 1267.622-20.75 16.013-12.661 74.524 20.099-16.719 13.312-73.818z"
     opacity=".6"
     id="path383" />
  <g
     fill="#fff"
     id="g389">
    <path
       d="m351.284 319.007 17.664 13.248L660 238.66v-16.402zM968.716 319.007l-17.664 13.248L660 238.66v-16.402z"
       opacity=".3"
       id="path385" />
    <path
       d="m968.716 319.007-17.664 13.248 182.886 930.315 20.707 5.052z"
       opacity=".3"
       id="path387" />
  </g>
  <path
     d="m351.284 319.007 17.664 13.248-182.886 930.315-20.707 5.052z"
     opacity=".4"
     id="path391" />
  <path
     d="m165.355 1267.622 20.75 16.013 12.661 74.524-20.099-16.719-13.312-73.818z"
     opacity=".9"
     id="path393" />
  <path
     d="m186.062 1262.57.043 21.064-20.75-16.013 20.707-5.052z"
     opacity=".6"
     id="path395" />
  <path
     d="M186.062 1262.57h947.876l-.043 21.064h-947.79l-.043-21.064z"
     opacity=".2"
     id="path397" />
  <path
     d="m1133.895 1283.634-12.661 74.524H198.765l-12.66-74.524h947.791z"
     opacity=".7"
     id="path399" />
  <path
     id="path405"
     d="m 830.90242,996.70621 c 0.0133,-5.69293 -4.60618,-10.31242 -10.29911,-10.29911 H 678.88076 V 881.3748 h 22.22085 c 1.998,-3.571 1.998,-9.31711 0,-12.8881 l -22.22085,-39.71332 v -10.73319 c 0.013,-5.77279 -4.66586,-10.45657 -10.43867,-10.44381 h -7.0435 c -5.7743,-0.0144 -10.4606,4.66953 -10.4489,10.44381 v 10.74352 l -22.2157,39.70299 c -1.998,3.57099 -1.998,9.3171 0,12.8881 h 22.2157 v 105.0323 h -139.1853 c -5.693,-0.0133 -10.3121,4.60618 -10.2991,10.29911 v 6.94529 c -0.0133,5.6929 4.6061,10.3073 10.2991,10.294 h 139.1853 v 6.382 111.0216 h -22.2157 c -1.998,3.571 -1.998,9.3233 0,12.8933 l 22.2157,39.6926 v 10.7435 c -0.012,5.7751 4.6738,10.4607 10.4489,10.449 h 7.0435 c 5.77431,0.012 10.45307,-4.6747 10.43867,-10.449 v -10.7332 l 22.22085,-39.7029 c 1.998,-3.571 1.998,-9.3233 0,-12.8933 h -22.22085 v -111.0216 -6.382 h 141.72255 c 5.69293,0.013 10.31242,-4.6011 10.29911,-10.294 z m -165.97943,9.65319 v 0.015 h -0.0155 v -0.015 z" />
  <path
     id="path405-8"
     d="m 830.90243,996.70621 c 0.0133,-5.69293 -4.60618,-10.31242 -10.29911,-10.29911 H 678.88077 V 881.3748 h 22.22085 c 1.998,-3.571 1.998,-9.31711 0,-12.8881 l -22.22085,-39.71332 v -10.73319 c 0.013,-5.77279 -4.66586,-10.45657 -10.43867,-10.44381 h -7.0435 c -5.7743,-0.0144 -10.4606,4.66953 -10.4489,10.44381 v 10.74352 L 628.734,868.4867 c -1.998,3.57099 -1.998,9.3171 0,12.8881 h 22.2157 V 986.4071 H 511.7644 c -5.693,-0.0133 -10.3121,4.60618 -10.2991,10.29911 v 6.94529 c -0.0133,5.6929 4.6061,10.3073 10.2991,10.294 h 139.1853 v 6.382 111.0216 H 628.734 c -1.998,3.571 -1.998,9.3233 0,12.8933 l 22.2157,39.6926 v 10.7435 c -0.012,5.7751 4.6738,10.4607 10.4489,10.449 h 7.0435 c 5.77431,0.012 10.45307,-4.6747 10.43867,-10.449 v -10.7332 l 22.22085,-39.7029 c 1.998,-3.571 1.998,-9.3233 0,-12.8933 h -22.22085 v -111.0216 -6.382 h 141.72255 c 5.69293,0.013 10.31242,-4.6011 10.29911,-10.294 z M 664.923,1006.3594 v 0.015 h -0.0155 v -0.015 z"
     style="fill:#29303d;fill-opacity:1;filter:url(#filter5625)"
     clip-path="url(#clipPath6426)" />
  <path
     d="m 864.42669,599.74323 q -0.94456,6.13965 -7.08421,10.86246 -5.66738,4.72281 -14.16843,7.5565 -13.69615,4.72281 -30.69827,5.19509 -17.00212,0 -27.86458,-4.72281 -1.41684,-2.36141 -0.94456,-5.19509 0.94456,-2.83369 0.94456,-2.83369 -3.30597,1.41684 -4.72281,0.94456 -1.41684,-0.94456 -2.3614,-2.3614 -0.94457,-1.41684 -2.36141,-2.36141 -1.41684,-0.94456 -4.72281,-0.47228 -4.72281,-11.33474 -10.86246,-18.41896 -5.66737,-7.08421 -11.80703,-12.75158 -5.66737,-5.66738 -10.39018,-13.22387 -6.13965,3.30597 -10.86246,6.61193 -4.72281,3.30597 -8.97334,7.08422 -8.97334,7.08421 -18.89124,12.75158 -9.9179,5.1951 -27.86458,4.72281 0,3.30597 6.61193,7.5565 7.08422,3.77825 11.33475,6.61193 1.41684,8.02878 -0.47228,12.75159 -1.88913,4.72281 -4.72281,8.50106 -0.94457,1.41684 -1.88913,3.30597 -0.94456,1.41684 -1.88912,3.30596 4.25053,-0.47228 8.50106,-0.94456 4.72281,-0.47228 8.97334,-0.94456 19.8358,-1.88912 38.25476,-2.83369 18.41896,-0.94456 33.05967,3.30597 10.86246,2.83369 19.36352,8.97334 8.50106,6.13965 13.69615,17.4744 -23.14177,0.47228 -39.67161,1.88912 -16.52983,1.41684 -16.52983,1.41684 4.72281,3.30597 7.08421,8.97334 2.83369,5.19509 7.5565,8.50106 -1.88912,6.13965 -3.30597,10.86246 -0.94456,4.25053 -8.50106,7.08422 -6.13965,13.69615 -8.97333,25.50317 -2.83369,11.33475 -9.91791,23.61405 5.1951,0.94457 10.86247,1.41685 6.13965,0 12.2793,0 3.77825,0 7.08422,0 3.77825,0 7.55649,0.47228 6.61194,-6.61194 14.64072,-8.02878 8.02877,-1.88912 16.52983,-0.47228 15.11299,2.36141 30.22599,11.80703 15.11299,8.97333 24.08633,15.11299 0,2.3614 0.47228,4.25053 0.94456,2.3614 1.88912,3.77824 0.94456,2.36141 1.41684,4.25053 0.47229,1.88913 -0.47228,3.77825 -18.41896,2.83369 -34.47651,0.94456 -15.58527,-1.88912 -31.64283,-4.72281 -11.33474,-1.88912 -23.14177,-3.77824 -11.80702,-1.41685 -25.50317,-1.88913 -51.47863,-1.41684 -101.54042,3.30597 -49.5895,5.19509 -88.31655,16.05755 -2.83368,1.88913 -5.19509,5.19509 -1.88912,3.30597 -5.19509,5.1951 -16.05755,-0.94457 -26.44773,-8.50106 -9.9179,-7.5565 -18.41896,-17.00212 -8.02878,-9.44562 -19.36352,-16.05755 0,-4.25053 1.88912,-6.13966 2.3614,-2.3614 5.66737,-3.77824 1.88913,1.41684 3.77825,-0.47229 1.88912,-1.88912 3.77825,-1.41684 11.33474,8.97334 32.11511,8.02878 21.25264,-0.94456 42.50529,-3.77825 7.08421,-0.94456 13.22387,-1.41684 6.61193,-0.94456 12.75158,-1.41685 -0.47228,-9.44562 -1.41684,-24.08633 -0.94456,-14.64071 -3.30597,-29.28142 -2.3614,-15.11299 -8.50106,-23.61405 -21.25264,-0.94456 -34.47651,-10.86246 -13.22387,-10.39018 -21.72493,-27.86458 4.72281,-2.36141 8.97334,-1.41684 4.25053,0.94456 8.50106,2.3614 2.36141,0.94456 4.72281,1.88912 2.36141,0.47229 4.72281,0.94457 14.16843,1.88912 29.28142,0.94456 15.58528,-1.41684 32.11511,-3.77825 9.44562,-0.94456 18.89124,-1.88912 9.9179,-1.41685 19.8358,-1.88913 0,-2.3614 -0.47228,-3.77825 0,-1.88912 -0.47228,-3.30596 -0.47228,-2.36141 -0.94456,-4.72281 -0.47228,-2.36141 0,-5.66738 -9.9179,1.41685 -20.30808,1.88913 -10.39018,0.47228 -21.25265,0.47228 -18.41896,0.47228 -36.83792,2.36141 -18.41896,1.41684 -34.47651,8.50105 -2.83369,1.41685 -5.19509,0.94457 -1.88912,-0.47229 -3.30597,-1.41685 -2.3614,-0.47228 -4.25053,-0.47228 -1.88912,0 -4.72281,3.30597 -5.66737,-5.19509 -13.69615,-8.50106 -8.02877,-3.30597 -14.64071,-7.08422 -6.61193,-4.25052 -8.50106,-12.2793 -0.47228,-2.83369 0.47229,-7.08422 1.41684,-4.72281 2.83368,-9.9179 1.88913,-6.61193 3.77825,-13.22387 1.88912,-7.08421 1.88912,-13.69614 0,-9.91791 -6.13965,-16.05756 2.36141,-0.94456 4.25053,0.47228 1.88912,0.94456 1.88912,0.94456 -0.47228,-6.61193 0,-12.75158 0.47229,-6.61194 1.41685,-12.75159 0,-4.72281 0.47228,-8.97334 0.47228,-4.25053 0.47228,-8.02878 0,-6.61193 -1.88912,-11.80702 -1.88913,-5.19509 -7.08422,-8.50106 8.02878,-5.66737 8.02878,-11.33474 0,-5.66738 -3.77825,-11.33475 -4.72281,-6.61193 -12.75159,-12.2793 -7.55649,-5.66738 -13.22387,-9.44562 2.83369,-5.66738 4.72281,-8.97334 1.88913,-3.30597 5.66738,-8.97334 19.36352,-5.19509 39.19932,-7.5565 20.30808,-2.3614 46.75582,-5.19509 15.58527,-1.88912 29.7537,-1.41684 14.64071,0 23.61405,-3.30597 2.36141,-0.94456 3.77825,-2.83369 1.41684,-1.88912 3.77825,-2.3614 12.2793,-0.94456 23.61405,6.13965 11.33474,6.61194 17.94668,13.22387 -3.30597,8.50106 -13.69615,10.39018 -10.39018,1.88913 -22.19721,2.36141 -2.83369,0 -5.66737,0.47228 -2.36141,0 -5.19509,0 0,5.66737 -1.41685,12.2793 -0.94456,6.61194 -4.72281,12.27931 -2.83368,3.30597 -7.08421,6.13965 -3.77825,2.36141 -7.5565,3.77825 4.72281,2.83369 8.02878,2.36141 3.30597,-0.94456 6.13965,-2.83369 3.30597,-2.3614 6.13966,-5.19509 3.30596,-2.83369 7.55649,-3.30597 7.5565,-0.94456 14.16843,1.41685 7.08422,1.88912 13.22387,6.13965 8.50106,6.13965 15.58527,13.69615 7.08422,7.08421 13.22387,12.2793 -0.94456,6.61194 -7.55649,8.50106 -6.13966,1.41685 -12.75159,3.30597 -3.30597,10.86246 -5.66737,27.3923 -1.88913,16.05755 -6.61194,29.7537 -8.02877,2.83369 -14.64071,2.36141 -6.13965,-0.94457 -14.16843,-2.83369 -1.41684,-0.47228 -2.83368,-0.47228 -1.41685,-0.47228 -2.83369,-0.94456 0.94456,8.50106 -1.88912,17.00211 -2.36141,8.50106 -5.1951,14.64071 -2.83368,5.66738 -2.83368,5.66738 7.08421,-4.25053 14.16843,-2.36141 7.08421,1.88913 14.16843,5.19509 2.3614,0.94456 4.72281,2.36141 2.83368,0.94456 5.19509,1.41684 1.41684,0 0,-3.30597 -0.47228,-0.94456 -0.94456,-2.3614 -0.47228,-1.88913 0.47228,-3.77825 3.77825,-0.94456 8.02878,-0.94456 4.25052,0 9.44562,1.88912 -0.47228,-5.19509 -4.72281,-5.66737 -4.25053,-0.94456 -6.61194,-3.77825 20.78037,-10.86246 41.56073,-23.61405 21.25265,-12.75158 32.11511,-28.80914 -10.86246,-14.64071 -23.14177,-27.86458 -11.80703,-13.69615 -24.08633,-26.92002 7.08421,-4.25052 13.69615,-2.83368 7.08421,0.94456 13.69615,5.19509 9.9179,6.13965 20.30808,15.58527 10.39018,8.97334 20.78036,11.80703 6.13966,-5.19509 11.80703,-14.64071 5.66737,-9.44562 8.97334,-20.30809 3.30597,-11.33474 2.3614,-20.78036 -8.50105,-1.88913 -19.36352,-0.47228 -10.39018,1.41684 -21.25264,3.30596 -8.50106,1.41685 -17.00212,2.83369 -8.02878,0.94456 -16.05755,0.94456 -11.33475,0 -21.25265,-3.77825 -9.44562,-4.25052 -15.58527,-15.11299 5.66737,-7.55649 17.4744,-8.50106 12.2793,-1.41684 27.39229,-1.41684 6.61194,0 13.22387,0 7.08422,0 14.16843,-0.47228 11.33475,-0.94456 20.30809,-2.83369 8.97333,-1.88912 21.72492,-1.88912 6.13965,-7.08421 12.75159,-9.9179 6.61193,-2.83369 13.22387,-2.36141 12.75158,0.47229 25.50317,8.50106 13.22387,8.02878 23.14177,15.58528 3.30597,7.55649 1.41684,12.75158 -1.41684,4.72281 -6.13965,7.08422 -5.19509,2.83368 -13.22387,3.30596 -7.55649,0 -14.64071,-0.94456 -10.39018,16.05756 -20.30808,34.00424 -9.44562,17.47439 -18.41896,35.42107 8.02878,7.5565 19.36352,14.64071 11.33474,6.61194 24.08633,12.75159 6.13965,2.83369 12.75159,4.25053 7.08421,0.94456 11.33474,4.72281 1.41685,0.94456 1.41685,3.30597 0,2.3614 1.88912,4.72281 3.30597,3.30596 8.50106,7.08421 5.19509,3.30597 9.44562,7.08422 3.77825,3.30596 5.66737,7.08421 1.88912,3.30597 0.94456,8.50106 z m -160.10326,65.17478 q -25.03089,-3.77825 -54.31232,-1.41685 -28.80914,1.88913 -53.84003,8.50106 0.94456,1.41685 1.88912,2.83369 1.41685,0.94456 2.83369,2.3614 6.61193,8.02878 13.22387,17.94668 7.08421,9.44562 11.33474,22.66949 4.72281,12.75159 3.30597,30.22598 16.52983,1.88913 33.05967,1.41685 16.52984,-0.94456 32.58739,-1.88913 4.25053,-10.39018 8.02878,-26.44773 4.25053,-16.05756 5.66737,-31.64283 1.41684,-16.05755 -3.77825,-24.55861 z M 607.97811,492.06316 q -13.69615,-0.94456 -25.50318,0.94456 -11.33474,1.41684 -22.19721,3.30597 -9.9179,1.88912 -19.8358,3.30597 -9.9179,1.41684 -20.30808,0 0.47228,5.19509 0.47228,10.39018 0,4.72281 -0.47228,8.97334 0,6.13965 0,11.80702 0,5.19509 1.41684,10.86247 24.55861,-0.94457 44.39442,-2.83369 19.8358,-1.88913 40.14388,-8.02878 3.77825,-7.55649 4.72281,-19.36352 0.94456,-11.80702 -2.83368,-19.36352 z m -26.92002,102.48498 q -1.41684,-6.61194 -1.88913,-13.69615 -0.47228,-7.5565 -0.47228,-15.11299 -7.55649,-4.25053 -16.05755,-3.77825 -8.02878,0.47228 -16.52984,1.88912 -6.13965,0.94456 -12.2793,1.88913 -6.13966,0.47228 -11.80703,-1.41685 -0.94456,5.19509 -0.94456,9.44562 0,3.77825 0.47228,8.02878 0.47228,3.77825 0.47228,8.02878 0,3.77825 -0.47228,8.50106 13.69615,0.94456 30.69827,0.47228 17.00211,-0.47228 28.80914,-4.25053 z m -2.36141,-125.62675 q 1.88913,-6.61193 1.41685,-11.80703 -0.47228,-5.66737 -1.41685,-11.33474 0,-2.3614 -0.47228,-5.19509 -0.47228,-2.83369 -0.47228,-5.66737 -10.86246,-2.36141 -25.97545,0 -15.113,2.3614 -25.97546,6.61193 0,1.88913 -0.94456,4.72281 -0.47228,2.36141 -1.41684,5.19509 -1.41685,5.19509 -2.36141,10.39019 -0.94456,5.19509 0.94456,8.97333 8.02878,1.88913 16.05756,1.41685 8.50105,-0.47228 17.47439,-1.41685 5.66738,-0.94456 11.33475,-1.41684 6.13965,-0.47228 11.80702,-0.47228 z"
     id="path4696"
     style="font-size:472.281px;font-family:'Yuji Mai';-inkscape-font-specification:'Yuji Mai';stroke-width:21.1667"
     inkscape:label="path4696" />
  <path
     d="m 864.42669,599.74323 q -0.94456,6.13965 -7.08421,10.86246 -5.66738,4.72281 -14.16843,7.5565 -13.69615,4.72281 -30.69827,5.19509 -17.00212,0 -27.86458,-4.72281 -1.41684,-2.36141 -0.94456,-5.19509 0.94456,-2.83369 0.94456,-2.83369 -3.30597,1.41684 -4.72281,0.94456 -1.41684,-0.94456 -2.3614,-2.3614 -0.94457,-1.41684 -2.36141,-2.36141 -1.41684,-0.94456 -4.72281,-0.47228 -4.72281,-11.33474 -10.86246,-18.41896 -5.66737,-7.08421 -11.80703,-12.75158 -5.66737,-5.66738 -10.39018,-13.22387 -6.13965,3.30597 -10.86246,6.61193 -4.72281,3.30597 -8.97334,7.08422 -8.97334,7.08421 -18.89124,12.75158 -9.9179,5.1951 -27.86458,4.72281 0,3.30597 6.61193,7.5565 7.08422,3.77825 11.33475,6.61193 1.41684,8.02878 -0.47228,12.75159 -1.88913,4.72281 -4.72281,8.50106 -0.94457,1.41684 -1.88913,3.30597 -0.94456,1.41684 -1.88912,3.30596 4.25053,-0.47228 8.50106,-0.94456 4.72281,-0.47228 8.97334,-0.94456 19.8358,-1.88912 38.25476,-2.83369 18.41896,-0.94456 33.05967,3.30597 10.86246,2.83369 19.36352,8.97334 8.50106,6.13965 13.69615,17.4744 -23.14177,0.47228 -39.67161,1.88912 -16.52983,1.41684 -16.52983,1.41684 4.72281,3.30597 7.08421,8.97334 2.83369,5.19509 7.5565,8.50106 -1.88912,6.13965 -3.30597,10.86246 -0.94456,4.25053 -8.50106,7.08422 -6.13965,13.69615 -8.97333,25.50317 -2.83369,11.33475 -9.91791,23.61405 5.1951,0.94457 10.86247,1.41685 6.13965,0 12.2793,0 3.77825,0 7.08422,0 3.77825,0 7.55649,0.47228 6.61194,-6.61194 14.64072,-8.02878 8.02877,-1.88912 16.52983,-0.47228 15.11299,2.36141 30.22599,11.80703 15.11299,8.97333 24.08633,15.11299 0,2.3614 0.47228,4.25053 0.94456,2.3614 1.88912,3.77824 0.94456,2.36141 1.41684,4.25053 0.47229,1.88913 -0.47228,3.77825 -18.41896,2.83369 -34.47651,0.94456 -15.58527,-1.88912 -31.64283,-4.72281 -11.33474,-1.88912 -23.14177,-3.77824 -11.80702,-1.41685 -25.50317,-1.88913 -51.47863,-1.41684 -101.54042,3.30597 -49.5895,5.19509 -88.31655,16.05755 -2.83368,1.88913 -5.19509,5.19509 -1.88912,3.30597 -5.19509,5.1951 -16.05755,-0.94457 -26.44773,-8.50106 -9.9179,-7.5565 -18.41896,-17.00212 -8.02878,-9.44562 -19.36352,-16.05755 0,-4.25053 1.88912,-6.13966 2.3614,-2.3614 5.66737,-3.77824 1.88913,1.41684 3.77825,-0.47229 1.88912,-1.88912 3.77825,-1.41684 11.33474,8.97334 32.11511,8.02878 21.25264,-0.94456 42.50529,-3.77825 7.08421,-0.94456 13.22387,-1.41684 6.61193,-0.94456 12.75158,-1.41685 -0.47228,-9.44562 -1.41684,-24.08633 -0.94456,-14.64071 -3.30597,-29.28142 -2.3614,-15.11299 -8.50106,-23.61405 -21.25264,-0.94456 -34.47651,-10.86246 -13.22387,-10.39018 -21.72493,-27.86458 4.72281,-2.36141 8.97334,-1.41684 4.25053,0.94456 8.50106,2.3614 2.36141,0.94456 4.72281,1.88912 2.36141,0.47229 4.72281,0.94457 14.16843,1.88912 29.28142,0.94456 15.58528,-1.41684 32.11511,-3.77825 9.44562,-0.94456 18.89124,-1.88912 9.9179,-1.41685 19.8358,-1.88913 0,-2.3614 -0.47228,-3.77825 0,-1.88912 -0.47228,-3.30596 -0.47228,-2.36141 -0.94456,-4.72281 -0.47228,-2.36141 0,-5.66738 -9.9179,1.41685 -20.30808,1.88913 -10.39018,0.47228 -21.25265,0.47228 -18.41896,0.47228 -36.83792,2.36141 -18.41896,1.41684 -34.47651,8.50105 -2.83369,1.41685 -5.19509,0.94457 -1.88912,-0.47229 -3.30597,-1.41685 -2.3614,-0.47228 -4.25053,-0.47228 -1.88912,0 -4.72281,3.30597 -5.66737,-5.19509 -13.69615,-8.50106 -8.02877,-3.30597 -14.64071,-7.08422 -6.61193,-4.25052 -8.50106,-12.2793 -0.47228,-2.83369 0.47229,-7.08422 1.41684,-4.72281 2.83368,-9.9179 1.88913,-6.61193 3.77825,-13.22387 1.88912,-7.08421 1.88912,-13.69614 0,-9.91791 -6.13965,-16.05756 2.36141,-0.94456 4.25053,0.47228 1.88912,0.94456 1.88912,0.94456 -0.47228,-6.61193 0,-12.75158 0.47229,-6.61194 1.41685,-12.75159 0,-4.72281 0.47228,-8.97334 0.47228,-4.25053 0.47228,-8.02878 0,-6.61193 -1.88912,-11.80702 -1.88913,-5.19509 -7.08422,-8.50106 8.02878,-5.66737 8.02878,-11.33474 0,-5.66738 -3.77825,-11.33475 -4.72281,-6.61193 -12.75159,-12.2793 -7.55649,-5.66738 -13.22387,-9.44562 2.83369,-5.66738 4.72281,-8.97334 1.88913,-3.30597 5.66738,-8.97334 19.36352,-5.19509 39.19932,-7.5565 20.30808,-2.3614 46.75582,-5.19509 15.58527,-1.88912 29.7537,-1.41684 14.64071,0 23.61405,-3.30597 2.36141,-0.94456 3.77825,-2.83369 1.41684,-1.88912 3.77825,-2.3614 12.2793,-0.94456 23.61405,6.13965 11.33474,6.61194 17.94668,13.22387 -3.30597,8.50106 -13.69615,10.39018 -10.39018,1.88913 -22.19721,2.36141 -2.83369,0 -5.66737,0.47228 -2.36141,0 -5.19509,0 0,5.66737 -1.41685,12.2793 -0.94456,6.61194 -4.72281,12.27931 -2.83368,3.30597 -7.08421,6.13965 -3.77825,2.36141 -7.5565,3.77825 4.72281,2.83369 8.02878,2.36141 3.30597,-0.94456 6.13965,-2.83369 3.30597,-2.3614 6.13966,-5.19509 3.30596,-2.83369 7.55649,-3.30597 7.5565,-0.94456 14.16843,1.41685 7.08422,1.88912 13.22387,6.13965 8.50106,6.13965 15.58527,13.69615 7.08422,7.08421 13.22387,12.2793 -0.94456,6.61194 -7.55649,8.50106 -6.13966,1.41685 -12.75159,3.30597 -3.30597,10.86246 -5.66737,27.3923 -1.88913,16.05755 -6.61194,29.7537 -8.02877,2.83369 -14.64071,2.36141 -6.13965,-0.94457 -14.16843,-2.83369 -1.41684,-0.47228 -2.83368,-0.47228 -1.41685,-0.47228 -2.83369,-0.94456 0.94456,8.50106 -1.88912,17.00211 -2.36141,8.50106 -5.1951,14.64071 -2.83368,5.66738 -2.83368,5.66738 7.08421,-4.25053 14.16843,-2.36141 7.08421,1.88913 14.16843,5.19509 2.3614,0.94456 4.72281,2.36141 2.83368,0.94456 5.19509,1.41684 1.41684,0 0,-3.30597 -0.47228,-0.94456 -0.94456,-2.3614 -0.47228,-1.88913 0.47228,-3.77825 3.77825,-0.94456 8.02878,-0.94456 4.25052,0 9.44562,1.88912 -0.47228,-5.19509 -4.72281,-5.66737 -4.25053,-0.94456 -6.61194,-3.77825 20.78037,-10.86246 41.56073,-23.61405 21.25265,-12.75158 32.11511,-28.80914 -10.86246,-14.64071 -23.14177,-27.86458 -11.80703,-13.69615 -24.08633,-26.92002 7.08421,-4.25052 13.69615,-2.83368 7.08421,0.94456 13.69615,5.19509 9.9179,6.13965 20.30808,15.58527 10.39018,8.97334 20.78036,11.80703 6.13966,-5.19509 11.80703,-14.64071 5.66737,-9.44562 8.97334,-20.30809 3.30597,-11.33474 2.3614,-20.78036 -8.50105,-1.88913 -19.36352,-0.47228 -10.39018,1.41684 -21.25264,3.30596 -8.50106,1.41685 -17.00212,2.83369 -8.02878,0.94456 -16.05755,0.94456 -11.33475,0 -21.25265,-3.77825 -9.44562,-4.25052 -15.58527,-15.11299 5.66737,-7.55649 17.4744,-8.50106 12.2793,-1.41684 27.39229,-1.41684 6.61194,0 13.22387,0 7.08422,0 14.16843,-0.47228 11.33475,-0.94456 20.30809,-2.83369 8.97333,-1.88912 21.72492,-1.88912 6.13965,-7.08421 12.75159,-9.9179 6.61193,-2.83369 13.22387,-2.36141 12.75158,0.47229 25.50317,8.50106 13.22387,8.02878 23.14177,15.58528 3.30597,7.55649 1.41684,12.75158 -1.41684,4.72281 -6.13965,7.08422 -5.19509,2.83368 -13.22387,3.30596 -7.55649,0 -14.64071,-0.94456 -10.39018,16.05756 -20.30808,34.00424 -9.44562,17.47439 -18.41896,35.42107 8.02878,7.5565 19.36352,14.64071 11.33474,6.61194 24.08633,12.75159 6.13965,2.83369 12.75159,4.25053 7.08421,0.94456 11.33474,4.72281 1.41685,0.94456 1.41685,3.30597 0,2.3614 1.88912,4.72281 3.30597,3.30596 8.50106,7.08421 5.19509,3.30597 9.44562,7.08422 3.77825,3.30596 5.66737,7.08421 1.88912,3.30597 0.94456,8.50106 z m -160.10326,65.17478 q -25.03089,-3.77825 -54.31232,-1.41685 -28.80914,1.88913 -53.84003,8.50106 0.94456,1.41685 1.88912,2.83369 1.41685,0.94456 2.83369,2.3614 6.61193,8.02878 13.22387,17.94668 7.08421,9.44562 11.33474,22.66949 4.72281,12.75159 3.30597,30.22598 16.52983,1.88913 33.05967,1.41685 16.52984,-0.94456 32.58739,-1.88913 4.25053,-10.39018 8.02878,-26.44773 4.25053,-16.05756 5.66737,-31.64283 1.41684,-16.05755 -3.77825,-24.55861 z M 607.97811,492.06316 q -13.69615,-0.94456 -25.50318,0.94456 -11.33474,1.41684 -22.19721,3.30597 -9.9179,1.88912 -19.8358,3.30597 -9.9179,1.41684 -20.30808,0 0.47228,5.19509 0.47228,10.39018 0,4.72281 -0.47228,8.97334 0,6.13965 0,11.80702 0,5.19509 1.41684,10.86247 24.55861,-0.94457 44.39442,-2.83369 19.8358,-1.88913 40.14388,-8.02878 3.77825,-7.55649 4.72281,-19.36352 0.94456,-11.80702 -2.83368,-19.36352 z m -26.92002,102.48498 q -1.41684,-6.61194 -1.88913,-13.69615 -0.47228,-7.5565 -0.47228,-15.11299 -7.55649,-4.25053 -16.05755,-3.77825 -8.02878,0.47228 -16.52984,1.88912 -6.13965,0.94456 -12.2793,1.88913 -6.13966,0.47228 -11.80703,-1.41685 -0.94456,5.19509 -0.94456,9.44562 0,3.77825 0.47228,8.02878 0.47228,3.77825 0.47228,8.02878 0,3.77825 -0.47228,8.50106 13.69615,0.94456 30.69827,0.47228 17.00211,-0.47228 28.80914,-4.25053 z m -2.36141,-125.62675 q 1.88913,-6.61193 1.41685,-11.80703 -0.47228,-5.66737 -1.41685,-11.33474 0,-2.3614 -0.47228,-5.19509 -0.47228,-2.83369 -0.47228,-5.66737 -10.86246,-2.36141 -25.97545,0 -15.113,2.3614 -25.97546,6.61193 0,1.88913 -0.94456,4.72281 -0.47228,2.36141 -1.41684,5.19509 -1.41685,5.19509 -2.36141,10.39019 -0.94456,5.19509 0.94456,8.97333 8.02878,1.88913 16.05756,1.41685 8.50105,-0.47228 17.47439,-1.41685 5.66738,-0.94456 11.33475,-1.41684 6.13965,-0.47228 11.80702,-0.47228 z"
     id="path4693"
     style="font-size:472.281px;font-family:'Yuji Mai';-inkscape-font-specification:'Yuji Mai';fill:#29303d;stroke-width:21.1667;filter:url(#filter4712)"
     clip-path="url(#clipPath4759)" />
  <path
     d="m 800.39751,613.49921 c 4.199,0.573 6.541,-5.863 3.513,-9.655 -3.028,-3.792 -11.427,-4.94 -12.598,-1.721 -1.171,3.219 4.886,10.803 9.085,11.376 z"
     filter="url(#H)"
     id="path409"
     style="fill:#ffffff"
     transform="rotate(180,798.22412,608.53086)" />
  <path
     d="m 558.30492,669.27806 c 3.431,1.309 5.21,-2.488 2.67,-5.697 -2.54,-3.209 -9.405,-5.828 -10.295,-3.928 -0.89,1.9 4.194,8.316 7.625,9.625 z"
     filter="url(#I)"
     id="path411"
     style="fill:#ffffff"
     transform="rotate(-20,556.37576,664.27725)" />
  <path
     d="m 494.50326,611.08948 c 4.215,0.067 8.386,-3.856 6.256,-5.885 -2.13,-2.029 -10.563,-2.166 -12.648,-0.203 -2.085,1.963 2.177,6.021 6.393,6.088 z"
     filter="url(#J)"
     id="path413"
     style="fill:#ffffff"
     transform="rotate(20,491.05678,609.86328)" />
  <path
     d="m 526.72039,797.86491 c 4.495,1.912 11.428,0.6 13.007,-1.969 1.579,-2.569 -2.196,-6.397 -6.69,-8.312 -4.494,-1.915 -9.708,-1.915 -11.287,0.656 -1.579,2.571 0.476,7.712 4.971,9.624 z"
     filter="url(#K)"
     id="path415"
     style="fill:#ffffff" />
</svg>
